<svg xmlns="http://www.w3.org/2000/svg" viewBox="0 0 1000 600" width="100%" height="100%">
  <rect width="1000" height="600" rx="16" fill="#ffffff" stroke="#eceff1" stroke-width="1.5"/>
  <text x="500.0" y="35" font-family="system-ui, -apple-system, sans-serif" font-size="20" font-weight="bold" fill="#1e293b" text-anchor="middle">台股指數、M1B 資金活水與成交量歷史走勢對照圖 (2020年~至今)</text>
  <text x="80" y="65" font-family="system-ui, -apple-system, sans-serif" font-size="11.5" font-weight="bold" fill="#475569">【杜金龍大師命名邏輯】：依歷史波段漲幅分類（金龍大漲/中漲/慢漲）</text>
  <text x="80" y="85" font-family="system-ui, -apple-system, sans-serif" font-size="11.5" font-weight="bold" fill="#475569">【實質風險警示邏輯】：依高點後修正跌幅分類（大跌：崩盤 &gt; 35% | 中跌：修正 15-35% | 大漲/中漲：多頭續強）</text>
  <line x1="80" y1="530.0" x2="920" y2="530.0" stroke="#f1f5f9" stroke-width="1.5"/>
  <text x="68" y="534.0" font-family="system-ui, -apple-system, sans-serif" font-size="11" fill="#475569" text-anchor="end">0 點</text>
  <text x="932" y="534.0" font-family="system-ui, -apple-system, sans-serif" font-size="11" fill="#475569" text-anchor="start">0.0 兆</text>
  <line x1="80" y1="448.0" x2="920" y2="448.0" stroke="#f1f5f9" stroke-width="1.5"/>
  <text x="68" y="452.0" font-family="system-ui, -apple-system, sans-serif" font-size="11" fill="#475569" text-anchor="end">10,000 點</text>
  <text x="932" y="452.0" font-family="system-ui, -apple-system, sans-serif" font-size="11" fill="#475569" text-anchor="start">7.0 兆</text>
  <line x1="80" y1="366.0" x2="920" y2="366.0" stroke="#f1f5f9" stroke-width="1.5"/>
  <text x="68" y="370.0" font-family="system-ui, -apple-system, sans-serif" font-size="11" fill="#475569" text-anchor="end">20,000 點</text>
  <text x="932" y="370.0" font-family="system-ui, -apple-system, sans-serif" font-size="11" fill="#475569" text-anchor="start">14.0 兆</text>
  <line x1="80" y1="284.0" x2="920" y2="284.0" stroke="#f1f5f9" stroke-width="1.5"/>
  <text x="68" y="288.0" font-family="system-ui, -apple-system, sans-serif" font-size="11" fill="#475569" text-anchor="end">30,000 點</text>
  <text x="932" y="288.0" font-family="system-ui, -apple-system, sans-serif" font-size="11" fill="#475569" text-anchor="start">21.0 兆</text>
  <line x1="80" y1="202.0" x2="920" y2="202.0" stroke="#f1f5f9" stroke-width="1.5"/>
  <text x="68" y="206.0" font-family="system-ui, -apple-system, sans-serif" font-size="11" fill="#475569" text-anchor="end">40,000 點</text>
  <text x="932" y="206.0" font-family="system-ui, -apple-system, sans-serif" font-size="11" fill="#475569" text-anchor="start">28.0 兆</text>
  <line x1="80" y1="120.0" x2="920" y2="120.0" stroke="#f1f5f9" stroke-width="1.5"/>
  <text x="68" y="124.0" font-family="system-ui, -apple-system, sans-serif" font-size="11" fill="#475569" text-anchor="end">50,000 點</text>
  <text x="932" y="124.0" font-family="system-ui, -apple-system, sans-serif" font-size="11" fill="#475569" text-anchor="start">35.0 兆</text>
  <text x="65" y="105" font-family="system-ui, -apple-system, sans-serif" font-size="11" font-weight="bold" fill="#2563eb" text-anchor="end">← 每日加權指數 (點)</text>
  <text x="935" y="105" font-family="system-ui, -apple-system, sans-serif" font-size="11" font-weight="bold" fill="#059669" text-anchor="start">M1B 貨幣供給 (兆元) →</text>
  <path d="M 80.0,530.0 80.0,520.7 80.5,518.1 81.1,519.2 81.6,519.2 82.1,518.8 82.7,520.6 83.2,521.4 83.8,519.4 84.3,519.6 84.8,521.0 85.4,520.5 85.9,520.7 86.4,520.3 87.0,507.3 87.5,515.6 88.1,514.0 88.6,517.4 89.1,517.9 89.7,519.4 90.2,519.9 90.7,519.3 91.3,521.5 91.8,520.2 92.3,520.2 92.9,522.2 93.4,521.5 94.0,521.3 94.5,520.0 95.0,520.6 95.6,521.0 96.1,519.2 96.6,520.0 97.2,517.8 97.7,514.5 98.2,515.2 98.8,518.1 99.3,519.6 99.9,519.4 100.4,518.4 100.9,512.0 101.5,513.7 102.0,517.1 102.5,507.7 103.1,502.8 103.6,512.5 104.2,509.2 104.7,511.6 105.2,503.7 105.8,508.4 106.3,529.4 106.8,516.5 107.4,513.6 107.9,517.1 108.4,514.6 109.0,519.5 109.5,516.7 110.1,518.8 110.6,516.2 111.1,515.2 111.7,515.6 112.2,515.9 112.7,519.1 113.3,518.7 113.8,516.9 114.4,514.6 114.9,517.2 115.4,512.8 116.0,519.4 116.5,514.4 117.0,518.3 117.6,517.9 118.1,518.9 118.6,514.9 119.2,515.0 119.7,513.7 120.3,512.0 120.8,515.6 121.3,517.0 121.9,515.5 122.4,516.9 122.9,515.4 123.5,514.5 124.0,515.9 124.5,517.7 125.1,515.9 125.6,517.3 126.2,517.5 126.7,515.9 127.2,517.4 127.8,517.1 128.3,516.5 128.8,519.8 129.4,516.7 129.9,517.1 130.5,515.6 131.0,513.4 131.5,517.8 132.1,517.3 132.6,512.6 133.1,513.7 133.7,514.3 134.2,512.4 134.7,516.1 135.3,514.0 135.8,509.4 136.4,514.5 136.9,516.0 137.4,516.6 138.0,515.5 138.5,514.3 139.0,508.9 139.6,516.4 140.1,515.9 140.7,516.8 141.2,516.5 141.7,516.5 142.3,516.8 142.8,515.9 143.3,513.7 143.9,509.5 144.4,510.3 144.9,513.4 145.5,512.1 146.0,510.8 146.6,513.6 147.1,514.6 147.6,512.0 148.2,515.3 148.7,514.3 149.2,517.0 149.8,513.7 150.3,514.2 150.8,514.2 151.4,511.6 151.9,513.0 152.5,509.4 153.0,515.9 153.5,515.0 154.1,515.4 154.6,514.4 155.1,514.0 155.7,511.9 156.2,511.1 156.8,512.3 157.3,511.8 157.8,512.8 158.4,514.1 158.9,513.2 159.4,512.0 160.0,510.1 160.5,512.0 161.0,509.4 161.6,502.0 162.1,512.6 162.7,514.3 163.2,512.0 163.7,514.3 164.3,507.1 164.8,512.6 165.3,507.8 165.9,511.2 166.4,511.7 167.0,503.7 167.5,506.4 168.0,505.1 168.6,510.4 169.1,510.5 169.6,508.1 170.2,508.6 170.7,513.8 171.2,514.0 171.8,513.4 172.3,515.0 172.9,512.2 173.4,513.3 173.9,514.2 174.5,513.6 175.0,508.3 175.5,510.2 176.1,516.2 176.6,516.7 177.2,518.6 177.7,516.7 178.2,515.9 178.8,516.7 179.3,514.2 179.8,512.9 180.4,514.5 180.9,513.1 181.4,513.5 182.0,512.8 182.5,516.3 183.1,517.9 183.6,514.2 184.1,513.0 184.7,513.7 185.2,510.2 185.7,513.5 186.3,513.1 186.8,512.7 187.3,511.9 187.9,516.4 188.4,516.4 189.0,514.6 189.5,516.4 190.0,515.2 190.6,512.9 191.1,508.0 191.6,506.4 192.2,511.8 192.7,513.7 193.3,512.2 193.8,511.0 194.3,510.9 194.9,511.7 195.4,512.2 195.9,509.5 196.5,506.2 197.0,506.2 197.5,508.8 198.1,507.6 198.6,495.7 199.2,499.7 199.7,499.6 200.2,502.0 200.8,498.4 201.3,492.4 201.8,500.5 202.4,501.0 202.9,500.8 203.5,500.5 204.0,503.6 204.5,500.9 205.1,507.6 205.6,510.2 206.1,503.8 206.7,501.0 207.2,493.0 207.7,504.5 208.3,505.2 208.8,505.2 209.4,501.0 209.9,495.9 210.4,501.3 211.0,502.9 211.5,500.1 212.0,500.9 212.6,494.1 213.1,502.9 213.6,501.4 214.2,505.5 214.7,500.5 215.3,502.8 215.8,504.3 216.3,500.4 216.9,504.9 217.4,504.6 217.9,496.3 218.5,505.7 219.0,506.8 219.6,508.5 220.1,509.1 220.6,510.2 221.2,506.3 221.7,504.4 222.2,509.6 222.8,507.1 223.3,506.9 223.8,510.5 224.4,510.1 224.9,503.0 225.5,503.2 226.0,504.3 226.5,500.6 227.1,500.0 227.6,500.0 228.1,497.9 228.7,494.8 229.2,500.9 229.8,504.8 230.3,503.1 230.8,508.3 231.4,508.1 231.9,504.9 232.4,510.0 233.0,506.4 233.5,507.4 234.0,508.4 234.6,506.7 235.1,507.3 235.7,503.7 236.2,498.8 236.7,497.3 237.3,496.4 237.8,504.4 238.3,502.6 238.9,505.1 239.4,498.2 239.9,503.0 240.5,502.9 241.0,503.8 241.6,499.2 242.1,495.9 242.6,490.2 243.2,488.4 243.7,482.3 244.2,483.2 244.8,497.7 245.3,493.5 245.9,483.1 246.4,487.7 246.9,486.5 247.5,460.8 248.0,487.0 248.5,487.1 249.1,485.3 249.6,481.5 250.1,479.3 250.7,479.1 251.2,470.2 251.8,491.1 252.3,488.4 252.8,491.5 253.4,488.2 253.9,470.5 254.4,465.8 255.0,481.0 255.5,486.6 256.1,486.4 256.6,495.2 257.1,489.8 257.7,492.3 258.2,495.3 258.7,496.2 259.3,488.3 259.8,498.6 260.3,490.6 260.9,490.6 261.4,486.2 262.0,493.9 262.5,486.8 263.0,491.5 263.6,490.4 264.1,489.9 264.6,503.9 265.2,500.9 265.7,499.6 266.2,501.6 266.8,500.9 267.3,493.3 267.9,500.5 268.4,493.2 268.9,495.4 269.5,488.9 270.0,492.7 270.5,500.2 271.1,498.8 271.6,497.3 272.2,491.1 272.7,493.2 273.2,485.5 273.8,488.6 274.3,495.8 274.8,499.4 275.4,498.2 275.9,492.7 276.4,499.7 277.0,498.2 277.5,488.9 278.1,496.0 278.6,503.7 279.1,499.1 279.7,502.6 280.2,501.1 280.7,494.5 281.3,498.2 281.8,499.2 282.4,502.7 282.9,502.0 283.4,499.0 284.0,503.9 284.5,499.7 285.0,506.1 285.6,509.1 286.1,503.2 286.6,500.7 287.2,503.8 287.7,506.1 288.3,507.9 288.8,503.9 289.3,510.5 289.9,506.0 290.4,507.1 290.9,510.9 291.5,505.6 292.0,505.4 292.5,509.0 293.1,509.8 293.6,504.6 294.2,509.2 294.7,508.8 295.2,510.4 295.8,512.2 296.3,507.4 296.8,509.1 297.4,509.0 297.9,509.3 298.5,506.6 299.0,509.9 299.5,511.1 300.1,515.5 300.6,514.1 301.1,513.0 301.7,512.8 302.2,512.3 302.7,512.6 303.3,508.9 303.8,508.6 304.4,512.9 304.9,511.7 305.4,509.9 306.0,513.0 306.5,508.7 307.0,510.9 307.6,506.8 308.1,509.4 308.7,510.0 309.2,511.6 309.7,511.6 310.3,513.3 310.8,512.3 311.3,512.6 311.9,512.4 312.4,513.3 312.9,510.9 313.5,512.1 314.0,513.2 314.6,510.1 315.1,512.5 315.6,514.5 316.2,512.3 316.7,513.7 317.2,508.7 317.8,509.0 318.3,509.2 318.8,505.2 319.4,508.6 319.9,509.3 320.5,508.1 321.0,504.1 321.5,504.7 322.1,503.2 322.6,501.6 323.1,504.5 323.7,505.2 324.2,501.3 324.8,500.5 325.3,498.6 325.8,501.2 326.4,507.4 326.9,506.9 327.4,507.3 328.0,508.3 328.5,503.8 329.0,507.5 329.6,501.7 330.1,510.5 330.7,507.0 331.2,509.7 331.7,512.2 332.3,505.0 332.8,505.7 333.3,505.7 333.9,508.6 334.4,507.9 335.0,507.5 335.5,512.6 336.0,510.1 336.6,506.2 337.1,512.5 337.6,513.6 338.2,513.7 338.7,512.2 339.2,512.3 339.8,512.9 340.3,512.0 340.9,511.6 341.4,511.2 341.9,510.1 342.5,510.5 343.0,510.3 343.5,514.3 344.1,508.2 344.6,514.1 345.2,508.3 345.7,510.6 346.2,508.8 346.8,509.0 347.3,515.4 347.8,515.4 348.4,514.2 348.9,515.2 349.4,510.8 350.0,513.5 350.5,513.8 351.1,516.6 351.6,530.0 352.1,511.4 352.7,512.0 353.2,513.3 353.7,513.7 354.3,513.4 354.8,513.3 355.3,512.4 355.9,506.4 356.4,507.5 357.0,509.3 357.5,506.7 358.0,512.9 358.6,502.3 359.1,506.8 359.6,508.9 360.2,511.5 360.7,511.5 361.3,509.6 361.8,503.1 362.3,502.9 362.9,511.7 363.4,509.3 363.9,515.6 364.5,514.2 365.0,510.9 365.5,507.6 366.1,506.8 366.6,507.0 367.2,512.9 367.7,514.1 368.2,511.8 368.8,512.1 369.3,512.1 369.8,515.2 370.4,514.2 370.9,512.8 371.5,514.2 372.0,514.3 372.5,510.4 373.1,507.6 373.6,513.7 374.1,508.9 374.7,511.1 375.2,511.3 375.7,509.6 376.3,511.2 376.8,511.5 377.4,513.8 377.9,507.9 378.4,511.8 379.0,510.1 379.5,509.1 380.0,511.8 380.6,510.3 381.1,513.2 381.6,514.2 382.2,518.7 382.7,517.9 383.3,515.2 383.8,515.3 384.3,512.7 384.9,513.9 385.4,516.4 385.9,511.4 386.5,515.2 387.0,514.8 387.6,517.1 388.1,514.3 388.6,514.2 389.2,516.9 389.7,514.8 390.2,516.3 390.8,515.7 391.3,515.9 391.8,516.4 392.4,514.6 392.9,504.5 393.5,515.7 394.0,517.8 394.5,516.7 395.1,518.8 395.6,518.9 396.1,519.1 396.7,519.1 397.2,515.7 397.8,515.8 398.3,516.3 398.8,513.2 399.4,509.8 399.9,511.6 400.4,513.6 401.0,511.8 401.5,511.9 402.0,515.8 402.6,515.6 403.1,515.7 403.7,515.1 404.2,513.1 404.7,510.2 405.3,515.0 405.8,514.0 406.3,513.0 406.9,514.0 407.4,513.8 407.9,517.9 408.5,515.6 409.0,514.6 409.6,516.4 410.1,516.0 410.6,515.6 411.2,516.3 411.7,513.7 412.2,514.2 412.8,513.0 413.3,517.9 413.9,517.9 414.4,518.1 414.9,516.6 415.5,515.6 416.0,517.7 416.5,515.4 417.1,517.8 417.6,517.2 418.1,517.3 418.7,518.2 419.2,516.8 419.8,516.8 420.3,514.2 420.8,516.5 421.4,515.5 421.9,516.0 422.4,515.7 423.0,517.8 423.5,515.0 424.1,517.2 424.6,518.9 425.1,517.7 425.7,518.5 426.2,515.3 426.7,516.3 427.3,517.4 427.8,516.1 428.3,516.1 428.9,516.1 429.4,517.8 430.0,517.8 430.5,518.7 431.0,519.2 431.6,517.9 432.1,518.3 432.6,518.4 433.2,517.5 433.7,513.2 434.2,519.3 434.8,518.8 435.3,517.5 435.9,515.7 436.4,518.1 436.9,515.5 437.5,517.4 438.0,513.9 438.5,516.2 439.1,517.0 439.6,519.9 440.2,519.0 440.7,517.2 441.2,520.1 441.8,521.4 442.3,516.9 442.8,518.8 443.4,514.1 443.9,516.3 444.4,516.0 445.0,518.0 445.5,518.6 446.1,513.7 446.6,519.8 447.1,519.5 447.7,519.4 448.2,519.8 448.7,519.1 449.3,520.3 449.8,520.8 450.4,520.6 450.9,520.6 451.4,520.7 452.0,519.1 452.5,517.3 453.0,516.1 453.6,516.2 454.1,519.2 454.6,511.6 455.2,514.3 455.7,514.1 456.3,514.5 456.8,517.5 457.3,517.1 457.9,519.9 458.4,519.5 458.9,519.2 459.5,517.9 460.0,517.0 460.5,518.2 461.1,515.5 461.6,509.4 462.2,512.6 462.7,516.2 463.2,515.2 463.8,515.1 464.3,514.9 464.8,518.8 465.4,518.3 465.9,519.8 466.5,517.4 467.0,517.8 467.5,518.1 468.1,509.5 468.6,515.2 469.1,513.0 469.7,515.1 470.2,515.0 470.7,520.9 471.3,522.7 471.8,521.6 472.4,521.0 472.9,521.5 473.4,521.9 474.0,521.6 474.5,520.4 475.0,520.4 475.6,522.0 476.1,518.1 476.7,520.5 477.2,520.8 477.7,521.6 478.3,521.8 478.8,522.6 479.3,521.8 479.9,512.9 480.4,514.5 480.9,516.1 481.5,515.0 482.0,517.8 482.6,519.3 483.1,519.6 483.6,518.4 484.2,519.7 484.7,518.5 485.2,519.9 485.8,520.4 486.3,518.8 486.8,516.7 487.4,518.3 487.9,516.2 488.5,516.2 489.0,516.7 489.5,516.1 490.1,517.5 490.6,515.9 491.1,517.7 491.7,516.0 492.2,515.7 492.8,516.4 493.3,515.7 493.8,513.6 494.4,511.9 494.9,515.5 495.4,515.7 496.0,516.2 496.5,514.1 497.0,514.2 497.6,518.8 498.1,517.2 498.7,517.2 499.2,517.8 499.7,516.6 500.3,517.5 500.8,518.3 501.3,519.0 501.9,519.5 502.4,518.7 503.0,518.4 503.5,519.9 504.0,519.8 504.6,517.3 505.1,515.5 505.6,512.4 506.2,513.9 506.7,514.3 507.2,514.6 507.8,513.6 508.3,515.4 508.9,513.8 509.4,518.6 509.9,514.1 510.5,517.3 511.0,517.9 511.5,516.2 512.1,516.6 512.6,518.4 513.2,518.6 513.7,519.4 514.2,516.9 514.8,516.8 515.3,519.1 515.8,517.2 516.4,517.5 516.9,518.7 517.4,517.9 518.0,515.7 518.5,514.4 519.1,511.8 519.6,514.7 520.1,516.0 520.7,516.4 521.2,513.6 521.7,511.6 522.3,512.1 522.8,513.2 523.3,506.8 523.9,512.1 524.4,508.8 525.0,508.9 525.5,512.2 526.0,512.8 526.6,512.2 527.1,513.4 527.6,512.8 528.2,512.6 528.7,510.2 529.3,507.4 529.8,501.4 530.3,508.5 530.9,510.7 531.4,509.9 531.9,511.7 532.5,511.4 533.0,515.0 533.5,514.5 534.1,513.7 534.6,511.9 535.2,509.5 535.7,510.8 536.2,509.8 536.8,512.5 537.3,514.4 537.8,511.8 538.4,511.2 538.9,507.6 539.5,509.4 540.0,507.7 540.5,501.6 541.1,507.4 541.6,513.1 542.1,510.4 542.7,511.3 543.2,512.4 543.7,510.9 544.3,509.2 544.8,510.7 545.4,506.9 545.9,512.2 546.4,507.4 547.0,512.3 547.5,514.5 548.0,513.0 548.6,515.1 549.1,512.4 549.6,515.5 550.2,512.7 550.7,515.4 551.3,513.8 551.8,512.8 552.3,512.3 552.9,517.8 553.4,516.5 553.9,516.0 554.5,511.6 555.0,515.2 555.6,515.9 556.1,517.8 556.6,516.3 557.2,512.4 557.7,515.3 558.2,517.4 558.8,517.9 559.3,515.6 559.8,517.4 560.4,518.5 560.9,515.7 561.5,517.3 562.0,517.7 562.5,516.0 563.1,510.1 563.6,517.8 564.1,516.7 564.7,516.3 565.2,517.0 565.8,519.5 566.3,520.5 566.8,518.9 567.4,519.9 567.9,518.6 568.4,517.7 569.0,517.6 569.5,517.9 570.0,518.5 570.6,519.4 571.1,513.2 571.7,516.5 572.2,516.4 572.7,516.9 573.3,516.3 573.8,512.3 574.3,518.0 574.9,516.0 575.4,519.5 575.9,517.8 576.5,517.7 577.0,518.1 577.6,520.1 578.1,519.6 578.6,517.5 579.2,519.9 579.7,518.6 580.2,517.0 580.8,517.5 581.3,519.9 581.9,517.7 582.4,518.8 582.9,520.0 583.5,518.4 584.0,517.9 584.5,511.8 585.1,514.7 585.6,515.3 586.1,516.0 586.7,512.8 587.2,515.4 587.8,515.3 588.3,516.0 588.8,515.4 589.4,514.2 589.9,514.3 590.4,509.3 591.0,514.3 591.5,511.9 592.1,513.3 592.6,514.7 593.1,514.5 593.7,515.4 594.2,516.1 594.7,514.5 595.3,514.3 595.8,511.2 596.3,506.8 596.9,511.7 597.4,511.9 598.0,510.7 598.5,511.4 599.0,512.9 599.6,516.0 600.1,516.6 600.6,514.4 601.2,514.8 601.7,516.8 602.2,515.0 602.8,515.7 603.3,515.7 603.9,515.8 604.4,516.0 604.9,515.2 605.5,516.9 606.0,516.7 606.5,518.0 607.1,530.0 607.6,514.2 608.2,511.7 608.7,516.0 609.2,514.5 609.8,513.9 610.3,515.3 610.8,517.6 611.4,518.5 611.9,518.5 612.4,520.0 613.0,518.8 613.5,519.4 614.1,517.9 614.6,517.6 615.1,518.1 615.7,512.8 616.2,513.1 616.7,512.3 617.3,514.4 617.8,514.8 618.4,513.5 618.9,512.9 619.4,515.1 620.0,512.5 620.5,512.0 621.0,514.5 621.6,511.5 622.1,512.4 622.6,512.1 623.2,508.9 623.7,507.4 624.3,513.7 624.8,511.3 625.3,507.6 625.9,509.4 626.4,506.1 626.9,512.7 627.5,511.3 628.0,509.2 628.5,509.6 629.1,508.4 629.6,513.3 630.2,508.9 630.7,512.2 631.2,510.2 631.8,510.5 632.3,515.5 632.8,514.3 633.4,514.1 633.9,513.4 634.5,508.6 635.0,509.1 635.5,509.0 636.1,508.2 636.6,508.1 637.1,505.2 637.7,511.6 638.2,507.6 638.7,497.1 639.3,503.6 639.8,511.1 640.4,508.3 640.9,512.4 641.4,508.3 642.0,504.6 642.5,510.0 643.0,508.2 643.6,508.1 644.1,508.8 644.7,509.0 645.2,509.3 645.7,510.0 646.3,506.0 646.8,507.8 647.3,506.9 647.9,506.5 648.4,504.2 648.9,506.6 649.5,505.7 650.0,508.8 650.6,505.2 651.1,504.6 651.6,510.5 652.2,507.5 652.7,507.4 653.2,505.9 653.8,509.3 654.3,496.9 654.8,508.1 655.4,507.6 655.9,511.0 656.5,508.0 657.0,507.0 657.5,505.6 658.1,509.8 658.6,510.6 659.1,509.9 659.7,510.4 660.2,510.2 660.8,506.8 661.3,509.5 661.8,500.2 662.4,506.5 662.9,509.8 663.4,510.2 664.0,509.1 664.5,509.9 665.0,510.2 665.6,506.8 666.1,503.6 666.7,505.3 667.2,505.5 667.7,504.0 668.3,500.7 668.8,504.6 669.3,503.4 669.9,502.1 670.4,506.0 671.0,508.0 671.5,502.2 672.0,504.1 672.6,504.9 673.1,506.0 673.6,511.9 674.2,510.9 674.7,511.9 675.2,513.1 675.8,513.1 676.3,510.9 676.9,508.9 677.4,500.4 677.9,502.1 678.5,511.6 679.0,512.7 679.5,509.6 680.1,512.4 680.6,514.4 681.2,511.8 681.7,515.5 682.2,512.2 682.8,515.6 683.3,512.1 683.8,510.9 684.4,516.1 684.9,510.3 685.4,507.5 686.0,513.1 686.5,514.8 687.1,514.2 687.6,510.4 688.1,516.5 688.7,516.5 689.2,508.9 689.7,514.5 690.3,518.1 690.8,516.4 691.3,515.6 691.9,516.8 692.4,515.9 693.0,518.4 693.5,517.0 694.0,511.6 694.6,514.3 695.1,506.5 695.6,513.5 696.2,513.8 696.7,511.5 697.3,511.9 697.8,511.1 698.3,513.5 698.9,517.1 699.4,513.2 699.9,513.8 700.5,513.6 701.0,513.1 701.5,516.1 702.1,517.5 702.6,513.5 703.2,512.9 703.7,514.9 704.2,512.6 704.8,516.1 705.3,515.9 705.8,516.0 706.4,514.7 706.9,517.3 707.5,516.7 708.0,516.5 708.5,516.2 709.1,513.5 709.6,517.5 710.1,516.8 710.7,515.4 711.2,512.7 711.7,513.2 712.3,515.4 712.8,511.6 713.4,513.9 713.9,513.4 714.4,512.4 715.0,514.2 715.5,513.0 716.0,512.7 716.6,514.3 717.1,513.8 717.6,506.7 718.2,516.2 718.7,513.5 719.3,515.6 719.8,517.1 720.3,517.0 720.9,515.7 721.4,516.9 721.9,516.9 722.5,516.4 723.0,515.2 723.6,516.6 724.1,517.3 724.6,515.9 725.2,516.0 725.7,515.3 726.2,514.2 726.8,514.8 727.3,514.1 727.8,508.4 728.4,513.8 728.9,514.6 729.5,515.8 730.0,516.4 730.5,518.9 731.1,518.5 731.6,518.1 732.1,515.5 732.7,517.0 733.2,516.4 733.8,515.2 734.3,518.0 734.8,514.3 735.4,516.3 735.9,513.7 736.4,519.3 737.0,519.1 737.5,518.5 738.0,518.6 738.6,520.0 739.1,530.0 739.7,517.6 740.2,514.2 740.7,516.2 741.3,518.6 741.8,518.9 742.3,517.7 742.9,517.5 743.4,516.4 743.9,515.4 744.5,513.4 745.0,512.4 745.6,514.3 746.1,516.0 746.6,513.7 747.2,513.6 747.7,513.8 748.2,515.2 748.8,512.9 749.3,514.5 749.9,506.5 750.4,514.7 750.9,515.7 751.5,515.8 752.0,516.8 752.5,516.2 753.1,515.8 753.6,513.4 754.1,515.4 754.7,513.1 755.2,514.4 755.8,516.3 756.3,517.8 756.8,516.5 757.4,517.9 757.9,513.4 758.4,517.8 759.0,518.2 759.5,519.4 760.1,517.7 760.6,515.0 761.1,511.4 761.7,517.3 762.2,519.4 762.7,522.8 763.3,503.1 763.8,501.5 764.3,517.7 764.9,508.0 765.4,510.7 766.0,516.8 766.5,517.1 767.0,519.4 767.6,520.2 768.1,519.3 768.6,518.3 769.2,517.6 769.7,518.8 770.2,517.7 770.8,520.2 771.3,518.3 771.9,517.1 772.4,517.2 772.9,511.9 773.5,515.7 774.0,517.6 774.5,519.2 775.1,517.3 775.6,517.6 776.2,513.4 776.7,513.1 777.2,513.7 777.8,512.9 778.3,514.3 778.8,516.6 779.4,515.8 779.9,515.5 780.4,515.9 781.0,515.7 781.5,513.8 782.1,513.2 782.6,506.6 783.1,512.4 783.7,512.8 784.2,511.3 784.7,513.8 785.3,516.3 785.8,516.0 786.4,513.7 786.9,513.1 787.4,515.9 788.0,514.8 788.5,518.4 789.0,516.0 789.6,515.2 790.1,515.9 790.6,509.6 791.2,516.1 791.7,512.6 792.3,514.3 792.8,513.0 793.3,514.1 793.9,514.1 794.4,513.0 794.9,516.6 795.5,514.5 796.0,514.9 796.5,518.1 797.1,517.7 797.6,516.6 798.2,516.9 798.7,509.5 799.2,518.2 799.8,517.6 800.3,515.4 800.8,515.8 801.4,516.2 801.9,517.2 802.5,512.6 803.0,514.6 803.5,513.1 804.1,516.4 804.6,515.0 805.1,513.6 805.7,514.5 806.2,512.7 806.7,514.3 807.3,515.3 807.8,514.2 808.4,514.9 808.9,513.9 809.4,512.5 810.0,512.2 810.5,510.7 811.0,507.5 811.6,509.3 812.1,509.3 812.7,508.1 813.2,508.2 813.7,510.0 814.3,511.9 814.8,513.2 815.3,512.4 815.9,506.5 816.4,511.4 816.9,511.1 817.5,510.5 818.0,511.6 818.6,513.3 819.1,515.2 819.6,511.1 820.2,511.8 820.7,510.5 821.2,510.5 821.8,509.2 822.3,506.2 822.8,509.9 823.4,512.8 823.9,510.5 824.5,509.7 825.0,508.1 825.5,502.1 826.1,510.1 826.6,508.0 827.1,510.1 827.7,505.5 828.2,509.8 828.8,513.4 829.3,511.0 829.8,510.0 830.4,511.8 830.9,508.3 831.4,509.4 832.0,504.4 832.5,507.6 833.0,500.4 833.6,509.5 834.1,508.5 834.7,509.3 835.2,510.2 835.7,510.2 836.3,511.8 836.8,512.4 837.3,507.1 837.9,506.9 838.4,506.8 839.0,506.3 839.5,509.4 840.0,511.7 840.6,510.5 841.1,511.2 841.6,511.0 842.2,510.0 842.7,510.8 843.2,505.5 843.8,505.6 844.3,499.7 844.9,506.1 845.4,507.9 845.9,504.9 846.5,509.5 847.0,507.6 847.5,511.5 848.1,501.6 848.6,512.8 849.2,511.5 849.7,513.3 850.2,511.8 850.8,512.6 851.3,510.6 851.8,512.6 852.4,513.4 852.9,512.4 853.4,511.2 854.0,507.4 854.5,508.0 855.1,510.4 855.6,507.8 856.1,510.8 856.7,506.3 857.2,504.6 857.7,507.9 858.3,504.0 858.8,506.8 859.3,509.0 859.9,508.7 860.4,509.2 861.0,509.5 861.5,506.3 862.0,503.8 862.6,502.6 863.1,501.1 863.6,498.3 864.2,491.5 864.7,491.8 865.3,499.9 865.8,503.6 866.3,499.2 866.9,502.1 867.4,499.7 867.9,496.2 868.5,493.7 869.0,493.6 869.5,491.2 870.1,494.7 870.6,496.9 871.2,500.2 871.7,495.4 872.2,495.8 872.8,493.4 873.3,493.1 873.8,501.7 874.4,501.9 874.9,504.7 875.5,503.0 876.0,504.7 876.5,507.6 877.1,509.6 877.6,505.4 878.1,498.4 878.7,499.3 879.2,491.8 879.7,489.9 880.3,493.8 880.8,489.3 881.4,493.9 881.9,503.3 882.4,504.7 883.0,498.9 883.5,501.1 884.0,503.0 884.6,495.2 885.1,498.7 885.6,501.0 886.2,499.7 886.7,497.7 887.3,499.2 887.8,493.9 888.3,504.6 888.9,506.1 889.4,509.1 889.9,506.3 890.5,507.1 891.0,506.8 891.6,503.0 892.1,508.2 892.6,505.4 893.2,509.4 893.7,503.8 894.2,499.6 894.8,498.9 895.3,504.3 895.8,496.9 896.4,497.5 896.9,499.1 897.5,498.6 898.0,500.2 898.5,500.7 899.1,501.2 899.6,490.7 900.1,503.9 900.7,503.2 901.2,506.8 901.8,506.9 902.3,503.8 902.8,504.0 903.4,502.1 903.9,492.6 904.4,493.9 905.0,493.9 905.5,499.0 906.0,491.6 906.6,492.5 907.1,493.2 907.7,492.2 908.2,500.9 908.7,499.8 909.3,502.1 909.8,499.1 910.3,494.5 910.9,490.8 911.4,478.6 911.9,481.0 912.5,479.5 913.0,471.8 913.6,484.4 914.1,476.5 914.6,476.4 915.2,483.2 915.7,491.0 916.2,500.2 916.8,495.6 917.3,494.0 917.9,498.8 918.4,499.6 918.9,501.6 919.5,499.7 920.0,497.7 920.0,530.0 Z" fill="#94a3b8" opacity="0.25"/>
  <path d="M 80.0,305.0 L 80.5,305.0 L 81.1,305.0 L 81.6,305.0 L 82.1,305.0 L 82.7,305.0 L 83.2,305.0 L 83.8,305.0 L 84.3,305.0 L 84.8,305.0 L 85.4,305.0 L 85.9,305.0 L 86.4,305.0 L 87.0,305.0 L 87.5,305.0 L 88.1,303.2 L 88.6,303.2 L 89.1,303.2 L 89.7,303.2 L 90.2,303.2 L 90.7,303.2 L 91.3,303.2 L 91.8,303.2 L 92.3,303.2 L 92.9,303.2 L 93.4,303.2 L 94.0,303.2 L 94.5,303.2 L 95.0,303.2 L 95.6,303.2 L 96.1,303.2 L 96.6,303.2 L 97.2,303.2 L 97.7,303.2 L 98.2,302.3 L 98.8,302.3 L 99.3,302.3 L 99.9,302.3 L 100.4,302.3 L 100.9,302.3 L 101.5,302.3 L 102.0,302.3 L 102.5,302.3 L 103.1,302.3 L 103.6,302.3 L 104.2,302.3 L 104.7,302.3 L 105.2,302.3 L 105.8,302.3 L 106.3,302.3 L 106.8,302.3 L 107.4,302.3 L 107.9,302.3 L 108.4,302.3 L 109.0,302.3 L 109.5,302.3 L 110.1,300.0 L 110.6,300.0 L 111.1,300.0 L 111.7,300.0 L 112.2,300.0 L 112.7,300.0 L 113.3,300.0 L 113.8,300.0 L 114.4,300.0 L 114.9,300.0 L 115.4,300.0 L 116.0,300.0 L 116.5,300.0 L 117.0,300.0 L 117.6,300.0 L 118.1,300.0 L 118.6,300.0 L 119.2,300.0 L 119.7,300.0 L 120.3,300.0 L 120.8,298.3 L 121.3,298.3 L 121.9,298.3 L 122.4,298.3 L 122.9,298.3 L 123.5,298.3 L 124.0,298.3 L 124.5,298.3 L 125.1,298.3 L 125.6,298.3 L 126.2,298.3 L 126.7,298.3 L 127.2,298.3 L 127.8,298.3 L 128.3,298.3 L 128.8,298.3 L 129.4,298.3 L 129.9,298.3 L 130.5,298.3 L 131.0,298.3 L 131.5,294.7 L 132.1,294.7 L 132.6,294.7 L 133.1,294.7 L 133.7,294.7 L 134.2,294.7 L 134.7,294.7 L 135.3,294.7 L 135.8,294.7 L 136.4,294.7 L 136.9,294.7 L 137.4,294.7 L 138.0,294.7 L 138.5,294.7 L 139.0,294.7 L 139.6,294.7 L 140.1,294.7 L 140.7,294.7 L 141.2,294.7 L 141.7,294.7 L 142.3,291.4 L 142.8,291.4 L 143.3,291.4 L 143.9,291.4 L 144.4,291.4 L 144.9,291.4 L 145.5,291.4 L 146.0,291.4 L 146.6,291.4 L 147.1,291.4 L 147.6,291.4 L 148.2,291.4 L 148.7,291.4 L 149.2,291.4 L 149.8,291.4 L 150.3,291.4 L 150.8,291.4 L 151.4,291.4 L 151.9,291.4 L 152.5,291.4 L 153.0,291.4 L 153.5,291.4 L 154.1,291.4 L 154.6,286.6 L 155.1,286.6 L 155.7,286.6 L 156.2,286.6 L 156.8,286.6 L 157.3,286.6 L 157.8,286.6 L 158.4,286.6 L 158.9,286.6 L 159.4,286.6 L 160.0,286.6 L 160.5,286.6 L 161.0,286.6 L 161.6,286.6 L 162.1,286.6 L 162.7,286.6 L 163.2,286.6 L 163.7,286.6 L 164.3,286.6 L 164.8,286.6 L 165.3,286.6 L 165.9,283.9 L 166.4,283.9 L 167.0,283.9 L 167.5,283.9 L 168.0,283.9 L 168.6,283.9 L 169.1,283.9 L 169.6,283.9 L 170.2,283.9 L 170.7,283.9 L 171.2,283.9 L 171.8,283.9 L 172.3,283.9 L 172.9,283.9 L 173.4,283.9 L 173.9,283.9 L 174.5,283.9 L 175.0,283.9 L 175.5,283.9 L 176.1,283.9 L 176.6,283.9 L 177.2,283.9 L 177.7,283.3 L 178.2,283.3 L 178.8,283.3 L 179.3,283.3 L 179.8,283.3 L 180.4,283.3 L 180.9,283.3 L 181.4,283.3 L 182.0,283.3 L 182.5,283.3 L 183.1,283.3 L 183.6,283.3 L 184.1,283.3 L 184.7,283.3 L 185.2,283.3 L 185.7,283.3 L 186.3,283.3 L 186.8,283.3 L 187.3,283.3 L 187.9,279.1 L 188.4,279.1 L 189.0,279.1 L 189.5,279.1 L 190.0,279.1 L 190.6,279.1 L 191.1,279.1 L 191.6,279.1 L 192.2,279.1 L 192.7,279.1 L 193.3,279.1 L 193.8,279.1 L 194.3,279.1 L 194.9,279.1 L 195.4,279.1 L 195.9,279.1 L 196.5,279.1 L 197.0,279.1 L 197.5,279.1 L 198.1,279.1 L 198.6,279.1 L 199.2,272.8 L 199.7,272.8 L 200.2,272.8 L 200.8,272.8 L 201.3,272.8 L 201.8,272.8 L 202.4,272.8 L 202.9,272.8 L 203.5,272.8 L 204.0,272.8 L 204.5,272.8 L 205.1,272.8 L 205.6,272.8 L 206.1,272.8 L 206.7,272.8 L 207.2,272.8 L 207.7,272.8 L 208.3,272.8 L 208.8,272.8 L 209.4,272.8 L 209.9,272.8 L 210.4,272.8 L 211.0,272.8 L 211.5,265.0 L 212.0,265.0 L 212.6,265.0 L 213.1,265.0 L 213.6,265.0 L 214.2,265.0 L 214.7,265.0 L 215.3,265.0 L 215.8,265.0 L 216.3,265.0 L 216.9,265.0 L 217.4,265.0 L 217.9,265.0 L 218.5,265.0 L 219.0,265.0 L 219.6,265.0 L 220.1,265.0 L 220.6,265.0 L 221.2,265.0 L 221.7,265.0 L 222.2,261.1 L 222.8,261.1 L 223.3,261.1 L 223.8,261.1 L 224.4,261.1 L 224.9,261.1 L 225.5,261.1 L 226.0,261.1 L 226.5,261.1 L 227.1,261.1 L 227.6,261.1 L 228.1,261.1 L 228.7,261.1 L 229.2,260.8 L 229.8,260.8 L 230.3,260.8 L 230.8,260.8 L 231.4,260.8 L 231.9,260.8 L 232.4,260.8 L 233.0,260.8 L 233.5,260.8 L 234.0,260.8 L 234.6,260.8 L 235.1,260.8 L 235.7,260.8 L 236.2,260.8 L 236.7,260.8 L 237.3,260.8 L 237.8,260.8 L 238.3,260.8 L 238.9,260.8 L 239.4,260.8 L 239.9,260.8 L 240.5,260.8 L 241.0,259.3 L 241.6,259.3 L 242.1,259.3 L 242.6,259.3 L 243.2,259.3 L 243.7,259.3 L 244.2,259.3 L 244.8,259.3 L 245.3,259.3 L 245.9,259.3 L 246.4,259.3 L 246.9,259.3 L 247.5,259.3 L 248.0,259.3 L 248.5,259.3 L 249.1,259.3 L 249.6,259.3 L 250.1,259.3 L 250.7,257.2 L 251.2,257.2 L 251.8,257.2 L 252.3,257.2 L 252.8,257.2 L 253.4,257.2 L 253.9,257.2 L 254.4,257.2 L 255.0,257.2 L 255.5,257.2 L 256.1,257.2 L 256.6,257.2 L 257.1,257.2 L 257.7,257.2 L 258.2,257.2 L 258.7,257.2 L 259.3,257.2 L 259.8,257.2 L 260.3,257.2 L 260.9,257.2 L 261.4,257.2 L 262.0,253.9 L 262.5,253.9 L 263.0,253.9 L 263.6,253.9 L 264.1,253.9 L 264.6,253.9 L 265.2,253.9 L 265.7,253.9 L 266.2,253.9 L 266.8,253.9 L 267.3,253.9 L 267.9,253.9 L 268.4,253.9 L 268.9,253.9 L 269.5,253.9 L 270.0,253.9 L 270.5,253.9 L 271.1,253.9 L 271.6,253.9 L 272.2,253.9 L 272.7,253.9 L 273.2,251.7 L 273.8,251.7 L 274.3,251.7 L 274.8,251.7 L 275.4,251.7 L 275.9,251.7 L 276.4,251.7 L 277.0,251.7 L 277.5,251.7 L 278.1,251.7 L 278.6,251.7 L 279.1,251.7 L 279.7,251.7 L 280.2,251.7 L 280.7,251.7 L 281.3,251.7 L 281.8,251.7 L 282.4,251.7 L 282.9,251.7 L 283.4,251.7 L 284.0,251.7 L 284.5,251.7 L 285.0,249.1 L 285.6,249.1 L 286.1,249.1 L 286.6,249.1 L 287.2,249.1 L 287.7,249.1 L 288.3,249.1 L 288.8,249.1 L 289.3,249.1 L 289.9,249.1 L 290.4,249.1 L 290.9,249.1 L 291.5,249.1 L 292.0,249.1 L 292.5,249.1 L 293.1,249.1 L 293.6,249.1 L 294.2,249.1 L 294.7,249.1 L 295.2,249.1 L 295.8,249.1 L 296.3,249.1 L 296.8,247.0 L 297.4,247.0 L 297.9,247.0 L 298.5,247.0 L 299.0,247.0 L 299.5,247.0 L 300.1,247.0 L 300.6,247.0 L 301.1,247.0 L 301.7,247.0 L 302.2,247.0 L 302.7,247.0 L 303.3,247.0 L 303.8,247.0 L 304.4,247.0 L 304.9,247.0 L 305.4,247.0 L 306.0,247.0 L 306.5,247.0 L 307.0,247.0 L 307.6,246.4 L 308.1,246.4 L 308.7,246.4 L 309.2,246.4 L 309.7,246.4 L 310.3,246.4 L 310.8,246.4 L 311.3,246.4 L 311.9,246.4 L 312.4,246.4 L 312.9,246.4 L 313.5,246.4 L 314.0,246.4 L 314.6,246.4 L 315.1,246.4 L 315.6,246.4 L 316.2,246.4 L 316.7,246.4 L 317.2,246.4 L 317.8,246.4 L 318.3,243.5 L 318.8,243.5 L 319.4,243.5 L 319.9,243.5 L 320.5,243.5 L 321.0,243.5 L 321.5,243.5 L 322.1,243.5 L 322.6,243.5 L 323.1,243.5 L 323.7,243.5 L 324.2,243.5 L 324.8,243.5 L 325.3,243.5 L 325.8,243.5 L 326.4,243.5 L 326.9,243.5 L 327.4,243.5 L 328.0,243.5 L 328.5,243.5 L 329.0,243.5 L 329.6,243.5 L 330.1,240.0 L 330.7,240.0 L 331.2,240.0 L 331.7,240.0 L 332.3,240.0 L 332.8,240.0 L 333.3,240.0 L 333.9,240.0 L 334.4,240.0 L 335.0,240.0 L 335.5,240.0 L 336.0,240.0 L 336.6,240.0 L 337.1,240.0 L 337.6,240.0 L 338.2,240.0 L 338.7,240.0 L 339.2,240.0 L 339.8,240.0 L 340.3,240.0 L 340.9,240.0 L 341.4,240.0 L 341.9,234.5 L 342.5,234.5 L 343.0,234.5 L 343.5,234.5 L 344.1,234.5 L 344.6,234.5 L 345.2,234.5 L 345.7,234.5 L 346.2,234.5 L 346.8,234.5 L 347.3,234.5 L 347.8,234.5 L 348.4,234.5 L 348.9,234.5 L 349.4,234.5 L 350.0,234.5 L 350.5,234.5 L 351.1,234.5 L 351.6,231.3 L 352.1,231.3 L 352.7,231.3 L 353.2,231.3 L 353.7,231.3 L 354.3,231.3 L 354.8,231.3 L 355.3,231.3 L 355.9,231.3 L 356.4,231.3 L 357.0,231.3 L 357.5,231.3 L 358.0,231.3 L 358.6,231.3 L 359.1,231.3 L 359.6,231.4 L 360.2,231.4 L 360.7,231.4 L 361.3,231.4 L 361.8,231.4 L 362.3,231.4 L 362.9,231.4 L 363.4,231.4 L 363.9,231.4 L 364.5,231.4 L 365.0,231.4 L 365.5,231.4 L 366.1,231.4 L 366.6,231.4 L 367.2,231.4 L 367.7,231.4 L 368.2,231.4 L 368.8,231.4 L 369.3,231.4 L 369.8,231.4 L 370.4,231.4 L 370.9,231.4 L 371.5,231.4 L 372.0,232.7 L 372.5,232.7 L 373.1,232.7 L 373.6,232.7 L 374.1,232.7 L 374.7,232.7 L 375.2,232.7 L 375.7,232.7 L 376.3,232.7 L 376.8,232.7 L 377.4,232.7 L 377.9,232.7 L 378.4,232.7 L 379.0,232.7 L 379.5,232.7 L 380.0,232.7 L 380.6,232.7 L 381.1,232.7 L 381.6,232.7 L 382.2,233.9 L 382.7,233.9 L 383.3,233.9 L 383.8,233.9 L 384.3,233.9 L 384.9,233.9 L 385.4,233.9 L 385.9,233.9 L 386.5,233.9 L 387.0,233.9 L 387.6,233.9 L 388.1,233.9 L 388.6,233.9 L 389.2,233.9 L 389.7,233.9 L 390.2,233.9 L 390.8,233.9 L 391.3,233.9 L 391.8,233.9 L 392.4,233.9 L 392.9,233.9 L 393.5,231.6 L 394.0,231.6 L 394.5,231.6 L 395.1,231.6 L 395.6,231.6 L 396.1,231.6 L 396.7,231.6 L 397.2,231.6 L 397.8,231.6 L 398.3,231.6 L 398.8,231.6 L 399.4,231.6 L 399.9,231.6 L 400.4,231.6 L 401.0,231.6 L 401.5,231.6 L 402.0,231.6 L 402.6,231.6 L 403.1,231.6 L 403.7,231.6 L 404.2,231.6 L 404.7,233.1 L 405.3,233.1 L 405.8,233.1 L 406.3,233.1 L 406.9,233.1 L 407.4,233.1 L 407.9,233.1 L 408.5,233.1 L 409.0,233.1 L 409.6,233.1 L 410.1,233.1 L 410.6,233.1 L 411.2,233.1 L 411.7,233.1 L 412.2,233.1 L 412.8,233.1 L 413.3,233.1 L 413.9,233.1 L 414.4,233.1 L 414.9,233.1 L 415.5,233.1 L 416.0,227.9 L 416.5,227.9 L 417.1,227.9 L 417.6,227.9 L 418.1,227.9 L 418.7,227.9 L 419.2,227.9 L 419.8,227.9 L 420.3,227.9 L 420.8,227.9 L 421.4,227.9 L 421.9,227.9 L 422.4,227.9 L 423.0,227.9 L 423.5,227.9 L 424.1,227.9 L 424.6,227.9 L 425.1,227.9 L 425.7,227.9 L 426.2,227.9 L 426.7,227.9 L 427.3,227.9 L 427.8,227.9 L 428.3,228.4 L 428.9,228.4 L 429.4,228.4 L 430.0,228.4 L 430.5,228.4 L 431.0,228.4 L 431.6,228.4 L 432.1,228.4 L 432.6,228.4 L 433.2,228.4 L 433.7,228.4 L 434.2,228.4 L 434.8,228.4 L 435.3,228.4 L 435.9,228.4 L 436.4,228.4 L 436.9,228.4 L 437.5,228.4 L 438.0,228.4 L 438.5,228.4 L 439.1,228.4 L 439.6,231.7 L 440.2,231.7 L 440.7,231.7 L 441.2,231.7 L 441.8,231.7 L 442.3,231.7 L 442.8,231.7 L 443.4,231.7 L 443.9,231.7 L 444.4,231.7 L 445.0,231.7 L 445.5,231.7 L 446.1,231.7 L 446.6,231.7 L 447.1,231.7 L 447.7,231.7 L 448.2,231.7 L 448.7,231.7 L 449.3,231.7 L 449.8,231.7 L 450.4,230.8 L 450.9,230.8 L 451.4,230.8 L 452.0,230.8 L 452.5,230.8 L 453.0,230.8 L 453.6,230.8 L 454.1,230.8 L 454.6,230.8 L 455.2,230.8 L 455.7,230.8 L 456.3,230.8 L 456.8,230.8 L 457.3,230.8 L 457.9,230.8 L 458.4,230.8 L 458.9,230.8 L 459.5,230.8 L 460.0,230.8 L 460.5,230.8 L 461.1,230.8 L 461.6,230.8 L 462.2,228.0 L 462.7,228.0 L 463.2,228.0 L 463.8,228.0 L 464.3,228.0 L 464.8,228.0 L 465.4,228.0 L 465.9,228.0 L 466.5,228.0 L 467.0,228.0 L 467.5,228.0 L 468.1,228.0 L 468.6,228.0 L 469.1,228.0 L 469.7,228.0 L 470.2,228.0 L 470.7,228.0 L 471.3,228.0 L 471.8,228.0 L 472.4,228.0 L 472.9,228.0 L 473.4,228.0 L 474.0,226.4 L 474.5,226.4 L 475.0,226.4 L 475.6,226.4 L 476.1,226.4 L 476.7,226.4 L 477.2,226.4 L 477.7,226.4 L 478.3,226.4 L 478.8,226.4 L 479.3,226.4 L 479.9,226.4 L 480.4,226.4 L 480.9,225.2 L 481.5,225.2 L 482.0,225.2 L 482.6,225.2 L 483.1,225.2 L 483.6,225.2 L 484.2,225.2 L 484.7,225.2 L 485.2,225.2 L 485.8,225.2 L 486.3,225.2 L 486.8,225.2 L 487.4,225.2 L 487.9,225.2 L 488.5,225.2 L 489.0,225.2 L 489.5,225.2 L 490.1,225.2 L 490.6,225.4 L 491.1,225.4 L 491.7,225.4 L 492.2,225.4 L 492.8,225.4 L 493.3,225.4 L 493.8,225.4 L 494.4,225.4 L 494.9,225.4 L 495.4,225.4 L 496.0,225.4 L 496.5,225.4 L 497.0,225.4 L 497.6,225.4 L 498.1,225.4 L 498.7,225.4 L 499.2,225.4 L 499.7,225.4 L 500.3,225.4 L 500.8,225.4 L 501.3,225.4 L 501.9,225.4 L 502.4,225.4 L 503.0,224.7 L 503.5,224.7 L 504.0,224.7 L 504.6,224.7 L 505.1,224.7 L 505.6,224.7 L 506.2,224.7 L 506.7,224.7 L 507.2,224.7 L 507.8,224.7 L 508.3,224.7 L 508.9,224.7 L 509.4,224.7 L 509.9,224.7 L 510.5,224.7 L 511.0,224.7 L 511.5,224.7 L 512.1,224.2 L 512.6,224.2 L 513.2,224.2 L 513.7,224.2 L 514.2,224.2 L 514.8,224.2 L 515.3,224.2 L 515.8,224.2 L 516.4,224.2 L 516.9,224.2 L 517.4,224.2 L 518.0,224.2 L 518.5,224.2 L 519.1,224.2 L 519.6,224.2 L 520.1,224.2 L 520.7,224.2 L 521.2,224.2 L 521.7,224.2 L 522.3,224.2 L 522.8,224.2 L 523.3,224.2 L 523.9,224.6 L 524.4,224.6 L 525.0,224.6 L 525.5,224.6 L 526.0,224.6 L 526.6,224.6 L 527.1,224.6 L 527.6,224.6 L 528.2,224.6 L 528.7,224.6 L 529.3,224.6 L 529.8,224.6 L 530.3,224.6 L 530.9,224.6 L 531.4,224.6 L 531.9,224.6 L 532.5,224.6 L 533.0,224.6 L 533.5,224.6 L 534.1,224.6 L 534.6,222.1 L 535.2,222.1 L 535.7,222.1 L 536.2,222.1 L 536.8,222.1 L 537.3,222.1 L 537.8,222.1 L 538.4,222.1 L 538.9,222.1 L 539.5,222.1 L 540.0,222.1 L 540.5,222.1 L 541.1,222.1 L 541.6,222.1 L 542.1,222.1 L 542.7,222.1 L 543.2,222.1 L 543.7,222.1 L 544.3,222.1 L 544.8,222.1 L 545.4,222.1 L 545.9,219.2 L 546.4,219.2 L 547.0,219.2 L 547.5,219.2 L 548.0,219.2 L 548.6,219.2 L 549.1,219.2 L 549.6,219.2 L 550.2,219.2 L 550.7,219.2 L 551.3,219.2 L 551.8,219.2 L 552.3,219.2 L 552.9,219.2 L 553.4,219.2 L 553.9,219.2 L 554.5,219.2 L 555.0,219.2 L 555.6,219.2 L 556.1,219.2 L 556.6,219.2 L 557.2,219.2 L 557.7,220.1 L 558.2,220.1 L 558.8,220.1 L 559.3,220.1 L 559.8,220.1 L 560.4,220.1 L 560.9,220.1 L 561.5,220.1 L 562.0,220.1 L 562.5,220.1 L 563.1,220.1 L 563.6,220.1 L 564.1,220.1 L 564.7,220.1 L 565.2,220.1 L 565.8,220.1 L 566.3,220.1 L 566.8,220.1 L 567.4,220.1 L 567.9,220.1 L 568.4,221.8 L 569.0,221.8 L 569.5,221.8 L 570.0,221.8 L 570.6,221.8 L 571.1,221.8 L 571.7,221.8 L 572.2,221.8 L 572.7,221.8 L 573.3,221.8 L 573.8,221.8 L 574.3,221.8 L 574.9,221.8 L 575.4,221.8 L 575.9,221.8 L 576.5,221.8 L 577.0,221.8 L 577.6,221.8 L 578.1,221.8 L 578.6,221.8 L 579.2,221.7 L 579.7,221.7 L 580.2,221.7 L 580.8,221.7 L 581.3,221.7 L 581.9,221.7 L 582.4,221.7 L 582.9,221.7 L 583.5,221.7 L 584.0,221.7 L 584.5,221.7 L 585.1,221.7 L 585.6,221.7 L 586.1,221.7 L 586.7,221.7 L 587.2,221.7 L 587.8,221.7 L 588.3,221.7 L 588.8,221.7 L 589.4,221.7 L 589.9,221.7 L 590.4,221.7 L 591.0,218.6 L 591.5,218.6 L 592.1,218.6 L 592.6,218.6 L 593.1,218.6 L 593.7,218.6 L 594.2,218.6 L 594.7,218.6 L 595.3,218.6 L 595.8,218.6 L 596.3,218.6 L 596.9,218.6 L 597.4,218.6 L 598.0,218.6 L 598.5,218.6 L 599.0,218.6 L 599.6,218.6 L 600.1,218.6 L 600.6,218.6 L 601.2,218.6 L 601.7,218.6 L 602.2,215.7 L 602.8,215.7 L 603.3,215.7 L 603.9,215.7 L 604.4,215.7 L 604.9,215.7 L 605.5,215.7 L 606.0,215.7 L 606.5,215.7 L 607.1,215.7 L 607.6,215.7 L 608.2,215.7 L 608.7,215.7 L 609.2,215.7 L 609.8,215.7 L 610.3,215.7 L 610.8,215.7 L 611.4,215.7 L 611.9,215.7 L 612.4,215.7 L 613.0,215.7 L 613.5,215.7 L 614.1,211.6 L 614.6,211.6 L 615.1,211.6 L 615.7,211.6 L 616.2,211.6 L 616.7,211.6 L 617.3,211.6 L 617.8,211.6 L 618.4,211.6 L 618.9,211.6 L 619.4,211.6 L 620.0,211.6 L 620.5,211.6 L 621.0,209.0 L 621.6,209.0 L 622.1,209.0 L 622.6,209.0 L 623.2,209.0 L 623.7,209.0 L 624.3,209.0 L 624.8,209.0 L 625.3,209.0 L 625.9,209.0 L 626.4,209.0 L 626.9,209.0 L 627.5,209.0 L 628.0,209.0 L 628.5,209.0 L 629.1,209.0 L 629.6,209.0 L 630.2,209.0 L 630.7,209.0 L 631.2,209.0 L 631.8,209.0 L 632.3,209.6 L 632.8,209.6 L 633.4,209.6 L 633.9,209.6 L 634.5,209.6 L 635.0,209.6 L 635.5,209.6 L 636.1,209.6 L 636.6,209.6 L 637.1,209.6 L 637.7,209.6 L 638.2,209.6 L 638.7,209.6 L 639.3,209.6 L 639.8,209.6 L 640.4,209.6 L 640.9,209.6 L 641.4,209.6 L 642.0,209.6 L 642.5,209.6 L 643.0,208.9 L 643.6,208.9 L 644.1,208.9 L 644.7,208.9 L 645.2,208.9 L 645.7,208.9 L 646.3,208.9 L 646.8,208.9 L 647.3,208.9 L 647.9,208.9 L 648.4,208.9 L 648.9,208.9 L 649.5,208.9 L 650.0,208.9 L 650.6,208.9 L 651.1,208.9 L 651.6,208.9 L 652.2,208.9 L 652.7,208.9 L 653.2,208.9 L 653.8,208.9 L 654.3,208.9 L 654.8,208.6 L 655.4,208.6 L 655.9,208.6 L 656.5,208.6 L 657.0,208.6 L 657.5,208.6 L 658.1,208.6 L 658.6,208.6 L 659.1,208.6 L 659.7,208.6 L 660.2,208.6 L 660.8,208.6 L 661.3,208.6 L 661.8,208.6 L 662.4,208.6 L 662.9,208.6 L 663.4,208.6 L 664.0,208.6 L 664.5,208.6 L 665.0,206.1 L 665.6,206.1 L 666.1,206.1 L 666.7,206.1 L 667.2,206.1 L 667.7,206.1 L 668.3,206.1 L 668.8,206.1 L 669.3,206.1 L 669.9,206.1 L 670.4,206.1 L 671.0,206.1 L 671.5,206.1 L 672.0,206.1 L 672.6,206.1 L 673.1,206.1 L 673.6,206.1 L 674.2,206.1 L 674.7,206.1 L 675.2,206.1 L 675.8,206.1 L 676.3,206.7 L 676.9,206.7 L 677.4,206.7 L 677.9,206.7 L 678.5,206.7 L 679.0,206.7 L 679.5,206.7 L 680.1,206.7 L 680.6,206.7 L 681.2,206.7 L 681.7,206.7 L 682.2,206.7 L 682.8,206.7 L 683.3,206.7 L 683.8,206.7 L 684.4,206.7 L 684.9,206.7 L 685.4,206.7 L 686.0,206.7 L 686.5,206.7 L 687.1,206.7 L 687.6,206.7 L 688.1,207.5 L 688.7,207.5 L 689.2,207.5 L 689.7,207.5 L 690.3,207.5 L 690.8,207.5 L 691.3,207.5 L 691.9,207.5 L 692.4,207.5 L 693.0,207.5 L 693.5,207.5 L 694.0,207.5 L 694.6,207.5 L 695.1,207.5 L 695.6,207.5 L 696.2,207.5 L 696.7,207.5 L 697.3,207.5 L 697.8,207.5 L 698.3,207.5 L 698.9,206.7 L 699.4,206.7 L 699.9,206.7 L 700.5,206.7 L 701.0,206.7 L 701.5,206.7 L 702.1,206.7 L 702.6,206.7 L 703.2,206.7 L 703.7,206.7 L 704.2,206.7 L 704.8,206.7 L 705.3,206.7 L 705.8,206.7 L 706.4,206.7 L 706.9,206.7 L 707.5,206.7 L 708.0,206.7 L 708.5,206.7 L 709.1,207.7 L 709.6,207.7 L 710.1,207.7 L 710.7,207.7 L 711.2,207.7 L 711.7,207.7 L 712.3,207.7 L 712.8,207.7 L 713.4,207.7 L 713.9,207.7 L 714.4,207.7 L 715.0,207.7 L 715.5,207.7 L 716.0,207.7 L 716.6,207.7 L 717.1,207.7 L 717.6,207.7 L 718.2,207.7 L 718.7,207.7 L 719.3,207.7 L 719.8,207.7 L 720.3,206.1 L 720.9,206.1 L 721.4,206.1 L 721.9,206.1 L 722.5,206.1 L 723.0,206.1 L 723.6,206.1 L 724.1,206.1 L 724.6,206.1 L 725.2,206.1 L 725.7,206.1 L 726.2,206.1 L 726.8,206.1 L 727.3,206.1 L 727.8,206.1 L 728.4,206.1 L 728.9,206.1 L 729.5,206.1 L 730.0,206.1 L 730.5,206.1 L 731.1,206.1 L 731.6,206.1 L 732.1,201.9 L 732.7,201.9 L 733.2,201.9 L 733.8,201.9 L 734.3,201.9 L 734.8,201.9 L 735.4,201.9 L 735.9,201.9 L 736.4,201.9 L 737.0,201.9 L 737.5,201.9 L 738.0,201.9 L 738.6,201.9 L 739.1,201.9 L 739.7,201.9 L 740.2,201.7 L 740.7,201.7 L 741.3,201.7 L 741.8,201.7 L 742.3,201.7 L 742.9,201.7 L 743.4,201.7 L 743.9,201.7 L 744.5,201.7 L 745.0,201.7 L 745.6,201.7 L 746.1,201.7 L 746.6,201.7 L 747.2,201.7 L 747.7,201.7 L 748.2,201.7 L 748.8,201.7 L 749.3,201.7 L 749.9,201.7 L 750.4,203.2 L 750.9,203.2 L 751.5,203.2 L 752.0,203.2 L 752.5,203.2 L 753.1,203.2 L 753.6,203.2 L 754.1,203.2 L 754.7,203.2 L 755.2,203.2 L 755.8,203.2 L 756.3,203.2 L 756.8,203.2 L 757.4,203.2 L 757.9,203.2 L 758.4,203.2 L 759.0,203.2 L 759.5,203.2 L 760.1,203.2 L 760.6,203.2 L 761.1,203.2 L 761.7,203.7 L 762.2,203.7 L 762.7,203.7 L 763.3,203.7 L 763.8,203.7 L 764.3,203.7 L 764.9,203.7 L 765.4,203.7 L 766.0,203.7 L 766.5,203.7 L 767.0,203.7 L 767.6,203.7 L 768.1,203.7 L 768.6,203.7 L 769.2,203.7 L 769.7,203.7 L 770.2,203.7 L 770.8,203.7 L 771.3,203.7 L 771.9,203.7 L 772.4,202.6 L 772.9,202.6 L 773.5,202.6 L 774.0,202.6 L 774.5,202.6 L 775.1,202.6 L 775.6,202.6 L 776.2,202.6 L 776.7,202.6 L 777.2,202.6 L 777.8,202.6 L 778.3,202.6 L 778.8,202.6 L 779.4,202.6 L 779.9,202.6 L 780.4,202.6 L 781.0,202.6 L 781.5,202.6 L 782.1,202.6 L 782.6,202.6 L 783.1,200.8 L 783.7,200.8 L 784.2,200.8 L 784.7,200.8 L 785.3,200.8 L 785.8,200.8 L 786.4,200.8 L 786.9,200.8 L 787.4,200.8 L 788.0,200.8 L 788.5,200.8 L 789.0,200.8 L 789.6,200.8 L 790.1,200.8 L 790.6,200.8 L 791.2,200.8 L 791.7,200.8 L 792.3,200.8 L 792.8,200.8 L 793.3,200.8 L 793.9,200.8 L 794.4,196.8 L 794.9,196.8 L 795.5,196.8 L 796.0,196.8 L 796.5,196.8 L 797.1,196.8 L 797.6,196.8 L 798.2,196.8 L 798.7,196.8 L 799.2,196.8 L 799.8,196.8 L 800.3,196.8 L 800.8,196.8 L 801.4,196.8 L 801.9,196.8 L 802.5,196.8 L 803.0,196.8 L 803.5,196.8 L 804.1,196.8 L 804.6,196.8 L 805.1,196.8 L 805.7,196.8 L 806.2,196.8 L 806.7,192.3 L 807.3,192.3 L 807.8,192.3 L 808.4,192.3 L 808.9,192.3 L 809.4,192.3 L 810.0,192.3 L 810.5,192.3 L 811.0,192.3 L 811.6,192.3 L 812.1,192.3 L 812.7,192.3 L 813.2,192.3 L 813.7,192.3 L 814.3,192.3 L 814.8,192.3 L 815.3,192.3 L 815.9,192.3 L 816.4,192.3 L 816.9,192.3 L 817.5,192.3 L 818.0,190.5 L 818.6,190.5 L 819.1,190.5 L 819.6,190.5 L 820.2,190.5 L 820.7,190.5 L 821.2,190.5 L 821.8,190.5 L 822.3,190.5 L 822.8,190.5 L 823.4,190.5 L 823.9,190.5 L 824.5,190.5 L 825.0,190.5 L 825.5,190.5 L 826.1,190.5 L 826.6,190.5 L 827.1,190.5 L 827.7,190.5 L 828.2,190.5 L 828.8,190.5 L 829.3,191.0 L 829.8,191.0 L 830.4,191.0 L 830.9,191.0 L 831.4,191.0 L 832.0,191.0 L 832.5,191.0 L 833.0,191.0 L 833.6,191.0 L 834.1,191.0 L 834.7,191.0 L 835.2,191.0 L 835.7,191.0 L 836.3,191.0 L 836.8,191.0 L 837.3,191.0 L 837.9,191.0 L 838.4,191.0 L 839.0,191.0 L 839.5,191.0 L 840.0,191.8 L 840.6,191.8 L 841.1,191.8 L 841.6,191.8 L 842.2,191.8 L 842.7,191.8 L 843.2,191.8 L 843.8,191.8 L 844.3,191.8 L 844.9,191.8 L 845.4,191.8 L 845.9,191.8 L 846.5,191.8 L 847.0,191.8 L 847.5,191.8 L 848.1,191.8 L 848.6,191.8 L 849.2,191.8 L 849.7,191.8 L 850.2,191.8 L 850.8,190.4 L 851.3,190.4 L 851.8,190.4 L 852.4,190.4 L 852.9,190.4 L 853.4,190.4 L 854.0,190.4 L 854.5,190.4 L 855.1,190.4 L 855.6,190.4 L 856.1,190.4 L 856.7,190.4 L 857.2,190.4 L 857.7,190.4 L 858.3,190.4 L 858.8,190.4 L 859.3,190.4 L 859.9,190.4 L 860.4,190.4 L 861.0,190.4 L 861.5,190.4 L 862.0,190.4 L 862.6,183.6 L 863.1,183.6 L 863.6,183.6 L 864.2,183.6 L 864.7,183.6 L 865.3,183.6 L 865.8,183.6 L 866.3,183.6 L 866.9,183.6 L 867.4,183.6 L 867.9,183.6 L 868.5,183.6 L 869.0,183.6 L 869.5,183.6 L 870.1,183.6 L 870.6,183.6 L 871.2,183.6 L 871.7,183.6 L 872.2,183.6 L 872.8,183.6 L 873.3,183.6 L 873.8,178.4 L 874.4,178.4 L 874.9,178.4 L 875.5,178.4 L 876.0,178.4 L 876.5,178.4 L 877.1,178.4 L 877.6,178.4 L 878.1,178.4 L 878.7,178.4 L 879.2,178.4 L 879.7,178.4 L 880.3,177.6 L 880.8,177.6 L 881.4,177.6 L 881.9,177.6 L 882.4,177.6 L 883.0,177.6 L 883.5,177.6 L 884.0,177.6 L 884.6,177.6 L 885.1,177.6 L 885.6,177.6 L 886.2,177.6 L 886.7,177.6 L 887.3,177.6 L 887.8,177.6 L 888.3,177.6 L 888.9,177.6 L 889.4,177.6 L 889.9,177.6 L 890.5,177.6 L 891.0,177.6 L 891.6,177.6 L 892.1,176.8 L 892.6,176.8 L 893.2,176.8 L 893.7,176.8 L 894.2,176.8 L 894.8,176.8 L 895.3,176.8 L 895.8,176.8 L 896.4,176.8 L 896.9,176.8 L 897.5,176.8 L 898.0,176.8 L 898.5,176.8 L 899.1,176.8 L 899.6,176.8 L 900.1,176.8 L 900.7,176.8 L 901.2,176.8 L 901.8,176.8 L 902.3,176.8 L 902.8,176.8 L 903.4,176.8 L 903.9,176.8 L 904.4,176.8 L 905.0,176.8 L 905.5,176.8 L 906.0,176.8 L 906.6,176.8 L 907.1,176.8 L 907.7,176.8 L 908.2,176.8 L 908.7,176.8 L 909.3,176.8 L 909.8,176.8 L 910.3,176.8 L 910.9,176.8 L 911.4,176.8 L 911.9,176.8 L 912.5,176.8 L 913.0,176.8 L 913.6,176.8 L 914.1,176.8 L 914.6,176.8 L 915.2,176.8 L 915.7,176.8 L 916.2,176.8 L 916.8,176.8 L 917.3,176.8 L 917.9,176.8 L 918.4,176.8 L 918.9,176.8 L 919.5,176.8 L 920.0,176.8" fill="none" stroke="#10b981" stroke-width="1.8" stroke-dasharray="4 2" opacity="0.85" stroke-linejoin="round"/>
  <path d="M 80.0,430.8 L 80.5,430.7 L 81.1,432.0 L 81.6,432.6 L 82.1,433.1 L 82.7,431.8 L 83.2,431.4 L 83.8,430.7 L 84.3,430.1 L 84.8,430.8 L 85.4,431.1 L 85.9,430.9 L 86.4,430.6 L 87.0,436.3 L 87.5,435.7 L 88.1,436.9 L 88.6,435.2 L 89.1,435.1 L 89.7,433.7 L 90.2,434.8 L 90.7,435.1 L 91.3,434.4 L 91.8,433.5 L 92.3,433.3 L 92.9,433.1 L 93.4,433.5 L 94.0,434.5 L 94.5,433.6 L 95.0,433.9 L 95.6,434.2 L 96.1,435.4 L 96.6,435.4 L 97.2,436.2 L 97.7,437.4 L 98.2,438.4 L 98.8,437.1 L 99.3,436.6 L 99.9,435.6 L 100.4,437.2 L 100.9,440.0 L 101.5,439.8 L 102.0,440.7 L 102.5,444.5 L 103.1,446.9 L 103.6,450.3 L 104.2,452.6 L 104.7,454.4 L 105.2,458.8 L 105.8,454.3 L 106.3,457.1 L 106.8,453.9 L 107.4,450.9 L 107.9,450.2 L 108.4,450.5 L 109.0,451.0 L 109.5,450.4 L 110.1,450.8 L 110.6,449.5 L 111.1,448.0 L 111.7,446.9 L 112.2,447.0 L 112.7,446.7 L 113.3,447.2 L 113.8,445.3 L 114.4,444.3 L 114.9,444.9 L 115.4,443.1 L 116.0,443.2 L 116.5,445.6 L 117.0,445.5 L 117.6,445.0 L 118.1,445.2 L 118.6,443.3 L 119.2,442.9 L 119.7,441.7 L 120.3,439.9 L 120.8,442.1 L 121.3,441.6 L 121.9,441.6 L 122.4,441.1 L 122.9,440.6 L 123.5,439.7 L 124.0,440.8 L 124.5,440.3 L 125.1,441.6 L 125.6,441.3 L 126.2,441.9 L 126.7,440.9 L 127.2,440.6 L 127.8,439.7 L 128.3,441.3 L 128.8,440.9 L 129.4,439.8 L 129.9,439.7 L 130.5,440.3 L 131.0,440.3 L 131.5,439.2 L 132.1,438.8 L 132.6,437.2 L 133.1,436.6 L 133.7,435.9 L 134.2,434.8 L 134.7,434.6 L 135.3,433.9 L 135.8,435.4 L 136.4,436.3 L 136.9,437.3 L 137.4,435.6 L 138.0,435.4 L 138.5,435.3 L 139.0,435.3 L 139.6,435.1 L 140.1,434.8 L 140.7,434.4 L 141.2,435.4 L 141.7,434.7 L 142.3,434.0 L 142.8,433.2 L 143.3,432.3 L 143.9,430.6 L 144.4,430.8 L 144.9,430.2 L 145.5,430.0 L 146.0,431.0 L 146.6,429.9 L 147.1,429.9 L 147.6,429.9 L 148.2,430.3 L 148.7,430.1 L 149.2,430.2 L 149.8,428.3 L 150.3,427.7 L 150.8,428.2 L 151.4,429.1 L 151.9,426.8 L 152.5,426.8 L 153.0,427.2 L 153.5,425.7 L 154.1,426.1 L 154.6,427.4 L 155.1,425.8 L 155.7,425.0 L 156.2,424.1 L 156.8,424.8 L 157.3,424.3 L 157.8,425.2 L 158.4,426.1 L 158.9,425.3 L 159.4,425.1 L 160.0,423.8 L 160.5,424.4 L 161.0,425.2 L 161.6,428.6 L 162.1,426.6 L 162.7,426.3 L 163.2,425.4 L 163.7,424.8 L 164.3,425.1 L 164.8,425.6 L 165.3,426.8 L 165.9,425.8 L 166.4,425.9 L 167.0,425.4 L 167.5,426.4 L 168.0,426.7 L 168.6,426.2 L 169.1,426.6 L 169.6,425.9 L 170.2,426.1 L 170.7,425.1 L 171.2,424.7 L 171.8,423.6 L 172.3,424.4 L 172.9,424.4 L 173.4,425.1 L 173.9,426.3 L 174.5,426.8 L 175.0,429.4 L 175.5,429.7 L 176.1,427.8 L 176.6,427.8 L 177.2,427.4 L 177.7,427.1 L 178.2,425.8 L 178.8,425.5 L 179.3,424.3 L 179.8,423.8 L 180.4,423.8 L 180.9,424.1 L 181.4,424.8 L 182.0,425.4 L 182.5,424.2 L 183.1,424.5 L 183.6,424.4 L 184.1,424.1 L 184.7,424.2 L 185.2,424.1 L 185.7,424.4 L 186.3,425.1 L 186.8,426.2 L 187.3,427.1 L 187.9,426.8 L 188.4,425.6 L 189.0,424.5 L 189.5,424.1 L 190.0,423.6 L 190.6,422.4 L 191.1,422.7 L 191.6,421.3 L 192.2,421.6 L 192.7,421.2 L 193.3,418.9 L 193.8,418.5 L 194.3,417.1 L 194.9,417.5 L 195.4,417.5 L 195.9,416.2 L 196.5,416.8 L 197.0,417.3 L 197.5,416.5 L 198.1,416.3 L 198.6,417.5 L 199.2,416.1 L 199.7,415.3 L 200.2,415.4 L 200.8,414.1 L 201.3,413.1 L 201.8,412.2 L 202.4,412.0 L 202.9,413.2 L 203.5,413.1 L 204.0,413.5 L 204.5,414.6 L 205.1,412.7 L 205.6,413.1 L 206.1,413.2 L 206.7,412.0 L 207.2,413.7 L 207.7,413.4 L 208.3,412.9 L 208.8,412.5 L 209.4,411.2 L 209.9,411.3 L 210.4,409.6 L 211.0,409.2 L 211.5,407.8 L 212.0,407.0 L 212.6,407.1 L 213.1,405.2 L 213.6,403.2 L 214.2,402.4 L 214.7,402.9 L 215.3,400.7 L 215.8,401.2 L 216.3,401.9 L 216.9,402.0 L 217.4,399.8 L 217.9,400.4 L 218.5,397.5 L 219.0,398.6 L 219.6,399.2 L 220.1,401.6 L 220.6,401.2 L 221.2,403.6 L 221.7,405.9 L 222.2,403.6 L 222.8,400.8 L 223.3,400.7 L 223.8,401.2 L 224.4,400.4 L 224.9,395.8 L 225.5,395.3 L 226.0,396.0 L 226.5,395.4 L 227.1,395.2 L 227.6,397.1 L 228.1,395.1 L 228.7,399.2 L 229.2,399.2 L 229.8,397.1 L 230.3,399.6 L 230.8,400.0 L 231.4,400.3 L 231.9,400.0 L 232.4,399.5 L 233.0,397.3 L 233.5,396.7 L 234.0,396.8 L 234.6,396.2 L 235.1,397.0 L 235.7,396.4 L 236.2,398.2 L 236.7,397.2 L 237.3,397.3 L 237.8,398.5 L 238.3,398.3 L 238.9,396.3 L 239.4,394.9 L 239.9,394.2 L 240.5,395.3 L 241.0,394.1 L 241.6,392.1 L 242.1,391.2 L 242.6,391.8 L 243.2,391.8 L 243.7,392.0 L 244.2,391.7 L 244.8,390.0 L 245.3,389.3 L 245.9,388.4 L 246.4,387.9 L 246.9,388.9 L 247.5,389.8 L 248.0,388.1 L 248.5,385.9 L 249.1,385.7 L 249.6,385.9 L 250.1,386.0 L 250.7,388.8 L 251.2,391.1 L 251.8,391.9 L 252.3,390.6 L 252.8,388.3 L 253.4,388.7 L 253.9,394.0 L 254.4,399.6 L 255.0,401.5 L 255.5,400.2 L 256.1,404.1 L 256.6,397.6 L 257.1,397.7 L 257.7,398.5 L 258.2,396.3 L 258.7,396.0 L 259.3,393.9 L 259.8,393.5 L 260.3,393.9 L 260.9,391.7 L 261.4,390.0 L 262.0,389.3 L 262.5,389.2 L 263.0,388.6 L 263.6,389.4 L 264.1,389.9 L 264.6,390.0 L 265.2,390.9 L 265.7,389.3 L 266.2,388.8 L 266.8,387.6 L 267.3,388.1 L 267.9,387.4 L 268.4,388.0 L 268.9,390.1 L 269.5,390.0 L 270.0,387.8 L 270.5,387.3 L 271.1,386.5 L 271.6,385.8 L 272.2,385.7 L 272.7,384.4 L 273.2,384.7 L 273.8,384.8 L 274.3,383.1 L 274.8,383.1 L 275.4,383.6 L 275.9,383.5 L 276.4,385.2 L 277.0,383.9 L 277.5,383.7 L 278.1,383.7 L 278.6,382.1 L 279.1,383.3 L 279.7,384.1 L 280.2,386.3 L 280.7,386.8 L 281.3,385.9 L 281.8,385.9 L 282.4,387.3 L 282.9,388.4 L 283.4,389.5 L 284.0,387.3 L 284.5,388.6 L 285.0,386.5 L 285.6,386.1 L 286.1,385.5 L 286.6,385.7 L 287.2,386.3 L 287.7,386.6 L 288.3,387.9 L 288.8,388.7 L 289.3,388.8 L 289.9,390.7 L 290.4,391.8 L 290.9,393.4 L 291.5,392.0 L 292.0,395.7 L 292.5,396.0 L 293.1,392.7 L 293.6,392.1 L 294.2,390.2 L 294.7,390.1 L 295.2,388.9 L 295.8,387.3 L 296.3,386.6 L 296.8,386.7 L 297.4,388.0 L 297.9,386.4 L 298.5,386.5 L 299.0,387.1 L 299.5,388.4 L 300.1,388.1 L 300.6,386.7 L 301.1,386.9 L 301.7,387.0 L 302.2,387.7 L 302.7,388.3 L 303.3,388.3 L 303.8,391.2 L 304.4,390.0 L 304.9,388.5 L 305.4,388.0 L 306.0,389.1 L 306.5,391.8 L 307.0,391.1 L 307.6,394.1 L 308.1,395.5 L 308.7,395.0 L 309.2,395.6 L 309.7,392.9 L 310.3,393.5 L 310.8,395.0 L 311.3,395.9 L 311.9,395.6 L 312.4,392.4 L 312.9,393.0 L 313.5,391.4 L 314.0,391.5 L 314.6,391.5 L 315.1,391.5 L 315.6,391.5 L 316.2,390.3 L 316.7,390.0 L 317.2,390.3 L 317.8,390.7 L 318.3,390.0 L 318.8,390.1 L 319.4,389.6 L 319.9,390.0 L 320.5,388.2 L 321.0,387.2 L 321.5,386.2 L 322.1,386.0 L 322.6,386.9 L 323.1,386.4 L 323.7,385.4 L 324.2,384.9 L 324.8,384.3 L 325.3,383.7 L 325.8,383.9 L 326.4,384.0 L 326.9,385.1 L 327.4,385.3 L 328.0,385.2 L 328.5,387.6 L 329.0,387.9 L 329.6,387.1 L 330.1,385.8 L 330.7,384.7 L 331.2,384.9 L 331.7,385.0 L 332.3,384.1 L 332.8,383.8 L 333.3,383.1 L 333.9,383.8 L 334.4,384.3 L 335.0,385.7 L 335.5,385.2 L 336.0,384.2 L 336.6,383.9 L 337.1,385.1 L 337.6,384.1 L 338.2,383.8 L 338.7,382.8 L 339.2,382.7 L 339.8,382.0 L 340.3,380.8 L 340.9,380.4 L 341.4,380.6 L 341.9,380.2 L 342.5,378.1 L 343.0,378.3 L 343.5,379.4 L 344.1,381.0 L 344.6,380.4 L 345.2,380.0 L 345.7,379.3 L 346.2,378.8 L 346.8,379.1 L 347.3,378.1 L 347.8,379.3 L 348.4,380.5 L 348.9,380.6 L 349.4,383.2 L 350.0,382.5 L 350.5,384.9 L 351.1,385.1 L 351.6,383.2 L 352.1,382.7 L 352.7,381.2 L 353.2,379.6 L 353.7,379.9 L 354.3,382.4 L 354.8,382.8 L 355.3,380.5 L 355.9,380.2 L 356.4,380.5 L 357.0,380.6 L 357.5,382.7 L 358.0,381.9 L 358.6,385.7 L 359.1,385.3 L 359.6,383.2 L 360.2,383.5 L 360.7,382.9 L 361.3,384.6 L 361.8,389.1 L 362.3,392.0 L 362.9,390.5 L 363.4,387.0 L 363.9,388.4 L 364.5,388.4 L 365.0,391.2 L 365.5,391.1 L 366.1,386.9 L 366.6,386.9 L 367.2,386.0 L 367.7,386.0 L 368.2,384.6 L 368.8,384.9 L 369.3,385.0 L 369.8,386.3 L 370.4,386.1 L 370.9,384.5 L 371.5,384.9 L 372.0,385.5 L 372.5,386.3 L 373.1,389.1 L 373.6,388.3 L 374.1,390.2 L 374.7,390.7 L 375.2,388.1 L 375.7,388.6 L 376.3,390.6 L 376.8,391.4 L 377.4,390.7 L 377.9,389.4 L 378.4,389.6 L 379.0,390.4 L 379.5,393.7 L 380.0,393.5 L 380.6,396.3 L 381.1,395.4 L 381.6,393.9 L 382.2,394.7 L 382.7,394.2 L 383.3,393.1 L 383.8,395.5 L 384.3,398.4 L 384.9,398.3 L 385.4,398.7 L 385.9,401.9 L 386.5,400.2 L 387.0,399.6 L 387.6,398.3 L 388.1,396.4 L 388.6,398.6 L 389.2,397.6 L 389.7,397.5 L 390.2,399.1 L 390.8,397.9 L 391.3,399.1 L 391.8,396.6 L 392.4,393.8 L 392.9,392.2 L 393.5,393.3 L 394.0,394.3 L 394.5,393.8 L 395.1,394.6 L 395.6,393.3 L 396.1,393.7 L 396.7,395.0 L 397.2,398.2 L 397.8,398.4 L 398.3,398.8 L 398.8,400.1 L 399.4,401.7 L 399.9,404.0 L 400.4,401.0 L 401.0,404.1 L 401.5,405.6 L 402.0,404.5 L 402.6,402.5 L 403.1,403.4 L 403.7,405.0 L 404.2,408.4 L 404.7,412.4 L 405.3,413.4 L 405.8,412.3 L 406.3,415.3 L 406.9,412.4 L 407.4,411.4 L 407.9,412.4 L 408.5,415.6 L 409.0,412.5 L 409.6,411.6 L 410.1,410.7 L 410.6,409.3 L 411.2,409.5 L 411.7,409.2 L 412.2,407.5 L 412.8,407.4 L 413.3,407.5 L 413.9,408.6 L 414.4,407.6 L 414.9,407.9 L 415.5,407.0 L 416.0,407.2 L 416.5,409.1 L 417.1,408.8 L 417.6,409.4 L 418.1,406.7 L 418.7,406.8 L 419.2,406.6 L 419.8,407.5 L 420.3,405.4 L 420.8,404.6 L 421.4,403.6 L 421.9,403.6 L 422.4,403.2 L 423.0,403.7 L 423.5,403.6 L 424.1,405.0 L 424.6,406.2 L 425.1,406.4 L 425.7,405.4 L 426.2,404.7 L 426.7,407.6 L 427.3,407.4 L 427.8,406.2 L 428.3,408.6 L 428.9,409.7 L 429.4,409.8 L 430.0,409.6 L 430.5,411.8 L 431.0,410.4 L 431.6,408.6 L 432.1,407.9 L 432.6,409.8 L 433.2,409.7 L 433.7,410.6 L 434.2,411.7 L 434.8,410.7 L 435.3,411.7 L 435.9,412.9 L 436.4,414.2 L 436.9,417.0 L 437.5,416.6 L 438.0,419.6 L 438.5,419.0 L 439.1,419.9 L 439.6,420.9 L 440.2,418.7 L 440.7,416.8 L 441.2,416.1 L 441.8,417.6 L 442.3,422.5 L 442.8,422.7 L 443.4,425.0 L 443.9,422.3 L 444.4,423.7 L 445.0,422.4 L 445.5,423.6 L 446.1,423.8 L 446.6,424.9 L 447.1,424.6 L 447.7,426.1 L 448.2,425.6 L 448.7,424.0 L 449.3,425.1 L 449.8,423.8 L 450.4,423.1 L 450.9,422.6 L 451.4,423.5 L 452.0,423.2 L 452.5,421.6 L 453.0,420.5 L 453.6,418.2 L 454.1,419.3 L 454.6,415.1 L 455.2,413.8 L 455.7,410.7 L 456.3,410.8 L 456.8,410.8 L 457.3,411.1 L 457.9,411.5 L 458.4,410.8 L 458.9,410.2 L 459.5,408.8 L 460.0,408.8 L 460.5,410.6 L 461.1,409.4 L 461.6,408.0 L 462.2,406.9 L 462.7,407.2 L 463.2,407.2 L 463.8,409.2 L 464.3,410.0 L 464.8,410.7 L 465.4,409.4 L 465.9,410.2 L 466.5,410.9 L 467.0,409.1 L 467.5,409.2 L 468.1,410.9 L 468.6,411.6 L 469.1,413.8 L 469.7,413.3 L 470.2,411.6 L 470.7,413.0 L 471.3,412.9 L 471.8,412.5 L 472.4,413.8 L 472.9,414.5 L 473.4,414.1 L 474.0,413.4 L 474.5,413.6 L 475.0,412.7 L 475.6,412.1 L 476.1,409.0 L 476.7,408.6 L 477.2,409.0 L 477.7,409.2 L 478.3,408.4 L 478.8,407.6 L 479.3,407.5 L 479.9,403.0 L 480.4,404.8 L 480.9,403.6 L 481.5,402.1 L 482.0,402.1 L 482.6,403.8 L 483.1,403.7 L 483.6,401.9 L 484.2,402.1 L 484.7,402.2 L 485.2,402.5 L 485.8,401.6 L 486.3,403.5 L 486.8,402.5 L 487.4,403.1 L 487.9,402.5 L 488.5,402.4 L 489.0,403.6 L 489.5,402.0 L 490.1,402.9 L 490.6,402.1 L 491.1,402.1 L 491.7,402.0 L 492.2,400.7 L 492.8,400.0 L 493.3,400.3 L 493.8,400.7 L 494.4,402.7 L 494.9,402.4 L 495.4,404.0 L 496.0,403.8 L 496.5,405.2 L 497.0,403.3 L 497.6,403.6 L 498.1,402.8 L 498.7,400.8 L 499.2,399.9 L 499.7,399.5 L 500.3,400.2 L 500.8,401.2 L 501.3,400.7 L 501.9,400.0 L 502.4,399.9 L 503.0,400.4 L 503.5,400.1 L 504.0,399.8 L 504.6,399.5 L 505.1,399.3 L 505.6,400.4 L 506.2,399.4 L 506.7,399.1 L 507.2,399.9 L 507.8,400.7 L 508.3,401.2 L 508.9,402.1 L 509.4,401.9 L 509.9,404.0 L 510.5,403.9 L 511.0,403.6 L 511.5,402.3 L 512.1,401.8 L 512.6,402.5 L 513.2,402.0 L 513.7,401.9 L 514.2,401.3 L 514.8,401.0 L 515.3,401.7 L 515.8,402.8 L 516.4,402.9 L 516.9,403.1 L 517.4,401.5 L 518.0,399.4 L 518.5,398.0 L 519.1,397.4 L 519.6,397.3 L 520.1,397.3 L 520.7,397.5 L 521.2,396.4 L 521.7,394.7 L 522.3,393.6 L 522.8,393.7 L 523.3,394.1 L 523.9,394.6 L 524.4,393.0 L 525.0,392.9 L 525.5,392.6 L 526.0,391.2 L 526.6,392.8 L 527.1,391.5 L 527.6,391.0 L 528.2,388.8 L 528.7,388.6 L 529.3,387.9 L 529.8,388.2 L 530.3,388.3 L 530.9,389.1 L 531.4,388.9 L 531.9,390.1 L 532.5,391.5 L 533.0,391.1 L 533.5,391.1 L 534.1,391.3 L 534.6,389.9 L 535.2,389.4 L 535.7,390.1 L 536.2,392.6 L 536.8,393.4 L 537.3,393.4 L 537.8,391.4 L 538.4,390.9 L 538.9,390.1 L 539.5,388.3 L 540.0,387.9 L 540.5,388.7 L 541.1,389.6 L 541.6,389.2 L 542.1,390.3 L 542.7,390.3 L 543.2,389.0 L 543.7,389.3 L 544.3,388.6 L 544.8,388.2 L 545.4,389.4 L 545.9,388.9 L 546.4,391.5 L 547.0,391.9 L 547.5,390.6 L 548.0,391.6 L 548.6,391.7 L 549.1,393.6 L 549.6,393.9 L 550.2,395.6 L 550.7,395.1 L 551.3,395.1 L 551.8,394.6 L 552.3,395.7 L 552.9,395.7 L 553.4,395.2 L 553.9,394.1 L 554.5,392.5 L 555.0,394.9 L 555.6,394.6 L 556.1,393.7 L 556.6,392.9 L 557.2,393.6 L 557.7,393.5 L 558.2,392.3 L 558.8,392.3 L 559.3,392.7 L 559.8,393.7 L 560.4,394.1 L 560.9,395.2 L 561.5,394.1 L 562.0,394.0 L 562.5,392.2 L 563.1,391.2 L 563.6,393.1 L 564.1,393.6 L 564.7,394.4 L 565.2,396.2 L 565.8,396.0 L 566.3,395.1 L 566.8,396.5 L 567.4,396.3 L 567.9,395.9 L 568.4,394.2 L 569.0,395.1 L 569.5,396.6 L 570.0,395.1 L 570.6,394.5 L 571.1,393.3 L 571.7,392.0 L 572.2,392.4 L 572.7,393.5 L 573.3,393.5 L 573.8,395.2 L 574.3,395.1 L 574.9,395.2 L 575.4,396.7 L 575.9,396.3 L 576.5,395.9 L 577.0,398.2 L 577.6,397.7 L 578.1,397.6 L 578.6,398.8 L 579.2,398.5 L 579.7,395.5 L 580.2,394.6 L 580.8,393.5 L 581.3,393.2 L 581.9,392.7 L 582.4,392.7 L 582.9,393.2 L 583.5,391.9 L 584.0,391.3 L 584.5,389.5 L 585.1,389.2 L 585.6,388.9 L 586.1,388.9 L 586.7,387.2 L 587.2,388.1 L 587.8,388.2 L 588.3,388.2 L 588.8,389.5 L 589.4,387.8 L 589.9,387.6 L 590.4,387.0 L 591.0,387.0 L 591.5,387.1 L 592.1,387.9 L 592.6,387.6 L 593.1,388.3 L 593.7,387.5 L 594.2,387.2 L 594.7,386.9 L 595.3,386.8 L 595.8,385.2 L 596.3,385.1 L 596.9,385.3 L 597.4,385.9 L 598.0,385.4 L 598.5,386.1 L 599.0,385.7 L 599.6,385.6 L 600.1,384.4 L 600.6,383.3 L 601.2,383.1 L 601.7,383.0 L 602.2,383.6 L 602.8,386.0 L 603.3,386.1 L 603.9,386.3 L 604.4,385.9 L 604.9,386.2 L 605.5,386.8 L 606.0,386.1 L 606.5,386.4 L 607.1,386.1 L 607.6,387.8 L 608.2,389.3 L 608.7,388.7 L 609.2,385.0 L 609.8,383.9 L 610.3,383.4 L 610.8,383.4 L 611.4,382.4 L 611.9,382.4 L 612.4,381.4 L 613.0,382.1 L 613.5,383.3 L 614.1,382.7 L 614.6,381.9 L 615.1,381.6 L 615.7,377.1 L 616.2,377.4 L 616.7,377.2 L 617.3,376.2 L 617.8,376.9 L 618.4,375.4 L 618.9,375.1 L 619.4,374.6 L 620.0,375.4 L 620.5,374.5 L 621.0,374.7 L 621.6,371.7 L 622.1,371.0 L 622.6,370.1 L 623.2,368.5 L 623.7,367.8 L 624.3,368.2 L 624.8,366.7 L 625.3,366.6 L 625.9,366.5 L 626.4,368.6 L 626.9,367.0 L 627.5,367.2 L 628.0,367.8 L 628.5,364.4 L 629.1,364.1 L 629.6,364.4 L 630.2,365.0 L 630.7,364.4 L 631.2,364.8 L 631.8,363.6 L 632.3,364.2 L 632.8,362.2 L 633.4,363.2 L 633.9,362.6 L 634.5,359.5 L 635.0,359.7 L 635.5,359.8 L 636.1,360.0 L 636.6,362.3 L 637.1,366.8 L 637.7,364.3 L 638.2,363.5 L 638.7,369.9 L 639.3,370.8 L 639.8,369.3 L 640.4,364.9 L 640.9,367.2 L 641.4,365.0 L 642.0,361.9 L 642.5,362.7 L 643.0,364.2 L 643.6,363.3 L 644.1,361.7 L 644.7,360.6 L 645.2,360.3 L 645.7,361.4 L 646.3,360.2 L 646.8,359.0 L 647.3,357.9 L 647.9,356.6 L 648.4,355.3 L 648.9,355.7 L 649.5,355.6 L 650.0,355.9 L 650.6,353.3 L 651.1,352.8 L 651.6,353.2 L 652.2,351.2 L 652.7,350.8 L 653.2,352.4 L 653.8,354.8 L 654.3,356.4 L 654.8,353.4 L 655.4,354.9 L 655.9,353.8 L 656.5,350.4 L 657.0,350.8 L 657.5,351.3 L 658.1,349.2 L 658.6,347.0 L 659.1,345.5 L 659.7,345.5 L 660.2,343.4 L 660.8,339.7 L 661.3,338.1 L 661.8,339.3 L 662.4,342.9 L 662.9,342.4 L 663.4,341.5 L 664.0,342.2 L 664.5,341.1 L 665.0,340.9 L 665.6,342.4 L 666.1,340.0 L 666.7,337.1 L 667.2,336.8 L 667.7,334.2 L 668.3,334.0 L 668.8,333.1 L 669.3,330.0 L 669.9,333.9 L 670.4,334.2 L 671.0,333.2 L 671.5,335.1 L 672.0,338.1 L 672.6,342.5 L 673.1,347.5 L 673.6,342.5 L 674.2,348.6 L 674.7,348.3 L 675.2,347.8 L 675.8,348.0 L 676.3,344.3 L 676.9,352.6 L 677.4,367.4 L 677.9,361.9 L 678.5,355.4 L 679.0,358.9 L 679.5,354.0 L 680.1,351.5 L 680.6,351.3 L 681.2,349.4 L 681.7,350.5 L 682.2,346.7 L 682.8,346.2 L 683.3,346.1 L 683.8,347.6 L 684.4,348.4 L 684.9,348.3 L 685.4,347.6 L 686.0,348.1 L 686.5,346.6 L 687.1,347.9 L 687.6,347.4 L 688.1,347.7 L 688.7,348.8 L 689.2,357.0 L 689.7,356.3 L 690.3,354.2 L 690.8,356.6 L 691.3,357.3 L 691.9,357.5 L 692.4,352.4 L 693.0,351.6 L 693.5,350.8 L 694.0,352.2 L 694.6,349.2 L 695.1,348.3 L 695.6,347.3 L 696.2,346.1 L 696.7,343.4 L 697.3,342.6 L 697.8,342.9 L 698.3,347.8 L 698.9,346.4 L 699.4,347.1 L 699.9,343.8 L 700.5,344.6 L 701.0,344.2 L 701.5,342.2 L 702.1,341.6 L 702.6,339.0 L 703.2,341.3 L 703.7,341.0 L 704.2,337.4 L 704.8,337.0 L 705.3,337.0 L 705.8,338.7 L 706.4,339.8 L 706.9,338.5 L 707.5,339.8 L 708.0,342.0 L 708.5,342.9 L 709.1,343.2 L 709.6,341.7 L 710.1,340.5 L 710.7,339.6 L 711.2,338.0 L 711.7,336.9 L 712.3,337.1 L 712.8,341.5 L 713.4,342.5 L 713.9,343.7 L 714.4,343.5 L 715.0,345.1 L 715.5,342.6 L 716.0,344.0 L 716.6,345.0 L 717.1,342.2 L 717.6,341.8 L 718.2,344.0 L 718.7,346.9 L 719.3,347.1 L 719.8,347.4 L 720.3,343.6 L 720.9,341.2 L 721.4,339.3 L 721.9,339.2 L 722.5,339.8 L 723.0,339.2 L 723.6,340.4 L 724.1,342.2 L 724.6,341.0 L 725.2,341.2 L 725.7,341.1 L 726.2,341.3 L 726.8,340.0 L 727.3,342.0 L 727.8,345.4 L 728.4,340.5 L 728.9,340.4 L 729.5,339.6 L 730.0,339.4 L 730.5,339.1 L 731.1,339.8 L 731.6,341.1 L 732.1,342.8 L 732.7,342.2 L 733.2,336.9 L 733.8,336.1 L 734.3,338.1 L 734.8,340.7 L 735.4,341.3 L 735.9,345.6 L 736.4,343.1 L 737.0,345.4 L 737.5,341.2 L 738.0,340.2 L 738.6,339.2 L 739.1,338.9 L 739.7,337.1 L 740.2,343.9 L 740.7,343.1 L 741.3,340.1 L 741.8,338.8 L 742.3,337.5 L 742.9,339.3 L 743.4,338.3 L 743.9,339.0 L 744.5,338.1 L 745.0,340.1 L 745.6,337.3 L 746.1,335.9 L 746.6,336.4 L 747.2,337.4 L 747.7,335.4 L 748.2,336.8 L 748.8,339.1 L 749.3,338.1 L 749.9,341.0 L 750.4,343.4 L 750.9,344.7 L 751.5,342.5 L 752.0,343.7 L 752.5,344.9 L 753.1,345.8 L 753.6,349.0 L 754.1,347.3 L 754.7,349.9 L 755.2,349.9 L 755.8,348.6 L 756.3,347.4 L 756.8,349.9 L 757.4,346.5 L 757.9,347.9 L 758.4,348.7 L 759.0,347.4 L 759.5,347.5 L 760.1,350.0 L 760.6,352.9 L 761.1,360.3 L 761.7,355.5 L 762.2,355.4 L 762.7,372.3 L 763.3,378.6 L 763.8,387.4 L 764.3,374.2 L 764.9,369.9 L 765.4,370.0 L 766.0,367.2 L 766.5,370.4 L 767.0,371.4 L 767.6,371.0 L 768.1,373.3 L 768.6,375.9 L 769.2,369.0 L 769.7,370.3 L 770.2,367.0 L 770.8,365.7 L 771.3,364.1 L 771.9,364.1 L 772.4,359.5 L 772.9,361.6 L 773.5,361.7 L 774.0,361.5 L 774.5,361.5 L 775.1,358.5 L 775.6,356.7 L 776.2,355.1 L 776.7,351.4 L 777.2,351.8 L 777.8,350.9 L 778.3,353.5 L 778.8,353.5 L 779.4,351.2 L 779.9,352.3 L 780.4,352.5 L 781.0,353.4 L 781.5,355.0 L 782.1,354.9 L 782.6,355.0 L 783.1,357.8 L 783.7,356.8 L 784.2,352.7 L 784.7,352.3 L 785.3,352.4 L 785.8,351.3 L 786.4,347.6 L 786.9,345.7 L 787.4,347.2 L 788.0,349.0 L 788.5,349.2 L 789.0,347.9 L 789.6,346.7 L 790.1,349.6 L 790.6,349.2 L 791.2,351.8 L 791.7,348.1 L 792.3,346.1 L 792.8,345.6 L 793.3,344.8 L 793.9,347.5 L 794.4,345.1 L 794.9,344.9 L 795.5,343.8 L 796.0,345.1 L 796.5,346.1 L 797.1,346.6 L 797.6,345.3 L 798.2,343.9 L 798.7,343.4 L 799.2,344.6 L 799.8,342.7 L 800.3,341.0 L 800.8,340.5 L 801.4,338.3 L 801.9,338.6 L 802.5,341.5 L 803.0,338.8 L 803.5,338.3 L 804.1,338.4 L 804.6,338.0 L 805.1,339.7 L 805.7,337.6 L 806.2,337.0 L 806.7,337.8 L 807.3,338.3 L 807.8,336.0 L 808.4,337.7 L 808.9,333.2 L 809.4,333.0 L 810.0,332.1 L 810.5,331.9 L 811.0,330.2 L 811.6,331.2 L 812.1,330.5 L 812.7,329.2 L 813.2,330.3 L 813.7,336.3 L 814.3,333.5 L 814.8,335.1 L 815.3,330.9 L 815.9,330.7 L 816.4,328.9 L 816.9,331.3 L 817.5,331.3 L 818.0,332.6 L 818.6,333.1 L 819.1,332.4 L 819.6,331.7 L 820.2,329.1 L 820.7,328.7 L 821.2,326.2 L 821.8,323.4 L 822.3,323.2 L 822.8,321.1 L 823.4,322.1 L 823.9,319.8 L 824.5,321.4 L 825.0,318.7 L 825.5,320.3 L 826.1,317.8 L 826.6,314.8 L 827.1,315.2 L 827.7,316.6 L 828.2,320.2 L 828.8,318.3 L 829.3,316.9 L 829.8,313.7 L 830.4,310.6 L 830.9,306.9 L 831.4,308.1 L 832.0,306.1 L 832.5,309.2 L 833.0,310.3 L 833.6,306.3 L 834.1,303.3 L 834.7,306.1 L 835.2,303.0 L 835.7,302.4 L 836.3,303.3 L 836.8,304.2 L 837.3,300.5 L 837.9,300.8 L 838.4,298.0 L 839.0,298.0 L 839.5,298.5 L 840.0,297.7 L 840.6,299.4 L 841.1,302.7 L 841.6,301.2 L 842.2,303.3 L 842.7,301.5 L 843.2,302.2 L 843.8,300.8 L 844.3,301.2 L 844.9,305.3 L 845.4,304.9 L 845.9,310.6 L 846.5,312.0 L 847.0,305.1 L 847.5,313.2 L 848.1,312.7 L 848.6,309.3 L 849.2,305.2 L 849.7,304.1 L 850.2,303.5 L 850.8,305.8 L 851.3,304.0 L 851.8,302.1 L 852.4,302.1 L 852.9,300.6 L 853.4,297.9 L 854.0,298.9 L 854.5,297.1 L 855.1,300.2 L 855.6,298.8 L 856.1,301.5 L 856.7,304.2 L 857.2,304.3 L 857.7,304.8 L 858.3,302.9 L 858.8,299.2 L 859.3,297.9 L 859.9,297.3 L 860.4,295.8 L 861.0,293.8 L 861.5,294.6 L 862.0,292.5 L 862.6,289.3 L 863.1,283.1 L 863.6,279.3 L 864.2,280.4 L 864.7,281.0 L 865.3,281.6 L 865.8,279.3 L 866.3,278.2 L 866.9,276.3 L 867.4,277.4 L 867.9,272.4 L 868.5,270.6 L 869.0,269.6 L 869.5,273.8 L 870.1,269.7 L 870.6,267.9 L 871.2,267.1 L 871.7,265.0 L 872.2,261.0 L 872.8,263.2 L 873.3,267.1 L 873.8,270.7 L 874.4,266.0 L 874.9,265.2 L 875.5,269.2 L 876.0,269.4 L 876.5,264.3 L 877.1,258.8 L 877.6,254.4 L 878.1,253.1 L 878.7,245.5 L 879.2,239.6 L 879.7,239.6 L 880.3,242.2 L 880.8,248.5 L 881.4,260.8 L 881.9,253.9 L 882.4,254.5 L 883.0,266.7 L 883.5,261.3 L 884.0,250.3 L 884.6,254.6 L 885.1,256.1 L 885.6,256.6 L 886.2,252.5 L 886.7,248.3 L 887.3,253.7 L 887.8,254.9 L 888.3,261.7 L 888.9,262.6 L 889.4,255.8 L 889.9,256.6 L 890.5,258.5 L 891.0,263.4 L 891.6,269.9 L 892.1,258.0 L 892.6,262.9 L 893.2,257.5 L 893.7,245.0 L 894.2,244.1 L 894.8,239.6 L 895.3,239.3 L 895.8,232.4 L 896.4,228.9 L 896.9,225.5 L 897.5,228.2 L 898.0,226.9 L 898.5,221.6 L 899.1,219.4 L 899.6,220.7 L 900.1,210.8 L 900.7,205.1 L 901.2,205.9 L 901.8,207.7 L 902.3,210.8 L 902.8,196.2 L 903.4,195.7 L 903.9,192.7 L 904.4,186.1 L 905.0,188.8 L 905.5,187.3 L 906.0,186.4 L 906.6,190.7 L 907.1,187.6 L 907.7,192.4 L 908.2,194.7 L 908.7,200.6 L 909.3,201.8 L 909.8,190.8 L 910.3,183.4 L 910.9,172.1 L 911.4,173.1 L 911.9,167.1 L 912.5,172.2 L 913.0,163.2 L 913.6,158.2 L 914.1,156.4 L 914.6,149.0 L 915.2,155.4 L 915.7,160.4 L 916.2,173.3 L 916.8,163.4 L 917.3,175.6 L 917.9,176.2 L 918.4,167.8 L 918.9,157.7 L 919.5,154.4 L 920.0,153.8" fill="none" stroke="#2563eb" stroke-width="1.3" opacity="0.9"/>
  <line x1="278.594249201278" y1="382.11964648437504" x2="278.594249201278" y2="530" stroke="#cbd5e1" stroke-width="1.0" stroke-dasharray="3 3"/>
  <circle cx="278.594249201278" cy="382.11964648437504" r="5.5" fill="#ef6c00" stroke="#ffffff" stroke-width="1.5"/>
  <rect x="250.594249201278" y="346.11964648437504" width="56" height="32" rx="4" fill="#ffffff" stroke="#e2e8f0" stroke-width="0.5" opacity="0.9"/>
  <text x="278.594249201278" y="355.11964648437504" font-family="system-ui, -apple-system, sans-serif" font-size="8.5" font-weight="bold" fill="#0f172a" text-anchor="middle">2021</text>
  <text x="278.594249201278" y="365.11964648437504" font-family="system-ui, -apple-system, sans-serif" font-size="8" fill="#475569" text-anchor="middle">金龍中漲</text>
  <text x="278.594249201278" y="375.11964648437504" font-family="system-ui, -apple-system, sans-serif" font-size="8.5" font-weight="bold" fill="#ef6c00" text-anchor="middle">中跌</text>
  <line x1="343.00319488817894" y1="378.3003203125" x2="343.00319488817894" y2="530" stroke="#cbd5e1" stroke-width="1.0" stroke-dasharray="3 3"/>
  <circle cx="343.00319488817894" cy="378.3003203125" r="5.5" fill="#2e7d32" stroke="#ffffff" stroke-width="1.5"/>
  <rect x="315.00319488817894" y="342.3003203125" width="56" height="32" rx="4" fill="#ffffff" stroke="#e2e8f0" stroke-width="0.5" opacity="0.9"/>
  <text x="343.00319488817894" y="351.3003203125" font-family="system-ui, -apple-system, sans-serif" font-size="8.5" font-weight="bold" fill="#0f172a" text-anchor="middle">2022</text>
  <text x="343.00319488817894" y="361.3003203125" font-family="system-ui, -apple-system, sans-serif" font-size="8" fill="#475569" text-anchor="middle">金龍中漲</text>
  <text x="343.00319488817894" y="371.3003203125" font-family="system-ui, -apple-system, sans-serif" font-size="8.5" font-weight="bold" fill="#2e7d32" text-anchor="middle">中漲</text>
  <line x1="669.3418530351438" y1="330.001759765625" x2="669.3418530351438" y2="530" stroke="#cbd5e1" stroke-width="1.0" stroke-dasharray="3 3"/>
  <circle cx="669.3418530351438" cy="330.001759765625" r="5.5" fill="#ef6c00" stroke="#ffffff" stroke-width="1.5"/>
  <rect x="641.3418530351438" y="294.001759765625" width="56" height="32" rx="4" fill="#ffffff" stroke="#e2e8f0" stroke-width="0.5" opacity="0.9"/>
  <text x="669.3418530351438" y="303.001759765625" font-family="system-ui, -apple-system, sans-serif" font-size="8.5" font-weight="bold" fill="#0f172a" text-anchor="middle">2024</text>
  <text x="669.3418530351438" y="313.001759765625" font-family="system-ui, -apple-system, sans-serif" font-size="8" fill="#475569" text-anchor="middle">金龍中漲</text>
  <text x="669.3418530351438" y="323.001759765625" font-family="system-ui, -apple-system, sans-serif" font-size="8.5" font-weight="bold" fill="#ef6c00" text-anchor="middle">中跌</text>
  <line x1="896.3833865814696" y1="228.878446875" x2="896.3833865814696" y2="530" stroke="#cbd5e1" stroke-width="1.0" stroke-dasharray="3 3"/>
  <circle cx="896.3833865814696" cy="228.878446875" r="5.5" fill="#2e7d32" stroke="#ffffff" stroke-width="1.5"/>
  <rect x="868.3833865814696" y="192.878446875" width="56" height="32" rx="4" fill="#ffffff" stroke="#e2e8f0" stroke-width="0.5" opacity="0.9"/>
  <text x="896.3833865814696" y="201.878446875" font-family="system-ui, -apple-system, sans-serif" font-size="8.5" font-weight="bold" fill="#0f172a" text-anchor="middle">2026</text>
  <text x="896.3833865814696" y="211.878446875" font-family="system-ui, -apple-system, sans-serif" font-size="8" fill="#475569" text-anchor="middle">金龍中漲</text>
  <text x="896.3833865814696" y="221.878446875" font-family="system-ui, -apple-system, sans-serif" font-size="8.5" font-weight="bold" fill="#2e7d32" text-anchor="middle">中漲</text>
  <line x1="80" y1="530" x2="920" y2="530" stroke="#cbd5e1" stroke-width="1.5"/>
  <line x1="80.0" y1="530" x2="80.0" y2="535" stroke="#cbd5e1" stroke-width="1.0"/>
  <text x="80.0" y="548" font-family="system-ui, -apple-system, sans-serif" font-size="10" fill="#64748b" text-anchor="middle">2020</text>
  <line x1="211.50159744408947" y1="530" x2="211.50159744408947" y2="535" stroke="#cbd5e1" stroke-width="1.0"/>
  <text x="211.50159744408947" y="548" font-family="system-ui, -apple-system, sans-serif" font-size="10" fill="#64748b" text-anchor="middle">2021</text>
  <line x1="341.9297124600639" y1="530" x2="341.9297124600639" y2="535" stroke="#cbd5e1" stroke-width="1.0"/>
  <text x="341.9297124600639" y="548" font-family="system-ui, -apple-system, sans-serif" font-size="10" fill="#64748b" text-anchor="middle">2022</text>
  <line x1="473.96805111821084" y1="530" x2="473.96805111821084" y2="535" stroke="#cbd5e1" stroke-width="1.0"/>
  <text x="473.96805111821084" y="548" font-family="system-ui, -apple-system, sans-serif" font-size="10" fill="#64748b" text-anchor="middle">2023</text>
  <line x1="602.2492012779553" y1="530" x2="602.2492012779553" y2="535" stroke="#cbd5e1" stroke-width="1.0"/>
  <text x="602.2492012779553" y="548" font-family="system-ui, -apple-system, sans-serif" font-size="10" fill="#64748b" text-anchor="middle">2024</text>
  <line x1="732.1405750798722" y1="530" x2="732.1405750798722" y2="535" stroke="#cbd5e1" stroke-width="1.0"/>
  <text x="732.1405750798722" y="548" font-family="system-ui, -apple-system, sans-serif" font-size="10" fill="#64748b" text-anchor="middle">2025</text>
  <line x1="862.5686900958467" y1="530" x2="862.5686900958467" y2="535" stroke="#cbd5e1" stroke-width="1.0"/>
  <text x="862.5686900958467" y="548" font-family="system-ui, -apple-system, sans-serif" font-size="10" fill="#64748b" text-anchor="middle">2026</text>
  <line x1="80" y1="571" x2="105" y2="571" stroke="#2563eb" stroke-width="2.5"/>
  <text x="110" y="575" font-family="system-ui, -apple-system, sans-serif" font-size="11" fill="#475569" font-weight="bold">加權股價指數 (左軸)</text>
  <line x1="240" y1="571" x2="265" y2="571" stroke="#10b981" stroke-width="2" stroke-dasharray="3 1"/>
  <text x="270" y="575" font-family="system-ui, -apple-system, sans-serif" font-size="11" fill="#475569" font-weight="bold">M1B 資金活水 (右軸)</text>
  <rect x="405" y="565" width="20" height="10" fill="#94a3b8" opacity="0.3"/>
  <text x="430" y="575" font-family="system-ui, -apple-system, sans-serif" font-size="11" fill="#475569" font-weight="bold">背景: 每日成交量</text>
  <rect x="670" y="565" width="8" height="8" rx="1.5" fill="#e53935"/>
  <text x="682" y="575" font-family="system-ui, -apple-system, sans-serif" font-size="10.5" fill="#475569" font-weight="bold">大漲</text>
  <rect x="735" y="565" width="8" height="8" rx="1.5" fill="#b71c1c"/>
  <text x="747" y="575" font-family="system-ui, -apple-system, sans-serif" font-size="10.5" fill="#475569" font-weight="bold">大跌</text>
  <rect x="800" y="565" width="8" height="8" rx="1.5" fill="#2e7d32"/>
  <text x="812" y="575" font-family="system-ui, -apple-system, sans-serif" font-size="10.5" fill="#475569" font-weight="bold">中漲</text>
  <rect x="865" y="565" width="8" height="8" rx="1.5" fill="#ef6c00"/>
  <text x="877" y="575" font-family="system-ui, -apple-system, sans-serif" font-size="10.5" fill="#475569" font-weight="bold">中跌</text>
</svg>