<?xml version="1.0" encoding="utf-8" standalone="no"?>
<!DOCTYPE svg PUBLIC "-//W3C//DTD SVG 1.1//EN"
  "http://www.w3.org/Graphics/SVG/1.1/DTD/svg11.dtd">
<svg xmlns:xlink="http://www.w3.org/1999/xlink" width="1430.24pt" height="710.4271pt" viewBox="0 0 1430.24 710.4271" xmlns="http://www.w3.org/2000/svg" version="1.1">
 <metadata>
  <rdf:RDF xmlns:dc="http://purl.org/dc/elements/1.1/" xmlns:cc="http://creativecommons.org/ns#" xmlns:rdf="http://www.w3.org/1999/02/22-rdf-syntax-ns#">
   <cc:Work>
    <dc:type rdf:resource="http://purl.org/dc/dcmitype/StillImage"/>
    <dc:date>2026-01-11T20:28:12.376172</dc:date>
    <dc:format>image/svg+xml</dc:format>
    <dc:creator>
     <cc:Agent>
      <dc:title>Matplotlib v3.9.4, https://matplotlib.org/</dc:title>
     </cc:Agent>
    </dc:creator>
   </cc:Work>
  </rdf:RDF>
 </metadata>
 <defs>
  <style type="text/css">*{stroke-linejoin: round; stroke-linecap: butt}</style>
 </defs>
 <g id="figure_1">
  <g id="patch_1">
   <path d="M 0 710.4271 
L 1430.24 710.4271 
L 1430.24 0 
L 0 0 
z
" style="fill: #ffffff"/>
  </g>
  <g id="axes_1">
   <g id="patch_2">
    <path d="M 48.90125 644.224972 
L 1327.70125 644.224972 
L 1327.70125 96.234469 
L 48.90125 96.234469 
z
" style="fill: #ffffff"/>
   </g>
   <g id="matplotlib.axis_1">
    <g id="xtick_1">
     <g id="line2d_1">
      <defs>
       <path id="m21de4c38e8" d="M 0 0 
L 0 3.5 
" style="stroke: #000000; stroke-width: 0.8"/>
      </defs>
      <g>
       <use xlink:href="#m21de4c38e8" x="328.799242" y="644.224972" style="stroke: #000000; stroke-width: 0.8"/>
      </g>
     </g>
     <g id="text_1">
      <!-- 2025-10 -->
      <g transform="translate(297.783771 686.142789) rotate(-45) scale(0.1 -0.1)">
       <defs>
        <path id="DejaVuSans-32" d="M 1228 531 
L 3431 531 
L 3431 0 
L 469 0 
L 469 531 
Q 828 903 1448 1529 
Q 2069 2156 2228 2338 
Q 2531 2678 2651 2914 
Q 2772 3150 2772 3378 
Q 2772 3750 2511 3984 
Q 2250 4219 1831 4219 
Q 1534 4219 1204 4116 
Q 875 4013 500 3803 
L 500 4441 
Q 881 4594 1212 4672 
Q 1544 4750 1819 4750 
Q 2544 4750 2975 4387 
Q 3406 4025 3406 3419 
Q 3406 3131 3298 2873 
Q 3191 2616 2906 2266 
Q 2828 2175 2409 1742 
Q 1991 1309 1228 531 
z
" transform="scale(0.015625)"/>
        <path id="DejaVuSans-30" d="M 2034 4250 
Q 1547 4250 1301 3770 
Q 1056 3291 1056 2328 
Q 1056 1369 1301 889 
Q 1547 409 2034 409 
Q 2525 409 2770 889 
Q 3016 1369 3016 2328 
Q 3016 3291 2770 3770 
Q 2525 4250 2034 4250 
z
M 2034 4750 
Q 2819 4750 3233 4129 
Q 3647 3509 3647 2328 
Q 3647 1150 3233 529 
Q 2819 -91 2034 -91 
Q 1250 -91 836 529 
Q 422 1150 422 2328 
Q 422 3509 836 4129 
Q 1250 4750 2034 4750 
z
" transform="scale(0.015625)"/>
        <path id="DejaVuSans-35" d="M 691 4666 
L 3169 4666 
L 3169 4134 
L 1269 4134 
L 1269 2991 
Q 1406 3038 1543 3061 
Q 1681 3084 1819 3084 
Q 2600 3084 3056 2656 
Q 3513 2228 3513 1497 
Q 3513 744 3044 326 
Q 2575 -91 1722 -91 
Q 1428 -91 1123 -41 
Q 819 9 494 109 
L 494 744 
Q 775 591 1075 516 
Q 1375 441 1709 441 
Q 2250 441 2565 725 
Q 2881 1009 2881 1497 
Q 2881 1984 2565 2268 
Q 2250 2553 1709 2553 
Q 1456 2553 1204 2497 
Q 953 2441 691 2322 
L 691 4666 
z
" transform="scale(0.015625)"/>
        <path id="DejaVuSans-2d" d="M 313 2009 
L 1997 2009 
L 1997 1497 
L 313 1497 
L 313 2009 
z
" transform="scale(0.015625)"/>
        <path id="DejaVuSans-31" d="M 794 531 
L 1825 531 
L 1825 4091 
L 703 3866 
L 703 4441 
L 1819 4666 
L 2450 4666 
L 2450 531 
L 3481 531 
L 3481 0 
L 794 0 
L 794 531 
z
" transform="scale(0.015625)"/>
       </defs>
       <use xlink:href="#DejaVuSans-32"/>
       <use xlink:href="#DejaVuSans-30" x="63.623047"/>
       <use xlink:href="#DejaVuSans-32" x="127.246094"/>
       <use xlink:href="#DejaVuSans-35" x="190.869141"/>
       <use xlink:href="#DejaVuSans-2d" x="254.492188"/>
       <use xlink:href="#DejaVuSans-31" x="290.576172"/>
       <use xlink:href="#DejaVuSans-30" x="354.199219"/>
      </g>
     </g>
    </g>
    <g id="xtick_2">
     <g id="line2d_2">
      <g>
       <use xlink:href="#m21de4c38e8" x="618.268391" y="644.224972" style="stroke: #000000; stroke-width: 0.8"/>
      </g>
     </g>
     <g id="text_2">
      <!-- 2025-11 -->
      <g transform="translate(587.25292 686.142789) rotate(-45) scale(0.1 -0.1)">
       <use xlink:href="#DejaVuSans-32"/>
       <use xlink:href="#DejaVuSans-30" x="63.623047"/>
       <use xlink:href="#DejaVuSans-32" x="127.246094"/>
       <use xlink:href="#DejaVuSans-35" x="190.869141"/>
       <use xlink:href="#DejaVuSans-2d" x="254.492188"/>
       <use xlink:href="#DejaVuSans-31" x="290.576172"/>
       <use xlink:href="#DejaVuSans-31" x="354.199219"/>
      </g>
     </g>
    </g>
    <g id="xtick_3">
     <g id="line2d_3">
      <g>
       <use xlink:href="#m21de4c38e8" x="898.399826" y="644.224972" style="stroke: #000000; stroke-width: 0.8"/>
      </g>
     </g>
     <g id="text_3">
      <!-- 2025-12 -->
      <g transform="translate(867.384355 686.142789) rotate(-45) scale(0.1 -0.1)">
       <use xlink:href="#DejaVuSans-32"/>
       <use xlink:href="#DejaVuSans-30" x="63.623047"/>
       <use xlink:href="#DejaVuSans-32" x="127.246094"/>
       <use xlink:href="#DejaVuSans-35" x="190.869141"/>
       <use xlink:href="#DejaVuSans-2d" x="254.492188"/>
       <use xlink:href="#DejaVuSans-31" x="290.576172"/>
       <use xlink:href="#DejaVuSans-32" x="354.199219"/>
      </g>
     </g>
    </g>
    <g id="xtick_4">
     <g id="line2d_4">
      <g>
       <use xlink:href="#m21de4c38e8" x="1187.868975" y="644.224972" style="stroke: #000000; stroke-width: 0.8"/>
      </g>
     </g>
     <g id="text_4">
      <!-- 2026-01 -->
      <g transform="translate(1156.853504 686.142789) rotate(-45) scale(0.1 -0.1)">
       <defs>
        <path id="DejaVuSans-36" d="M 2113 2584 
Q 1688 2584 1439 2293 
Q 1191 2003 1191 1497 
Q 1191 994 1439 701 
Q 1688 409 2113 409 
Q 2538 409 2786 701 
Q 3034 994 3034 1497 
Q 3034 2003 2786 2293 
Q 2538 2584 2113 2584 
z
M 3366 4563 
L 3366 3988 
Q 3128 4100 2886 4159 
Q 2644 4219 2406 4219 
Q 1781 4219 1451 3797 
Q 1122 3375 1075 2522 
Q 1259 2794 1537 2939 
Q 1816 3084 2150 3084 
Q 2853 3084 3261 2657 
Q 3669 2231 3669 1497 
Q 3669 778 3244 343 
Q 2819 -91 2113 -91 
Q 1303 -91 875 529 
Q 447 1150 447 2328 
Q 447 3434 972 4092 
Q 1497 4750 2381 4750 
Q 2619 4750 2861 4703 
Q 3103 4656 3366 4563 
z
" transform="scale(0.015625)"/>
       </defs>
       <use xlink:href="#DejaVuSans-32"/>
       <use xlink:href="#DejaVuSans-30" x="63.623047"/>
       <use xlink:href="#DejaVuSans-32" x="127.246094"/>
       <use xlink:href="#DejaVuSans-36" x="190.869141"/>
       <use xlink:href="#DejaVuSans-2d" x="254.492188"/>
       <use xlink:href="#DejaVuSans-30" x="290.576172"/>
       <use xlink:href="#DejaVuSans-31" x="354.199219"/>
      </g>
     </g>
    </g>
    <g id="text_5">
     <!-- 日期 -->
     <g transform="translate(681.099375 700.731475) scale(0.12 -0.12)">
      <defs>
       <path id="DejaVuSans-Bold-65e5" d="M 319 -1131 
L 319 4513 
L 3519 4513 
L 3519 -1131 
L 319 -1131 
z
M 678 -775 
L 3163 -775 
L 3163 4153 
L 678 4153 
L 678 -775 
z
" transform="scale(0.015625)"/>
       <path id="DejaVuSans-Bold-671f" d="M 319 -1131 
L 319 4513 
L 3519 4513 
L 3519 -1131 
L 319 -1131 
z
M 678 -775 
L 3163 -775 
L 3163 4153 
L 678 4153 
L 678 -775 
z
" transform="scale(0.015625)"/>
      </defs>
      <use xlink:href="#DejaVuSans-Bold-65e5"/>
      <use xlink:href="#DejaVuSans-Bold-671f" x="60.009766"/>
     </g>
    </g>
   </g>
   <g id="matplotlib.axis_2">
    <g id="ytick_1">
     <g id="line2d_5">
      <path d="M 48.90125 605.283265 
L 1327.70125 605.283265 
" clip-path="url(#pf81fc15213)" style="fill: none; stroke-dasharray: 2.96,1.28; stroke-dashoffset: 0; stroke: #b0b0b0; stroke-opacity: 0.3; stroke-width: 0.8"/>
     </g>
     <g id="line2d_6">
      <defs>
       <path id="m5e5121d805" d="M 0 0 
L -3.5 0 
" style="stroke: #000000; stroke-width: 0.8"/>
      </defs>
      <g>
       <use xlink:href="#m5e5121d805" x="48.90125" y="605.283265" style="stroke: #000000; stroke-width: 0.8"/>
      </g>
     </g>
     <g id="text_6">
      <!-- 270 -->
      <g transform="translate(22.81375 609.082484) scale(0.1 -0.1)">
       <defs>
        <path id="DejaVuSans-37" d="M 525 4666 
L 3525 4666 
L 3525 4397 
L 1831 0 
L 1172 0 
L 2766 4134 
L 525 4134 
L 525 4666 
z
" transform="scale(0.015625)"/>
       </defs>
       <use xlink:href="#DejaVuSans-32"/>
       <use xlink:href="#DejaVuSans-37" x="63.623047"/>
       <use xlink:href="#DejaVuSans-30" x="127.246094"/>
      </g>
     </g>
    </g>
    <g id="ytick_2">
     <g id="line2d_7">
      <path d="M 48.90125 535.118028 
L 1327.70125 535.118028 
" clip-path="url(#pf81fc15213)" style="fill: none; stroke-dasharray: 2.96,1.28; stroke-dashoffset: 0; stroke: #b0b0b0; stroke-opacity: 0.3; stroke-width: 0.8"/>
     </g>
     <g id="line2d_8">
      <g>
       <use xlink:href="#m5e5121d805" x="48.90125" y="535.118028" style="stroke: #000000; stroke-width: 0.8"/>
      </g>
     </g>
     <g id="text_7">
      <!-- 280 -->
      <g transform="translate(22.81375 538.917247) scale(0.1 -0.1)">
       <defs>
        <path id="DejaVuSans-38" d="M 2034 2216 
Q 1584 2216 1326 1975 
Q 1069 1734 1069 1313 
Q 1069 891 1326 650 
Q 1584 409 2034 409 
Q 2484 409 2743 651 
Q 3003 894 3003 1313 
Q 3003 1734 2745 1975 
Q 2488 2216 2034 2216 
z
M 1403 2484 
Q 997 2584 770 2862 
Q 544 3141 544 3541 
Q 544 4100 942 4425 
Q 1341 4750 2034 4750 
Q 2731 4750 3128 4425 
Q 3525 4100 3525 3541 
Q 3525 3141 3298 2862 
Q 3072 2584 2669 2484 
Q 3125 2378 3379 2068 
Q 3634 1759 3634 1313 
Q 3634 634 3220 271 
Q 2806 -91 2034 -91 
Q 1263 -91 848 271 
Q 434 634 434 1313 
Q 434 1759 690 2068 
Q 947 2378 1403 2484 
z
M 1172 3481 
Q 1172 3119 1398 2916 
Q 1625 2713 2034 2713 
Q 2441 2713 2670 2916 
Q 2900 3119 2900 3481 
Q 2900 3844 2670 4047 
Q 2441 4250 2034 4250 
Q 1625 4250 1398 4047 
Q 1172 3844 1172 3481 
z
" transform="scale(0.015625)"/>
       </defs>
       <use xlink:href="#DejaVuSans-32"/>
       <use xlink:href="#DejaVuSans-38" x="63.623047"/>
       <use xlink:href="#DejaVuSans-30" x="127.246094"/>
      </g>
     </g>
    </g>
    <g id="ytick_3">
     <g id="line2d_9">
      <path d="M 48.90125 464.952791 
L 1327.70125 464.952791 
" clip-path="url(#pf81fc15213)" style="fill: none; stroke-dasharray: 2.96,1.28; stroke-dashoffset: 0; stroke: #b0b0b0; stroke-opacity: 0.3; stroke-width: 0.8"/>
     </g>
     <g id="line2d_10">
      <g>
       <use xlink:href="#m5e5121d805" x="48.90125" y="464.952791" style="stroke: #000000; stroke-width: 0.8"/>
      </g>
     </g>
     <g id="text_8">
      <!-- 290 -->
      <g transform="translate(22.81375 468.752009) scale(0.1 -0.1)">
       <defs>
        <path id="DejaVuSans-39" d="M 703 97 
L 703 672 
Q 941 559 1184 500 
Q 1428 441 1663 441 
Q 2288 441 2617 861 
Q 2947 1281 2994 2138 
Q 2813 1869 2534 1725 
Q 2256 1581 1919 1581 
Q 1219 1581 811 2004 
Q 403 2428 403 3163 
Q 403 3881 828 4315 
Q 1253 4750 1959 4750 
Q 2769 4750 3195 4129 
Q 3622 3509 3622 2328 
Q 3622 1225 3098 567 
Q 2575 -91 1691 -91 
Q 1453 -91 1209 -44 
Q 966 3 703 97 
z
M 1959 2075 
Q 2384 2075 2632 2365 
Q 2881 2656 2881 3163 
Q 2881 3666 2632 3958 
Q 2384 4250 1959 4250 
Q 1534 4250 1286 3958 
Q 1038 3666 1038 3163 
Q 1038 2656 1286 2365 
Q 1534 2075 1959 2075 
z
" transform="scale(0.015625)"/>
       </defs>
       <use xlink:href="#DejaVuSans-32"/>
       <use xlink:href="#DejaVuSans-39" x="63.623047"/>
       <use xlink:href="#DejaVuSans-30" x="127.246094"/>
      </g>
     </g>
    </g>
    <g id="ytick_4">
     <g id="line2d_11">
      <path d="M 48.90125 394.787553 
L 1327.70125 394.787553 
" clip-path="url(#pf81fc15213)" style="fill: none; stroke-dasharray: 2.96,1.28; stroke-dashoffset: 0; stroke: #b0b0b0; stroke-opacity: 0.3; stroke-width: 0.8"/>
     </g>
     <g id="line2d_12">
      <g>
       <use xlink:href="#m5e5121d805" x="48.90125" y="394.787553" style="stroke: #000000; stroke-width: 0.8"/>
      </g>
     </g>
     <g id="text_9">
      <!-- 300 -->
      <g transform="translate(22.81375 398.586772) scale(0.1 -0.1)">
       <defs>
        <path id="DejaVuSans-33" d="M 2597 2516 
Q 3050 2419 3304 2112 
Q 3559 1806 3559 1356 
Q 3559 666 3084 287 
Q 2609 -91 1734 -91 
Q 1441 -91 1130 -33 
Q 819 25 488 141 
L 488 750 
Q 750 597 1062 519 
Q 1375 441 1716 441 
Q 2309 441 2620 675 
Q 2931 909 2931 1356 
Q 2931 1769 2642 2001 
Q 2353 2234 1838 2234 
L 1294 2234 
L 1294 2753 
L 1863 2753 
Q 2328 2753 2575 2939 
Q 2822 3125 2822 3475 
Q 2822 3834 2567 4026 
Q 2313 4219 1838 4219 
Q 1578 4219 1281 4162 
Q 984 4106 628 3988 
L 628 4550 
Q 988 4650 1302 4700 
Q 1616 4750 1894 4750 
Q 2613 4750 3031 4423 
Q 3450 4097 3450 3541 
Q 3450 3153 3228 2886 
Q 3006 2619 2597 2516 
z
" transform="scale(0.015625)"/>
       </defs>
       <use xlink:href="#DejaVuSans-33"/>
       <use xlink:href="#DejaVuSans-30" x="63.623047"/>
       <use xlink:href="#DejaVuSans-30" x="127.246094"/>
      </g>
     </g>
    </g>
    <g id="ytick_5">
     <g id="line2d_13">
      <path d="M 48.90125 324.622316 
L 1327.70125 324.622316 
" clip-path="url(#pf81fc15213)" style="fill: none; stroke-dasharray: 2.96,1.28; stroke-dashoffset: 0; stroke: #b0b0b0; stroke-opacity: 0.3; stroke-width: 0.8"/>
     </g>
     <g id="line2d_14">
      <g>
       <use xlink:href="#m5e5121d805" x="48.90125" y="324.622316" style="stroke: #000000; stroke-width: 0.8"/>
      </g>
     </g>
     <g id="text_10">
      <!-- 310 -->
      <g transform="translate(22.81375 328.421535) scale(0.1 -0.1)">
       <use xlink:href="#DejaVuSans-33"/>
       <use xlink:href="#DejaVuSans-31" x="63.623047"/>
       <use xlink:href="#DejaVuSans-30" x="127.246094"/>
      </g>
     </g>
    </g>
    <g id="ytick_6">
     <g id="line2d_15">
      <path d="M 48.90125 254.457079 
L 1327.70125 254.457079 
" clip-path="url(#pf81fc15213)" style="fill: none; stroke-dasharray: 2.96,1.28; stroke-dashoffset: 0; stroke: #b0b0b0; stroke-opacity: 0.3; stroke-width: 0.8"/>
     </g>
     <g id="line2d_16">
      <g>
       <use xlink:href="#m5e5121d805" x="48.90125" y="254.457079" style="stroke: #000000; stroke-width: 0.8"/>
      </g>
     </g>
     <g id="text_11">
      <!-- 320 -->
      <g transform="translate(22.81375 258.256298) scale(0.1 -0.1)">
       <use xlink:href="#DejaVuSans-33"/>
       <use xlink:href="#DejaVuSans-32" x="63.623047"/>
       <use xlink:href="#DejaVuSans-30" x="127.246094"/>
      </g>
     </g>
    </g>
    <g id="ytick_7">
     <g id="line2d_17">
      <path d="M 48.90125 184.291842 
L 1327.70125 184.291842 
" clip-path="url(#pf81fc15213)" style="fill: none; stroke-dasharray: 2.96,1.28; stroke-dashoffset: 0; stroke: #b0b0b0; stroke-opacity: 0.3; stroke-width: 0.8"/>
     </g>
     <g id="line2d_18">
      <g>
       <use xlink:href="#m5e5121d805" x="48.90125" y="184.291842" style="stroke: #000000; stroke-width: 0.8"/>
      </g>
     </g>
     <g id="text_12">
      <!-- 330 -->
      <g transform="translate(22.81375 188.09106) scale(0.1 -0.1)">
       <use xlink:href="#DejaVuSans-33"/>
       <use xlink:href="#DejaVuSans-33" x="63.623047"/>
       <use xlink:href="#DejaVuSans-30" x="127.246094"/>
      </g>
     </g>
    </g>
    <g id="ytick_8">
     <g id="line2d_19">
      <path d="M 48.90125 114.126604 
L 1327.70125 114.126604 
" clip-path="url(#pf81fc15213)" style="fill: none; stroke-dasharray: 2.96,1.28; stroke-dashoffset: 0; stroke: #b0b0b0; stroke-opacity: 0.3; stroke-width: 0.8"/>
     </g>
     <g id="line2d_20">
      <g>
       <use xlink:href="#m5e5121d805" x="48.90125" y="114.126604" style="stroke: #000000; stroke-width: 0.8"/>
      </g>
     </g>
     <g id="text_13">
      <!-- 340 -->
      <g transform="translate(22.81375 117.925823) scale(0.1 -0.1)">
       <defs>
        <path id="DejaVuSans-34" d="M 2419 4116 
L 825 1625 
L 2419 1625 
L 2419 4116 
z
M 2253 4666 
L 3047 4666 
L 3047 1625 
L 3713 1625 
L 3713 1100 
L 3047 1100 
L 3047 0 
L 2419 0 
L 2419 1100 
L 313 1100 
L 313 1709 
L 2253 4666 
z
" transform="scale(0.015625)"/>
       </defs>
       <use xlink:href="#DejaVuSans-33"/>
       <use xlink:href="#DejaVuSans-34" x="63.623047"/>
       <use xlink:href="#DejaVuSans-30" x="127.246094"/>
      </g>
     </g>
    </g>
    <g id="text_14">
     <!-- 收盤價 (元) -->
     <g transform="translate(16.318125 392.206595) rotate(-90) scale(0.12 -0.12)">
      <defs>
       <path id="DejaVuSans-Bold-6536" d="M 319 -1131 
L 319 4513 
L 3519 4513 
L 3519 -1131 
L 319 -1131 
z
M 678 -775 
L 3163 -775 
L 3163 4153 
L 678 4153 
L 678 -775 
z
" transform="scale(0.015625)"/>
       <path id="DejaVuSans-Bold-76e4" d="M 319 -1131 
L 319 4513 
L 3519 4513 
L 3519 -1131 
L 319 -1131 
z
M 678 -775 
L 3163 -775 
L 3163 4153 
L 678 4153 
L 678 -775 
z
" transform="scale(0.015625)"/>
       <path id="DejaVuSans-Bold-50f9" d="M 319 -1131 
L 319 4513 
L 3519 4513 
L 3519 -1131 
L 319 -1131 
z
M 678 -775 
L 3163 -775 
L 3163 4153 
L 678 4153 
L 678 -775 
z
" transform="scale(0.015625)"/>
       <path id="DejaVuSans-Bold-20" transform="scale(0.015625)"/>
       <path id="DejaVuSans-Bold-28" d="M 2413 -844 
L 1484 -844 
Q 1006 -72 778 623 
Q 550 1319 550 2003 
Q 550 2688 779 3389 
Q 1009 4091 1484 4856 
L 2413 4856 
Q 2013 4116 1813 3408 
Q 1613 2700 1613 2009 
Q 1613 1319 1811 609 
Q 2009 -100 2413 -844 
z
" transform="scale(0.015625)"/>
       <path id="DejaVuSans-Bold-5143" d="M 319 -1131 
L 319 4513 
L 3519 4513 
L 3519 -1131 
L 319 -1131 
z
M 678 -775 
L 3163 -775 
L 3163 4153 
L 678 4153 
L 678 -775 
z
" transform="scale(0.015625)"/>
       <path id="DejaVuSans-Bold-29" d="M 513 -844 
Q 913 -100 1113 609 
Q 1313 1319 1313 2009 
Q 1313 2700 1113 3408 
Q 913 4116 513 4856 
L 1441 4856 
Q 1916 4091 2145 3389 
Q 2375 2688 2375 2003 
Q 2375 1319 2147 623 
Q 1919 -72 1441 -844 
L 513 -844 
z
" transform="scale(0.015625)"/>
      </defs>
      <use xlink:href="#DejaVuSans-Bold-6536"/>
      <use xlink:href="#DejaVuSans-Bold-76e4" x="60.009766"/>
      <use xlink:href="#DejaVuSans-Bold-50f9" x="120.019531"/>
      <use xlink:href="#DejaVuSans-Bold-20" x="180.029297"/>
      <use xlink:href="#DejaVuSans-Bold-28" x="214.84375"/>
      <use xlink:href="#DejaVuSans-Bold-5143" x="260.546875"/>
      <use xlink:href="#DejaVuSans-Bold-29" x="320.556641"/>
     </g>
    </g>
   </g>
   <g id="patch_3">
    <path d="M 48.90125 644.224972 
L 48.90125 96.234469 
" style="fill: none; stroke: #000000; stroke-width: 0.8; stroke-linejoin: miter; stroke-linecap: square"/>
   </g>
   <g id="patch_4">
    <path d="M 1327.70125 644.224972 
L 1327.70125 96.234469 
" style="fill: none; stroke: #000000; stroke-width: 0.8; stroke-linejoin: miter; stroke-linecap: square"/>
   </g>
   <g id="patch_5">
    <path d="M 48.90125 644.224972 
L 1327.70125 644.224972 
" style="fill: none; stroke: #000000; stroke-width: 0.8; stroke-linejoin: miter; stroke-linecap: square"/>
   </g>
   <g id="patch_6">
    <path d="M 48.90125 96.234469 
L 1327.70125 96.234469 
" style="fill: none; stroke: #000000; stroke-width: 0.8; stroke-linejoin: miter; stroke-linecap: square"/>
   </g>
   <g id="legend_1">
    <g id="patch_7">
     <path d="M 55.90125 148.268844 
L 156.074688 148.268844 
Q 158.074688 148.268844 158.074688 146.268844 
L 158.074688 103.234469 
Q 158.074688 101.234469 156.074688 101.234469 
L 55.90125 101.234469 
Q 53.90125 101.234469 53.90125 103.234469 
L 53.90125 146.268844 
Q 53.90125 148.268844 55.90125 148.268844 
z
" style="fill: #ffffff; opacity: 0.8; stroke: #cccccc; stroke-linejoin: miter"/>
    </g>
    <g id="line2d_21">
     <path d="M 57.90125 109.332906 
L 67.90125 109.332906 
L 77.90125 109.332906 
" style="fill: none; stroke: #000000; stroke-width: 2.5; stroke-linecap: square"/>
    </g>
    <g id="text_15">
     <!-- 中華資安 收盤價 (長期) -->
     <g transform="translate(85.90125 112.832906) scale(0.1 -0.1)">
      <defs>
       <path id="DejaVuSans-4e2d" d="M 319 -1131 
L 319 4513 
L 3519 4513 
L 3519 -1131 
L 319 -1131 
z
M 678 -775 
L 3163 -775 
L 3163 4153 
L 678 4153 
L 678 -775 
z
" transform="scale(0.015625)"/>
       <path id="DejaVuSans-83ef" d="M 319 -1131 
L 319 4513 
L 3519 4513 
L 3519 -1131 
L 319 -1131 
z
M 678 -775 
L 3163 -775 
L 3163 4153 
L 678 4153 
L 678 -775 
z
" transform="scale(0.015625)"/>
       <path id="DejaVuSans-8cc7" d="M 319 -1131 
L 319 4513 
L 3519 4513 
L 3519 -1131 
L 319 -1131 
z
M 678 -775 
L 3163 -775 
L 3163 4153 
L 678 4153 
L 678 -775 
z
" transform="scale(0.015625)"/>
       <path id="DejaVuSans-5b89" d="M 319 -1131 
L 319 4513 
L 3519 4513 
L 3519 -1131 
L 319 -1131 
z
M 678 -775 
L 3163 -775 
L 3163 4153 
L 678 4153 
L 678 -775 
z
" transform="scale(0.015625)"/>
       <path id="DejaVuSans-20" transform="scale(0.015625)"/>
       <path id="DejaVuSans-6536" d="M 319 -1131 
L 319 4513 
L 3519 4513 
L 3519 -1131 
L 319 -1131 
z
M 678 -775 
L 3163 -775 
L 3163 4153 
L 678 4153 
L 678 -775 
z
" transform="scale(0.015625)"/>
       <path id="DejaVuSans-76e4" d="M 319 -1131 
L 319 4513 
L 3519 4513 
L 3519 -1131 
L 319 -1131 
z
M 678 -775 
L 3163 -775 
L 3163 4153 
L 678 4153 
L 678 -775 
z
" transform="scale(0.015625)"/>
       <path id="DejaVuSans-50f9" d="M 319 -1131 
L 319 4513 
L 3519 4513 
L 3519 -1131 
L 319 -1131 
z
M 678 -775 
L 3163 -775 
L 3163 4153 
L 678 4153 
L 678 -775 
z
" transform="scale(0.015625)"/>
       <path id="DejaVuSans-28" d="M 1984 4856 
Q 1566 4138 1362 3434 
Q 1159 2731 1159 2009 
Q 1159 1288 1364 580 
Q 1569 -128 1984 -844 
L 1484 -844 
Q 1016 -109 783 600 
Q 550 1309 550 2009 
Q 550 2706 781 3412 
Q 1013 4119 1484 4856 
L 1984 4856 
z
" transform="scale(0.015625)"/>
       <path id="DejaVuSans-9577" d="M 319 -1131 
L 319 4513 
L 3519 4513 
L 3519 -1131 
L 319 -1131 
z
M 678 -775 
L 3163 -775 
L 3163 4153 
L 678 4153 
L 678 -775 
z
" transform="scale(0.015625)"/>
       <path id="DejaVuSans-671f" d="M 319 -1131 
L 319 4513 
L 3519 4513 
L 3519 -1131 
L 319 -1131 
z
M 678 -775 
L 3163 -775 
L 3163 4153 
L 678 4153 
L 678 -775 
z
" transform="scale(0.015625)"/>
       <path id="DejaVuSans-29" d="M 513 4856 
L 1013 4856 
Q 1481 4119 1714 3412 
Q 1947 2706 1947 2009 
Q 1947 1309 1714 600 
Q 1481 -109 1013 -844 
L 513 -844 
Q 928 -128 1133 580 
Q 1338 1288 1338 2009 
Q 1338 2731 1133 3434 
Q 928 4138 513 4856 
z
" transform="scale(0.015625)"/>
      </defs>
      <use xlink:href="#DejaVuSans-4e2d"/>
      <use xlink:href="#DejaVuSans-83ef" x="60.009766"/>
      <use xlink:href="#DejaVuSans-8cc7" x="120.019531"/>
      <use xlink:href="#DejaVuSans-5b89" x="180.029297"/>
      <use xlink:href="#DejaVuSans-20" x="240.039062"/>
      <use xlink:href="#DejaVuSans-6536" x="271.826172"/>
      <use xlink:href="#DejaVuSans-76e4" x="331.835938"/>
      <use xlink:href="#DejaVuSans-50f9" x="391.845703"/>
      <use xlink:href="#DejaVuSans-20" x="451.855469"/>
      <use xlink:href="#DejaVuSans-28" x="483.642578"/>
      <use xlink:href="#DejaVuSans-9577" x="522.65625"/>
      <use xlink:href="#DejaVuSans-671f" x="582.666016"/>
      <use xlink:href="#DejaVuSans-29" x="642.675781"/>
     </g>
    </g>
    <g id="patch_8">
     <path d="M 57.90125 127.511031 
L 77.90125 127.511031 
L 77.90125 120.511031 
L 57.90125 120.511031 
z
" style="fill: #ffd700; opacity: 0.85"/>
    </g>
    <g id="text_16">
     <!-- 中華資安 融資餘額 (日) -->
     <g transform="translate(85.90125 127.511031) scale(0.1 -0.1)">
      <defs>
       <path id="DejaVuSans-878d" d="M 319 -1131 
L 319 4513 
L 3519 4513 
L 3519 -1131 
L 319 -1131 
z
M 678 -775 
L 3163 -775 
L 3163 4153 
L 678 4153 
L 678 -775 
z
" transform="scale(0.015625)"/>
       <path id="DejaVuSans-9918" d="M 319 -1131 
L 319 4513 
L 3519 4513 
L 3519 -1131 
L 319 -1131 
z
M 678 -775 
L 3163 -775 
L 3163 4153 
L 678 4153 
L 678 -775 
z
" transform="scale(0.015625)"/>
       <path id="DejaVuSans-984d" d="M 319 -1131 
L 319 4513 
L 3519 4513 
L 3519 -1131 
L 319 -1131 
z
M 678 -775 
L 3163 -775 
L 3163 4153 
L 678 4153 
L 678 -775 
z
" transform="scale(0.015625)"/>
       <path id="DejaVuSans-65e5" d="M 319 -1131 
L 319 4513 
L 3519 4513 
L 3519 -1131 
L 319 -1131 
z
M 678 -775 
L 3163 -775 
L 3163 4153 
L 678 4153 
L 678 -775 
z
" transform="scale(0.015625)"/>
      </defs>
      <use xlink:href="#DejaVuSans-4e2d"/>
      <use xlink:href="#DejaVuSans-83ef" x="60.009766"/>
      <use xlink:href="#DejaVuSans-8cc7" x="120.019531"/>
      <use xlink:href="#DejaVuSans-5b89" x="180.029297"/>
      <use xlink:href="#DejaVuSans-20" x="240.039062"/>
      <use xlink:href="#DejaVuSans-878d" x="271.826172"/>
      <use xlink:href="#DejaVuSans-8cc7" x="331.835938"/>
      <use xlink:href="#DejaVuSans-9918" x="391.845703"/>
      <use xlink:href="#DejaVuSans-984d" x="451.855469"/>
      <use xlink:href="#DejaVuSans-20" x="511.865234"/>
      <use xlink:href="#DejaVuSans-28" x="543.652344"/>
      <use xlink:href="#DejaVuSans-65e5" x="582.666016"/>
      <use xlink:href="#DejaVuSans-29" x="642.675781"/>
     </g>
    </g>
    <g id="line2d_22">
     <path d="M 57.90125 138.689156 
L 67.90125 138.689156 
L 77.90125 138.689156 
" style="fill: none; stroke: #ff0000; stroke-width: 2.5; stroke-linecap: square"/>
    </g>
    <g id="text_17">
     <!-- 融資餘額/市值 (長期) -->
     <g transform="translate(85.90125 142.189156) scale(0.1 -0.1)">
      <defs>
       <path id="DejaVuSans-2f" d="M 1625 4666 
L 2156 4666 
L 531 -594 
L 0 -594 
L 1625 4666 
z
" transform="scale(0.015625)"/>
       <path id="DejaVuSans-5e02" d="M 319 -1131 
L 319 4513 
L 3519 4513 
L 3519 -1131 
L 319 -1131 
z
M 678 -775 
L 3163 -775 
L 3163 4153 
L 678 4153 
L 678 -775 
z
" transform="scale(0.015625)"/>
       <path id="DejaVuSans-503c" d="M 319 -1131 
L 319 4513 
L 3519 4513 
L 3519 -1131 
L 319 -1131 
z
M 678 -775 
L 3163 -775 
L 3163 4153 
L 678 4153 
L 678 -775 
z
" transform="scale(0.015625)"/>
      </defs>
      <use xlink:href="#DejaVuSans-878d"/>
      <use xlink:href="#DejaVuSans-8cc7" x="60.009766"/>
      <use xlink:href="#DejaVuSans-9918" x="120.019531"/>
      <use xlink:href="#DejaVuSans-984d" x="180.029297"/>
      <use xlink:href="#DejaVuSans-2f" x="240.039062"/>
      <use xlink:href="#DejaVuSans-5e02" x="273.730469"/>
      <use xlink:href="#DejaVuSans-503c" x="333.740234"/>
      <use xlink:href="#DejaVuSans-20" x="393.75"/>
      <use xlink:href="#DejaVuSans-28" x="425.537109"/>
      <use xlink:href="#DejaVuSans-9577" x="464.550781"/>
      <use xlink:href="#DejaVuSans-671f" x="524.560547"/>
      <use xlink:href="#DejaVuSans-29" x="584.570312"/>
     </g>
    </g>
   </g>
   <g id="line2d_23">
    <path d="M 114.031809 121.143128 
L 123.369523 177.275318 
L 132.707238 212.357936 
L 142.044952 142.192699 
L 151.382667 142.192699 
L 179.39581 180.78358 
L 188.733525 247.440555 
L 198.071239 268.490126 
L 207.408954 342.163625 
L 216.746668 314.097531 
L 244.759812 279.014912 
L 254.097526 314.097531 
L 263.435241 328.130578 
L 272.772955 324.622316 
L 282.110669 335.147102 
L 319.461527 384.262768 
L 328.799242 373.737982 
L 338.136956 384.262768 
L 347.474671 394.787553 
L 384.825529 429.870172 
L 394.163243 443.90322 
L 403.500958 429.870172 
L 440.851816 408.820601 
L 450.18953 373.737982 
L 459.527245 422.853648 
L 468.864959 380.754506 
L 478.202674 415.837125 
L 506.215817 436.886696 
L 515.553532 436.886696 
L 524.891246 440.394958 
L 534.228961 457.936267 
L 571.579819 433.378434 
L 580.917533 436.886696 
L 590.255248 468.461053 
L 599.592962 478.985838 
L 608.930677 486.002362 
L 636.94382 514.068457 
L 646.281535 528.101504 
L 655.619249 542.134552 
L 664.956964 531.609766 
L 674.294678 535.118028 
L 702.307822 500.035409 
L 711.645536 538.62629 
L 720.983251 559.675861 
L 730.320965 570.200647 
L 739.65868 598.266742 
L 767.671823 577.21717 
L 777.009538 570.200647 
L 786.347252 573.708909 
L 795.684967 594.75848 
L 805.022681 587.741956 
L 833.035825 591.250218 
L 842.373539 605.283265 
L 851.711254 545.642814 
L 861.048968 482.4941 
L 870.386683 542.134552 
L 898.399826 542.134552 
L 907.737541 587.741956 
L 917.075255 587.741956 
L 926.41297 587.741956 
L 935.750684 587.741956 
L 963.763828 584.233694 
L 973.101542 584.233694 
L 982.439257 580.725432 
L 991.776971 563.184123 
L 1001.114686 545.642814 
L 1029.127829 601.775003 
L 1038.465544 594.75848 
L 1047.803258 619.316313 
L 1057.140973 619.316313 
L 1066.478687 598.266742 
L 1094.491831 598.266742 
L 1103.829545 598.266742 
L 1113.167259 573.708909 
L 1131.842688 577.21717 
L 1159.855832 591.250218 
L 1169.193546 608.791527 
L 1178.531261 528.101504 
L 1197.20669 471.969314 
L 1225.219833 482.4941 
L 1234.557548 500.035409 
L 1243.895262 478.985838 
L 1253.232977 500.035409 
L 1262.570691 531.609766 
" clip-path="url(#pf81fc15213)" style="fill: none; stroke: #000000; stroke-width: 2.5; stroke-linecap: square"/>
   </g>
  </g>
  <g id="axes_2">
   <g id="matplotlib.axis_3">
    <g id="ytick_9">
     <g id="line2d_24">
      <defs>
       <path id="m865b234365" d="M 0 0 
L 3.5 0 
" style="stroke: #000000; stroke-width: 0.8"/>
      </defs>
      <g>
       <use xlink:href="#m865b234365" x="1327.70125" y="644.224972" style="stroke: #000000; stroke-width: 0.8"/>
      </g>
     </g>
     <g id="text_18">
      <!-- 0 -->
      <g style="fill: #228b22" transform="translate(1334.70125 648.024191) scale(0.1 -0.1)">
       <use xlink:href="#DejaVuSans-30"/>
      </g>
     </g>
    </g>
    <g id="ytick_10">
     <g id="line2d_25">
      <g>
       <use xlink:href="#m865b234365" x="1327.70125" y="545.329712" style="stroke: #000000; stroke-width: 0.8"/>
      </g>
     </g>
     <g id="text_19">
      <!-- 5 -->
      <g style="fill: #228b22" transform="translate(1334.70125 549.128931) scale(0.1 -0.1)">
       <use xlink:href="#DejaVuSans-35"/>
      </g>
     </g>
    </g>
    <g id="ytick_11">
     <g id="line2d_26">
      <g>
       <use xlink:href="#m865b234365" x="1327.70125" y="446.434452" style="stroke: #000000; stroke-width: 0.8"/>
      </g>
     </g>
     <g id="text_20">
      <!-- 10 -->
      <g style="fill: #228b22" transform="translate(1334.70125 450.233671) scale(0.1 -0.1)">
       <use xlink:href="#DejaVuSans-31"/>
       <use xlink:href="#DejaVuSans-30" x="63.623047"/>
      </g>
     </g>
    </g>
    <g id="ytick_12">
     <g id="line2d_27">
      <g>
       <use xlink:href="#m865b234365" x="1327.70125" y="347.539192" style="stroke: #000000; stroke-width: 0.8"/>
      </g>
     </g>
     <g id="text_21">
      <!-- 15 -->
      <g style="fill: #228b22" transform="translate(1334.70125 351.338411) scale(0.1 -0.1)">
       <use xlink:href="#DejaVuSans-31"/>
       <use xlink:href="#DejaVuSans-35" x="63.623047"/>
      </g>
     </g>
    </g>
    <g id="ytick_13">
     <g id="line2d_28">
      <g>
       <use xlink:href="#m865b234365" x="1327.70125" y="248.643932" style="stroke: #000000; stroke-width: 0.8"/>
      </g>
     </g>
     <g id="text_22">
      <!-- 20 -->
      <g style="fill: #228b22" transform="translate(1334.70125 252.443151) scale(0.1 -0.1)">
       <use xlink:href="#DejaVuSans-32"/>
       <use xlink:href="#DejaVuSans-30" x="63.623047"/>
      </g>
     </g>
    </g>
    <g id="ytick_14">
     <g id="line2d_29">
      <g>
       <use xlink:href="#m865b234365" x="1327.70125" y="149.748672" style="stroke: #000000; stroke-width: 0.8"/>
      </g>
     </g>
     <g id="text_23">
      <!-- 25 -->
      <g style="fill: #228b22" transform="translate(1334.70125 153.547891) scale(0.1 -0.1)">
       <use xlink:href="#DejaVuSans-32"/>
       <use xlink:href="#DejaVuSans-35" x="63.623047"/>
      </g>
     </g>
    </g>
    <g id="text_24">
     <!-- 融資餘額 (億元) -->
     <g style="fill: #228b22" transform="translate(1360.544375 399.40847) rotate(-90) scale(0.12 -0.12)">
      <defs>
       <path id="DejaVuSans-Bold-878d" d="M 319 -1131 
L 319 4513 
L 3519 4513 
L 3519 -1131 
L 319 -1131 
z
M 678 -775 
L 3163 -775 
L 3163 4153 
L 678 4153 
L 678 -775 
z
" transform="scale(0.015625)"/>
       <path id="DejaVuSans-Bold-8cc7" d="M 319 -1131 
L 319 4513 
L 3519 4513 
L 3519 -1131 
L 319 -1131 
z
M 678 -775 
L 3163 -775 
L 3163 4153 
L 678 4153 
L 678 -775 
z
" transform="scale(0.015625)"/>
       <path id="DejaVuSans-Bold-9918" d="M 319 -1131 
L 319 4513 
L 3519 4513 
L 3519 -1131 
L 319 -1131 
z
M 678 -775 
L 3163 -775 
L 3163 4153 
L 678 4153 
L 678 -775 
z
" transform="scale(0.015625)"/>
       <path id="DejaVuSans-Bold-984d" d="M 319 -1131 
L 319 4513 
L 3519 4513 
L 3519 -1131 
L 319 -1131 
z
M 678 -775 
L 3163 -775 
L 3163 4153 
L 678 4153 
L 678 -775 
z
" transform="scale(0.015625)"/>
       <path id="DejaVuSans-Bold-5104" d="M 319 -1131 
L 319 4513 
L 3519 4513 
L 3519 -1131 
L 319 -1131 
z
M 678 -775 
L 3163 -775 
L 3163 4153 
L 678 4153 
L 678 -775 
z
" transform="scale(0.015625)"/>
      </defs>
      <use xlink:href="#DejaVuSans-Bold-878d"/>
      <use xlink:href="#DejaVuSans-Bold-8cc7" x="60.009766"/>
      <use xlink:href="#DejaVuSans-Bold-9918" x="120.019531"/>
      <use xlink:href="#DejaVuSans-Bold-984d" x="180.029297"/>
      <use xlink:href="#DejaVuSans-Bold-20" x="240.039062"/>
      <use xlink:href="#DejaVuSans-Bold-28" x="274.853516"/>
      <use xlink:href="#DejaVuSans-Bold-5104" x="320.556641"/>
      <use xlink:href="#DejaVuSans-Bold-5143" x="380.566406"/>
      <use xlink:href="#DejaVuSans-Bold-29" x="440.576172"/>
     </g>
    </g>
   </g>
   <g id="patch_9">
    <path d="M 48.90125 644.224972 
L 48.90125 96.234469 
" style="fill: none; stroke: #000000; stroke-width: 0.8; stroke-linejoin: miter; stroke-linecap: square"/>
   </g>
   <g id="patch_10">
    <path d="M 1327.70125 644.224972 
L 1327.70125 96.234469 
" style="fill: none; stroke: #000000; stroke-width: 0.8; stroke-linejoin: miter; stroke-linecap: square"/>
   </g>
   <g id="patch_11">
    <path d="M 48.90125 644.224972 
L 1327.70125 644.224972 
" style="fill: none; stroke: #000000; stroke-width: 0.8; stroke-linejoin: miter; stroke-linecap: square"/>
   </g>
   <g id="patch_12">
    <path d="M 48.90125 96.234469 
L 1327.70125 96.234469 
" style="fill: none; stroke: #000000; stroke-width: 0.8; stroke-linejoin: miter; stroke-linecap: square"/>
   </g>
   <g id="patch_13">
    <path d="M 107.028523 644.224972 
L 121.035094 644.224972 
L 121.035094 513.274396 
L 107.028523 513.274396 
z
" clip-path="url(#pf81fc15213)" style="fill: #ffd700; opacity: 0.85"/>
   </g>
   <g id="patch_14">
    <path d="M 116.366237 644.224972 
L 130.372809 644.224972 
L 130.372809 560.228679 
L 116.366237 560.228679 
z
" clip-path="url(#pf81fc15213)" style="fill: #ffd700; opacity: 0.85"/>
   </g>
   <g id="patch_15">
    <path d="M 125.703952 644.224972 
L 139.710523 644.224972 
L 139.710523 575.425122 
L 125.703952 575.425122 
z
" clip-path="url(#pf81fc15213)" style="fill: #ffd700; opacity: 0.85"/>
   </g>
   <g id="patch_16">
    <path d="M 135.041666 644.224972 
L 149.048238 644.224972 
L 149.048238 586.34039 
L 135.041666 586.34039 
z
" clip-path="url(#pf81fc15213)" style="fill: #ffd700; opacity: 0.85"/>
   </g>
   <g id="patch_17">
    <path d="M 144.379381 644.224972 
L 158.385952 644.224972 
L 158.385952 602.821878 
L 144.379381 602.821878 
z
" clip-path="url(#pf81fc15213)" style="fill: #ffd700; opacity: 0.85"/>
   </g>
   <g id="patch_18">
    <path d="M 172.392524 644.224972 
L 186.399096 644.224972 
L 186.399096 592.190638 
L 172.392524 592.190638 
z
" clip-path="url(#pf81fc15213)" style="fill: #ffd700; opacity: 0.85"/>
   </g>
   <g id="patch_19">
    <path d="M 181.730239 644.224972 
L 195.73681 644.224972 
L 195.73681 610.51138 
L 181.730239 610.51138 
z
" clip-path="url(#pf81fc15213)" style="fill: #ffd700; opacity: 0.85"/>
   </g>
   <g id="patch_20">
    <path d="M 191.067953 644.224972 
L 205.074525 644.224972 
L 205.074525 576.170001 
L 191.067953 576.170001 
z
" clip-path="url(#pf81fc15213)" style="fill: #ffd700; opacity: 0.85"/>
   </g>
   <g id="patch_21">
    <path d="M 200.405668 644.224972 
L 214.412239 644.224972 
L 214.412239 621.17397 
L 200.405668 621.17397 
z
" clip-path="url(#pf81fc15213)" style="fill: #ffd700; opacity: 0.85"/>
   </g>
   <g id="patch_22">
    <path d="M 209.743382 644.224972 
L 223.749954 644.224972 
L 223.749954 622.414414 
L 209.743382 622.414414 
z
" clip-path="url(#pf81fc15213)" style="fill: #ffd700; opacity: 0.85"/>
   </g>
   <g id="patch_23">
    <path d="M 237.756526 644.224972 
L 251.763097 644.224972 
L 251.763097 624.31795 
L 237.756526 624.31795 
z
" clip-path="url(#pf81fc15213)" style="fill: #ffd700; opacity: 0.85"/>
   </g>
   <g id="patch_24">
    <path d="M 247.09424 644.224972 
L 261.100812 644.224972 
L 261.100812 629.6846 
L 247.09424 629.6846 
z
" clip-path="url(#pf81fc15213)" style="fill: #ffd700; opacity: 0.85"/>
   </g>
   <g id="patch_25">
    <path d="M 256.431955 644.224972 
L 270.438526 644.224972 
L 270.438526 632.777549 
L 256.431955 632.777549 
z
" clip-path="url(#pf81fc15213)" style="fill: #ffd700; opacity: 0.85"/>
   </g>
   <g id="patch_26">
    <path d="M 265.769669 644.224972 
L 279.776241 644.224972 
L 279.776241 632.759056 
L 265.769669 632.759056 
z
" clip-path="url(#pf81fc15213)" style="fill: #ffd700; opacity: 0.85"/>
   </g>
   <g id="patch_27">
    <path d="M 275.107384 644.224972 
L 289.113955 644.224972 
L 289.113955 613.105601 
L 275.107384 613.105601 
z
" clip-path="url(#pf81fc15213)" style="fill: #ffd700; opacity: 0.85"/>
   </g>
   <g id="patch_28">
    <path d="M 312.458242 644.224972 
L 326.464813 644.224972 
L 326.464813 630.211019 
L 312.458242 630.211019 
z
" clip-path="url(#pf81fc15213)" style="fill: #ffd700; opacity: 0.85"/>
   </g>
   <g id="patch_29">
    <path d="M 321.795956 644.224972 
L 335.802528 644.224972 
L 335.802528 622.949635 
L 321.795956 622.949635 
z
" clip-path="url(#pf81fc15213)" style="fill: #ffd700; opacity: 0.85"/>
   </g>
   <g id="patch_30">
    <path d="M 331.133671 644.224972 
L 345.140242 644.224972 
L 345.140242 622.935691 
L 331.133671 622.935691 
z
" clip-path="url(#pf81fc15213)" style="fill: #ffd700; opacity: 0.85"/>
   </g>
   <g id="patch_31">
    <path d="M 340.471385 644.224972 
L 354.477957 644.224972 
L 354.477957 598.832048 
L 340.471385 598.832048 
z
" clip-path="url(#pf81fc15213)" style="fill: #ffd700; opacity: 0.85"/>
   </g>
   <g id="patch_32">
    <path d="M 377.822243 644.224972 
L 391.828815 644.224972 
L 391.828815 610.383014 
L 377.822243 610.383014 
z
" clip-path="url(#pf81fc15213)" style="fill: #ffd700; opacity: 0.85"/>
   </g>
   <g id="patch_33">
    <path d="M 387.159958 644.224972 
L 401.166529 644.224972 
L 401.166529 612.640793 
L 387.159958 612.640793 
z
" clip-path="url(#pf81fc15213)" style="fill: #ffd700; opacity: 0.85"/>
   </g>
   <g id="patch_34">
    <path d="M 396.497672 644.224972 
L 410.504244 644.224972 
L 410.504244 618.9602 
L 396.497672 618.9602 
z
" clip-path="url(#pf81fc15213)" style="fill: #ffd700; opacity: 0.85"/>
   </g>
   <g id="patch_35">
    <path d="M 433.84853 644.224972 
L 447.855102 644.224972 
L 447.855102 619.764218 
L 433.84853 619.764218 
z
" clip-path="url(#pf81fc15213)" style="fill: #ffd700; opacity: 0.85"/>
   </g>
   <g id="patch_36">
    <path d="M 443.186245 644.224972 
L 457.192816 644.224972 
L 457.192816 630.440951 
L 443.186245 630.440951 
z
" clip-path="url(#pf81fc15213)" style="fill: #ffd700; opacity: 0.85"/>
   </g>
   <g id="patch_37">
    <path d="M 452.523959 644.224972 
L 466.530531 644.224972 
L 466.530531 628.534646 
L 452.523959 628.534646 
z
" clip-path="url(#pf81fc15213)" style="fill: #ffd700; opacity: 0.85"/>
   </g>
   <g id="patch_38">
    <path d="M 461.861674 644.224972 
L 475.868245 644.224972 
L 475.868245 634.548269 
L 461.861674 634.548269 
z
" clip-path="url(#pf81fc15213)" style="fill: #ffd700; opacity: 0.85"/>
   </g>
   <g id="patch_39">
    <path d="M 471.199388 644.224972 
L 485.20596 644.224972 
L 485.20596 626.543093 
L 471.199388 626.543093 
z
" clip-path="url(#pf81fc15213)" style="fill: #ffd700; opacity: 0.85"/>
   </g>
   <g id="patch_40">
    <path d="M 499.212531 644.224972 
L 513.219103 644.224972 
L 513.219103 631.780784 
L 499.212531 631.780784 
z
" clip-path="url(#pf81fc15213)" style="fill: #ffd700; opacity: 0.85"/>
   </g>
   <g id="patch_41">
    <path d="M 508.550246 644.224972 
L 522.556818 644.224972 
L 522.556818 627.245051 
L 508.550246 627.245051 
z
" clip-path="url(#pf81fc15213)" style="fill: #ffd700; opacity: 0.85"/>
   </g>
   <g id="patch_42">
    <path d="M 517.88796 644.224972 
L 531.894532 644.224972 
L 531.894532 614.967007 
L 517.88796 614.967007 
z
" clip-path="url(#pf81fc15213)" style="fill: #ffd700; opacity: 0.85"/>
   </g>
   <g id="patch_43">
    <path d="M 527.225675 644.224972 
L 541.232247 644.224972 
L 541.232247 636.2821 
L 527.225675 636.2821 
z
" clip-path="url(#pf81fc15213)" style="fill: #ffd700; opacity: 0.85"/>
   </g>
   <g id="patch_44">
    <path d="M 564.576533 644.224972 
L 578.583105 644.224972 
L 578.583105 573.918057 
L 564.576533 573.918057 
z
" clip-path="url(#pf81fc15213)" style="fill: #ffd700; opacity: 0.85"/>
   </g>
   <g id="patch_45">
    <path d="M 573.914247 644.224972 
L 587.920819 644.224972 
L 587.920819 613.696005 
L 573.914247 613.696005 
z
" clip-path="url(#pf81fc15213)" style="fill: #ffd700; opacity: 0.85"/>
   </g>
   <g id="patch_46">
    <path d="M 583.251962 644.224972 
L 597.258534 644.224972 
L 597.258534 635.464138 
L 583.251962 635.464138 
z
" clip-path="url(#pf81fc15213)" style="fill: #ffd700; opacity: 0.85"/>
   </g>
   <g id="patch_47">
    <path d="M 592.589676 644.224972 
L 606.596248 644.224972 
L 606.596248 595.350143 
L 592.589676 595.350143 
z
" clip-path="url(#pf81fc15213)" style="fill: #ffd700; opacity: 0.85"/>
   </g>
   <g id="patch_48">
    <path d="M 601.927391 644.224972 
L 615.933963 644.224972 
L 615.933963 613.003738 
L 601.927391 613.003738 
z
" clip-path="url(#pf81fc15213)" style="fill: #ffd700; opacity: 0.85"/>
   </g>
   <g id="patch_49">
    <path d="M 629.940534 644.224972 
L 643.947106 644.224972 
L 643.947106 629.951419 
L 629.940534 629.951419 
z
" clip-path="url(#pf81fc15213)" style="fill: #ffd700; opacity: 0.85"/>
   </g>
   <g id="patch_50">
    <path d="M 639.278249 644.224972 
L 653.284821 644.224972 
L 653.284821 633.887253 
L 639.278249 633.887253 
z
" clip-path="url(#pf81fc15213)" style="fill: #ffd700; opacity: 0.85"/>
   </g>
   <g id="patch_51">
    <path d="M 648.615963 644.224972 
L 662.622535 644.224972 
L 662.622535 617.516131 
L 648.615963 617.516131 
z
" clip-path="url(#pf81fc15213)" style="fill: #ffd700; opacity: 0.85"/>
   </g>
   <g id="patch_52">
    <path d="M 657.953678 644.224972 
L 671.96025 644.224972 
L 671.96025 566.053313 
L 657.953678 566.053313 
z
" clip-path="url(#pf81fc15213)" style="fill: #ffd700; opacity: 0.85"/>
   </g>
   <g id="patch_53">
    <path d="M 667.291392 644.224972 
L 681.297964 644.224972 
L 681.297964 622.349341 
L 667.291392 622.349341 
z
" clip-path="url(#pf81fc15213)" style="fill: #ffd700; opacity: 0.85"/>
   </g>
   <g id="patch_54">
    <path d="M 695.304536 644.224972 
L 709.311108 644.224972 
L 709.311108 604.822134 
L 695.304536 604.822134 
z
" clip-path="url(#pf81fc15213)" style="fill: #ffd700; opacity: 0.85"/>
   </g>
   <g id="patch_55">
    <path d="M 704.64225 644.224972 
L 718.648822 644.224972 
L 718.648822 619.182022 
L 704.64225 619.182022 
z
" clip-path="url(#pf81fc15213)" style="fill: #ffd700; opacity: 0.85"/>
   </g>
   <g id="patch_56">
    <path d="M 713.979965 644.224972 
L 727.986537 644.224972 
L 727.986537 639.467022 
L 713.979965 639.467022 
z
" clip-path="url(#pf81fc15213)" style="fill: #ffd700; opacity: 0.85"/>
   </g>
   <g id="patch_57">
    <path d="M 723.317679 644.224972 
L 737.324251 644.224972 
L 737.324251 636.44686 
L 723.317679 636.44686 
z
" clip-path="url(#pf81fc15213)" style="fill: #ffd700; opacity: 0.85"/>
   </g>
   <g id="patch_58">
    <path d="M 732.655394 644.224972 
L 746.661966 644.224972 
L 746.661966 635.327168 
L 732.655394 635.327168 
z
" clip-path="url(#pf81fc15213)" style="fill: #ffd700; opacity: 0.85"/>
   </g>
   <g id="patch_59">
    <path d="M 760.668537 644.224972 
L 774.675109 644.224972 
L 774.675109 628.833705 
L 760.668537 628.833705 
z
" clip-path="url(#pf81fc15213)" style="fill: #ffd700; opacity: 0.85"/>
   </g>
   <g id="patch_60">
    <path d="M 770.006252 644.224972 
L 784.012824 644.224972 
L 784.012824 571.883089 
L 770.006252 571.883089 
z
" clip-path="url(#pf81fc15213)" style="fill: #ffd700; opacity: 0.85"/>
   </g>
   <g id="patch_61">
    <path d="M 779.343966 644.224972 
L 793.350538 644.224972 
L 793.350538 636.515295 
L 779.343966 636.515295 
z
" clip-path="url(#pf81fc15213)" style="fill: #ffd700; opacity: 0.85"/>
   </g>
   <g id="patch_62">
    <path d="M 788.681681 644.224972 
L 802.688253 644.224972 
L 802.688253 636.975455 
L 788.681681 636.975455 
z
" clip-path="url(#pf81fc15213)" style="fill: #ffd700; opacity: 0.85"/>
   </g>
   <g id="patch_63">
    <path d="M 798.019395 644.224972 
L 812.025967 644.224972 
L 812.025967 632.583022 
L 798.019395 632.583022 
z
" clip-path="url(#pf81fc15213)" style="fill: #ffd700; opacity: 0.85"/>
   </g>
   <g id="patch_64">
    <path d="M 826.032539 644.224972 
L 840.039111 644.224972 
L 840.039111 639.060266 
L 826.032539 639.060266 
z
" clip-path="url(#pf81fc15213)" style="fill: #ffd700; opacity: 0.85"/>
   </g>
   <g id="patch_65">
    <path d="M 835.370253 644.224972 
L 849.376825 644.224972 
L 849.376825 638.403997 
L 835.370253 638.403997 
z
" clip-path="url(#pf81fc15213)" style="fill: #ffd700; opacity: 0.85"/>
   </g>
   <g id="patch_66">
    <path d="M 844.707968 644.224972 
L 858.71454 644.224972 
L 858.71454 638.330913 
L 844.707968 638.330913 
z
" clip-path="url(#pf81fc15213)" style="fill: #ffd700; opacity: 0.85"/>
   </g>
   <g id="patch_67">
    <path d="M 854.045682 644.224972 
L 868.052254 644.224972 
L 868.052254 626.198839 
L 854.045682 626.198839 
z
" clip-path="url(#pf81fc15213)" style="fill: #ffd700; opacity: 0.85"/>
   </g>
   <g id="patch_68">
    <path d="M 863.383397 644.224972 
L 877.389969 644.224972 
L 877.389969 596.767115 
L 863.383397 596.767115 
z
" clip-path="url(#pf81fc15213)" style="fill: #ffd700; opacity: 0.85"/>
   </g>
   <g id="patch_69">
    <path d="M 891.39654 644.224972 
L 905.403112 644.224972 
L 905.403112 636.720009 
L 891.39654 636.720009 
z
" clip-path="url(#pf81fc15213)" style="fill: #ffd700; opacity: 0.85"/>
   </g>
   <g id="patch_70">
    <path d="M 900.734255 644.224972 
L 914.740826 644.224972 
L 914.740826 638.242303 
L 900.734255 638.242303 
z
" clip-path="url(#pf81fc15213)" style="fill: #ffd700; opacity: 0.85"/>
   </g>
   <g id="patch_71">
    <path d="M 910.071969 644.224972 
L 924.078541 644.224972 
L 924.078541 633.714878 
L 910.071969 633.714878 
z
" clip-path="url(#pf81fc15213)" style="fill: #ffd700; opacity: 0.85"/>
   </g>
   <g id="patch_72">
    <path d="M 919.409684 644.224972 
L 933.416255 644.224972 
L 933.416255 638.08061 
L 919.409684 638.08061 
z
" clip-path="url(#pf81fc15213)" style="fill: #ffd700; opacity: 0.85"/>
   </g>
   <g id="patch_73">
    <path d="M 928.747398 644.224972 
L 942.75397 644.224972 
L 942.75397 640.290424 
L 928.747398 640.290424 
z
" clip-path="url(#pf81fc15213)" style="fill: #ffd700; opacity: 0.85"/>
   </g>
   <g id="patch_74">
    <path d="M 956.760542 644.224972 
L 970.767113 644.224972 
L 970.767113 638.609304 
L 956.760542 638.609304 
z
" clip-path="url(#pf81fc15213)" style="fill: #ffd700; opacity: 0.85"/>
   </g>
   <g id="patch_75">
    <path d="M 966.098256 644.224972 
L 980.104828 644.224972 
L 980.104828 638.825291 
L 966.098256 638.825291 
z
" clip-path="url(#pf81fc15213)" style="fill: #ffd700; opacity: 0.85"/>
   </g>
   <g id="patch_76">
    <path d="M 975.435971 644.224972 
L 989.442542 644.224972 
L 989.442542 637.5712 
L 975.435971 637.5712 
z
" clip-path="url(#pf81fc15213)" style="fill: #ffd700; opacity: 0.85"/>
   </g>
   <g id="patch_77">
    <path d="M 984.773685 644.224972 
L 998.780257 644.224972 
L 998.780257 638.383822 
L 984.773685 638.383822 
z
" clip-path="url(#pf81fc15213)" style="fill: #ffd700; opacity: 0.85"/>
   </g>
   <g id="patch_78">
    <path d="M 994.1114 644.224972 
L 1008.117971 644.224972 
L 1008.117971 559.670019 
L 994.1114 559.670019 
z
" clip-path="url(#pf81fc15213)" style="fill: #ffd700; opacity: 0.85"/>
   </g>
   <g id="patch_79">
    <path d="M 1022.124543 644.224972 
L 1036.131115 644.224972 
L 1036.131115 613.621636 
L 1022.124543 613.621636 
z
" clip-path="url(#pf81fc15213)" style="fill: #ffd700; opacity: 0.85"/>
   </g>
   <g id="patch_80">
    <path d="M 1031.462258 644.224972 
L 1045.468829 644.224972 
L 1045.468829 623.174523 
L 1031.462258 623.174523 
z
" clip-path="url(#pf81fc15213)" style="fill: #ffd700; opacity: 0.85"/>
   </g>
   <g id="patch_81">
    <path d="M 1040.799972 644.224972 
L 1054.806544 644.224972 
L 1054.806544 637.545982 
L 1040.799972 637.545982 
z
" clip-path="url(#pf81fc15213)" style="fill: #ffd700; opacity: 0.85"/>
   </g>
   <g id="patch_82">
    <path d="M 1050.137687 644.224972 
L 1064.144258 644.224972 
L 1064.144258 638.394108 
L 1050.137687 638.394108 
z
" clip-path="url(#pf81fc15213)" style="fill: #ffd700; opacity: 0.85"/>
   </g>
   <g id="patch_83">
    <path d="M 1059.475401 644.224972 
L 1073.481973 644.224972 
L 1073.481973 641.920119 
L 1059.475401 641.920119 
z
" clip-path="url(#pf81fc15213)" style="fill: #ffd700; opacity: 0.85"/>
   </g>
   <g id="patch_84">
    <path d="M 1087.488545 644.224972 
L 1101.495116 644.224972 
L 1101.495116 642.188125 
L 1087.488545 642.188125 
z
" clip-path="url(#pf81fc15213)" style="fill: #ffd700; opacity: 0.85"/>
   </g>
   <g id="patch_85">
    <path d="M 1096.826259 644.224972 
L 1110.832831 644.224972 
L 1110.832831 639.186456 
L 1096.826259 639.186456 
z
" clip-path="url(#pf81fc15213)" style="fill: #ffd700; opacity: 0.85"/>
   </g>
   <g id="patch_86">
    <path d="M 1106.163974 644.224972 
L 1120.170545 644.224972 
L 1120.170545 635.592306 
L 1106.163974 635.592306 
z
" clip-path="url(#pf81fc15213)" style="fill: #ffd700; opacity: 0.85"/>
   </g>
   <g id="patch_87">
    <path d="M 1124.839403 644.224972 
L 1138.845974 644.224972 
L 1138.845974 634.036387 
L 1124.839403 634.036387 
z
" clip-path="url(#pf81fc15213)" style="fill: #ffd700; opacity: 0.85"/>
   </g>
   <g id="patch_88">
    <path d="M 1152.852546 644.224972 
L 1166.859118 644.224972 
L 1166.859118 637.123501 
L 1152.852546 637.123501 
z
" clip-path="url(#pf81fc15213)" style="fill: #ffd700; opacity: 0.85"/>
   </g>
   <g id="patch_89">
    <path d="M 1162.190261 644.224972 
L 1176.196832 644.224972 
L 1176.196832 627.700563 
L 1162.190261 627.700563 
z
" clip-path="url(#pf81fc15213)" style="fill: #ffd700; opacity: 0.85"/>
   </g>
   <g id="patch_90">
    <path d="M 1171.527975 644.224972 
L 1185.534547 644.224972 
L 1185.534547 603.707782 
L 1171.527975 603.707782 
z
" clip-path="url(#pf81fc15213)" style="fill: #ffd700; opacity: 0.85"/>
   </g>
   <g id="patch_91">
    <path d="M 1190.203404 644.224972 
L 1204.209976 644.224972 
L 1204.209976 616.558825 
L 1190.203404 616.558825 
z
" clip-path="url(#pf81fc15213)" style="fill: #ffd700; opacity: 0.85"/>
   </g>
   <g id="patch_92">
    <path d="M 1218.216548 644.224972 
L 1232.223119 644.224972 
L 1232.223119 555.515924 
L 1218.216548 555.515924 
z
" clip-path="url(#pf81fc15213)" style="fill: #ffd700; opacity: 0.85"/>
   </g>
   <g id="patch_93">
    <path d="M 1227.554262 644.224972 
L 1241.560834 644.224972 
L 1241.560834 568.857883 
L 1227.554262 568.857883 
z
" clip-path="url(#pf81fc15213)" style="fill: #ffd700; opacity: 0.85"/>
   </g>
   <g id="patch_94">
    <path d="M 1236.891977 644.224972 
L 1250.898548 644.224972 
L 1250.898548 507.227346 
L 1236.891977 507.227346 
z
" clip-path="url(#pf81fc15213)" style="fill: #ffd700; opacity: 0.85"/>
   </g>
   <g id="patch_95">
    <path d="M 1246.229691 644.224972 
L 1260.236263 644.224972 
L 1260.236263 631.372544 
L 1246.229691 631.372544 
z
" clip-path="url(#pf81fc15213)" style="fill: #ffd700; opacity: 0.85"/>
   </g>
   <g id="patch_96">
    <path d="M 1255.567406 644.224972 
L 1269.573977 644.224972 
L 1269.573977 635.625535 
L 1255.567406 635.625535 
z
" clip-path="url(#pf81fc15213)" style="fill: #ffd700; opacity: 0.85"/>
   </g>
  </g>
  <g id="axes_3">
   <g id="matplotlib.axis_4">
    <g id="ytick_15">
     <g id="line2d_30">
      <g>
       <use xlink:href="#m865b234365" x="1387.70125" y="644.224972" style="stroke: #000000; stroke-width: 0.8"/>
      </g>
     </g>
     <g id="text_25">
      <!-- 0 -->
      <g style="fill: #ff0000" transform="translate(1394.70125 648.024191) scale(0.1 -0.1)">
       <use xlink:href="#DejaVuSans-30"/>
      </g>
     </g>
    </g>
    <g id="ytick_16">
     <g id="line2d_31">
      <g>
       <use xlink:href="#m865b234365" x="1387.70125" y="571.874961" style="stroke: #000000; stroke-width: 0.8"/>
      </g>
     </g>
     <g id="text_26">
      <!-- 2 -->
      <g style="fill: #ff0000" transform="translate(1394.70125 575.67418) scale(0.1 -0.1)">
       <use xlink:href="#DejaVuSans-32"/>
      </g>
     </g>
    </g>
    <g id="ytick_17">
     <g id="line2d_32">
      <g>
       <use xlink:href="#m865b234365" x="1387.70125" y="499.52495" style="stroke: #000000; stroke-width: 0.8"/>
      </g>
     </g>
     <g id="text_27">
      <!-- 4 -->
      <g style="fill: #ff0000" transform="translate(1394.70125 503.324169) scale(0.1 -0.1)">
       <use xlink:href="#DejaVuSans-34"/>
      </g>
     </g>
    </g>
    <g id="ytick_18">
     <g id="line2d_33">
      <g>
       <use xlink:href="#m865b234365" x="1387.70125" y="427.174939" style="stroke: #000000; stroke-width: 0.8"/>
      </g>
     </g>
     <g id="text_28">
      <!-- 6 -->
      <g style="fill: #ff0000" transform="translate(1394.70125 430.974158) scale(0.1 -0.1)">
       <use xlink:href="#DejaVuSans-36"/>
      </g>
     </g>
    </g>
    <g id="ytick_19">
     <g id="line2d_34">
      <g>
       <use xlink:href="#m865b234365" x="1387.70125" y="354.824928" style="stroke: #000000; stroke-width: 0.8"/>
      </g>
     </g>
     <g id="text_29">
      <!-- 8 -->
      <g style="fill: #ff0000" transform="translate(1394.70125 358.624147) scale(0.1 -0.1)">
       <use xlink:href="#DejaVuSans-38"/>
      </g>
     </g>
    </g>
    <g id="ytick_20">
     <g id="line2d_35">
      <g>
       <use xlink:href="#m865b234365" x="1387.70125" y="282.474918" style="stroke: #000000; stroke-width: 0.8"/>
      </g>
     </g>
     <g id="text_30">
      <!-- 10 -->
      <g style="fill: #ff0000" transform="translate(1394.70125 286.274136) scale(0.1 -0.1)">
       <use xlink:href="#DejaVuSans-31"/>
       <use xlink:href="#DejaVuSans-30" x="63.623047"/>
      </g>
     </g>
    </g>
    <g id="ytick_21">
     <g id="line2d_36">
      <g>
       <use xlink:href="#m865b234365" x="1387.70125" y="210.124907" style="stroke: #000000; stroke-width: 0.8"/>
      </g>
     </g>
     <g id="text_31">
      <!-- 12 -->
      <g style="fill: #ff0000" transform="translate(1394.70125 213.924125) scale(0.1 -0.1)">
       <use xlink:href="#DejaVuSans-31"/>
       <use xlink:href="#DejaVuSans-32" x="63.623047"/>
      </g>
     </g>
    </g>
    <g id="ytick_22">
     <g id="line2d_37">
      <g>
       <use xlink:href="#m865b234365" x="1387.70125" y="137.774896" style="stroke: #000000; stroke-width: 0.8"/>
      </g>
     </g>
     <g id="text_32">
      <!-- 14 -->
      <g style="fill: #ff0000" transform="translate(1394.70125 141.574115) scale(0.1 -0.1)">
       <use xlink:href="#DejaVuSans-31"/>
       <use xlink:href="#DejaVuSans-34" x="63.623047"/>
      </g>
     </g>
    </g>
    <g id="text_33">
     <!-- 融資餘額/市值 (%) [長期趨勢] -->
     <g style="fill: #ff0000" transform="translate(1420.544375 429.589408) rotate(-90) scale(0.12 -0.12)">
      <defs>
       <path id="DejaVuSans-Bold-2f" d="M 1644 4666 
L 2338 4666 
L 691 -594 
L 0 -594 
L 1644 4666 
z
" transform="scale(0.015625)"/>
       <path id="DejaVuSans-Bold-5e02" d="M 319 -1131 
L 319 4513 
L 3519 4513 
L 3519 -1131 
L 319 -1131 
z
M 678 -775 
L 3163 -775 
L 3163 4153 
L 678 4153 
L 678 -775 
z
" transform="scale(0.015625)"/>
       <path id="DejaVuSans-Bold-503c" d="M 319 -1131 
L 319 4513 
L 3519 4513 
L 3519 -1131 
L 319 -1131 
z
M 678 -775 
L 3163 -775 
L 3163 4153 
L 678 4153 
L 678 -775 
z
" transform="scale(0.015625)"/>
       <path id="DejaVuSans-Bold-25" d="M 4959 1925 
Q 4738 1925 4616 1733 
Q 4494 1541 4494 1184 
Q 4494 825 4614 633 
Q 4734 441 4959 441 
Q 5184 441 5303 633 
Q 5422 825 5422 1184 
Q 5422 1541 5301 1733 
Q 5181 1925 4959 1925 
z
M 4959 2450 
Q 5541 2450 5875 2112 
Q 6209 1775 6209 1184 
Q 6209 594 5875 251 
Q 5541 -91 4959 -91 
Q 4378 -91 4042 251 
Q 3706 594 3706 1184 
Q 3706 1772 4042 2111 
Q 4378 2450 4959 2450 
z
M 2094 -91 
L 1403 -91 
L 4319 4750 
L 5013 4750 
L 2094 -91 
z
M 1453 4750 
Q 2034 4750 2367 4411 
Q 2700 4072 2700 3481 
Q 2700 2891 2367 2550 
Q 2034 2209 1453 2209 
Q 872 2209 539 2550 
Q 206 2891 206 3481 
Q 206 4072 539 4411 
Q 872 4750 1453 4750 
z
M 1453 4225 
Q 1228 4225 1106 4031 
Q 984 3838 984 3481 
Q 984 3122 1106 2926 
Q 1228 2731 1453 2731 
Q 1678 2731 1798 2926 
Q 1919 3122 1919 3481 
Q 1919 3838 1797 4031 
Q 1675 4225 1453 4225 
z
" transform="scale(0.015625)"/>
       <path id="DejaVuSans-Bold-5b" d="M 550 4863 
L 2491 4863 
L 2491 4159 
L 1613 4159 
L 1613 -141 
L 2491 -141 
L 2491 -844 
L 550 -844 
L 550 4863 
z
" transform="scale(0.015625)"/>
       <path id="DejaVuSans-Bold-9577" d="M 319 -1131 
L 319 4513 
L 3519 4513 
L 3519 -1131 
L 319 -1131 
z
M 678 -775 
L 3163 -775 
L 3163 4153 
L 678 4153 
L 678 -775 
z
" transform="scale(0.015625)"/>
       <path id="DejaVuSans-Bold-8da8" d="M 319 -1131 
L 319 4513 
L 3519 4513 
L 3519 -1131 
L 319 -1131 
z
M 678 -775 
L 3163 -775 
L 3163 4153 
L 678 4153 
L 678 -775 
z
" transform="scale(0.015625)"/>
       <path id="DejaVuSans-Bold-52e2" d="M 319 -1131 
L 319 4513 
L 3519 4513 
L 3519 -1131 
L 319 -1131 
z
M 678 -775 
L 3163 -775 
L 3163 4153 
L 678 4153 
L 678 -775 
z
" transform="scale(0.015625)"/>
       <path id="DejaVuSans-Bold-5d" d="M 2375 -844 
L 434 -844 
L 434 -141 
L 1313 -141 
L 1313 4159 
L 434 4159 
L 434 4863 
L 2375 4863 
L 2375 -844 
z
" transform="scale(0.015625)"/>
      </defs>
      <use xlink:href="#DejaVuSans-Bold-878d"/>
      <use xlink:href="#DejaVuSans-Bold-8cc7" x="60.009766"/>
      <use xlink:href="#DejaVuSans-Bold-9918" x="120.019531"/>
      <use xlink:href="#DejaVuSans-Bold-984d" x="180.029297"/>
      <use xlink:href="#DejaVuSans-Bold-2f" x="240.039062"/>
      <use xlink:href="#DejaVuSans-Bold-5e02" x="276.5625"/>
      <use xlink:href="#DejaVuSans-Bold-503c" x="336.572266"/>
      <use xlink:href="#DejaVuSans-Bold-20" x="396.582031"/>
      <use xlink:href="#DejaVuSans-Bold-28" x="431.396484"/>
      <use xlink:href="#DejaVuSans-Bold-25" x="477.099609"/>
      <use xlink:href="#DejaVuSans-Bold-29" x="577.294922"/>
      <use xlink:href="#DejaVuSans-Bold-20" x="622.998047"/>
      <use xlink:href="#DejaVuSans-Bold-5b" x="657.8125"/>
      <use xlink:href="#DejaVuSans-Bold-9577" x="703.515625"/>
      <use xlink:href="#DejaVuSans-Bold-671f" x="763.525391"/>
      <use xlink:href="#DejaVuSans-Bold-8da8" x="823.535156"/>
      <use xlink:href="#DejaVuSans-Bold-52e2" x="883.544922"/>
      <use xlink:href="#DejaVuSans-Bold-5d" x="943.554688"/>
     </g>
    </g>
   </g>
   <g id="patch_97">
    <path d="M 48.90125 644.224972 
L 48.90125 96.234469 
" style="fill: none; stroke: #000000; stroke-width: 0.8; stroke-linejoin: miter; stroke-linecap: square"/>
   </g>
   <g id="patch_98">
    <path d="M 1387.70125 644.224972 
L 1387.70125 96.234469 
" style="fill: none; stroke: #000000; stroke-width: 0.8; stroke-linejoin: miter; stroke-linecap: square"/>
   </g>
   <g id="patch_99">
    <path d="M 48.90125 644.224972 
L 1327.70125 644.224972 
" style="fill: none; stroke: #000000; stroke-width: 0.8; stroke-linejoin: miter; stroke-linecap: square"/>
   </g>
   <g id="patch_100">
    <path d="M 48.90125 96.234469 
L 1327.70125 96.234469 
" style="fill: none; stroke: #000000; stroke-width: 0.8; stroke-linejoin: miter; stroke-linecap: square"/>
   </g>
   <g id="text_34">
    <!-- 中華資安 (7765): 融資餘額與股價分析 -->
    <g transform="translate(606.431719 17.077969) scale(0.13 -0.13)">
     <defs>
      <path id="DejaVuSans-Bold-4e2d" d="M 319 -1131 
L 319 4513 
L 3519 4513 
L 3519 -1131 
L 319 -1131 
z
M 678 -775 
L 3163 -775 
L 3163 4153 
L 678 4153 
L 678 -775 
z
" transform="scale(0.015625)"/>
      <path id="DejaVuSans-Bold-83ef" d="M 319 -1131 
L 319 4513 
L 3519 4513 
L 3519 -1131 
L 319 -1131 
z
M 678 -775 
L 3163 -775 
L 3163 4153 
L 678 4153 
L 678 -775 
z
" transform="scale(0.015625)"/>
      <path id="DejaVuSans-Bold-5b89" d="M 319 -1131 
L 319 4513 
L 3519 4513 
L 3519 -1131 
L 319 -1131 
z
M 678 -775 
L 3163 -775 
L 3163 4153 
L 678 4153 
L 678 -775 
z
" transform="scale(0.015625)"/>
      <path id="DejaVuSans-Bold-37" d="M 428 4666 
L 3944 4666 
L 3944 3988 
L 2125 0 
L 953 0 
L 2675 3781 
L 428 3781 
L 428 4666 
z
" transform="scale(0.015625)"/>
      <path id="DejaVuSans-Bold-36" d="M 2316 2303 
Q 2000 2303 1842 2098 
Q 1684 1894 1684 1484 
Q 1684 1075 1842 870 
Q 2000 666 2316 666 
Q 2634 666 2792 870 
Q 2950 1075 2950 1484 
Q 2950 1894 2792 2098 
Q 2634 2303 2316 2303 
z
M 3803 4544 
L 3803 3681 
Q 3506 3822 3243 3889 
Q 2981 3956 2731 3956 
Q 2194 3956 1894 3657 
Q 1594 3359 1544 2772 
Q 1750 2925 1990 3001 
Q 2231 3078 2516 3078 
Q 3231 3078 3670 2659 
Q 4109 2241 4109 1563 
Q 4109 813 3618 361 
Q 3128 -91 2303 -91 
Q 1394 -91 895 523 
Q 397 1138 397 2266 
Q 397 3422 980 4083 
Q 1563 4744 2578 4744 
Q 2900 4744 3203 4694 
Q 3506 4644 3803 4544 
z
" transform="scale(0.015625)"/>
      <path id="DejaVuSans-Bold-35" d="M 678 4666 
L 3669 4666 
L 3669 3781 
L 1638 3781 
L 1638 3059 
Q 1775 3097 1914 3117 
Q 2053 3138 2203 3138 
Q 3056 3138 3531 2711 
Q 4006 2284 4006 1522 
Q 4006 766 3489 337 
Q 2972 -91 2053 -91 
Q 1656 -91 1267 -14 
Q 878 63 494 219 
L 494 1166 
Q 875 947 1217 837 
Q 1559 728 1863 728 
Q 2300 728 2551 942 
Q 2803 1156 2803 1522 
Q 2803 1891 2551 2103 
Q 2300 2316 1863 2316 
Q 1603 2316 1309 2248 
Q 1016 2181 678 2041 
L 678 4666 
z
" transform="scale(0.015625)"/>
      <path id="DejaVuSans-Bold-3a" d="M 716 3500 
L 1844 3500 
L 1844 2291 
L 716 2291 
L 716 3500 
z
M 716 1209 
L 1844 1209 
L 1844 0 
L 716 0 
L 716 1209 
z
" transform="scale(0.015625)"/>
      <path id="DejaVuSans-Bold-8207" d="M 319 -1131 
L 319 4513 
L 3519 4513 
L 3519 -1131 
L 319 -1131 
z
M 678 -775 
L 3163 -775 
L 3163 4153 
L 678 4153 
L 678 -775 
z
" transform="scale(0.015625)"/>
      <path id="DejaVuSans-Bold-80a1" d="M 319 -1131 
L 319 4513 
L 3519 4513 
L 3519 -1131 
L 319 -1131 
z
M 678 -775 
L 3163 -775 
L 3163 4153 
L 678 4153 
L 678 -775 
z
" transform="scale(0.015625)"/>
      <path id="DejaVuSans-Bold-5206" d="M 319 -1131 
L 319 4513 
L 3519 4513 
L 3519 -1131 
L 319 -1131 
z
M 678 -775 
L 3163 -775 
L 3163 4153 
L 678 4153 
L 678 -775 
z
" transform="scale(0.015625)"/>
      <path id="DejaVuSans-Bold-6790" d="M 319 -1131 
L 319 4513 
L 3519 4513 
L 3519 -1131 
L 319 -1131 
z
M 678 -775 
L 3163 -775 
L 3163 4153 
L 678 4153 
L 678 -775 
z
" transform="scale(0.015625)"/>
     </defs>
     <use xlink:href="#DejaVuSans-Bold-4e2d"/>
     <use xlink:href="#DejaVuSans-Bold-83ef" x="60.009766"/>
     <use xlink:href="#DejaVuSans-Bold-8cc7" x="120.019531"/>
     <use xlink:href="#DejaVuSans-Bold-5b89" x="180.029297"/>
     <use xlink:href="#DejaVuSans-Bold-20" x="240.039062"/>
     <use xlink:href="#DejaVuSans-Bold-28" x="274.853516"/>
     <use xlink:href="#DejaVuSans-Bold-37" x="320.556641"/>
     <use xlink:href="#DejaVuSans-Bold-37" x="390.136719"/>
     <use xlink:href="#DejaVuSans-Bold-36" x="459.716797"/>
     <use xlink:href="#DejaVuSans-Bold-35" x="529.296875"/>
     <use xlink:href="#DejaVuSans-Bold-29" x="598.876953"/>
     <use xlink:href="#DejaVuSans-Bold-3a" x="644.580078"/>
     <use xlink:href="#DejaVuSans-Bold-20" x="684.570312"/>
     <use xlink:href="#DejaVuSans-Bold-878d" x="719.384766"/>
     <use xlink:href="#DejaVuSans-Bold-8cc7" x="779.394531"/>
     <use xlink:href="#DejaVuSans-Bold-9918" x="839.404297"/>
     <use xlink:href="#DejaVuSans-Bold-984d" x="899.414062"/>
     <use xlink:href="#DejaVuSans-Bold-8207" x="959.423828"/>
     <use xlink:href="#DejaVuSans-Bold-80a1" x="1019.433594"/>
     <use xlink:href="#DejaVuSans-Bold-50f9" x="1079.443359"/>
     <use xlink:href="#DejaVuSans-Bold-5206" x="1139.453125"/>
     <use xlink:href="#DejaVuSans-Bold-6790" x="1199.462891"/>
    </g>
    <!-- (長期資料: 84 點, 2025-09-08 ~ 2026-01-09 | 日資料: 最近1年) -->
    <g transform="translate(509.138906 31.703375) scale(0.13 -0.13)">
     <defs>
      <path id="DejaVuSans-Bold-6599" d="M 319 -1131 
L 319 4513 
L 3519 4513 
L 3519 -1131 
L 319 -1131 
z
M 678 -775 
L 3163 -775 
L 3163 4153 
L 678 4153 
L 678 -775 
z
" transform="scale(0.015625)"/>
      <path id="DejaVuSans-Bold-38" d="M 2228 2088 
Q 1891 2088 1709 1903 
Q 1528 1719 1528 1375 
Q 1528 1031 1709 848 
Q 1891 666 2228 666 
Q 2563 666 2741 848 
Q 2919 1031 2919 1375 
Q 2919 1722 2741 1905 
Q 2563 2088 2228 2088 
z
M 1350 2484 
Q 925 2613 709 2878 
Q 494 3144 494 3541 
Q 494 4131 934 4440 
Q 1375 4750 2228 4750 
Q 3075 4750 3515 4442 
Q 3956 4134 3956 3541 
Q 3956 3144 3739 2878 
Q 3522 2613 3097 2484 
Q 3572 2353 3814 2058 
Q 4056 1763 4056 1313 
Q 4056 619 3595 264 
Q 3134 -91 2228 -91 
Q 1319 -91 855 264 
Q 391 619 391 1313 
Q 391 1763 633 2058 
Q 875 2353 1350 2484 
z
M 1631 3419 
Q 1631 3141 1786 2991 
Q 1941 2841 2228 2841 
Q 2509 2841 2662 2991 
Q 2816 3141 2816 3419 
Q 2816 3697 2662 3845 
Q 2509 3994 2228 3994 
Q 1941 3994 1786 3844 
Q 1631 3694 1631 3419 
z
" transform="scale(0.015625)"/>
      <path id="DejaVuSans-Bold-34" d="M 2356 3675 
L 1038 1722 
L 2356 1722 
L 2356 3675 
z
M 2156 4666 
L 3494 4666 
L 3494 1722 
L 4159 1722 
L 4159 850 
L 3494 850 
L 3494 0 
L 2356 0 
L 2356 850 
L 288 850 
L 288 1881 
L 2156 4666 
z
" transform="scale(0.015625)"/>
      <path id="DejaVuSans-Bold-9ede" d="M 319 -1131 
L 319 4513 
L 3519 4513 
L 3519 -1131 
L 319 -1131 
z
M 678 -775 
L 3163 -775 
L 3163 4153 
L 678 4153 
L 678 -775 
z
" transform="scale(0.015625)"/>
      <path id="DejaVuSans-Bold-2c" d="M 653 1209 
L 1778 1209 
L 1778 256 
L 1006 -909 
L 341 -909 
L 653 256 
L 653 1209 
z
" transform="scale(0.015625)"/>
      <path id="DejaVuSans-Bold-32" d="M 1844 884 
L 3897 884 
L 3897 0 
L 506 0 
L 506 884 
L 2209 2388 
Q 2438 2594 2547 2791 
Q 2656 2988 2656 3200 
Q 2656 3528 2436 3728 
Q 2216 3928 1850 3928 
Q 1569 3928 1234 3808 
Q 900 3688 519 3450 
L 519 4475 
Q 925 4609 1322 4679 
Q 1719 4750 2100 4750 
Q 2938 4750 3402 4381 
Q 3866 4013 3866 3353 
Q 3866 2972 3669 2642 
Q 3472 2313 2841 1759 
L 1844 884 
z
" transform="scale(0.015625)"/>
      <path id="DejaVuSans-Bold-30" d="M 2944 2338 
Q 2944 3213 2780 3570 
Q 2616 3928 2228 3928 
Q 1841 3928 1675 3570 
Q 1509 3213 1509 2338 
Q 1509 1453 1675 1090 
Q 1841 728 2228 728 
Q 2613 728 2778 1090 
Q 2944 1453 2944 2338 
z
M 4147 2328 
Q 4147 1169 3647 539 
Q 3147 -91 2228 -91 
Q 1306 -91 806 539 
Q 306 1169 306 2328 
Q 306 3491 806 4120 
Q 1306 4750 2228 4750 
Q 3147 4750 3647 4120 
Q 4147 3491 4147 2328 
z
" transform="scale(0.015625)"/>
      <path id="DejaVuSans-Bold-2d" d="M 347 2297 
L 2309 2297 
L 2309 1388 
L 347 1388 
L 347 2297 
z
" transform="scale(0.015625)"/>
      <path id="DejaVuSans-Bold-39" d="M 641 103 
L 641 966 
Q 928 831 1190 764 
Q 1453 697 1709 697 
Q 2247 697 2547 995 
Q 2847 1294 2900 1881 
Q 2688 1725 2447 1647 
Q 2206 1569 1925 1569 
Q 1209 1569 770 1986 
Q 331 2403 331 3084 
Q 331 3838 820 4291 
Q 1309 4744 2131 4744 
Q 3044 4744 3544 4128 
Q 4044 3513 4044 2388 
Q 4044 1231 3459 570 
Q 2875 -91 1856 -91 
Q 1528 -91 1228 -42 
Q 928 6 641 103 
z
M 2125 2350 
Q 2441 2350 2600 2554 
Q 2759 2759 2759 3169 
Q 2759 3575 2600 3781 
Q 2441 3988 2125 3988 
Q 1809 3988 1650 3781 
Q 1491 3575 1491 3169 
Q 1491 2759 1650 2554 
Q 1809 2350 2125 2350 
z
" transform="scale(0.015625)"/>
      <path id="DejaVuSans-Bold-7e" d="M 4684 2656 
L 4684 1894 
Q 4353 1644 4073 1536 
Q 3794 1428 3494 1428 
Q 3159 1428 2713 1609 
Q 2669 1628 2644 1638 
Q 2622 1647 2575 1666 
Q 2091 1856 1797 1856 
Q 1522 1856 1253 1736 
Q 984 1616 678 1356 
L 678 2119 
Q 1013 2369 1291 2476 
Q 1569 2584 1869 2584 
Q 2203 2584 2650 2403 
Q 2697 2384 2719 2375 
Q 2741 2366 2788 2347 
Q 3272 2156 3566 2156 
Q 3834 2156 4098 2273 
Q 4363 2391 4684 2656 
z
" transform="scale(0.015625)"/>
      <path id="DejaVuSans-Bold-31" d="M 750 831 
L 1813 831 
L 1813 3847 
L 722 3622 
L 722 4441 
L 1806 4666 
L 2950 4666 
L 2950 831 
L 4013 831 
L 4013 0 
L 750 0 
L 750 831 
z
" transform="scale(0.015625)"/>
      <path id="DejaVuSans-Bold-7c" d="M 1522 4891 
L 1522 -1509 
L 813 -1509 
L 813 4891 
L 1522 4891 
z
" transform="scale(0.015625)"/>
      <path id="DejaVuSans-Bold-6700" d="M 319 -1131 
L 319 4513 
L 3519 4513 
L 3519 -1131 
L 319 -1131 
z
M 678 -775 
L 3163 -775 
L 3163 4153 
L 678 4153 
L 678 -775 
z
" transform="scale(0.015625)"/>
      <path id="DejaVuSans-Bold-8fd1" d="M 319 -1131 
L 319 4513 
L 3519 4513 
L 3519 -1131 
L 319 -1131 
z
M 678 -775 
L 3163 -775 
L 3163 4153 
L 678 4153 
L 678 -775 
z
" transform="scale(0.015625)"/>
      <path id="DejaVuSans-Bold-5e74" d="M 319 -1131 
L 319 4513 
L 3519 4513 
L 3519 -1131 
L 319 -1131 
z
M 678 -775 
L 3163 -775 
L 3163 4153 
L 678 4153 
L 678 -775 
z
" transform="scale(0.015625)"/>
     </defs>
     <use xlink:href="#DejaVuSans-Bold-28"/>
     <use xlink:href="#DejaVuSans-Bold-9577" x="45.703125"/>
     <use xlink:href="#DejaVuSans-Bold-671f" x="105.712891"/>
     <use xlink:href="#DejaVuSans-Bold-8cc7" x="165.722656"/>
     <use xlink:href="#DejaVuSans-Bold-6599" x="225.732422"/>
     <use xlink:href="#DejaVuSans-Bold-3a" x="285.742188"/>
     <use xlink:href="#DejaVuSans-Bold-20" x="325.732422"/>
     <use xlink:href="#DejaVuSans-Bold-38" x="360.546875"/>
     <use xlink:href="#DejaVuSans-Bold-34" x="430.126953"/>
     <use xlink:href="#DejaVuSans-Bold-20" x="499.707031"/>
     <use xlink:href="#DejaVuSans-Bold-9ede" x="534.521484"/>
     <use xlink:href="#DejaVuSans-Bold-2c" x="594.53125"/>
     <use xlink:href="#DejaVuSans-Bold-20" x="632.519531"/>
     <use xlink:href="#DejaVuSans-Bold-32" x="667.333984"/>
     <use xlink:href="#DejaVuSans-Bold-30" x="736.914062"/>
     <use xlink:href="#DejaVuSans-Bold-32" x="806.494141"/>
     <use xlink:href="#DejaVuSans-Bold-35" x="876.074219"/>
     <use xlink:href="#DejaVuSans-Bold-2d" x="945.654297"/>
     <use xlink:href="#DejaVuSans-Bold-30" x="987.158203"/>
     <use xlink:href="#DejaVuSans-Bold-39" x="1056.738281"/>
     <use xlink:href="#DejaVuSans-Bold-2d" x="1126.318359"/>
     <use xlink:href="#DejaVuSans-Bold-30" x="1167.822266"/>
     <use xlink:href="#DejaVuSans-Bold-38" x="1237.402344"/>
     <use xlink:href="#DejaVuSans-Bold-20" x="1306.982422"/>
     <use xlink:href="#DejaVuSans-Bold-7e" x="1341.796875"/>
     <use xlink:href="#DejaVuSans-Bold-20" x="1425.585938"/>
     <use xlink:href="#DejaVuSans-Bold-32" x="1460.400391"/>
     <use xlink:href="#DejaVuSans-Bold-30" x="1529.980469"/>
     <use xlink:href="#DejaVuSans-Bold-32" x="1599.560547"/>
     <use xlink:href="#DejaVuSans-Bold-36" x="1669.140625"/>
     <use xlink:href="#DejaVuSans-Bold-2d" x="1738.720703"/>
     <use xlink:href="#DejaVuSans-Bold-30" x="1780.224609"/>
     <use xlink:href="#DejaVuSans-Bold-31" x="1849.804688"/>
     <use xlink:href="#DejaVuSans-Bold-2d" x="1919.384766"/>
     <use xlink:href="#DejaVuSans-Bold-30" x="1960.888672"/>
     <use xlink:href="#DejaVuSans-Bold-39" x="2030.46875"/>
     <use xlink:href="#DejaVuSans-Bold-20" x="2100.048828"/>
     <use xlink:href="#DejaVuSans-Bold-7c" x="2134.863281"/>
     <use xlink:href="#DejaVuSans-Bold-20" x="2171.386719"/>
     <use xlink:href="#DejaVuSans-Bold-65e5" x="2206.201172"/>
     <use xlink:href="#DejaVuSans-Bold-8cc7" x="2266.210938"/>
     <use xlink:href="#DejaVuSans-Bold-6599" x="2326.220703"/>
     <use xlink:href="#DejaVuSans-Bold-3a" x="2386.230469"/>
     <use xlink:href="#DejaVuSans-Bold-20" x="2426.220703"/>
     <use xlink:href="#DejaVuSans-Bold-6700" x="2461.035156"/>
     <use xlink:href="#DejaVuSans-Bold-8fd1" x="2521.044922"/>
     <use xlink:href="#DejaVuSans-Bold-31" x="2581.054688"/>
     <use xlink:href="#DejaVuSans-Bold-5e74" x="2650.634766"/>
     <use xlink:href="#DejaVuSans-Bold-29" x="2710.644531"/>
    </g>
    <!--  -->
    <g transform="translate(688.30125 46.622094) scale(0.13 -0.13)"/>
    <!-- 最新融資餘額: 0.4 億元 | 最新收盤價: 280.50 元 | 歷史區間: 0.1~6.9 億元 | 平均: 1.4 億元 -->
    <g transform="translate(468.892734 61.2475) scale(0.13 -0.13)">
     <defs>
      <path id="DejaVuSans-Bold-65b0" d="M 319 -1131 
L 319 4513 
L 3519 4513 
L 3519 -1131 
L 319 -1131 
z
M 678 -775 
L 3163 -775 
L 3163 4153 
L 678 4153 
L 678 -775 
z
" transform="scale(0.015625)"/>
      <path id="DejaVuSans-Bold-2e" d="M 653 1209 
L 1778 1209 
L 1778 0 
L 653 0 
L 653 1209 
z
" transform="scale(0.015625)"/>
      <path id="DejaVuSans-Bold-6b77" d="M 319 -1131 
L 319 4513 
L 3519 4513 
L 3519 -1131 
L 319 -1131 
z
M 678 -775 
L 3163 -775 
L 3163 4153 
L 678 4153 
L 678 -775 
z
" transform="scale(0.015625)"/>
      <path id="DejaVuSans-Bold-53f2" d="M 319 -1131 
L 319 4513 
L 3519 4513 
L 3519 -1131 
L 319 -1131 
z
M 678 -775 
L 3163 -775 
L 3163 4153 
L 678 4153 
L 678 -775 
z
" transform="scale(0.015625)"/>
      <path id="DejaVuSans-Bold-5340" d="M 319 -1131 
L 319 4513 
L 3519 4513 
L 3519 -1131 
L 319 -1131 
z
M 678 -775 
L 3163 -775 
L 3163 4153 
L 678 4153 
L 678 -775 
z
" transform="scale(0.015625)"/>
      <path id="DejaVuSans-Bold-9593" d="M 319 -1131 
L 319 4513 
L 3519 4513 
L 3519 -1131 
L 319 -1131 
z
M 678 -775 
L 3163 -775 
L 3163 4153 
L 678 4153 
L 678 -775 
z
" transform="scale(0.015625)"/>
      <path id="DejaVuSans-Bold-5e73" d="M 319 -1131 
L 319 4513 
L 3519 4513 
L 3519 -1131 
L 319 -1131 
z
M 678 -775 
L 3163 -775 
L 3163 4153 
L 678 4153 
L 678 -775 
z
" transform="scale(0.015625)"/>
      <path id="DejaVuSans-Bold-5747" d="M 319 -1131 
L 319 4513 
L 3519 4513 
L 3519 -1131 
L 319 -1131 
z
M 678 -775 
L 3163 -775 
L 3163 4153 
L 678 4153 
L 678 -775 
z
" transform="scale(0.015625)"/>
     </defs>
     <use xlink:href="#DejaVuSans-Bold-6700"/>
     <use xlink:href="#DejaVuSans-Bold-65b0" x="60.009766"/>
     <use xlink:href="#DejaVuSans-Bold-878d" x="120.019531"/>
     <use xlink:href="#DejaVuSans-Bold-8cc7" x="180.029297"/>
     <use xlink:href="#DejaVuSans-Bold-9918" x="240.039062"/>
     <use xlink:href="#DejaVuSans-Bold-984d" x="300.048828"/>
     <use xlink:href="#DejaVuSans-Bold-3a" x="360.058594"/>
     <use xlink:href="#DejaVuSans-Bold-20" x="400.048828"/>
     <use xlink:href="#DejaVuSans-Bold-30" x="434.863281"/>
     <use xlink:href="#DejaVuSans-Bold-2e" x="504.443359"/>
     <use xlink:href="#DejaVuSans-Bold-34" x="542.431641"/>
     <use xlink:href="#DejaVuSans-Bold-20" x="612.011719"/>
     <use xlink:href="#DejaVuSans-Bold-5104" x="646.826172"/>
     <use xlink:href="#DejaVuSans-Bold-5143" x="706.835938"/>
     <use xlink:href="#DejaVuSans-Bold-20" x="766.845703"/>
     <use xlink:href="#DejaVuSans-Bold-7c" x="801.660156"/>
     <use xlink:href="#DejaVuSans-Bold-20" x="838.183594"/>
     <use xlink:href="#DejaVuSans-Bold-6700" x="872.998047"/>
     <use xlink:href="#DejaVuSans-Bold-65b0" x="933.007812"/>
     <use xlink:href="#DejaVuSans-Bold-6536" x="993.017578"/>
     <use xlink:href="#DejaVuSans-Bold-76e4" x="1053.027344"/>
     <use xlink:href="#DejaVuSans-Bold-50f9" x="1113.037109"/>
     <use xlink:href="#DejaVuSans-Bold-3a" x="1173.046875"/>
     <use xlink:href="#DejaVuSans-Bold-20" x="1213.037109"/>
     <use xlink:href="#DejaVuSans-Bold-32" x="1247.851562"/>
     <use xlink:href="#DejaVuSans-Bold-38" x="1317.431641"/>
     <use xlink:href="#DejaVuSans-Bold-30" x="1387.011719"/>
     <use xlink:href="#DejaVuSans-Bold-2e" x="1456.591797"/>
     <use xlink:href="#DejaVuSans-Bold-35" x="1494.580078"/>
     <use xlink:href="#DejaVuSans-Bold-30" x="1564.160156"/>
     <use xlink:href="#DejaVuSans-Bold-20" x="1633.740234"/>
     <use xlink:href="#DejaVuSans-Bold-5143" x="1668.554688"/>
     <use xlink:href="#DejaVuSans-Bold-20" x="1728.564453"/>
     <use xlink:href="#DejaVuSans-Bold-7c" x="1763.378906"/>
     <use xlink:href="#DejaVuSans-Bold-20" x="1799.902344"/>
     <use xlink:href="#DejaVuSans-Bold-6b77" x="1834.716797"/>
     <use xlink:href="#DejaVuSans-Bold-53f2" x="1894.726562"/>
     <use xlink:href="#DejaVuSans-Bold-5340" x="1954.736328"/>
     <use xlink:href="#DejaVuSans-Bold-9593" x="2014.746094"/>
     <use xlink:href="#DejaVuSans-Bold-3a" x="2074.755859"/>
     <use xlink:href="#DejaVuSans-Bold-20" x="2114.746094"/>
     <use xlink:href="#DejaVuSans-Bold-30" x="2149.560547"/>
     <use xlink:href="#DejaVuSans-Bold-2e" x="2219.140625"/>
     <use xlink:href="#DejaVuSans-Bold-31" x="2257.128906"/>
     <use xlink:href="#DejaVuSans-Bold-7e" x="2326.708984"/>
     <use xlink:href="#DejaVuSans-Bold-36" x="2410.498047"/>
     <use xlink:href="#DejaVuSans-Bold-2e" x="2480.078125"/>
     <use xlink:href="#DejaVuSans-Bold-39" x="2518.066406"/>
     <use xlink:href="#DejaVuSans-Bold-20" x="2587.646484"/>
     <use xlink:href="#DejaVuSans-Bold-5104" x="2622.460938"/>
     <use xlink:href="#DejaVuSans-Bold-5143" x="2682.470703"/>
     <use xlink:href="#DejaVuSans-Bold-20" x="2742.480469"/>
     <use xlink:href="#DejaVuSans-Bold-7c" x="2777.294922"/>
     <use xlink:href="#DejaVuSans-Bold-20" x="2813.818359"/>
     <use xlink:href="#DejaVuSans-Bold-5e73" x="2848.632812"/>
     <use xlink:href="#DejaVuSans-Bold-5747" x="2908.642578"/>
     <use xlink:href="#DejaVuSans-Bold-3a" x="2968.652344"/>
     <use xlink:href="#DejaVuSans-Bold-20" x="3008.642578"/>
     <use xlink:href="#DejaVuSans-Bold-31" x="3043.457031"/>
     <use xlink:href="#DejaVuSans-Bold-2e" x="3113.037109"/>
     <use xlink:href="#DejaVuSans-Bold-34" x="3151.025391"/>
     <use xlink:href="#DejaVuSans-Bold-20" x="3220.605469"/>
     <use xlink:href="#DejaVuSans-Bold-5104" x="3255.419922"/>
     <use xlink:href="#DejaVuSans-Bold-5143" x="3315.429688"/>
    </g>
    <!-- 市值: 113 億元 (當前) | 融資餘額/市值: 0.38% (🟡 正常) *註:比率使用當前市值估算 -->
    <g transform="translate(502.56375 76.234469) scale(0.13 -0.13)">
     <defs>
      <path id="DejaVuSans-Bold-33" d="M 2981 2516 
Q 3453 2394 3698 2092 
Q 3944 1791 3944 1325 
Q 3944 631 3412 270 
Q 2881 -91 1863 -91 
Q 1503 -91 1142 -33 
Q 781 25 428 141 
L 428 1069 
Q 766 900 1098 814 
Q 1431 728 1753 728 
Q 2231 728 2486 893 
Q 2741 1059 2741 1369 
Q 2741 1688 2480 1852 
Q 2219 2016 1709 2016 
L 1228 2016 
L 1228 2791 
L 1734 2791 
Q 2188 2791 2409 2933 
Q 2631 3075 2631 3366 
Q 2631 3634 2415 3781 
Q 2200 3928 1806 3928 
Q 1516 3928 1219 3862 
Q 922 3797 628 3669 
L 628 4550 
Q 984 4650 1334 4700 
Q 1684 4750 2022 4750 
Q 2931 4750 3382 4451 
Q 3834 4153 3834 3553 
Q 3834 3144 3618 2883 
Q 3403 2622 2981 2516 
z
" transform="scale(0.015625)"/>
      <path id="DejaVuSans-Bold-7576" d="M 319 -1131 
L 319 4513 
L 3519 4513 
L 3519 -1131 
L 319 -1131 
z
M 678 -775 
L 3163 -775 
L 3163 4153 
L 678 4153 
L 678 -775 
z
" transform="scale(0.015625)"/>
      <path id="DejaVuSans-Bold-524d" d="M 319 -1131 
L 319 4513 
L 3519 4513 
L 3519 -1131 
L 319 -1131 
z
M 678 -775 
L 3163 -775 
L 3163 4153 
L 678 4153 
L 678 -775 
z
" transform="scale(0.015625)"/>
      <path id="DejaVuSans-Bold-1f7e1" d="M 319 -1131 
L 319 4513 
L 3519 4513 
L 3519 -1131 
L 319 -1131 
z
M 678 -775 
L 3163 -775 
L 3163 4153 
L 678 4153 
L 678 -775 
z
" transform="scale(0.015625)"/>
      <path id="DejaVuSans-Bold-6b63" d="M 319 -1131 
L 319 4513 
L 3519 4513 
L 3519 -1131 
L 319 -1131 
z
M 678 -775 
L 3163 -775 
L 3163 4153 
L 678 4153 
L 678 -775 
z
" transform="scale(0.015625)"/>
      <path id="DejaVuSans-Bold-5e38" d="M 319 -1131 
L 319 4513 
L 3519 4513 
L 3519 -1131 
L 319 -1131 
z
M 678 -775 
L 3163 -775 
L 3163 4153 
L 678 4153 
L 678 -775 
z
" transform="scale(0.015625)"/>
      <path id="DejaVuSans-Bold-2a" d="M 3219 3803 
L 2188 3263 
L 3219 2719 
L 2981 2278 
L 1941 2853 
L 1941 1778 
L 1409 1778 
L 1409 2853 
L 366 2278 
L 128 2719 
L 1172 3263 
L 128 3803 
L 366 4244 
L 1409 3675 
L 1409 4750 
L 1941 4750 
L 1941 3675 
L 2981 4244 
L 3219 3803 
z
" transform="scale(0.015625)"/>
      <path id="DejaVuSans-Bold-8a3b" d="M 319 -1131 
L 319 4513 
L 3519 4513 
L 3519 -1131 
L 319 -1131 
z
M 678 -775 
L 3163 -775 
L 3163 4153 
L 678 4153 
L 678 -775 
z
" transform="scale(0.015625)"/>
      <path id="DejaVuSans-Bold-6bd4" d="M 319 -1131 
L 319 4513 
L 3519 4513 
L 3519 -1131 
L 319 -1131 
z
M 678 -775 
L 3163 -775 
L 3163 4153 
L 678 4153 
L 678 -775 
z
" transform="scale(0.015625)"/>
      <path id="DejaVuSans-Bold-7387" d="M 319 -1131 
L 319 4513 
L 3519 4513 
L 3519 -1131 
L 319 -1131 
z
M 678 -775 
L 3163 -775 
L 3163 4153 
L 678 4153 
L 678 -775 
z
" transform="scale(0.015625)"/>
      <path id="DejaVuSans-Bold-4f7f" d="M 319 -1131 
L 319 4513 
L 3519 4513 
L 3519 -1131 
L 319 -1131 
z
M 678 -775 
L 3163 -775 
L 3163 4153 
L 678 4153 
L 678 -775 
z
" transform="scale(0.015625)"/>
      <path id="DejaVuSans-Bold-7528" d="M 319 -1131 
L 319 4513 
L 3519 4513 
L 3519 -1131 
L 319 -1131 
z
M 678 -775 
L 3163 -775 
L 3163 4153 
L 678 4153 
L 678 -775 
z
" transform="scale(0.015625)"/>
      <path id="DejaVuSans-Bold-4f30" d="M 319 -1131 
L 319 4513 
L 3519 4513 
L 3519 -1131 
L 319 -1131 
z
M 678 -775 
L 3163 -775 
L 3163 4153 
L 678 4153 
L 678 -775 
z
" transform="scale(0.015625)"/>
      <path id="DejaVuSans-Bold-7b97" d="M 319 -1131 
L 319 4513 
L 3519 4513 
L 3519 -1131 
L 319 -1131 
z
M 678 -775 
L 3163 -775 
L 3163 4153 
L 678 4153 
L 678 -775 
z
" transform="scale(0.015625)"/>
     </defs>
     <use xlink:href="#DejaVuSans-Bold-5e02"/>
     <use xlink:href="#DejaVuSans-Bold-503c" x="60.009766"/>
     <use xlink:href="#DejaVuSans-Bold-3a" x="120.019531"/>
     <use xlink:href="#DejaVuSans-Bold-20" x="160.009766"/>
     <use xlink:href="#DejaVuSans-Bold-31" x="194.824219"/>
     <use xlink:href="#DejaVuSans-Bold-31" x="264.404297"/>
     <use xlink:href="#DejaVuSans-Bold-33" x="333.984375"/>
     <use xlink:href="#DejaVuSans-Bold-20" x="403.564453"/>
     <use xlink:href="#DejaVuSans-Bold-5104" x="438.378906"/>
     <use xlink:href="#DejaVuSans-Bold-5143" x="498.388672"/>
     <use xlink:href="#DejaVuSans-Bold-20" x="558.398438"/>
     <use xlink:href="#DejaVuSans-Bold-28" x="593.212891"/>
     <use xlink:href="#DejaVuSans-Bold-7576" x="638.916016"/>
     <use xlink:href="#DejaVuSans-Bold-524d" x="698.925781"/>
     <use xlink:href="#DejaVuSans-Bold-29" x="758.935547"/>
     <use xlink:href="#DejaVuSans-Bold-20" x="804.638672"/>
     <use xlink:href="#DejaVuSans-Bold-7c" x="839.453125"/>
     <use xlink:href="#DejaVuSans-Bold-20" x="875.976562"/>
     <use xlink:href="#DejaVuSans-Bold-878d" x="910.791016"/>
     <use xlink:href="#DejaVuSans-Bold-8cc7" x="970.800781"/>
     <use xlink:href="#DejaVuSans-Bold-9918" x="1030.810547"/>
     <use xlink:href="#DejaVuSans-Bold-984d" x="1090.820312"/>
     <use xlink:href="#DejaVuSans-Bold-2f" x="1150.830078"/>
     <use xlink:href="#DejaVuSans-Bold-5e02" x="1187.353516"/>
     <use xlink:href="#DejaVuSans-Bold-503c" x="1247.363281"/>
     <use xlink:href="#DejaVuSans-Bold-3a" x="1307.373047"/>
     <use xlink:href="#DejaVuSans-Bold-20" x="1347.363281"/>
     <use xlink:href="#DejaVuSans-Bold-30" x="1382.177734"/>
     <use xlink:href="#DejaVuSans-Bold-2e" x="1451.757812"/>
     <use xlink:href="#DejaVuSans-Bold-33" x="1489.746094"/>
     <use xlink:href="#DejaVuSans-Bold-38" x="1559.326172"/>
     <use xlink:href="#DejaVuSans-Bold-25" x="1628.90625"/>
     <use xlink:href="#DejaVuSans-Bold-20" x="1729.101562"/>
     <use xlink:href="#DejaVuSans-Bold-28" x="1763.916016"/>
     <use xlink:href="#DejaVuSans-Bold-1f7e1" x="1809.619141"/>
     <use xlink:href="#DejaVuSans-Bold-20" x="1869.628906"/>
     <use xlink:href="#DejaVuSans-Bold-6b63" x="1904.443359"/>
     <use xlink:href="#DejaVuSans-Bold-5e38" x="1964.453125"/>
     <use xlink:href="#DejaVuSans-Bold-29" x="2024.462891"/>
     <use xlink:href="#DejaVuSans-Bold-20" x="2070.166016"/>
     <use xlink:href="#DejaVuSans-Bold-2a" x="2104.980469"/>
     <use xlink:href="#DejaVuSans-Bold-8a3b" x="2157.275391"/>
     <use xlink:href="#DejaVuSans-Bold-3a" x="2217.285156"/>
     <use xlink:href="#DejaVuSans-Bold-6bd4" x="2257.275391"/>
     <use xlink:href="#DejaVuSans-Bold-7387" x="2317.285156"/>
     <use xlink:href="#DejaVuSans-Bold-4f7f" x="2377.294922"/>
     <use xlink:href="#DejaVuSans-Bold-7528" x="2437.304688"/>
     <use xlink:href="#DejaVuSans-Bold-7576" x="2497.314453"/>
     <use xlink:href="#DejaVuSans-Bold-524d" x="2557.324219"/>
     <use xlink:href="#DejaVuSans-Bold-5e02" x="2617.333984"/>
     <use xlink:href="#DejaVuSans-Bold-503c" x="2677.34375"/>
     <use xlink:href="#DejaVuSans-Bold-4f30" x="2737.353516"/>
     <use xlink:href="#DejaVuSans-Bold-7b97" x="2797.363281"/>
    </g>
   </g>
   <g id="line2d_38">
    <path d="M 114.031809 432.818164 
L 123.369523 508.621229 
L 132.707238 533.15439 
L 142.044952 550.776015 
L 151.382667 577.383754 
L 179.39581 560.220664 
L 188.733525 589.797698 
L 198.071239 534.356924 
L 207.408954 607.0114 
L 216.746668 609.013973 
L 244.759812 612.087045 
L 254.097526 620.750973 
L 263.435241 625.744235 
L 272.772955 625.714379 
L 282.110669 593.985812 
L 319.461527 621.600825 
L 328.799242 609.878035 
L 338.136956 609.855524 
L 347.474671 570.942566 
L 384.825529 589.590464 
L 394.163243 593.235425 
L 403.500958 603.437486 
L 440.851816 604.735494 
L 450.18953 621.972027 
L 459.527245 618.894485 
L 468.864959 628.602887 
L 478.202674 615.67932 
L 506.215817 624.135056 
L 515.553532 616.812563 
L 524.891246 596.990869 
L 534.228961 631.401988 
L 571.579819 530.721382 
L 580.917533 594.938962 
L 590.255248 630.081468 
L 599.592962 565.321375 
L 608.930677 593.821365 
L 636.94382 621.181727 
L 646.281535 627.535742 
L 655.619249 601.106179 
L 664.956964 518.024527 
L 674.294678 608.908919 
L 702.307822 580.61297 
L 711.645536 603.795596 
L 720.983251 636.543731 
L 730.320965 631.667976 
L 739.65868 629.860343 
L 767.671823 619.377287 
L 777.009538 527.436127 
L 786.347252 631.778458 
L 795.684967 632.521341 
L 805.022681 625.43019 
L 833.035825 635.887063 
L 842.373539 634.827581 
L 851.711254 634.709595 
L 861.048968 615.123555 
L 870.386683 567.608935 
L 898.399826 632.108948 
L 907.737541 634.566543 
L 917.075255 627.257461 
L 926.41297 634.305504 
L 935.750684 637.873032 
L 963.763828 635.159028 
L 973.101542 635.507719 
L 982.439257 633.483112 
L 991.776971 634.795011 
L 1001.114686 507.719328 
L 1029.127829 594.8189 
L 1038.465544 610.241095 
L 1047.803258 633.4424 
L 1057.140973 634.811616 
L 1066.478687 640.504014 
L 1094.491831 640.936684 
L 1103.829545 636.090785 
L 1113.167259 630.288383 
L 1131.842688 627.776505 
L 1159.855832 632.760347 
L 1169.193546 617.547941 
L 1178.531261 578.813959 
L 1197.20669 599.560703 
L 1225.219833 501.01295 
L 1234.557548 522.55223 
L 1243.895262 423.055798 
L 1253.232977 623.475993 
L 1262.570691 630.342027 
" clip-path="url(#pf81fc15213)" style="fill: none; stroke: #ff0000; stroke-width: 2.5; stroke-linecap: square"/>
   </g>
  </g>
 </g>
 <defs>
  <clipPath id="pf81fc15213">
   <rect x="48.90125" y="96.234469" width="1278.8" height="547.990503"/>
  </clipPath>
 </defs>
</svg>
