<?xml version="1.0" encoding="utf-8" standalone="no"?>
<!DOCTYPE svg PUBLIC "-//W3C//DTD SVG 1.1//EN"
  "http://www.w3.org/Graphics/SVG/1.1/DTD/svg11.dtd">
<svg xmlns:xlink="http://www.w3.org/1999/xlink" width="1430.178125pt" height="709.792527pt" viewBox="0 0 1430.178125 709.792527" xmlns="http://www.w3.org/2000/svg" version="1.1">
 <metadata>
  <rdf:RDF xmlns:dc="http://purl.org/dc/elements/1.1/" xmlns:cc="http://creativecommons.org/ns#" xmlns:rdf="http://www.w3.org/1999/02/22-rdf-syntax-ns#">
   <cc:Work>
    <dc:type rdf:resource="http://purl.org/dc/dcmitype/StillImage"/>
    <dc:date>2026-01-11T12:09:06.370385</dc:date>
    <dc:format>image/svg+xml</dc:format>
    <dc:creator>
     <cc:Agent>
      <dc:title>Matplotlib v3.9.4, https://matplotlib.org/</dc:title>
     </cc:Agent>
    </dc:creator>
   </cc:Work>
  </rdf:RDF>
 </metadata>
 <defs>
  <style type="text/css">*{stroke-linejoin: round; stroke-linecap: butt}</style>
 </defs>
 <g id="figure_1">
  <g id="patch_1">
   <path d="M 0 709.792527 
L 1430.178125 709.792527 
L 1430.178125 0 
L 0 0 
z
" style="fill: #ffffff"/>
  </g>
  <g id="axes_1">
   <g id="patch_2">
    <path d="M 48.90125 652.757376 
L 1384.46125 652.757376 
L 1384.46125 80.817687 
L 48.90125 80.817687 
z
" style="fill: #ffffff"/>
   </g>
   <g id="matplotlib.axis_1">
    <g id="xtick_1">
     <g id="line2d_1">
      <defs>
       <path id="m00ef636cf8" d="M 0 0 
L 0 3.5 
" style="stroke: #000000; stroke-width: 0.8"/>
      </defs>
      <g>
       <use xlink:href="#m00ef636cf8" x="81.975056" y="652.757376" style="stroke: #000000; stroke-width: 0.8"/>
      </g>
     </g>
     <g id="text_1">
      <!-- 07/14 -->
      <g transform="translate(60.126561 685.508216) rotate(-45) scale(0.1 -0.1)">
       <defs>
        <path id="DejaVuSans-30" d="M 2034 4250 
Q 1547 4250 1301 3770 
Q 1056 3291 1056 2328 
Q 1056 1369 1301 889 
Q 1547 409 2034 409 
Q 2525 409 2770 889 
Q 3016 1369 3016 2328 
Q 3016 3291 2770 3770 
Q 2525 4250 2034 4250 
z
M 2034 4750 
Q 2819 4750 3233 4129 
Q 3647 3509 3647 2328 
Q 3647 1150 3233 529 
Q 2819 -91 2034 -91 
Q 1250 -91 836 529 
Q 422 1150 422 2328 
Q 422 3509 836 4129 
Q 1250 4750 2034 4750 
z
" transform="scale(0.015625)"/>
        <path id="DejaVuSans-37" d="M 525 4666 
L 3525 4666 
L 3525 4397 
L 1831 0 
L 1172 0 
L 2766 4134 
L 525 4134 
L 525 4666 
z
" transform="scale(0.015625)"/>
        <path id="DejaVuSans-2f" d="M 1625 4666 
L 2156 4666 
L 531 -594 
L 0 -594 
L 1625 4666 
z
" transform="scale(0.015625)"/>
        <path id="DejaVuSans-31" d="M 794 531 
L 1825 531 
L 1825 4091 
L 703 3866 
L 703 4441 
L 1819 4666 
L 2450 4666 
L 2450 531 
L 3481 531 
L 3481 0 
L 794 0 
L 794 531 
z
" transform="scale(0.015625)"/>
        <path id="DejaVuSans-34" d="M 2419 4116 
L 825 1625 
L 2419 1625 
L 2419 4116 
z
M 2253 4666 
L 3047 4666 
L 3047 1625 
L 3713 1625 
L 3713 1100 
L 3047 1100 
L 3047 0 
L 2419 0 
L 2419 1100 
L 313 1100 
L 313 1709 
L 2253 4666 
z
" transform="scale(0.015625)"/>
       </defs>
       <use xlink:href="#DejaVuSans-30"/>
       <use xlink:href="#DejaVuSans-37" x="63.623047"/>
       <use xlink:href="#DejaVuSans-2f" x="127.246094"/>
       <use xlink:href="#DejaVuSans-31" x="160.9375"/>
       <use xlink:href="#DejaVuSans-34" x="224.560547"/>
      </g>
     </g>
    </g>
    <g id="xtick_2">
     <g id="line2d_2">
      <g>
       <use xlink:href="#m00ef636cf8" x="130.333623" y="652.757376" style="stroke: #000000; stroke-width: 0.8"/>
      </g>
     </g>
     <g id="text_2">
      <!-- 07/21 -->
      <g transform="translate(108.485128 685.508216) rotate(-45) scale(0.1 -0.1)">
       <defs>
        <path id="DejaVuSans-32" d="M 1228 531 
L 3431 531 
L 3431 0 
L 469 0 
L 469 531 
Q 828 903 1448 1529 
Q 2069 2156 2228 2338 
Q 2531 2678 2651 2914 
Q 2772 3150 2772 3378 
Q 2772 3750 2511 3984 
Q 2250 4219 1831 4219 
Q 1534 4219 1204 4116 
Q 875 4013 500 3803 
L 500 4441 
Q 881 4594 1212 4672 
Q 1544 4750 1819 4750 
Q 2544 4750 2975 4387 
Q 3406 4025 3406 3419 
Q 3406 3131 3298 2873 
Q 3191 2616 2906 2266 
Q 2828 2175 2409 1742 
Q 1991 1309 1228 531 
z
" transform="scale(0.015625)"/>
       </defs>
       <use xlink:href="#DejaVuSans-30"/>
       <use xlink:href="#DejaVuSans-37" x="63.623047"/>
       <use xlink:href="#DejaVuSans-2f" x="127.246094"/>
       <use xlink:href="#DejaVuSans-32" x="160.9375"/>
       <use xlink:href="#DejaVuSans-31" x="224.560547"/>
      </g>
     </g>
    </g>
    <g id="xtick_3">
     <g id="line2d_3">
      <g>
       <use xlink:href="#m00ef636cf8" x="178.69219" y="652.757376" style="stroke: #000000; stroke-width: 0.8"/>
      </g>
     </g>
     <g id="text_3">
      <!-- 07/28 -->
      <g transform="translate(156.843695 685.508216) rotate(-45) scale(0.1 -0.1)">
       <defs>
        <path id="DejaVuSans-38" d="M 2034 2216 
Q 1584 2216 1326 1975 
Q 1069 1734 1069 1313 
Q 1069 891 1326 650 
Q 1584 409 2034 409 
Q 2484 409 2743 651 
Q 3003 894 3003 1313 
Q 3003 1734 2745 1975 
Q 2488 2216 2034 2216 
z
M 1403 2484 
Q 997 2584 770 2862 
Q 544 3141 544 3541 
Q 544 4100 942 4425 
Q 1341 4750 2034 4750 
Q 2731 4750 3128 4425 
Q 3525 4100 3525 3541 
Q 3525 3141 3298 2862 
Q 3072 2584 2669 2484 
Q 3125 2378 3379 2068 
Q 3634 1759 3634 1313 
Q 3634 634 3220 271 
Q 2806 -91 2034 -91 
Q 1263 -91 848 271 
Q 434 634 434 1313 
Q 434 1759 690 2068 
Q 947 2378 1403 2484 
z
M 1172 3481 
Q 1172 3119 1398 2916 
Q 1625 2713 2034 2713 
Q 2441 2713 2670 2916 
Q 2900 3119 2900 3481 
Q 2900 3844 2670 4047 
Q 2441 4250 2034 4250 
Q 1625 4250 1398 4047 
Q 1172 3844 1172 3481 
z
" transform="scale(0.015625)"/>
       </defs>
       <use xlink:href="#DejaVuSans-30"/>
       <use xlink:href="#DejaVuSans-37" x="63.623047"/>
       <use xlink:href="#DejaVuSans-2f" x="127.246094"/>
       <use xlink:href="#DejaVuSans-32" x="160.9375"/>
       <use xlink:href="#DejaVuSans-38" x="224.560547"/>
      </g>
     </g>
    </g>
    <g id="xtick_4">
     <g id="line2d_4">
      <g>
       <use xlink:href="#m00ef636cf8" x="227.050757" y="652.757376" style="stroke: #000000; stroke-width: 0.8"/>
      </g>
     </g>
     <g id="text_4">
      <!-- 08/04 -->
      <g transform="translate(205.202263 685.508216) rotate(-45) scale(0.1 -0.1)">
       <use xlink:href="#DejaVuSans-30"/>
       <use xlink:href="#DejaVuSans-38" x="63.623047"/>
       <use xlink:href="#DejaVuSans-2f" x="127.246094"/>
       <use xlink:href="#DejaVuSans-30" x="160.9375"/>
       <use xlink:href="#DejaVuSans-34" x="224.560547"/>
      </g>
     </g>
    </g>
    <g id="xtick_5">
     <g id="line2d_5">
      <g>
       <use xlink:href="#m00ef636cf8" x="275.409324" y="652.757376" style="stroke: #000000; stroke-width: 0.8"/>
      </g>
     </g>
     <g id="text_5">
      <!-- 08/11 -->
      <g transform="translate(253.56083 685.508216) rotate(-45) scale(0.1 -0.1)">
       <use xlink:href="#DejaVuSans-30"/>
       <use xlink:href="#DejaVuSans-38" x="63.623047"/>
       <use xlink:href="#DejaVuSans-2f" x="127.246094"/>
       <use xlink:href="#DejaVuSans-31" x="160.9375"/>
       <use xlink:href="#DejaVuSans-31" x="224.560547"/>
      </g>
     </g>
    </g>
    <g id="xtick_6">
     <g id="line2d_6">
      <g>
       <use xlink:href="#m00ef636cf8" x="323.767892" y="652.757376" style="stroke: #000000; stroke-width: 0.8"/>
      </g>
     </g>
     <g id="text_6">
      <!-- 08/18 -->
      <g transform="translate(301.919397 685.508216) rotate(-45) scale(0.1 -0.1)">
       <use xlink:href="#DejaVuSans-30"/>
       <use xlink:href="#DejaVuSans-38" x="63.623047"/>
       <use xlink:href="#DejaVuSans-2f" x="127.246094"/>
       <use xlink:href="#DejaVuSans-31" x="160.9375"/>
       <use xlink:href="#DejaVuSans-38" x="224.560547"/>
      </g>
     </g>
    </g>
    <g id="xtick_7">
     <g id="line2d_7">
      <g>
       <use xlink:href="#m00ef636cf8" x="372.126459" y="652.757376" style="stroke: #000000; stroke-width: 0.8"/>
      </g>
     </g>
     <g id="text_7">
      <!-- 08/25 -->
      <g transform="translate(350.277964 685.508216) rotate(-45) scale(0.1 -0.1)">
       <defs>
        <path id="DejaVuSans-35" d="M 691 4666 
L 3169 4666 
L 3169 4134 
L 1269 4134 
L 1269 2991 
Q 1406 3038 1543 3061 
Q 1681 3084 1819 3084 
Q 2600 3084 3056 2656 
Q 3513 2228 3513 1497 
Q 3513 744 3044 326 
Q 2575 -91 1722 -91 
Q 1428 -91 1123 -41 
Q 819 9 494 109 
L 494 744 
Q 775 591 1075 516 
Q 1375 441 1709 441 
Q 2250 441 2565 725 
Q 2881 1009 2881 1497 
Q 2881 1984 2565 2268 
Q 2250 2553 1709 2553 
Q 1456 2553 1204 2497 
Q 953 2441 691 2322 
L 691 4666 
z
" transform="scale(0.015625)"/>
       </defs>
       <use xlink:href="#DejaVuSans-30"/>
       <use xlink:href="#DejaVuSans-38" x="63.623047"/>
       <use xlink:href="#DejaVuSans-2f" x="127.246094"/>
       <use xlink:href="#DejaVuSans-32" x="160.9375"/>
       <use xlink:href="#DejaVuSans-35" x="224.560547"/>
      </g>
     </g>
    </g>
    <g id="xtick_8">
     <g id="line2d_8">
      <g>
       <use xlink:href="#m00ef636cf8" x="420.485026" y="652.757376" style="stroke: #000000; stroke-width: 0.8"/>
      </g>
     </g>
     <g id="text_8">
      <!-- 09/01 -->
      <g transform="translate(398.636531 685.508216) rotate(-45) scale(0.1 -0.1)">
       <defs>
        <path id="DejaVuSans-39" d="M 703 97 
L 703 672 
Q 941 559 1184 500 
Q 1428 441 1663 441 
Q 2288 441 2617 861 
Q 2947 1281 2994 2138 
Q 2813 1869 2534 1725 
Q 2256 1581 1919 1581 
Q 1219 1581 811 2004 
Q 403 2428 403 3163 
Q 403 3881 828 4315 
Q 1253 4750 1959 4750 
Q 2769 4750 3195 4129 
Q 3622 3509 3622 2328 
Q 3622 1225 3098 567 
Q 2575 -91 1691 -91 
Q 1453 -91 1209 -44 
Q 966 3 703 97 
z
M 1959 2075 
Q 2384 2075 2632 2365 
Q 2881 2656 2881 3163 
Q 2881 3666 2632 3958 
Q 2384 4250 1959 4250 
Q 1534 4250 1286 3958 
Q 1038 3666 1038 3163 
Q 1038 2656 1286 2365 
Q 1534 2075 1959 2075 
z
" transform="scale(0.015625)"/>
       </defs>
       <use xlink:href="#DejaVuSans-30"/>
       <use xlink:href="#DejaVuSans-39" x="63.623047"/>
       <use xlink:href="#DejaVuSans-2f" x="127.246094"/>
       <use xlink:href="#DejaVuSans-30" x="160.9375"/>
       <use xlink:href="#DejaVuSans-31" x="224.560547"/>
      </g>
     </g>
    </g>
    <g id="xtick_9">
     <g id="line2d_9">
      <g>
       <use xlink:href="#m00ef636cf8" x="468.843593" y="652.757376" style="stroke: #000000; stroke-width: 0.8"/>
      </g>
     </g>
     <g id="text_9">
      <!-- 09/08 -->
      <g transform="translate(446.995099 685.508216) rotate(-45) scale(0.1 -0.1)">
       <use xlink:href="#DejaVuSans-30"/>
       <use xlink:href="#DejaVuSans-39" x="63.623047"/>
       <use xlink:href="#DejaVuSans-2f" x="127.246094"/>
       <use xlink:href="#DejaVuSans-30" x="160.9375"/>
       <use xlink:href="#DejaVuSans-38" x="224.560547"/>
      </g>
     </g>
    </g>
    <g id="xtick_10">
     <g id="line2d_10">
      <g>
       <use xlink:href="#m00ef636cf8" x="517.20216" y="652.757376" style="stroke: #000000; stroke-width: 0.8"/>
      </g>
     </g>
     <g id="text_10">
      <!-- 09/15 -->
      <g transform="translate(495.353666 685.508216) rotate(-45) scale(0.1 -0.1)">
       <use xlink:href="#DejaVuSans-30"/>
       <use xlink:href="#DejaVuSans-39" x="63.623047"/>
       <use xlink:href="#DejaVuSans-2f" x="127.246094"/>
       <use xlink:href="#DejaVuSans-31" x="160.9375"/>
       <use xlink:href="#DejaVuSans-35" x="224.560547"/>
      </g>
     </g>
    </g>
    <g id="xtick_11">
     <g id="line2d_11">
      <g>
       <use xlink:href="#m00ef636cf8" x="565.560728" y="652.757376" style="stroke: #000000; stroke-width: 0.8"/>
      </g>
     </g>
     <g id="text_11">
      <!-- 09/22 -->
      <g transform="translate(543.712233 685.508216) rotate(-45) scale(0.1 -0.1)">
       <use xlink:href="#DejaVuSans-30"/>
       <use xlink:href="#DejaVuSans-39" x="63.623047"/>
       <use xlink:href="#DejaVuSans-2f" x="127.246094"/>
       <use xlink:href="#DejaVuSans-32" x="160.9375"/>
       <use xlink:href="#DejaVuSans-32" x="224.560547"/>
      </g>
     </g>
    </g>
    <g id="xtick_12">
     <g id="line2d_12">
      <g>
       <use xlink:href="#m00ef636cf8" x="613.919295" y="652.757376" style="stroke: #000000; stroke-width: 0.8"/>
      </g>
     </g>
     <g id="text_12">
      <!-- 09/29 -->
      <g transform="translate(592.0708 685.508216) rotate(-45) scale(0.1 -0.1)">
       <use xlink:href="#DejaVuSans-30"/>
       <use xlink:href="#DejaVuSans-39" x="63.623047"/>
       <use xlink:href="#DejaVuSans-2f" x="127.246094"/>
       <use xlink:href="#DejaVuSans-32" x="160.9375"/>
       <use xlink:href="#DejaVuSans-39" x="224.560547"/>
      </g>
     </g>
    </g>
    <g id="xtick_13">
     <g id="line2d_13">
      <g>
       <use xlink:href="#m00ef636cf8" x="662.277862" y="652.757376" style="stroke: #000000; stroke-width: 0.8"/>
      </g>
     </g>
     <g id="text_13">
      <!-- 10/06 -->
      <g transform="translate(640.429367 685.508216) rotate(-45) scale(0.1 -0.1)">
       <defs>
        <path id="DejaVuSans-36" d="M 2113 2584 
Q 1688 2584 1439 2293 
Q 1191 2003 1191 1497 
Q 1191 994 1439 701 
Q 1688 409 2113 409 
Q 2538 409 2786 701 
Q 3034 994 3034 1497 
Q 3034 2003 2786 2293 
Q 2538 2584 2113 2584 
z
M 3366 4563 
L 3366 3988 
Q 3128 4100 2886 4159 
Q 2644 4219 2406 4219 
Q 1781 4219 1451 3797 
Q 1122 3375 1075 2522 
Q 1259 2794 1537 2939 
Q 1816 3084 2150 3084 
Q 2853 3084 3261 2657 
Q 3669 2231 3669 1497 
Q 3669 778 3244 343 
Q 2819 -91 2113 -91 
Q 1303 -91 875 529 
Q 447 1150 447 2328 
Q 447 3434 972 4092 
Q 1497 4750 2381 4750 
Q 2619 4750 2861 4703 
Q 3103 4656 3366 4563 
z
" transform="scale(0.015625)"/>
       </defs>
       <use xlink:href="#DejaVuSans-31"/>
       <use xlink:href="#DejaVuSans-30" x="63.623047"/>
       <use xlink:href="#DejaVuSans-2f" x="127.246094"/>
       <use xlink:href="#DejaVuSans-30" x="160.9375"/>
       <use xlink:href="#DejaVuSans-36" x="224.560547"/>
      </g>
     </g>
    </g>
    <g id="xtick_14">
     <g id="line2d_14">
      <g>
       <use xlink:href="#m00ef636cf8" x="710.636429" y="652.757376" style="stroke: #000000; stroke-width: 0.8"/>
      </g>
     </g>
     <g id="text_14">
      <!-- 10/13 -->
      <g transform="translate(688.787934 685.508216) rotate(-45) scale(0.1 -0.1)">
       <defs>
        <path id="DejaVuSans-33" d="M 2597 2516 
Q 3050 2419 3304 2112 
Q 3559 1806 3559 1356 
Q 3559 666 3084 287 
Q 2609 -91 1734 -91 
Q 1441 -91 1130 -33 
Q 819 25 488 141 
L 488 750 
Q 750 597 1062 519 
Q 1375 441 1716 441 
Q 2309 441 2620 675 
Q 2931 909 2931 1356 
Q 2931 1769 2642 2001 
Q 2353 2234 1838 2234 
L 1294 2234 
L 1294 2753 
L 1863 2753 
Q 2328 2753 2575 2939 
Q 2822 3125 2822 3475 
Q 2822 3834 2567 4026 
Q 2313 4219 1838 4219 
Q 1578 4219 1281 4162 
Q 984 4106 628 3988 
L 628 4550 
Q 988 4650 1302 4700 
Q 1616 4750 1894 4750 
Q 2613 4750 3031 4423 
Q 3450 4097 3450 3541 
Q 3450 3153 3228 2886 
Q 3006 2619 2597 2516 
z
" transform="scale(0.015625)"/>
       </defs>
       <use xlink:href="#DejaVuSans-31"/>
       <use xlink:href="#DejaVuSans-30" x="63.623047"/>
       <use xlink:href="#DejaVuSans-2f" x="127.246094"/>
       <use xlink:href="#DejaVuSans-31" x="160.9375"/>
       <use xlink:href="#DejaVuSans-33" x="224.560547"/>
      </g>
     </g>
    </g>
    <g id="xtick_15">
     <g id="line2d_15">
      <g>
       <use xlink:href="#m00ef636cf8" x="758.994996" y="652.757376" style="stroke: #000000; stroke-width: 0.8"/>
      </g>
     </g>
     <g id="text_15">
      <!-- 10/20 -->
      <g transform="translate(737.146502 685.508216) rotate(-45) scale(0.1 -0.1)">
       <use xlink:href="#DejaVuSans-31"/>
       <use xlink:href="#DejaVuSans-30" x="63.623047"/>
       <use xlink:href="#DejaVuSans-2f" x="127.246094"/>
       <use xlink:href="#DejaVuSans-32" x="160.9375"/>
       <use xlink:href="#DejaVuSans-30" x="224.560547"/>
      </g>
     </g>
    </g>
    <g id="xtick_16">
     <g id="line2d_16">
      <g>
       <use xlink:href="#m00ef636cf8" x="807.353563" y="652.757376" style="stroke: #000000; stroke-width: 0.8"/>
      </g>
     </g>
     <g id="text_16">
      <!-- 10/27 -->
      <g transform="translate(785.505069 685.508216) rotate(-45) scale(0.1 -0.1)">
       <use xlink:href="#DejaVuSans-31"/>
       <use xlink:href="#DejaVuSans-30" x="63.623047"/>
       <use xlink:href="#DejaVuSans-2f" x="127.246094"/>
       <use xlink:href="#DejaVuSans-32" x="160.9375"/>
       <use xlink:href="#DejaVuSans-37" x="224.560547"/>
      </g>
     </g>
    </g>
    <g id="xtick_17">
     <g id="line2d_17">
      <g>
       <use xlink:href="#m00ef636cf8" x="855.712131" y="652.757376" style="stroke: #000000; stroke-width: 0.8"/>
      </g>
     </g>
     <g id="text_17">
      <!-- 11/03 -->
      <g transform="translate(833.863636 685.508216) rotate(-45) scale(0.1 -0.1)">
       <use xlink:href="#DejaVuSans-31"/>
       <use xlink:href="#DejaVuSans-31" x="63.623047"/>
       <use xlink:href="#DejaVuSans-2f" x="127.246094"/>
       <use xlink:href="#DejaVuSans-30" x="160.9375"/>
       <use xlink:href="#DejaVuSans-33" x="224.560547"/>
      </g>
     </g>
    </g>
    <g id="xtick_18">
     <g id="line2d_18">
      <g>
       <use xlink:href="#m00ef636cf8" x="904.070698" y="652.757376" style="stroke: #000000; stroke-width: 0.8"/>
      </g>
     </g>
     <g id="text_18">
      <!-- 11/10 -->
      <g transform="translate(882.222203 685.508216) rotate(-45) scale(0.1 -0.1)">
       <use xlink:href="#DejaVuSans-31"/>
       <use xlink:href="#DejaVuSans-31" x="63.623047"/>
       <use xlink:href="#DejaVuSans-2f" x="127.246094"/>
       <use xlink:href="#DejaVuSans-31" x="160.9375"/>
       <use xlink:href="#DejaVuSans-30" x="224.560547"/>
      </g>
     </g>
    </g>
    <g id="xtick_19">
     <g id="line2d_19">
      <g>
       <use xlink:href="#m00ef636cf8" x="952.429265" y="652.757376" style="stroke: #000000; stroke-width: 0.8"/>
      </g>
     </g>
     <g id="text_19">
      <!-- 11/17 -->
      <g transform="translate(930.58077 685.508216) rotate(-45) scale(0.1 -0.1)">
       <use xlink:href="#DejaVuSans-31"/>
       <use xlink:href="#DejaVuSans-31" x="63.623047"/>
       <use xlink:href="#DejaVuSans-2f" x="127.246094"/>
       <use xlink:href="#DejaVuSans-31" x="160.9375"/>
       <use xlink:href="#DejaVuSans-37" x="224.560547"/>
      </g>
     </g>
    </g>
    <g id="xtick_20">
     <g id="line2d_20">
      <g>
       <use xlink:href="#m00ef636cf8" x="1000.787832" y="652.757376" style="stroke: #000000; stroke-width: 0.8"/>
      </g>
     </g>
     <g id="text_20">
      <!-- 11/24 -->
      <g transform="translate(978.939337 685.508216) rotate(-45) scale(0.1 -0.1)">
       <use xlink:href="#DejaVuSans-31"/>
       <use xlink:href="#DejaVuSans-31" x="63.623047"/>
       <use xlink:href="#DejaVuSans-2f" x="127.246094"/>
       <use xlink:href="#DejaVuSans-32" x="160.9375"/>
       <use xlink:href="#DejaVuSans-34" x="224.560547"/>
      </g>
     </g>
    </g>
    <g id="xtick_21">
     <g id="line2d_21">
      <g>
       <use xlink:href="#m00ef636cf8" x="1049.146399" y="652.757376" style="stroke: #000000; stroke-width: 0.8"/>
      </g>
     </g>
     <g id="text_21">
      <!-- 12/01 -->
      <g transform="translate(1027.297905 685.508216) rotate(-45) scale(0.1 -0.1)">
       <use xlink:href="#DejaVuSans-31"/>
       <use xlink:href="#DejaVuSans-32" x="63.623047"/>
       <use xlink:href="#DejaVuSans-2f" x="127.246094"/>
       <use xlink:href="#DejaVuSans-30" x="160.9375"/>
       <use xlink:href="#DejaVuSans-31" x="224.560547"/>
      </g>
     </g>
    </g>
    <g id="xtick_22">
     <g id="line2d_22">
      <g>
       <use xlink:href="#m00ef636cf8" x="1097.504967" y="652.757376" style="stroke: #000000; stroke-width: 0.8"/>
      </g>
     </g>
     <g id="text_22">
      <!-- 12/08 -->
      <g transform="translate(1075.656472 685.508216) rotate(-45) scale(0.1 -0.1)">
       <use xlink:href="#DejaVuSans-31"/>
       <use xlink:href="#DejaVuSans-32" x="63.623047"/>
       <use xlink:href="#DejaVuSans-2f" x="127.246094"/>
       <use xlink:href="#DejaVuSans-30" x="160.9375"/>
       <use xlink:href="#DejaVuSans-38" x="224.560547"/>
      </g>
     </g>
    </g>
    <g id="xtick_23">
     <g id="line2d_23">
      <g>
       <use xlink:href="#m00ef636cf8" x="1145.863534" y="652.757376" style="stroke: #000000; stroke-width: 0.8"/>
      </g>
     </g>
     <g id="text_23">
      <!-- 12/15 -->
      <g transform="translate(1124.015039 685.508216) rotate(-45) scale(0.1 -0.1)">
       <use xlink:href="#DejaVuSans-31"/>
       <use xlink:href="#DejaVuSans-32" x="63.623047"/>
       <use xlink:href="#DejaVuSans-2f" x="127.246094"/>
       <use xlink:href="#DejaVuSans-31" x="160.9375"/>
       <use xlink:href="#DejaVuSans-35" x="224.560547"/>
      </g>
     </g>
    </g>
    <g id="xtick_24">
     <g id="line2d_24">
      <g>
       <use xlink:href="#m00ef636cf8" x="1194.222101" y="652.757376" style="stroke: #000000; stroke-width: 0.8"/>
      </g>
     </g>
     <g id="text_24">
      <!-- 12/22 -->
      <g transform="translate(1172.373606 685.508216) rotate(-45) scale(0.1 -0.1)">
       <use xlink:href="#DejaVuSans-31"/>
       <use xlink:href="#DejaVuSans-32" x="63.623047"/>
       <use xlink:href="#DejaVuSans-2f" x="127.246094"/>
       <use xlink:href="#DejaVuSans-32" x="160.9375"/>
       <use xlink:href="#DejaVuSans-32" x="224.560547"/>
      </g>
     </g>
    </g>
    <g id="xtick_25">
     <g id="line2d_25">
      <g>
       <use xlink:href="#m00ef636cf8" x="1242.580668" y="652.757376" style="stroke: #000000; stroke-width: 0.8"/>
      </g>
     </g>
     <g id="text_25">
      <!-- 12/29 -->
      <g transform="translate(1220.732173 685.508216) rotate(-45) scale(0.1 -0.1)">
       <use xlink:href="#DejaVuSans-31"/>
       <use xlink:href="#DejaVuSans-32" x="63.623047"/>
       <use xlink:href="#DejaVuSans-2f" x="127.246094"/>
       <use xlink:href="#DejaVuSans-32" x="160.9375"/>
       <use xlink:href="#DejaVuSans-39" x="224.560547"/>
      </g>
     </g>
    </g>
    <g id="xtick_26">
     <g id="line2d_26">
      <g>
       <use xlink:href="#m00ef636cf8" x="1290.939235" y="652.757376" style="stroke: #000000; stroke-width: 0.8"/>
      </g>
     </g>
     <g id="text_26">
      <!-- 01/05 -->
      <g transform="translate(1269.090741 685.508216) rotate(-45) scale(0.1 -0.1)">
       <use xlink:href="#DejaVuSans-30"/>
       <use xlink:href="#DejaVuSans-31" x="63.623047"/>
       <use xlink:href="#DejaVuSans-2f" x="127.246094"/>
       <use xlink:href="#DejaVuSans-30" x="160.9375"/>
       <use xlink:href="#DejaVuSans-35" x="224.560547"/>
      </g>
     </g>
    </g>
    <g id="xtick_27">
     <g id="line2d_27">
      <g>
       <use xlink:href="#m00ef636cf8" x="1339.297802" y="652.757376" style="stroke: #000000; stroke-width: 0.8"/>
      </g>
     </g>
     <g id="text_27">
      <!-- 01/12 -->
      <g transform="translate(1317.449308 685.508216) rotate(-45) scale(0.1 -0.1)">
       <use xlink:href="#DejaVuSans-30"/>
       <use xlink:href="#DejaVuSans-31" x="63.623047"/>
       <use xlink:href="#DejaVuSans-2f" x="127.246094"/>
       <use xlink:href="#DejaVuSans-31" x="160.9375"/>
       <use xlink:href="#DejaVuSans-32" x="224.560547"/>
      </g>
     </g>
    </g>
    <g id="text_28">
     <!-- 日期 -->
     <g transform="translate(709.479375 700.096902) scale(0.12 -0.12)">
      <defs>
       <path id="DejaVuSans-Bold-65e5" d="M 319 -1131 
L 319 4513 
L 3519 4513 
L 3519 -1131 
L 319 -1131 
z
M 678 -775 
L 3163 -775 
L 3163 4153 
L 678 4153 
L 678 -775 
z
" transform="scale(0.015625)"/>
       <path id="DejaVuSans-Bold-671f" d="M 319 -1131 
L 319 4513 
L 3519 4513 
L 3519 -1131 
L 319 -1131 
z
M 678 -775 
L 3163 -775 
L 3163 4153 
L 678 4153 
L 678 -775 
z
" transform="scale(0.015625)"/>
      </defs>
      <use xlink:href="#DejaVuSans-Bold-65e5"/>
      <use xlink:href="#DejaVuSans-Bold-671f" x="60.009766"/>
     </g>
    </g>
   </g>
   <g id="matplotlib.axis_2">
    <g id="ytick_1">
     <g id="line2d_28">
      <path d="M 48.90125 639.409232 
L 1384.46125 639.409232 
" clip-path="url(#p4243e9ef5a)" style="fill: none; stroke-dasharray: 2.96,1.28; stroke-dashoffset: 0; stroke: #b0b0b0; stroke-opacity: 0.3; stroke-width: 0.8"/>
     </g>
     <g id="line2d_29">
      <defs>
       <path id="m76c38e64b8" d="M 0 0 
L -3.5 0 
" style="stroke: #000000; stroke-width: 0.8"/>
      </defs>
      <g>
       <use xlink:href="#m76c38e64b8" x="48.90125" y="639.409232" style="stroke: #000000; stroke-width: 0.8"/>
      </g>
     </g>
     <g id="text_29">
      <!-- 80 -->
      <g transform="translate(29.17625 643.20845) scale(0.1 -0.1)">
       <use xlink:href="#DejaVuSans-38"/>
       <use xlink:href="#DejaVuSans-30" x="63.623047"/>
      </g>
     </g>
    </g>
    <g id="ytick_2">
     <g id="line2d_30">
      <path d="M 48.90125 572.834946 
L 1384.46125 572.834946 
" clip-path="url(#p4243e9ef5a)" style="fill: none; stroke-dasharray: 2.96,1.28; stroke-dashoffset: 0; stroke: #b0b0b0; stroke-opacity: 0.3; stroke-width: 0.8"/>
     </g>
     <g id="line2d_31">
      <g>
       <use xlink:href="#m76c38e64b8" x="48.90125" y="572.834946" style="stroke: #000000; stroke-width: 0.8"/>
      </g>
     </g>
     <g id="text_30">
      <!-- 90 -->
      <g transform="translate(29.17625 576.634165) scale(0.1 -0.1)">
       <use xlink:href="#DejaVuSans-39"/>
       <use xlink:href="#DejaVuSans-30" x="63.623047"/>
      </g>
     </g>
    </g>
    <g id="ytick_3">
     <g id="line2d_32">
      <path d="M 48.90125 506.26066 
L 1384.46125 506.26066 
" clip-path="url(#p4243e9ef5a)" style="fill: none; stroke-dasharray: 2.96,1.28; stroke-dashoffset: 0; stroke: #b0b0b0; stroke-opacity: 0.3; stroke-width: 0.8"/>
     </g>
     <g id="line2d_33">
      <g>
       <use xlink:href="#m76c38e64b8" x="48.90125" y="506.26066" style="stroke: #000000; stroke-width: 0.8"/>
      </g>
     </g>
     <g id="text_31">
      <!-- 100 -->
      <g transform="translate(22.81375 510.059879) scale(0.1 -0.1)">
       <use xlink:href="#DejaVuSans-31"/>
       <use xlink:href="#DejaVuSans-30" x="63.623047"/>
       <use xlink:href="#DejaVuSans-30" x="127.246094"/>
      </g>
     </g>
    </g>
    <g id="ytick_4">
     <g id="line2d_34">
      <path d="M 48.90125 439.686375 
L 1384.46125 439.686375 
" clip-path="url(#p4243e9ef5a)" style="fill: none; stroke-dasharray: 2.96,1.28; stroke-dashoffset: 0; stroke: #b0b0b0; stroke-opacity: 0.3; stroke-width: 0.8"/>
     </g>
     <g id="line2d_35">
      <g>
       <use xlink:href="#m76c38e64b8" x="48.90125" y="439.686375" style="stroke: #000000; stroke-width: 0.8"/>
      </g>
     </g>
     <g id="text_32">
      <!-- 110 -->
      <g transform="translate(22.81375 443.485593) scale(0.1 -0.1)">
       <use xlink:href="#DejaVuSans-31"/>
       <use xlink:href="#DejaVuSans-31" x="63.623047"/>
       <use xlink:href="#DejaVuSans-30" x="127.246094"/>
      </g>
     </g>
    </g>
    <g id="ytick_5">
     <g id="line2d_36">
      <path d="M 48.90125 373.112089 
L 1384.46125 373.112089 
" clip-path="url(#p4243e9ef5a)" style="fill: none; stroke-dasharray: 2.96,1.28; stroke-dashoffset: 0; stroke: #b0b0b0; stroke-opacity: 0.3; stroke-width: 0.8"/>
     </g>
     <g id="line2d_37">
      <g>
       <use xlink:href="#m76c38e64b8" x="48.90125" y="373.112089" style="stroke: #000000; stroke-width: 0.8"/>
      </g>
     </g>
     <g id="text_33">
      <!-- 120 -->
      <g transform="translate(22.81375 376.911308) scale(0.1 -0.1)">
       <use xlink:href="#DejaVuSans-31"/>
       <use xlink:href="#DejaVuSans-32" x="63.623047"/>
       <use xlink:href="#DejaVuSans-30" x="127.246094"/>
      </g>
     </g>
    </g>
    <g id="ytick_6">
     <g id="line2d_38">
      <path d="M 48.90125 306.537803 
L 1384.46125 306.537803 
" clip-path="url(#p4243e9ef5a)" style="fill: none; stroke-dasharray: 2.96,1.28; stroke-dashoffset: 0; stroke: #b0b0b0; stroke-opacity: 0.3; stroke-width: 0.8"/>
     </g>
     <g id="line2d_39">
      <g>
       <use xlink:href="#m76c38e64b8" x="48.90125" y="306.537803" style="stroke: #000000; stroke-width: 0.8"/>
      </g>
     </g>
     <g id="text_34">
      <!-- 130 -->
      <g transform="translate(22.81375 310.337022) scale(0.1 -0.1)">
       <use xlink:href="#DejaVuSans-31"/>
       <use xlink:href="#DejaVuSans-33" x="63.623047"/>
       <use xlink:href="#DejaVuSans-30" x="127.246094"/>
      </g>
     </g>
    </g>
    <g id="ytick_7">
     <g id="line2d_40">
      <path d="M 48.90125 239.963517 
L 1384.46125 239.963517 
" clip-path="url(#p4243e9ef5a)" style="fill: none; stroke-dasharray: 2.96,1.28; stroke-dashoffset: 0; stroke: #b0b0b0; stroke-opacity: 0.3; stroke-width: 0.8"/>
     </g>
     <g id="line2d_41">
      <g>
       <use xlink:href="#m76c38e64b8" x="48.90125" y="239.963517" style="stroke: #000000; stroke-width: 0.8"/>
      </g>
     </g>
     <g id="text_35">
      <!-- 140 -->
      <g transform="translate(22.81375 243.762736) scale(0.1 -0.1)">
       <use xlink:href="#DejaVuSans-31"/>
       <use xlink:href="#DejaVuSans-34" x="63.623047"/>
       <use xlink:href="#DejaVuSans-30" x="127.246094"/>
      </g>
     </g>
    </g>
    <g id="ytick_8">
     <g id="line2d_42">
      <path d="M 48.90125 173.389232 
L 1384.46125 173.389232 
" clip-path="url(#p4243e9ef5a)" style="fill: none; stroke-dasharray: 2.96,1.28; stroke-dashoffset: 0; stroke: #b0b0b0; stroke-opacity: 0.3; stroke-width: 0.8"/>
     </g>
     <g id="line2d_43">
      <g>
       <use xlink:href="#m76c38e64b8" x="48.90125" y="173.389232" style="stroke: #000000; stroke-width: 0.8"/>
      </g>
     </g>
     <g id="text_36">
      <!-- 150 -->
      <g transform="translate(22.81375 177.18845) scale(0.1 -0.1)">
       <use xlink:href="#DejaVuSans-31"/>
       <use xlink:href="#DejaVuSans-35" x="63.623047"/>
       <use xlink:href="#DejaVuSans-30" x="127.246094"/>
      </g>
     </g>
    </g>
    <g id="ytick_9">
     <g id="line2d_44">
      <path d="M 48.90125 106.814946 
L 1384.46125 106.814946 
" clip-path="url(#p4243e9ef5a)" style="fill: none; stroke-dasharray: 2.96,1.28; stroke-dashoffset: 0; stroke: #b0b0b0; stroke-opacity: 0.3; stroke-width: 0.8"/>
     </g>
     <g id="line2d_45">
      <g>
       <use xlink:href="#m76c38e64b8" x="48.90125" y="106.814946" style="stroke: #000000; stroke-width: 0.8"/>
      </g>
     </g>
     <g id="text_37">
      <!-- 160 -->
      <g transform="translate(22.81375 110.614165) scale(0.1 -0.1)">
       <use xlink:href="#DejaVuSans-31"/>
       <use xlink:href="#DejaVuSans-36" x="63.623047"/>
       <use xlink:href="#DejaVuSans-30" x="127.246094"/>
      </g>
     </g>
    </g>
    <g id="text_38">
     <!-- 收盤價 (元) -->
     <g transform="translate(16.318125 388.764407) rotate(-90) scale(0.12 -0.12)">
      <defs>
       <path id="DejaVuSans-Bold-6536" d="M 319 -1131 
L 319 4513 
L 3519 4513 
L 3519 -1131 
L 319 -1131 
z
M 678 -775 
L 3163 -775 
L 3163 4153 
L 678 4153 
L 678 -775 
z
" transform="scale(0.015625)"/>
       <path id="DejaVuSans-Bold-76e4" d="M 319 -1131 
L 319 4513 
L 3519 4513 
L 3519 -1131 
L 319 -1131 
z
M 678 -775 
L 3163 -775 
L 3163 4153 
L 678 4153 
L 678 -775 
z
" transform="scale(0.015625)"/>
       <path id="DejaVuSans-Bold-50f9" d="M 319 -1131 
L 319 4513 
L 3519 4513 
L 3519 -1131 
L 319 -1131 
z
M 678 -775 
L 3163 -775 
L 3163 4153 
L 678 4153 
L 678 -775 
z
" transform="scale(0.015625)"/>
       <path id="DejaVuSans-Bold-20" transform="scale(0.015625)"/>
       <path id="DejaVuSans-Bold-28" d="M 2413 -844 
L 1484 -844 
Q 1006 -72 778 623 
Q 550 1319 550 2003 
Q 550 2688 779 3389 
Q 1009 4091 1484 4856 
L 2413 4856 
Q 2013 4116 1813 3408 
Q 1613 2700 1613 2009 
Q 1613 1319 1811 609 
Q 2009 -100 2413 -844 
z
" transform="scale(0.015625)"/>
       <path id="DejaVuSans-Bold-5143" d="M 319 -1131 
L 319 4513 
L 3519 4513 
L 3519 -1131 
L 319 -1131 
z
M 678 -775 
L 3163 -775 
L 3163 4153 
L 678 4153 
L 678 -775 
z
" transform="scale(0.015625)"/>
       <path id="DejaVuSans-Bold-29" d="M 513 -844 
Q 913 -100 1113 609 
Q 1313 1319 1313 2009 
Q 1313 2700 1113 3408 
Q 913 4116 513 4856 
L 1441 4856 
Q 1916 4091 2145 3389 
Q 2375 2688 2375 2003 
Q 2375 1319 2147 623 
Q 1919 -72 1441 -844 
L 513 -844 
z
" transform="scale(0.015625)"/>
      </defs>
      <use xlink:href="#DejaVuSans-Bold-6536"/>
      <use xlink:href="#DejaVuSans-Bold-76e4" x="60.009766"/>
      <use xlink:href="#DejaVuSans-Bold-50f9" x="120.019531"/>
      <use xlink:href="#DejaVuSans-Bold-20" x="180.029297"/>
      <use xlink:href="#DejaVuSans-Bold-28" x="214.84375"/>
      <use xlink:href="#DejaVuSans-Bold-5143" x="260.546875"/>
      <use xlink:href="#DejaVuSans-Bold-29" x="320.556641"/>
     </g>
    </g>
   </g>
   <g id="patch_3">
    <path d="M 48.90125 652.757376 
L 48.90125 80.817687 
" style="fill: none; stroke: #000000; stroke-width: 0.8; stroke-linejoin: miter; stroke-linecap: square"/>
   </g>
   <g id="patch_4">
    <path d="M 1384.46125 652.757376 
L 1384.46125 80.817687 
" style="fill: none; stroke: #000000; stroke-width: 0.8; stroke-linejoin: miter; stroke-linecap: square"/>
   </g>
   <g id="patch_5">
    <path d="M 48.90125 652.757376 
L 1384.46125 652.757376 
" style="fill: none; stroke: #000000; stroke-width: 0.8; stroke-linejoin: miter; stroke-linecap: square"/>
   </g>
   <g id="patch_6">
    <path d="M 48.90125 80.817687 
L 1384.46125 80.817687 
" style="fill: none; stroke: #000000; stroke-width: 0.8; stroke-linejoin: miter; stroke-linecap: square"/>
   </g>
   <g id="line2d_46">
    <path d="M 109.608523 419.714089 
L 130.333623 423.042803 
L 137.24199 436.35766 
L 144.150356 426.371517 
L 151.058723 416.385375 
L 157.96709 416.385375 
L 178.69219 416.385375 
L 185.600557 423.042803 
L 192.508924 423.042803 
L 199.41729 429.700232 
L 206.325657 426.371517 
L 227.050757 419.714089 
L 233.959124 389.75566 
L 240.867491 419.714089 
L 247.775858 419.714089 
L 254.684224 423.042803 
L 275.409324 426.371517 
L 282.317691 426.371517 
L 289.226058 429.700232 
L 296.134425 443.015089 
L 303.042791 373.112089 
L 323.767892 293.222946 
L 330.676258 263.264517 
L 337.584625 249.94966 
L 344.492992 243.292232 
L 351.401359 286.565517 
L 372.126459 299.880375 
L 379.034826 213.333803 
L 385.943192 120.129803 
L 392.851559 146.759517 
L 399.759926 140.102089 
L 420.485026 170.060517 
L 427.393393 166.731803 
L 434.30176 136.773375 
L 441.210126 120.129803 
L 448.118493 116.801089 
L 468.843593 106.814946 
L 475.75196 110.14366 
L 482.660327 143.430803 
L 489.568693 156.74566 
L 496.47706 146.759517 
L 517.20216 223.319946 
L 524.110527 219.991232 
L 531.018894 213.333803 
L 537.927261 219.991232 
L 544.835627 213.333803 
L 565.560728 223.319946 
L 572.469094 266.593232 
L 579.377461 246.620946 
L 586.285828 243.292232 
L 593.194195 253.278375 
L 620.827661 256.607089 
L 627.736028 273.25066 
L 634.644395 296.55166 
L 641.552762 269.921946 
L 669.186229 243.292232 
L 676.094595 253.278375 
L 683.002962 256.607089 
L 710.636429 296.55166 
L 717.544796 313.195232 
L 724.453163 273.25066 
L 731.361529 286.565517 
L 738.269896 273.25066 
L 758.994996 266.593232 
L 765.903363 259.935803 
L 772.81173 253.278375 
L 779.720097 289.894232 
L 807.353563 313.195232 
L 814.26193 346.482375 
L 821.170297 386.426946 
L 828.078664 409.727946 
L 834.98703 419.714089 
L 855.712131 459.65866 
L 862.620497 466.316089 
L 869.528864 492.945803 
L 876.437231 508.257889 
L 883.345598 540.879289 
L 904.070698 568.840489 
L 910.979065 570.171974 
L 917.887431 572.834946 
L 924.795798 561.517317 
L 931.704165 579.492374 
L 952.429265 597.467432 
L 959.337632 615.442489 
L 966.245998 614.776746 
L 973.154365 606.787832 
L 980.062732 621.434174 
L 1000.787832 620.768432 
L 1007.696199 615.442489 
L 1014.604566 566.177517 
L 1021.512932 597.467432 
L 1028.421299 584.152574 
L 1049.146399 606.787832 
L 1056.054766 625.428632 
L 1062.963133 586.149803 
L 1069.8715 580.158117 
L 1076.779866 587.481289 
L 1097.504967 582.155346 
L 1104.413333 584.152574 
L 1111.3217 576.829403 
L 1118.230067 613.44526 
L 1125.138433 606.122089 
L 1145.863534 586.149803 
L 1152.7719 593.472974 
L 1159.680267 590.810003 
L 1166.588634 594.80446 
L 1173.497001 589.478517 
L 1194.222101 581.489603 
L 1201.130468 590.810003 
L 1208.038834 606.787832 
L 1221.855568 598.798917 
L 1242.580668 608.119317 
L 1249.489035 609.450803 
L 1256.397402 604.790603 
L 1270.214135 597.467432 
L 1290.939235 609.450803 
L 1297.847602 598.798917 
L 1304.755969 604.12486 
L 1311.664335 620.768432 
L 1318.572702 626.760117 
" clip-path="url(#p4243e9ef5a)" style="fill: none; stroke: #000000; stroke-width: 2; stroke-linecap: square"/>
   </g>
   <g id="legend_1">
    <g id="patch_7">
     <path d="M 55.90125 118.173937 
L 145.093437 118.173937 
Q 147.093437 118.173937 147.093437 116.173937 
L 147.093437 87.817687 
Q 147.093437 85.817687 145.093437 85.817687 
L 55.90125 85.817687 
Q 53.90125 85.817687 53.90125 87.817687 
L 53.90125 116.173937 
Q 53.90125 118.173937 55.90125 118.173937 
z
" style="fill: #ffffff; opacity: 0.8; stroke: #cccccc; stroke-linejoin: miter"/>
    </g>
    <g id="line2d_47">
     <path d="M 57.90125 93.916125 
L 67.90125 93.916125 
L 77.90125 93.916125 
" style="fill: none; stroke: #000000; stroke-width: 2; stroke-linecap: square"/>
    </g>
    <g id="text_39">
     <!-- 博盛半導體 收盤價 -->
     <g transform="translate(85.90125 97.416125) scale(0.1 -0.1)">
      <defs>
       <path id="DejaVuSans-535a" d="M 319 -1131 
L 319 4513 
L 3519 4513 
L 3519 -1131 
L 319 -1131 
z
M 678 -775 
L 3163 -775 
L 3163 4153 
L 678 4153 
L 678 -775 
z
" transform="scale(0.015625)"/>
       <path id="DejaVuSans-76db" d="M 319 -1131 
L 319 4513 
L 3519 4513 
L 3519 -1131 
L 319 -1131 
z
M 678 -775 
L 3163 -775 
L 3163 4153 
L 678 4153 
L 678 -775 
z
" transform="scale(0.015625)"/>
       <path id="DejaVuSans-534a" d="M 319 -1131 
L 319 4513 
L 3519 4513 
L 3519 -1131 
L 319 -1131 
z
M 678 -775 
L 3163 -775 
L 3163 4153 
L 678 4153 
L 678 -775 
z
" transform="scale(0.015625)"/>
       <path id="DejaVuSans-5c0e" d="M 319 -1131 
L 319 4513 
L 3519 4513 
L 3519 -1131 
L 319 -1131 
z
M 678 -775 
L 3163 -775 
L 3163 4153 
L 678 4153 
L 678 -775 
z
" transform="scale(0.015625)"/>
       <path id="DejaVuSans-9ad4" d="M 319 -1131 
L 319 4513 
L 3519 4513 
L 3519 -1131 
L 319 -1131 
z
M 678 -775 
L 3163 -775 
L 3163 4153 
L 678 4153 
L 678 -775 
z
" transform="scale(0.015625)"/>
       <path id="DejaVuSans-20" transform="scale(0.015625)"/>
       <path id="DejaVuSans-6536" d="M 319 -1131 
L 319 4513 
L 3519 4513 
L 3519 -1131 
L 319 -1131 
z
M 678 -775 
L 3163 -775 
L 3163 4153 
L 678 4153 
L 678 -775 
z
" transform="scale(0.015625)"/>
       <path id="DejaVuSans-76e4" d="M 319 -1131 
L 319 4513 
L 3519 4513 
L 3519 -1131 
L 319 -1131 
z
M 678 -775 
L 3163 -775 
L 3163 4153 
L 678 4153 
L 678 -775 
z
" transform="scale(0.015625)"/>
       <path id="DejaVuSans-50f9" d="M 319 -1131 
L 319 4513 
L 3519 4513 
L 3519 -1131 
L 319 -1131 
z
M 678 -775 
L 3163 -775 
L 3163 4153 
L 678 4153 
L 678 -775 
z
" transform="scale(0.015625)"/>
      </defs>
      <use xlink:href="#DejaVuSans-535a"/>
      <use xlink:href="#DejaVuSans-76db" x="60.009766"/>
      <use xlink:href="#DejaVuSans-534a" x="120.019531"/>
      <use xlink:href="#DejaVuSans-5c0e" x="180.029297"/>
      <use xlink:href="#DejaVuSans-9ad4" x="240.039062"/>
      <use xlink:href="#DejaVuSans-20" x="300.048828"/>
      <use xlink:href="#DejaVuSans-6536" x="331.835938"/>
      <use xlink:href="#DejaVuSans-76e4" x="391.845703"/>
      <use xlink:href="#DejaVuSans-50f9" x="451.855469"/>
     </g>
    </g>
    <g id="patch_8">
     <path d="M 57.90125 112.09425 
L 77.90125 112.09425 
L 77.90125 105.09425 
L 57.90125 105.09425 
z
" style="fill: #ffd700; opacity: 0.7"/>
    </g>
    <g id="text_40">
     <!-- 博盛半導體 融資餘額 -->
     <g transform="translate(85.90125 112.09425) scale(0.1 -0.1)">
      <defs>
       <path id="DejaVuSans-878d" d="M 319 -1131 
L 319 4513 
L 3519 4513 
L 3519 -1131 
L 319 -1131 
z
M 678 -775 
L 3163 -775 
L 3163 4153 
L 678 4153 
L 678 -775 
z
" transform="scale(0.015625)"/>
       <path id="DejaVuSans-8cc7" d="M 319 -1131 
L 319 4513 
L 3519 4513 
L 3519 -1131 
L 319 -1131 
z
M 678 -775 
L 3163 -775 
L 3163 4153 
L 678 4153 
L 678 -775 
z
" transform="scale(0.015625)"/>
       <path id="DejaVuSans-9918" d="M 319 -1131 
L 319 4513 
L 3519 4513 
L 3519 -1131 
L 319 -1131 
z
M 678 -775 
L 3163 -775 
L 3163 4153 
L 678 4153 
L 678 -775 
z
" transform="scale(0.015625)"/>
       <path id="DejaVuSans-984d" d="M 319 -1131 
L 319 4513 
L 3519 4513 
L 3519 -1131 
L 319 -1131 
z
M 678 -775 
L 3163 -775 
L 3163 4153 
L 678 4153 
L 678 -775 
z
" transform="scale(0.015625)"/>
      </defs>
      <use xlink:href="#DejaVuSans-535a"/>
      <use xlink:href="#DejaVuSans-76db" x="60.009766"/>
      <use xlink:href="#DejaVuSans-534a" x="120.019531"/>
      <use xlink:href="#DejaVuSans-5c0e" x="180.029297"/>
      <use xlink:href="#DejaVuSans-9ad4" x="240.039062"/>
      <use xlink:href="#DejaVuSans-20" x="300.048828"/>
      <use xlink:href="#DejaVuSans-878d" x="331.835938"/>
      <use xlink:href="#DejaVuSans-8cc7" x="391.845703"/>
      <use xlink:href="#DejaVuSans-9918" x="451.855469"/>
      <use xlink:href="#DejaVuSans-984d" x="511.865234"/>
     </g>
    </g>
   </g>
  </g>
  <g id="axes_2">
   <g id="matplotlib.axis_3">
    <g id="ytick_10">
     <g id="line2d_48">
      <defs>
       <path id="me969ec0f52" d="M 0 0 
L 3.5 0 
" style="stroke: #000000; stroke-width: 0.8"/>
      </defs>
      <g>
       <use xlink:href="#me969ec0f52" x="1384.46125" y="652.757376" style="stroke: #000000; stroke-width: 0.8"/>
      </g>
     </g>
     <g id="text_41">
      <!-- 0.0 -->
      <g style="fill: #b8860b" transform="translate(1391.46125 656.556595) scale(0.1 -0.1)">
       <defs>
        <path id="DejaVuSans-2e" d="M 684 794 
L 1344 794 
L 1344 0 
L 684 0 
L 684 794 
z
" transform="scale(0.015625)"/>
       </defs>
       <use xlink:href="#DejaVuSans-30"/>
       <use xlink:href="#DejaVuSans-2e" x="63.623047"/>
       <use xlink:href="#DejaVuSans-30" x="95.410156"/>
      </g>
     </g>
    </g>
    <g id="ytick_11">
     <g id="line2d_49">
      <g>
       <use xlink:href="#me969ec0f52" x="1384.46125" y="556.101451" style="stroke: #000000; stroke-width: 0.8"/>
      </g>
     </g>
     <g id="text_42">
      <!-- 0.1 -->
      <g style="fill: #b8860b" transform="translate(1391.46125 559.90067) scale(0.1 -0.1)">
       <use xlink:href="#DejaVuSans-30"/>
       <use xlink:href="#DejaVuSans-2e" x="63.623047"/>
       <use xlink:href="#DejaVuSans-31" x="95.410156"/>
      </g>
     </g>
    </g>
    <g id="ytick_12">
     <g id="line2d_50">
      <g>
       <use xlink:href="#me969ec0f52" x="1384.46125" y="459.445526" style="stroke: #000000; stroke-width: 0.8"/>
      </g>
     </g>
     <g id="text_43">
      <!-- 0.2 -->
      <g style="fill: #b8860b" transform="translate(1391.46125 463.244745) scale(0.1 -0.1)">
       <use xlink:href="#DejaVuSans-30"/>
       <use xlink:href="#DejaVuSans-2e" x="63.623047"/>
       <use xlink:href="#DejaVuSans-32" x="95.410156"/>
      </g>
     </g>
    </g>
    <g id="ytick_13">
     <g id="line2d_51">
      <g>
       <use xlink:href="#me969ec0f52" x="1384.46125" y="362.789601" style="stroke: #000000; stroke-width: 0.8"/>
      </g>
     </g>
     <g id="text_44">
      <!-- 0.3 -->
      <g style="fill: #b8860b" transform="translate(1391.46125 366.58882) scale(0.1 -0.1)">
       <use xlink:href="#DejaVuSans-30"/>
       <use xlink:href="#DejaVuSans-2e" x="63.623047"/>
       <use xlink:href="#DejaVuSans-33" x="95.410156"/>
      </g>
     </g>
    </g>
    <g id="ytick_14">
     <g id="line2d_52">
      <g>
       <use xlink:href="#me969ec0f52" x="1384.46125" y="266.133676" style="stroke: #000000; stroke-width: 0.8"/>
      </g>
     </g>
     <g id="text_45">
      <!-- 0.4 -->
      <g style="fill: #b8860b" transform="translate(1391.46125 269.932895) scale(0.1 -0.1)">
       <use xlink:href="#DejaVuSans-30"/>
       <use xlink:href="#DejaVuSans-2e" x="63.623047"/>
       <use xlink:href="#DejaVuSans-34" x="95.410156"/>
      </g>
     </g>
    </g>
    <g id="ytick_15">
     <g id="line2d_53">
      <g>
       <use xlink:href="#me969ec0f52" x="1384.46125" y="169.477751" style="stroke: #000000; stroke-width: 0.8"/>
      </g>
     </g>
     <g id="text_46">
      <!-- 0.5 -->
      <g style="fill: #b8860b" transform="translate(1391.46125 173.27697) scale(0.1 -0.1)">
       <use xlink:href="#DejaVuSans-30"/>
       <use xlink:href="#DejaVuSans-2e" x="63.623047"/>
       <use xlink:href="#DejaVuSans-35" x="95.410156"/>
      </g>
     </g>
    </g>
    <g id="text_47">
     <!-- 融資餘額 (億元) -->
     <g style="fill: #b8860b" transform="translate(1420.4825 395.966282) rotate(-90) scale(0.12 -0.12)">
      <defs>
       <path id="DejaVuSans-Bold-878d" d="M 319 -1131 
L 319 4513 
L 3519 4513 
L 3519 -1131 
L 319 -1131 
z
M 678 -775 
L 3163 -775 
L 3163 4153 
L 678 4153 
L 678 -775 
z
" transform="scale(0.015625)"/>
       <path id="DejaVuSans-Bold-8cc7" d="M 319 -1131 
L 319 4513 
L 3519 4513 
L 3519 -1131 
L 319 -1131 
z
M 678 -775 
L 3163 -775 
L 3163 4153 
L 678 4153 
L 678 -775 
z
" transform="scale(0.015625)"/>
       <path id="DejaVuSans-Bold-9918" d="M 319 -1131 
L 319 4513 
L 3519 4513 
L 3519 -1131 
L 319 -1131 
z
M 678 -775 
L 3163 -775 
L 3163 4153 
L 678 4153 
L 678 -775 
z
" transform="scale(0.015625)"/>
       <path id="DejaVuSans-Bold-984d" d="M 319 -1131 
L 319 4513 
L 3519 4513 
L 3519 -1131 
L 319 -1131 
z
M 678 -775 
L 3163 -775 
L 3163 4153 
L 678 4153 
L 678 -775 
z
" transform="scale(0.015625)"/>
       <path id="DejaVuSans-Bold-5104" d="M 319 -1131 
L 319 4513 
L 3519 4513 
L 3519 -1131 
L 319 -1131 
z
M 678 -775 
L 3163 -775 
L 3163 4153 
L 678 4153 
L 678 -775 
z
" transform="scale(0.015625)"/>
      </defs>
      <use xlink:href="#DejaVuSans-Bold-878d"/>
      <use xlink:href="#DejaVuSans-Bold-8cc7" x="60.009766"/>
      <use xlink:href="#DejaVuSans-Bold-9918" x="120.019531"/>
      <use xlink:href="#DejaVuSans-Bold-984d" x="180.029297"/>
      <use xlink:href="#DejaVuSans-Bold-20" x="240.039062"/>
      <use xlink:href="#DejaVuSans-Bold-28" x="274.853516"/>
      <use xlink:href="#DejaVuSans-Bold-5104" x="320.556641"/>
      <use xlink:href="#DejaVuSans-Bold-5143" x="380.566406"/>
      <use xlink:href="#DejaVuSans-Bold-29" x="440.576172"/>
     </g>
    </g>
   </g>
   <g id="patch_9">
    <path d="M 48.90125 652.757376 
L 48.90125 80.817687 
" style="fill: none; stroke: #000000; stroke-width: 0.8; stroke-linejoin: miter; stroke-linecap: square"/>
   </g>
   <g id="patch_10">
    <path d="M 1384.46125 652.757376 
L 1384.46125 80.817687 
" style="fill: none; stroke: #000000; stroke-width: 0.8; stroke-linejoin: miter; stroke-linecap: square"/>
   </g>
   <g id="patch_11">
    <path d="M 48.90125 652.757376 
L 1384.46125 652.757376 
" style="fill: none; stroke: #000000; stroke-width: 0.8; stroke-linejoin: miter; stroke-linecap: square"/>
   </g>
   <g id="patch_12">
    <path d="M 48.90125 80.817687 
L 1384.46125 80.817687 
" style="fill: none; stroke: #000000; stroke-width: 0.8; stroke-linejoin: miter; stroke-linecap: square"/>
   </g>
   <g id="patch_13">
    <path d="M 0 0 
z
" clip-path="url(#p4243e9ef5a)" style="fill: #ffd700; opacity: 0.7"/>
   </g>
   <g id="patch_14">
    <path d="M 0 0 
z
" clip-path="url(#p4243e9ef5a)" style="fill: #ffd700; opacity: 0.7"/>
   </g>
   <g id="patch_15">
    <path d="M 0 0 
z
" clip-path="url(#p4243e9ef5a)" style="fill: #ffd700; opacity: 0.7"/>
   </g>
   <g id="patch_16">
    <path d="M 0 0 
z
" clip-path="url(#p4243e9ef5a)" style="fill: #ffd700; opacity: 0.7"/>
   </g>
   <g id="patch_17">
    <path d="M 0 0 
z
" clip-path="url(#p4243e9ef5a)" style="fill: #ffd700; opacity: 0.7"/>
   </g>
   <g id="patch_18">
    <path d="M 0 0 
z
" clip-path="url(#p4243e9ef5a)" style="fill: #ffd700; opacity: 0.7"/>
   </g>
   <g id="patch_19">
    <path d="M 0 0 
z
" clip-path="url(#p4243e9ef5a)" style="fill: #ffd700; opacity: 0.7"/>
   </g>
   <g id="patch_20">
    <path d="M 0 0 
z
" clip-path="url(#p4243e9ef5a)" style="fill: #ffd700; opacity: 0.7"/>
   </g>
   <g id="patch_21">
    <path d="M 0 0 
z
" clip-path="url(#p4243e9ef5a)" style="fill: #ffd700; opacity: 0.7"/>
   </g>
   <g id="patch_22">
    <path d="M 0 0 
z
" clip-path="url(#p4243e9ef5a)" style="fill: #ffd700; opacity: 0.7"/>
   </g>
   <g id="patch_23">
    <path d="M 0 0 
z
" clip-path="url(#p4243e9ef5a)" style="fill: #ffd700; opacity: 0.7"/>
   </g>
   <g id="patch_24">
    <path d="M 0 0 
z
" clip-path="url(#p4243e9ef5a)" style="fill: #ffd700; opacity: 0.7"/>
   </g>
   <g id="patch_25">
    <path d="M 0 0 
z
" clip-path="url(#p4243e9ef5a)" style="fill: #ffd700; opacity: 0.7"/>
   </g>
   <g id="patch_26">
    <path d="M 0 0 
z
" clip-path="url(#p4243e9ef5a)" style="fill: #ffd700; opacity: 0.7"/>
   </g>
   <g id="patch_27">
    <path d="M 0 0 
z
" clip-path="url(#p4243e9ef5a)" style="fill: #ffd700; opacity: 0.7"/>
   </g>
   <g id="patch_28">
    <path d="M 0 0 
z
" clip-path="url(#p4243e9ef5a)" style="fill: #ffd700; opacity: 0.7"/>
   </g>
   <g id="patch_29">
    <path d="M 0 0 
z
" clip-path="url(#p4243e9ef5a)" style="fill: #ffd700; opacity: 0.7"/>
   </g>
   <g id="patch_30">
    <path d="M 0 0 
z
" clip-path="url(#p4243e9ef5a)" style="fill: #ffd700; opacity: 0.7"/>
   </g>
   <g id="patch_31">
    <path d="M 0 0 
z
" clip-path="url(#p4243e9ef5a)" style="fill: #ffd700; opacity: 0.7"/>
   </g>
   <g id="patch_32">
    <path d="M 0 0 
z
" clip-path="url(#p4243e9ef5a)" style="fill: #ffd700; opacity: 0.7"/>
   </g>
   <g id="patch_33">
    <path d="M 0 0 
z
" clip-path="url(#p4243e9ef5a)" style="fill: #ffd700; opacity: 0.7"/>
   </g>
   <g id="patch_34">
    <path d="M 318.586617 652.757376 
L 328.949167 652.757376 
L 328.949167 611.929913 
L 318.586617 611.929913 
z
" clip-path="url(#p4243e9ef5a)" style="fill: #ffd700; opacity: 0.7"/>
   </g>
   <g id="patch_35">
    <path d="M 325.494983 652.757376 
L 335.857533 652.757376 
L 335.857533 556.444579 
L 325.494983 556.444579 
z
" clip-path="url(#p4243e9ef5a)" style="fill: #ffd700; opacity: 0.7"/>
   </g>
   <g id="patch_36">
    <path d="M 332.40335 652.757376 
L 342.7659 652.757376 
L 342.7659 552.356034 
L 332.40335 552.356034 
z
" clip-path="url(#p4243e9ef5a)" style="fill: #ffd700; opacity: 0.7"/>
   </g>
   <g id="patch_37">
    <path d="M 339.311717 652.757376 
L 349.674267 652.757376 
L 349.674267 538.147613 
L 339.311717 538.147613 
z
" clip-path="url(#p4243e9ef5a)" style="fill: #ffd700; opacity: 0.7"/>
   </g>
   <g id="patch_38">
    <path d="M 346.220084 652.757376 
L 356.582634 652.757376 
L 356.582634 543.487853 
L 346.220084 543.487853 
z
" clip-path="url(#p4243e9ef5a)" style="fill: #ffd700; opacity: 0.7"/>
   </g>
   <g id="patch_39">
    <path d="M 366.945184 652.757376 
L 377.307734 652.757376 
L 377.307734 543.864811 
L 366.945184 543.864811 
z
" clip-path="url(#p4243e9ef5a)" style="fill: #ffd700; opacity: 0.7"/>
   </g>
   <g id="patch_40">
    <path d="M 373.853551 652.757376 
L 384.216101 652.757376 
L 384.216101 524.707606 
L 373.853551 524.707606 
z
" clip-path="url(#p4243e9ef5a)" style="fill: #ffd700; opacity: 0.7"/>
   </g>
   <g id="patch_41">
    <path d="M 380.761917 652.757376 
L 391.124467 652.757376 
L 391.124467 420.628506 
L 380.761917 420.628506 
z
" clip-path="url(#p4243e9ef5a)" style="fill: #ffd700; opacity: 0.7"/>
   </g>
   <g id="patch_42">
    <path d="M 387.670284 652.757376 
L 398.032834 652.757376 
L 398.032834 459.252214 
L 387.670284 459.252214 
z
" clip-path="url(#p4243e9ef5a)" style="fill: #ffd700; opacity: 0.7"/>
   </g>
   <g id="patch_43">
    <path d="M 394.578651 652.757376 
L 404.941201 652.757376 
L 404.941201 456.49752 
L 394.578651 456.49752 
z
" clip-path="url(#p4243e9ef5a)" style="fill: #ffd700; opacity: 0.7"/>
   </g>
   <g id="patch_44">
    <path d="M 415.303751 652.757376 
L 425.666301 652.757376 
L 425.666301 492.743492 
L 415.303751 492.743492 
z
" clip-path="url(#p4243e9ef5a)" style="fill: #ffd700; opacity: 0.7"/>
   </g>
   <g id="patch_45">
    <path d="M 422.212118 652.757376 
L 432.574668 652.757376 
L 432.574668 493.671389 
L 422.212118 493.671389 
z
" clip-path="url(#p4243e9ef5a)" style="fill: #ffd700; opacity: 0.7"/>
   </g>
   <g id="patch_46">
    <path d="M 429.120484 652.757376 
L 439.483035 652.757376 
L 439.483035 505.463412 
L 429.120484 505.463412 
z
" clip-path="url(#p4243e9ef5a)" style="fill: #ffd700; opacity: 0.7"/>
   </g>
   <g id="patch_47">
    <path d="M 436.028851 652.757376 
L 446.391401 652.757376 
L 446.391401 487.823706 
L 436.028851 487.823706 
z
" clip-path="url(#p4243e9ef5a)" style="fill: #ffd700; opacity: 0.7"/>
   </g>
   <g id="patch_48">
    <path d="M 442.937218 652.757376 
L 453.299768 652.757376 
L 453.299768 473.513796 
L 442.937218 473.513796 
z
" clip-path="url(#p4243e9ef5a)" style="fill: #ffd700; opacity: 0.7"/>
   </g>
   <g id="patch_49">
    <path d="M 463.662318 652.757376 
L 474.024868 652.757376 
L 474.024868 474.910474 
L 463.662318 474.910474 
z
" clip-path="url(#p4243e9ef5a)" style="fill: #ffd700; opacity: 0.7"/>
   </g>
   <g id="patch_50">
    <path d="M 470.570685 652.757376 
L 480.933235 652.757376 
L 480.933235 490.882866 
L 470.570685 490.882866 
z
" clip-path="url(#p4243e9ef5a)" style="fill: #ffd700; opacity: 0.7"/>
   </g>
   <g id="patch_51">
    <path d="M 477.479052 652.757376 
L 487.841602 652.757376 
L 487.841602 513.87731 
L 477.479052 513.87731 
z
" clip-path="url(#p4243e9ef5a)" style="fill: #ffd700; opacity: 0.7"/>
   </g>
   <g id="patch_52">
    <path d="M 484.387418 652.757376 
L 494.749968 652.757376 
L 494.749968 515.67511 
L 484.387418 515.67511 
z
" clip-path="url(#p4243e9ef5a)" style="fill: #ffd700; opacity: 0.7"/>
   </g>
   <g id="patch_53">
    <path d="M 491.295785 652.757376 
L 501.658335 652.757376 
L 501.658335 512.838259 
L 491.295785 512.838259 
z
" clip-path="url(#p4243e9ef5a)" style="fill: #ffd700; opacity: 0.7"/>
   </g>
   <g id="patch_54">
    <path d="M 512.020885 652.757376 
L 522.383435 652.757376 
L 522.383435 528.796152 
L 512.020885 528.796152 
z
" clip-path="url(#p4243e9ef5a)" style="fill: #ffd700; opacity: 0.7"/>
   </g>
   <g id="patch_55">
    <path d="M 518.929252 652.757376 
L 529.291802 652.757376 
L 529.291802 532.50774 
L 518.929252 532.50774 
z
" clip-path="url(#p4243e9ef5a)" style="fill: #ffd700; opacity: 0.7"/>
   </g>
   <g id="patch_56">
    <path d="M 525.837619 652.757376 
L 536.200169 652.757376 
L 536.200169 531.666833 
L 525.837619 531.666833 
z
" clip-path="url(#p4243e9ef5a)" style="fill: #ffd700; opacity: 0.7"/>
   </g>
   <g id="patch_57">
    <path d="M 532.745986 652.757376 
L 543.108536 652.757376 
L 543.108536 529.74338 
L 532.745986 529.74338 
z
" clip-path="url(#p4243e9ef5a)" style="fill: #ffd700; opacity: 0.7"/>
   </g>
   <g id="patch_58">
    <path d="M 539.654352 652.757376 
L 550.016902 652.757376 
L 550.016902 527.491297 
L 539.654352 527.491297 
z
" clip-path="url(#p4243e9ef5a)" style="fill: #ffd700; opacity: 0.7"/>
   </g>
   <g id="patch_59">
    <path d="M 560.379453 652.757376 
L 570.742003 652.757376 
L 570.742003 528.796152 
L 560.379453 528.796152 
z
" clip-path="url(#p4243e9ef5a)" style="fill: #ffd700; opacity: 0.7"/>
   </g>
   <g id="patch_60">
    <path d="M 567.287819 652.757376 
L 577.650369 652.757376 
L 577.650369 546.281209 
L 567.287819 546.281209 
z
" clip-path="url(#p4243e9ef5a)" style="fill: #ffd700; opacity: 0.7"/>
   </g>
   <g id="patch_61">
    <path d="M 574.196186 652.757376 
L 584.558736 652.757376 
L 584.558736 541.245435 
L 574.196186 541.245435 
z
" clip-path="url(#p4243e9ef5a)" style="fill: #ffd700; opacity: 0.7"/>
   </g>
   <g id="patch_62">
    <path d="M 581.104553 652.757376 
L 591.467103 652.757376 
L 591.467103 540.844313 
L 581.104553 540.844313 
z
" clip-path="url(#p4243e9ef5a)" style="fill: #ffd700; opacity: 0.7"/>
   </g>
   <g id="patch_63">
    <path d="M 588.012919 652.757376 
L 598.37547 652.757376 
L 598.37547 540.713828 
L 588.012919 540.713828 
z
" clip-path="url(#p4243e9ef5a)" style="fill: #ffd700; opacity: 0.7"/>
   </g>
   <g id="patch_64">
    <path d="M 615.646386 652.757376 
L 626.008937 652.757376 
L 626.008937 541.119783 
L 615.646386 541.119783 
z
" clip-path="url(#p4243e9ef5a)" style="fill: #ffd700; opacity: 0.7"/>
   </g>
   <g id="patch_65">
    <path d="M 622.554753 652.757376 
L 632.917303 652.757376 
L 632.917303 543.149557 
L 622.554753 543.149557 
z
" clip-path="url(#p4243e9ef5a)" style="fill: #ffd700; opacity: 0.7"/>
   </g>
   <g id="patch_66">
    <path d="M 629.46312 652.757376 
L 639.82567 652.757376 
L 639.82567 553.617394 
L 629.46312 553.617394 
z
" clip-path="url(#p4243e9ef5a)" style="fill: #ffd700; opacity: 0.7"/>
   </g>
   <g id="patch_67">
    <path d="M 636.371487 652.757376 
L 646.734037 652.757376 
L 646.734037 547.982353 
L 636.371487 547.982353 
z
" clip-path="url(#p4243e9ef5a)" style="fill: #ffd700; opacity: 0.7"/>
   </g>
   <g id="patch_68">
    <path d="M 664.004954 652.757376 
L 674.367504 652.757376 
L 674.367504 540.844313 
L 664.004954 540.844313 
z
" clip-path="url(#p4243e9ef5a)" style="fill: #ffd700; opacity: 0.7"/>
   </g>
   <g id="patch_69">
    <path d="M 670.91332 652.757376 
L 681.27587 652.757376 
L 681.27587 539.379976 
L 670.91332 539.379976 
z
" clip-path="url(#p4243e9ef5a)" style="fill: #ffd700; opacity: 0.7"/>
   </g>
   <g id="patch_70">
    <path d="M 677.821687 652.757376 
L 688.184237 652.757376 
L 688.184237 539.790764 
L 677.821687 539.790764 
z
" clip-path="url(#p4243e9ef5a)" style="fill: #ffd700; opacity: 0.7"/>
   </g>
   <g id="patch_71">
    <path d="M 705.455154 652.757376 
L 715.817704 652.757376 
L 715.817704 544.720216 
L 705.455154 544.720216 
z
" clip-path="url(#p4243e9ef5a)" style="fill: #ffd700; opacity: 0.7"/>
   </g>
   <g id="patch_72">
    <path d="M 712.363521 652.757376 
L 722.726071 652.757376 
L 722.726071 549.267877 
L 712.363521 549.267877 
z
" clip-path="url(#p4243e9ef5a)" style="fill: #ffd700; opacity: 0.7"/>
   </g>
   <g id="patch_73">
    <path d="M 719.271888 652.757376 
L 729.634438 652.757376 
L 729.634438 549.673832 
L 719.271888 549.673832 
z
" clip-path="url(#p4243e9ef5a)" style="fill: #ffd700; opacity: 0.7"/>
   </g>
   <g id="patch_74">
    <path d="M 726.180254 652.757376 
L 736.542804 652.757376 
L 736.542804 548.629948 
L 726.180254 548.629948 
z
" clip-path="url(#p4243e9ef5a)" style="fill: #ffd700; opacity: 0.7"/>
   </g>
   <g id="patch_75">
    <path d="M 733.088621 652.757376 
L 743.451171 652.757376 
L 743.451171 547.064122 
L 733.088621 547.064122 
z
" clip-path="url(#p4243e9ef5a)" style="fill: #ffd700; opacity: 0.7"/>
   </g>
   <g id="patch_76">
    <path d="M 753.813721 652.757376 
L 764.176271 652.757376 
L 764.176271 522.619838 
L 753.813721 522.619838 
z
" clip-path="url(#p4243e9ef5a)" style="fill: #ffd700; opacity: 0.7"/>
   </g>
   <g id="patch_77">
    <path d="M 760.722088 652.757376 
L 771.084638 652.757376 
L 771.084638 520.338759 
L 760.722088 520.338759 
z
" clip-path="url(#p4243e9ef5a)" style="fill: #ffd700; opacity: 0.7"/>
   </g>
   <g id="patch_78">
    <path d="M 767.630455 652.757376 
L 777.993005 652.757376 
L 777.993005 516.704496 
L 767.630455 516.704496 
z
" clip-path="url(#p4243e9ef5a)" style="fill: #ffd700; opacity: 0.7"/>
   </g>
   <g id="patch_79">
    <path d="M 774.538821 652.757376 
L 784.901372 652.757376 
L 784.901372 525.968966 
L 774.538821 525.968966 
z
" clip-path="url(#p4243e9ef5a)" style="fill: #ffd700; opacity: 0.7"/>
   </g>
   <g id="patch_80">
    <path d="M 802.172288 652.757376 
L 812.534839 652.757376 
L 812.534839 531.811817 
L 802.172288 531.811817 
z
" clip-path="url(#p4243e9ef5a)" style="fill: #ffd700; opacity: 0.7"/>
   </g>
   <g id="patch_81">
    <path d="M 809.080655 652.757376 
L 819.443205 652.757376 
L 819.443205 523.315761 
L 809.080655 523.315761 
z
" clip-path="url(#p4243e9ef5a)" style="fill: #ffd700; opacity: 0.7"/>
   </g>
   <g id="patch_82">
    <path d="M 815.989022 652.757376 
L 826.351572 652.757376 
L 826.351572 534.141225 
L 815.989022 534.141225 
z
" clip-path="url(#p4243e9ef5a)" style="fill: #ffd700; opacity: 0.7"/>
   </g>
   <g id="patch_83">
    <path d="M 822.897389 652.757376 
L 833.259939 652.757376 
L 833.259939 529.912528 
L 822.897389 529.912528 
z
" clip-path="url(#p4243e9ef5a)" style="fill: #ffd700; opacity: 0.7"/>
   </g>
   <g id="patch_84">
    <path d="M 829.805755 652.757376 
L 840.168305 652.757376 
L 840.168305 508.585398 
L 829.805755 508.585398 
z
" clip-path="url(#p4243e9ef5a)" style="fill: #ffd700; opacity: 0.7"/>
   </g>
   <g id="patch_85">
    <path d="M 850.530856 652.757376 
L 860.893406 652.757376 
L 860.893406 512.103674 
L 850.530856 512.103674 
z
" clip-path="url(#p4243e9ef5a)" style="fill: #ffd700; opacity: 0.7"/>
   </g>
   <g id="patch_86">
    <path d="M 857.439222 652.757376 
L 867.801772 652.757376 
L 867.801772 515.4673 
L 857.439222 515.4673 
z
" clip-path="url(#p4243e9ef5a)" style="fill: #ffd700; opacity: 0.7"/>
   </g>
   <g id="patch_87">
    <path d="M 864.347589 652.757376 
L 874.710139 652.757376 
L 874.710139 516.704496 
L 864.347589 516.704496 
z
" clip-path="url(#p4243e9ef5a)" style="fill: #ffd700; opacity: 0.7"/>
   </g>
   <g id="patch_88">
    <path d="M 871.255956 652.757376 
L 881.618506 652.757376 
L 881.618506 501.462823 
L 871.255956 501.462823 
z
" clip-path="url(#p4243e9ef5a)" style="fill: #ffd700; opacity: 0.7"/>
   </g>
   <g id="patch_89">
    <path d="M 878.164323 652.757376 
L 888.526873 652.757376 
L 888.526873 504.317073 
L 878.164323 504.317073 
z
" clip-path="url(#p4243e9ef5a)" style="fill: #ffd700; opacity: 0.7"/>
   </g>
   <g id="patch_90">
    <path d="M 898.889423 652.757376 
L 909.251973 652.757376 
L 909.251973 514.396352 
L 898.889423 514.396352 
z
" clip-path="url(#p4243e9ef5a)" style="fill: #ffd700; opacity: 0.7"/>
   </g>
   <g id="patch_91">
    <path d="M 905.79779 652.757376 
L 916.16034 652.757376 
L 916.16034 492.857546 
L 905.79779 492.857546 
z
" clip-path="url(#p4243e9ef5a)" style="fill: #ffd700; opacity: 0.7"/>
   </g>
   <g id="patch_92">
    <path d="M 912.706156 652.757376 
L 923.068706 652.757376 
L 923.068706 483.996131 
L 912.706156 483.996131 
z
" clip-path="url(#p4243e9ef5a)" style="fill: #ffd700; opacity: 0.7"/>
   </g>
   <g id="patch_93">
    <path d="M 919.614523 652.757376 
L 929.977073 652.757376 
L 929.977073 446.24136 
L 919.614523 446.24136 
z
" clip-path="url(#p4243e9ef5a)" style="fill: #ffd700; opacity: 0.7"/>
   </g>
   <g id="patch_94">
    <path d="M 926.52289 652.757376 
L 936.88544 652.757376 
L 936.88544 438.558181 
L 926.52289 438.558181 
z
" clip-path="url(#p4243e9ef5a)" style="fill: #ffd700; opacity: 0.7"/>
   </g>
   <g id="patch_95">
    <path d="M 947.24799 652.757376 
L 957.61054 652.757376 
L 957.61054 456.734327 
L 947.24799 456.734327 
z
" clip-path="url(#p4243e9ef5a)" style="fill: #ffd700; opacity: 0.7"/>
   </g>
   <g id="patch_96">
    <path d="M 954.156357 652.757376 
L 964.518907 652.757376 
L 964.518907 468.52345 
L 954.156357 468.52345 
z
" clip-path="url(#p4243e9ef5a)" style="fill: #ffd700; opacity: 0.7"/>
   </g>
   <g id="patch_97">
    <path d="M 961.064723 652.757376 
L 971.427274 652.757376 
L 971.427274 478.011196 
L 961.064723 478.011196 
z
" clip-path="url(#p4243e9ef5a)" style="fill: #ffd700; opacity: 0.7"/>
   </g>
   <g id="patch_98">
    <path d="M 967.97309 652.757376 
L 978.33564 652.757376 
L 978.33564 459.093698 
L 967.97309 459.093698 
z
" clip-path="url(#p4243e9ef5a)" style="fill: #ffd700; opacity: 0.7"/>
   </g>
   <g id="patch_99">
    <path d="M 974.881457 652.757376 
L 985.244007 652.757376 
L 985.244007 455.319284 
L 974.881457 455.319284 
z
" clip-path="url(#p4243e9ef5a)" style="fill: #ffd700; opacity: 0.7"/>
   </g>
   <g id="patch_100">
    <path d="M 995.606557 652.757376 
L 1005.969107 652.757376 
L 1005.969107 438.274012 
L 995.606557 438.274012 
z
" clip-path="url(#p4243e9ef5a)" style="fill: #ffd700; opacity: 0.7"/>
   </g>
   <g id="patch_101">
    <path d="M 1002.514924 652.757376 
L 1012.877474 652.757376 
L 1012.877474 441.858014 
L 1002.514924 441.858014 
z
" clip-path="url(#p4243e9ef5a)" style="fill: #ffd700; opacity: 0.7"/>
   </g>
   <g id="patch_102">
    <path d="M 1009.423291 652.757376 
L 1019.785841 652.757376 
L 1019.785841 349.306099 
L 1009.423291 349.306099 
z
" clip-path="url(#p4243e9ef5a)" style="fill: #ffd700; opacity: 0.7"/>
   </g>
   <g id="patch_103">
    <path d="M 1016.331657 652.757376 
L 1026.694207 652.757376 
L 1026.694207 224.843231 
L 1016.331657 224.843231 
z
" clip-path="url(#p4243e9ef5a)" style="fill: #ffd700; opacity: 0.7"/>
   </g>
   <g id="patch_104">
    <path d="M 1023.240024 652.757376 
L 1033.602574 652.757376 
L 1033.602574 242.237432 
L 1023.240024 242.237432 
z
" clip-path="url(#p4243e9ef5a)" style="fill: #ffd700; opacity: 0.7"/>
   </g>
   <g id="patch_105">
    <path d="M 1043.965124 652.757376 
L 1054.327674 652.757376 
L 1054.327674 225.22019 
L 1043.965124 225.22019 
z
" clip-path="url(#p4243e9ef5a)" style="fill: #ffd700; opacity: 0.7"/>
   </g>
   <g id="patch_106">
    <path d="M 1050.873491 652.757376 
L 1061.236041 652.757376 
L 1061.236041 225.036543 
L 1050.873491 225.036543 
z
" clip-path="url(#p4243e9ef5a)" style="fill: #ffd700; opacity: 0.7"/>
   </g>
   <g id="patch_107">
    <path d="M 1057.781858 652.757376 
L 1068.144408 652.757376 
L 1068.144408 247.034465 
L 1057.781858 247.034465 
z
" clip-path="url(#p4243e9ef5a)" style="fill: #ffd700; opacity: 0.7"/>
   </g>
   <g id="patch_108">
    <path d="M 1064.690225 652.757376 
L 1075.052775 652.757376 
L 1075.052775 210.232722 
L 1064.690225 210.232722 
z
" clip-path="url(#p4243e9ef5a)" style="fill: #ffd700; opacity: 0.7"/>
   </g>
   <g id="patch_109">
    <path d="M 1071.598591 652.757376 
L 1081.961141 652.757376 
L 1081.961141 162.244022 
L 1071.598591 162.244022 
z
" clip-path="url(#p4243e9ef5a)" style="fill: #ffd700; opacity: 0.7"/>
   </g>
   <g id="patch_110">
    <path d="M 1092.323691 652.757376 
L 1102.686242 652.757376 
L 1102.686242 172.332967 
L 1092.323691 172.332967 
z
" clip-path="url(#p4243e9ef5a)" style="fill: #ffd700; opacity: 0.7"/>
   </g>
   <g id="patch_111">
    <path d="M 1099.232058 652.757376 
L 1109.594608 652.757376 
L 1109.594608 181.640933 
L 1099.232058 181.640933 
z
" clip-path="url(#p4243e9ef5a)" style="fill: #ffd700; opacity: 0.7"/>
   </g>
   <g id="patch_112">
    <path d="M 1106.140425 652.757376 
L 1116.502975 652.757376 
L 1116.502975 134.294994 
L 1106.140425 134.294994 
z
" clip-path="url(#p4243e9ef5a)" style="fill: #ffd700; opacity: 0.7"/>
   </g>
   <g id="patch_113">
    <path d="M 1113.048792 652.757376 
L 1123.411342 652.757376 
L 1123.411342 124.022403 
L 1113.048792 124.022403 
z
" clip-path="url(#p4243e9ef5a)" style="fill: #ffd700; opacity: 0.7"/>
   </g>
   <g id="patch_114">
    <path d="M 1119.957158 652.757376 
L 1130.319709 652.757376 
L 1130.319709 108.052911 
L 1119.957158 108.052911 
z
" clip-path="url(#p4243e9ef5a)" style="fill: #ffd700; opacity: 0.7"/>
   </g>
   <g id="patch_115">
    <path d="M 1140.682259 652.757376 
L 1151.044809 652.757376 
L 1151.044809 123.701505 
L 1140.682259 123.701505 
z
" clip-path="url(#p4243e9ef5a)" style="fill: #ffd700; opacity: 0.7"/>
   </g>
   <g id="patch_116">
    <path d="M 1147.590625 652.757376 
L 1157.953176 652.757376 
L 1157.953176 133.674463 
L 1147.590625 133.674463 
z
" clip-path="url(#p4243e9ef5a)" style="fill: #ffd700; opacity: 0.7"/>
   </g>
   <g id="patch_117">
    <path d="M 1154.498992 652.757376 
L 1164.861542 652.757376 
L 1164.861542 149.00506 
L 1154.498992 149.00506 
z
" clip-path="url(#p4243e9ef5a)" style="fill: #ffd700; opacity: 0.7"/>
   </g>
   <g id="patch_118">
    <path d="M 1161.407359 652.757376 
L 1171.769909 652.757376 
L 1171.769909 151.629268 
L 1161.407359 151.629268 
z
" clip-path="url(#p4243e9ef5a)" style="fill: #ffd700; opacity: 0.7"/>
   </g>
   <g id="patch_119">
    <path d="M 1168.315726 652.757376 
L 1178.678276 652.757376 
L 1178.678276 163.920035 
L 1168.315726 163.920035 
z
" clip-path="url(#p4243e9ef5a)" style="fill: #ffd700; opacity: 0.7"/>
   </g>
   <g id="patch_120">
    <path d="M 1189.040826 652.757376 
L 1199.403376 652.757376 
L 1199.403376 180.364108 
L 1189.040826 180.364108 
z
" clip-path="url(#p4243e9ef5a)" style="fill: #ffd700; opacity: 0.7"/>
   </g>
   <g id="patch_121">
    <path d="M 1195.949193 652.757376 
L 1206.311743 652.757376 
L 1206.311743 181.069696 
L 1195.949193 181.069696 
z
" clip-path="url(#p4243e9ef5a)" style="fill: #ffd700; opacity: 0.7"/>
   </g>
   <g id="patch_122">
    <path d="M 1202.857559 652.757376 
L 1213.220109 652.757376 
L 1213.220109 156.28905 
L 1202.857559 156.28905 
z
" clip-path="url(#p4243e9ef5a)" style="fill: #ffd700; opacity: 0.7"/>
   </g>
   <g id="patch_123">
    <path d="M 1216.674293 652.757376 
L 1227.036843 652.757376 
L 1227.036843 155.92949 
L 1216.674293 155.92949 
z
" clip-path="url(#p4243e9ef5a)" style="fill: #ffd700; opacity: 0.7"/>
   </g>
   <g id="patch_124">
    <path d="M 1237.399393 652.757376 
L 1247.761943 652.757376 
L 1247.761943 172.194749 
L 1237.399393 172.194749 
z
" clip-path="url(#p4243e9ef5a)" style="fill: #ffd700; opacity: 0.7"/>
   </g>
   <g id="patch_125">
    <path d="M 1244.30776 652.757376 
L 1254.67031 652.757376 
L 1254.67031 192.931311 
L 1244.30776 192.931311 
z
" clip-path="url(#p4243e9ef5a)" style="fill: #ffd700; opacity: 0.7"/>
   </g>
   <g id="patch_126">
    <path d="M 1251.216127 652.757376 
L 1261.578677 652.757376 
L 1261.578677 210.533322 
L 1251.216127 210.533322 
z
" clip-path="url(#p4243e9ef5a)" style="fill: #ffd700; opacity: 0.7"/>
   </g>
   <g id="patch_127">
    <path d="M 1265.03286 652.757376 
L 1275.39541 652.757376 
L 1275.39541 211.496981 
L 1265.03286 211.496981 
z
" clip-path="url(#p4243e9ef5a)" style="fill: #ffd700; opacity: 0.7"/>
   </g>
   <g id="patch_128">
    <path d="M 1285.75796 652.757376 
L 1296.12051 652.757376 
L 1296.12051 219.883816 
L 1285.75796 219.883816 
z
" clip-path="url(#p4243e9ef5a)" style="fill: #ffd700; opacity: 0.7"/>
   </g>
   <g id="patch_129">
    <path d="M 1292.666327 652.757376 
L 1303.028877 652.757376 
L 1303.028877 233.324789 
L 1292.666327 233.324789 
z
" clip-path="url(#p4243e9ef5a)" style="fill: #ffd700; opacity: 0.7"/>
   </g>
   <g id="patch_130">
    <path d="M 1299.574694 652.757376 
L 1309.937244 652.757376 
L 1309.937244 243.817756 
L 1299.574694 243.817756 
z
" clip-path="url(#p4243e9ef5a)" style="fill: #ffd700; opacity: 0.7"/>
   </g>
   <g id="patch_131">
    <path d="M 1306.48306 652.757376 
L 1316.845611 652.757376 
L 1316.845611 200.581628 
L 1306.48306 200.581628 
z
" clip-path="url(#p4243e9ef5a)" style="fill: #ffd700; opacity: 0.7"/>
   </g>
   <g id="patch_132">
    <path d="M 1313.391427 652.757376 
L 1323.753977 652.757376 
L 1323.753977 199.955297 
L 1313.391427 199.955297 
z
" clip-path="url(#p4243e9ef5a)" style="fill: #ffd700; opacity: 0.7"/>
   </g>
   <g id="text_48">
    <!-- 博盛半導體 (7712): 融資餘額與股價分析 -->
    <g transform="translate(630.910703 17.077969) scale(0.13 -0.13)">
     <defs>
      <path id="DejaVuSans-Bold-535a" d="M 319 -1131 
L 319 4513 
L 3519 4513 
L 3519 -1131 
L 319 -1131 
z
M 678 -775 
L 3163 -775 
L 3163 4153 
L 678 4153 
L 678 -775 
z
" transform="scale(0.015625)"/>
      <path id="DejaVuSans-Bold-76db" d="M 319 -1131 
L 319 4513 
L 3519 4513 
L 3519 -1131 
L 319 -1131 
z
M 678 -775 
L 3163 -775 
L 3163 4153 
L 678 4153 
L 678 -775 
z
" transform="scale(0.015625)"/>
      <path id="DejaVuSans-Bold-534a" d="M 319 -1131 
L 319 4513 
L 3519 4513 
L 3519 -1131 
L 319 -1131 
z
M 678 -775 
L 3163 -775 
L 3163 4153 
L 678 4153 
L 678 -775 
z
" transform="scale(0.015625)"/>
      <path id="DejaVuSans-Bold-5c0e" d="M 319 -1131 
L 319 4513 
L 3519 4513 
L 3519 -1131 
L 319 -1131 
z
M 678 -775 
L 3163 -775 
L 3163 4153 
L 678 4153 
L 678 -775 
z
" transform="scale(0.015625)"/>
      <path id="DejaVuSans-Bold-9ad4" d="M 319 -1131 
L 319 4513 
L 3519 4513 
L 3519 -1131 
L 319 -1131 
z
M 678 -775 
L 3163 -775 
L 3163 4153 
L 678 4153 
L 678 -775 
z
" transform="scale(0.015625)"/>
      <path id="DejaVuSans-Bold-37" d="M 428 4666 
L 3944 4666 
L 3944 3988 
L 2125 0 
L 953 0 
L 2675 3781 
L 428 3781 
L 428 4666 
z
" transform="scale(0.015625)"/>
      <path id="DejaVuSans-Bold-31" d="M 750 831 
L 1813 831 
L 1813 3847 
L 722 3622 
L 722 4441 
L 1806 4666 
L 2950 4666 
L 2950 831 
L 4013 831 
L 4013 0 
L 750 0 
L 750 831 
z
" transform="scale(0.015625)"/>
      <path id="DejaVuSans-Bold-32" d="M 1844 884 
L 3897 884 
L 3897 0 
L 506 0 
L 506 884 
L 2209 2388 
Q 2438 2594 2547 2791 
Q 2656 2988 2656 3200 
Q 2656 3528 2436 3728 
Q 2216 3928 1850 3928 
Q 1569 3928 1234 3808 
Q 900 3688 519 3450 
L 519 4475 
Q 925 4609 1322 4679 
Q 1719 4750 2100 4750 
Q 2938 4750 3402 4381 
Q 3866 4013 3866 3353 
Q 3866 2972 3669 2642 
Q 3472 2313 2841 1759 
L 1844 884 
z
" transform="scale(0.015625)"/>
      <path id="DejaVuSans-Bold-3a" d="M 716 3500 
L 1844 3500 
L 1844 2291 
L 716 2291 
L 716 3500 
z
M 716 1209 
L 1844 1209 
L 1844 0 
L 716 0 
L 716 1209 
z
" transform="scale(0.015625)"/>
      <path id="DejaVuSans-Bold-8207" d="M 319 -1131 
L 319 4513 
L 3519 4513 
L 3519 -1131 
L 319 -1131 
z
M 678 -775 
L 3163 -775 
L 3163 4153 
L 678 4153 
L 678 -775 
z
" transform="scale(0.015625)"/>
      <path id="DejaVuSans-Bold-80a1" d="M 319 -1131 
L 319 4513 
L 3519 4513 
L 3519 -1131 
L 319 -1131 
z
M 678 -775 
L 3163 -775 
L 3163 4153 
L 678 4153 
L 678 -775 
z
" transform="scale(0.015625)"/>
      <path id="DejaVuSans-Bold-5206" d="M 319 -1131 
L 319 4513 
L 3519 4513 
L 3519 -1131 
L 319 -1131 
z
M 678 -775 
L 3163 -775 
L 3163 4153 
L 678 4153 
L 678 -775 
z
" transform="scale(0.015625)"/>
      <path id="DejaVuSans-Bold-6790" d="M 319 -1131 
L 319 4513 
L 3519 4513 
L 3519 -1131 
L 319 -1131 
z
M 678 -775 
L 3163 -775 
L 3163 4153 
L 678 4153 
L 678 -775 
z
" transform="scale(0.015625)"/>
     </defs>
     <use xlink:href="#DejaVuSans-Bold-535a"/>
     <use xlink:href="#DejaVuSans-Bold-76db" x="60.009766"/>
     <use xlink:href="#DejaVuSans-Bold-534a" x="120.019531"/>
     <use xlink:href="#DejaVuSans-Bold-5c0e" x="180.029297"/>
     <use xlink:href="#DejaVuSans-Bold-9ad4" x="240.039062"/>
     <use xlink:href="#DejaVuSans-Bold-20" x="300.048828"/>
     <use xlink:href="#DejaVuSans-Bold-28" x="334.863281"/>
     <use xlink:href="#DejaVuSans-Bold-37" x="380.566406"/>
     <use xlink:href="#DejaVuSans-Bold-37" x="450.146484"/>
     <use xlink:href="#DejaVuSans-Bold-31" x="519.726562"/>
     <use xlink:href="#DejaVuSans-Bold-32" x="589.306641"/>
     <use xlink:href="#DejaVuSans-Bold-29" x="658.886719"/>
     <use xlink:href="#DejaVuSans-Bold-3a" x="704.589844"/>
     <use xlink:href="#DejaVuSans-Bold-20" x="744.580078"/>
     <use xlink:href="#DejaVuSans-Bold-878d" x="779.394531"/>
     <use xlink:href="#DejaVuSans-Bold-8cc7" x="839.404297"/>
     <use xlink:href="#DejaVuSans-Bold-9918" x="899.414062"/>
     <use xlink:href="#DejaVuSans-Bold-984d" x="959.423828"/>
     <use xlink:href="#DejaVuSans-Bold-8207" x="1019.433594"/>
     <use xlink:href="#DejaVuSans-Bold-80a1" x="1079.443359"/>
     <use xlink:href="#DejaVuSans-Bold-50f9" x="1139.453125"/>
     <use xlink:href="#DejaVuSans-Bold-5206" x="1199.462891"/>
     <use xlink:href="#DejaVuSans-Bold-6790" x="1259.472656"/>
    </g>
    <!-- (最近 120 個交易日, 2025-07-18 ~ 2026-01-09) -->
    <g transform="translate(571.384922 31.635125) scale(0.13 -0.13)">
     <defs>
      <path id="DejaVuSans-Bold-6700" d="M 319 -1131 
L 319 4513 
L 3519 4513 
L 3519 -1131 
L 319 -1131 
z
M 678 -775 
L 3163 -775 
L 3163 4153 
L 678 4153 
L 678 -775 
z
" transform="scale(0.015625)"/>
      <path id="DejaVuSans-Bold-8fd1" d="M 319 -1131 
L 319 4513 
L 3519 4513 
L 3519 -1131 
L 319 -1131 
z
M 678 -775 
L 3163 -775 
L 3163 4153 
L 678 4153 
L 678 -775 
z
" transform="scale(0.015625)"/>
      <path id="DejaVuSans-Bold-30" d="M 2944 2338 
Q 2944 3213 2780 3570 
Q 2616 3928 2228 3928 
Q 1841 3928 1675 3570 
Q 1509 3213 1509 2338 
Q 1509 1453 1675 1090 
Q 1841 728 2228 728 
Q 2613 728 2778 1090 
Q 2944 1453 2944 2338 
z
M 4147 2328 
Q 4147 1169 3647 539 
Q 3147 -91 2228 -91 
Q 1306 -91 806 539 
Q 306 1169 306 2328 
Q 306 3491 806 4120 
Q 1306 4750 2228 4750 
Q 3147 4750 3647 4120 
Q 4147 3491 4147 2328 
z
" transform="scale(0.015625)"/>
      <path id="DejaVuSans-Bold-500b" d="M 319 -1131 
L 319 4513 
L 3519 4513 
L 3519 -1131 
L 319 -1131 
z
M 678 -775 
L 3163 -775 
L 3163 4153 
L 678 4153 
L 678 -775 
z
" transform="scale(0.015625)"/>
      <path id="DejaVuSans-Bold-4ea4" d="M 319 -1131 
L 319 4513 
L 3519 4513 
L 3519 -1131 
L 319 -1131 
z
M 678 -775 
L 3163 -775 
L 3163 4153 
L 678 4153 
L 678 -775 
z
" transform="scale(0.015625)"/>
      <path id="DejaVuSans-Bold-6613" d="M 319 -1131 
L 319 4513 
L 3519 4513 
L 3519 -1131 
L 319 -1131 
z
M 678 -775 
L 3163 -775 
L 3163 4153 
L 678 4153 
L 678 -775 
z
" transform="scale(0.015625)"/>
      <path id="DejaVuSans-Bold-2c" d="M 653 1209 
L 1778 1209 
L 1778 256 
L 1006 -909 
L 341 -909 
L 653 256 
L 653 1209 
z
" transform="scale(0.015625)"/>
      <path id="DejaVuSans-Bold-35" d="M 678 4666 
L 3669 4666 
L 3669 3781 
L 1638 3781 
L 1638 3059 
Q 1775 3097 1914 3117 
Q 2053 3138 2203 3138 
Q 3056 3138 3531 2711 
Q 4006 2284 4006 1522 
Q 4006 766 3489 337 
Q 2972 -91 2053 -91 
Q 1656 -91 1267 -14 
Q 878 63 494 219 
L 494 1166 
Q 875 947 1217 837 
Q 1559 728 1863 728 
Q 2300 728 2551 942 
Q 2803 1156 2803 1522 
Q 2803 1891 2551 2103 
Q 2300 2316 1863 2316 
Q 1603 2316 1309 2248 
Q 1016 2181 678 2041 
L 678 4666 
z
" transform="scale(0.015625)"/>
      <path id="DejaVuSans-Bold-2d" d="M 347 2297 
L 2309 2297 
L 2309 1388 
L 347 1388 
L 347 2297 
z
" transform="scale(0.015625)"/>
      <path id="DejaVuSans-Bold-38" d="M 2228 2088 
Q 1891 2088 1709 1903 
Q 1528 1719 1528 1375 
Q 1528 1031 1709 848 
Q 1891 666 2228 666 
Q 2563 666 2741 848 
Q 2919 1031 2919 1375 
Q 2919 1722 2741 1905 
Q 2563 2088 2228 2088 
z
M 1350 2484 
Q 925 2613 709 2878 
Q 494 3144 494 3541 
Q 494 4131 934 4440 
Q 1375 4750 2228 4750 
Q 3075 4750 3515 4442 
Q 3956 4134 3956 3541 
Q 3956 3144 3739 2878 
Q 3522 2613 3097 2484 
Q 3572 2353 3814 2058 
Q 4056 1763 4056 1313 
Q 4056 619 3595 264 
Q 3134 -91 2228 -91 
Q 1319 -91 855 264 
Q 391 619 391 1313 
Q 391 1763 633 2058 
Q 875 2353 1350 2484 
z
M 1631 3419 
Q 1631 3141 1786 2991 
Q 1941 2841 2228 2841 
Q 2509 2841 2662 2991 
Q 2816 3141 2816 3419 
Q 2816 3697 2662 3845 
Q 2509 3994 2228 3994 
Q 1941 3994 1786 3844 
Q 1631 3694 1631 3419 
z
" transform="scale(0.015625)"/>
      <path id="DejaVuSans-Bold-7e" d="M 4684 2656 
L 4684 1894 
Q 4353 1644 4073 1536 
Q 3794 1428 3494 1428 
Q 3159 1428 2713 1609 
Q 2669 1628 2644 1638 
Q 2622 1647 2575 1666 
Q 2091 1856 1797 1856 
Q 1522 1856 1253 1736 
Q 984 1616 678 1356 
L 678 2119 
Q 1013 2369 1291 2476 
Q 1569 2584 1869 2584 
Q 2203 2584 2650 2403 
Q 2697 2384 2719 2375 
Q 2741 2366 2788 2347 
Q 3272 2156 3566 2156 
Q 3834 2156 4098 2273 
Q 4363 2391 4684 2656 
z
" transform="scale(0.015625)"/>
      <path id="DejaVuSans-Bold-36" d="M 2316 2303 
Q 2000 2303 1842 2098 
Q 1684 1894 1684 1484 
Q 1684 1075 1842 870 
Q 2000 666 2316 666 
Q 2634 666 2792 870 
Q 2950 1075 2950 1484 
Q 2950 1894 2792 2098 
Q 2634 2303 2316 2303 
z
M 3803 4544 
L 3803 3681 
Q 3506 3822 3243 3889 
Q 2981 3956 2731 3956 
Q 2194 3956 1894 3657 
Q 1594 3359 1544 2772 
Q 1750 2925 1990 3001 
Q 2231 3078 2516 3078 
Q 3231 3078 3670 2659 
Q 4109 2241 4109 1563 
Q 4109 813 3618 361 
Q 3128 -91 2303 -91 
Q 1394 -91 895 523 
Q 397 1138 397 2266 
Q 397 3422 980 4083 
Q 1563 4744 2578 4744 
Q 2900 4744 3203 4694 
Q 3506 4644 3803 4544 
z
" transform="scale(0.015625)"/>
      <path id="DejaVuSans-Bold-39" d="M 641 103 
L 641 966 
Q 928 831 1190 764 
Q 1453 697 1709 697 
Q 2247 697 2547 995 
Q 2847 1294 2900 1881 
Q 2688 1725 2447 1647 
Q 2206 1569 1925 1569 
Q 1209 1569 770 1986 
Q 331 2403 331 3084 
Q 331 3838 820 4291 
Q 1309 4744 2131 4744 
Q 3044 4744 3544 4128 
Q 4044 3513 4044 2388 
Q 4044 1231 3459 570 
Q 2875 -91 1856 -91 
Q 1528 -91 1228 -42 
Q 928 6 641 103 
z
M 2125 2350 
Q 2441 2350 2600 2554 
Q 2759 2759 2759 3169 
Q 2759 3575 2600 3781 
Q 2441 3988 2125 3988 
Q 1809 3988 1650 3781 
Q 1491 3575 1491 3169 
Q 1491 2759 1650 2554 
Q 1809 2350 2125 2350 
z
" transform="scale(0.015625)"/>
     </defs>
     <use xlink:href="#DejaVuSans-Bold-28"/>
     <use xlink:href="#DejaVuSans-Bold-6700" x="45.703125"/>
     <use xlink:href="#DejaVuSans-Bold-8fd1" x="105.712891"/>
     <use xlink:href="#DejaVuSans-Bold-20" x="165.722656"/>
     <use xlink:href="#DejaVuSans-Bold-31" x="200.537109"/>
     <use xlink:href="#DejaVuSans-Bold-32" x="270.117188"/>
     <use xlink:href="#DejaVuSans-Bold-30" x="339.697266"/>
     <use xlink:href="#DejaVuSans-Bold-20" x="409.277344"/>
     <use xlink:href="#DejaVuSans-Bold-500b" x="444.091797"/>
     <use xlink:href="#DejaVuSans-Bold-4ea4" x="504.101562"/>
     <use xlink:href="#DejaVuSans-Bold-6613" x="564.111328"/>
     <use xlink:href="#DejaVuSans-Bold-65e5" x="624.121094"/>
     <use xlink:href="#DejaVuSans-Bold-2c" x="684.130859"/>
     <use xlink:href="#DejaVuSans-Bold-20" x="722.119141"/>
     <use xlink:href="#DejaVuSans-Bold-32" x="756.933594"/>
     <use xlink:href="#DejaVuSans-Bold-30" x="826.513672"/>
     <use xlink:href="#DejaVuSans-Bold-32" x="896.09375"/>
     <use xlink:href="#DejaVuSans-Bold-35" x="965.673828"/>
     <use xlink:href="#DejaVuSans-Bold-2d" x="1035.253906"/>
     <use xlink:href="#DejaVuSans-Bold-30" x="1076.757812"/>
     <use xlink:href="#DejaVuSans-Bold-37" x="1146.337891"/>
     <use xlink:href="#DejaVuSans-Bold-2d" x="1215.917969"/>
     <use xlink:href="#DejaVuSans-Bold-31" x="1257.421875"/>
     <use xlink:href="#DejaVuSans-Bold-38" x="1327.001953"/>
     <use xlink:href="#DejaVuSans-Bold-20" x="1396.582031"/>
     <use xlink:href="#DejaVuSans-Bold-7e" x="1431.396484"/>
     <use xlink:href="#DejaVuSans-Bold-20" x="1515.185547"/>
     <use xlink:href="#DejaVuSans-Bold-32" x="1550"/>
     <use xlink:href="#DejaVuSans-Bold-30" x="1619.580078"/>
     <use xlink:href="#DejaVuSans-Bold-32" x="1689.160156"/>
     <use xlink:href="#DejaVuSans-Bold-36" x="1758.740234"/>
     <use xlink:href="#DejaVuSans-Bold-2d" x="1828.320312"/>
     <use xlink:href="#DejaVuSans-Bold-30" x="1869.824219"/>
     <use xlink:href="#DejaVuSans-Bold-31" x="1939.404297"/>
     <use xlink:href="#DejaVuSans-Bold-2d" x="2008.984375"/>
     <use xlink:href="#DejaVuSans-Bold-30" x="2050.488281"/>
     <use xlink:href="#DejaVuSans-Bold-39" x="2120.068359"/>
     <use xlink:href="#DejaVuSans-Bold-29" x="2189.648438"/>
    </g>
    <!--  -->
    <g transform="translate(716.68125 46.192281) scale(0.13 -0.13)"/>
    <!-- 最新融資餘額: 0.5 億元 | 最新收盤價: 81.90 元 | 歷史區間: nan~nan 億元 | 平均: nan 億元 -->
    <g transform="translate(495.415156 60.817687) scale(0.13 -0.13)">
     <defs>
      <path id="DejaVuSans-Bold-65b0" d="M 319 -1131 
L 319 4513 
L 3519 4513 
L 3519 -1131 
L 319 -1131 
z
M 678 -775 
L 3163 -775 
L 3163 4153 
L 678 4153 
L 678 -775 
z
" transform="scale(0.015625)"/>
      <path id="DejaVuSans-Bold-2e" d="M 653 1209 
L 1778 1209 
L 1778 0 
L 653 0 
L 653 1209 
z
" transform="scale(0.015625)"/>
      <path id="DejaVuSans-Bold-7c" d="M 1522 4891 
L 1522 -1509 
L 813 -1509 
L 813 4891 
L 1522 4891 
z
" transform="scale(0.015625)"/>
      <path id="DejaVuSans-Bold-6b77" d="M 319 -1131 
L 319 4513 
L 3519 4513 
L 3519 -1131 
L 319 -1131 
z
M 678 -775 
L 3163 -775 
L 3163 4153 
L 678 4153 
L 678 -775 
z
" transform="scale(0.015625)"/>
      <path id="DejaVuSans-Bold-53f2" d="M 319 -1131 
L 319 4513 
L 3519 4513 
L 3519 -1131 
L 319 -1131 
z
M 678 -775 
L 3163 -775 
L 3163 4153 
L 678 4153 
L 678 -775 
z
" transform="scale(0.015625)"/>
      <path id="DejaVuSans-Bold-5340" d="M 319 -1131 
L 319 4513 
L 3519 4513 
L 3519 -1131 
L 319 -1131 
z
M 678 -775 
L 3163 -775 
L 3163 4153 
L 678 4153 
L 678 -775 
z
" transform="scale(0.015625)"/>
      <path id="DejaVuSans-Bold-9593" d="M 319 -1131 
L 319 4513 
L 3519 4513 
L 3519 -1131 
L 319 -1131 
z
M 678 -775 
L 3163 -775 
L 3163 4153 
L 678 4153 
L 678 -775 
z
" transform="scale(0.015625)"/>
      <path id="DejaVuSans-Bold-6e" d="M 4056 2131 
L 4056 0 
L 2931 0 
L 2931 347 
L 2931 1631 
Q 2931 2084 2911 2256 
Q 2891 2428 2841 2509 
Q 2775 2619 2662 2680 
Q 2550 2741 2406 2741 
Q 2056 2741 1856 2470 
Q 1656 2200 1656 1722 
L 1656 0 
L 538 0 
L 538 3500 
L 1656 3500 
L 1656 2988 
Q 1909 3294 2193 3439 
Q 2478 3584 2822 3584 
Q 3428 3584 3742 3212 
Q 4056 2841 4056 2131 
z
" transform="scale(0.015625)"/>
      <path id="DejaVuSans-Bold-61" d="M 2106 1575 
Q 1756 1575 1579 1456 
Q 1403 1338 1403 1106 
Q 1403 894 1545 773 
Q 1688 653 1941 653 
Q 2256 653 2472 879 
Q 2688 1106 2688 1447 
L 2688 1575 
L 2106 1575 
z
M 3816 1997 
L 3816 0 
L 2688 0 
L 2688 519 
Q 2463 200 2181 54 
Q 1900 -91 1497 -91 
Q 953 -91 614 226 
Q 275 544 275 1050 
Q 275 1666 698 1953 
Q 1122 2241 2028 2241 
L 2688 2241 
L 2688 2328 
Q 2688 2594 2478 2717 
Q 2269 2841 1825 2841 
Q 1466 2841 1156 2769 
Q 847 2697 581 2553 
L 581 3406 
Q 941 3494 1303 3539 
Q 1666 3584 2028 3584 
Q 2975 3584 3395 3211 
Q 3816 2838 3816 1997 
z
" transform="scale(0.015625)"/>
      <path id="DejaVuSans-Bold-5e73" d="M 319 -1131 
L 319 4513 
L 3519 4513 
L 3519 -1131 
L 319 -1131 
z
M 678 -775 
L 3163 -775 
L 3163 4153 
L 678 4153 
L 678 -775 
z
" transform="scale(0.015625)"/>
      <path id="DejaVuSans-Bold-5747" d="M 319 -1131 
L 319 4513 
L 3519 4513 
L 3519 -1131 
L 319 -1131 
z
M 678 -775 
L 3163 -775 
L 3163 4153 
L 678 4153 
L 678 -775 
z
" transform="scale(0.015625)"/>
     </defs>
     <use xlink:href="#DejaVuSans-Bold-6700"/>
     <use xlink:href="#DejaVuSans-Bold-65b0" x="60.009766"/>
     <use xlink:href="#DejaVuSans-Bold-878d" x="120.019531"/>
     <use xlink:href="#DejaVuSans-Bold-8cc7" x="180.029297"/>
     <use xlink:href="#DejaVuSans-Bold-9918" x="240.039062"/>
     <use xlink:href="#DejaVuSans-Bold-984d" x="300.048828"/>
     <use xlink:href="#DejaVuSans-Bold-3a" x="360.058594"/>
     <use xlink:href="#DejaVuSans-Bold-20" x="400.048828"/>
     <use xlink:href="#DejaVuSans-Bold-30" x="434.863281"/>
     <use xlink:href="#DejaVuSans-Bold-2e" x="504.443359"/>
     <use xlink:href="#DejaVuSans-Bold-35" x="542.431641"/>
     <use xlink:href="#DejaVuSans-Bold-20" x="612.011719"/>
     <use xlink:href="#DejaVuSans-Bold-5104" x="646.826172"/>
     <use xlink:href="#DejaVuSans-Bold-5143" x="706.835938"/>
     <use xlink:href="#DejaVuSans-Bold-20" x="766.845703"/>
     <use xlink:href="#DejaVuSans-Bold-7c" x="801.660156"/>
     <use xlink:href="#DejaVuSans-Bold-20" x="838.183594"/>
     <use xlink:href="#DejaVuSans-Bold-6700" x="872.998047"/>
     <use xlink:href="#DejaVuSans-Bold-65b0" x="933.007812"/>
     <use xlink:href="#DejaVuSans-Bold-6536" x="993.017578"/>
     <use xlink:href="#DejaVuSans-Bold-76e4" x="1053.027344"/>
     <use xlink:href="#DejaVuSans-Bold-50f9" x="1113.037109"/>
     <use xlink:href="#DejaVuSans-Bold-3a" x="1173.046875"/>
     <use xlink:href="#DejaVuSans-Bold-20" x="1213.037109"/>
     <use xlink:href="#DejaVuSans-Bold-38" x="1247.851562"/>
     <use xlink:href="#DejaVuSans-Bold-31" x="1317.431641"/>
     <use xlink:href="#DejaVuSans-Bold-2e" x="1387.011719"/>
     <use xlink:href="#DejaVuSans-Bold-39" x="1425"/>
     <use xlink:href="#DejaVuSans-Bold-30" x="1494.580078"/>
     <use xlink:href="#DejaVuSans-Bold-20" x="1564.160156"/>
     <use xlink:href="#DejaVuSans-Bold-5143" x="1598.974609"/>
     <use xlink:href="#DejaVuSans-Bold-20" x="1658.984375"/>
     <use xlink:href="#DejaVuSans-Bold-7c" x="1693.798828"/>
     <use xlink:href="#DejaVuSans-Bold-20" x="1730.322266"/>
     <use xlink:href="#DejaVuSans-Bold-6b77" x="1765.136719"/>
     <use xlink:href="#DejaVuSans-Bold-53f2" x="1825.146484"/>
     <use xlink:href="#DejaVuSans-Bold-5340" x="1885.15625"/>
     <use xlink:href="#DejaVuSans-Bold-9593" x="1945.166016"/>
     <use xlink:href="#DejaVuSans-Bold-3a" x="2005.175781"/>
     <use xlink:href="#DejaVuSans-Bold-20" x="2045.166016"/>
     <use xlink:href="#DejaVuSans-Bold-6e" x="2079.980469"/>
     <use xlink:href="#DejaVuSans-Bold-61" x="2151.171875"/>
     <use xlink:href="#DejaVuSans-Bold-6e" x="2218.652344"/>
     <use xlink:href="#DejaVuSans-Bold-7e" x="2289.84375"/>
     <use xlink:href="#DejaVuSans-Bold-6e" x="2373.632812"/>
     <use xlink:href="#DejaVuSans-Bold-61" x="2444.824219"/>
     <use xlink:href="#DejaVuSans-Bold-6e" x="2512.304688"/>
     <use xlink:href="#DejaVuSans-Bold-20" x="2583.496094"/>
     <use xlink:href="#DejaVuSans-Bold-5104" x="2618.310547"/>
     <use xlink:href="#DejaVuSans-Bold-5143" x="2678.320312"/>
     <use xlink:href="#DejaVuSans-Bold-20" x="2738.330078"/>
     <use xlink:href="#DejaVuSans-Bold-7c" x="2773.144531"/>
     <use xlink:href="#DejaVuSans-Bold-20" x="2809.667969"/>
     <use xlink:href="#DejaVuSans-Bold-5e73" x="2844.482422"/>
     <use xlink:href="#DejaVuSans-Bold-5747" x="2904.492188"/>
     <use xlink:href="#DejaVuSans-Bold-3a" x="2964.501953"/>
     <use xlink:href="#DejaVuSans-Bold-20" x="3004.492188"/>
     <use xlink:href="#DejaVuSans-Bold-6e" x="3039.306641"/>
     <use xlink:href="#DejaVuSans-Bold-61" x="3110.498047"/>
     <use xlink:href="#DejaVuSans-Bold-6e" x="3177.978516"/>
     <use xlink:href="#DejaVuSans-Bold-20" x="3249.169922"/>
     <use xlink:href="#DejaVuSans-Bold-5104" x="3283.984375"/>
     <use xlink:href="#DejaVuSans-Bold-5143" x="3343.994141"/>
    </g>
   </g>
  </g>
 </g>
 <defs>
  <clipPath id="p4243e9ef5a">
   <rect x="48.90125" y="80.817687" width="1335.56" height="571.939688"/>
  </clipPath>
 </defs>
</svg>
