<?xml version="1.0" encoding="utf-8" standalone="no"?>
<!DOCTYPE svg PUBLIC "-//W3C//DTD SVG 1.1//EN"
  "http://www.w3.org/Graphics/SVG/1.1/DTD/svg11.dtd">
<svg xmlns:xlink="http://www.w3.org/1999/xlink" width="1430.330625pt" height="710.4271pt" viewBox="0 0 1430.330625 710.4271" xmlns="http://www.w3.org/2000/svg" version="1.1">
 <metadata>
  <rdf:RDF xmlns:dc="http://purl.org/dc/elements/1.1/" xmlns:cc="http://creativecommons.org/ns#" xmlns:rdf="http://www.w3.org/1999/02/22-rdf-syntax-ns#">
   <cc:Work>
    <dc:type rdf:resource="http://purl.org/dc/dcmitype/StillImage"/>
    <dc:date>2026-01-11T20:28:09.126724</dc:date>
    <dc:format>image/svg+xml</dc:format>
    <dc:creator>
     <cc:Agent>
      <dc:title>Matplotlib v3.9.4, https://matplotlib.org/</dc:title>
     </cc:Agent>
    </dc:creator>
   </cc:Work>
  </rdf:RDF>
 </metadata>
 <defs>
  <style type="text/css">*{stroke-linejoin: round; stroke-linecap: butt}</style>
 </defs>
 <g id="figure_1">
  <g id="patch_1">
   <path d="M 0 710.4271 
L 1430.330625 710.4271 
L 1430.330625 0 
L 0 0 
z
" style="fill: #ffffff"/>
  </g>
  <g id="axes_1">
   <g id="patch_2">
    <path d="M 48.90125 644.224972 
L 1318.25125 644.224972 
L 1318.25125 96.234469 
L 48.90125 96.234469 
z
" style="fill: #ffffff"/>
   </g>
   <g id="matplotlib.axis_1">
    <g id="xtick_1">
     <g id="line2d_1">
      <defs>
       <path id="m7d07bebb62" d="M 0 0 
L 0 3.5 
" style="stroke: #000000; stroke-width: 0.8"/>
      </defs>
      <g>
       <use xlink:href="#m7d07bebb62" x="243.375606" y="644.224972" style="stroke: #000000; stroke-width: 0.8"/>
      </g>
     </g>
     <g id="text_1">
      <!-- 2025-08 -->
      <g transform="translate(212.360135 686.142789) rotate(-45) scale(0.1 -0.1)">
       <defs>
        <path id="DejaVuSans-32" d="M 1228 531 
L 3431 531 
L 3431 0 
L 469 0 
L 469 531 
Q 828 903 1448 1529 
Q 2069 2156 2228 2338 
Q 2531 2678 2651 2914 
Q 2772 3150 2772 3378 
Q 2772 3750 2511 3984 
Q 2250 4219 1831 4219 
Q 1534 4219 1204 4116 
Q 875 4013 500 3803 
L 500 4441 
Q 881 4594 1212 4672 
Q 1544 4750 1819 4750 
Q 2544 4750 2975 4387 
Q 3406 4025 3406 3419 
Q 3406 3131 3298 2873 
Q 3191 2616 2906 2266 
Q 2828 2175 2409 1742 
Q 1991 1309 1228 531 
z
" transform="scale(0.015625)"/>
        <path id="DejaVuSans-30" d="M 2034 4250 
Q 1547 4250 1301 3770 
Q 1056 3291 1056 2328 
Q 1056 1369 1301 889 
Q 1547 409 2034 409 
Q 2525 409 2770 889 
Q 3016 1369 3016 2328 
Q 3016 3291 2770 3770 
Q 2525 4250 2034 4250 
z
M 2034 4750 
Q 2819 4750 3233 4129 
Q 3647 3509 3647 2328 
Q 3647 1150 3233 529 
Q 2819 -91 2034 -91 
Q 1250 -91 836 529 
Q 422 1150 422 2328 
Q 422 3509 836 4129 
Q 1250 4750 2034 4750 
z
" transform="scale(0.015625)"/>
        <path id="DejaVuSans-35" d="M 691 4666 
L 3169 4666 
L 3169 4134 
L 1269 4134 
L 1269 2991 
Q 1406 3038 1543 3061 
Q 1681 3084 1819 3084 
Q 2600 3084 3056 2656 
Q 3513 2228 3513 1497 
Q 3513 744 3044 326 
Q 2575 -91 1722 -91 
Q 1428 -91 1123 -41 
Q 819 9 494 109 
L 494 744 
Q 775 591 1075 516 
Q 1375 441 1709 441 
Q 2250 441 2565 725 
Q 2881 1009 2881 1497 
Q 2881 1984 2565 2268 
Q 2250 2553 1709 2553 
Q 1456 2553 1204 2497 
Q 953 2441 691 2322 
L 691 4666 
z
" transform="scale(0.015625)"/>
        <path id="DejaVuSans-2d" d="M 313 2009 
L 1997 2009 
L 1997 1497 
L 313 1497 
L 313 2009 
z
" transform="scale(0.015625)"/>
        <path id="DejaVuSans-38" d="M 2034 2216 
Q 1584 2216 1326 1975 
Q 1069 1734 1069 1313 
Q 1069 891 1326 650 
Q 1584 409 2034 409 
Q 2484 409 2743 651 
Q 3003 894 3003 1313 
Q 3003 1734 2745 1975 
Q 2488 2216 2034 2216 
z
M 1403 2484 
Q 997 2584 770 2862 
Q 544 3141 544 3541 
Q 544 4100 942 4425 
Q 1341 4750 2034 4750 
Q 2731 4750 3128 4425 
Q 3525 4100 3525 3541 
Q 3525 3141 3298 2862 
Q 3072 2584 2669 2484 
Q 3125 2378 3379 2068 
Q 3634 1759 3634 1313 
Q 3634 634 3220 271 
Q 2806 -91 2034 -91 
Q 1263 -91 848 271 
Q 434 634 434 1313 
Q 434 1759 690 2068 
Q 947 2378 1403 2484 
z
M 1172 3481 
Q 1172 3119 1398 2916 
Q 1625 2713 2034 2713 
Q 2441 2713 2670 2916 
Q 2900 3119 2900 3481 
Q 2900 3844 2670 4047 
Q 2441 4250 2034 4250 
Q 1625 4250 1398 4047 
Q 1172 3844 1172 3481 
z
" transform="scale(0.015625)"/>
       </defs>
       <use xlink:href="#DejaVuSans-32"/>
       <use xlink:href="#DejaVuSans-30" x="63.623047"/>
       <use xlink:href="#DejaVuSans-32" x="127.246094"/>
       <use xlink:href="#DejaVuSans-35" x="190.869141"/>
       <use xlink:href="#DejaVuSans-2d" x="254.492188"/>
       <use xlink:href="#DejaVuSans-30" x="290.576172"/>
       <use xlink:href="#DejaVuSans-38" x="354.199219"/>
      </g>
     </g>
    </g>
    <g id="xtick_2">
     <g id="line2d_2">
      <g>
       <use xlink:href="#m7d07bebb62" x="438.321605" y="644.224972" style="stroke: #000000; stroke-width: 0.8"/>
      </g>
     </g>
     <g id="text_2">
      <!-- 2025-09 -->
      <g transform="translate(407.306134 686.142789) rotate(-45) scale(0.1 -0.1)">
       <defs>
        <path id="DejaVuSans-39" d="M 703 97 
L 703 672 
Q 941 559 1184 500 
Q 1428 441 1663 441 
Q 2288 441 2617 861 
Q 2947 1281 2994 2138 
Q 2813 1869 2534 1725 
Q 2256 1581 1919 1581 
Q 1219 1581 811 2004 
Q 403 2428 403 3163 
Q 403 3881 828 4315 
Q 1253 4750 1959 4750 
Q 2769 4750 3195 4129 
Q 3622 3509 3622 2328 
Q 3622 1225 3098 567 
Q 2575 -91 1691 -91 
Q 1453 -91 1209 -44 
Q 966 3 703 97 
z
M 1959 2075 
Q 2384 2075 2632 2365 
Q 2881 2656 2881 3163 
Q 2881 3666 2632 3958 
Q 2384 4250 1959 4250 
Q 1534 4250 1286 3958 
Q 1038 3666 1038 3163 
Q 1038 2656 1286 2365 
Q 1534 2075 1959 2075 
z
" transform="scale(0.015625)"/>
       </defs>
       <use xlink:href="#DejaVuSans-32"/>
       <use xlink:href="#DejaVuSans-30" x="63.623047"/>
       <use xlink:href="#DejaVuSans-32" x="127.246094"/>
       <use xlink:href="#DejaVuSans-35" x="190.869141"/>
       <use xlink:href="#DejaVuSans-2d" x="254.492188"/>
       <use xlink:href="#DejaVuSans-30" x="290.576172"/>
       <use xlink:href="#DejaVuSans-39" x="354.199219"/>
      </g>
     </g>
    </g>
    <g id="xtick_3">
     <g id="line2d_3">
      <g>
       <use xlink:href="#m7d07bebb62" x="626.979024" y="644.224972" style="stroke: #000000; stroke-width: 0.8"/>
      </g>
     </g>
     <g id="text_3">
      <!-- 2025-10 -->
      <g transform="translate(595.963553 686.142789) rotate(-45) scale(0.1 -0.1)">
       <defs>
        <path id="DejaVuSans-31" d="M 794 531 
L 1825 531 
L 1825 4091 
L 703 3866 
L 703 4441 
L 1819 4666 
L 2450 4666 
L 2450 531 
L 3481 531 
L 3481 0 
L 794 0 
L 794 531 
z
" transform="scale(0.015625)"/>
       </defs>
       <use xlink:href="#DejaVuSans-32"/>
       <use xlink:href="#DejaVuSans-30" x="63.623047"/>
       <use xlink:href="#DejaVuSans-32" x="127.246094"/>
       <use xlink:href="#DejaVuSans-35" x="190.869141"/>
       <use xlink:href="#DejaVuSans-2d" x="254.492188"/>
       <use xlink:href="#DejaVuSans-31" x="290.576172"/>
       <use xlink:href="#DejaVuSans-30" x="354.199219"/>
      </g>
     </g>
    </g>
    <g id="xtick_4">
     <g id="line2d_4">
      <g>
       <use xlink:href="#m7d07bebb62" x="821.925024" y="644.224972" style="stroke: #000000; stroke-width: 0.8"/>
      </g>
     </g>
     <g id="text_4">
      <!-- 2025-11 -->
      <g transform="translate(790.909553 686.142789) rotate(-45) scale(0.1 -0.1)">
       <use xlink:href="#DejaVuSans-32"/>
       <use xlink:href="#DejaVuSans-30" x="63.623047"/>
       <use xlink:href="#DejaVuSans-32" x="127.246094"/>
       <use xlink:href="#DejaVuSans-35" x="190.869141"/>
       <use xlink:href="#DejaVuSans-2d" x="254.492188"/>
       <use xlink:href="#DejaVuSans-31" x="290.576172"/>
       <use xlink:href="#DejaVuSans-31" x="354.199219"/>
      </g>
     </g>
    </g>
    <g id="xtick_5">
     <g id="line2d_5">
      <g>
       <use xlink:href="#m7d07bebb62" x="1010.582443" y="644.224972" style="stroke: #000000; stroke-width: 0.8"/>
      </g>
     </g>
     <g id="text_5">
      <!-- 2025-12 -->
      <g transform="translate(979.566972 686.142789) rotate(-45) scale(0.1 -0.1)">
       <use xlink:href="#DejaVuSans-32"/>
       <use xlink:href="#DejaVuSans-30" x="63.623047"/>
       <use xlink:href="#DejaVuSans-32" x="127.246094"/>
       <use xlink:href="#DejaVuSans-35" x="190.869141"/>
       <use xlink:href="#DejaVuSans-2d" x="254.492188"/>
       <use xlink:href="#DejaVuSans-31" x="290.576172"/>
       <use xlink:href="#DejaVuSans-32" x="354.199219"/>
      </g>
     </g>
    </g>
    <g id="xtick_6">
     <g id="line2d_6">
      <g>
       <use xlink:href="#m7d07bebb62" x="1205.528442" y="644.224972" style="stroke: #000000; stroke-width: 0.8"/>
      </g>
     </g>
     <g id="text_6">
      <!-- 2026-01 -->
      <g transform="translate(1174.512971 686.142789) rotate(-45) scale(0.1 -0.1)">
       <defs>
        <path id="DejaVuSans-36" d="M 2113 2584 
Q 1688 2584 1439 2293 
Q 1191 2003 1191 1497 
Q 1191 994 1439 701 
Q 1688 409 2113 409 
Q 2538 409 2786 701 
Q 3034 994 3034 1497 
Q 3034 2003 2786 2293 
Q 2538 2584 2113 2584 
z
M 3366 4563 
L 3366 3988 
Q 3128 4100 2886 4159 
Q 2644 4219 2406 4219 
Q 1781 4219 1451 3797 
Q 1122 3375 1075 2522 
Q 1259 2794 1537 2939 
Q 1816 3084 2150 3084 
Q 2853 3084 3261 2657 
Q 3669 2231 3669 1497 
Q 3669 778 3244 343 
Q 2819 -91 2113 -91 
Q 1303 -91 875 529 
Q 447 1150 447 2328 
Q 447 3434 972 4092 
Q 1497 4750 2381 4750 
Q 2619 4750 2861 4703 
Q 3103 4656 3366 4563 
z
" transform="scale(0.015625)"/>
       </defs>
       <use xlink:href="#DejaVuSans-32"/>
       <use xlink:href="#DejaVuSans-30" x="63.623047"/>
       <use xlink:href="#DejaVuSans-32" x="127.246094"/>
       <use xlink:href="#DejaVuSans-36" x="190.869141"/>
       <use xlink:href="#DejaVuSans-2d" x="254.492188"/>
       <use xlink:href="#DejaVuSans-30" x="290.576172"/>
       <use xlink:href="#DejaVuSans-31" x="354.199219"/>
      </g>
     </g>
    </g>
    <g id="text_7">
     <!-- 日期 -->
     <g transform="translate(676.374375 700.731475) scale(0.12 -0.12)">
      <defs>
       <path id="DejaVuSans-Bold-65e5" d="M 319 -1131 
L 319 4513 
L 3519 4513 
L 3519 -1131 
L 319 -1131 
z
M 678 -775 
L 3163 -775 
L 3163 4153 
L 678 4153 
L 678 -775 
z
" transform="scale(0.015625)"/>
       <path id="DejaVuSans-Bold-671f" d="M 319 -1131 
L 319 4513 
L 3519 4513 
L 3519 -1131 
L 319 -1131 
z
M 678 -775 
L 3163 -775 
L 3163 4153 
L 678 4153 
L 678 -775 
z
" transform="scale(0.015625)"/>
      </defs>
      <use xlink:href="#DejaVuSans-Bold-65e5"/>
      <use xlink:href="#DejaVuSans-Bold-671f" x="60.009766"/>
     </g>
    </g>
   </g>
   <g id="matplotlib.axis_2">
    <g id="ytick_1">
     <g id="line2d_7">
      <path d="M 48.90125 546.41292 
L 1318.25125 546.41292 
" clip-path="url(#p9557573ddb)" style="fill: none; stroke-dasharray: 2.96,1.28; stroke-dashoffset: 0; stroke: #b0b0b0; stroke-opacity: 0.3; stroke-width: 0.8"/>
     </g>
     <g id="line2d_8">
      <defs>
       <path id="mf17e34f460" d="M 0 0 
L -3.5 0 
" style="stroke: #000000; stroke-width: 0.8"/>
      </defs>
      <g>
       <use xlink:href="#mf17e34f460" x="48.90125" y="546.41292" style="stroke: #000000; stroke-width: 0.8"/>
      </g>
     </g>
     <g id="text_8">
      <!-- 120 -->
      <g transform="translate(22.81375 550.212139) scale(0.1 -0.1)">
       <use xlink:href="#DejaVuSans-31"/>
       <use xlink:href="#DejaVuSans-32" x="63.623047"/>
       <use xlink:href="#DejaVuSans-30" x="127.246094"/>
      </g>
     </g>
    </g>
    <g id="ytick_2">
     <g id="line2d_9">
      <path d="M 48.90125 424.907265 
L 1318.25125 424.907265 
" clip-path="url(#p9557573ddb)" style="fill: none; stroke-dasharray: 2.96,1.28; stroke-dashoffset: 0; stroke: #b0b0b0; stroke-opacity: 0.3; stroke-width: 0.8"/>
     </g>
     <g id="line2d_10">
      <g>
       <use xlink:href="#mf17e34f460" x="48.90125" y="424.907265" style="stroke: #000000; stroke-width: 0.8"/>
      </g>
     </g>
     <g id="text_9">
      <!-- 130 -->
      <g transform="translate(22.81375 428.706484) scale(0.1 -0.1)">
       <defs>
        <path id="DejaVuSans-33" d="M 2597 2516 
Q 3050 2419 3304 2112 
Q 3559 1806 3559 1356 
Q 3559 666 3084 287 
Q 2609 -91 1734 -91 
Q 1441 -91 1130 -33 
Q 819 25 488 141 
L 488 750 
Q 750 597 1062 519 
Q 1375 441 1716 441 
Q 2309 441 2620 675 
Q 2931 909 2931 1356 
Q 2931 1769 2642 2001 
Q 2353 2234 1838 2234 
L 1294 2234 
L 1294 2753 
L 1863 2753 
Q 2328 2753 2575 2939 
Q 2822 3125 2822 3475 
Q 2822 3834 2567 4026 
Q 2313 4219 1838 4219 
Q 1578 4219 1281 4162 
Q 984 4106 628 3988 
L 628 4550 
Q 988 4650 1302 4700 
Q 1616 4750 1894 4750 
Q 2613 4750 3031 4423 
Q 3450 4097 3450 3541 
Q 3450 3153 3228 2886 
Q 3006 2619 2597 2516 
z
" transform="scale(0.015625)"/>
       </defs>
       <use xlink:href="#DejaVuSans-31"/>
       <use xlink:href="#DejaVuSans-33" x="63.623047"/>
       <use xlink:href="#DejaVuSans-30" x="127.246094"/>
      </g>
     </g>
    </g>
    <g id="ytick_3">
     <g id="line2d_11">
      <path d="M 48.90125 303.40161 
L 1318.25125 303.40161 
" clip-path="url(#p9557573ddb)" style="fill: none; stroke-dasharray: 2.96,1.28; stroke-dashoffset: 0; stroke: #b0b0b0; stroke-opacity: 0.3; stroke-width: 0.8"/>
     </g>
     <g id="line2d_12">
      <g>
       <use xlink:href="#mf17e34f460" x="48.90125" y="303.40161" style="stroke: #000000; stroke-width: 0.8"/>
      </g>
     </g>
     <g id="text_10">
      <!-- 140 -->
      <g transform="translate(22.81375 307.200829) scale(0.1 -0.1)">
       <defs>
        <path id="DejaVuSans-34" d="M 2419 4116 
L 825 1625 
L 2419 1625 
L 2419 4116 
z
M 2253 4666 
L 3047 4666 
L 3047 1625 
L 3713 1625 
L 3713 1100 
L 3047 1100 
L 3047 0 
L 2419 0 
L 2419 1100 
L 313 1100 
L 313 1709 
L 2253 4666 
z
" transform="scale(0.015625)"/>
       </defs>
       <use xlink:href="#DejaVuSans-31"/>
       <use xlink:href="#DejaVuSans-34" x="63.623047"/>
       <use xlink:href="#DejaVuSans-30" x="127.246094"/>
      </g>
     </g>
    </g>
    <g id="ytick_4">
     <g id="line2d_13">
      <path d="M 48.90125 181.895955 
L 1318.25125 181.895955 
" clip-path="url(#p9557573ddb)" style="fill: none; stroke-dasharray: 2.96,1.28; stroke-dashoffset: 0; stroke: #b0b0b0; stroke-opacity: 0.3; stroke-width: 0.8"/>
     </g>
     <g id="line2d_14">
      <g>
       <use xlink:href="#mf17e34f460" x="48.90125" y="181.895955" style="stroke: #000000; stroke-width: 0.8"/>
      </g>
     </g>
     <g id="text_11">
      <!-- 150 -->
      <g transform="translate(22.81375 185.695174) scale(0.1 -0.1)">
       <use xlink:href="#DejaVuSans-31"/>
       <use xlink:href="#DejaVuSans-35" x="63.623047"/>
       <use xlink:href="#DejaVuSans-30" x="127.246094"/>
      </g>
     </g>
    </g>
    <g id="text_12">
     <!-- 收盤價 (元) -->
     <g transform="translate(16.318125 392.206595) rotate(-90) scale(0.12 -0.12)">
      <defs>
       <path id="DejaVuSans-Bold-6536" d="M 319 -1131 
L 319 4513 
L 3519 4513 
L 3519 -1131 
L 319 -1131 
z
M 678 -775 
L 3163 -775 
L 3163 4153 
L 678 4153 
L 678 -775 
z
" transform="scale(0.015625)"/>
       <path id="DejaVuSans-Bold-76e4" d="M 319 -1131 
L 319 4513 
L 3519 4513 
L 3519 -1131 
L 319 -1131 
z
M 678 -775 
L 3163 -775 
L 3163 4153 
L 678 4153 
L 678 -775 
z
" transform="scale(0.015625)"/>
       <path id="DejaVuSans-Bold-50f9" d="M 319 -1131 
L 319 4513 
L 3519 4513 
L 3519 -1131 
L 319 -1131 
z
M 678 -775 
L 3163 -775 
L 3163 4153 
L 678 4153 
L 678 -775 
z
" transform="scale(0.015625)"/>
       <path id="DejaVuSans-Bold-20" transform="scale(0.015625)"/>
       <path id="DejaVuSans-Bold-28" d="M 2413 -844 
L 1484 -844 
Q 1006 -72 778 623 
Q 550 1319 550 2003 
Q 550 2688 779 3389 
Q 1009 4091 1484 4856 
L 2413 4856 
Q 2013 4116 1813 3408 
Q 1613 2700 1613 2009 
Q 1613 1319 1811 609 
Q 2009 -100 2413 -844 
z
" transform="scale(0.015625)"/>
       <path id="DejaVuSans-Bold-5143" d="M 319 -1131 
L 319 4513 
L 3519 4513 
L 3519 -1131 
L 319 -1131 
z
M 678 -775 
L 3163 -775 
L 3163 4153 
L 678 4153 
L 678 -775 
z
" transform="scale(0.015625)"/>
       <path id="DejaVuSans-Bold-29" d="M 513 -844 
Q 913 -100 1113 609 
Q 1313 1319 1313 2009 
Q 1313 2700 1113 3408 
Q 913 4116 513 4856 
L 1441 4856 
Q 1916 4091 2145 3389 
Q 2375 2688 2375 2003 
Q 2375 1319 2147 623 
Q 1919 -72 1441 -844 
L 513 -844 
z
" transform="scale(0.015625)"/>
      </defs>
      <use xlink:href="#DejaVuSans-Bold-6536"/>
      <use xlink:href="#DejaVuSans-Bold-76e4" x="60.009766"/>
      <use xlink:href="#DejaVuSans-Bold-50f9" x="120.019531"/>
      <use xlink:href="#DejaVuSans-Bold-20" x="180.029297"/>
      <use xlink:href="#DejaVuSans-Bold-28" x="214.84375"/>
      <use xlink:href="#DejaVuSans-Bold-5143" x="260.546875"/>
      <use xlink:href="#DejaVuSans-Bold-29" x="320.556641"/>
     </g>
    </g>
   </g>
   <g id="patch_3">
    <path d="M 48.90125 644.224972 
L 48.90125 96.234469 
" style="fill: none; stroke: #000000; stroke-width: 0.8; stroke-linejoin: miter; stroke-linecap: square"/>
   </g>
   <g id="patch_4">
    <path d="M 1318.25125 644.224972 
L 1318.25125 96.234469 
" style="fill: none; stroke: #000000; stroke-width: 0.8; stroke-linejoin: miter; stroke-linecap: square"/>
   </g>
   <g id="patch_5">
    <path d="M 48.90125 644.224972 
L 1318.25125 644.224972 
" style="fill: none; stroke: #000000; stroke-width: 0.8; stroke-linejoin: miter; stroke-linecap: square"/>
   </g>
   <g id="patch_6">
    <path d="M 48.90125 96.234469 
L 1318.25125 96.234469 
" style="fill: none; stroke: #000000; stroke-width: 0.8; stroke-linejoin: miter; stroke-linecap: square"/>
   </g>
   <g id="legend_1">
    <g id="patch_7">
     <path d="M 55.90125 148.268844 
L 156.074688 148.268844 
Q 158.074688 148.268844 158.074688 146.268844 
L 158.074688 103.234469 
Q 158.074688 101.234469 156.074688 101.234469 
L 55.90125 101.234469 
Q 53.90125 101.234469 53.90125 103.234469 
L 53.90125 146.268844 
Q 53.90125 148.268844 55.90125 148.268844 
z
" style="fill: #ffffff; opacity: 0.8; stroke: #cccccc; stroke-linejoin: miter"/>
    </g>
    <g id="line2d_15">
     <path d="M 57.90125 109.332906 
L 67.90125 109.332906 
L 77.90125 109.332906 
" style="fill: none; stroke: #000000; stroke-width: 2.5; stroke-linecap: square"/>
    </g>
    <g id="text_13">
     <!-- 昕奇雲端 收盤價 (長期) -->
     <g transform="translate(85.90125 112.832906) scale(0.1 -0.1)">
      <defs>
       <path id="DejaVuSans-6615" d="M 319 -1131 
L 319 4513 
L 3519 4513 
L 3519 -1131 
L 319 -1131 
z
M 678 -775 
L 3163 -775 
L 3163 4153 
L 678 4153 
L 678 -775 
z
" transform="scale(0.015625)"/>
       <path id="DejaVuSans-5947" d="M 319 -1131 
L 319 4513 
L 3519 4513 
L 3519 -1131 
L 319 -1131 
z
M 678 -775 
L 3163 -775 
L 3163 4153 
L 678 4153 
L 678 -775 
z
" transform="scale(0.015625)"/>
       <path id="DejaVuSans-96f2" d="M 319 -1131 
L 319 4513 
L 3519 4513 
L 3519 -1131 
L 319 -1131 
z
M 678 -775 
L 3163 -775 
L 3163 4153 
L 678 4153 
L 678 -775 
z
" transform="scale(0.015625)"/>
       <path id="DejaVuSans-7aef" d="M 319 -1131 
L 319 4513 
L 3519 4513 
L 3519 -1131 
L 319 -1131 
z
M 678 -775 
L 3163 -775 
L 3163 4153 
L 678 4153 
L 678 -775 
z
" transform="scale(0.015625)"/>
       <path id="DejaVuSans-20" transform="scale(0.015625)"/>
       <path id="DejaVuSans-6536" d="M 319 -1131 
L 319 4513 
L 3519 4513 
L 3519 -1131 
L 319 -1131 
z
M 678 -775 
L 3163 -775 
L 3163 4153 
L 678 4153 
L 678 -775 
z
" transform="scale(0.015625)"/>
       <path id="DejaVuSans-76e4" d="M 319 -1131 
L 319 4513 
L 3519 4513 
L 3519 -1131 
L 319 -1131 
z
M 678 -775 
L 3163 -775 
L 3163 4153 
L 678 4153 
L 678 -775 
z
" transform="scale(0.015625)"/>
       <path id="DejaVuSans-50f9" d="M 319 -1131 
L 319 4513 
L 3519 4513 
L 3519 -1131 
L 319 -1131 
z
M 678 -775 
L 3163 -775 
L 3163 4153 
L 678 4153 
L 678 -775 
z
" transform="scale(0.015625)"/>
       <path id="DejaVuSans-28" d="M 1984 4856 
Q 1566 4138 1362 3434 
Q 1159 2731 1159 2009 
Q 1159 1288 1364 580 
Q 1569 -128 1984 -844 
L 1484 -844 
Q 1016 -109 783 600 
Q 550 1309 550 2009 
Q 550 2706 781 3412 
Q 1013 4119 1484 4856 
L 1984 4856 
z
" transform="scale(0.015625)"/>
       <path id="DejaVuSans-9577" d="M 319 -1131 
L 319 4513 
L 3519 4513 
L 3519 -1131 
L 319 -1131 
z
M 678 -775 
L 3163 -775 
L 3163 4153 
L 678 4153 
L 678 -775 
z
" transform="scale(0.015625)"/>
       <path id="DejaVuSans-671f" d="M 319 -1131 
L 319 4513 
L 3519 4513 
L 3519 -1131 
L 319 -1131 
z
M 678 -775 
L 3163 -775 
L 3163 4153 
L 678 4153 
L 678 -775 
z
" transform="scale(0.015625)"/>
       <path id="DejaVuSans-29" d="M 513 4856 
L 1013 4856 
Q 1481 4119 1714 3412 
Q 1947 2706 1947 2009 
Q 1947 1309 1714 600 
Q 1481 -109 1013 -844 
L 513 -844 
Q 928 -128 1133 580 
Q 1338 1288 1338 2009 
Q 1338 2731 1133 3434 
Q 928 4138 513 4856 
z
" transform="scale(0.015625)"/>
      </defs>
      <use xlink:href="#DejaVuSans-6615"/>
      <use xlink:href="#DejaVuSans-5947" x="60.009766"/>
      <use xlink:href="#DejaVuSans-96f2" x="120.019531"/>
      <use xlink:href="#DejaVuSans-7aef" x="180.029297"/>
      <use xlink:href="#DejaVuSans-20" x="240.039062"/>
      <use xlink:href="#DejaVuSans-6536" x="271.826172"/>
      <use xlink:href="#DejaVuSans-76e4" x="331.835938"/>
      <use xlink:href="#DejaVuSans-50f9" x="391.845703"/>
      <use xlink:href="#DejaVuSans-20" x="451.855469"/>
      <use xlink:href="#DejaVuSans-28" x="483.642578"/>
      <use xlink:href="#DejaVuSans-9577" x="522.65625"/>
      <use xlink:href="#DejaVuSans-671f" x="582.666016"/>
      <use xlink:href="#DejaVuSans-29" x="642.675781"/>
     </g>
    </g>
    <g id="patch_8">
     <path d="M 57.90125 127.511031 
L 77.90125 127.511031 
L 77.90125 120.511031 
L 57.90125 120.511031 
z
" style="fill: #ffd700; opacity: 0.85"/>
    </g>
    <g id="text_14">
     <!-- 昕奇雲端 融資餘額 (日) -->
     <g transform="translate(85.90125 127.511031) scale(0.1 -0.1)">
      <defs>
       <path id="DejaVuSans-878d" d="M 319 -1131 
L 319 4513 
L 3519 4513 
L 3519 -1131 
L 319 -1131 
z
M 678 -775 
L 3163 -775 
L 3163 4153 
L 678 4153 
L 678 -775 
z
" transform="scale(0.015625)"/>
       <path id="DejaVuSans-8cc7" d="M 319 -1131 
L 319 4513 
L 3519 4513 
L 3519 -1131 
L 319 -1131 
z
M 678 -775 
L 3163 -775 
L 3163 4153 
L 678 4153 
L 678 -775 
z
" transform="scale(0.015625)"/>
       <path id="DejaVuSans-9918" d="M 319 -1131 
L 319 4513 
L 3519 4513 
L 3519 -1131 
L 319 -1131 
z
M 678 -775 
L 3163 -775 
L 3163 4153 
L 678 4153 
L 678 -775 
z
" transform="scale(0.015625)"/>
       <path id="DejaVuSans-984d" d="M 319 -1131 
L 319 4513 
L 3519 4513 
L 3519 -1131 
L 319 -1131 
z
M 678 -775 
L 3163 -775 
L 3163 4153 
L 678 4153 
L 678 -775 
z
" transform="scale(0.015625)"/>
       <path id="DejaVuSans-65e5" d="M 319 -1131 
L 319 4513 
L 3519 4513 
L 3519 -1131 
L 319 -1131 
z
M 678 -775 
L 3163 -775 
L 3163 4153 
L 678 4153 
L 678 -775 
z
" transform="scale(0.015625)"/>
      </defs>
      <use xlink:href="#DejaVuSans-6615"/>
      <use xlink:href="#DejaVuSans-5947" x="60.009766"/>
      <use xlink:href="#DejaVuSans-96f2" x="120.019531"/>
      <use xlink:href="#DejaVuSans-7aef" x="180.029297"/>
      <use xlink:href="#DejaVuSans-20" x="240.039062"/>
      <use xlink:href="#DejaVuSans-878d" x="271.826172"/>
      <use xlink:href="#DejaVuSans-8cc7" x="331.835938"/>
      <use xlink:href="#DejaVuSans-9918" x="391.845703"/>
      <use xlink:href="#DejaVuSans-984d" x="451.855469"/>
      <use xlink:href="#DejaVuSans-20" x="511.865234"/>
      <use xlink:href="#DejaVuSans-28" x="543.652344"/>
      <use xlink:href="#DejaVuSans-65e5" x="582.666016"/>
      <use xlink:href="#DejaVuSans-29" x="642.675781"/>
     </g>
    </g>
    <g id="line2d_16">
     <path d="M 57.90125 138.689156 
L 67.90125 138.689156 
L 77.90125 138.689156 
" style="fill: none; stroke: #ff0000; stroke-width: 2.5; stroke-linecap: square"/>
    </g>
    <g id="text_15">
     <!-- 融資餘額/市值 (長期) -->
     <g transform="translate(85.90125 142.189156) scale(0.1 -0.1)">
      <defs>
       <path id="DejaVuSans-2f" d="M 1625 4666 
L 2156 4666 
L 531 -594 
L 0 -594 
L 1625 4666 
z
" transform="scale(0.015625)"/>
       <path id="DejaVuSans-5e02" d="M 319 -1131 
L 319 4513 
L 3519 4513 
L 3519 -1131 
L 319 -1131 
z
M 678 -775 
L 3163 -775 
L 3163 4153 
L 678 4153 
L 678 -775 
z
" transform="scale(0.015625)"/>
       <path id="DejaVuSans-503c" d="M 319 -1131 
L 319 4513 
L 3519 4513 
L 3519 -1131 
L 319 -1131 
z
M 678 -775 
L 3163 -775 
L 3163 4153 
L 678 4153 
L 678 -775 
z
" transform="scale(0.015625)"/>
      </defs>
      <use xlink:href="#DejaVuSans-878d"/>
      <use xlink:href="#DejaVuSans-8cc7" x="60.009766"/>
      <use xlink:href="#DejaVuSans-9918" x="120.019531"/>
      <use xlink:href="#DejaVuSans-984d" x="180.029297"/>
      <use xlink:href="#DejaVuSans-2f" x="240.039062"/>
      <use xlink:href="#DejaVuSans-5e02" x="273.730469"/>
      <use xlink:href="#DejaVuSans-503c" x="333.740234"/>
      <use xlink:href="#DejaVuSans-20" x="393.75"/>
      <use xlink:href="#DejaVuSans-28" x="425.537109"/>
      <use xlink:href="#DejaVuSans-9577" x="464.550781"/>
      <use xlink:href="#DejaVuSans-671f" x="524.560547"/>
      <use xlink:href="#DejaVuSans-29" x="584.570312"/>
     </g>
    </g>
   </g>
   <g id="line2d_17">
    <path d="M 111.315413 121.143128 
L 130.181155 339.853307 
L 136.469735 345.928589 
L 142.758316 309.476893 
L 149.046897 321.627458 
L 155.335477 291.251045 
L 174.201219 358.079155 
L 180.4898 345.928589 
L 186.77838 376.305003 
L 193.066961 364.154438 
L 199.355542 364.154438 
L 218.221283 364.154438 
L 224.509864 315.552176 
L 230.798445 315.552176 
L 237.087025 303.40161 
L 243.375606 315.552176 
L 262.241348 327.702741 
L 268.529928 303.40161 
L 274.818509 327.702741 
L 281.10709 291.251045 
L 287.39567 309.476893 
L 306.261412 285.175762 
L 312.549993 333.778024 
L 318.838574 358.079155 
L 325.127154 382.380286 
L 331.415735 406.681417 
L 350.281477 376.305003 
L 356.570057 388.455569 
L 362.858638 400.606134 
L 369.147219 418.831982 
L 375.435799 400.606134 
L 394.301541 376.305003 
L 400.590122 364.154438 
L 406.878702 358.079155 
L 413.167283 339.853307 
L 419.455864 364.154438 
L 438.321605 364.154438 
L 444.610186 370.22972 
L 450.898767 394.530851 
L 457.187347 382.380286 
L 463.475928 358.079155 
L 482.34167 333.778024 
L 488.63025 370.22972 
L 494.918831 345.928589 
L 501.207412 345.928589 
L 507.495992 352.003872 
L 526.361734 364.154438 
L 532.650315 364.154438 
L 538.938896 321.627458 
L 545.227476 327.702741 
L 551.516057 321.627458 
L 570.381799 254.799348 
L 576.670379 248.724066 
L 582.95896 260.874631 
L 589.247541 266.949914 
L 595.536121 266.949914 
L 620.690444 303.40161 
L 626.979024 279.100479 
L 633.267605 260.874631 
L 639.556186 266.949914 
L 664.710508 279.100479 
L 670.999089 279.100479 
L 677.287669 309.476893 
L 702.441992 376.305003 
L 708.730573 303.40161 
L 715.019153 321.627458 
L 721.307734 309.476893 
L 727.596314 339.853307 
L 746.462056 364.154438 
L 752.750637 358.079155 
L 759.039218 364.154438 
L 765.327798 394.530851 
L 790.482121 382.380286 
L 796.770701 412.7567 
L 803.059282 400.606134 
L 809.347863 406.681417 
L 815.636443 449.208396 
L 834.502185 443.133113 
L 840.790766 388.455569 
L 847.079346 430.982548 
L 853.367927 430.982548 
L 859.656508 424.907265 
L 878.52225 437.057831 
L 884.81083 418.831982 
L 891.099411 449.208396 
L 897.387991 449.208396 
L 903.676572 437.057831 
L 922.542314 424.907265 
L 928.830895 467.434244 
L 935.119475 443.133113 
L 941.408056 430.982548 
L 947.696636 455.283679 
L 966.562378 449.208396 
L 972.850959 443.133113 
L 979.13954 461.358962 
L 985.42812 461.358962 
L 991.716701 455.283679 
L 1010.582443 449.208396 
L 1016.871023 437.057831 
L 1023.159604 430.982548 
L 1029.448185 455.283679 
L 1035.736765 449.208396 
L 1054.602507 467.434244 
L 1060.891088 491.735375 
L 1067.179668 461.358962 
L 1073.468249 479.58481 
L 1079.75683 509.961223 
L 1098.622572 558.563485 
L 1104.911152 522.111789 
L 1111.199733 528.187072 
L 1117.488313 528.187072 
L 1123.776894 534.262354 
L 1142.642636 546.41292 
L 1148.931217 534.262354 
L 1155.219797 546.41292 
L 1167.796958 570.714051 
L 1186.6627 582.864616 
L 1192.951281 619.316313 
L 1199.239862 570.714051 
L 1211.817023 613.24103 
L 1230.682765 558.563485 
L 1236.971345 564.638768 
L 1243.259926 558.563485 
L 1249.548507 546.41292 
L 1255.837087 564.638768 
" clip-path="url(#p9557573ddb)" style="fill: none; stroke: #000000; stroke-width: 2.5; stroke-linecap: square"/>
   </g>
  </g>
  <g id="axes_2">
   <g id="matplotlib.axis_3">
    <g id="ytick_5">
     <g id="line2d_18">
      <defs>
       <path id="m1f0d447ea1" d="M 0 0 
L 3.5 0 
" style="stroke: #000000; stroke-width: 0.8"/>
      </defs>
      <g>
       <use xlink:href="#m1f0d447ea1" x="1318.25125" y="644.224972" style="stroke: #000000; stroke-width: 0.8"/>
      </g>
     </g>
     <g id="text_16">
      <!-- 0 -->
      <g style="fill: #228b22" transform="translate(1325.25125 648.024191) scale(0.1 -0.1)">
       <use xlink:href="#DejaVuSans-30"/>
      </g>
     </g>
    </g>
    <g id="ytick_6">
     <g id="line2d_19">
      <g>
       <use xlink:href="#m1f0d447ea1" x="1318.25125" y="546.018789" style="stroke: #000000; stroke-width: 0.8"/>
      </g>
     </g>
     <g id="text_17">
      <!-- 2 -->
      <g style="fill: #228b22" transform="translate(1325.25125 549.818007) scale(0.1 -0.1)">
       <use xlink:href="#DejaVuSans-32"/>
      </g>
     </g>
    </g>
    <g id="ytick_7">
     <g id="line2d_20">
      <g>
       <use xlink:href="#m1f0d447ea1" x="1318.25125" y="447.812605" style="stroke: #000000; stroke-width: 0.8"/>
      </g>
     </g>
     <g id="text_18">
      <!-- 4 -->
      <g style="fill: #228b22" transform="translate(1325.25125 451.611824) scale(0.1 -0.1)">
       <use xlink:href="#DejaVuSans-34"/>
      </g>
     </g>
    </g>
    <g id="ytick_8">
     <g id="line2d_21">
      <g>
       <use xlink:href="#m1f0d447ea1" x="1318.25125" y="349.606422" style="stroke: #000000; stroke-width: 0.8"/>
      </g>
     </g>
     <g id="text_19">
      <!-- 6 -->
      <g style="fill: #228b22" transform="translate(1325.25125 353.405641) scale(0.1 -0.1)">
       <use xlink:href="#DejaVuSans-36"/>
      </g>
     </g>
    </g>
    <g id="ytick_9">
     <g id="line2d_22">
      <g>
       <use xlink:href="#m1f0d447ea1" x="1318.25125" y="251.400238" style="stroke: #000000; stroke-width: 0.8"/>
      </g>
     </g>
     <g id="text_20">
      <!-- 8 -->
      <g style="fill: #228b22" transform="translate(1325.25125 255.199457) scale(0.1 -0.1)">
       <use xlink:href="#DejaVuSans-38"/>
      </g>
     </g>
    </g>
    <g id="ytick_10">
     <g id="line2d_23">
      <g>
       <use xlink:href="#m1f0d447ea1" x="1318.25125" y="153.194055" style="stroke: #000000; stroke-width: 0.8"/>
      </g>
     </g>
     <g id="text_21">
      <!-- 10 -->
      <g style="fill: #228b22" transform="translate(1325.25125 156.993274) scale(0.1 -0.1)">
       <use xlink:href="#DejaVuSans-31"/>
       <use xlink:href="#DejaVuSans-30" x="63.623047"/>
      </g>
     </g>
    </g>
    <g id="text_22">
     <!-- 融資餘額 (億元) -->
     <g style="fill: #228b22" transform="translate(1351.094375 399.40847) rotate(-90) scale(0.12 -0.12)">
      <defs>
       <path id="DejaVuSans-Bold-878d" d="M 319 -1131 
L 319 4513 
L 3519 4513 
L 3519 -1131 
L 319 -1131 
z
M 678 -775 
L 3163 -775 
L 3163 4153 
L 678 4153 
L 678 -775 
z
" transform="scale(0.015625)"/>
       <path id="DejaVuSans-Bold-8cc7" d="M 319 -1131 
L 319 4513 
L 3519 4513 
L 3519 -1131 
L 319 -1131 
z
M 678 -775 
L 3163 -775 
L 3163 4153 
L 678 4153 
L 678 -775 
z
" transform="scale(0.015625)"/>
       <path id="DejaVuSans-Bold-9918" d="M 319 -1131 
L 319 4513 
L 3519 4513 
L 3519 -1131 
L 319 -1131 
z
M 678 -775 
L 3163 -775 
L 3163 4153 
L 678 4153 
L 678 -775 
z
" transform="scale(0.015625)"/>
       <path id="DejaVuSans-Bold-984d" d="M 319 -1131 
L 319 4513 
L 3519 4513 
L 3519 -1131 
L 319 -1131 
z
M 678 -775 
L 3163 -775 
L 3163 4153 
L 678 4153 
L 678 -775 
z
" transform="scale(0.015625)"/>
       <path id="DejaVuSans-Bold-5104" d="M 319 -1131 
L 319 4513 
L 3519 4513 
L 3519 -1131 
L 319 -1131 
z
M 678 -775 
L 3163 -775 
L 3163 4153 
L 678 4153 
L 678 -775 
z
" transform="scale(0.015625)"/>
      </defs>
      <use xlink:href="#DejaVuSans-Bold-878d"/>
      <use xlink:href="#DejaVuSans-Bold-8cc7" x="60.009766"/>
      <use xlink:href="#DejaVuSans-Bold-9918" x="120.019531"/>
      <use xlink:href="#DejaVuSans-Bold-984d" x="180.029297"/>
      <use xlink:href="#DejaVuSans-Bold-20" x="240.039062"/>
      <use xlink:href="#DejaVuSans-Bold-28" x="274.853516"/>
      <use xlink:href="#DejaVuSans-Bold-5104" x="320.556641"/>
      <use xlink:href="#DejaVuSans-Bold-5143" x="380.566406"/>
      <use xlink:href="#DejaVuSans-Bold-29" x="440.576172"/>
     </g>
    </g>
   </g>
   <g id="patch_9">
    <path d="M 48.90125 644.224972 
L 48.90125 96.234469 
" style="fill: none; stroke: #000000; stroke-width: 0.8; stroke-linejoin: miter; stroke-linecap: square"/>
   </g>
   <g id="patch_10">
    <path d="M 1318.25125 644.224972 
L 1318.25125 96.234469 
" style="fill: none; stroke: #000000; stroke-width: 0.8; stroke-linejoin: miter; stroke-linecap: square"/>
   </g>
   <g id="patch_11">
    <path d="M 48.90125 644.224972 
L 1318.25125 644.224972 
" style="fill: none; stroke: #000000; stroke-width: 0.8; stroke-linejoin: miter; stroke-linecap: square"/>
   </g>
   <g id="patch_12">
    <path d="M 48.90125 96.234469 
L 1318.25125 96.234469 
" style="fill: none; stroke: #000000; stroke-width: 0.8; stroke-linejoin: miter; stroke-linecap: square"/>
   </g>
   <g id="patch_13">
    <path d="M 106.598977 644.224972 
L 116.031848 644.224972 
L 116.031848 507.227346 
L 106.598977 507.227346 
z
" clip-path="url(#p9557573ddb)" style="fill: #ffd700; opacity: 0.85"/>
   </g>
   <g id="patch_14">
    <path d="M 125.464719 644.224972 
L 134.89759 644.224972 
L 134.89759 598.413261 
L 125.464719 598.413261 
z
" clip-path="url(#p9557573ddb)" style="fill: #ffd700; opacity: 0.85"/>
   </g>
   <g id="patch_15">
    <path d="M 131.7533 644.224972 
L 141.186171 644.224972 
L 141.186171 611.583446 
L 131.7533 611.583446 
z
" clip-path="url(#p9557573ddb)" style="fill: #ffd700; opacity: 0.85"/>
   </g>
   <g id="patch_16">
    <path d="M 138.04188 644.224972 
L 147.474751 644.224972 
L 147.474751 615.318473 
L 138.04188 615.318473 
z
" clip-path="url(#p9557573ddb)" style="fill: #ffd700; opacity: 0.85"/>
   </g>
   <g id="patch_17">
    <path d="M 144.330461 644.224972 
L 153.763332 644.224972 
L 153.763332 626.134902 
L 144.330461 626.134902 
z
" clip-path="url(#p9557573ddb)" style="fill: #ffd700; opacity: 0.85"/>
   </g>
   <g id="patch_18">
    <path d="M 150.619042 644.224972 
L 160.051913 644.224972 
L 160.051913 621.654245 
L 150.619042 621.654245 
z
" clip-path="url(#p9557573ddb)" style="fill: #ffd700; opacity: 0.85"/>
   </g>
   <g id="patch_19">
    <path d="M 169.484784 644.224972 
L 178.917655 644.224972 
L 178.917655 613.485946 
L 169.484784 613.485946 
z
" clip-path="url(#p9557573ddb)" style="fill: #ffd700; opacity: 0.85"/>
   </g>
   <g id="patch_20">
    <path d="M 175.773364 644.224972 
L 185.206235 644.224972 
L 185.206235 625.591822 
L 175.773364 625.591822 
z
" clip-path="url(#p9557573ddb)" style="fill: #ffd700; opacity: 0.85"/>
   </g>
   <g id="patch_21">
    <path d="M 182.061945 644.224972 
L 191.494816 644.224972 
L 191.494816 633.631471 
L 182.061945 633.631471 
z
" clip-path="url(#p9557573ddb)" style="fill: #ffd700; opacity: 0.85"/>
   </g>
   <g id="patch_22">
    <path d="M 188.350525 644.224972 
L 197.783396 644.224972 
L 197.783396 635.739958 
L 188.350525 635.739958 
z
" clip-path="url(#p9557573ddb)" style="fill: #ffd700; opacity: 0.85"/>
   </g>
   <g id="patch_23">
    <path d="M 194.639106 644.224972 
L 204.071977 644.224972 
L 204.071977 633.287258 
L 194.639106 633.287258 
z
" clip-path="url(#p9557573ddb)" style="fill: #ffd700; opacity: 0.85"/>
   </g>
   <g id="patch_24">
    <path d="M 213.504848 644.224972 
L 222.937719 644.224972 
L 222.937719 619.101375 
L 213.504848 619.101375 
z
" clip-path="url(#p9557573ddb)" style="fill: #ffd700; opacity: 0.85"/>
   </g>
   <g id="patch_25">
    <path d="M 219.793429 644.224972 
L 229.2263 644.224972 
L 229.2263 627.229901 
L 219.793429 627.229901 
z
" clip-path="url(#p9557573ddb)" style="fill: #ffd700; opacity: 0.85"/>
   </g>
   <g id="patch_26">
    <path d="M 226.082009 644.224972 
L 235.51488 644.224972 
L 235.51488 635.147283 
L 226.082009 635.147283 
z
" clip-path="url(#p9557573ddb)" style="fill: #ffd700; opacity: 0.85"/>
   </g>
   <g id="patch_27">
    <path d="M 232.37059 644.224972 
L 241.803461 644.224972 
L 241.803461 626.420191 
L 232.37059 626.420191 
z
" clip-path="url(#p9557573ddb)" style="fill: #ffd700; opacity: 0.85"/>
   </g>
   <g id="patch_28">
    <path d="M 238.65917 644.224972 
L 248.092041 644.224972 
L 248.092041 621.291864 
L 238.65917 621.291864 
z
" clip-path="url(#p9557573ddb)" style="fill: #ffd700; opacity: 0.85"/>
   </g>
   <g id="patch_29">
    <path d="M 257.524912 644.224972 
L 266.957783 644.224972 
L 266.957783 631.417904 
L 257.524912 631.417904 
z
" clip-path="url(#p9557573ddb)" style="fill: #ffd700; opacity: 0.85"/>
   </g>
   <g id="patch_30">
    <path d="M 263.813493 644.224972 
L 273.246364 644.224972 
L 273.246364 631.438527 
L 263.813493 631.438527 
z
" clip-path="url(#p9557573ddb)" style="fill: #ffd700; opacity: 0.85"/>
   </g>
   <g id="patch_31">
    <path d="M 270.102074 644.224972 
L 279.534945 644.224972 
L 279.534945 631.079092 
L 270.102074 631.079092 
z
" clip-path="url(#p9557573ddb)" style="fill: #ffd700; opacity: 0.85"/>
   </g>
   <g id="patch_32">
    <path d="M 276.390654 644.224972 
L 285.823525 644.224972 
L 285.823525 635.778258 
L 276.390654 635.778258 
z
" clip-path="url(#p9557573ddb)" style="fill: #ffd700; opacity: 0.85"/>
   </g>
   <g id="patch_33">
    <path d="M 282.679235 644.224972 
L 292.112106 644.224972 
L 292.112106 634.772136 
L 282.679235 634.772136 
z
" clip-path="url(#p9557573ddb)" style="fill: #ffd700; opacity: 0.85"/>
   </g>
   <g id="patch_34">
    <path d="M 301.544977 644.224972 
L 310.977848 644.224972 
L 310.977848 636.373633 
L 301.544977 636.373633 
z
" clip-path="url(#p9557573ddb)" style="fill: #ffd700; opacity: 0.85"/>
   </g>
   <g id="patch_35">
    <path d="M 307.833557 644.224972 
L 317.266428 644.224972 
L 317.266428 632.612091 
L 307.833557 632.612091 
z
" clip-path="url(#p9557573ddb)" style="fill: #ffd700; opacity: 0.85"/>
   </g>
   <g id="patch_36">
    <path d="M 314.122138 644.224972 
L 323.555009 644.224972 
L 323.555009 629.986549 
L 314.122138 629.986549 
z
" clip-path="url(#p9557573ddb)" style="fill: #ffd700; opacity: 0.85"/>
   </g>
   <g id="patch_37">
    <path d="M 320.410719 644.224972 
L 329.84359 644.224972 
L 329.84359 633.605446 
L 320.410719 633.605446 
z
" clip-path="url(#p9557573ddb)" style="fill: #ffd700; opacity: 0.85"/>
   </g>
   <g id="patch_38">
    <path d="M 326.699299 644.224972 
L 336.13217 644.224972 
L 336.13217 639.123897 
L 326.699299 639.123897 
z
" clip-path="url(#p9557573ddb)" style="fill: #ffd700; opacity: 0.85"/>
   </g>
   <g id="patch_39">
    <path d="M 345.565041 644.224972 
L 354.997912 644.224972 
L 354.997912 635.144828 
L 345.565041 635.144828 
z
" clip-path="url(#p9557573ddb)" style="fill: #ffd700; opacity: 0.85"/>
   </g>
   <g id="patch_40">
    <path d="M 351.853622 644.224972 
L 361.286493 644.224972 
L 361.286493 638.869789 
L 351.853622 638.869789 
z
" clip-path="url(#p9557573ddb)" style="fill: #ffd700; opacity: 0.85"/>
   </g>
   <g id="patch_41">
    <path d="M 358.142202 644.224972 
L 367.575073 644.224972 
L 367.575073 631.52102 
L 358.142202 631.52102 
z
" clip-path="url(#p9557573ddb)" style="fill: #ffd700; opacity: 0.85"/>
   </g>
   <g id="patch_42">
    <path d="M 364.430783 644.224972 
L 373.863654 644.224972 
L 373.863654 636.599507 
L 364.430783 636.599507 
z
" clip-path="url(#p9557573ddb)" style="fill: #ffd700; opacity: 0.85"/>
   </g>
   <g id="patch_43">
    <path d="M 370.719364 644.224972 
L 380.152235 644.224972 
L 380.152235 640.206375 
L 370.719364 640.206375 
z
" clip-path="url(#p9557573ddb)" style="fill: #ffd700; opacity: 0.85"/>
   </g>
   <g id="patch_44">
    <path d="M 389.585106 644.224972 
L 399.017977 644.224972 
L 399.017977 632.315508 
L 389.585106 632.315508 
z
" clip-path="url(#p9557573ddb)" style="fill: #ffd700; opacity: 0.85"/>
   </g>
   <g id="patch_45">
    <path d="M 395.873686 644.224972 
L 405.306557 644.224972 
L 405.306557 641.109381 
L 395.873686 641.109381 
z
" clip-path="url(#p9557573ddb)" style="fill: #ffd700; opacity: 0.85"/>
   </g>
   <g id="patch_46">
    <path d="M 402.162267 644.224972 
L 411.595138 644.224972 
L 411.595138 641.164376 
L 402.162267 641.164376 
z
" clip-path="url(#p9557573ddb)" style="fill: #ffd700; opacity: 0.85"/>
   </g>
   <g id="patch_47">
    <path d="M 408.450847 644.224972 
L 417.883718 644.224972 
L 417.883718 639.045087 
L 408.450847 639.045087 
z
" clip-path="url(#p9557573ddb)" style="fill: #ffd700; opacity: 0.85"/>
   </g>
   <g id="patch_48">
    <path d="M 414.739428 644.224972 
L 424.172299 644.224972 
L 424.172299 640.048754 
L 414.739428 640.048754 
z
" clip-path="url(#p9557573ddb)" style="fill: #ffd700; opacity: 0.85"/>
   </g>
   <g id="patch_49">
    <path d="M 433.60517 644.224972 
L 443.038041 644.224972 
L 443.038041 638.258946 
L 433.60517 638.258946 
z
" clip-path="url(#p9557573ddb)" style="fill: #ffd700; opacity: 0.85"/>
   </g>
   <g id="patch_50">
    <path d="M 439.893751 644.224972 
L 449.326622 644.224972 
L 449.326622 641.319051 
L 439.893751 641.319051 
z
" clip-path="url(#p9557573ddb)" style="fill: #ffd700; opacity: 0.85"/>
   </g>
   <g id="patch_51">
    <path d="M 446.182331 644.224972 
L 455.615202 644.224972 
L 455.615202 630.887345 
L 446.182331 630.887345 
z
" clip-path="url(#p9557573ddb)" style="fill: #ffd700; opacity: 0.85"/>
   </g>
   <g id="patch_52">
    <path d="M 452.470912 644.224972 
L 461.903783 644.224972 
L 461.903783 640.291814 
L 452.470912 640.291814 
z
" clip-path="url(#p9557573ddb)" style="fill: #ffd700; opacity: 0.85"/>
   </g>
   <g id="patch_53">
    <path d="M 458.759493 644.224972 
L 468.192363 644.224972 
L 468.192363 639.301405 
L 458.759493 639.301405 
z
" clip-path="url(#p9557573ddb)" style="fill: #ffd700; opacity: 0.85"/>
   </g>
   <g id="patch_54">
    <path d="M 477.625234 644.224972 
L 487.058105 644.224972 
L 487.058105 640.241484 
L 477.625234 640.241484 
z
" clip-path="url(#p9557573ddb)" style="fill: #ffd700; opacity: 0.85"/>
   </g>
   <g id="patch_55">
    <path d="M 483.913815 644.224972 
L 493.346686 644.224972 
L 493.346686 640.130265 
L 483.913815 640.130265 
z
" clip-path="url(#p9557573ddb)" style="fill: #ffd700; opacity: 0.85"/>
   </g>
   <g id="patch_56">
    <path d="M 490.202396 644.224972 
L 499.635267 644.224972 
L 499.635267 640.538557 
L 490.202396 640.538557 
z
" clip-path="url(#p9557573ddb)" style="fill: #ffd700; opacity: 0.85"/>
   </g>
   <g id="patch_57">
    <path d="M 496.490976 644.224972 
L 505.923847 644.224972 
L 505.923847 640.940712 
L 496.490976 640.940712 
z
" clip-path="url(#p9557573ddb)" style="fill: #ffd700; opacity: 0.85"/>
   </g>
   <g id="patch_58">
    <path d="M 502.779557 644.224972 
L 512.212428 644.224972 
L 512.212428 641.687324 
L 502.779557 641.687324 
z
" clip-path="url(#p9557573ddb)" style="fill: #ffd700; opacity: 0.85"/>
   </g>
   <g id="patch_59">
    <path d="M 521.645299 644.224972 
L 531.07817 644.224972 
L 531.07817 641.308248 
L 521.645299 641.308248 
z
" clip-path="url(#p9557573ddb)" style="fill: #ffd700; opacity: 0.85"/>
   </g>
   <g id="patch_60">
    <path d="M 527.933879 644.224972 
L 537.36675 644.224972 
L 537.36675 635.342223 
L 527.933879 635.342223 
z
" clip-path="url(#p9557573ddb)" style="fill: #ffd700; opacity: 0.85"/>
   </g>
   <g id="patch_61">
    <path d="M 534.22246 644.224972 
L 543.655331 644.224972 
L 543.655331 640.824583 
L 534.22246 640.824583 
z
" clip-path="url(#p9557573ddb)" style="fill: #ffd700; opacity: 0.85"/>
   </g>
   <g id="patch_62">
    <path d="M 540.511041 644.224972 
L 549.943912 644.224972 
L 549.943912 641.378957 
L 540.511041 641.378957 
z
" clip-path="url(#p9557573ddb)" style="fill: #ffd700; opacity: 0.85"/>
   </g>
   <g id="patch_63">
    <path d="M 546.799621 644.224972 
L 556.232492 644.224972 
L 556.232492 569.280396 
L 546.799621 569.280396 
z
" clip-path="url(#p9557573ddb)" style="fill: #ffd700; opacity: 0.85"/>
   </g>
   <g id="patch_64">
    <path d="M 565.665363 644.224972 
L 575.098234 644.224972 
L 575.098234 631.780284 
L 565.665363 631.780284 
z
" clip-path="url(#p9557573ddb)" style="fill: #ffd700; opacity: 0.85"/>
   </g>
   <g id="patch_65">
    <path d="M 571.953944 644.224972 
L 581.386815 644.224972 
L 581.386815 639.754872 
L 571.953944 639.754872 
z
" clip-path="url(#p9557573ddb)" style="fill: #ffd700; opacity: 0.85"/>
   </g>
   <g id="patch_66">
    <path d="M 578.242524 644.224972 
L 587.675395 644.224972 
L 587.675395 640.279048 
L 578.242524 640.279048 
z
" clip-path="url(#p9557573ddb)" style="fill: #ffd700; opacity: 0.85"/>
   </g>
   <g id="patch_67">
    <path d="M 584.531105 644.224972 
L 593.963976 644.224972 
L 593.963976 642.118449 
L 584.531105 642.118449 
z
" clip-path="url(#p9557573ddb)" style="fill: #ffd700; opacity: 0.85"/>
   </g>
   <g id="patch_68">
    <path d="M 590.819686 644.224972 
L 600.252557 644.224972 
L 600.252557 640.854536 
L 590.819686 640.854536 
z
" clip-path="url(#p9557573ddb)" style="fill: #ffd700; opacity: 0.85"/>
   </g>
   <g id="patch_69">
    <path d="M 615.974008 644.224972 
L 625.406879 644.224972 
L 625.406879 639.962824 
L 615.974008 639.962824 
z
" clip-path="url(#p9557573ddb)" style="fill: #ffd700; opacity: 0.85"/>
   </g>
   <g id="patch_70">
    <path d="M 622.262589 644.224972 
L 631.69546 644.224972 
L 631.69546 622.261159 
L 622.262589 622.261159 
z
" clip-path="url(#p9557573ddb)" style="fill: #ffd700; opacity: 0.85"/>
   </g>
   <g id="patch_71">
    <path d="M 628.551169 644.224972 
L 637.98404 644.224972 
L 637.98404 637.037753 
L 628.551169 637.037753 
z
" clip-path="url(#p9557573ddb)" style="fill: #ffd700; opacity: 0.85"/>
   </g>
   <g id="patch_72">
    <path d="M 634.83975 644.224972 
L 644.272621 644.224972 
L 644.272621 636.149969 
L 634.83975 636.149969 
z
" clip-path="url(#p9557573ddb)" style="fill: #ffd700; opacity: 0.85"/>
   </g>
   <g id="patch_73">
    <path d="M 659.994073 644.224972 
L 669.426944 644.224972 
L 669.426944 640.250568 
L 659.994073 640.250568 
z
" clip-path="url(#p9557573ddb)" style="fill: #ffd700; opacity: 0.85"/>
   </g>
   <g id="patch_74">
    <path d="M 666.282653 644.224972 
L 675.715524 644.224972 
L 675.715524 641.087284 
L 666.282653 641.087284 
z
" clip-path="url(#p9557573ddb)" style="fill: #ffd700; opacity: 0.85"/>
   </g>
   <g id="patch_75">
    <path d="M 672.571234 644.224972 
L 682.004105 644.224972 
L 682.004105 641.416521 
L 672.571234 641.416521 
z
" clip-path="url(#p9557573ddb)" style="fill: #ffd700; opacity: 0.85"/>
   </g>
   <g id="patch_76">
    <path d="M 697.725556 644.224972 
L 707.158427 644.224972 
L 707.158427 640.935065 
L 697.725556 640.935065 
z
" clip-path="url(#p9557573ddb)" style="fill: #ffd700; opacity: 0.85"/>
   </g>
   <g id="patch_77">
    <path d="M 704.014137 644.224972 
L 713.447008 644.224972 
L 713.447008 636.869329 
L 704.014137 636.869329 
z
" clip-path="url(#p9557573ddb)" style="fill: #ffd700; opacity: 0.85"/>
   </g>
   <g id="patch_78">
    <path d="M 710.302718 644.224972 
L 719.735589 644.224972 
L 719.735589 643.204855 
L 710.302718 643.204855 
z
" clip-path="url(#p9557573ddb)" style="fill: #ffd700; opacity: 0.85"/>
   </g>
   <g id="patch_79">
    <path d="M 716.591298 644.224972 
L 726.024169 644.224972 
L 726.024169 643.19749 
L 716.591298 643.19749 
z
" clip-path="url(#p9557573ddb)" style="fill: #ffd700; opacity: 0.85"/>
   </g>
   <g id="patch_80">
    <path d="M 722.879879 644.224972 
L 732.31275 644.224972 
L 732.31275 643.754073 
L 722.879879 643.754073 
z
" clip-path="url(#p9557573ddb)" style="fill: #ffd700; opacity: 0.85"/>
   </g>
   <g id="patch_81">
    <path d="M 741.745621 644.224972 
L 751.178492 644.224972 
L 751.178492 637.529765 
L 741.745621 637.529765 
z
" clip-path="url(#p9557573ddb)" style="fill: #ffd700; opacity: 0.85"/>
   </g>
   <g id="patch_82">
    <path d="M 748.034201 644.224972 
L 757.467072 644.224972 
L 757.467072 640.36596 
L 748.034201 640.36596 
z
" clip-path="url(#p9557573ddb)" style="fill: #ffd700; opacity: 0.85"/>
   </g>
   <g id="patch_83">
    <path d="M 754.322782 644.224972 
L 763.755653 644.224972 
L 763.755653 640.844224 
L 754.322782 640.844224 
z
" clip-path="url(#p9557573ddb)" style="fill: #ffd700; opacity: 0.85"/>
   </g>
   <g id="patch_84">
    <path d="M 760.611363 644.224972 
L 770.044234 644.224972 
L 770.044234 633.294624 
L 760.611363 633.294624 
z
" clip-path="url(#p9557573ddb)" style="fill: #ffd700; opacity: 0.85"/>
   </g>
   <g id="patch_85">
    <path d="M 785.765685 644.224972 
L 795.198556 644.224972 
L 795.198556 635.506473 
L 785.765685 635.506473 
z
" clip-path="url(#p9557573ddb)" style="fill: #ffd700; opacity: 0.85"/>
   </g>
   <g id="patch_86">
    <path d="M 792.054266 644.224972 
L 801.487137 644.224972 
L 801.487137 631.231312 
L 792.054266 631.231312 
z
" clip-path="url(#p9557573ddb)" style="fill: #ffd700; opacity: 0.85"/>
   </g>
   <g id="patch_87">
    <path d="M 798.342846 644.224972 
L 807.775717 644.224972 
L 807.775717 602.353784 
L 798.342846 602.353784 
z
" clip-path="url(#p9557573ddb)" style="fill: #ffd700; opacity: 0.85"/>
   </g>
   <g id="patch_88">
    <path d="M 804.631427 644.224972 
L 814.064298 644.224972 
L 814.064298 642.610708 
L 804.631427 642.610708 
z
" clip-path="url(#p9557573ddb)" style="fill: #ffd700; opacity: 0.85"/>
   </g>
   <g id="patch_89">
    <path d="M 810.920008 644.224972 
L 820.352879 644.224972 
L 820.352879 611.919066 
L 810.920008 611.919066 
z
" clip-path="url(#p9557573ddb)" style="fill: #ffd700; opacity: 0.85"/>
   </g>
   <g id="patch_90">
    <path d="M 829.78575 644.224972 
L 839.218621 644.224972 
L 839.218621 642.205853 
L 829.78575 642.205853 
z
" clip-path="url(#p9557573ddb)" style="fill: #ffd700; opacity: 0.85"/>
   </g>
   <g id="patch_91">
    <path d="M 836.07433 644.224972 
L 845.507201 644.224972 
L 845.507201 643.049444 
L 836.07433 643.049444 
z
" clip-path="url(#p9557573ddb)" style="fill: #ffd700; opacity: 0.85"/>
   </g>
   <g id="patch_92">
    <path d="M 842.362911 644.224972 
L 851.795782 644.224972 
L 851.795782 643.080379 
L 842.362911 643.080379 
z
" clip-path="url(#p9557573ddb)" style="fill: #ffd700; opacity: 0.85"/>
   </g>
   <g id="patch_93">
    <path d="M 848.651492 644.224972 
L 858.084362 644.224972 
L 858.084362 643.843441 
L 848.651492 643.843441 
z
" clip-path="url(#p9557573ddb)" style="fill: #ffd700; opacity: 0.85"/>
   </g>
   <g id="patch_94">
    <path d="M 854.940072 644.224972 
L 864.372943 644.224972 
L 864.372943 641.416275 
L 854.940072 641.416275 
z
" clip-path="url(#p9557573ddb)" style="fill: #ffd700; opacity: 0.85"/>
   </g>
   <g id="patch_95">
    <path d="M 873.805814 644.224972 
L 883.238685 644.224972 
L 883.238685 642.514711 
L 873.805814 642.514711 
z
" clip-path="url(#p9557573ddb)" style="fill: #ffd700; opacity: 0.85"/>
   </g>
   <g id="patch_96">
    <path d="M 880.094395 644.224972 
L 889.527266 644.224972 
L 889.527266 643.584177 
L 880.094395 643.584177 
z
" clip-path="url(#p9557573ddb)" style="fill: #ffd700; opacity: 0.85"/>
   </g>
   <g id="patch_97">
    <path d="M 886.382975 644.224972 
L 895.815846 644.224972 
L 895.815846 638.694 
L 886.382975 638.694 
z
" clip-path="url(#p9557573ddb)" style="fill: #ffd700; opacity: 0.85"/>
   </g>
   <g id="patch_98">
    <path d="M 892.671556 644.224972 
L 902.104427 644.224972 
L 902.104427 643.345045 
L 892.671556 643.345045 
z
" clip-path="url(#p9557573ddb)" style="fill: #ffd700; opacity: 0.85"/>
   </g>
   <g id="patch_99">
    <path d="M 898.960137 644.224972 
L 908.393007 644.224972 
L 908.393007 643.464856 
L 898.960137 643.464856 
z
" clip-path="url(#p9557573ddb)" style="fill: #ffd700; opacity: 0.85"/>
   </g>
   <g id="patch_100">
    <path d="M 917.825878 644.224972 
L 927.258749 644.224972 
L 927.258749 643.778134 
L 917.825878 643.778134 
z
" clip-path="url(#p9557573ddb)" style="fill: #ffd700; opacity: 0.85"/>
   </g>
   <g id="patch_101">
    <path d="M 924.114459 644.224972 
L 933.54733 644.224972 
L 933.54733 642.175163 
L 924.114459 642.175163 
z
" clip-path="url(#p9557573ddb)" style="fill: #ffd700; opacity: 0.85"/>
   </g>
   <g id="patch_102">
    <path d="M 930.40304 644.224972 
L 939.835911 644.224972 
L 939.835911 643.341607 
L 930.40304 643.341607 
z
" clip-path="url(#p9557573ddb)" style="fill: #ffd700; opacity: 0.85"/>
   </g>
   <g id="patch_103">
    <path d="M 936.69162 644.224972 
L 946.124491 644.224972 
L 946.124491 643.716264 
L 936.69162 643.716264 
z
" clip-path="url(#p9557573ddb)" style="fill: #ffd700; opacity: 0.85"/>
   </g>
   <g id="patch_104">
    <path d="M 942.980201 644.224972 
L 952.413072 644.224972 
L 952.413072 643.724121 
L 942.980201 643.724121 
z
" clip-path="url(#p9557573ddb)" style="fill: #ffd700; opacity: 0.85"/>
   </g>
   <g id="patch_105">
    <path d="M 961.845943 644.224972 
L 971.278814 644.224972 
L 971.278814 642.967933 
L 961.845943 642.967933 
z
" clip-path="url(#p9557573ddb)" style="fill: #ffd700; opacity: 0.85"/>
   </g>
   <g id="patch_106">
    <path d="M 968.134523 644.224972 
L 977.567394 644.224972 
L 977.567394 643.593997 
L 968.134523 643.593997 
z
" clip-path="url(#p9557573ddb)" style="fill: #ffd700; opacity: 0.85"/>
   </g>
   <g id="patch_107">
    <path d="M 974.423104 644.224972 
L 983.855975 644.224972 
L 983.855975 643.850806 
L 974.423104 643.850806 
z
" clip-path="url(#p9557573ddb)" style="fill: #ffd700; opacity: 0.85"/>
   </g>
   <g id="patch_108">
    <path d="M 980.711685 644.224972 
L 990.144556 644.224972 
L 990.144556 640.04679 
L 980.711685 640.04679 
z
" clip-path="url(#p9557573ddb)" style="fill: #ffd700; opacity: 0.85"/>
   </g>
   <g id="patch_109">
    <path d="M 987.000265 644.224972 
L 996.433136 644.224972 
L 996.433136 640.280766 
L 987.000265 640.280766 
z
" clip-path="url(#p9557573ddb)" style="fill: #ffd700; opacity: 0.85"/>
   </g>
   <g id="patch_110">
    <path d="M 1005.866007 644.224972 
L 1015.298878 644.224972 
L 1015.298878 643.533601 
L 1005.866007 643.533601 
z
" clip-path="url(#p9557573ddb)" style="fill: #ffd700; opacity: 0.85"/>
   </g>
   <g id="patch_111">
    <path d="M 1012.154588 644.224972 
L 1021.587459 644.224972 
L 1021.587459 644.098286 
L 1012.154588 644.098286 
z
" clip-path="url(#p9557573ddb)" style="fill: #ffd700; opacity: 0.85"/>
   </g>
   <g id="patch_112">
    <path d="M 1018.443169 644.224972 
L 1027.876039 644.224972 
L 1027.876039 644.034207 
L 1018.443169 644.034207 
z
" clip-path="url(#p9557573ddb)" style="fill: #ffd700; opacity: 0.85"/>
   </g>
   <g id="patch_113">
    <path d="M 1024.731749 644.224972 
L 1034.16462 644.224972 
L 1034.16462 643.974546 
L 1024.731749 643.974546 
z
" clip-path="url(#p9557573ddb)" style="fill: #ffd700; opacity: 0.85"/>
   </g>
   <g id="patch_114">
    <path d="M 1031.02033 644.224972 
L 1040.453201 644.224972 
L 1040.453201 638.316888 
L 1031.02033 638.316888 
z
" clip-path="url(#p9557573ddb)" style="fill: #ffd700; opacity: 0.85"/>
   </g>
   <g id="patch_115">
    <path d="M 1049.886072 644.224972 
L 1059.318943 644.224972 
L 1059.318943 643.16901 
L 1049.886072 643.16901 
z
" clip-path="url(#p9557573ddb)" style="fill: #ffd700; opacity: 0.85"/>
   </g>
   <g id="patch_116">
    <path d="M 1056.174652 644.224972 
L 1065.607523 644.224972 
L 1065.607523 642.574372 
L 1056.174652 642.574372 
z
" clip-path="url(#p9557573ddb)" style="fill: #ffd700; opacity: 0.85"/>
   </g>
   <g id="patch_117">
    <path d="M 1062.463233 644.224972 
L 1071.896104 644.224972 
L 1071.896104 643.040114 
L 1062.463233 643.040114 
z
" clip-path="url(#p9557573ddb)" style="fill: #ffd700; opacity: 0.85"/>
   </g>
   <g id="patch_118">
    <path d="M 1068.751814 644.224972 
L 1078.184684 644.224972 
L 1078.184684 638.863651 
L 1068.751814 638.863651 
z
" clip-path="url(#p9557573ddb)" style="fill: #ffd700; opacity: 0.85"/>
   </g>
   <g id="patch_119">
    <path d="M 1075.040394 644.224972 
L 1084.473265 644.224972 
L 1084.473265 626.105931 
L 1075.040394 626.105931 
z
" clip-path="url(#p9557573ddb)" style="fill: #ffd700; opacity: 0.85"/>
   </g>
   <g id="patch_120">
    <path d="M 1093.906136 644.224972 
L 1103.339007 644.224972 
L 1103.339007 642.296694 
L 1093.906136 642.296694 
z
" clip-path="url(#p9557573ddb)" style="fill: #ffd700; opacity: 0.85"/>
   </g>
   <g id="patch_121">
    <path d="M 1100.194717 644.224972 
L 1109.627588 644.224972 
L 1109.627588 643.625914 
L 1100.194717 643.625914 
z
" clip-path="url(#p9557573ddb)" style="fill: #ffd700; opacity: 0.85"/>
   </g>
   <g id="patch_122">
    <path d="M 1106.483297 644.224972 
L 1115.916168 644.224972 
L 1115.916168 643.80735 
L 1106.483297 643.80735 
z
" clip-path="url(#p9557573ddb)" style="fill: #ffd700; opacity: 0.85"/>
   </g>
   <g id="patch_123">
    <path d="M 1112.771878 644.224972 
L 1122.204749 644.224972 
L 1122.204749 644.165312 
L 1112.771878 644.165312 
z
" clip-path="url(#p9557573ddb)" style="fill: #ffd700; opacity: 0.85"/>
   </g>
   <g id="patch_124">
    <path d="M 1119.060459 644.224972 
L 1128.49333 644.224972 
L 1128.49333 644.106143 
L 1119.060459 644.106143 
z
" clip-path="url(#p9557573ddb)" style="fill: #ffd700; opacity: 0.85"/>
   </g>
   <g id="patch_125">
    <path d="M 1137.9262 644.224972 
L 1147.359071 644.224972 
L 1147.359071 644.048201 
L 1137.9262 644.048201 
z
" clip-path="url(#p9557573ddb)" style="fill: #ffd700; opacity: 0.85"/>
   </g>
   <g id="patch_126">
    <path d="M 1144.214781 644.224972 
L 1153.647652 644.224972 
L 1153.647652 643.57141 
L 1144.214781 643.57141 
z
" clip-path="url(#p9557573ddb)" style="fill: #ffd700; opacity: 0.85"/>
   </g>
   <g id="patch_127">
    <path d="M 1150.503362 644.224972 
L 1159.936233 644.224972 
L 1159.936233 641.985871 
L 1150.503362 641.985871 
z
" clip-path="url(#p9557573ddb)" style="fill: #ffd700; opacity: 0.85"/>
   </g>
   <g id="patch_128">
    <path d="M 1163.080523 644.224972 
L 1172.513394 644.224972 
L 1172.513394 635.765491 
L 1163.080523 635.765491 
z
" clip-path="url(#p9557573ddb)" style="fill: #ffd700; opacity: 0.85"/>
   </g>
   <g id="patch_129">
    <path d="M 1181.946265 644.224972 
L 1191.379136 644.224972 
L 1191.379136 642.903608 
L 1181.946265 642.903608 
z
" clip-path="url(#p9557573ddb)" style="fill: #ffd700; opacity: 0.85"/>
   </g>
   <g id="patch_130">
    <path d="M 1188.234845 644.224972 
L 1197.667716 644.224972 
L 1197.667716 642.097826 
L 1188.234845 642.097826 
z
" clip-path="url(#p9557573ddb)" style="fill: #ffd700; opacity: 0.85"/>
   </g>
   <g id="patch_131">
    <path d="M 1194.523426 644.224972 
L 1203.956297 644.224972 
L 1203.956297 643.761439 
L 1194.523426 643.761439 
z
" clip-path="url(#p9557573ddb)" style="fill: #ffd700; opacity: 0.85"/>
   </g>
   <g id="patch_132">
    <path d="M 1207.100587 644.224972 
L 1216.533458 644.224972 
L 1216.533458 640.907813 
L 1207.100587 640.907813 
z
" clip-path="url(#p9557573ddb)" style="fill: #ffd700; opacity: 0.85"/>
   </g>
   <g id="patch_133">
    <path d="M 1225.966329 644.224972 
L 1235.3992 644.224972 
L 1235.3992 643.699078 
L 1225.966329 643.699078 
z
" clip-path="url(#p9557573ddb)" style="fill: #ffd700; opacity: 0.85"/>
   </g>
   <g id="patch_134">
    <path d="M 1232.25491 644.224972 
L 1241.687781 644.224972 
L 1241.687781 642.944854 
L 1232.25491 642.944854 
z
" clip-path="url(#p9557573ddb)" style="fill: #ffd700; opacity: 0.85"/>
   </g>
   <g id="patch_135">
    <path d="M 1238.543491 644.224972 
L 1247.976361 644.224972 
L 1247.976361 643.582213 
L 1238.543491 643.582213 
z
" clip-path="url(#p9557573ddb)" style="fill: #ffd700; opacity: 0.85"/>
   </g>
   <g id="patch_136">
    <path d="M 1244.832071 644.224972 
L 1254.264942 644.224972 
L 1254.264942 638.273677 
L 1244.832071 638.273677 
z
" clip-path="url(#p9557573ddb)" style="fill: #ffd700; opacity: 0.85"/>
   </g>
   <g id="patch_137">
    <path d="M 1251.120652 644.224972 
L 1260.553523 644.224972 
L 1260.553523 643.759475 
L 1251.120652 643.759475 
z
" clip-path="url(#p9557573ddb)" style="fill: #ffd700; opacity: 0.85"/>
   </g>
  </g>
  <g id="axes_3">
   <g id="matplotlib.axis_4">
    <g id="ytick_11">
     <g id="line2d_24">
      <g>
       <use xlink:href="#m1f0d447ea1" x="1378.25125" y="644.224972" style="stroke: #000000; stroke-width: 0.8"/>
      </g>
     </g>
     <g id="text_23">
      <!-- 0.0 -->
      <g style="fill: #ff0000" transform="translate(1385.25125 648.024191) scale(0.1 -0.1)">
       <defs>
        <path id="DejaVuSans-2e" d="M 684 794 
L 1344 794 
L 1344 0 
L 684 0 
L 684 794 
z
" transform="scale(0.015625)"/>
       </defs>
       <use xlink:href="#DejaVuSans-30"/>
       <use xlink:href="#DejaVuSans-2e" x="63.623047"/>
       <use xlink:href="#DejaVuSans-30" x="95.410156"/>
      </g>
     </g>
    </g>
    <g id="ytick_12">
     <g id="line2d_25">
      <g>
       <use xlink:href="#m1f0d447ea1" x="1378.25125" y="580.09922" style="stroke: #000000; stroke-width: 0.8"/>
      </g>
     </g>
     <g id="text_24">
      <!-- 2.5 -->
      <g style="fill: #ff0000" transform="translate(1385.25125 583.898439) scale(0.1 -0.1)">
       <use xlink:href="#DejaVuSans-32"/>
       <use xlink:href="#DejaVuSans-2e" x="63.623047"/>
       <use xlink:href="#DejaVuSans-35" x="95.410156"/>
      </g>
     </g>
    </g>
    <g id="ytick_13">
     <g id="line2d_26">
      <g>
       <use xlink:href="#m1f0d447ea1" x="1378.25125" y="515.973468" style="stroke: #000000; stroke-width: 0.8"/>
      </g>
     </g>
     <g id="text_25">
      <!-- 5.0 -->
      <g style="fill: #ff0000" transform="translate(1385.25125 519.772687) scale(0.1 -0.1)">
       <use xlink:href="#DejaVuSans-35"/>
       <use xlink:href="#DejaVuSans-2e" x="63.623047"/>
       <use xlink:href="#DejaVuSans-30" x="95.410156"/>
      </g>
     </g>
    </g>
    <g id="ytick_14">
     <g id="line2d_27">
      <g>
       <use xlink:href="#m1f0d447ea1" x="1378.25125" y="451.847716" style="stroke: #000000; stroke-width: 0.8"/>
      </g>
     </g>
     <g id="text_26">
      <!-- 7.5 -->
      <g style="fill: #ff0000" transform="translate(1385.25125 455.646935) scale(0.1 -0.1)">
       <defs>
        <path id="DejaVuSans-37" d="M 525 4666 
L 3525 4666 
L 3525 4397 
L 1831 0 
L 1172 0 
L 2766 4134 
L 525 4134 
L 525 4666 
z
" transform="scale(0.015625)"/>
       </defs>
       <use xlink:href="#DejaVuSans-37"/>
       <use xlink:href="#DejaVuSans-2e" x="63.623047"/>
       <use xlink:href="#DejaVuSans-35" x="95.410156"/>
      </g>
     </g>
    </g>
    <g id="ytick_15">
     <g id="line2d_28">
      <g>
       <use xlink:href="#m1f0d447ea1" x="1378.25125" y="387.721964" style="stroke: #000000; stroke-width: 0.8"/>
      </g>
     </g>
     <g id="text_27">
      <!-- 10.0 -->
      <g style="fill: #ff0000" transform="translate(1385.25125 391.521183) scale(0.1 -0.1)">
       <use xlink:href="#DejaVuSans-31"/>
       <use xlink:href="#DejaVuSans-30" x="63.623047"/>
       <use xlink:href="#DejaVuSans-2e" x="127.246094"/>
       <use xlink:href="#DejaVuSans-30" x="159.033203"/>
      </g>
     </g>
    </g>
    <g id="ytick_16">
     <g id="line2d_29">
      <g>
       <use xlink:href="#m1f0d447ea1" x="1378.25125" y="323.596212" style="stroke: #000000; stroke-width: 0.8"/>
      </g>
     </g>
     <g id="text_28">
      <!-- 12.5 -->
      <g style="fill: #ff0000" transform="translate(1385.25125 327.395431) scale(0.1 -0.1)">
       <use xlink:href="#DejaVuSans-31"/>
       <use xlink:href="#DejaVuSans-32" x="63.623047"/>
       <use xlink:href="#DejaVuSans-2e" x="127.246094"/>
       <use xlink:href="#DejaVuSans-35" x="159.033203"/>
      </g>
     </g>
    </g>
    <g id="ytick_17">
     <g id="line2d_30">
      <g>
       <use xlink:href="#m1f0d447ea1" x="1378.25125" y="259.47046" style="stroke: #000000; stroke-width: 0.8"/>
      </g>
     </g>
     <g id="text_29">
      <!-- 15.0 -->
      <g style="fill: #ff0000" transform="translate(1385.25125 263.269679) scale(0.1 -0.1)">
       <use xlink:href="#DejaVuSans-31"/>
       <use xlink:href="#DejaVuSans-35" x="63.623047"/>
       <use xlink:href="#DejaVuSans-2e" x="127.246094"/>
       <use xlink:href="#DejaVuSans-30" x="159.033203"/>
      </g>
     </g>
    </g>
    <g id="ytick_18">
     <g id="line2d_31">
      <g>
       <use xlink:href="#m1f0d447ea1" x="1378.25125" y="195.344708" style="stroke: #000000; stroke-width: 0.8"/>
      </g>
     </g>
     <g id="text_30">
      <!-- 17.5 -->
      <g style="fill: #ff0000" transform="translate(1385.25125 199.143927) scale(0.1 -0.1)">
       <use xlink:href="#DejaVuSans-31"/>
       <use xlink:href="#DejaVuSans-37" x="63.623047"/>
       <use xlink:href="#DejaVuSans-2e" x="127.246094"/>
       <use xlink:href="#DejaVuSans-35" x="159.033203"/>
      </g>
     </g>
    </g>
    <g id="ytick_19">
     <g id="line2d_32">
      <g>
       <use xlink:href="#m1f0d447ea1" x="1378.25125" y="131.218956" style="stroke: #000000; stroke-width: 0.8"/>
      </g>
     </g>
     <g id="text_31">
      <!-- 20.0 -->
      <g style="fill: #ff0000" transform="translate(1385.25125 135.018175) scale(0.1 -0.1)">
       <use xlink:href="#DejaVuSans-32"/>
       <use xlink:href="#DejaVuSans-30" x="63.623047"/>
       <use xlink:href="#DejaVuSans-2e" x="127.246094"/>
       <use xlink:href="#DejaVuSans-30" x="159.033203"/>
      </g>
     </g>
    </g>
    <g id="text_32">
     <!-- 融資餘額/市值 (%) [長期趨勢] -->
     <g style="fill: #ff0000" transform="translate(1420.635 429.589408) rotate(-90) scale(0.12 -0.12)">
      <defs>
       <path id="DejaVuSans-Bold-2f" d="M 1644 4666 
L 2338 4666 
L 691 -594 
L 0 -594 
L 1644 4666 
z
" transform="scale(0.015625)"/>
       <path id="DejaVuSans-Bold-5e02" d="M 319 -1131 
L 319 4513 
L 3519 4513 
L 3519 -1131 
L 319 -1131 
z
M 678 -775 
L 3163 -775 
L 3163 4153 
L 678 4153 
L 678 -775 
z
" transform="scale(0.015625)"/>
       <path id="DejaVuSans-Bold-503c" d="M 319 -1131 
L 319 4513 
L 3519 4513 
L 3519 -1131 
L 319 -1131 
z
M 678 -775 
L 3163 -775 
L 3163 4153 
L 678 4153 
L 678 -775 
z
" transform="scale(0.015625)"/>
       <path id="DejaVuSans-Bold-25" d="M 4959 1925 
Q 4738 1925 4616 1733 
Q 4494 1541 4494 1184 
Q 4494 825 4614 633 
Q 4734 441 4959 441 
Q 5184 441 5303 633 
Q 5422 825 5422 1184 
Q 5422 1541 5301 1733 
Q 5181 1925 4959 1925 
z
M 4959 2450 
Q 5541 2450 5875 2112 
Q 6209 1775 6209 1184 
Q 6209 594 5875 251 
Q 5541 -91 4959 -91 
Q 4378 -91 4042 251 
Q 3706 594 3706 1184 
Q 3706 1772 4042 2111 
Q 4378 2450 4959 2450 
z
M 2094 -91 
L 1403 -91 
L 4319 4750 
L 5013 4750 
L 2094 -91 
z
M 1453 4750 
Q 2034 4750 2367 4411 
Q 2700 4072 2700 3481 
Q 2700 2891 2367 2550 
Q 2034 2209 1453 2209 
Q 872 2209 539 2550 
Q 206 2891 206 3481 
Q 206 4072 539 4411 
Q 872 4750 1453 4750 
z
M 1453 4225 
Q 1228 4225 1106 4031 
Q 984 3838 984 3481 
Q 984 3122 1106 2926 
Q 1228 2731 1453 2731 
Q 1678 2731 1798 2926 
Q 1919 3122 1919 3481 
Q 1919 3838 1797 4031 
Q 1675 4225 1453 4225 
z
" transform="scale(0.015625)"/>
       <path id="DejaVuSans-Bold-5b" d="M 550 4863 
L 2491 4863 
L 2491 4159 
L 1613 4159 
L 1613 -141 
L 2491 -141 
L 2491 -844 
L 550 -844 
L 550 4863 
z
" transform="scale(0.015625)"/>
       <path id="DejaVuSans-Bold-9577" d="M 319 -1131 
L 319 4513 
L 3519 4513 
L 3519 -1131 
L 319 -1131 
z
M 678 -775 
L 3163 -775 
L 3163 4153 
L 678 4153 
L 678 -775 
z
" transform="scale(0.015625)"/>
       <path id="DejaVuSans-Bold-8da8" d="M 319 -1131 
L 319 4513 
L 3519 4513 
L 3519 -1131 
L 319 -1131 
z
M 678 -775 
L 3163 -775 
L 3163 4153 
L 678 4153 
L 678 -775 
z
" transform="scale(0.015625)"/>
       <path id="DejaVuSans-Bold-52e2" d="M 319 -1131 
L 319 4513 
L 3519 4513 
L 3519 -1131 
L 319 -1131 
z
M 678 -775 
L 3163 -775 
L 3163 4153 
L 678 4153 
L 678 -775 
z
" transform="scale(0.015625)"/>
       <path id="DejaVuSans-Bold-5d" d="M 2375 -844 
L 434 -844 
L 434 -141 
L 1313 -141 
L 1313 4159 
L 434 4159 
L 434 4863 
L 2375 4863 
L 2375 -844 
z
" transform="scale(0.015625)"/>
      </defs>
      <use xlink:href="#DejaVuSans-Bold-878d"/>
      <use xlink:href="#DejaVuSans-Bold-8cc7" x="60.009766"/>
      <use xlink:href="#DejaVuSans-Bold-9918" x="120.019531"/>
      <use xlink:href="#DejaVuSans-Bold-984d" x="180.029297"/>
      <use xlink:href="#DejaVuSans-Bold-2f" x="240.039062"/>
      <use xlink:href="#DejaVuSans-Bold-5e02" x="276.5625"/>
      <use xlink:href="#DejaVuSans-Bold-503c" x="336.572266"/>
      <use xlink:href="#DejaVuSans-Bold-20" x="396.582031"/>
      <use xlink:href="#DejaVuSans-Bold-28" x="431.396484"/>
      <use xlink:href="#DejaVuSans-Bold-25" x="477.099609"/>
      <use xlink:href="#DejaVuSans-Bold-29" x="577.294922"/>
      <use xlink:href="#DejaVuSans-Bold-20" x="622.998047"/>
      <use xlink:href="#DejaVuSans-Bold-5b" x="657.8125"/>
      <use xlink:href="#DejaVuSans-Bold-9577" x="703.515625"/>
      <use xlink:href="#DejaVuSans-Bold-671f" x="763.525391"/>
      <use xlink:href="#DejaVuSans-Bold-8da8" x="823.535156"/>
      <use xlink:href="#DejaVuSans-Bold-52e2" x="883.544922"/>
      <use xlink:href="#DejaVuSans-Bold-5d" x="943.554688"/>
     </g>
    </g>
   </g>
   <g id="patch_138">
    <path d="M 48.90125 644.224972 
L 48.90125 96.234469 
" style="fill: none; stroke: #000000; stroke-width: 0.8; stroke-linejoin: miter; stroke-linecap: square"/>
   </g>
   <g id="patch_139">
    <path d="M 1378.25125 644.224972 
L 1378.25125 96.234469 
" style="fill: none; stroke: #000000; stroke-width: 0.8; stroke-linejoin: miter; stroke-linecap: square"/>
   </g>
   <g id="patch_140">
    <path d="M 48.90125 644.224972 
L 1318.25125 644.224972 
" style="fill: none; stroke: #000000; stroke-width: 0.8; stroke-linejoin: miter; stroke-linecap: square"/>
   </g>
   <g id="patch_141">
    <path d="M 48.90125 96.234469 
L 1318.25125 96.234469 
" style="fill: none; stroke: #000000; stroke-width: 0.8; stroke-linejoin: miter; stroke-linecap: square"/>
   </g>
   <g id="text_33">
    <!-- 昕奇雲端 (7747): 融資餘額與股價分析 -->
    <g transform="translate(601.706719 17.077969) scale(0.13 -0.13)">
     <defs>
      <path id="DejaVuSans-Bold-6615" d="M 319 -1131 
L 319 4513 
L 3519 4513 
L 3519 -1131 
L 319 -1131 
z
M 678 -775 
L 3163 -775 
L 3163 4153 
L 678 4153 
L 678 -775 
z
" transform="scale(0.015625)"/>
      <path id="DejaVuSans-Bold-5947" d="M 319 -1131 
L 319 4513 
L 3519 4513 
L 3519 -1131 
L 319 -1131 
z
M 678 -775 
L 3163 -775 
L 3163 4153 
L 678 4153 
L 678 -775 
z
" transform="scale(0.015625)"/>
      <path id="DejaVuSans-Bold-96f2" d="M 319 -1131 
L 319 4513 
L 3519 4513 
L 3519 -1131 
L 319 -1131 
z
M 678 -775 
L 3163 -775 
L 3163 4153 
L 678 4153 
L 678 -775 
z
" transform="scale(0.015625)"/>
      <path id="DejaVuSans-Bold-7aef" d="M 319 -1131 
L 319 4513 
L 3519 4513 
L 3519 -1131 
L 319 -1131 
z
M 678 -775 
L 3163 -775 
L 3163 4153 
L 678 4153 
L 678 -775 
z
" transform="scale(0.015625)"/>
      <path id="DejaVuSans-Bold-37" d="M 428 4666 
L 3944 4666 
L 3944 3988 
L 2125 0 
L 953 0 
L 2675 3781 
L 428 3781 
L 428 4666 
z
" transform="scale(0.015625)"/>
      <path id="DejaVuSans-Bold-34" d="M 2356 3675 
L 1038 1722 
L 2356 1722 
L 2356 3675 
z
M 2156 4666 
L 3494 4666 
L 3494 1722 
L 4159 1722 
L 4159 850 
L 3494 850 
L 3494 0 
L 2356 0 
L 2356 850 
L 288 850 
L 288 1881 
L 2156 4666 
z
" transform="scale(0.015625)"/>
      <path id="DejaVuSans-Bold-3a" d="M 716 3500 
L 1844 3500 
L 1844 2291 
L 716 2291 
L 716 3500 
z
M 716 1209 
L 1844 1209 
L 1844 0 
L 716 0 
L 716 1209 
z
" transform="scale(0.015625)"/>
      <path id="DejaVuSans-Bold-8207" d="M 319 -1131 
L 319 4513 
L 3519 4513 
L 3519 -1131 
L 319 -1131 
z
M 678 -775 
L 3163 -775 
L 3163 4153 
L 678 4153 
L 678 -775 
z
" transform="scale(0.015625)"/>
      <path id="DejaVuSans-Bold-80a1" d="M 319 -1131 
L 319 4513 
L 3519 4513 
L 3519 -1131 
L 319 -1131 
z
M 678 -775 
L 3163 -775 
L 3163 4153 
L 678 4153 
L 678 -775 
z
" transform="scale(0.015625)"/>
      <path id="DejaVuSans-Bold-5206" d="M 319 -1131 
L 319 4513 
L 3519 4513 
L 3519 -1131 
L 319 -1131 
z
M 678 -775 
L 3163 -775 
L 3163 4153 
L 678 4153 
L 678 -775 
z
" transform="scale(0.015625)"/>
      <path id="DejaVuSans-Bold-6790" d="M 319 -1131 
L 319 4513 
L 3519 4513 
L 3519 -1131 
L 319 -1131 
z
M 678 -775 
L 3163 -775 
L 3163 4153 
L 678 4153 
L 678 -775 
z
" transform="scale(0.015625)"/>
     </defs>
     <use xlink:href="#DejaVuSans-Bold-6615"/>
     <use xlink:href="#DejaVuSans-Bold-5947" x="60.009766"/>
     <use xlink:href="#DejaVuSans-Bold-96f2" x="120.019531"/>
     <use xlink:href="#DejaVuSans-Bold-7aef" x="180.029297"/>
     <use xlink:href="#DejaVuSans-Bold-20" x="240.039062"/>
     <use xlink:href="#DejaVuSans-Bold-28" x="274.853516"/>
     <use xlink:href="#DejaVuSans-Bold-37" x="320.556641"/>
     <use xlink:href="#DejaVuSans-Bold-37" x="390.136719"/>
     <use xlink:href="#DejaVuSans-Bold-34" x="459.716797"/>
     <use xlink:href="#DejaVuSans-Bold-37" x="529.296875"/>
     <use xlink:href="#DejaVuSans-Bold-29" x="598.876953"/>
     <use xlink:href="#DejaVuSans-Bold-3a" x="644.580078"/>
     <use xlink:href="#DejaVuSans-Bold-20" x="684.570312"/>
     <use xlink:href="#DejaVuSans-Bold-878d" x="719.384766"/>
     <use xlink:href="#DejaVuSans-Bold-8cc7" x="779.394531"/>
     <use xlink:href="#DejaVuSans-Bold-9918" x="839.404297"/>
     <use xlink:href="#DejaVuSans-Bold-984d" x="899.414062"/>
     <use xlink:href="#DejaVuSans-Bold-8207" x="959.423828"/>
     <use xlink:href="#DejaVuSans-Bold-80a1" x="1019.433594"/>
     <use xlink:href="#DejaVuSans-Bold-50f9" x="1079.443359"/>
     <use xlink:href="#DejaVuSans-Bold-5206" x="1139.453125"/>
     <use xlink:href="#DejaVuSans-Bold-6790" x="1199.462891"/>
    </g>
    <!-- (長期資料: 125 點, 2025-07-11 ~ 2026-01-09 | 日資料: 最近1年) -->
    <g transform="translate(499.891328 31.703375) scale(0.13 -0.13)">
     <defs>
      <path id="DejaVuSans-Bold-6599" d="M 319 -1131 
L 319 4513 
L 3519 4513 
L 3519 -1131 
L 319 -1131 
z
M 678 -775 
L 3163 -775 
L 3163 4153 
L 678 4153 
L 678 -775 
z
" transform="scale(0.015625)"/>
      <path id="DejaVuSans-Bold-31" d="M 750 831 
L 1813 831 
L 1813 3847 
L 722 3622 
L 722 4441 
L 1806 4666 
L 2950 4666 
L 2950 831 
L 4013 831 
L 4013 0 
L 750 0 
L 750 831 
z
" transform="scale(0.015625)"/>
      <path id="DejaVuSans-Bold-32" d="M 1844 884 
L 3897 884 
L 3897 0 
L 506 0 
L 506 884 
L 2209 2388 
Q 2438 2594 2547 2791 
Q 2656 2988 2656 3200 
Q 2656 3528 2436 3728 
Q 2216 3928 1850 3928 
Q 1569 3928 1234 3808 
Q 900 3688 519 3450 
L 519 4475 
Q 925 4609 1322 4679 
Q 1719 4750 2100 4750 
Q 2938 4750 3402 4381 
Q 3866 4013 3866 3353 
Q 3866 2972 3669 2642 
Q 3472 2313 2841 1759 
L 1844 884 
z
" transform="scale(0.015625)"/>
      <path id="DejaVuSans-Bold-35" d="M 678 4666 
L 3669 4666 
L 3669 3781 
L 1638 3781 
L 1638 3059 
Q 1775 3097 1914 3117 
Q 2053 3138 2203 3138 
Q 3056 3138 3531 2711 
Q 4006 2284 4006 1522 
Q 4006 766 3489 337 
Q 2972 -91 2053 -91 
Q 1656 -91 1267 -14 
Q 878 63 494 219 
L 494 1166 
Q 875 947 1217 837 
Q 1559 728 1863 728 
Q 2300 728 2551 942 
Q 2803 1156 2803 1522 
Q 2803 1891 2551 2103 
Q 2300 2316 1863 2316 
Q 1603 2316 1309 2248 
Q 1016 2181 678 2041 
L 678 4666 
z
" transform="scale(0.015625)"/>
      <path id="DejaVuSans-Bold-9ede" d="M 319 -1131 
L 319 4513 
L 3519 4513 
L 3519 -1131 
L 319 -1131 
z
M 678 -775 
L 3163 -775 
L 3163 4153 
L 678 4153 
L 678 -775 
z
" transform="scale(0.015625)"/>
      <path id="DejaVuSans-Bold-2c" d="M 653 1209 
L 1778 1209 
L 1778 256 
L 1006 -909 
L 341 -909 
L 653 256 
L 653 1209 
z
" transform="scale(0.015625)"/>
      <path id="DejaVuSans-Bold-30" d="M 2944 2338 
Q 2944 3213 2780 3570 
Q 2616 3928 2228 3928 
Q 1841 3928 1675 3570 
Q 1509 3213 1509 2338 
Q 1509 1453 1675 1090 
Q 1841 728 2228 728 
Q 2613 728 2778 1090 
Q 2944 1453 2944 2338 
z
M 4147 2328 
Q 4147 1169 3647 539 
Q 3147 -91 2228 -91 
Q 1306 -91 806 539 
Q 306 1169 306 2328 
Q 306 3491 806 4120 
Q 1306 4750 2228 4750 
Q 3147 4750 3647 4120 
Q 4147 3491 4147 2328 
z
" transform="scale(0.015625)"/>
      <path id="DejaVuSans-Bold-2d" d="M 347 2297 
L 2309 2297 
L 2309 1388 
L 347 1388 
L 347 2297 
z
" transform="scale(0.015625)"/>
      <path id="DejaVuSans-Bold-7e" d="M 4684 2656 
L 4684 1894 
Q 4353 1644 4073 1536 
Q 3794 1428 3494 1428 
Q 3159 1428 2713 1609 
Q 2669 1628 2644 1638 
Q 2622 1647 2575 1666 
Q 2091 1856 1797 1856 
Q 1522 1856 1253 1736 
Q 984 1616 678 1356 
L 678 2119 
Q 1013 2369 1291 2476 
Q 1569 2584 1869 2584 
Q 2203 2584 2650 2403 
Q 2697 2384 2719 2375 
Q 2741 2366 2788 2347 
Q 3272 2156 3566 2156 
Q 3834 2156 4098 2273 
Q 4363 2391 4684 2656 
z
" transform="scale(0.015625)"/>
      <path id="DejaVuSans-Bold-36" d="M 2316 2303 
Q 2000 2303 1842 2098 
Q 1684 1894 1684 1484 
Q 1684 1075 1842 870 
Q 2000 666 2316 666 
Q 2634 666 2792 870 
Q 2950 1075 2950 1484 
Q 2950 1894 2792 2098 
Q 2634 2303 2316 2303 
z
M 3803 4544 
L 3803 3681 
Q 3506 3822 3243 3889 
Q 2981 3956 2731 3956 
Q 2194 3956 1894 3657 
Q 1594 3359 1544 2772 
Q 1750 2925 1990 3001 
Q 2231 3078 2516 3078 
Q 3231 3078 3670 2659 
Q 4109 2241 4109 1563 
Q 4109 813 3618 361 
Q 3128 -91 2303 -91 
Q 1394 -91 895 523 
Q 397 1138 397 2266 
Q 397 3422 980 4083 
Q 1563 4744 2578 4744 
Q 2900 4744 3203 4694 
Q 3506 4644 3803 4544 
z
" transform="scale(0.015625)"/>
      <path id="DejaVuSans-Bold-39" d="M 641 103 
L 641 966 
Q 928 831 1190 764 
Q 1453 697 1709 697 
Q 2247 697 2547 995 
Q 2847 1294 2900 1881 
Q 2688 1725 2447 1647 
Q 2206 1569 1925 1569 
Q 1209 1569 770 1986 
Q 331 2403 331 3084 
Q 331 3838 820 4291 
Q 1309 4744 2131 4744 
Q 3044 4744 3544 4128 
Q 4044 3513 4044 2388 
Q 4044 1231 3459 570 
Q 2875 -91 1856 -91 
Q 1528 -91 1228 -42 
Q 928 6 641 103 
z
M 2125 2350 
Q 2441 2350 2600 2554 
Q 2759 2759 2759 3169 
Q 2759 3575 2600 3781 
Q 2441 3988 2125 3988 
Q 1809 3988 1650 3781 
Q 1491 3575 1491 3169 
Q 1491 2759 1650 2554 
Q 1809 2350 2125 2350 
z
" transform="scale(0.015625)"/>
      <path id="DejaVuSans-Bold-7c" d="M 1522 4891 
L 1522 -1509 
L 813 -1509 
L 813 4891 
L 1522 4891 
z
" transform="scale(0.015625)"/>
      <path id="DejaVuSans-Bold-6700" d="M 319 -1131 
L 319 4513 
L 3519 4513 
L 3519 -1131 
L 319 -1131 
z
M 678 -775 
L 3163 -775 
L 3163 4153 
L 678 4153 
L 678 -775 
z
" transform="scale(0.015625)"/>
      <path id="DejaVuSans-Bold-8fd1" d="M 319 -1131 
L 319 4513 
L 3519 4513 
L 3519 -1131 
L 319 -1131 
z
M 678 -775 
L 3163 -775 
L 3163 4153 
L 678 4153 
L 678 -775 
z
" transform="scale(0.015625)"/>
      <path id="DejaVuSans-Bold-5e74" d="M 319 -1131 
L 319 4513 
L 3519 4513 
L 3519 -1131 
L 319 -1131 
z
M 678 -775 
L 3163 -775 
L 3163 4153 
L 678 4153 
L 678 -775 
z
" transform="scale(0.015625)"/>
     </defs>
     <use xlink:href="#DejaVuSans-Bold-28"/>
     <use xlink:href="#DejaVuSans-Bold-9577" x="45.703125"/>
     <use xlink:href="#DejaVuSans-Bold-671f" x="105.712891"/>
     <use xlink:href="#DejaVuSans-Bold-8cc7" x="165.722656"/>
     <use xlink:href="#DejaVuSans-Bold-6599" x="225.732422"/>
     <use xlink:href="#DejaVuSans-Bold-3a" x="285.742188"/>
     <use xlink:href="#DejaVuSans-Bold-20" x="325.732422"/>
     <use xlink:href="#DejaVuSans-Bold-31" x="360.546875"/>
     <use xlink:href="#DejaVuSans-Bold-32" x="430.126953"/>
     <use xlink:href="#DejaVuSans-Bold-35" x="499.707031"/>
     <use xlink:href="#DejaVuSans-Bold-20" x="569.287109"/>
     <use xlink:href="#DejaVuSans-Bold-9ede" x="604.101562"/>
     <use xlink:href="#DejaVuSans-Bold-2c" x="664.111328"/>
     <use xlink:href="#DejaVuSans-Bold-20" x="702.099609"/>
     <use xlink:href="#DejaVuSans-Bold-32" x="736.914062"/>
     <use xlink:href="#DejaVuSans-Bold-30" x="806.494141"/>
     <use xlink:href="#DejaVuSans-Bold-32" x="876.074219"/>
     <use xlink:href="#DejaVuSans-Bold-35" x="945.654297"/>
     <use xlink:href="#DejaVuSans-Bold-2d" x="1015.234375"/>
     <use xlink:href="#DejaVuSans-Bold-30" x="1056.738281"/>
     <use xlink:href="#DejaVuSans-Bold-37" x="1126.318359"/>
     <use xlink:href="#DejaVuSans-Bold-2d" x="1195.898438"/>
     <use xlink:href="#DejaVuSans-Bold-31" x="1237.402344"/>
     <use xlink:href="#DejaVuSans-Bold-31" x="1306.982422"/>
     <use xlink:href="#DejaVuSans-Bold-20" x="1376.5625"/>
     <use xlink:href="#DejaVuSans-Bold-7e" x="1411.376953"/>
     <use xlink:href="#DejaVuSans-Bold-20" x="1495.166016"/>
     <use xlink:href="#DejaVuSans-Bold-32" x="1529.980469"/>
     <use xlink:href="#DejaVuSans-Bold-30" x="1599.560547"/>
     <use xlink:href="#DejaVuSans-Bold-32" x="1669.140625"/>
     <use xlink:href="#DejaVuSans-Bold-36" x="1738.720703"/>
     <use xlink:href="#DejaVuSans-Bold-2d" x="1808.300781"/>
     <use xlink:href="#DejaVuSans-Bold-30" x="1849.804688"/>
     <use xlink:href="#DejaVuSans-Bold-31" x="1919.384766"/>
     <use xlink:href="#DejaVuSans-Bold-2d" x="1988.964844"/>
     <use xlink:href="#DejaVuSans-Bold-30" x="2030.46875"/>
     <use xlink:href="#DejaVuSans-Bold-39" x="2100.048828"/>
     <use xlink:href="#DejaVuSans-Bold-20" x="2169.628906"/>
     <use xlink:href="#DejaVuSans-Bold-7c" x="2204.443359"/>
     <use xlink:href="#DejaVuSans-Bold-20" x="2240.966797"/>
     <use xlink:href="#DejaVuSans-Bold-65e5" x="2275.78125"/>
     <use xlink:href="#DejaVuSans-Bold-8cc7" x="2335.791016"/>
     <use xlink:href="#DejaVuSans-Bold-6599" x="2395.800781"/>
     <use xlink:href="#DejaVuSans-Bold-3a" x="2455.810547"/>
     <use xlink:href="#DejaVuSans-Bold-20" x="2495.800781"/>
     <use xlink:href="#DejaVuSans-Bold-6700" x="2530.615234"/>
     <use xlink:href="#DejaVuSans-Bold-8fd1" x="2590.625"/>
     <use xlink:href="#DejaVuSans-Bold-31" x="2650.634766"/>
     <use xlink:href="#DejaVuSans-Bold-5e74" x="2720.214844"/>
     <use xlink:href="#DejaVuSans-Bold-29" x="2780.224609"/>
    </g>
    <!--  -->
    <g transform="translate(683.57625 46.622094) scale(0.13 -0.13)"/>
    <!-- 最新融資餘額: 0.0 億元 | 最新收盤價: 118.50 元 | 歷史區間: 0.0~2.8 億元 | 平均: 0.2 億元 -->
    <g transform="translate(464.167734 61.2475) scale(0.13 -0.13)">
     <defs>
      <path id="DejaVuSans-Bold-65b0" d="M 319 -1131 
L 319 4513 
L 3519 4513 
L 3519 -1131 
L 319 -1131 
z
M 678 -775 
L 3163 -775 
L 3163 4153 
L 678 4153 
L 678 -775 
z
" transform="scale(0.015625)"/>
      <path id="DejaVuSans-Bold-2e" d="M 653 1209 
L 1778 1209 
L 1778 0 
L 653 0 
L 653 1209 
z
" transform="scale(0.015625)"/>
      <path id="DejaVuSans-Bold-38" d="M 2228 2088 
Q 1891 2088 1709 1903 
Q 1528 1719 1528 1375 
Q 1528 1031 1709 848 
Q 1891 666 2228 666 
Q 2563 666 2741 848 
Q 2919 1031 2919 1375 
Q 2919 1722 2741 1905 
Q 2563 2088 2228 2088 
z
M 1350 2484 
Q 925 2613 709 2878 
Q 494 3144 494 3541 
Q 494 4131 934 4440 
Q 1375 4750 2228 4750 
Q 3075 4750 3515 4442 
Q 3956 4134 3956 3541 
Q 3956 3144 3739 2878 
Q 3522 2613 3097 2484 
Q 3572 2353 3814 2058 
Q 4056 1763 4056 1313 
Q 4056 619 3595 264 
Q 3134 -91 2228 -91 
Q 1319 -91 855 264 
Q 391 619 391 1313 
Q 391 1763 633 2058 
Q 875 2353 1350 2484 
z
M 1631 3419 
Q 1631 3141 1786 2991 
Q 1941 2841 2228 2841 
Q 2509 2841 2662 2991 
Q 2816 3141 2816 3419 
Q 2816 3697 2662 3845 
Q 2509 3994 2228 3994 
Q 1941 3994 1786 3844 
Q 1631 3694 1631 3419 
z
" transform="scale(0.015625)"/>
      <path id="DejaVuSans-Bold-6b77" d="M 319 -1131 
L 319 4513 
L 3519 4513 
L 3519 -1131 
L 319 -1131 
z
M 678 -775 
L 3163 -775 
L 3163 4153 
L 678 4153 
L 678 -775 
z
" transform="scale(0.015625)"/>
      <path id="DejaVuSans-Bold-53f2" d="M 319 -1131 
L 319 4513 
L 3519 4513 
L 3519 -1131 
L 319 -1131 
z
M 678 -775 
L 3163 -775 
L 3163 4153 
L 678 4153 
L 678 -775 
z
" transform="scale(0.015625)"/>
      <path id="DejaVuSans-Bold-5340" d="M 319 -1131 
L 319 4513 
L 3519 4513 
L 3519 -1131 
L 319 -1131 
z
M 678 -775 
L 3163 -775 
L 3163 4153 
L 678 4153 
L 678 -775 
z
" transform="scale(0.015625)"/>
      <path id="DejaVuSans-Bold-9593" d="M 319 -1131 
L 319 4513 
L 3519 4513 
L 3519 -1131 
L 319 -1131 
z
M 678 -775 
L 3163 -775 
L 3163 4153 
L 678 4153 
L 678 -775 
z
" transform="scale(0.015625)"/>
      <path id="DejaVuSans-Bold-5e73" d="M 319 -1131 
L 319 4513 
L 3519 4513 
L 3519 -1131 
L 319 -1131 
z
M 678 -775 
L 3163 -775 
L 3163 4153 
L 678 4153 
L 678 -775 
z
" transform="scale(0.015625)"/>
      <path id="DejaVuSans-Bold-5747" d="M 319 -1131 
L 319 4513 
L 3519 4513 
L 3519 -1131 
L 319 -1131 
z
M 678 -775 
L 3163 -775 
L 3163 4153 
L 678 4153 
L 678 -775 
z
" transform="scale(0.015625)"/>
     </defs>
     <use xlink:href="#DejaVuSans-Bold-6700"/>
     <use xlink:href="#DejaVuSans-Bold-65b0" x="60.009766"/>
     <use xlink:href="#DejaVuSans-Bold-878d" x="120.019531"/>
     <use xlink:href="#DejaVuSans-Bold-8cc7" x="180.029297"/>
     <use xlink:href="#DejaVuSans-Bold-9918" x="240.039062"/>
     <use xlink:href="#DejaVuSans-Bold-984d" x="300.048828"/>
     <use xlink:href="#DejaVuSans-Bold-3a" x="360.058594"/>
     <use xlink:href="#DejaVuSans-Bold-20" x="400.048828"/>
     <use xlink:href="#DejaVuSans-Bold-30" x="434.863281"/>
     <use xlink:href="#DejaVuSans-Bold-2e" x="504.443359"/>
     <use xlink:href="#DejaVuSans-Bold-30" x="542.431641"/>
     <use xlink:href="#DejaVuSans-Bold-20" x="612.011719"/>
     <use xlink:href="#DejaVuSans-Bold-5104" x="646.826172"/>
     <use xlink:href="#DejaVuSans-Bold-5143" x="706.835938"/>
     <use xlink:href="#DejaVuSans-Bold-20" x="766.845703"/>
     <use xlink:href="#DejaVuSans-Bold-7c" x="801.660156"/>
     <use xlink:href="#DejaVuSans-Bold-20" x="838.183594"/>
     <use xlink:href="#DejaVuSans-Bold-6700" x="872.998047"/>
     <use xlink:href="#DejaVuSans-Bold-65b0" x="933.007812"/>
     <use xlink:href="#DejaVuSans-Bold-6536" x="993.017578"/>
     <use xlink:href="#DejaVuSans-Bold-76e4" x="1053.027344"/>
     <use xlink:href="#DejaVuSans-Bold-50f9" x="1113.037109"/>
     <use xlink:href="#DejaVuSans-Bold-3a" x="1173.046875"/>
     <use xlink:href="#DejaVuSans-Bold-20" x="1213.037109"/>
     <use xlink:href="#DejaVuSans-Bold-31" x="1247.851562"/>
     <use xlink:href="#DejaVuSans-Bold-31" x="1317.431641"/>
     <use xlink:href="#DejaVuSans-Bold-38" x="1387.011719"/>
     <use xlink:href="#DejaVuSans-Bold-2e" x="1456.591797"/>
     <use xlink:href="#DejaVuSans-Bold-35" x="1494.580078"/>
     <use xlink:href="#DejaVuSans-Bold-30" x="1564.160156"/>
     <use xlink:href="#DejaVuSans-Bold-20" x="1633.740234"/>
     <use xlink:href="#DejaVuSans-Bold-5143" x="1668.554688"/>
     <use xlink:href="#DejaVuSans-Bold-20" x="1728.564453"/>
     <use xlink:href="#DejaVuSans-Bold-7c" x="1763.378906"/>
     <use xlink:href="#DejaVuSans-Bold-20" x="1799.902344"/>
     <use xlink:href="#DejaVuSans-Bold-6b77" x="1834.716797"/>
     <use xlink:href="#DejaVuSans-Bold-53f2" x="1894.726562"/>
     <use xlink:href="#DejaVuSans-Bold-5340" x="1954.736328"/>
     <use xlink:href="#DejaVuSans-Bold-9593" x="2014.746094"/>
     <use xlink:href="#DejaVuSans-Bold-3a" x="2074.755859"/>
     <use xlink:href="#DejaVuSans-Bold-20" x="2114.746094"/>
     <use xlink:href="#DejaVuSans-Bold-30" x="2149.560547"/>
     <use xlink:href="#DejaVuSans-Bold-2e" x="2219.140625"/>
     <use xlink:href="#DejaVuSans-Bold-30" x="2257.128906"/>
     <use xlink:href="#DejaVuSans-Bold-7e" x="2326.708984"/>
     <use xlink:href="#DejaVuSans-Bold-32" x="2410.498047"/>
     <use xlink:href="#DejaVuSans-Bold-2e" x="2480.078125"/>
     <use xlink:href="#DejaVuSans-Bold-38" x="2518.066406"/>
     <use xlink:href="#DejaVuSans-Bold-20" x="2587.646484"/>
     <use xlink:href="#DejaVuSans-Bold-5104" x="2622.460938"/>
     <use xlink:href="#DejaVuSans-Bold-5143" x="2682.470703"/>
     <use xlink:href="#DejaVuSans-Bold-20" x="2742.480469"/>
     <use xlink:href="#DejaVuSans-Bold-7c" x="2777.294922"/>
     <use xlink:href="#DejaVuSans-Bold-20" x="2813.818359"/>
     <use xlink:href="#DejaVuSans-Bold-5e73" x="2848.632812"/>
     <use xlink:href="#DejaVuSans-Bold-5747" x="2908.642578"/>
     <use xlink:href="#DejaVuSans-Bold-3a" x="2968.652344"/>
     <use xlink:href="#DejaVuSans-Bold-20" x="3008.642578"/>
     <use xlink:href="#DejaVuSans-Bold-30" x="3043.457031"/>
     <use xlink:href="#DejaVuSans-Bold-2e" x="3113.037109"/>
     <use xlink:href="#DejaVuSans-Bold-32" x="3151.025391"/>
     <use xlink:href="#DejaVuSans-Bold-20" x="3220.605469"/>
     <use xlink:href="#DejaVuSans-Bold-5104" x="3255.419922"/>
     <use xlink:href="#DejaVuSans-Bold-5143" x="3315.429688"/>
    </g>
    <!-- 市值: 33 億元 (當前) | 融資餘額/市值: 0.03% (🟢 低風險) *註:比率使用當前市值估算 -->
    <g transform="translate(498.460312 76.234469) scale(0.13 -0.13)">
     <defs>
      <path id="DejaVuSans-Bold-33" d="M 2981 2516 
Q 3453 2394 3698 2092 
Q 3944 1791 3944 1325 
Q 3944 631 3412 270 
Q 2881 -91 1863 -91 
Q 1503 -91 1142 -33 
Q 781 25 428 141 
L 428 1069 
Q 766 900 1098 814 
Q 1431 728 1753 728 
Q 2231 728 2486 893 
Q 2741 1059 2741 1369 
Q 2741 1688 2480 1852 
Q 2219 2016 1709 2016 
L 1228 2016 
L 1228 2791 
L 1734 2791 
Q 2188 2791 2409 2933 
Q 2631 3075 2631 3366 
Q 2631 3634 2415 3781 
Q 2200 3928 1806 3928 
Q 1516 3928 1219 3862 
Q 922 3797 628 3669 
L 628 4550 
Q 984 4650 1334 4700 
Q 1684 4750 2022 4750 
Q 2931 4750 3382 4451 
Q 3834 4153 3834 3553 
Q 3834 3144 3618 2883 
Q 3403 2622 2981 2516 
z
" transform="scale(0.015625)"/>
      <path id="DejaVuSans-Bold-7576" d="M 319 -1131 
L 319 4513 
L 3519 4513 
L 3519 -1131 
L 319 -1131 
z
M 678 -775 
L 3163 -775 
L 3163 4153 
L 678 4153 
L 678 -775 
z
" transform="scale(0.015625)"/>
      <path id="DejaVuSans-Bold-524d" d="M 319 -1131 
L 319 4513 
L 3519 4513 
L 3519 -1131 
L 319 -1131 
z
M 678 -775 
L 3163 -775 
L 3163 4153 
L 678 4153 
L 678 -775 
z
" transform="scale(0.015625)"/>
      <path id="DejaVuSans-Bold-1f7e2" d="M 319 -1131 
L 319 4513 
L 3519 4513 
L 3519 -1131 
L 319 -1131 
z
M 678 -775 
L 3163 -775 
L 3163 4153 
L 678 4153 
L 678 -775 
z
" transform="scale(0.015625)"/>
      <path id="DejaVuSans-Bold-4f4e" d="M 319 -1131 
L 319 4513 
L 3519 4513 
L 3519 -1131 
L 319 -1131 
z
M 678 -775 
L 3163 -775 
L 3163 4153 
L 678 4153 
L 678 -775 
z
" transform="scale(0.015625)"/>
      <path id="DejaVuSans-Bold-98a8" d="M 319 -1131 
L 319 4513 
L 3519 4513 
L 3519 -1131 
L 319 -1131 
z
M 678 -775 
L 3163 -775 
L 3163 4153 
L 678 4153 
L 678 -775 
z
" transform="scale(0.015625)"/>
      <path id="DejaVuSans-Bold-96aa" d="M 319 -1131 
L 319 4513 
L 3519 4513 
L 3519 -1131 
L 319 -1131 
z
M 678 -775 
L 3163 -775 
L 3163 4153 
L 678 4153 
L 678 -775 
z
" transform="scale(0.015625)"/>
      <path id="DejaVuSans-Bold-2a" d="M 3219 3803 
L 2188 3263 
L 3219 2719 
L 2981 2278 
L 1941 2853 
L 1941 1778 
L 1409 1778 
L 1409 2853 
L 366 2278 
L 128 2719 
L 1172 3263 
L 128 3803 
L 366 4244 
L 1409 3675 
L 1409 4750 
L 1941 4750 
L 1941 3675 
L 2981 4244 
L 3219 3803 
z
" transform="scale(0.015625)"/>
      <path id="DejaVuSans-Bold-8a3b" d="M 319 -1131 
L 319 4513 
L 3519 4513 
L 3519 -1131 
L 319 -1131 
z
M 678 -775 
L 3163 -775 
L 3163 4153 
L 678 4153 
L 678 -775 
z
" transform="scale(0.015625)"/>
      <path id="DejaVuSans-Bold-6bd4" d="M 319 -1131 
L 319 4513 
L 3519 4513 
L 3519 -1131 
L 319 -1131 
z
M 678 -775 
L 3163 -775 
L 3163 4153 
L 678 4153 
L 678 -775 
z
" transform="scale(0.015625)"/>
      <path id="DejaVuSans-Bold-7387" d="M 319 -1131 
L 319 4513 
L 3519 4513 
L 3519 -1131 
L 319 -1131 
z
M 678 -775 
L 3163 -775 
L 3163 4153 
L 678 4153 
L 678 -775 
z
" transform="scale(0.015625)"/>
      <path id="DejaVuSans-Bold-4f7f" d="M 319 -1131 
L 319 4513 
L 3519 4513 
L 3519 -1131 
L 319 -1131 
z
M 678 -775 
L 3163 -775 
L 3163 4153 
L 678 4153 
L 678 -775 
z
" transform="scale(0.015625)"/>
      <path id="DejaVuSans-Bold-7528" d="M 319 -1131 
L 319 4513 
L 3519 4513 
L 3519 -1131 
L 319 -1131 
z
M 678 -775 
L 3163 -775 
L 3163 4153 
L 678 4153 
L 678 -775 
z
" transform="scale(0.015625)"/>
      <path id="DejaVuSans-Bold-4f30" d="M 319 -1131 
L 319 4513 
L 3519 4513 
L 3519 -1131 
L 319 -1131 
z
M 678 -775 
L 3163 -775 
L 3163 4153 
L 678 4153 
L 678 -775 
z
" transform="scale(0.015625)"/>
      <path id="DejaVuSans-Bold-7b97" d="M 319 -1131 
L 319 4513 
L 3519 4513 
L 3519 -1131 
L 319 -1131 
z
M 678 -775 
L 3163 -775 
L 3163 4153 
L 678 4153 
L 678 -775 
z
" transform="scale(0.015625)"/>
     </defs>
     <use xlink:href="#DejaVuSans-Bold-5e02"/>
     <use xlink:href="#DejaVuSans-Bold-503c" x="60.009766"/>
     <use xlink:href="#DejaVuSans-Bold-3a" x="120.019531"/>
     <use xlink:href="#DejaVuSans-Bold-20" x="160.009766"/>
     <use xlink:href="#DejaVuSans-Bold-33" x="194.824219"/>
     <use xlink:href="#DejaVuSans-Bold-33" x="264.404297"/>
     <use xlink:href="#DejaVuSans-Bold-20" x="333.984375"/>
     <use xlink:href="#DejaVuSans-Bold-5104" x="368.798828"/>
     <use xlink:href="#DejaVuSans-Bold-5143" x="428.808594"/>
     <use xlink:href="#DejaVuSans-Bold-20" x="488.818359"/>
     <use xlink:href="#DejaVuSans-Bold-28" x="523.632812"/>
     <use xlink:href="#DejaVuSans-Bold-7576" x="569.335938"/>
     <use xlink:href="#DejaVuSans-Bold-524d" x="629.345703"/>
     <use xlink:href="#DejaVuSans-Bold-29" x="689.355469"/>
     <use xlink:href="#DejaVuSans-Bold-20" x="735.058594"/>
     <use xlink:href="#DejaVuSans-Bold-7c" x="769.873047"/>
     <use xlink:href="#DejaVuSans-Bold-20" x="806.396484"/>
     <use xlink:href="#DejaVuSans-Bold-878d" x="841.210938"/>
     <use xlink:href="#DejaVuSans-Bold-8cc7" x="901.220703"/>
     <use xlink:href="#DejaVuSans-Bold-9918" x="961.230469"/>
     <use xlink:href="#DejaVuSans-Bold-984d" x="1021.240234"/>
     <use xlink:href="#DejaVuSans-Bold-2f" x="1081.25"/>
     <use xlink:href="#DejaVuSans-Bold-5e02" x="1117.773438"/>
     <use xlink:href="#DejaVuSans-Bold-503c" x="1177.783203"/>
     <use xlink:href="#DejaVuSans-Bold-3a" x="1237.792969"/>
     <use xlink:href="#DejaVuSans-Bold-20" x="1277.783203"/>
     <use xlink:href="#DejaVuSans-Bold-30" x="1312.597656"/>
     <use xlink:href="#DejaVuSans-Bold-2e" x="1382.177734"/>
     <use xlink:href="#DejaVuSans-Bold-30" x="1420.166016"/>
     <use xlink:href="#DejaVuSans-Bold-33" x="1489.746094"/>
     <use xlink:href="#DejaVuSans-Bold-25" x="1559.326172"/>
     <use xlink:href="#DejaVuSans-Bold-20" x="1659.521484"/>
     <use xlink:href="#DejaVuSans-Bold-28" x="1694.335938"/>
     <use xlink:href="#DejaVuSans-Bold-1f7e2" x="1740.039062"/>
     <use xlink:href="#DejaVuSans-Bold-20" x="1800.048828"/>
     <use xlink:href="#DejaVuSans-Bold-4f4e" x="1834.863281"/>
     <use xlink:href="#DejaVuSans-Bold-98a8" x="1894.873047"/>
     <use xlink:href="#DejaVuSans-Bold-96aa" x="1954.882812"/>
     <use xlink:href="#DejaVuSans-Bold-29" x="2014.892578"/>
     <use xlink:href="#DejaVuSans-Bold-20" x="2060.595703"/>
     <use xlink:href="#DejaVuSans-Bold-2a" x="2095.410156"/>
     <use xlink:href="#DejaVuSans-Bold-8a3b" x="2147.705078"/>
     <use xlink:href="#DejaVuSans-Bold-3a" x="2207.714844"/>
     <use xlink:href="#DejaVuSans-Bold-6bd4" x="2247.705078"/>
     <use xlink:href="#DejaVuSans-Bold-7387" x="2307.714844"/>
     <use xlink:href="#DejaVuSans-Bold-4f7f" x="2367.724609"/>
     <use xlink:href="#DejaVuSans-Bold-7528" x="2427.734375"/>
     <use xlink:href="#DejaVuSans-Bold-7576" x="2487.744141"/>
     <use xlink:href="#DejaVuSans-Bold-524d" x="2547.753906"/>
     <use xlink:href="#DejaVuSans-Bold-5e02" x="2607.763672"/>
     <use xlink:href="#DejaVuSans-Bold-503c" x="2667.773438"/>
     <use xlink:href="#DejaVuSans-Bold-4f30" x="2727.783203"/>
     <use xlink:href="#DejaVuSans-Bold-7b97" x="2787.792969"/>
    </g>
   </g>
   <g id="line2d_33">
    <path d="M 111.315413 424.971482 
L 130.181155 570.907076 
L 136.469735 591.984881 
L 142.758316 597.962486 
L 149.046897 615.273295 
L 155.335477 608.10237 
L 174.201219 595.029676 
L 180.4898 614.40414 
L 186.77838 627.270941 
L 193.066961 630.645401 
L 199.355542 626.720056 
L 218.221283 604.016711 
L 224.509864 617.025751 
L 230.798445 629.696874 
L 237.087025 615.729877 
L 243.375606 607.522409 
L 262.241348 623.728307 
L 268.529928 623.761313 
L 274.818509 623.186067 
L 281.10709 630.706698 
L 287.39567 629.096481 
L 306.261412 631.659547 
L 312.549993 625.639506 
L 318.838574 621.43754 
L 325.127154 627.22929 
L 331.415735 636.061119 
L 350.281477 629.692945 
L 356.570057 635.65444 
L 362.858638 623.893337 
L 369.147219 632.02104 
L 375.435799 637.793536 
L 394.301541 625.16485 
L 400.590122 639.238723 
L 406.878702 639.326739 
L 413.167283 635.93499 
L 419.455864 637.541277 
L 438.321605 634.676836 
L 444.610186 639.574283 
L 450.898767 622.879191 
L 457.187347 637.930275 
L 463.475928 636.345206 
L 482.34167 637.849725 
L 488.63025 637.671729 
L 494.918831 638.325167 
L 501.207412 638.968782 
L 507.495992 640.163674 
L 526.361734 639.556995 
L 532.650315 630.008859 
L 538.938896 638.782928 
L 545.227476 639.670158 
L 551.516057 524.282311 
L 570.381799 624.308268 
L 576.670379 637.070943 
L 582.95896 637.909843 
L 589.247541 640.853655 
L 595.536121 638.830865 
L 620.690444 637.403752 
L 626.979024 609.073687 
L 633.267605 632.722415 
L 639.556186 631.30159 
L 664.710508 637.864263 
L 670.999089 639.20336 
L 677.287669 639.730275 
L 702.441992 638.959745 
L 708.730573 632.452867 
L 715.019153 642.592359 
L 721.307734 642.580571 
L 727.596314 643.471337 
L 746.462056 633.509842 
L 752.750637 638.048939 
L 759.039218 638.814362 
L 765.327798 626.731844 
L 790.482121 630.271727 
L 796.770701 623.429682 
L 803.059282 577.213561 
L 809.347863 641.641474 
L 815.636443 592.522013 
L 834.502185 640.993537 
L 840.790766 642.343636 
L 847.079346 642.393144 
L 853.367927 643.614363 
L 859.656508 639.729883 
L 878.52225 641.48784 
L 884.81083 643.199432 
L 891.099411 635.373104 
L 897.387991 642.81672 
L 903.676572 643.008469 
L 922.542314 643.509844 
L 928.830895 640.944421 
L 935.119475 642.811219 
L 941.408056 643.410826 
L 947.696636 643.4234 
L 966.562378 642.213184 
L 972.850959 643.215149 
L 979.13954 643.626151 
L 985.42812 637.538134 
L 991.716701 637.912593 
L 1010.582443 643.118488 
L 1016.871023 644.022222 
L 1023.159604 643.919667 
L 1029.448185 643.824186 
L 1035.736765 634.769567 
L 1054.602507 642.534991 
L 1060.891088 641.583321 
L 1067.179668 642.328704 
L 1073.468249 635.644616 
L 1079.75683 615.22693 
L 1098.622572 641.13892 
L 1104.911152 643.266229 
L 1111.199733 643.556603 
L 1117.488313 644.129491 
L 1123.776894 644.034795 
L 1142.642636 643.942064 
L 1148.931217 643.178999 
L 1155.219797 640.641474 
L 1167.796958 630.686265 
L 1186.6627 642.110237 
L 1192.951281 640.820649 
L 1199.239862 643.483125 
L 1211.817023 638.91613 
L 1230.682765 643.383322 
L 1236.971345 642.176249 
L 1243.259926 643.196288 
L 1249.548507 634.700412 
L 1255.837087 643.479982 
" clip-path="url(#p9557573ddb)" style="fill: none; stroke: #ff0000; stroke-width: 2.5; stroke-linecap: square"/>
   </g>
  </g>
 </g>
 <defs>
  <clipPath id="p9557573ddb">
   <rect x="48.90125" y="96.234469" width="1269.35" height="547.990503"/>
  </clipPath>
 </defs>
</svg>
