<?xml version="1.0" encoding="utf-8" standalone="no"?>
<!DOCTYPE svg PUBLIC "-//W3C//DTD SVG 1.1//EN"
  "http://www.w3.org/Graphics/SVG/1.1/DTD/svg11.dtd">
<svg xmlns:xlink="http://www.w3.org/1999/xlink" width="1430.205625pt" height="709.728888pt" viewBox="0 0 1430.205625 709.728888" xmlns="http://www.w3.org/2000/svg" version="1.1">
 <metadata>
  <rdf:RDF xmlns:dc="http://purl.org/dc/elements/1.1/" xmlns:cc="http://creativecommons.org/ns#" xmlns:rdf="http://www.w3.org/1999/02/22-rdf-syntax-ns#">
   <cc:Work>
    <dc:type rdf:resource="http://purl.org/dc/dcmitype/StillImage"/>
    <dc:date>2026-01-11T12:08:19.863347</dc:date>
    <dc:format>image/svg+xml</dc:format>
    <dc:creator>
     <cc:Agent>
      <dc:title>Matplotlib v3.9.4, https://matplotlib.org/</dc:title>
     </cc:Agent>
    </dc:creator>
   </cc:Work>
  </rdf:RDF>
 </metadata>
 <defs>
  <style type="text/css">*{stroke-linejoin: round; stroke-linecap: butt}</style>
 </defs>
 <g id="figure_1">
  <g id="patch_1">
   <path d="M 0 709.728888 
L 1430.205625 709.728888 
L 1430.205625 0 
L 0 0 
z
" style="fill: #ffffff"/>
  </g>
  <g id="axes_1">
   <g id="patch_2">
    <path d="M 42.53875 652.693736 
L 1384.48875 652.693736 
L 1384.48875 80.817687 
L 42.53875 80.817687 
z
" style="fill: #ffffff"/>
   </g>
   <g id="matplotlib.axis_1">
    <g id="xtick_1">
     <g id="line2d_1">
      <defs>
       <path id="md26561ce88" d="M 0 0 
L 0 3.5 
" style="stroke: #000000; stroke-width: 0.8"/>
      </defs>
      <g>
       <use xlink:href="#md26561ce88" x="74.160801" y="652.693736" style="stroke: #000000; stroke-width: 0.8"/>
      </g>
     </g>
     <g id="text_1">
      <!-- 07/13 -->
      <g transform="translate(52.312307 685.444576) rotate(-45) scale(0.1 -0.1)">
       <defs>
        <path id="DejaVuSans-30" d="M 2034 4250 
Q 1547 4250 1301 3770 
Q 1056 3291 1056 2328 
Q 1056 1369 1301 889 
Q 1547 409 2034 409 
Q 2525 409 2770 889 
Q 3016 1369 3016 2328 
Q 3016 3291 2770 3770 
Q 2525 4250 2034 4250 
z
M 2034 4750 
Q 2819 4750 3233 4129 
Q 3647 3509 3647 2328 
Q 3647 1150 3233 529 
Q 2819 -91 2034 -91 
Q 1250 -91 836 529 
Q 422 1150 422 2328 
Q 422 3509 836 4129 
Q 1250 4750 2034 4750 
z
" transform="scale(0.015625)"/>
        <path id="DejaVuSans-37" d="M 525 4666 
L 3525 4666 
L 3525 4397 
L 1831 0 
L 1172 0 
L 2766 4134 
L 525 4134 
L 525 4666 
z
" transform="scale(0.015625)"/>
        <path id="DejaVuSans-2f" d="M 1625 4666 
L 2156 4666 
L 531 -594 
L 0 -594 
L 1625 4666 
z
" transform="scale(0.015625)"/>
        <path id="DejaVuSans-31" d="M 794 531 
L 1825 531 
L 1825 4091 
L 703 3866 
L 703 4441 
L 1819 4666 
L 2450 4666 
L 2450 531 
L 3481 531 
L 3481 0 
L 794 0 
L 794 531 
z
" transform="scale(0.015625)"/>
        <path id="DejaVuSans-33" d="M 2597 2516 
Q 3050 2419 3304 2112 
Q 3559 1806 3559 1356 
Q 3559 666 3084 287 
Q 2609 -91 1734 -91 
Q 1441 -91 1130 -33 
Q 819 25 488 141 
L 488 750 
Q 750 597 1062 519 
Q 1375 441 1716 441 
Q 2309 441 2620 675 
Q 2931 909 2931 1356 
Q 2931 1769 2642 2001 
Q 2353 2234 1838 2234 
L 1294 2234 
L 1294 2753 
L 1863 2753 
Q 2328 2753 2575 2939 
Q 2822 3125 2822 3475 
Q 2822 3834 2567 4026 
Q 2313 4219 1838 4219 
Q 1578 4219 1281 4162 
Q 984 4106 628 3988 
L 628 4550 
Q 988 4650 1302 4700 
Q 1616 4750 1894 4750 
Q 2613 4750 3031 4423 
Q 3450 4097 3450 3541 
Q 3450 3153 3228 2886 
Q 3006 2619 2597 2516 
z
" transform="scale(0.015625)"/>
       </defs>
       <use xlink:href="#DejaVuSans-30"/>
       <use xlink:href="#DejaVuSans-37" x="63.623047"/>
       <use xlink:href="#DejaVuSans-2f" x="127.246094"/>
       <use xlink:href="#DejaVuSans-31" x="160.9375"/>
       <use xlink:href="#DejaVuSans-33" x="224.560547"/>
      </g>
     </g>
    </g>
    <g id="xtick_2">
     <g id="line2d_2">
      <g>
       <use xlink:href="#md26561ce88" x="122.544268" y="652.693736" style="stroke: #000000; stroke-width: 0.8"/>
      </g>
     </g>
     <g id="text_2">
      <!-- 07/20 -->
      <g transform="translate(100.695773 685.444576) rotate(-45) scale(0.1 -0.1)">
       <defs>
        <path id="DejaVuSans-32" d="M 1228 531 
L 3431 531 
L 3431 0 
L 469 0 
L 469 531 
Q 828 903 1448 1529 
Q 2069 2156 2228 2338 
Q 2531 2678 2651 2914 
Q 2772 3150 2772 3378 
Q 2772 3750 2511 3984 
Q 2250 4219 1831 4219 
Q 1534 4219 1204 4116 
Q 875 4013 500 3803 
L 500 4441 
Q 881 4594 1212 4672 
Q 1544 4750 1819 4750 
Q 2544 4750 2975 4387 
Q 3406 4025 3406 3419 
Q 3406 3131 3298 2873 
Q 3191 2616 2906 2266 
Q 2828 2175 2409 1742 
Q 1991 1309 1228 531 
z
" transform="scale(0.015625)"/>
       </defs>
       <use xlink:href="#DejaVuSans-30"/>
       <use xlink:href="#DejaVuSans-37" x="63.623047"/>
       <use xlink:href="#DejaVuSans-2f" x="127.246094"/>
       <use xlink:href="#DejaVuSans-32" x="160.9375"/>
       <use xlink:href="#DejaVuSans-30" x="224.560547"/>
      </g>
     </g>
    </g>
    <g id="xtick_3">
     <g id="line2d_3">
      <g>
       <use xlink:href="#md26561ce88" x="170.927734" y="652.693736" style="stroke: #000000; stroke-width: 0.8"/>
      </g>
     </g>
     <g id="text_3">
      <!-- 07/27 -->
      <g transform="translate(149.079239 685.444576) rotate(-45) scale(0.1 -0.1)">
       <use xlink:href="#DejaVuSans-30"/>
       <use xlink:href="#DejaVuSans-37" x="63.623047"/>
       <use xlink:href="#DejaVuSans-2f" x="127.246094"/>
       <use xlink:href="#DejaVuSans-32" x="160.9375"/>
       <use xlink:href="#DejaVuSans-37" x="224.560547"/>
      </g>
     </g>
    </g>
    <g id="xtick_4">
     <g id="line2d_4">
      <g>
       <use xlink:href="#md26561ce88" x="219.3112" y="652.693736" style="stroke: #000000; stroke-width: 0.8"/>
      </g>
     </g>
     <g id="text_4">
      <!-- 08/03 -->
      <g transform="translate(197.462706 685.444576) rotate(-45) scale(0.1 -0.1)">
       <defs>
        <path id="DejaVuSans-38" d="M 2034 2216 
Q 1584 2216 1326 1975 
Q 1069 1734 1069 1313 
Q 1069 891 1326 650 
Q 1584 409 2034 409 
Q 2484 409 2743 651 
Q 3003 894 3003 1313 
Q 3003 1734 2745 1975 
Q 2488 2216 2034 2216 
z
M 1403 2484 
Q 997 2584 770 2862 
Q 544 3141 544 3541 
Q 544 4100 942 4425 
Q 1341 4750 2034 4750 
Q 2731 4750 3128 4425 
Q 3525 4100 3525 3541 
Q 3525 3141 3298 2862 
Q 3072 2584 2669 2484 
Q 3125 2378 3379 2068 
Q 3634 1759 3634 1313 
Q 3634 634 3220 271 
Q 2806 -91 2034 -91 
Q 1263 -91 848 271 
Q 434 634 434 1313 
Q 434 1759 690 2068 
Q 947 2378 1403 2484 
z
M 1172 3481 
Q 1172 3119 1398 2916 
Q 1625 2713 2034 2713 
Q 2441 2713 2670 2916 
Q 2900 3119 2900 3481 
Q 2900 3844 2670 4047 
Q 2441 4250 2034 4250 
Q 1625 4250 1398 4047 
Q 1172 3844 1172 3481 
z
" transform="scale(0.015625)"/>
       </defs>
       <use xlink:href="#DejaVuSans-30"/>
       <use xlink:href="#DejaVuSans-38" x="63.623047"/>
       <use xlink:href="#DejaVuSans-2f" x="127.246094"/>
       <use xlink:href="#DejaVuSans-30" x="160.9375"/>
       <use xlink:href="#DejaVuSans-33" x="224.560547"/>
      </g>
     </g>
    </g>
    <g id="xtick_5">
     <g id="line2d_5">
      <g>
       <use xlink:href="#md26561ce88" x="267.694667" y="652.693736" style="stroke: #000000; stroke-width: 0.8"/>
      </g>
     </g>
     <g id="text_5">
      <!-- 08/10 -->
      <g transform="translate(245.846172 685.444576) rotate(-45) scale(0.1 -0.1)">
       <use xlink:href="#DejaVuSans-30"/>
       <use xlink:href="#DejaVuSans-38" x="63.623047"/>
       <use xlink:href="#DejaVuSans-2f" x="127.246094"/>
       <use xlink:href="#DejaVuSans-31" x="160.9375"/>
       <use xlink:href="#DejaVuSans-30" x="224.560547"/>
      </g>
     </g>
    </g>
    <g id="xtick_6">
     <g id="line2d_6">
      <g>
       <use xlink:href="#md26561ce88" x="316.078133" y="652.693736" style="stroke: #000000; stroke-width: 0.8"/>
      </g>
     </g>
     <g id="text_6">
      <!-- 08/17 -->
      <g transform="translate(294.229639 685.444576) rotate(-45) scale(0.1 -0.1)">
       <use xlink:href="#DejaVuSans-30"/>
       <use xlink:href="#DejaVuSans-38" x="63.623047"/>
       <use xlink:href="#DejaVuSans-2f" x="127.246094"/>
       <use xlink:href="#DejaVuSans-31" x="160.9375"/>
       <use xlink:href="#DejaVuSans-37" x="224.560547"/>
      </g>
     </g>
    </g>
    <g id="xtick_7">
     <g id="line2d_7">
      <g>
       <use xlink:href="#md26561ce88" x="364.4616" y="652.693736" style="stroke: #000000; stroke-width: 0.8"/>
      </g>
     </g>
     <g id="text_7">
      <!-- 08/24 -->
      <g transform="translate(342.613105 685.444576) rotate(-45) scale(0.1 -0.1)">
       <defs>
        <path id="DejaVuSans-34" d="M 2419 4116 
L 825 1625 
L 2419 1625 
L 2419 4116 
z
M 2253 4666 
L 3047 4666 
L 3047 1625 
L 3713 1625 
L 3713 1100 
L 3047 1100 
L 3047 0 
L 2419 0 
L 2419 1100 
L 313 1100 
L 313 1709 
L 2253 4666 
z
" transform="scale(0.015625)"/>
       </defs>
       <use xlink:href="#DejaVuSans-30"/>
       <use xlink:href="#DejaVuSans-38" x="63.623047"/>
       <use xlink:href="#DejaVuSans-2f" x="127.246094"/>
       <use xlink:href="#DejaVuSans-32" x="160.9375"/>
       <use xlink:href="#DejaVuSans-34" x="224.560547"/>
      </g>
     </g>
    </g>
    <g id="xtick_8">
     <g id="line2d_8">
      <g>
       <use xlink:href="#md26561ce88" x="412.845066" y="652.693736" style="stroke: #000000; stroke-width: 0.8"/>
      </g>
     </g>
     <g id="text_8">
      <!-- 08/31 -->
      <g transform="translate(390.996571 685.444576) rotate(-45) scale(0.1 -0.1)">
       <use xlink:href="#DejaVuSans-30"/>
       <use xlink:href="#DejaVuSans-38" x="63.623047"/>
       <use xlink:href="#DejaVuSans-2f" x="127.246094"/>
       <use xlink:href="#DejaVuSans-33" x="160.9375"/>
       <use xlink:href="#DejaVuSans-31" x="224.560547"/>
      </g>
     </g>
    </g>
    <g id="xtick_9">
     <g id="line2d_9">
      <g>
       <use xlink:href="#md26561ce88" x="461.228532" y="652.693736" style="stroke: #000000; stroke-width: 0.8"/>
      </g>
     </g>
     <g id="text_9">
      <!-- 09/07 -->
      <g transform="translate(439.380038 685.444576) rotate(-45) scale(0.1 -0.1)">
       <defs>
        <path id="DejaVuSans-39" d="M 703 97 
L 703 672 
Q 941 559 1184 500 
Q 1428 441 1663 441 
Q 2288 441 2617 861 
Q 2947 1281 2994 2138 
Q 2813 1869 2534 1725 
Q 2256 1581 1919 1581 
Q 1219 1581 811 2004 
Q 403 2428 403 3163 
Q 403 3881 828 4315 
Q 1253 4750 1959 4750 
Q 2769 4750 3195 4129 
Q 3622 3509 3622 2328 
Q 3622 1225 3098 567 
Q 2575 -91 1691 -91 
Q 1453 -91 1209 -44 
Q 966 3 703 97 
z
M 1959 2075 
Q 2384 2075 2632 2365 
Q 2881 2656 2881 3163 
Q 2881 3666 2632 3958 
Q 2384 4250 1959 4250 
Q 1534 4250 1286 3958 
Q 1038 3666 1038 3163 
Q 1038 2656 1286 2365 
Q 1534 2075 1959 2075 
z
" transform="scale(0.015625)"/>
       </defs>
       <use xlink:href="#DejaVuSans-30"/>
       <use xlink:href="#DejaVuSans-39" x="63.623047"/>
       <use xlink:href="#DejaVuSans-2f" x="127.246094"/>
       <use xlink:href="#DejaVuSans-30" x="160.9375"/>
       <use xlink:href="#DejaVuSans-37" x="224.560547"/>
      </g>
     </g>
    </g>
    <g id="xtick_10">
     <g id="line2d_10">
      <g>
       <use xlink:href="#md26561ce88" x="509.611999" y="652.693736" style="stroke: #000000; stroke-width: 0.8"/>
      </g>
     </g>
     <g id="text_10">
      <!-- 09/14 -->
      <g transform="translate(487.763504 685.444576) rotate(-45) scale(0.1 -0.1)">
       <use xlink:href="#DejaVuSans-30"/>
       <use xlink:href="#DejaVuSans-39" x="63.623047"/>
       <use xlink:href="#DejaVuSans-2f" x="127.246094"/>
       <use xlink:href="#DejaVuSans-31" x="160.9375"/>
       <use xlink:href="#DejaVuSans-34" x="224.560547"/>
      </g>
     </g>
    </g>
    <g id="xtick_11">
     <g id="line2d_11">
      <g>
       <use xlink:href="#md26561ce88" x="557.995465" y="652.693736" style="stroke: #000000; stroke-width: 0.8"/>
      </g>
     </g>
     <g id="text_11">
      <!-- 09/21 -->
      <g transform="translate(536.14697 685.444576) rotate(-45) scale(0.1 -0.1)">
       <use xlink:href="#DejaVuSans-30"/>
       <use xlink:href="#DejaVuSans-39" x="63.623047"/>
       <use xlink:href="#DejaVuSans-2f" x="127.246094"/>
       <use xlink:href="#DejaVuSans-32" x="160.9375"/>
       <use xlink:href="#DejaVuSans-31" x="224.560547"/>
      </g>
     </g>
    </g>
    <g id="xtick_12">
     <g id="line2d_12">
      <g>
       <use xlink:href="#md26561ce88" x="606.378932" y="652.693736" style="stroke: #000000; stroke-width: 0.8"/>
      </g>
     </g>
     <g id="text_12">
      <!-- 09/28 -->
      <g transform="translate(584.530437 685.444576) rotate(-45) scale(0.1 -0.1)">
       <use xlink:href="#DejaVuSans-30"/>
       <use xlink:href="#DejaVuSans-39" x="63.623047"/>
       <use xlink:href="#DejaVuSans-2f" x="127.246094"/>
       <use xlink:href="#DejaVuSans-32" x="160.9375"/>
       <use xlink:href="#DejaVuSans-38" x="224.560547"/>
      </g>
     </g>
    </g>
    <g id="xtick_13">
     <g id="line2d_13">
      <g>
       <use xlink:href="#md26561ce88" x="654.762398" y="652.693736" style="stroke: #000000; stroke-width: 0.8"/>
      </g>
     </g>
     <g id="text_13">
      <!-- 10/05 -->
      <g transform="translate(632.913903 685.444576) rotate(-45) scale(0.1 -0.1)">
       <defs>
        <path id="DejaVuSans-35" d="M 691 4666 
L 3169 4666 
L 3169 4134 
L 1269 4134 
L 1269 2991 
Q 1406 3038 1543 3061 
Q 1681 3084 1819 3084 
Q 2600 3084 3056 2656 
Q 3513 2228 3513 1497 
Q 3513 744 3044 326 
Q 2575 -91 1722 -91 
Q 1428 -91 1123 -41 
Q 819 9 494 109 
L 494 744 
Q 775 591 1075 516 
Q 1375 441 1709 441 
Q 2250 441 2565 725 
Q 2881 1009 2881 1497 
Q 2881 1984 2565 2268 
Q 2250 2553 1709 2553 
Q 1456 2553 1204 2497 
Q 953 2441 691 2322 
L 691 4666 
z
" transform="scale(0.015625)"/>
       </defs>
       <use xlink:href="#DejaVuSans-31"/>
       <use xlink:href="#DejaVuSans-30" x="63.623047"/>
       <use xlink:href="#DejaVuSans-2f" x="127.246094"/>
       <use xlink:href="#DejaVuSans-30" x="160.9375"/>
       <use xlink:href="#DejaVuSans-35" x="224.560547"/>
      </g>
     </g>
    </g>
    <g id="xtick_14">
     <g id="line2d_14">
      <g>
       <use xlink:href="#md26561ce88" x="703.145864" y="652.693736" style="stroke: #000000; stroke-width: 0.8"/>
      </g>
     </g>
     <g id="text_14">
      <!-- 10/12 -->
      <g transform="translate(681.29737 685.444576) rotate(-45) scale(0.1 -0.1)">
       <use xlink:href="#DejaVuSans-31"/>
       <use xlink:href="#DejaVuSans-30" x="63.623047"/>
       <use xlink:href="#DejaVuSans-2f" x="127.246094"/>
       <use xlink:href="#DejaVuSans-31" x="160.9375"/>
       <use xlink:href="#DejaVuSans-32" x="224.560547"/>
      </g>
     </g>
    </g>
    <g id="xtick_15">
     <g id="line2d_15">
      <g>
       <use xlink:href="#md26561ce88" x="751.529331" y="652.693736" style="stroke: #000000; stroke-width: 0.8"/>
      </g>
     </g>
     <g id="text_15">
      <!-- 10/19 -->
      <g transform="translate(729.680836 685.444576) rotate(-45) scale(0.1 -0.1)">
       <use xlink:href="#DejaVuSans-31"/>
       <use xlink:href="#DejaVuSans-30" x="63.623047"/>
       <use xlink:href="#DejaVuSans-2f" x="127.246094"/>
       <use xlink:href="#DejaVuSans-31" x="160.9375"/>
       <use xlink:href="#DejaVuSans-39" x="224.560547"/>
      </g>
     </g>
    </g>
    <g id="xtick_16">
     <g id="line2d_16">
      <g>
       <use xlink:href="#md26561ce88" x="799.912797" y="652.693736" style="stroke: #000000; stroke-width: 0.8"/>
      </g>
     </g>
     <g id="text_16">
      <!-- 10/26 -->
      <g transform="translate(778.064302 685.444576) rotate(-45) scale(0.1 -0.1)">
       <defs>
        <path id="DejaVuSans-36" d="M 2113 2584 
Q 1688 2584 1439 2293 
Q 1191 2003 1191 1497 
Q 1191 994 1439 701 
Q 1688 409 2113 409 
Q 2538 409 2786 701 
Q 3034 994 3034 1497 
Q 3034 2003 2786 2293 
Q 2538 2584 2113 2584 
z
M 3366 4563 
L 3366 3988 
Q 3128 4100 2886 4159 
Q 2644 4219 2406 4219 
Q 1781 4219 1451 3797 
Q 1122 3375 1075 2522 
Q 1259 2794 1537 2939 
Q 1816 3084 2150 3084 
Q 2853 3084 3261 2657 
Q 3669 2231 3669 1497 
Q 3669 778 3244 343 
Q 2819 -91 2113 -91 
Q 1303 -91 875 529 
Q 447 1150 447 2328 
Q 447 3434 972 4092 
Q 1497 4750 2381 4750 
Q 2619 4750 2861 4703 
Q 3103 4656 3366 4563 
z
" transform="scale(0.015625)"/>
       </defs>
       <use xlink:href="#DejaVuSans-31"/>
       <use xlink:href="#DejaVuSans-30" x="63.623047"/>
       <use xlink:href="#DejaVuSans-2f" x="127.246094"/>
       <use xlink:href="#DejaVuSans-32" x="160.9375"/>
       <use xlink:href="#DejaVuSans-36" x="224.560547"/>
      </g>
     </g>
    </g>
    <g id="xtick_17">
     <g id="line2d_17">
      <g>
       <use xlink:href="#md26561ce88" x="848.296264" y="652.693736" style="stroke: #000000; stroke-width: 0.8"/>
      </g>
     </g>
     <g id="text_17">
      <!-- 11/02 -->
      <g transform="translate(826.447769 685.444576) rotate(-45) scale(0.1 -0.1)">
       <use xlink:href="#DejaVuSans-31"/>
       <use xlink:href="#DejaVuSans-31" x="63.623047"/>
       <use xlink:href="#DejaVuSans-2f" x="127.246094"/>
       <use xlink:href="#DejaVuSans-30" x="160.9375"/>
       <use xlink:href="#DejaVuSans-32" x="224.560547"/>
      </g>
     </g>
    </g>
    <g id="xtick_18">
     <g id="line2d_18">
      <g>
       <use xlink:href="#md26561ce88" x="896.67973" y="652.693736" style="stroke: #000000; stroke-width: 0.8"/>
      </g>
     </g>
     <g id="text_18">
      <!-- 11/09 -->
      <g transform="translate(874.831235 685.444576) rotate(-45) scale(0.1 -0.1)">
       <use xlink:href="#DejaVuSans-31"/>
       <use xlink:href="#DejaVuSans-31" x="63.623047"/>
       <use xlink:href="#DejaVuSans-2f" x="127.246094"/>
       <use xlink:href="#DejaVuSans-30" x="160.9375"/>
       <use xlink:href="#DejaVuSans-39" x="224.560547"/>
      </g>
     </g>
    </g>
    <g id="xtick_19">
     <g id="line2d_19">
      <g>
       <use xlink:href="#md26561ce88" x="945.063196" y="652.693736" style="stroke: #000000; stroke-width: 0.8"/>
      </g>
     </g>
     <g id="text_19">
      <!-- 11/16 -->
      <g transform="translate(923.214702 685.444576) rotate(-45) scale(0.1 -0.1)">
       <use xlink:href="#DejaVuSans-31"/>
       <use xlink:href="#DejaVuSans-31" x="63.623047"/>
       <use xlink:href="#DejaVuSans-2f" x="127.246094"/>
       <use xlink:href="#DejaVuSans-31" x="160.9375"/>
       <use xlink:href="#DejaVuSans-36" x="224.560547"/>
      </g>
     </g>
    </g>
    <g id="xtick_20">
     <g id="line2d_20">
      <g>
       <use xlink:href="#md26561ce88" x="993.446663" y="652.693736" style="stroke: #000000; stroke-width: 0.8"/>
      </g>
     </g>
     <g id="text_20">
      <!-- 11/23 -->
      <g transform="translate(971.598168 685.444576) rotate(-45) scale(0.1 -0.1)">
       <use xlink:href="#DejaVuSans-31"/>
       <use xlink:href="#DejaVuSans-31" x="63.623047"/>
       <use xlink:href="#DejaVuSans-2f" x="127.246094"/>
       <use xlink:href="#DejaVuSans-32" x="160.9375"/>
       <use xlink:href="#DejaVuSans-33" x="224.560547"/>
      </g>
     </g>
    </g>
    <g id="xtick_21">
     <g id="line2d_21">
      <g>
       <use xlink:href="#md26561ce88" x="1041.830129" y="652.693736" style="stroke: #000000; stroke-width: 0.8"/>
      </g>
     </g>
     <g id="text_21">
      <!-- 11/30 -->
      <g transform="translate(1019.981634 685.444576) rotate(-45) scale(0.1 -0.1)">
       <use xlink:href="#DejaVuSans-31"/>
       <use xlink:href="#DejaVuSans-31" x="63.623047"/>
       <use xlink:href="#DejaVuSans-2f" x="127.246094"/>
       <use xlink:href="#DejaVuSans-33" x="160.9375"/>
       <use xlink:href="#DejaVuSans-30" x="224.560547"/>
      </g>
     </g>
    </g>
    <g id="xtick_22">
     <g id="line2d_22">
      <g>
       <use xlink:href="#md26561ce88" x="1090.213595" y="652.693736" style="stroke: #000000; stroke-width: 0.8"/>
      </g>
     </g>
     <g id="text_22">
      <!-- 12/07 -->
      <g transform="translate(1068.365101 685.444576) rotate(-45) scale(0.1 -0.1)">
       <use xlink:href="#DejaVuSans-31"/>
       <use xlink:href="#DejaVuSans-32" x="63.623047"/>
       <use xlink:href="#DejaVuSans-2f" x="127.246094"/>
       <use xlink:href="#DejaVuSans-30" x="160.9375"/>
       <use xlink:href="#DejaVuSans-37" x="224.560547"/>
      </g>
     </g>
    </g>
    <g id="xtick_23">
     <g id="line2d_23">
      <g>
       <use xlink:href="#md26561ce88" x="1138.597062" y="652.693736" style="stroke: #000000; stroke-width: 0.8"/>
      </g>
     </g>
     <g id="text_23">
      <!-- 12/14 -->
      <g transform="translate(1116.748567 685.444576) rotate(-45) scale(0.1 -0.1)">
       <use xlink:href="#DejaVuSans-31"/>
       <use xlink:href="#DejaVuSans-32" x="63.623047"/>
       <use xlink:href="#DejaVuSans-2f" x="127.246094"/>
       <use xlink:href="#DejaVuSans-31" x="160.9375"/>
       <use xlink:href="#DejaVuSans-34" x="224.560547"/>
      </g>
     </g>
    </g>
    <g id="xtick_24">
     <g id="line2d_24">
      <g>
       <use xlink:href="#md26561ce88" x="1186.980528" y="652.693736" style="stroke: #000000; stroke-width: 0.8"/>
      </g>
     </g>
     <g id="text_24">
      <!-- 12/21 -->
      <g transform="translate(1165.132034 685.444576) rotate(-45) scale(0.1 -0.1)">
       <use xlink:href="#DejaVuSans-31"/>
       <use xlink:href="#DejaVuSans-32" x="63.623047"/>
       <use xlink:href="#DejaVuSans-2f" x="127.246094"/>
       <use xlink:href="#DejaVuSans-32" x="160.9375"/>
       <use xlink:href="#DejaVuSans-31" x="224.560547"/>
      </g>
     </g>
    </g>
    <g id="xtick_25">
     <g id="line2d_25">
      <g>
       <use xlink:href="#md26561ce88" x="1235.363995" y="652.693736" style="stroke: #000000; stroke-width: 0.8"/>
      </g>
     </g>
     <g id="text_25">
      <!-- 12/28 -->
      <g transform="translate(1213.5155 685.444576) rotate(-45) scale(0.1 -0.1)">
       <use xlink:href="#DejaVuSans-31"/>
       <use xlink:href="#DejaVuSans-32" x="63.623047"/>
       <use xlink:href="#DejaVuSans-2f" x="127.246094"/>
       <use xlink:href="#DejaVuSans-32" x="160.9375"/>
       <use xlink:href="#DejaVuSans-38" x="224.560547"/>
      </g>
     </g>
    </g>
    <g id="xtick_26">
     <g id="line2d_26">
      <g>
       <use xlink:href="#md26561ce88" x="1283.747461" y="652.693736" style="stroke: #000000; stroke-width: 0.8"/>
      </g>
     </g>
     <g id="text_26">
      <!-- 01/04 -->
      <g transform="translate(1261.898966 685.444576) rotate(-45) scale(0.1 -0.1)">
       <use xlink:href="#DejaVuSans-30"/>
       <use xlink:href="#DejaVuSans-31" x="63.623047"/>
       <use xlink:href="#DejaVuSans-2f" x="127.246094"/>
       <use xlink:href="#DejaVuSans-30" x="160.9375"/>
       <use xlink:href="#DejaVuSans-34" x="224.560547"/>
      </g>
     </g>
    </g>
    <g id="xtick_27">
     <g id="line2d_27">
      <g>
       <use xlink:href="#md26561ce88" x="1332.130927" y="652.693736" style="stroke: #000000; stroke-width: 0.8"/>
      </g>
     </g>
     <g id="text_27">
      <!-- 01/11 -->
      <g transform="translate(1310.282433 685.444576) rotate(-45) scale(0.1 -0.1)">
       <use xlink:href="#DejaVuSans-30"/>
       <use xlink:href="#DejaVuSans-31" x="63.623047"/>
       <use xlink:href="#DejaVuSans-2f" x="127.246094"/>
       <use xlink:href="#DejaVuSans-31" x="160.9375"/>
       <use xlink:href="#DejaVuSans-31" x="224.560547"/>
      </g>
     </g>
    </g>
    <g id="xtick_28">
     <g id="line2d_28">
      <g>
       <use xlink:href="#md26561ce88" x="1380.514394" y="652.693736" style="stroke: #000000; stroke-width: 0.8"/>
      </g>
     </g>
     <g id="text_28">
      <!-- 01/18 -->
      <g transform="translate(1358.665899 685.444576) rotate(-45) scale(0.1 -0.1)">
       <use xlink:href="#DejaVuSans-30"/>
       <use xlink:href="#DejaVuSans-31" x="63.623047"/>
       <use xlink:href="#DejaVuSans-2f" x="127.246094"/>
       <use xlink:href="#DejaVuSans-31" x="160.9375"/>
       <use xlink:href="#DejaVuSans-38" x="224.560547"/>
      </g>
     </g>
    </g>
    <g id="text_29">
     <!-- 日期 -->
     <g transform="translate(706.311875 700.033263) scale(0.12 -0.12)">
      <defs>
       <path id="DejaVuSans-Bold-65e5" d="M 319 -1131 
L 319 4513 
L 3519 4513 
L 3519 -1131 
L 319 -1131 
z
M 678 -775 
L 3163 -775 
L 3163 4153 
L 678 4153 
L 678 -775 
z
" transform="scale(0.015625)"/>
       <path id="DejaVuSans-Bold-671f" d="M 319 -1131 
L 319 4513 
L 3519 4513 
L 3519 -1131 
L 319 -1131 
z
M 678 -775 
L 3163 -775 
L 3163 4153 
L 678 4153 
L 678 -775 
z
" transform="scale(0.015625)"/>
      </defs>
      <use xlink:href="#DejaVuSans-Bold-65e5"/>
      <use xlink:href="#DejaVuSans-Bold-671f" x="60.009766"/>
     </g>
    </g>
   </g>
   <g id="matplotlib.axis_2">
    <g id="ytick_1">
     <g id="line2d_29">
      <path d="M 42.53875 609.484559 
L 1384.48875 609.484559 
" clip-path="url(#p4d1d0bb948)" style="fill: none; stroke-dasharray: 2.96,1.28; stroke-dashoffset: 0; stroke: #b0b0b0; stroke-opacity: 0.3; stroke-width: 0.8"/>
     </g>
     <g id="line2d_30">
      <defs>
       <path id="m9d9794a5f1" d="M 0 0 
L -3.5 0 
" style="stroke: #000000; stroke-width: 0.8"/>
      </defs>
      <g>
       <use xlink:href="#m9d9794a5f1" x="42.53875" y="609.484559" style="stroke: #000000; stroke-width: 0.8"/>
      </g>
     </g>
     <g id="text_30">
      <!-- 38 -->
      <g transform="translate(22.81375 613.283777) scale(0.1 -0.1)">
       <use xlink:href="#DejaVuSans-33"/>
       <use xlink:href="#DejaVuSans-38" x="63.623047"/>
      </g>
     </g>
    </g>
    <g id="ytick_2">
     <g id="line2d_31">
      <path d="M 42.53875 540.625311 
L 1384.48875 540.625311 
" clip-path="url(#p4d1d0bb948)" style="fill: none; stroke-dasharray: 2.96,1.28; stroke-dashoffset: 0; stroke: #b0b0b0; stroke-opacity: 0.3; stroke-width: 0.8"/>
     </g>
     <g id="line2d_32">
      <g>
       <use xlink:href="#m9d9794a5f1" x="42.53875" y="540.625311" style="stroke: #000000; stroke-width: 0.8"/>
      </g>
     </g>
     <g id="text_31">
      <!-- 40 -->
      <g transform="translate(22.81375 544.42453) scale(0.1 -0.1)">
       <use xlink:href="#DejaVuSans-34"/>
       <use xlink:href="#DejaVuSans-30" x="63.623047"/>
      </g>
     </g>
    </g>
    <g id="ytick_3">
     <g id="line2d_33">
      <path d="M 42.53875 471.766064 
L 1384.48875 471.766064 
" clip-path="url(#p4d1d0bb948)" style="fill: none; stroke-dasharray: 2.96,1.28; stroke-dashoffset: 0; stroke: #b0b0b0; stroke-opacity: 0.3; stroke-width: 0.8"/>
     </g>
     <g id="line2d_34">
      <g>
       <use xlink:href="#m9d9794a5f1" x="42.53875" y="471.766064" style="stroke: #000000; stroke-width: 0.8"/>
      </g>
     </g>
     <g id="text_32">
      <!-- 42 -->
      <g transform="translate(22.81375 475.565283) scale(0.1 -0.1)">
       <use xlink:href="#DejaVuSans-34"/>
       <use xlink:href="#DejaVuSans-32" x="63.623047"/>
      </g>
     </g>
    </g>
    <g id="ytick_4">
     <g id="line2d_35">
      <path d="M 42.53875 402.906817 
L 1384.48875 402.906817 
" clip-path="url(#p4d1d0bb948)" style="fill: none; stroke-dasharray: 2.96,1.28; stroke-dashoffset: 0; stroke: #b0b0b0; stroke-opacity: 0.3; stroke-width: 0.8"/>
     </g>
     <g id="line2d_36">
      <g>
       <use xlink:href="#m9d9794a5f1" x="42.53875" y="402.906817" style="stroke: #000000; stroke-width: 0.8"/>
      </g>
     </g>
     <g id="text_33">
      <!-- 44 -->
      <g transform="translate(22.81375 406.706035) scale(0.1 -0.1)">
       <use xlink:href="#DejaVuSans-34"/>
       <use xlink:href="#DejaVuSans-34" x="63.623047"/>
      </g>
     </g>
    </g>
    <g id="ytick_5">
     <g id="line2d_37">
      <path d="M 42.53875 334.047569 
L 1384.48875 334.047569 
" clip-path="url(#p4d1d0bb948)" style="fill: none; stroke-dasharray: 2.96,1.28; stroke-dashoffset: 0; stroke: #b0b0b0; stroke-opacity: 0.3; stroke-width: 0.8"/>
     </g>
     <g id="line2d_38">
      <g>
       <use xlink:href="#m9d9794a5f1" x="42.53875" y="334.047569" style="stroke: #000000; stroke-width: 0.8"/>
      </g>
     </g>
     <g id="text_34">
      <!-- 46 -->
      <g transform="translate(22.81375 337.846788) scale(0.1 -0.1)">
       <use xlink:href="#DejaVuSans-34"/>
       <use xlink:href="#DejaVuSans-36" x="63.623047"/>
      </g>
     </g>
    </g>
    <g id="ytick_6">
     <g id="line2d_39">
      <path d="M 42.53875 265.188322 
L 1384.48875 265.188322 
" clip-path="url(#p4d1d0bb948)" style="fill: none; stroke-dasharray: 2.96,1.28; stroke-dashoffset: 0; stroke: #b0b0b0; stroke-opacity: 0.3; stroke-width: 0.8"/>
     </g>
     <g id="line2d_40">
      <g>
       <use xlink:href="#m9d9794a5f1" x="42.53875" y="265.188322" style="stroke: #000000; stroke-width: 0.8"/>
      </g>
     </g>
     <g id="text_35">
      <!-- 48 -->
      <g transform="translate(22.81375 268.987541) scale(0.1 -0.1)">
       <use xlink:href="#DejaVuSans-34"/>
       <use xlink:href="#DejaVuSans-38" x="63.623047"/>
      </g>
     </g>
    </g>
    <g id="ytick_7">
     <g id="line2d_41">
      <path d="M 42.53875 196.329075 
L 1384.48875 196.329075 
" clip-path="url(#p4d1d0bb948)" style="fill: none; stroke-dasharray: 2.96,1.28; stroke-dashoffset: 0; stroke: #b0b0b0; stroke-opacity: 0.3; stroke-width: 0.8"/>
     </g>
     <g id="line2d_42">
      <g>
       <use xlink:href="#m9d9794a5f1" x="42.53875" y="196.329075" style="stroke: #000000; stroke-width: 0.8"/>
      </g>
     </g>
     <g id="text_36">
      <!-- 50 -->
      <g transform="translate(22.81375 200.128294) scale(0.1 -0.1)">
       <use xlink:href="#DejaVuSans-35"/>
       <use xlink:href="#DejaVuSans-30" x="63.623047"/>
      </g>
     </g>
    </g>
    <g id="ytick_8">
     <g id="line2d_43">
      <path d="M 42.53875 127.469828 
L 1384.48875 127.469828 
" clip-path="url(#p4d1d0bb948)" style="fill: none; stroke-dasharray: 2.96,1.28; stroke-dashoffset: 0; stroke: #b0b0b0; stroke-opacity: 0.3; stroke-width: 0.8"/>
     </g>
     <g id="line2d_44">
      <g>
       <use xlink:href="#m9d9794a5f1" x="42.53875" y="127.469828" style="stroke: #000000; stroke-width: 0.8"/>
      </g>
     </g>
     <g id="text_37">
      <!-- 52 -->
      <g transform="translate(22.81375 131.269046) scale(0.1 -0.1)">
       <use xlink:href="#DejaVuSans-35"/>
       <use xlink:href="#DejaVuSans-32" x="63.623047"/>
      </g>
     </g>
    </g>
    <g id="text_38">
     <!-- 收盤價 (元) -->
     <g transform="translate(16.318125 388.732587) rotate(-90) scale(0.12 -0.12)">
      <defs>
       <path id="DejaVuSans-Bold-6536" d="M 319 -1131 
L 319 4513 
L 3519 4513 
L 3519 -1131 
L 319 -1131 
z
M 678 -775 
L 3163 -775 
L 3163 4153 
L 678 4153 
L 678 -775 
z
" transform="scale(0.015625)"/>
       <path id="DejaVuSans-Bold-76e4" d="M 319 -1131 
L 319 4513 
L 3519 4513 
L 3519 -1131 
L 319 -1131 
z
M 678 -775 
L 3163 -775 
L 3163 4153 
L 678 4153 
L 678 -775 
z
" transform="scale(0.015625)"/>
       <path id="DejaVuSans-Bold-50f9" d="M 319 -1131 
L 319 4513 
L 3519 4513 
L 3519 -1131 
L 319 -1131 
z
M 678 -775 
L 3163 -775 
L 3163 4153 
L 678 4153 
L 678 -775 
z
" transform="scale(0.015625)"/>
       <path id="DejaVuSans-Bold-20" transform="scale(0.015625)"/>
       <path id="DejaVuSans-Bold-28" d="M 2413 -844 
L 1484 -844 
Q 1006 -72 778 623 
Q 550 1319 550 2003 
Q 550 2688 779 3389 
Q 1009 4091 1484 4856 
L 2413 4856 
Q 2013 4116 1813 3408 
Q 1613 2700 1613 2009 
Q 1613 1319 1811 609 
Q 2009 -100 2413 -844 
z
" transform="scale(0.015625)"/>
       <path id="DejaVuSans-Bold-5143" d="M 319 -1131 
L 319 4513 
L 3519 4513 
L 3519 -1131 
L 319 -1131 
z
M 678 -775 
L 3163 -775 
L 3163 4153 
L 678 4153 
L 678 -775 
z
" transform="scale(0.015625)"/>
       <path id="DejaVuSans-Bold-29" d="M 513 -844 
Q 913 -100 1113 609 
Q 1313 1319 1313 2009 
Q 1313 2700 1113 3408 
Q 913 4116 513 4856 
L 1441 4856 
Q 1916 4091 2145 3389 
Q 2375 2688 2375 2003 
Q 2375 1319 2147 623 
Q 1919 -72 1441 -844 
L 513 -844 
z
" transform="scale(0.015625)"/>
      </defs>
      <use xlink:href="#DejaVuSans-Bold-6536"/>
      <use xlink:href="#DejaVuSans-Bold-76e4" x="60.009766"/>
      <use xlink:href="#DejaVuSans-Bold-50f9" x="120.019531"/>
      <use xlink:href="#DejaVuSans-Bold-20" x="180.029297"/>
      <use xlink:href="#DejaVuSans-Bold-28" x="214.84375"/>
      <use xlink:href="#DejaVuSans-Bold-5143" x="260.546875"/>
      <use xlink:href="#DejaVuSans-Bold-29" x="320.556641"/>
     </g>
    </g>
   </g>
   <g id="patch_3">
    <path d="M 42.53875 652.693736 
L 42.53875 80.817687 
" style="fill: none; stroke: #000000; stroke-width: 0.8; stroke-linejoin: miter; stroke-linecap: square"/>
   </g>
   <g id="patch_4">
    <path d="M 1384.48875 652.693736 
L 1384.48875 80.817687 
" style="fill: none; stroke: #000000; stroke-width: 0.8; stroke-linejoin: miter; stroke-linecap: square"/>
   </g>
   <g id="patch_5">
    <path d="M 42.53875 652.693736 
L 1384.48875 652.693736 
" style="fill: none; stroke: #000000; stroke-width: 0.8; stroke-linejoin: miter; stroke-linecap: square"/>
   </g>
   <g id="patch_6">
    <path d="M 42.53875 80.817687 
L 1384.48875 80.817687 
" style="fill: none; stroke: #000000; stroke-width: 0.8; stroke-linejoin: miter; stroke-linecap: square"/>
   </g>
   <g id="line2d_45">
    <path d="M 108.72042 106.812053 
L 129.456191 106.812053 
L 136.368115 165.342414 
L 143.280039 130.91279 
L 150.191963 151.570564 
L 157.103886 137.798715 
L 177.839658 141.241677 
L 184.751582 223.872774 
L 191.663505 234.201661 
L 198.575429 309.946833 
L 205.487353 289.289059 
L 226.223124 301.339427 
L 233.135048 282.403134 
L 240.046972 316.832758 
L 246.958896 311.668314 
L 253.870819 306.50387 
L 274.606591 294.453502 
L 281.518514 275.517209 
L 288.430438 261.74536 
L 295.342362 215.265368 
L 302.254286 247.97351 
L 322.990057 299.617946 
L 329.901981 316.832758 
L 336.813905 342.654975 
L 343.725828 311.668314 
L 350.637752 383.970524 
L 371.373523 401.185336 
L 378.285447 408.07126 
L 385.197371 420.121629 
L 392.109295 365.034231 
L 399.021218 409.792741 
L 419.75699 461.437177 
L 426.668914 445.943846 
L 433.580837 447.665327 
L 440.492761 435.614959 
L 447.404685 401.185336 
L 468.140456 368.477193 
L 475.05238 390.856448 
L 481.964304 425.286072 
L 488.876227 461.437177 
L 495.788151 435.614959 
L 516.523923 432.171997 
L 523.435846 399.463854 
L 530.34777 401.185336 
L 537.259694 375.363118 
L 544.171618 378.80608 
L 564.907389 385.692005 
L 571.819313 406.349779 
L 578.731236 427.007553 
L 585.64316 432.171997 
L 592.555084 463.158658 
L 620.202779 457.994215 
L 627.114703 482.094951 
L 634.026627 495.866801 
L 640.93855 471.766064 
L 668.586245 442.500884 
L 675.498169 418.400147 
L 682.410093 416.678666 
L 710.057788 435.614959 
L 716.969712 440.779403 
L 723.881636 396.020892 
L 730.793559 396.020892 
L 737.705483 425.286072 
L 758.441255 404.628298 
L 765.353178 420.121629 
L 772.265102 427.007553 
L 779.177026 442.500884 
L 806.824721 401.185336 
L 813.736645 380.527561 
L 820.648568 389.134967 
L 827.560492 414.957185 
L 834.472416 332.326088 
L 855.208187 413.235704 
L 862.120111 468.323102 
L 869.032035 464.880139 
L 875.943959 444.222365 
L 882.855882 390.856448 
L 903.591654 437.33644 
L 910.503577 445.943846 
L 917.415501 394.299411 
L 924.327425 423.564591 
L 931.239349 444.222365 
L 951.97512 468.323102 
L 958.887044 501.031244 
L 965.798968 533.739387 
L 972.710891 516.524575 
L 979.622815 545.789755 
L 1000.358586 581.94086 
L 1007.27051 578.497897 
L 1014.182434 535.460868 
L 1021.094358 554.397161 
L 1028.006282 542.346792 
L 1048.742053 544.068274 
L 1055.653977 533.739387 
L 1062.5659 468.323102 
L 1069.477824 482.094951 
L 1076.389748 509.63865 
L 1097.125519 523.410499 
L 1104.037443 530.296424 
L 1110.949367 545.789755 
L 1117.861291 554.397161 
L 1124.773214 540.625311 
L 1145.508986 554.397161 
L 1152.420909 549.232717 
L 1159.332833 552.67568 
L 1166.244757 569.890491 
L 1173.156681 557.840123 
L 1193.892452 523.410499 
L 1200.804376 545.789755 
L 1207.7163 550.954198 
L 1221.540147 561.283085 
L 1242.275918 568.16901 
L 1249.187842 576.776416 
L 1256.099766 571.611973 
L 1269.923614 578.497897 
L 1290.659385 624.977889 
L 1297.571309 604.320115 
L 1304.483232 578.497897 
L 1311.395156 609.484559 
L 1318.30708 626.69937 
" clip-path="url(#p4d1d0bb948)" style="fill: none; stroke: #000000; stroke-width: 2; stroke-linecap: square"/>
   </g>
   <g id="legend_1">
    <g id="patch_7">
     <path d="M 49.53875 118.173937 
L 136.637188 118.173937 
Q 138.637188 118.173937 138.637188 116.173937 
L 138.637188 87.817687 
Q 138.637188 85.817687 136.637188 85.817687 
L 49.53875 85.817687 
Q 47.53875 85.817687 47.53875 87.817687 
L 47.53875 116.173937 
Q 47.53875 118.173937 49.53875 118.173937 
z
" style="fill: #ffffff; opacity: 0.8; stroke: #cccccc; stroke-linejoin: miter"/>
    </g>
    <g id="line2d_46">
     <path d="M 51.53875 93.916125 
L 61.53875 93.916125 
L 71.53875 93.916125 
" style="fill: none; stroke: #000000; stroke-width: 2; stroke-linecap: square"/>
    </g>
    <g id="text_39">
     <!-- 奕力-KY 收盤價 -->
     <g transform="translate(79.53875 97.416125) scale(0.1 -0.1)">
      <defs>
       <path id="DejaVuSans-5955" d="M 319 -1131 
L 319 4513 
L 3519 4513 
L 3519 -1131 
L 319 -1131 
z
M 678 -775 
L 3163 -775 
L 3163 4153 
L 678 4153 
L 678 -775 
z
" transform="scale(0.015625)"/>
       <path id="DejaVuSans-529b" d="M 319 -1131 
L 319 4513 
L 3519 4513 
L 3519 -1131 
L 319 -1131 
z
M 678 -775 
L 3163 -775 
L 3163 4153 
L 678 4153 
L 678 -775 
z
" transform="scale(0.015625)"/>
       <path id="DejaVuSans-2d" d="M 313 2009 
L 1997 2009 
L 1997 1497 
L 313 1497 
L 313 2009 
z
" transform="scale(0.015625)"/>
       <path id="DejaVuSans-4b" d="M 628 4666 
L 1259 4666 
L 1259 2694 
L 3353 4666 
L 4166 4666 
L 1850 2491 
L 4331 0 
L 3500 0 
L 1259 2247 
L 1259 0 
L 628 0 
L 628 4666 
z
" transform="scale(0.015625)"/>
       <path id="DejaVuSans-59" d="M -13 4666 
L 666 4666 
L 1959 2747 
L 3244 4666 
L 3922 4666 
L 2272 2222 
L 2272 0 
L 1638 0 
L 1638 2222 
L -13 4666 
z
" transform="scale(0.015625)"/>
       <path id="DejaVuSans-20" transform="scale(0.015625)"/>
       <path id="DejaVuSans-6536" d="M 319 -1131 
L 319 4513 
L 3519 4513 
L 3519 -1131 
L 319 -1131 
z
M 678 -775 
L 3163 -775 
L 3163 4153 
L 678 4153 
L 678 -775 
z
" transform="scale(0.015625)"/>
       <path id="DejaVuSans-76e4" d="M 319 -1131 
L 319 4513 
L 3519 4513 
L 3519 -1131 
L 319 -1131 
z
M 678 -775 
L 3163 -775 
L 3163 4153 
L 678 4153 
L 678 -775 
z
" transform="scale(0.015625)"/>
       <path id="DejaVuSans-50f9" d="M 319 -1131 
L 319 4513 
L 3519 4513 
L 3519 -1131 
L 319 -1131 
z
M 678 -775 
L 3163 -775 
L 3163 4153 
L 678 4153 
L 678 -775 
z
" transform="scale(0.015625)"/>
      </defs>
      <use xlink:href="#DejaVuSans-5955"/>
      <use xlink:href="#DejaVuSans-529b" x="60.009766"/>
      <use xlink:href="#DejaVuSans-2d" x="120.019531"/>
      <use xlink:href="#DejaVuSans-4b" x="156.103516"/>
      <use xlink:href="#DejaVuSans-59" x="218.054688"/>
      <use xlink:href="#DejaVuSans-20" x="279.138672"/>
      <use xlink:href="#DejaVuSans-6536" x="310.925781"/>
      <use xlink:href="#DejaVuSans-76e4" x="370.935547"/>
      <use xlink:href="#DejaVuSans-50f9" x="430.945312"/>
     </g>
    </g>
    <g id="patch_8">
     <path d="M 51.53875 112.09425 
L 71.53875 112.09425 
L 71.53875 105.09425 
L 51.53875 105.09425 
z
" style="fill: #ffd700; opacity: 0.7"/>
    </g>
    <g id="text_40">
     <!-- 奕力-KY 融資餘額 -->
     <g transform="translate(79.53875 112.09425) scale(0.1 -0.1)">
      <defs>
       <path id="DejaVuSans-878d" d="M 319 -1131 
L 319 4513 
L 3519 4513 
L 3519 -1131 
L 319 -1131 
z
M 678 -775 
L 3163 -775 
L 3163 4153 
L 678 4153 
L 678 -775 
z
" transform="scale(0.015625)"/>
       <path id="DejaVuSans-8cc7" d="M 319 -1131 
L 319 4513 
L 3519 4513 
L 3519 -1131 
L 319 -1131 
z
M 678 -775 
L 3163 -775 
L 3163 4153 
L 678 4153 
L 678 -775 
z
" transform="scale(0.015625)"/>
       <path id="DejaVuSans-9918" d="M 319 -1131 
L 319 4513 
L 3519 4513 
L 3519 -1131 
L 319 -1131 
z
M 678 -775 
L 3163 -775 
L 3163 4153 
L 678 4153 
L 678 -775 
z
" transform="scale(0.015625)"/>
       <path id="DejaVuSans-984d" d="M 319 -1131 
L 319 4513 
L 3519 4513 
L 3519 -1131 
L 319 -1131 
z
M 678 -775 
L 3163 -775 
L 3163 4153 
L 678 4153 
L 678 -775 
z
" transform="scale(0.015625)"/>
      </defs>
      <use xlink:href="#DejaVuSans-5955"/>
      <use xlink:href="#DejaVuSans-529b" x="60.009766"/>
      <use xlink:href="#DejaVuSans-2d" x="120.019531"/>
      <use xlink:href="#DejaVuSans-4b" x="156.103516"/>
      <use xlink:href="#DejaVuSans-59" x="218.054688"/>
      <use xlink:href="#DejaVuSans-20" x="279.138672"/>
      <use xlink:href="#DejaVuSans-878d" x="310.925781"/>
      <use xlink:href="#DejaVuSans-8cc7" x="370.935547"/>
      <use xlink:href="#DejaVuSans-9918" x="430.945312"/>
      <use xlink:href="#DejaVuSans-984d" x="490.955078"/>
     </g>
    </g>
   </g>
  </g>
  <g id="axes_2">
   <g id="matplotlib.axis_3">
    <g id="ytick_9">
     <g id="line2d_47">
      <defs>
       <path id="m43d9d24f07" d="M 0 0 
L 3.5 0 
" style="stroke: #000000; stroke-width: 0.8"/>
      </defs>
      <g>
       <use xlink:href="#m43d9d24f07" x="1384.48875" y="652.693736" style="stroke: #000000; stroke-width: 0.8"/>
      </g>
     </g>
     <g id="text_41">
      <!-- 0.0 -->
      <g style="fill: #b8860b" transform="translate(1391.48875 656.492955) scale(0.1 -0.1)">
       <defs>
        <path id="DejaVuSans-2e" d="M 684 794 
L 1344 794 
L 1344 0 
L 684 0 
L 684 794 
z
" transform="scale(0.015625)"/>
       </defs>
       <use xlink:href="#DejaVuSans-30"/>
       <use xlink:href="#DejaVuSans-2e" x="63.623047"/>
       <use xlink:href="#DejaVuSans-30" x="95.410156"/>
      </g>
     </g>
    </g>
    <g id="ytick_10">
     <g id="line2d_48">
      <g>
       <use xlink:href="#m43d9d24f07" x="1384.48875" y="583.292974" style="stroke: #000000; stroke-width: 0.8"/>
      </g>
     </g>
     <g id="text_42">
      <!-- 0.5 -->
      <g style="fill: #b8860b" transform="translate(1391.48875 587.092193) scale(0.1 -0.1)">
       <use xlink:href="#DejaVuSans-30"/>
       <use xlink:href="#DejaVuSans-2e" x="63.623047"/>
       <use xlink:href="#DejaVuSans-35" x="95.410156"/>
      </g>
     </g>
    </g>
    <g id="ytick_11">
     <g id="line2d_49">
      <g>
       <use xlink:href="#m43d9d24f07" x="1384.48875" y="513.892212" style="stroke: #000000; stroke-width: 0.8"/>
      </g>
     </g>
     <g id="text_43">
      <!-- 1.0 -->
      <g style="fill: #b8860b" transform="translate(1391.48875 517.691431) scale(0.1 -0.1)">
       <use xlink:href="#DejaVuSans-31"/>
       <use xlink:href="#DejaVuSans-2e" x="63.623047"/>
       <use xlink:href="#DejaVuSans-30" x="95.410156"/>
      </g>
     </g>
    </g>
    <g id="ytick_12">
     <g id="line2d_50">
      <g>
       <use xlink:href="#m43d9d24f07" x="1384.48875" y="444.49145" style="stroke: #000000; stroke-width: 0.8"/>
      </g>
     </g>
     <g id="text_44">
      <!-- 1.5 -->
      <g style="fill: #b8860b" transform="translate(1391.48875 448.290669) scale(0.1 -0.1)">
       <use xlink:href="#DejaVuSans-31"/>
       <use xlink:href="#DejaVuSans-2e" x="63.623047"/>
       <use xlink:href="#DejaVuSans-35" x="95.410156"/>
      </g>
     </g>
    </g>
    <g id="ytick_13">
     <g id="line2d_51">
      <g>
       <use xlink:href="#m43d9d24f07" x="1384.48875" y="375.090688" style="stroke: #000000; stroke-width: 0.8"/>
      </g>
     </g>
     <g id="text_45">
      <!-- 2.0 -->
      <g style="fill: #b8860b" transform="translate(1391.48875 378.889907) scale(0.1 -0.1)">
       <use xlink:href="#DejaVuSans-32"/>
       <use xlink:href="#DejaVuSans-2e" x="63.623047"/>
       <use xlink:href="#DejaVuSans-30" x="95.410156"/>
      </g>
     </g>
    </g>
    <g id="ytick_14">
     <g id="line2d_52">
      <g>
       <use xlink:href="#m43d9d24f07" x="1384.48875" y="305.689926" style="stroke: #000000; stroke-width: 0.8"/>
      </g>
     </g>
     <g id="text_46">
      <!-- 2.5 -->
      <g style="fill: #b8860b" transform="translate(1391.48875 309.489145) scale(0.1 -0.1)">
       <use xlink:href="#DejaVuSans-32"/>
       <use xlink:href="#DejaVuSans-2e" x="63.623047"/>
       <use xlink:href="#DejaVuSans-35" x="95.410156"/>
      </g>
     </g>
    </g>
    <g id="ytick_15">
     <g id="line2d_53">
      <g>
       <use xlink:href="#m43d9d24f07" x="1384.48875" y="236.289164" style="stroke: #000000; stroke-width: 0.8"/>
      </g>
     </g>
     <g id="text_47">
      <!-- 3.0 -->
      <g style="fill: #b8860b" transform="translate(1391.48875 240.088382) scale(0.1 -0.1)">
       <use xlink:href="#DejaVuSans-33"/>
       <use xlink:href="#DejaVuSans-2e" x="63.623047"/>
       <use xlink:href="#DejaVuSans-30" x="95.410156"/>
      </g>
     </g>
    </g>
    <g id="ytick_16">
     <g id="line2d_54">
      <g>
       <use xlink:href="#m43d9d24f07" x="1384.48875" y="166.888402" style="stroke: #000000; stroke-width: 0.8"/>
      </g>
     </g>
     <g id="text_48">
      <!-- 3.5 -->
      <g style="fill: #b8860b" transform="translate(1391.48875 170.68762) scale(0.1 -0.1)">
       <use xlink:href="#DejaVuSans-33"/>
       <use xlink:href="#DejaVuSans-2e" x="63.623047"/>
       <use xlink:href="#DejaVuSans-35" x="95.410156"/>
      </g>
     </g>
    </g>
    <g id="ytick_17">
     <g id="line2d_55">
      <g>
       <use xlink:href="#m43d9d24f07" x="1384.48875" y="97.48764" style="stroke: #000000; stroke-width: 0.8"/>
      </g>
     </g>
     <g id="text_49">
      <!-- 4.0 -->
      <g style="fill: #b8860b" transform="translate(1391.48875 101.286858) scale(0.1 -0.1)">
       <use xlink:href="#DejaVuSans-34"/>
       <use xlink:href="#DejaVuSans-2e" x="63.623047"/>
       <use xlink:href="#DejaVuSans-30" x="95.410156"/>
      </g>
     </g>
    </g>
    <g id="text_50">
     <!-- 融資餘額 (億元) -->
     <g style="fill: #b8860b" transform="translate(1420.51 395.934462) rotate(-90) scale(0.12 -0.12)">
      <defs>
       <path id="DejaVuSans-Bold-878d" d="M 319 -1131 
L 319 4513 
L 3519 4513 
L 3519 -1131 
L 319 -1131 
z
M 678 -775 
L 3163 -775 
L 3163 4153 
L 678 4153 
L 678 -775 
z
" transform="scale(0.015625)"/>
       <path id="DejaVuSans-Bold-8cc7" d="M 319 -1131 
L 319 4513 
L 3519 4513 
L 3519 -1131 
L 319 -1131 
z
M 678 -775 
L 3163 -775 
L 3163 4153 
L 678 4153 
L 678 -775 
z
" transform="scale(0.015625)"/>
       <path id="DejaVuSans-Bold-9918" d="M 319 -1131 
L 319 4513 
L 3519 4513 
L 3519 -1131 
L 319 -1131 
z
M 678 -775 
L 3163 -775 
L 3163 4153 
L 678 4153 
L 678 -775 
z
" transform="scale(0.015625)"/>
       <path id="DejaVuSans-Bold-984d" d="M 319 -1131 
L 319 4513 
L 3519 4513 
L 3519 -1131 
L 319 -1131 
z
M 678 -775 
L 3163 -775 
L 3163 4153 
L 678 4153 
L 678 -775 
z
" transform="scale(0.015625)"/>
       <path id="DejaVuSans-Bold-5104" d="M 319 -1131 
L 319 4513 
L 3519 4513 
L 3519 -1131 
L 319 -1131 
z
M 678 -775 
L 3163 -775 
L 3163 4153 
L 678 4153 
L 678 -775 
z
" transform="scale(0.015625)"/>
      </defs>
      <use xlink:href="#DejaVuSans-Bold-878d"/>
      <use xlink:href="#DejaVuSans-Bold-8cc7" x="60.009766"/>
      <use xlink:href="#DejaVuSans-Bold-9918" x="120.019531"/>
      <use xlink:href="#DejaVuSans-Bold-984d" x="180.029297"/>
      <use xlink:href="#DejaVuSans-Bold-20" x="240.039062"/>
      <use xlink:href="#DejaVuSans-Bold-28" x="274.853516"/>
      <use xlink:href="#DejaVuSans-Bold-5104" x="320.556641"/>
      <use xlink:href="#DejaVuSans-Bold-5143" x="380.566406"/>
      <use xlink:href="#DejaVuSans-Bold-29" x="440.576172"/>
     </g>
    </g>
   </g>
   <g id="patch_9">
    <path d="M 42.53875 652.693736 
L 42.53875 80.817687 
" style="fill: none; stroke: #000000; stroke-width: 0.8; stroke-linejoin: miter; stroke-linecap: square"/>
   </g>
   <g id="patch_10">
    <path d="M 1384.48875 652.693736 
L 1384.48875 80.817687 
" style="fill: none; stroke: #000000; stroke-width: 0.8; stroke-linejoin: miter; stroke-linecap: square"/>
   </g>
   <g id="patch_11">
    <path d="M 42.53875 652.693736 
L 1384.48875 652.693736 
" style="fill: none; stroke: #000000; stroke-width: 0.8; stroke-linejoin: miter; stroke-linecap: square"/>
   </g>
   <g id="patch_12">
    <path d="M 42.53875 80.817687 
L 1384.48875 80.817687 
" style="fill: none; stroke: #000000; stroke-width: 0.8; stroke-linejoin: miter; stroke-linecap: square"/>
   </g>
   <g id="patch_13">
    <path d="M 103.536477 652.693736 
L 113.904363 652.693736 
L 113.904363 429.065326 
L 103.536477 429.065326 
z
" clip-path="url(#p4d1d0bb948)" style="fill: #ffd700; opacity: 0.7"/>
   </g>
   <g id="patch_14">
    <path d="M 124.272249 652.693736 
L 134.640134 652.693736 
L 134.640134 429.211345 
L 124.272249 429.211345 
z
" clip-path="url(#p4d1d0bb948)" style="fill: #ffd700; opacity: 0.7"/>
   </g>
   <g id="patch_15">
    <path d="M 131.184172 652.693736 
L 141.552058 652.693736 
L 141.552058 439.260159 
L 131.184172 439.260159 
z
" clip-path="url(#p4d1d0bb948)" style="fill: #ffd700; opacity: 0.7"/>
   </g>
   <g id="patch_16">
    <path d="M 138.096096 652.693736 
L 148.463982 652.693736 
L 148.463982 434.058433 
L 138.096096 434.058433 
z
" clip-path="url(#p4d1d0bb948)" style="fill: #ffd700; opacity: 0.7"/>
   </g>
   <g id="patch_17">
    <path d="M 145.00802 652.693736 
L 155.375906 652.693736 
L 155.375906 431.174415 
L 145.00802 431.174415 
z
" clip-path="url(#p4d1d0bb948)" style="fill: #ffd700; opacity: 0.7"/>
   </g>
   <g id="patch_18">
    <path d="M 151.919944 652.693736 
L 162.287829 652.693736 
L 162.287829 438.417218 
L 151.919944 438.417218 
z
" clip-path="url(#p4d1d0bb948)" style="fill: #ffd700; opacity: 0.7"/>
   </g>
   <g id="patch_19">
    <path d="M 172.655715 652.693736 
L 183.023601 652.693736 
L 183.023601 431.884385 
L 172.655715 431.884385 
z
" clip-path="url(#p4d1d0bb948)" style="fill: #ffd700; opacity: 0.7"/>
   </g>
   <g id="patch_20">
    <path d="M 179.567639 652.693736 
L 189.935524 652.693736 
L 189.935524 439.559554 
L 179.567639 439.559554 
z
" clip-path="url(#p4d1d0bb948)" style="fill: #ffd700; opacity: 0.7"/>
   </g>
   <g id="patch_21">
    <path d="M 186.479563 652.693736 
L 196.847448 652.693736 
L 196.847448 435.021994 
L 186.479563 435.021994 
z
" clip-path="url(#p4d1d0bb948)" style="fill: #ffd700; opacity: 0.7"/>
   </g>
   <g id="patch_22">
    <path d="M 193.391486 652.693736 
L 203.759372 652.693736 
L 203.759372 413.960528 
L 193.391486 413.960528 
z
" clip-path="url(#p4d1d0bb948)" style="fill: #ffd700; opacity: 0.7"/>
   </g>
   <g id="patch_23">
    <path d="M 200.30341 652.693736 
L 210.671296 652.693736 
L 210.671296 409.055004 
L 200.30341 409.055004 
z
" clip-path="url(#p4d1d0bb948)" style="fill: #ffd700; opacity: 0.7"/>
   </g>
   <g id="patch_24">
    <path d="M 221.039181 652.693736 
L 231.407067 652.693736 
L 231.407067 408.120801 
L 221.039181 408.120801 
z
" clip-path="url(#p4d1d0bb948)" style="fill: #ffd700; opacity: 0.7"/>
   </g>
   <g id="patch_25">
    <path d="M 227.951105 652.693736 
L 238.318991 652.693736 
L 238.318991 403.871184 
L 227.951105 403.871184 
z
" clip-path="url(#p4d1d0bb948)" style="fill: #ffd700; opacity: 0.7"/>
   </g>
   <g id="patch_26">
    <path d="M 234.863029 652.693736 
L 245.230915 652.693736 
L 245.230915 397.750037 
L 234.863029 397.750037 
z
" clip-path="url(#p4d1d0bb948)" style="fill: #ffd700; opacity: 0.7"/>
   </g>
   <g id="patch_27">
    <path d="M 241.774953 652.693736 
L 252.142838 652.693736 
L 252.142838 393.172085 
L 241.774953 393.172085 
z
" clip-path="url(#p4d1d0bb948)" style="fill: #ffd700; opacity: 0.7"/>
   </g>
   <g id="patch_28">
    <path d="M 248.686876 652.693736 
L 259.054762 652.693736 
L 259.054762 390.258918 
L 248.686876 390.258918 
z
" clip-path="url(#p4d1d0bb948)" style="fill: #ffd700; opacity: 0.7"/>
   </g>
   <g id="patch_29">
    <path d="M 269.422648 652.693736 
L 279.790533 652.693736 
L 279.790533 385.351244 
L 269.422648 385.351244 
z
" clip-path="url(#p4d1d0bb948)" style="fill: #ffd700; opacity: 0.7"/>
   </g>
   <g id="patch_30">
    <path d="M 276.334572 652.693736 
L 286.702457 652.693736 
L 286.702457 379.981637 
L 276.334572 379.981637 
z
" clip-path="url(#p4d1d0bb948)" style="fill: #ffd700; opacity: 0.7"/>
   </g>
   <g id="patch_31">
    <path d="M 283.246495 652.693736 
L 293.614381 652.693736 
L 293.614381 378.829723 
L 283.246495 378.829723 
z
" clip-path="url(#p4d1d0bb948)" style="fill: #ffd700; opacity: 0.7"/>
   </g>
   <g id="patch_32">
    <path d="M 290.158419 652.693736 
L 300.526305 652.693736 
L 300.526305 387.273089 
L 290.158419 387.273089 
z
" clip-path="url(#p4d1d0bb948)" style="fill: #ffd700; opacity: 0.7"/>
   </g>
   <g id="patch_33">
    <path d="M 297.070343 652.693736 
L 307.438228 652.693736 
L 307.438228 379.985524 
L 297.070343 379.985524 
z
" clip-path="url(#p4d1d0bb948)" style="fill: #ffd700; opacity: 0.7"/>
   </g>
   <g id="patch_34">
    <path d="M 317.806114 652.693736 
L 328.174 652.693736 
L 328.174 360.237537 
L 317.806114 360.237537 
z
" clip-path="url(#p4d1d0bb948)" style="fill: #ffd700; opacity: 0.7"/>
   </g>
   <g id="patch_35">
    <path d="M 324.718038 652.693736 
L 335.085924 652.693736 
L 335.085924 361.60612 
L 324.718038 361.60612 
z
" clip-path="url(#p4d1d0bb948)" style="fill: #ffd700; opacity: 0.7"/>
   </g>
   <g id="patch_36">
    <path d="M 331.629962 652.693736 
L 341.997847 652.693736 
L 341.997847 362.49098 
L 331.629962 362.49098 
z
" clip-path="url(#p4d1d0bb948)" style="fill: #ffd700; opacity: 0.7"/>
   </g>
   <g id="patch_37">
    <path d="M 338.541885 652.693736 
L 348.909771 652.693736 
L 348.909771 362.091648 
L 338.541885 362.091648 
z
" clip-path="url(#p4d1d0bb948)" style="fill: #ffd700; opacity: 0.7"/>
   </g>
   <g id="patch_38">
    <path d="M 345.453809 652.693736 
L 355.821695 652.693736 
L 355.821695 364.228428 
L 345.453809 364.228428 
z
" clip-path="url(#p4d1d0bb948)" style="fill: #ffd700; opacity: 0.7"/>
   </g>
   <g id="patch_39">
    <path d="M 366.189581 652.693736 
L 376.557466 652.693736 
L 376.557466 352.60845 
L 366.189581 352.60845 
z
" clip-path="url(#p4d1d0bb948)" style="fill: #ffd700; opacity: 0.7"/>
   </g>
   <g id="patch_40">
    <path d="M 373.101504 652.693736 
L 383.46939 652.693736 
L 383.46939 350.745109 
L 373.101504 350.745109 
z
" clip-path="url(#p4d1d0bb948)" style="fill: #ffd700; opacity: 0.7"/>
   </g>
   <g id="patch_41">
    <path d="M 380.013428 652.693736 
L 390.381314 652.693736 
L 390.381314 346.875808 
L 380.013428 346.875808 
z
" clip-path="url(#p4d1d0bb948)" style="fill: #ffd700; opacity: 0.7"/>
   </g>
   <g id="patch_42">
    <path d="M 386.925352 652.693736 
L 397.293238 652.693736 
L 397.293238 329.993379 
L 386.925352 329.993379 
z
" clip-path="url(#p4d1d0bb948)" style="fill: #ffd700; opacity: 0.7"/>
   </g>
   <g id="patch_43">
    <path d="M 393.837276 652.693736 
L 404.205161 652.693736 
L 404.205161 321.725388 
L 393.837276 321.725388 
z
" clip-path="url(#p4d1d0bb948)" style="fill: #ffd700; opacity: 0.7"/>
   </g>
   <g id="patch_44">
    <path d="M 414.573047 652.693736 
L 424.940933 652.693736 
L 424.940933 339.694495 
L 414.573047 339.694495 
z
" clip-path="url(#p4d1d0bb948)" style="fill: #ffd700; opacity: 0.7"/>
   </g>
   <g id="patch_45">
    <path d="M 421.484971 652.693736 
L 431.852856 652.693736 
L 431.852856 338.204183 
L 421.484971 338.204183 
z
" clip-path="url(#p4d1d0bb948)" style="fill: #ffd700; opacity: 0.7"/>
   </g>
   <g id="patch_46">
    <path d="M 428.396894 652.693736 
L 438.76478 652.693736 
L 438.76478 337.031032 
L 428.396894 337.031032 
z
" clip-path="url(#p4d1d0bb948)" style="fill: #ffd700; opacity: 0.7"/>
   </g>
   <g id="patch_47">
    <path d="M 435.308818 652.693736 
L 445.676704 652.693736 
L 445.676704 333.607076 
L 435.308818 333.607076 
z
" clip-path="url(#p4d1d0bb948)" style="fill: #ffd700; opacity: 0.7"/>
   </g>
   <g id="patch_48">
    <path d="M 442.220742 652.693736 
L 452.588628 652.693736 
L 452.588628 328.090479 
L 442.220742 328.090479 
z
" clip-path="url(#p4d1d0bb948)" style="fill: #ffd700; opacity: 0.7"/>
   </g>
   <g id="patch_49">
    <path d="M 462.956513 652.693736 
L 473.324399 652.693736 
L 473.324399 323.900686 
L 462.956513 323.900686 
z
" clip-path="url(#p4d1d0bb948)" style="fill: #ffd700; opacity: 0.7"/>
   </g>
   <g id="patch_50">
    <path d="M 469.868437 652.693736 
L 480.236323 652.693736 
L 480.236323 322.863422 
L 469.868437 322.863422 
z
" clip-path="url(#p4d1d0bb948)" style="fill: #ffd700; opacity: 0.7"/>
   </g>
   <g id="patch_51">
    <path d="M 476.780361 652.693736 
L 487.148247 652.693736 
L 487.148247 316.581543 
L 476.780361 316.581543 
z
" clip-path="url(#p4d1d0bb948)" style="fill: #ffd700; opacity: 0.7"/>
   </g>
   <g id="patch_52">
    <path d="M 483.692285 652.693736 
L 494.06017 652.693736 
L 494.06017 318.029381 
L 483.692285 318.029381 
z
" clip-path="url(#p4d1d0bb948)" style="fill: #ffd700; opacity: 0.7"/>
   </g>
   <g id="patch_53">
    <path d="M 490.604208 652.693736 
L 500.972094 652.693736 
L 500.972094 313.410205 
L 490.604208 313.410205 
z
" clip-path="url(#p4d1d0bb948)" style="fill: #ffd700; opacity: 0.7"/>
   </g>
   <g id="patch_54">
    <path d="M 511.33998 652.693736 
L 521.707865 652.693736 
L 521.707865 316.215662 
L 511.33998 316.215662 
z
" clip-path="url(#p4d1d0bb948)" style="fill: #ffd700; opacity: 0.7"/>
   </g>
   <g id="patch_55">
    <path d="M 518.251903 652.693736 
L 528.619789 652.693736 
L 528.619789 319.703328 
L 518.251903 319.703328 
z
" clip-path="url(#p4d1d0bb948)" style="fill: #ffd700; opacity: 0.7"/>
   </g>
   <g id="patch_56">
    <path d="M 525.163827 652.693736 
L 535.531713 652.693736 
L 535.531713 319.469447 
L 525.163827 319.469447 
z
" clip-path="url(#p4d1d0bb948)" style="fill: #ffd700; opacity: 0.7"/>
   </g>
   <g id="patch_57">
    <path d="M 532.075751 652.693736 
L 542.443637 652.693736 
L 542.443637 308.44819 
L 532.075751 308.44819 
z
" clip-path="url(#p4d1d0bb948)" style="fill: #ffd700; opacity: 0.7"/>
   </g>
   <g id="patch_58">
    <path d="M 538.987675 652.693736 
L 549.35556 652.693736 
L 549.35556 316.413732 
L 538.987675 316.413732 
z
" clip-path="url(#p4d1d0bb948)" style="fill: #ffd700; opacity: 0.7"/>
   </g>
   <g id="patch_59">
    <path d="M 559.723446 652.693736 
L 570.091332 652.693736 
L 570.091332 302.785504 
L 559.723446 302.785504 
z
" clip-path="url(#p4d1d0bb948)" style="fill: #ffd700; opacity: 0.7"/>
   </g>
   <g id="patch_60">
    <path d="M 566.63537 652.693736 
L 577.003256 652.693736 
L 577.003256 307.442434 
L 566.63537 307.442434 
z
" clip-path="url(#p4d1d0bb948)" style="fill: #ffd700; opacity: 0.7"/>
   </g>
   <g id="patch_61">
    <path d="M 573.547294 652.693736 
L 583.915179 652.693736 
L 583.915179 311.379817 
L 573.547294 311.379817 
z
" clip-path="url(#p4d1d0bb948)" style="fill: #ffd700; opacity: 0.7"/>
   </g>
   <g id="patch_62">
    <path d="M 580.459217 652.693736 
L 590.827103 652.693736 
L 590.827103 307.830662 
L 580.459217 307.830662 
z
" clip-path="url(#p4d1d0bb948)" style="fill: #ffd700; opacity: 0.7"/>
   </g>
   <g id="patch_63">
    <path d="M 587.371141 652.693736 
L 597.739027 652.693736 
L 597.739027 314.613129 
L 587.371141 314.613129 
z
" clip-path="url(#p4d1d0bb948)" style="fill: #ffd700; opacity: 0.7"/>
   </g>
   <g id="patch_64">
    <path d="M 615.018836 652.693736 
L 625.386722 652.693736 
L 625.386722 312.471213 
L 615.018836 312.471213 
z
" clip-path="url(#p4d1d0bb948)" style="fill: #ffd700; opacity: 0.7"/>
   </g>
   <g id="patch_65">
    <path d="M 621.93076 652.693736 
L 632.298646 652.693736 
L 632.298646 304.83352 
L 621.93076 304.83352 
z
" clip-path="url(#p4d1d0bb948)" style="fill: #ffd700; opacity: 0.7"/>
   </g>
   <g id="patch_66">
    <path d="M 628.842684 652.693736 
L 639.210569 652.693736 
L 639.210569 299.456905 
L 628.842684 299.456905 
z
" clip-path="url(#p4d1d0bb948)" style="fill: #ffd700; opacity: 0.7"/>
   </g>
   <g id="patch_67">
    <path d="M 635.754608 652.693736 
L 646.122493 652.693736 
L 646.122493 300.348843 
L 635.754608 300.348843 
z
" clip-path="url(#p4d1d0bb948)" style="fill: #ffd700; opacity: 0.7"/>
   </g>
   <g id="patch_68">
    <path d="M 663.402303 652.693736 
L 673.770188 652.693736 
L 673.770188 295.002347 
L 663.402303 295.002347 
z
" clip-path="url(#p4d1d0bb948)" style="fill: #ffd700; opacity: 0.7"/>
   </g>
   <g id="patch_69">
    <path d="M 670.314226 652.693736 
L 680.682112 652.693736 
L 680.682112 283.537411 
L 670.314226 283.537411 
z
" clip-path="url(#p4d1d0bb948)" style="fill: #ffd700; opacity: 0.7"/>
   </g>
   <g id="patch_70">
    <path d="M 677.22615 652.693736 
L 687.594036 652.693736 
L 687.594036 286.260488 
L 677.22615 286.260488 
z
" clip-path="url(#p4d1d0bb948)" style="fill: #ffd700; opacity: 0.7"/>
   </g>
   <g id="patch_71">
    <path d="M 704.873845 652.693736 
L 715.241731 652.693736 
L 715.241731 293.273088 
L 704.873845 293.273088 
z
" clip-path="url(#p4d1d0bb948)" style="fill: #ffd700; opacity: 0.7"/>
   </g>
   <g id="patch_72">
    <path d="M 711.785769 652.693736 
L 722.153655 652.693736 
L 722.153655 295.954526 
L 711.785769 295.954526 
z
" clip-path="url(#p4d1d0bb948)" style="fill: #ffd700; opacity: 0.7"/>
   </g>
   <g id="patch_73">
    <path d="M 718.697693 652.693736 
L 729.065578 652.693736 
L 729.065578 281.095129 
L 718.697693 281.095129 
z
" clip-path="url(#p4d1d0bb948)" style="fill: #ffd700; opacity: 0.7"/>
   </g>
   <g id="patch_74">
    <path d="M 725.609617 652.693736 
L 735.977502 652.693736 
L 735.977502 279.684072 
L 725.609617 279.684072 
z
" clip-path="url(#p4d1d0bb948)" style="fill: #ffd700; opacity: 0.7"/>
   </g>
   <g id="patch_75">
    <path d="M 732.52154 652.693736 
L 742.889426 652.693736 
L 742.889426 277.169891 
L 732.52154 277.169891 
z
" clip-path="url(#p4d1d0bb948)" style="fill: #ffd700; opacity: 0.7"/>
   </g>
   <g id="patch_76">
    <path d="M 753.257312 652.693736 
L 763.625197 652.693736 
L 763.625197 274.656473 
L 753.257312 274.656473 
z
" clip-path="url(#p4d1d0bb948)" style="fill: #ffd700; opacity: 0.7"/>
   </g>
   <g id="patch_77">
    <path d="M 760.169235 652.693736 
L 770.537121 652.693736 
L 770.537121 276.836559 
L 760.169235 276.836559 
z
" clip-path="url(#p4d1d0bb948)" style="fill: #ffd700; opacity: 0.7"/>
   </g>
   <g id="patch_78">
    <path d="M 767.081159 652.693736 
L 777.449045 652.693736 
L 777.449045 279.766659 
L 767.081159 279.766659 
z
" clip-path="url(#p4d1d0bb948)" style="fill: #ffd700; opacity: 0.7"/>
   </g>
   <g id="patch_79">
    <path d="M 773.993083 652.693736 
L 784.360969 652.693736 
L 784.360969 274.6614 
L 773.993083 274.6614 
z
" clip-path="url(#p4d1d0bb948)" style="fill: #ffd700; opacity: 0.7"/>
   </g>
   <g id="patch_80">
    <path d="M 801.640778 652.693736 
L 812.008664 652.693736 
L 812.008664 241.146454 
L 801.640778 241.146454 
z
" clip-path="url(#p4d1d0bb948)" style="fill: #ffd700; opacity: 0.7"/>
   </g>
   <g id="patch_81">
    <path d="M 808.552702 652.693736 
L 818.920587 652.693736 
L 818.920587 209.69729 
L 808.552702 209.69729 
z
" clip-path="url(#p4d1d0bb948)" style="fill: #ffd700; opacity: 0.7"/>
   </g>
   <g id="patch_82">
    <path d="M 815.464626 652.693736 
L 825.832511 652.693736 
L 825.832511 197.017216 
L 815.464626 197.017216 
z
" clip-path="url(#p4d1d0bb948)" style="fill: #ffd700; opacity: 0.7"/>
   </g>
   <g id="patch_83">
    <path d="M 822.376549 652.693736 
L 832.744435 652.693736 
L 832.744435 176.541562 
L 822.376549 176.541562 
z
" clip-path="url(#p4d1d0bb948)" style="fill: #ffd700; opacity: 0.7"/>
   </g>
   <g id="patch_84">
    <path d="M 829.288473 652.693736 
L 839.656359 652.693736 
L 839.656359 113.288874 
L 829.288473 113.288874 
z
" clip-path="url(#p4d1d0bb948)" style="fill: #ffd700; opacity: 0.7"/>
   </g>
   <g id="patch_85">
    <path d="M 850.024244 652.693736 
L 860.39213 652.693736 
L 860.39213 114.612 
L 850.024244 114.612 
z
" clip-path="url(#p4d1d0bb948)" style="fill: #ffd700; opacity: 0.7"/>
   </g>
   <g id="patch_86">
    <path d="M 856.936168 652.693736 
L 867.304054 652.693736 
L 867.304054 120.463733 
L 856.936168 120.463733 
z
" clip-path="url(#p4d1d0bb948)" style="fill: #ffd700; opacity: 0.7"/>
   </g>
   <g id="patch_87">
    <path d="M 863.848092 652.693736 
L 874.215978 652.693736 
L 874.215978 114.279293 
L 863.848092 114.279293 
z
" clip-path="url(#p4d1d0bb948)" style="fill: #ffd700; opacity: 0.7"/>
   </g>
   <g id="patch_88">
    <path d="M 870.760016 652.693736 
L 881.127901 652.693736 
L 881.127901 108.04988 
L 870.760016 108.04988 
z
" clip-path="url(#p4d1d0bb948)" style="fill: #ffd700; opacity: 0.7"/>
   </g>
   <g id="patch_89">
    <path d="M 877.67194 652.693736 
L 888.039825 652.693736 
L 888.039825 147.175532 
L 877.67194 147.175532 
z
" clip-path="url(#p4d1d0bb948)" style="fill: #ffd700; opacity: 0.7"/>
   </g>
   <g id="patch_90">
    <path d="M 898.407711 652.693736 
L 908.775597 652.693736 
L 908.775597 162.563346 
L 898.407711 162.563346 
z
" clip-path="url(#p4d1d0bb948)" style="fill: #ffd700; opacity: 0.7"/>
   </g>
   <g id="patch_91">
    <path d="M 905.319635 652.693736 
L 915.68752 652.693736 
L 915.68752 147.967672 
L 905.319635 147.967672 
z
" clip-path="url(#p4d1d0bb948)" style="fill: #ffd700; opacity: 0.7"/>
   </g>
   <g id="patch_92">
    <path d="M 912.231558 652.693736 
L 922.599444 652.693736 
L 922.599444 134.557363 
L 912.231558 134.557363 
z
" clip-path="url(#p4d1d0bb948)" style="fill: #ffd700; opacity: 0.7"/>
   </g>
   <g id="patch_93">
    <path d="M 919.143482 652.693736 
L 929.511368 652.693736 
L 929.511368 134.209248 
L 919.143482 134.209248 
z
" clip-path="url(#p4d1d0bb948)" style="fill: #ffd700; opacity: 0.7"/>
   </g>
   <g id="patch_94">
    <path d="M 926.055406 652.693736 
L 936.423292 652.693736 
L 936.423292 154.387381 
L 926.055406 154.387381 
z
" clip-path="url(#p4d1d0bb948)" style="fill: #ffd700; opacity: 0.7"/>
   </g>
   <g id="patch_95">
    <path d="M 946.791177 652.693736 
L 957.159063 652.693736 
L 957.159063 159.849221 
L 946.791177 159.849221 
z
" clip-path="url(#p4d1d0bb948)" style="fill: #ffd700; opacity: 0.7"/>
   </g>
   <g id="patch_96">
    <path d="M 953.703101 652.693736 
L 964.070987 652.693736 
L 964.070987 172.741037 
L 953.703101 172.741037 
z
" clip-path="url(#p4d1d0bb948)" style="fill: #ffd700; opacity: 0.7"/>
   </g>
   <g id="patch_97">
    <path d="M 960.615025 652.693736 
L 970.98291 652.693736 
L 970.98291 177.125569 
L 960.615025 177.125569 
z
" clip-path="url(#p4d1d0bb948)" style="fill: #ffd700; opacity: 0.7"/>
   </g>
   <g id="patch_98">
    <path d="M 967.526949 652.693736 
L 977.894834 652.693736 
L 977.894834 175.673428 
L 967.526949 175.673428 
z
" clip-path="url(#p4d1d0bb948)" style="fill: #ffd700; opacity: 0.7"/>
   </g>
   <g id="patch_99">
    <path d="M 974.438872 652.693736 
L 984.806758 652.693736 
L 984.806758 191.167009 
L 974.438872 191.167009 
z
" clip-path="url(#p4d1d0bb948)" style="fill: #ffd700; opacity: 0.7"/>
   </g>
   <g id="patch_100">
    <path d="M 995.174644 652.693736 
L 1005.542529 652.693736 
L 1005.542529 192.071995 
L 995.174644 192.071995 
z
" clip-path="url(#p4d1d0bb948)" style="fill: #ffd700; opacity: 0.7"/>
   </g>
   <g id="patch_101">
    <path d="M 1002.086567 652.693736 
L 1012.454453 652.693736 
L 1012.454453 191.100801 
L 1002.086567 191.100801 
z
" clip-path="url(#p4d1d0bb948)" style="fill: #ffd700; opacity: 0.7"/>
   </g>
   <g id="patch_102">
    <path d="M 1008.998491 652.693736 
L 1019.366377 652.693736 
L 1019.366377 178.720191 
L 1008.998491 178.720191 
z
" clip-path="url(#p4d1d0bb948)" style="fill: #ffd700; opacity: 0.7"/>
   </g>
   <g id="patch_103">
    <path d="M 1015.910415 652.693736 
L 1026.278301 652.693736 
L 1026.278301 181.750158 
L 1015.910415 181.750158 
z
" clip-path="url(#p4d1d0bb948)" style="fill: #ffd700; opacity: 0.7"/>
   </g>
   <g id="patch_104">
    <path d="M 1022.822339 652.693736 
L 1033.190224 652.693736 
L 1033.190224 184.685533 
L 1022.822339 184.685533 
z
" clip-path="url(#p4d1d0bb948)" style="fill: #ffd700; opacity: 0.7"/>
   </g>
   <g id="patch_105">
    <path d="M 1043.55811 652.693736 
L 1053.925996 652.693736 
L 1053.925996 186.545057 
L 1043.55811 186.545057 
z
" clip-path="url(#p4d1d0bb948)" style="fill: #ffd700; opacity: 0.7"/>
   </g>
   <g id="patch_106">
    <path d="M 1050.470034 652.693736 
L 1060.837919 652.693736 
L 1060.837919 183.04018 
L 1050.470034 183.04018 
z
" clip-path="url(#p4d1d0bb948)" style="fill: #ffd700; opacity: 0.7"/>
   </g>
   <g id="patch_107">
    <path d="M 1057.381958 652.693736 
L 1067.749843 652.693736 
L 1067.749843 149.272406 
L 1057.381958 149.272406 
z
" clip-path="url(#p4d1d0bb948)" style="fill: #ffd700; opacity: 0.7"/>
   </g>
   <g id="patch_108">
    <path d="M 1064.293881 652.693736 
L 1074.661767 652.693736 
L 1074.661767 137.038717 
L 1064.293881 137.038717 
z
" clip-path="url(#p4d1d0bb948)" style="fill: #ffd700; opacity: 0.7"/>
   </g>
   <g id="patch_109">
    <path d="M 1071.205805 652.693736 
L 1081.573691 652.693736 
L 1081.573691 143.75227 
L 1071.205805 143.75227 
z
" clip-path="url(#p4d1d0bb948)" style="fill: #ffd700; opacity: 0.7"/>
   </g>
   <g id="patch_110">
    <path d="M 1091.941576 652.693736 
L 1102.309462 652.693736 
L 1102.309462 145.131957 
L 1091.941576 145.131957 
z
" clip-path="url(#p4d1d0bb948)" style="fill: #ffd700; opacity: 0.7"/>
   </g>
   <g id="patch_111">
    <path d="M 1098.8535 652.693736 
L 1109.221386 652.693736 
L 1109.221386 148.869049 
L 1098.8535 148.869049 
z
" clip-path="url(#p4d1d0bb948)" style="fill: #ffd700; opacity: 0.7"/>
   </g>
   <g id="patch_112">
    <path d="M 1105.765424 652.693736 
L 1116.13331 652.693736 
L 1116.13331 146.363959 
L 1105.765424 146.363959 
z
" clip-path="url(#p4d1d0bb948)" style="fill: #ffd700; opacity: 0.7"/>
   </g>
   <g id="patch_113">
    <path d="M 1112.677348 652.693736 
L 1123.045233 652.693736 
L 1123.045233 149.595397 
L 1112.677348 149.595397 
z
" clip-path="url(#p4d1d0bb948)" style="fill: #ffd700; opacity: 0.7"/>
   </g>
   <g id="patch_114">
    <path d="M 1119.589272 652.693736 
L 1129.957157 652.693736 
L 1129.957157 156.061883 
L 1119.589272 156.061883 
z
" clip-path="url(#p4d1d0bb948)" style="fill: #ffd700; opacity: 0.7"/>
   </g>
   <g id="patch_115">
    <path d="M 1140.325043 652.693736 
L 1150.692928 652.693736 
L 1150.692928 162.182475 
L 1140.325043 162.182475 
z
" clip-path="url(#p4d1d0bb948)" style="fill: #ffd700; opacity: 0.7"/>
   </g>
   <g id="patch_116">
    <path d="M 1147.236967 652.693736 
L 1157.604852 652.693736 
L 1157.604852 154.200207 
L 1147.236967 154.200207 
z
" clip-path="url(#p4d1d0bb948)" style="fill: #ffd700; opacity: 0.7"/>
   </g>
   <g id="patch_117">
    <path d="M 1154.14889 652.693736 
L 1164.516776 652.693736 
L 1164.516776 154.683792 
L 1154.14889 154.683792 
z
" clip-path="url(#p4d1d0bb948)" style="fill: #ffd700; opacity: 0.7"/>
   </g>
   <g id="patch_118">
    <path d="M 1161.060814 652.693736 
L 1171.4287 652.693736 
L 1171.4287 160.746504 
L 1161.060814 160.746504 
z
" clip-path="url(#p4d1d0bb948)" style="fill: #ffd700; opacity: 0.7"/>
   </g>
   <g id="patch_119">
    <path d="M 1167.972738 652.693736 
L 1178.340624 652.693736 
L 1178.340624 160.405676 
L 1167.972738 160.405676 
z
" clip-path="url(#p4d1d0bb948)" style="fill: #ffd700; opacity: 0.7"/>
   </g>
   <g id="patch_120">
    <path d="M 1188.708509 652.693736 
L 1199.076395 652.693736 
L 1199.076395 147.436756 
L 1188.708509 147.436756 
z
" clip-path="url(#p4d1d0bb948)" style="fill: #ffd700; opacity: 0.7"/>
   </g>
   <g id="patch_121">
    <path d="M 1195.620433 652.693736 
L 1205.988319 652.693736 
L 1205.988319 159.749562 
L 1195.620433 159.749562 
z
" clip-path="url(#p4d1d0bb948)" style="fill: #ffd700; opacity: 0.7"/>
   </g>
   <g id="patch_122">
    <path d="M 1202.532357 652.693736 
L 1212.900242 652.693736 
L 1212.900242 159.676413 
L 1202.532357 159.676413 
z
" clip-path="url(#p4d1d0bb948)" style="fill: #ffd700; opacity: 0.7"/>
   </g>
   <g id="patch_123">
    <path d="M 1216.356204 652.693736 
L 1226.72409 652.693736 
L 1226.72409 162.52698 
L 1216.356204 162.52698 
z
" clip-path="url(#p4d1d0bb948)" style="fill: #ffd700; opacity: 0.7"/>
   </g>
   <g id="patch_124">
    <path d="M 1237.091976 652.693736 
L 1247.459861 652.693736 
L 1247.459861 168.660619 
L 1237.091976 168.660619 
z
" clip-path="url(#p4d1d0bb948)" style="fill: #ffd700; opacity: 0.7"/>
   </g>
   <g id="patch_125">
    <path d="M 1244.003899 652.693736 
L 1254.371785 652.693736 
L 1254.371785 168.557837 
L 1244.003899 168.557837 
z
" clip-path="url(#p4d1d0bb948)" style="fill: #ffd700; opacity: 0.7"/>
   </g>
   <g id="patch_126">
    <path d="M 1250.915823 652.693736 
L 1261.283709 652.693736 
L 1261.283709 169.461227 
L 1250.915823 169.461227 
z
" clip-path="url(#p4d1d0bb948)" style="fill: #ffd700; opacity: 0.7"/>
   </g>
   <g id="patch_127">
    <path d="M 1264.739671 652.693736 
L 1275.107556 652.693736 
L 1275.107556 171.339072 
L 1264.739671 171.339072 
z
" clip-path="url(#p4d1d0bb948)" style="fill: #ffd700; opacity: 0.7"/>
   </g>
   <g id="patch_128">
    <path d="M 1285.475442 652.693736 
L 1295.843328 652.693736 
L 1295.843328 182.154626 
L 1285.475442 182.154626 
z
" clip-path="url(#p4d1d0bb948)" style="fill: #ffd700; opacity: 0.7"/>
   </g>
   <g id="patch_129">
    <path d="M 1292.387366 652.693736 
L 1302.755251 652.693736 
L 1302.755251 171.035236 
L 1292.387366 171.035236 
z
" clip-path="url(#p4d1d0bb948)" style="fill: #ffd700; opacity: 0.7"/>
   </g>
   <g id="patch_130">
    <path d="M 1299.29929 652.693736 
L 1309.667175 652.693736 
L 1309.667175 163.671954 
L 1299.29929 163.671954 
z
" clip-path="url(#p4d1d0bb948)" style="fill: #ffd700; opacity: 0.7"/>
   </g>
   <g id="patch_131">
    <path d="M 1306.211213 652.693736 
L 1316.579099 652.693736 
L 1316.579099 181.737389 
L 1306.211213 181.737389 
z
" clip-path="url(#p4d1d0bb948)" style="fill: #ffd700; opacity: 0.7"/>
   </g>
   <g id="patch_132">
    <path d="M 1313.123137 652.693736 
L 1323.491023 652.693736 
L 1323.491023 187.257525 
L 1313.123137 187.257525 
z
" clip-path="url(#p4d1d0bb948)" style="fill: #ffd700; opacity: 0.7"/>
   </g>
   <g id="text_51">
    <!-- 奕力-KY (6962): 融資餘額與股價分析 -->
    <g transform="translate(627.005859 17.077969) scale(0.13 -0.13)">
     <defs>
      <path id="DejaVuSans-Bold-5955" d="M 319 -1131 
L 319 4513 
L 3519 4513 
L 3519 -1131 
L 319 -1131 
z
M 678 -775 
L 3163 -775 
L 3163 4153 
L 678 4153 
L 678 -775 
z
" transform="scale(0.015625)"/>
      <path id="DejaVuSans-Bold-529b" d="M 319 -1131 
L 319 4513 
L 3519 4513 
L 3519 -1131 
L 319 -1131 
z
M 678 -775 
L 3163 -775 
L 3163 4153 
L 678 4153 
L 678 -775 
z
" transform="scale(0.015625)"/>
      <path id="DejaVuSans-Bold-2d" d="M 347 2297 
L 2309 2297 
L 2309 1388 
L 347 1388 
L 347 2297 
z
" transform="scale(0.015625)"/>
      <path id="DejaVuSans-Bold-4b" d="M 588 4666 
L 1791 4666 
L 1791 2963 
L 3525 4666 
L 4922 4666 
L 2675 2456 
L 5153 0 
L 3647 0 
L 1791 1838 
L 1791 0 
L 588 0 
L 588 4666 
z
" transform="scale(0.015625)"/>
      <path id="DejaVuSans-Bold-59" d="M -63 4666 
L 1253 4666 
L 2316 3003 
L 3378 4666 
L 4697 4666 
L 2919 1966 
L 2919 0 
L 1716 0 
L 1716 1966 
L -63 4666 
z
" transform="scale(0.015625)"/>
      <path id="DejaVuSans-Bold-36" d="M 2316 2303 
Q 2000 2303 1842 2098 
Q 1684 1894 1684 1484 
Q 1684 1075 1842 870 
Q 2000 666 2316 666 
Q 2634 666 2792 870 
Q 2950 1075 2950 1484 
Q 2950 1894 2792 2098 
Q 2634 2303 2316 2303 
z
M 3803 4544 
L 3803 3681 
Q 3506 3822 3243 3889 
Q 2981 3956 2731 3956 
Q 2194 3956 1894 3657 
Q 1594 3359 1544 2772 
Q 1750 2925 1990 3001 
Q 2231 3078 2516 3078 
Q 3231 3078 3670 2659 
Q 4109 2241 4109 1563 
Q 4109 813 3618 361 
Q 3128 -91 2303 -91 
Q 1394 -91 895 523 
Q 397 1138 397 2266 
Q 397 3422 980 4083 
Q 1563 4744 2578 4744 
Q 2900 4744 3203 4694 
Q 3506 4644 3803 4544 
z
" transform="scale(0.015625)"/>
      <path id="DejaVuSans-Bold-39" d="M 641 103 
L 641 966 
Q 928 831 1190 764 
Q 1453 697 1709 697 
Q 2247 697 2547 995 
Q 2847 1294 2900 1881 
Q 2688 1725 2447 1647 
Q 2206 1569 1925 1569 
Q 1209 1569 770 1986 
Q 331 2403 331 3084 
Q 331 3838 820 4291 
Q 1309 4744 2131 4744 
Q 3044 4744 3544 4128 
Q 4044 3513 4044 2388 
Q 4044 1231 3459 570 
Q 2875 -91 1856 -91 
Q 1528 -91 1228 -42 
Q 928 6 641 103 
z
M 2125 2350 
Q 2441 2350 2600 2554 
Q 2759 2759 2759 3169 
Q 2759 3575 2600 3781 
Q 2441 3988 2125 3988 
Q 1809 3988 1650 3781 
Q 1491 3575 1491 3169 
Q 1491 2759 1650 2554 
Q 1809 2350 2125 2350 
z
" transform="scale(0.015625)"/>
      <path id="DejaVuSans-Bold-32" d="M 1844 884 
L 3897 884 
L 3897 0 
L 506 0 
L 506 884 
L 2209 2388 
Q 2438 2594 2547 2791 
Q 2656 2988 2656 3200 
Q 2656 3528 2436 3728 
Q 2216 3928 1850 3928 
Q 1569 3928 1234 3808 
Q 900 3688 519 3450 
L 519 4475 
Q 925 4609 1322 4679 
Q 1719 4750 2100 4750 
Q 2938 4750 3402 4381 
Q 3866 4013 3866 3353 
Q 3866 2972 3669 2642 
Q 3472 2313 2841 1759 
L 1844 884 
z
" transform="scale(0.015625)"/>
      <path id="DejaVuSans-Bold-3a" d="M 716 3500 
L 1844 3500 
L 1844 2291 
L 716 2291 
L 716 3500 
z
M 716 1209 
L 1844 1209 
L 1844 0 
L 716 0 
L 716 1209 
z
" transform="scale(0.015625)"/>
      <path id="DejaVuSans-Bold-8207" d="M 319 -1131 
L 319 4513 
L 3519 4513 
L 3519 -1131 
L 319 -1131 
z
M 678 -775 
L 3163 -775 
L 3163 4153 
L 678 4153 
L 678 -775 
z
" transform="scale(0.015625)"/>
      <path id="DejaVuSans-Bold-80a1" d="M 319 -1131 
L 319 4513 
L 3519 4513 
L 3519 -1131 
L 319 -1131 
z
M 678 -775 
L 3163 -775 
L 3163 4153 
L 678 4153 
L 678 -775 
z
" transform="scale(0.015625)"/>
      <path id="DejaVuSans-Bold-5206" d="M 319 -1131 
L 319 4513 
L 3519 4513 
L 3519 -1131 
L 319 -1131 
z
M 678 -775 
L 3163 -775 
L 3163 4153 
L 678 4153 
L 678 -775 
z
" transform="scale(0.015625)"/>
      <path id="DejaVuSans-Bold-6790" d="M 319 -1131 
L 319 4513 
L 3519 4513 
L 3519 -1131 
L 319 -1131 
z
M 678 -775 
L 3163 -775 
L 3163 4153 
L 678 4153 
L 678 -775 
z
" transform="scale(0.015625)"/>
     </defs>
     <use xlink:href="#DejaVuSans-Bold-5955"/>
     <use xlink:href="#DejaVuSans-Bold-529b" x="60.009766"/>
     <use xlink:href="#DejaVuSans-Bold-2d" x="120.019531"/>
     <use xlink:href="#DejaVuSans-Bold-4b" x="161.523438"/>
     <use xlink:href="#DejaVuSans-Bold-59" x="239.013672"/>
     <use xlink:href="#DejaVuSans-Bold-20" x="311.425781"/>
     <use xlink:href="#DejaVuSans-Bold-28" x="346.240234"/>
     <use xlink:href="#DejaVuSans-Bold-36" x="391.943359"/>
     <use xlink:href="#DejaVuSans-Bold-39" x="461.523438"/>
     <use xlink:href="#DejaVuSans-Bold-36" x="531.103516"/>
     <use xlink:href="#DejaVuSans-Bold-32" x="600.683594"/>
     <use xlink:href="#DejaVuSans-Bold-29" x="670.263672"/>
     <use xlink:href="#DejaVuSans-Bold-3a" x="715.966797"/>
     <use xlink:href="#DejaVuSans-Bold-20" x="755.957031"/>
     <use xlink:href="#DejaVuSans-Bold-878d" x="790.771484"/>
     <use xlink:href="#DejaVuSans-Bold-8cc7" x="850.78125"/>
     <use xlink:href="#DejaVuSans-Bold-9918" x="910.791016"/>
     <use xlink:href="#DejaVuSans-Bold-984d" x="970.800781"/>
     <use xlink:href="#DejaVuSans-Bold-8207" x="1030.810547"/>
     <use xlink:href="#DejaVuSans-Bold-80a1" x="1090.820312"/>
     <use xlink:href="#DejaVuSans-Bold-50f9" x="1150.830078"/>
     <use xlink:href="#DejaVuSans-Bold-5206" x="1210.839844"/>
     <use xlink:href="#DejaVuSans-Bold-6790" x="1270.849609"/>
    </g>
    <!-- (最近 120 個交易日, 2025-07-18 ~ 2026-01-09) -->
    <g transform="translate(568.217422 31.635125) scale(0.13 -0.13)">
     <defs>
      <path id="DejaVuSans-Bold-6700" d="M 319 -1131 
L 319 4513 
L 3519 4513 
L 3519 -1131 
L 319 -1131 
z
M 678 -775 
L 3163 -775 
L 3163 4153 
L 678 4153 
L 678 -775 
z
" transform="scale(0.015625)"/>
      <path id="DejaVuSans-Bold-8fd1" d="M 319 -1131 
L 319 4513 
L 3519 4513 
L 3519 -1131 
L 319 -1131 
z
M 678 -775 
L 3163 -775 
L 3163 4153 
L 678 4153 
L 678 -775 
z
" transform="scale(0.015625)"/>
      <path id="DejaVuSans-Bold-31" d="M 750 831 
L 1813 831 
L 1813 3847 
L 722 3622 
L 722 4441 
L 1806 4666 
L 2950 4666 
L 2950 831 
L 4013 831 
L 4013 0 
L 750 0 
L 750 831 
z
" transform="scale(0.015625)"/>
      <path id="DejaVuSans-Bold-30" d="M 2944 2338 
Q 2944 3213 2780 3570 
Q 2616 3928 2228 3928 
Q 1841 3928 1675 3570 
Q 1509 3213 1509 2338 
Q 1509 1453 1675 1090 
Q 1841 728 2228 728 
Q 2613 728 2778 1090 
Q 2944 1453 2944 2338 
z
M 4147 2328 
Q 4147 1169 3647 539 
Q 3147 -91 2228 -91 
Q 1306 -91 806 539 
Q 306 1169 306 2328 
Q 306 3491 806 4120 
Q 1306 4750 2228 4750 
Q 3147 4750 3647 4120 
Q 4147 3491 4147 2328 
z
" transform="scale(0.015625)"/>
      <path id="DejaVuSans-Bold-500b" d="M 319 -1131 
L 319 4513 
L 3519 4513 
L 3519 -1131 
L 319 -1131 
z
M 678 -775 
L 3163 -775 
L 3163 4153 
L 678 4153 
L 678 -775 
z
" transform="scale(0.015625)"/>
      <path id="DejaVuSans-Bold-4ea4" d="M 319 -1131 
L 319 4513 
L 3519 4513 
L 3519 -1131 
L 319 -1131 
z
M 678 -775 
L 3163 -775 
L 3163 4153 
L 678 4153 
L 678 -775 
z
" transform="scale(0.015625)"/>
      <path id="DejaVuSans-Bold-6613" d="M 319 -1131 
L 319 4513 
L 3519 4513 
L 3519 -1131 
L 319 -1131 
z
M 678 -775 
L 3163 -775 
L 3163 4153 
L 678 4153 
L 678 -775 
z
" transform="scale(0.015625)"/>
      <path id="DejaVuSans-Bold-2c" d="M 653 1209 
L 1778 1209 
L 1778 256 
L 1006 -909 
L 341 -909 
L 653 256 
L 653 1209 
z
" transform="scale(0.015625)"/>
      <path id="DejaVuSans-Bold-35" d="M 678 4666 
L 3669 4666 
L 3669 3781 
L 1638 3781 
L 1638 3059 
Q 1775 3097 1914 3117 
Q 2053 3138 2203 3138 
Q 3056 3138 3531 2711 
Q 4006 2284 4006 1522 
Q 4006 766 3489 337 
Q 2972 -91 2053 -91 
Q 1656 -91 1267 -14 
Q 878 63 494 219 
L 494 1166 
Q 875 947 1217 837 
Q 1559 728 1863 728 
Q 2300 728 2551 942 
Q 2803 1156 2803 1522 
Q 2803 1891 2551 2103 
Q 2300 2316 1863 2316 
Q 1603 2316 1309 2248 
Q 1016 2181 678 2041 
L 678 4666 
z
" transform="scale(0.015625)"/>
      <path id="DejaVuSans-Bold-37" d="M 428 4666 
L 3944 4666 
L 3944 3988 
L 2125 0 
L 953 0 
L 2675 3781 
L 428 3781 
L 428 4666 
z
" transform="scale(0.015625)"/>
      <path id="DejaVuSans-Bold-38" d="M 2228 2088 
Q 1891 2088 1709 1903 
Q 1528 1719 1528 1375 
Q 1528 1031 1709 848 
Q 1891 666 2228 666 
Q 2563 666 2741 848 
Q 2919 1031 2919 1375 
Q 2919 1722 2741 1905 
Q 2563 2088 2228 2088 
z
M 1350 2484 
Q 925 2613 709 2878 
Q 494 3144 494 3541 
Q 494 4131 934 4440 
Q 1375 4750 2228 4750 
Q 3075 4750 3515 4442 
Q 3956 4134 3956 3541 
Q 3956 3144 3739 2878 
Q 3522 2613 3097 2484 
Q 3572 2353 3814 2058 
Q 4056 1763 4056 1313 
Q 4056 619 3595 264 
Q 3134 -91 2228 -91 
Q 1319 -91 855 264 
Q 391 619 391 1313 
Q 391 1763 633 2058 
Q 875 2353 1350 2484 
z
M 1631 3419 
Q 1631 3141 1786 2991 
Q 1941 2841 2228 2841 
Q 2509 2841 2662 2991 
Q 2816 3141 2816 3419 
Q 2816 3697 2662 3845 
Q 2509 3994 2228 3994 
Q 1941 3994 1786 3844 
Q 1631 3694 1631 3419 
z
" transform="scale(0.015625)"/>
      <path id="DejaVuSans-Bold-7e" d="M 4684 2656 
L 4684 1894 
Q 4353 1644 4073 1536 
Q 3794 1428 3494 1428 
Q 3159 1428 2713 1609 
Q 2669 1628 2644 1638 
Q 2622 1647 2575 1666 
Q 2091 1856 1797 1856 
Q 1522 1856 1253 1736 
Q 984 1616 678 1356 
L 678 2119 
Q 1013 2369 1291 2476 
Q 1569 2584 1869 2584 
Q 2203 2584 2650 2403 
Q 2697 2384 2719 2375 
Q 2741 2366 2788 2347 
Q 3272 2156 3566 2156 
Q 3834 2156 4098 2273 
Q 4363 2391 4684 2656 
z
" transform="scale(0.015625)"/>
     </defs>
     <use xlink:href="#DejaVuSans-Bold-28"/>
     <use xlink:href="#DejaVuSans-Bold-6700" x="45.703125"/>
     <use xlink:href="#DejaVuSans-Bold-8fd1" x="105.712891"/>
     <use xlink:href="#DejaVuSans-Bold-20" x="165.722656"/>
     <use xlink:href="#DejaVuSans-Bold-31" x="200.537109"/>
     <use xlink:href="#DejaVuSans-Bold-32" x="270.117188"/>
     <use xlink:href="#DejaVuSans-Bold-30" x="339.697266"/>
     <use xlink:href="#DejaVuSans-Bold-20" x="409.277344"/>
     <use xlink:href="#DejaVuSans-Bold-500b" x="444.091797"/>
     <use xlink:href="#DejaVuSans-Bold-4ea4" x="504.101562"/>
     <use xlink:href="#DejaVuSans-Bold-6613" x="564.111328"/>
     <use xlink:href="#DejaVuSans-Bold-65e5" x="624.121094"/>
     <use xlink:href="#DejaVuSans-Bold-2c" x="684.130859"/>
     <use xlink:href="#DejaVuSans-Bold-20" x="722.119141"/>
     <use xlink:href="#DejaVuSans-Bold-32" x="756.933594"/>
     <use xlink:href="#DejaVuSans-Bold-30" x="826.513672"/>
     <use xlink:href="#DejaVuSans-Bold-32" x="896.09375"/>
     <use xlink:href="#DejaVuSans-Bold-35" x="965.673828"/>
     <use xlink:href="#DejaVuSans-Bold-2d" x="1035.253906"/>
     <use xlink:href="#DejaVuSans-Bold-30" x="1076.757812"/>
     <use xlink:href="#DejaVuSans-Bold-37" x="1146.337891"/>
     <use xlink:href="#DejaVuSans-Bold-2d" x="1215.917969"/>
     <use xlink:href="#DejaVuSans-Bold-31" x="1257.421875"/>
     <use xlink:href="#DejaVuSans-Bold-38" x="1327.001953"/>
     <use xlink:href="#DejaVuSans-Bold-20" x="1396.582031"/>
     <use xlink:href="#DejaVuSans-Bold-7e" x="1431.396484"/>
     <use xlink:href="#DejaVuSans-Bold-20" x="1515.185547"/>
     <use xlink:href="#DejaVuSans-Bold-32" x="1550"/>
     <use xlink:href="#DejaVuSans-Bold-30" x="1619.580078"/>
     <use xlink:href="#DejaVuSans-Bold-32" x="1689.160156"/>
     <use xlink:href="#DejaVuSans-Bold-36" x="1758.740234"/>
     <use xlink:href="#DejaVuSans-Bold-2d" x="1828.320312"/>
     <use xlink:href="#DejaVuSans-Bold-30" x="1869.824219"/>
     <use xlink:href="#DejaVuSans-Bold-31" x="1939.404297"/>
     <use xlink:href="#DejaVuSans-Bold-2d" x="2008.984375"/>
     <use xlink:href="#DejaVuSans-Bold-30" x="2050.488281"/>
     <use xlink:href="#DejaVuSans-Bold-39" x="2120.068359"/>
     <use xlink:href="#DejaVuSans-Bold-29" x="2189.648438"/>
    </g>
    <!--  -->
    <g transform="translate(713.51375 46.192281) scale(0.13 -0.13)"/>
    <!-- 最新融資餘額: 3.4 億元 | 最新收盤價: 37.50 元 | 歷史區間: 1.5~3.9 億元 | 平均: 2.8 億元 -->
    <g transform="translate(498.627813 60.817687) scale(0.13 -0.13)">
     <defs>
      <path id="DejaVuSans-Bold-65b0" d="M 319 -1131 
L 319 4513 
L 3519 4513 
L 3519 -1131 
L 319 -1131 
z
M 678 -775 
L 3163 -775 
L 3163 4153 
L 678 4153 
L 678 -775 
z
" transform="scale(0.015625)"/>
      <path id="DejaVuSans-Bold-33" d="M 2981 2516 
Q 3453 2394 3698 2092 
Q 3944 1791 3944 1325 
Q 3944 631 3412 270 
Q 2881 -91 1863 -91 
Q 1503 -91 1142 -33 
Q 781 25 428 141 
L 428 1069 
Q 766 900 1098 814 
Q 1431 728 1753 728 
Q 2231 728 2486 893 
Q 2741 1059 2741 1369 
Q 2741 1688 2480 1852 
Q 2219 2016 1709 2016 
L 1228 2016 
L 1228 2791 
L 1734 2791 
Q 2188 2791 2409 2933 
Q 2631 3075 2631 3366 
Q 2631 3634 2415 3781 
Q 2200 3928 1806 3928 
Q 1516 3928 1219 3862 
Q 922 3797 628 3669 
L 628 4550 
Q 984 4650 1334 4700 
Q 1684 4750 2022 4750 
Q 2931 4750 3382 4451 
Q 3834 4153 3834 3553 
Q 3834 3144 3618 2883 
Q 3403 2622 2981 2516 
z
" transform="scale(0.015625)"/>
      <path id="DejaVuSans-Bold-2e" d="M 653 1209 
L 1778 1209 
L 1778 0 
L 653 0 
L 653 1209 
z
" transform="scale(0.015625)"/>
      <path id="DejaVuSans-Bold-34" d="M 2356 3675 
L 1038 1722 
L 2356 1722 
L 2356 3675 
z
M 2156 4666 
L 3494 4666 
L 3494 1722 
L 4159 1722 
L 4159 850 
L 3494 850 
L 3494 0 
L 2356 0 
L 2356 850 
L 288 850 
L 288 1881 
L 2156 4666 
z
" transform="scale(0.015625)"/>
      <path id="DejaVuSans-Bold-7c" d="M 1522 4891 
L 1522 -1509 
L 813 -1509 
L 813 4891 
L 1522 4891 
z
" transform="scale(0.015625)"/>
      <path id="DejaVuSans-Bold-6b77" d="M 319 -1131 
L 319 4513 
L 3519 4513 
L 3519 -1131 
L 319 -1131 
z
M 678 -775 
L 3163 -775 
L 3163 4153 
L 678 4153 
L 678 -775 
z
" transform="scale(0.015625)"/>
      <path id="DejaVuSans-Bold-53f2" d="M 319 -1131 
L 319 4513 
L 3519 4513 
L 3519 -1131 
L 319 -1131 
z
M 678 -775 
L 3163 -775 
L 3163 4153 
L 678 4153 
L 678 -775 
z
" transform="scale(0.015625)"/>
      <path id="DejaVuSans-Bold-5340" d="M 319 -1131 
L 319 4513 
L 3519 4513 
L 3519 -1131 
L 319 -1131 
z
M 678 -775 
L 3163 -775 
L 3163 4153 
L 678 4153 
L 678 -775 
z
" transform="scale(0.015625)"/>
      <path id="DejaVuSans-Bold-9593" d="M 319 -1131 
L 319 4513 
L 3519 4513 
L 3519 -1131 
L 319 -1131 
z
M 678 -775 
L 3163 -775 
L 3163 4153 
L 678 4153 
L 678 -775 
z
" transform="scale(0.015625)"/>
      <path id="DejaVuSans-Bold-5e73" d="M 319 -1131 
L 319 4513 
L 3519 4513 
L 3519 -1131 
L 319 -1131 
z
M 678 -775 
L 3163 -775 
L 3163 4153 
L 678 4153 
L 678 -775 
z
" transform="scale(0.015625)"/>
      <path id="DejaVuSans-Bold-5747" d="M 319 -1131 
L 319 4513 
L 3519 4513 
L 3519 -1131 
L 319 -1131 
z
M 678 -775 
L 3163 -775 
L 3163 4153 
L 678 4153 
L 678 -775 
z
" transform="scale(0.015625)"/>
     </defs>
     <use xlink:href="#DejaVuSans-Bold-6700"/>
     <use xlink:href="#DejaVuSans-Bold-65b0" x="60.009766"/>
     <use xlink:href="#DejaVuSans-Bold-878d" x="120.019531"/>
     <use xlink:href="#DejaVuSans-Bold-8cc7" x="180.029297"/>
     <use xlink:href="#DejaVuSans-Bold-9918" x="240.039062"/>
     <use xlink:href="#DejaVuSans-Bold-984d" x="300.048828"/>
     <use xlink:href="#DejaVuSans-Bold-3a" x="360.058594"/>
     <use xlink:href="#DejaVuSans-Bold-20" x="400.048828"/>
     <use xlink:href="#DejaVuSans-Bold-33" x="434.863281"/>
     <use xlink:href="#DejaVuSans-Bold-2e" x="504.443359"/>
     <use xlink:href="#DejaVuSans-Bold-34" x="542.431641"/>
     <use xlink:href="#DejaVuSans-Bold-20" x="612.011719"/>
     <use xlink:href="#DejaVuSans-Bold-5104" x="646.826172"/>
     <use xlink:href="#DejaVuSans-Bold-5143" x="706.835938"/>
     <use xlink:href="#DejaVuSans-Bold-20" x="766.845703"/>
     <use xlink:href="#DejaVuSans-Bold-7c" x="801.660156"/>
     <use xlink:href="#DejaVuSans-Bold-20" x="838.183594"/>
     <use xlink:href="#DejaVuSans-Bold-6700" x="872.998047"/>
     <use xlink:href="#DejaVuSans-Bold-65b0" x="933.007812"/>
     <use xlink:href="#DejaVuSans-Bold-6536" x="993.017578"/>
     <use xlink:href="#DejaVuSans-Bold-76e4" x="1053.027344"/>
     <use xlink:href="#DejaVuSans-Bold-50f9" x="1113.037109"/>
     <use xlink:href="#DejaVuSans-Bold-3a" x="1173.046875"/>
     <use xlink:href="#DejaVuSans-Bold-20" x="1213.037109"/>
     <use xlink:href="#DejaVuSans-Bold-33" x="1247.851562"/>
     <use xlink:href="#DejaVuSans-Bold-37" x="1317.431641"/>
     <use xlink:href="#DejaVuSans-Bold-2e" x="1387.011719"/>
     <use xlink:href="#DejaVuSans-Bold-35" x="1425"/>
     <use xlink:href="#DejaVuSans-Bold-30" x="1494.580078"/>
     <use xlink:href="#DejaVuSans-Bold-20" x="1564.160156"/>
     <use xlink:href="#DejaVuSans-Bold-5143" x="1598.974609"/>
     <use xlink:href="#DejaVuSans-Bold-20" x="1658.984375"/>
     <use xlink:href="#DejaVuSans-Bold-7c" x="1693.798828"/>
     <use xlink:href="#DejaVuSans-Bold-20" x="1730.322266"/>
     <use xlink:href="#DejaVuSans-Bold-6b77" x="1765.136719"/>
     <use xlink:href="#DejaVuSans-Bold-53f2" x="1825.146484"/>
     <use xlink:href="#DejaVuSans-Bold-5340" x="1885.15625"/>
     <use xlink:href="#DejaVuSans-Bold-9593" x="1945.166016"/>
     <use xlink:href="#DejaVuSans-Bold-3a" x="2005.175781"/>
     <use xlink:href="#DejaVuSans-Bold-20" x="2045.166016"/>
     <use xlink:href="#DejaVuSans-Bold-31" x="2079.980469"/>
     <use xlink:href="#DejaVuSans-Bold-2e" x="2149.560547"/>
     <use xlink:href="#DejaVuSans-Bold-35" x="2187.548828"/>
     <use xlink:href="#DejaVuSans-Bold-7e" x="2257.128906"/>
     <use xlink:href="#DejaVuSans-Bold-33" x="2340.917969"/>
     <use xlink:href="#DejaVuSans-Bold-2e" x="2410.498047"/>
     <use xlink:href="#DejaVuSans-Bold-39" x="2448.486328"/>
     <use xlink:href="#DejaVuSans-Bold-20" x="2518.066406"/>
     <use xlink:href="#DejaVuSans-Bold-5104" x="2552.880859"/>
     <use xlink:href="#DejaVuSans-Bold-5143" x="2612.890625"/>
     <use xlink:href="#DejaVuSans-Bold-20" x="2672.900391"/>
     <use xlink:href="#DejaVuSans-Bold-7c" x="2707.714844"/>
     <use xlink:href="#DejaVuSans-Bold-20" x="2744.238281"/>
     <use xlink:href="#DejaVuSans-Bold-5e73" x="2779.052734"/>
     <use xlink:href="#DejaVuSans-Bold-5747" x="2839.0625"/>
     <use xlink:href="#DejaVuSans-Bold-3a" x="2899.072266"/>
     <use xlink:href="#DejaVuSans-Bold-20" x="2939.0625"/>
     <use xlink:href="#DejaVuSans-Bold-32" x="2973.876953"/>
     <use xlink:href="#DejaVuSans-Bold-2e" x="3043.457031"/>
     <use xlink:href="#DejaVuSans-Bold-38" x="3081.445312"/>
     <use xlink:href="#DejaVuSans-Bold-20" x="3151.025391"/>
     <use xlink:href="#DejaVuSans-Bold-5104" x="3185.839844"/>
     <use xlink:href="#DejaVuSans-Bold-5143" x="3245.849609"/>
    </g>
   </g>
  </g>
 </g>
 <defs>
  <clipPath id="p4d1d0bb948">
   <rect x="42.53875" y="80.817687" width="1341.95" height="571.876049"/>
  </clipPath>
 </defs>
</svg>
