<?xml version="1.0" encoding="utf-8" standalone="no"?>
<!DOCTYPE svg PUBLIC "-//W3C//DTD SVG 1.1//EN"
  "http://www.w3.org/Graphics/SVG/1.1/DTD/svg11.dtd">
<svg xmlns:xlink="http://www.w3.org/1999/xlink" width="1430.330625pt" height="710.4271pt" viewBox="0 0 1430.330625 710.4271" xmlns="http://www.w3.org/2000/svg" version="1.1">
 <metadata>
  <rdf:RDF xmlns:dc="http://purl.org/dc/elements/1.1/" xmlns:cc="http://creativecommons.org/ns#" xmlns:rdf="http://www.w3.org/1999/02/22-rdf-syntax-ns#">
   <cc:Work>
    <dc:type rdf:resource="http://purl.org/dc/dcmitype/StillImage"/>
    <dc:date>2026-01-13T11:58:14.862197</dc:date>
    <dc:format>image/svg+xml</dc:format>
    <dc:creator>
     <cc:Agent>
      <dc:title>Matplotlib v3.9.4, https://matplotlib.org/</dc:title>
     </cc:Agent>
    </dc:creator>
   </cc:Work>
  </rdf:RDF>
 </metadata>
 <defs>
  <style type="text/css">*{stroke-linejoin: round; stroke-linecap: butt}</style>
 </defs>
 <g id="figure_1">
  <g id="patch_1">
   <path d="M 0 710.4271 
L 1430.330625 710.4271 
L 1430.330625 0 
L 0 0 
z
" style="fill: #ffffff"/>
  </g>
  <g id="axes_1">
   <g id="patch_2">
    <path d="M 48.90125 644.224972 
L 1318.25125 644.224972 
L 1318.25125 96.234469 
L 48.90125 96.234469 
z
" style="fill: #ffffff"/>
   </g>
   <g id="matplotlib.axis_1">
    <g id="xtick_1">
     <g id="line2d_1">
      <defs>
       <path id="m0ae542ebeb" d="M 0 0 
L 0 3.5 
" style="stroke: #000000; stroke-width: 0.8"/>
      </defs>
      <g>
       <use xlink:href="#m0ae542ebeb" x="49.365307" y="644.224972" style="stroke: #000000; stroke-width: 0.8"/>
      </g>
     </g>
     <g id="text_1">
      <!-- 2025-07 -->
      <g transform="translate(18.349836 686.142789) rotate(-45) scale(0.1 -0.1)">
       <defs>
        <path id="DejaVuSans-32" d="M 1228 531 
L 3431 531 
L 3431 0 
L 469 0 
L 469 531 
Q 828 903 1448 1529 
Q 2069 2156 2228 2338 
Q 2531 2678 2651 2914 
Q 2772 3150 2772 3378 
Q 2772 3750 2511 3984 
Q 2250 4219 1831 4219 
Q 1534 4219 1204 4116 
Q 875 4013 500 3803 
L 500 4441 
Q 881 4594 1212 4672 
Q 1544 4750 1819 4750 
Q 2544 4750 2975 4387 
Q 3406 4025 3406 3419 
Q 3406 3131 3298 2873 
Q 3191 2616 2906 2266 
Q 2828 2175 2409 1742 
Q 1991 1309 1228 531 
z
" transform="scale(0.015625)"/>
        <path id="DejaVuSans-30" d="M 2034 4250 
Q 1547 4250 1301 3770 
Q 1056 3291 1056 2328 
Q 1056 1369 1301 889 
Q 1547 409 2034 409 
Q 2525 409 2770 889 
Q 3016 1369 3016 2328 
Q 3016 3291 2770 3770 
Q 2525 4250 2034 4250 
z
M 2034 4750 
Q 2819 4750 3233 4129 
Q 3647 3509 3647 2328 
Q 3647 1150 3233 529 
Q 2819 -91 2034 -91 
Q 1250 -91 836 529 
Q 422 1150 422 2328 
Q 422 3509 836 4129 
Q 1250 4750 2034 4750 
z
" transform="scale(0.015625)"/>
        <path id="DejaVuSans-35" d="M 691 4666 
L 3169 4666 
L 3169 4134 
L 1269 4134 
L 1269 2991 
Q 1406 3038 1543 3061 
Q 1681 3084 1819 3084 
Q 2600 3084 3056 2656 
Q 3513 2228 3513 1497 
Q 3513 744 3044 326 
Q 2575 -91 1722 -91 
Q 1428 -91 1123 -41 
Q 819 9 494 109 
L 494 744 
Q 775 591 1075 516 
Q 1375 441 1709 441 
Q 2250 441 2565 725 
Q 2881 1009 2881 1497 
Q 2881 1984 2565 2268 
Q 2250 2553 1709 2553 
Q 1456 2553 1204 2497 
Q 953 2441 691 2322 
L 691 4666 
z
" transform="scale(0.015625)"/>
        <path id="DejaVuSans-2d" d="M 313 2009 
L 1997 2009 
L 1997 1497 
L 313 1497 
L 313 2009 
z
" transform="scale(0.015625)"/>
        <path id="DejaVuSans-37" d="M 525 4666 
L 3525 4666 
L 3525 4397 
L 1831 0 
L 1172 0 
L 2766 4134 
L 525 4134 
L 525 4666 
z
" transform="scale(0.015625)"/>
       </defs>
       <use xlink:href="#DejaVuSans-32"/>
       <use xlink:href="#DejaVuSans-30" x="63.623047"/>
       <use xlink:href="#DejaVuSans-32" x="127.246094"/>
       <use xlink:href="#DejaVuSans-35" x="190.869141"/>
       <use xlink:href="#DejaVuSans-2d" x="254.492188"/>
       <use xlink:href="#DejaVuSans-30" x="290.576172"/>
       <use xlink:href="#DejaVuSans-37" x="354.199219"/>
      </g>
     </g>
    </g>
    <g id="xtick_2">
     <g id="line2d_2">
      <g>
       <use xlink:href="#m0ae542ebeb" x="241.175446" y="644.224972" style="stroke: #000000; stroke-width: 0.8"/>
      </g>
     </g>
     <g id="text_2">
      <!-- 2025-08 -->
      <g transform="translate(210.159975 686.142789) rotate(-45) scale(0.1 -0.1)">
       <defs>
        <path id="DejaVuSans-38" d="M 2034 2216 
Q 1584 2216 1326 1975 
Q 1069 1734 1069 1313 
Q 1069 891 1326 650 
Q 1584 409 2034 409 
Q 2484 409 2743 651 
Q 3003 894 3003 1313 
Q 3003 1734 2745 1975 
Q 2488 2216 2034 2216 
z
M 1403 2484 
Q 997 2584 770 2862 
Q 544 3141 544 3541 
Q 544 4100 942 4425 
Q 1341 4750 2034 4750 
Q 2731 4750 3128 4425 
Q 3525 4100 3525 3541 
Q 3525 3141 3298 2862 
Q 3072 2584 2669 2484 
Q 3125 2378 3379 2068 
Q 3634 1759 3634 1313 
Q 3634 634 3220 271 
Q 2806 -91 2034 -91 
Q 1263 -91 848 271 
Q 434 634 434 1313 
Q 434 1759 690 2068 
Q 947 2378 1403 2484 
z
M 1172 3481 
Q 1172 3119 1398 2916 
Q 1625 2713 2034 2713 
Q 2441 2713 2670 2916 
Q 2900 3119 2900 3481 
Q 2900 3844 2670 4047 
Q 2441 4250 2034 4250 
Q 1625 4250 1398 4047 
Q 1172 3844 1172 3481 
z
" transform="scale(0.015625)"/>
       </defs>
       <use xlink:href="#DejaVuSans-32"/>
       <use xlink:href="#DejaVuSans-30" x="63.623047"/>
       <use xlink:href="#DejaVuSans-32" x="127.246094"/>
       <use xlink:href="#DejaVuSans-35" x="190.869141"/>
       <use xlink:href="#DejaVuSans-2d" x="254.492188"/>
       <use xlink:href="#DejaVuSans-30" x="290.576172"/>
       <use xlink:href="#DejaVuSans-38" x="354.199219"/>
      </g>
     </g>
    </g>
    <g id="xtick_3">
     <g id="line2d_3">
      <g>
       <use xlink:href="#m0ae542ebeb" x="432.985585" y="644.224972" style="stroke: #000000; stroke-width: 0.8"/>
      </g>
     </g>
     <g id="text_3">
      <!-- 2025-09 -->
      <g transform="translate(401.970113 686.142789) rotate(-45) scale(0.1 -0.1)">
       <defs>
        <path id="DejaVuSans-39" d="M 703 97 
L 703 672 
Q 941 559 1184 500 
Q 1428 441 1663 441 
Q 2288 441 2617 861 
Q 2947 1281 2994 2138 
Q 2813 1869 2534 1725 
Q 2256 1581 1919 1581 
Q 1219 1581 811 2004 
Q 403 2428 403 3163 
Q 403 3881 828 4315 
Q 1253 4750 1959 4750 
Q 2769 4750 3195 4129 
Q 3622 3509 3622 2328 
Q 3622 1225 3098 567 
Q 2575 -91 1691 -91 
Q 1453 -91 1209 -44 
Q 966 3 703 97 
z
M 1959 2075 
Q 2384 2075 2632 2365 
Q 2881 2656 2881 3163 
Q 2881 3666 2632 3958 
Q 2384 4250 1959 4250 
Q 1534 4250 1286 3958 
Q 1038 3666 1038 3163 
Q 1038 2656 1286 2365 
Q 1534 2075 1959 2075 
z
" transform="scale(0.015625)"/>
       </defs>
       <use xlink:href="#DejaVuSans-32"/>
       <use xlink:href="#DejaVuSans-30" x="63.623047"/>
       <use xlink:href="#DejaVuSans-32" x="127.246094"/>
       <use xlink:href="#DejaVuSans-35" x="190.869141"/>
       <use xlink:href="#DejaVuSans-2d" x="254.492188"/>
       <use xlink:href="#DejaVuSans-30" x="290.576172"/>
       <use xlink:href="#DejaVuSans-39" x="354.199219"/>
      </g>
     </g>
    </g>
    <g id="xtick_4">
     <g id="line2d_4">
      <g>
       <use xlink:href="#m0ae542ebeb" x="618.6083" y="644.224972" style="stroke: #000000; stroke-width: 0.8"/>
      </g>
     </g>
     <g id="text_4">
      <!-- 2025-10 -->
      <g transform="translate(587.592829 686.142789) rotate(-45) scale(0.1 -0.1)">
       <defs>
        <path id="DejaVuSans-31" d="M 794 531 
L 1825 531 
L 1825 4091 
L 703 3866 
L 703 4441 
L 1819 4666 
L 2450 4666 
L 2450 531 
L 3481 531 
L 3481 0 
L 794 0 
L 794 531 
z
" transform="scale(0.015625)"/>
       </defs>
       <use xlink:href="#DejaVuSans-32"/>
       <use xlink:href="#DejaVuSans-30" x="63.623047"/>
       <use xlink:href="#DejaVuSans-32" x="127.246094"/>
       <use xlink:href="#DejaVuSans-35" x="190.869141"/>
       <use xlink:href="#DejaVuSans-2d" x="254.492188"/>
       <use xlink:href="#DejaVuSans-31" x="290.576172"/>
       <use xlink:href="#DejaVuSans-30" x="354.199219"/>
      </g>
     </g>
    </g>
    <g id="xtick_5">
     <g id="line2d_5">
      <g>
       <use xlink:href="#m0ae542ebeb" x="810.418439" y="644.224972" style="stroke: #000000; stroke-width: 0.8"/>
      </g>
     </g>
     <g id="text_5">
      <!-- 2025-11 -->
      <g transform="translate(779.402967 686.142789) rotate(-45) scale(0.1 -0.1)">
       <use xlink:href="#DejaVuSans-32"/>
       <use xlink:href="#DejaVuSans-30" x="63.623047"/>
       <use xlink:href="#DejaVuSans-32" x="127.246094"/>
       <use xlink:href="#DejaVuSans-35" x="190.869141"/>
       <use xlink:href="#DejaVuSans-2d" x="254.492188"/>
       <use xlink:href="#DejaVuSans-31" x="290.576172"/>
       <use xlink:href="#DejaVuSans-31" x="354.199219"/>
      </g>
     </g>
    </g>
    <g id="xtick_6">
     <g id="line2d_6">
      <g>
       <use xlink:href="#m0ae542ebeb" x="996.041154" y="644.224972" style="stroke: #000000; stroke-width: 0.8"/>
      </g>
     </g>
     <g id="text_6">
      <!-- 2025-12 -->
      <g transform="translate(965.025683 686.142789) rotate(-45) scale(0.1 -0.1)">
       <use xlink:href="#DejaVuSans-32"/>
       <use xlink:href="#DejaVuSans-30" x="63.623047"/>
       <use xlink:href="#DejaVuSans-32" x="127.246094"/>
       <use xlink:href="#DejaVuSans-35" x="190.869141"/>
       <use xlink:href="#DejaVuSans-2d" x="254.492188"/>
       <use xlink:href="#DejaVuSans-31" x="290.576172"/>
       <use xlink:href="#DejaVuSans-32" x="354.199219"/>
      </g>
     </g>
    </g>
    <g id="xtick_7">
     <g id="line2d_7">
      <g>
       <use xlink:href="#m0ae542ebeb" x="1187.851293" y="644.224972" style="stroke: #000000; stroke-width: 0.8"/>
      </g>
     </g>
     <g id="text_7">
      <!-- 2026-01 -->
      <g transform="translate(1156.835821 686.142789) rotate(-45) scale(0.1 -0.1)">
       <defs>
        <path id="DejaVuSans-36" d="M 2113 2584 
Q 1688 2584 1439 2293 
Q 1191 2003 1191 1497 
Q 1191 994 1439 701 
Q 1688 409 2113 409 
Q 2538 409 2786 701 
Q 3034 994 3034 1497 
Q 3034 2003 2786 2293 
Q 2538 2584 2113 2584 
z
M 3366 4563 
L 3366 3988 
Q 3128 4100 2886 4159 
Q 2644 4219 2406 4219 
Q 1781 4219 1451 3797 
Q 1122 3375 1075 2522 
Q 1259 2794 1537 2939 
Q 1816 3084 2150 3084 
Q 2853 3084 3261 2657 
Q 3669 2231 3669 1497 
Q 3669 778 3244 343 
Q 2819 -91 2113 -91 
Q 1303 -91 875 529 
Q 447 1150 447 2328 
Q 447 3434 972 4092 
Q 1497 4750 2381 4750 
Q 2619 4750 2861 4703 
Q 3103 4656 3366 4563 
z
" transform="scale(0.015625)"/>
       </defs>
       <use xlink:href="#DejaVuSans-32"/>
       <use xlink:href="#DejaVuSans-30" x="63.623047"/>
       <use xlink:href="#DejaVuSans-32" x="127.246094"/>
       <use xlink:href="#DejaVuSans-36" x="190.869141"/>
       <use xlink:href="#DejaVuSans-2d" x="254.492188"/>
       <use xlink:href="#DejaVuSans-30" x="290.576172"/>
       <use xlink:href="#DejaVuSans-31" x="354.199219"/>
      </g>
     </g>
    </g>
    <g id="text_8">
     <!-- 日期 -->
     <g transform="translate(676.374375 700.731475) scale(0.12 -0.12)">
      <defs>
       <path id="DejaVuSans-Bold-65e5" d="M 319 -1131 
L 319 4513 
L 3519 4513 
L 3519 -1131 
L 319 -1131 
z
M 678 -775 
L 3163 -775 
L 3163 4153 
L 678 4153 
L 678 -775 
z
" transform="scale(0.015625)"/>
       <path id="DejaVuSans-Bold-671f" d="M 319 -1131 
L 319 4513 
L 3519 4513 
L 3519 -1131 
L 319 -1131 
z
M 678 -775 
L 3163 -775 
L 3163 4153 
L 678 4153 
L 678 -775 
z
" transform="scale(0.015625)"/>
      </defs>
      <use xlink:href="#DejaVuSans-Bold-65e5"/>
      <use xlink:href="#DejaVuSans-Bold-671f" x="60.009766"/>
     </g>
    </g>
   </g>
   <g id="matplotlib.axis_2">
    <g id="ytick_1">
     <g id="line2d_8">
      <path d="M 48.90125 546.41292 
L 1318.25125 546.41292 
" clip-path="url(#p426aea5a5c)" style="fill: none; stroke-dasharray: 2.96,1.28; stroke-dashoffset: 0; stroke: #b0b0b0; stroke-opacity: 0.3; stroke-width: 0.8"/>
     </g>
     <g id="line2d_9">
      <defs>
       <path id="mca6f9c6568" d="M 0 0 
L -3.5 0 
" style="stroke: #000000; stroke-width: 0.8"/>
      </defs>
      <g>
       <use xlink:href="#mca6f9c6568" x="48.90125" y="546.41292" style="stroke: #000000; stroke-width: 0.8"/>
      </g>
     </g>
     <g id="text_9">
      <!-- 120 -->
      <g transform="translate(22.81375 550.212139) scale(0.1 -0.1)">
       <use xlink:href="#DejaVuSans-31"/>
       <use xlink:href="#DejaVuSans-32" x="63.623047"/>
       <use xlink:href="#DejaVuSans-30" x="127.246094"/>
      </g>
     </g>
    </g>
    <g id="ytick_2">
     <g id="line2d_10">
      <path d="M 48.90125 424.907265 
L 1318.25125 424.907265 
" clip-path="url(#p426aea5a5c)" style="fill: none; stroke-dasharray: 2.96,1.28; stroke-dashoffset: 0; stroke: #b0b0b0; stroke-opacity: 0.3; stroke-width: 0.8"/>
     </g>
     <g id="line2d_11">
      <g>
       <use xlink:href="#mca6f9c6568" x="48.90125" y="424.907265" style="stroke: #000000; stroke-width: 0.8"/>
      </g>
     </g>
     <g id="text_10">
      <!-- 130 -->
      <g transform="translate(22.81375 428.706484) scale(0.1 -0.1)">
       <defs>
        <path id="DejaVuSans-33" d="M 2597 2516 
Q 3050 2419 3304 2112 
Q 3559 1806 3559 1356 
Q 3559 666 3084 287 
Q 2609 -91 1734 -91 
Q 1441 -91 1130 -33 
Q 819 25 488 141 
L 488 750 
Q 750 597 1062 519 
Q 1375 441 1716 441 
Q 2309 441 2620 675 
Q 2931 909 2931 1356 
Q 2931 1769 2642 2001 
Q 2353 2234 1838 2234 
L 1294 2234 
L 1294 2753 
L 1863 2753 
Q 2328 2753 2575 2939 
Q 2822 3125 2822 3475 
Q 2822 3834 2567 4026 
Q 2313 4219 1838 4219 
Q 1578 4219 1281 4162 
Q 984 4106 628 3988 
L 628 4550 
Q 988 4650 1302 4700 
Q 1616 4750 1894 4750 
Q 2613 4750 3031 4423 
Q 3450 4097 3450 3541 
Q 3450 3153 3228 2886 
Q 3006 2619 2597 2516 
z
" transform="scale(0.015625)"/>
       </defs>
       <use xlink:href="#DejaVuSans-31"/>
       <use xlink:href="#DejaVuSans-33" x="63.623047"/>
       <use xlink:href="#DejaVuSans-30" x="127.246094"/>
      </g>
     </g>
    </g>
    <g id="ytick_3">
     <g id="line2d_12">
      <path d="M 48.90125 303.40161 
L 1318.25125 303.40161 
" clip-path="url(#p426aea5a5c)" style="fill: none; stroke-dasharray: 2.96,1.28; stroke-dashoffset: 0; stroke: #b0b0b0; stroke-opacity: 0.3; stroke-width: 0.8"/>
     </g>
     <g id="line2d_13">
      <g>
       <use xlink:href="#mca6f9c6568" x="48.90125" y="303.40161" style="stroke: #000000; stroke-width: 0.8"/>
      </g>
     </g>
     <g id="text_11">
      <!-- 140 -->
      <g transform="translate(22.81375 307.200829) scale(0.1 -0.1)">
       <defs>
        <path id="DejaVuSans-34" d="M 2419 4116 
L 825 1625 
L 2419 1625 
L 2419 4116 
z
M 2253 4666 
L 3047 4666 
L 3047 1625 
L 3713 1625 
L 3713 1100 
L 3047 1100 
L 3047 0 
L 2419 0 
L 2419 1100 
L 313 1100 
L 313 1709 
L 2253 4666 
z
" transform="scale(0.015625)"/>
       </defs>
       <use xlink:href="#DejaVuSans-31"/>
       <use xlink:href="#DejaVuSans-34" x="63.623047"/>
       <use xlink:href="#DejaVuSans-30" x="127.246094"/>
      </g>
     </g>
    </g>
    <g id="ytick_4">
     <g id="line2d_14">
      <path d="M 48.90125 181.895955 
L 1318.25125 181.895955 
" clip-path="url(#p426aea5a5c)" style="fill: none; stroke-dasharray: 2.96,1.28; stroke-dashoffset: 0; stroke: #b0b0b0; stroke-opacity: 0.3; stroke-width: 0.8"/>
     </g>
     <g id="line2d_15">
      <g>
       <use xlink:href="#mca6f9c6568" x="48.90125" y="181.895955" style="stroke: #000000; stroke-width: 0.8"/>
      </g>
     </g>
     <g id="text_12">
      <!-- 150 -->
      <g transform="translate(22.81375 185.695174) scale(0.1 -0.1)">
       <use xlink:href="#DejaVuSans-31"/>
       <use xlink:href="#DejaVuSans-35" x="63.623047"/>
       <use xlink:href="#DejaVuSans-30" x="127.246094"/>
      </g>
     </g>
    </g>
    <g id="text_13">
     <!-- 收盤價 (元) -->
     <g transform="translate(16.318125 392.206595) rotate(-90) scale(0.12 -0.12)">
      <defs>
       <path id="DejaVuSans-Bold-6536" d="M 319 -1131 
L 319 4513 
L 3519 4513 
L 3519 -1131 
L 319 -1131 
z
M 678 -775 
L 3163 -775 
L 3163 4153 
L 678 4153 
L 678 -775 
z
" transform="scale(0.015625)"/>
       <path id="DejaVuSans-Bold-76e4" d="M 319 -1131 
L 319 4513 
L 3519 4513 
L 3519 -1131 
L 319 -1131 
z
M 678 -775 
L 3163 -775 
L 3163 4153 
L 678 4153 
L 678 -775 
z
" transform="scale(0.015625)"/>
       <path id="DejaVuSans-Bold-50f9" d="M 319 -1131 
L 319 4513 
L 3519 4513 
L 3519 -1131 
L 319 -1131 
z
M 678 -775 
L 3163 -775 
L 3163 4153 
L 678 4153 
L 678 -775 
z
" transform="scale(0.015625)"/>
       <path id="DejaVuSans-Bold-20" transform="scale(0.015625)"/>
       <path id="DejaVuSans-Bold-28" d="M 2413 -844 
L 1484 -844 
Q 1006 -72 778 623 
Q 550 1319 550 2003 
Q 550 2688 779 3389 
Q 1009 4091 1484 4856 
L 2413 4856 
Q 2013 4116 1813 3408 
Q 1613 2700 1613 2009 
Q 1613 1319 1811 609 
Q 2009 -100 2413 -844 
z
" transform="scale(0.015625)"/>
       <path id="DejaVuSans-Bold-5143" d="M 319 -1131 
L 319 4513 
L 3519 4513 
L 3519 -1131 
L 319 -1131 
z
M 678 -775 
L 3163 -775 
L 3163 4153 
L 678 4153 
L 678 -775 
z
" transform="scale(0.015625)"/>
       <path id="DejaVuSans-Bold-29" d="M 513 -844 
Q 913 -100 1113 609 
Q 1313 1319 1313 2009 
Q 1313 2700 1113 3408 
Q 913 4116 513 4856 
L 1441 4856 
Q 1916 4091 2145 3389 
Q 2375 2688 2375 2003 
Q 2375 1319 2147 623 
Q 1919 -72 1441 -844 
L 513 -844 
z
" transform="scale(0.015625)"/>
      </defs>
      <use xlink:href="#DejaVuSans-Bold-6536"/>
      <use xlink:href="#DejaVuSans-Bold-76e4" x="60.009766"/>
      <use xlink:href="#DejaVuSans-Bold-50f9" x="120.019531"/>
      <use xlink:href="#DejaVuSans-Bold-20" x="180.029297"/>
      <use xlink:href="#DejaVuSans-Bold-28" x="214.84375"/>
      <use xlink:href="#DejaVuSans-Bold-5143" x="260.546875"/>
      <use xlink:href="#DejaVuSans-Bold-29" x="320.556641"/>
     </g>
    </g>
   </g>
   <g id="patch_3">
    <path d="M 48.90125 644.224972 
L 48.90125 96.234469 
" style="fill: none; stroke: #000000; stroke-width: 0.8; stroke-linejoin: miter; stroke-linecap: square"/>
   </g>
   <g id="patch_4">
    <path d="M 1318.25125 644.224972 
L 1318.25125 96.234469 
" style="fill: none; stroke: #000000; stroke-width: 0.8; stroke-linejoin: miter; stroke-linecap: square"/>
   </g>
   <g id="patch_5">
    <path d="M 48.90125 644.224972 
L 1318.25125 644.224972 
" style="fill: none; stroke: #000000; stroke-width: 0.8; stroke-linejoin: miter; stroke-linecap: square"/>
   </g>
   <g id="patch_6">
    <path d="M 48.90125 96.234469 
L 1318.25125 96.234469 
" style="fill: none; stroke: #000000; stroke-width: 0.8; stroke-linejoin: miter; stroke-linecap: square"/>
   </g>
   <g id="legend_1">
    <g id="patch_7">
     <path d="M 55.90125 148.268844 
L 156.074688 148.268844 
Q 158.074688 148.268844 158.074688 146.268844 
L 158.074688 103.234469 
Q 158.074688 101.234469 156.074688 101.234469 
L 55.90125 101.234469 
Q 53.90125 101.234469 53.90125 103.234469 
L 53.90125 146.268844 
Q 53.90125 148.268844 55.90125 148.268844 
z
" style="fill: #ffffff; opacity: 0.8; stroke: #cccccc; stroke-linejoin: miter"/>
    </g>
    <g id="line2d_16">
     <path d="M 57.90125 109.332906 
L 67.90125 109.332906 
L 77.90125 109.332906 
" style="fill: none; stroke: #000000; stroke-width: 2.5; stroke-linecap: square"/>
    </g>
    <g id="text_14">
     <!-- 昕奇雲端 收盤價 (長期) -->
     <g transform="translate(85.90125 112.832906) scale(0.1 -0.1)">
      <defs>
       <path id="DejaVuSans-6615" d="M 319 -1131 
L 319 4513 
L 3519 4513 
L 3519 -1131 
L 319 -1131 
z
M 678 -775 
L 3163 -775 
L 3163 4153 
L 678 4153 
L 678 -775 
z
" transform="scale(0.015625)"/>
       <path id="DejaVuSans-5947" d="M 319 -1131 
L 319 4513 
L 3519 4513 
L 3519 -1131 
L 319 -1131 
z
M 678 -775 
L 3163 -775 
L 3163 4153 
L 678 4153 
L 678 -775 
z
" transform="scale(0.015625)"/>
       <path id="DejaVuSans-96f2" d="M 319 -1131 
L 319 4513 
L 3519 4513 
L 3519 -1131 
L 319 -1131 
z
M 678 -775 
L 3163 -775 
L 3163 4153 
L 678 4153 
L 678 -775 
z
" transform="scale(0.015625)"/>
       <path id="DejaVuSans-7aef" d="M 319 -1131 
L 319 4513 
L 3519 4513 
L 3519 -1131 
L 319 -1131 
z
M 678 -775 
L 3163 -775 
L 3163 4153 
L 678 4153 
L 678 -775 
z
" transform="scale(0.015625)"/>
       <path id="DejaVuSans-20" transform="scale(0.015625)"/>
       <path id="DejaVuSans-6536" d="M 319 -1131 
L 319 4513 
L 3519 4513 
L 3519 -1131 
L 319 -1131 
z
M 678 -775 
L 3163 -775 
L 3163 4153 
L 678 4153 
L 678 -775 
z
" transform="scale(0.015625)"/>
       <path id="DejaVuSans-76e4" d="M 319 -1131 
L 319 4513 
L 3519 4513 
L 3519 -1131 
L 319 -1131 
z
M 678 -775 
L 3163 -775 
L 3163 4153 
L 678 4153 
L 678 -775 
z
" transform="scale(0.015625)"/>
       <path id="DejaVuSans-50f9" d="M 319 -1131 
L 319 4513 
L 3519 4513 
L 3519 -1131 
L 319 -1131 
z
M 678 -775 
L 3163 -775 
L 3163 4153 
L 678 4153 
L 678 -775 
z
" transform="scale(0.015625)"/>
       <path id="DejaVuSans-28" d="M 1984 4856 
Q 1566 4138 1362 3434 
Q 1159 2731 1159 2009 
Q 1159 1288 1364 580 
Q 1569 -128 1984 -844 
L 1484 -844 
Q 1016 -109 783 600 
Q 550 1309 550 2009 
Q 550 2706 781 3412 
Q 1013 4119 1484 4856 
L 1984 4856 
z
" transform="scale(0.015625)"/>
       <path id="DejaVuSans-9577" d="M 319 -1131 
L 319 4513 
L 3519 4513 
L 3519 -1131 
L 319 -1131 
z
M 678 -775 
L 3163 -775 
L 3163 4153 
L 678 4153 
L 678 -775 
z
" transform="scale(0.015625)"/>
       <path id="DejaVuSans-671f" d="M 319 -1131 
L 319 4513 
L 3519 4513 
L 3519 -1131 
L 319 -1131 
z
M 678 -775 
L 3163 -775 
L 3163 4153 
L 678 4153 
L 678 -775 
z
" transform="scale(0.015625)"/>
       <path id="DejaVuSans-29" d="M 513 4856 
L 1013 4856 
Q 1481 4119 1714 3412 
Q 1947 2706 1947 2009 
Q 1947 1309 1714 600 
Q 1481 -109 1013 -844 
L 513 -844 
Q 928 -128 1133 580 
Q 1338 1288 1338 2009 
Q 1338 2731 1133 3434 
Q 928 4138 513 4856 
z
" transform="scale(0.015625)"/>
      </defs>
      <use xlink:href="#DejaVuSans-6615"/>
      <use xlink:href="#DejaVuSans-5947" x="60.009766"/>
      <use xlink:href="#DejaVuSans-96f2" x="120.019531"/>
      <use xlink:href="#DejaVuSans-7aef" x="180.029297"/>
      <use xlink:href="#DejaVuSans-20" x="240.039062"/>
      <use xlink:href="#DejaVuSans-6536" x="271.826172"/>
      <use xlink:href="#DejaVuSans-76e4" x="331.835938"/>
      <use xlink:href="#DejaVuSans-50f9" x="391.845703"/>
      <use xlink:href="#DejaVuSans-20" x="451.855469"/>
      <use xlink:href="#DejaVuSans-28" x="483.642578"/>
      <use xlink:href="#DejaVuSans-9577" x="522.65625"/>
      <use xlink:href="#DejaVuSans-671f" x="582.666016"/>
      <use xlink:href="#DejaVuSans-29" x="642.675781"/>
     </g>
    </g>
    <g id="patch_8">
     <path d="M 57.90125 127.511031 
L 77.90125 127.511031 
L 77.90125 120.511031 
L 57.90125 120.511031 
z
" style="fill: #ffd700; opacity: 0.85"/>
    </g>
    <g id="text_15">
     <!-- 昕奇雲端 融資餘額 (日) -->
     <g transform="translate(85.90125 127.511031) scale(0.1 -0.1)">
      <defs>
       <path id="DejaVuSans-878d" d="M 319 -1131 
L 319 4513 
L 3519 4513 
L 3519 -1131 
L 319 -1131 
z
M 678 -775 
L 3163 -775 
L 3163 4153 
L 678 4153 
L 678 -775 
z
" transform="scale(0.015625)"/>
       <path id="DejaVuSans-8cc7" d="M 319 -1131 
L 319 4513 
L 3519 4513 
L 3519 -1131 
L 319 -1131 
z
M 678 -775 
L 3163 -775 
L 3163 4153 
L 678 4153 
L 678 -775 
z
" transform="scale(0.015625)"/>
       <path id="DejaVuSans-9918" d="M 319 -1131 
L 319 4513 
L 3519 4513 
L 3519 -1131 
L 319 -1131 
z
M 678 -775 
L 3163 -775 
L 3163 4153 
L 678 4153 
L 678 -775 
z
" transform="scale(0.015625)"/>
       <path id="DejaVuSans-984d" d="M 319 -1131 
L 319 4513 
L 3519 4513 
L 3519 -1131 
L 319 -1131 
z
M 678 -775 
L 3163 -775 
L 3163 4153 
L 678 4153 
L 678 -775 
z
" transform="scale(0.015625)"/>
       <path id="DejaVuSans-65e5" d="M 319 -1131 
L 319 4513 
L 3519 4513 
L 3519 -1131 
L 319 -1131 
z
M 678 -775 
L 3163 -775 
L 3163 4153 
L 678 4153 
L 678 -775 
z
" transform="scale(0.015625)"/>
      </defs>
      <use xlink:href="#DejaVuSans-6615"/>
      <use xlink:href="#DejaVuSans-5947" x="60.009766"/>
      <use xlink:href="#DejaVuSans-96f2" x="120.019531"/>
      <use xlink:href="#DejaVuSans-7aef" x="180.029297"/>
      <use xlink:href="#DejaVuSans-20" x="240.039062"/>
      <use xlink:href="#DejaVuSans-878d" x="271.826172"/>
      <use xlink:href="#DejaVuSans-8cc7" x="331.835938"/>
      <use xlink:href="#DejaVuSans-9918" x="391.845703"/>
      <use xlink:href="#DejaVuSans-984d" x="451.855469"/>
      <use xlink:href="#DejaVuSans-20" x="511.865234"/>
      <use xlink:href="#DejaVuSans-28" x="543.652344"/>
      <use xlink:href="#DejaVuSans-65e5" x="582.666016"/>
      <use xlink:href="#DejaVuSans-29" x="642.675781"/>
     </g>
    </g>
    <g id="line2d_17">
     <path d="M 57.90125 138.689156 
L 67.90125 138.689156 
L 77.90125 138.689156 
" style="fill: none; stroke: #ff0000; stroke-width: 2.5; stroke-linecap: square"/>
    </g>
    <g id="text_16">
     <!-- 融資餘額/市值 (長期) -->
     <g transform="translate(85.90125 142.189156) scale(0.1 -0.1)">
      <defs>
       <path id="DejaVuSans-2f" d="M 1625 4666 
L 2156 4666 
L 531 -594 
L 0 -594 
L 1625 4666 
z
" transform="scale(0.015625)"/>
       <path id="DejaVuSans-5e02" d="M 319 -1131 
L 319 4513 
L 3519 4513 
L 3519 -1131 
L 319 -1131 
z
M 678 -775 
L 3163 -775 
L 3163 4153 
L 678 4153 
L 678 -775 
z
" transform="scale(0.015625)"/>
       <path id="DejaVuSans-503c" d="M 319 -1131 
L 319 4513 
L 3519 4513 
L 3519 -1131 
L 319 -1131 
z
M 678 -775 
L 3163 -775 
L 3163 4153 
L 678 4153 
L 678 -775 
z
" transform="scale(0.015625)"/>
      </defs>
      <use xlink:href="#DejaVuSans-878d"/>
      <use xlink:href="#DejaVuSans-8cc7" x="60.009766"/>
      <use xlink:href="#DejaVuSans-9918" x="120.019531"/>
      <use xlink:href="#DejaVuSans-984d" x="180.029297"/>
      <use xlink:href="#DejaVuSans-2f" x="240.039062"/>
      <use xlink:href="#DejaVuSans-5e02" x="273.730469"/>
      <use xlink:href="#DejaVuSans-503c" x="333.740234"/>
      <use xlink:href="#DejaVuSans-20" x="393.75"/>
      <use xlink:href="#DejaVuSans-28" x="425.537109"/>
      <use xlink:href="#DejaVuSans-9577" x="464.550781"/>
      <use xlink:href="#DejaVuSans-671f" x="524.560547"/>
      <use xlink:href="#DejaVuSans-29" x="584.570312"/>
     </g>
    </g>
   </g>
   <g id="line2d_18">
    <path d="M 111.239545 121.143128 
L 129.801817 339.853307 
L 135.98924 345.928589 
L 142.176664 309.476893 
L 148.364088 321.627458 
L 154.551512 291.251045 
L 173.113784 358.079155 
L 179.301207 345.928589 
L 185.488631 376.305003 
L 191.676055 364.154438 
L 197.863479 364.154438 
L 216.42575 364.154438 
L 222.613174 315.552176 
L 228.800598 315.552176 
L 234.988022 303.40161 
L 241.175446 315.552176 
L 259.737717 327.702741 
L 265.925141 303.40161 
L 272.112565 327.702741 
L 278.299989 291.251045 
L 284.487413 309.476893 
L 303.049684 285.175762 
L 309.237108 333.778024 
L 315.424532 358.079155 
L 321.611956 382.380286 
L 327.799379 406.681417 
L 346.361651 376.305003 
L 352.549075 388.455569 
L 358.736499 400.606134 
L 364.923922 418.831982 
L 371.111346 400.606134 
L 389.673618 376.305003 
L 395.861042 364.154438 
L 402.048465 358.079155 
L 408.235889 339.853307 
L 414.423313 364.154438 
L 432.985585 364.154438 
L 439.173008 370.22972 
L 445.360432 394.530851 
L 451.547856 382.380286 
L 457.73528 358.079155 
L 476.297551 333.778024 
L 482.484975 370.22972 
L 488.672399 345.928589 
L 494.859823 345.928589 
L 501.047247 352.003872 
L 519.609518 364.154438 
L 525.796942 364.154438 
L 531.984366 321.627458 
L 538.17179 327.702741 
L 544.359214 321.627458 
L 562.921485 254.799348 
L 569.108909 248.724066 
L 575.296333 260.874631 
L 581.483757 266.949914 
L 587.671181 266.949914 
L 612.420876 303.40161 
L 618.6083 279.100479 
L 624.795724 260.874631 
L 630.983147 266.949914 
L 655.732843 279.100479 
L 661.920267 279.100479 
L 668.10769 309.476893 
L 692.857386 376.305003 
L 699.04481 303.40161 
L 705.232233 321.627458 
L 711.419657 309.476893 
L 717.607081 339.853307 
L 736.169353 364.154438 
L 742.356776 358.079155 
L 748.5442 364.154438 
L 754.731624 394.530851 
L 779.481319 382.380286 
L 785.668743 412.7567 
L 791.856167 400.606134 
L 798.043591 406.681417 
L 804.231015 449.208396 
L 822.793286 443.133113 
L 828.98071 388.455569 
L 835.168134 430.982548 
L 841.355558 430.982548 
L 847.542982 424.907265 
L 866.105253 437.057831 
L 872.292677 418.831982 
L 878.480101 449.208396 
L 884.667525 449.208396 
L 890.854949 437.057831 
L 909.41722 424.907265 
L 915.604644 467.434244 
L 921.792068 443.133113 
L 927.979492 430.982548 
L 934.166915 455.283679 
L 952.729187 449.208396 
L 958.916611 443.133113 
L 965.104035 461.358962 
L 971.291458 461.358962 
L 977.478882 455.283679 
L 996.041154 449.208396 
L 1002.228578 437.057831 
L 1008.416001 430.982548 
L 1014.603425 455.283679 
L 1020.790849 449.208396 
L 1039.353121 467.434244 
L 1045.540544 491.735375 
L 1051.727968 461.358962 
L 1057.915392 479.58481 
L 1064.102816 509.961223 
L 1082.665087 558.563485 
L 1088.852511 522.111789 
L 1095.039935 528.187072 
L 1101.227359 528.187072 
L 1107.414783 534.262354 
L 1125.977054 546.41292 
L 1132.164478 534.262354 
L 1138.351902 546.41292 
L 1150.72675 570.714051 
L 1169.289021 582.864616 
L 1175.476445 619.316313 
L 1181.663869 570.714051 
L 1194.038716 613.24103 
L 1212.600988 558.563485 
L 1218.788412 564.638768 
L 1224.975836 558.563485 
L 1231.16326 546.41292 
L 1237.350683 564.638768 
L 1255.912955 534.262354 
" clip-path="url(#p426aea5a5c)" style="fill: none; stroke: #000000; stroke-width: 2.5; stroke-linecap: square"/>
   </g>
  </g>
  <g id="axes_2">
   <g id="matplotlib.axis_3">
    <g id="ytick_5">
     <g id="line2d_19">
      <defs>
       <path id="me29cfaa669" d="M 0 0 
L 3.5 0 
" style="stroke: #000000; stroke-width: 0.8"/>
      </defs>
      <g>
       <use xlink:href="#me29cfaa669" x="1318.25125" y="644.224972" style="stroke: #000000; stroke-width: 0.8"/>
      </g>
     </g>
     <g id="text_17">
      <!-- 0 -->
      <g style="fill: #228b22" transform="translate(1325.25125 648.024191) scale(0.1 -0.1)">
       <use xlink:href="#DejaVuSans-30"/>
      </g>
     </g>
    </g>
    <g id="ytick_6">
     <g id="line2d_20">
      <g>
       <use xlink:href="#me29cfaa669" x="1318.25125" y="546.018789" style="stroke: #000000; stroke-width: 0.8"/>
      </g>
     </g>
     <g id="text_18">
      <!-- 2 -->
      <g style="fill: #228b22" transform="translate(1325.25125 549.818007) scale(0.1 -0.1)">
       <use xlink:href="#DejaVuSans-32"/>
      </g>
     </g>
    </g>
    <g id="ytick_7">
     <g id="line2d_21">
      <g>
       <use xlink:href="#me29cfaa669" x="1318.25125" y="447.812605" style="stroke: #000000; stroke-width: 0.8"/>
      </g>
     </g>
     <g id="text_19">
      <!-- 4 -->
      <g style="fill: #228b22" transform="translate(1325.25125 451.611824) scale(0.1 -0.1)">
       <use xlink:href="#DejaVuSans-34"/>
      </g>
     </g>
    </g>
    <g id="ytick_8">
     <g id="line2d_22">
      <g>
       <use xlink:href="#me29cfaa669" x="1318.25125" y="349.606422" style="stroke: #000000; stroke-width: 0.8"/>
      </g>
     </g>
     <g id="text_20">
      <!-- 6 -->
      <g style="fill: #228b22" transform="translate(1325.25125 353.405641) scale(0.1 -0.1)">
       <use xlink:href="#DejaVuSans-36"/>
      </g>
     </g>
    </g>
    <g id="ytick_9">
     <g id="line2d_23">
      <g>
       <use xlink:href="#me29cfaa669" x="1318.25125" y="251.400238" style="stroke: #000000; stroke-width: 0.8"/>
      </g>
     </g>
     <g id="text_21">
      <!-- 8 -->
      <g style="fill: #228b22" transform="translate(1325.25125 255.199457) scale(0.1 -0.1)">
       <use xlink:href="#DejaVuSans-38"/>
      </g>
     </g>
    </g>
    <g id="ytick_10">
     <g id="line2d_24">
      <g>
       <use xlink:href="#me29cfaa669" x="1318.25125" y="153.194055" style="stroke: #000000; stroke-width: 0.8"/>
      </g>
     </g>
     <g id="text_22">
      <!-- 10 -->
      <g style="fill: #228b22" transform="translate(1325.25125 156.993274) scale(0.1 -0.1)">
       <use xlink:href="#DejaVuSans-31"/>
       <use xlink:href="#DejaVuSans-30" x="63.623047"/>
      </g>
     </g>
    </g>
    <g id="text_23">
     <!-- 融資餘額 (億元) -->
     <g style="fill: #228b22" transform="translate(1351.094375 399.40847) rotate(-90) scale(0.12 -0.12)">
      <defs>
       <path id="DejaVuSans-Bold-878d" d="M 319 -1131 
L 319 4513 
L 3519 4513 
L 3519 -1131 
L 319 -1131 
z
M 678 -775 
L 3163 -775 
L 3163 4153 
L 678 4153 
L 678 -775 
z
" transform="scale(0.015625)"/>
       <path id="DejaVuSans-Bold-8cc7" d="M 319 -1131 
L 319 4513 
L 3519 4513 
L 3519 -1131 
L 319 -1131 
z
M 678 -775 
L 3163 -775 
L 3163 4153 
L 678 4153 
L 678 -775 
z
" transform="scale(0.015625)"/>
       <path id="DejaVuSans-Bold-9918" d="M 319 -1131 
L 319 4513 
L 3519 4513 
L 3519 -1131 
L 319 -1131 
z
M 678 -775 
L 3163 -775 
L 3163 4153 
L 678 4153 
L 678 -775 
z
" transform="scale(0.015625)"/>
       <path id="DejaVuSans-Bold-984d" d="M 319 -1131 
L 319 4513 
L 3519 4513 
L 3519 -1131 
L 319 -1131 
z
M 678 -775 
L 3163 -775 
L 3163 4153 
L 678 4153 
L 678 -775 
z
" transform="scale(0.015625)"/>
       <path id="DejaVuSans-Bold-5104" d="M 319 -1131 
L 319 4513 
L 3519 4513 
L 3519 -1131 
L 319 -1131 
z
M 678 -775 
L 3163 -775 
L 3163 4153 
L 678 4153 
L 678 -775 
z
" transform="scale(0.015625)"/>
      </defs>
      <use xlink:href="#DejaVuSans-Bold-878d"/>
      <use xlink:href="#DejaVuSans-Bold-8cc7" x="60.009766"/>
      <use xlink:href="#DejaVuSans-Bold-9918" x="120.019531"/>
      <use xlink:href="#DejaVuSans-Bold-984d" x="180.029297"/>
      <use xlink:href="#DejaVuSans-Bold-20" x="240.039062"/>
      <use xlink:href="#DejaVuSans-Bold-28" x="274.853516"/>
      <use xlink:href="#DejaVuSans-Bold-5104" x="320.556641"/>
      <use xlink:href="#DejaVuSans-Bold-5143" x="380.566406"/>
      <use xlink:href="#DejaVuSans-Bold-29" x="440.576172"/>
     </g>
    </g>
   </g>
   <g id="patch_9">
    <path d="M 48.90125 644.224972 
L 48.90125 96.234469 
" style="fill: none; stroke: #000000; stroke-width: 0.8; stroke-linejoin: miter; stroke-linecap: square"/>
   </g>
   <g id="patch_10">
    <path d="M 1318.25125 644.224972 
L 1318.25125 96.234469 
" style="fill: none; stroke: #000000; stroke-width: 0.8; stroke-linejoin: miter; stroke-linecap: square"/>
   </g>
   <g id="patch_11">
    <path d="M 48.90125 644.224972 
L 1318.25125 644.224972 
" style="fill: none; stroke: #000000; stroke-width: 0.8; stroke-linejoin: miter; stroke-linecap: square"/>
   </g>
   <g id="patch_12">
    <path d="M 48.90125 96.234469 
L 1318.25125 96.234469 
" style="fill: none; stroke: #000000; stroke-width: 0.8; stroke-linejoin: miter; stroke-linecap: square"/>
   </g>
   <g id="patch_13">
    <path d="M 106.598977 644.224972 
L 115.880113 644.224972 
L 115.880113 507.227346 
L 106.598977 507.227346 
z
" clip-path="url(#p426aea5a5c)" style="fill: #ffd700; opacity: 0.85"/>
   </g>
   <g id="patch_14">
    <path d="M 125.161249 644.224972 
L 134.442385 644.224972 
L 134.442385 598.413261 
L 125.161249 598.413261 
z
" clip-path="url(#p426aea5a5c)" style="fill: #ffd700; opacity: 0.85"/>
   </g>
   <g id="patch_15">
    <path d="M 131.348673 644.224972 
L 140.629808 644.224972 
L 140.629808 611.583446 
L 131.348673 611.583446 
z
" clip-path="url(#p426aea5a5c)" style="fill: #ffd700; opacity: 0.85"/>
   </g>
   <g id="patch_16">
    <path d="M 137.536096 644.224972 
L 146.817232 644.224972 
L 146.817232 615.318473 
L 137.536096 615.318473 
z
" clip-path="url(#p426aea5a5c)" style="fill: #ffd700; opacity: 0.85"/>
   </g>
   <g id="patch_17">
    <path d="M 143.72352 644.224972 
L 153.004656 644.224972 
L 153.004656 626.134902 
L 143.72352 626.134902 
z
" clip-path="url(#p426aea5a5c)" style="fill: #ffd700; opacity: 0.85"/>
   </g>
   <g id="patch_18">
    <path d="M 149.910944 644.224972 
L 159.19208 644.224972 
L 159.19208 621.654245 
L 149.910944 621.654245 
z
" clip-path="url(#p426aea5a5c)" style="fill: #ffd700; opacity: 0.85"/>
   </g>
   <g id="patch_19">
    <path d="M 168.473216 644.224972 
L 177.754351 644.224972 
L 177.754351 613.485946 
L 168.473216 613.485946 
z
" clip-path="url(#p426aea5a5c)" style="fill: #ffd700; opacity: 0.85"/>
   </g>
   <g id="patch_20">
    <path d="M 174.660639 644.224972 
L 183.941775 644.224972 
L 183.941775 625.591822 
L 174.660639 625.591822 
z
" clip-path="url(#p426aea5a5c)" style="fill: #ffd700; opacity: 0.85"/>
   </g>
   <g id="patch_21">
    <path d="M 180.848063 644.224972 
L 190.129199 644.224972 
L 190.129199 633.631471 
L 180.848063 633.631471 
z
" clip-path="url(#p426aea5a5c)" style="fill: #ffd700; opacity: 0.85"/>
   </g>
   <g id="patch_22">
    <path d="M 187.035487 644.224972 
L 196.316623 644.224972 
L 196.316623 635.739958 
L 187.035487 635.739958 
z
" clip-path="url(#p426aea5a5c)" style="fill: #ffd700; opacity: 0.85"/>
   </g>
   <g id="patch_23">
    <path d="M 193.222911 644.224972 
L 202.504047 644.224972 
L 202.504047 633.287258 
L 193.222911 633.287258 
z
" clip-path="url(#p426aea5a5c)" style="fill: #ffd700; opacity: 0.85"/>
   </g>
   <g id="patch_24">
    <path d="M 211.785182 644.224972 
L 221.066318 644.224972 
L 221.066318 619.101375 
L 211.785182 619.101375 
z
" clip-path="url(#p426aea5a5c)" style="fill: #ffd700; opacity: 0.85"/>
   </g>
   <g id="patch_25">
    <path d="M 217.972606 644.224972 
L 227.253742 644.224972 
L 227.253742 627.229901 
L 217.972606 627.229901 
z
" clip-path="url(#p426aea5a5c)" style="fill: #ffd700; opacity: 0.85"/>
   </g>
   <g id="patch_26">
    <path d="M 224.16003 644.224972 
L 233.441166 644.224972 
L 233.441166 635.147283 
L 224.16003 635.147283 
z
" clip-path="url(#p426aea5a5c)" style="fill: #ffd700; opacity: 0.85"/>
   </g>
   <g id="patch_27">
    <path d="M 230.347454 644.224972 
L 239.62859 644.224972 
L 239.62859 626.420191 
L 230.347454 626.420191 
z
" clip-path="url(#p426aea5a5c)" style="fill: #ffd700; opacity: 0.85"/>
   </g>
   <g id="patch_28">
    <path d="M 236.534878 644.224972 
L 245.816014 644.224972 
L 245.816014 621.291864 
L 236.534878 621.291864 
z
" clip-path="url(#p426aea5a5c)" style="fill: #ffd700; opacity: 0.85"/>
   </g>
   <g id="patch_29">
    <path d="M 255.097149 644.224972 
L 264.378285 644.224972 
L 264.378285 631.417904 
L 255.097149 631.417904 
z
" clip-path="url(#p426aea5a5c)" style="fill: #ffd700; opacity: 0.85"/>
   </g>
   <g id="patch_30">
    <path d="M 261.284573 644.224972 
L 270.565709 644.224972 
L 270.565709 631.438527 
L 261.284573 631.438527 
z
" clip-path="url(#p426aea5a5c)" style="fill: #ffd700; opacity: 0.85"/>
   </g>
   <g id="patch_31">
    <path d="M 267.471997 644.224972 
L 276.753133 644.224972 
L 276.753133 631.079092 
L 267.471997 631.079092 
z
" clip-path="url(#p426aea5a5c)" style="fill: #ffd700; opacity: 0.85"/>
   </g>
   <g id="patch_32">
    <path d="M 273.659421 644.224972 
L 282.940557 644.224972 
L 282.940557 635.778258 
L 273.659421 635.778258 
z
" clip-path="url(#p426aea5a5c)" style="fill: #ffd700; opacity: 0.85"/>
   </g>
   <g id="patch_33">
    <path d="M 279.846845 644.224972 
L 289.12798 644.224972 
L 289.12798 634.772136 
L 279.846845 634.772136 
z
" clip-path="url(#p426aea5a5c)" style="fill: #ffd700; opacity: 0.85"/>
   </g>
   <g id="patch_34">
    <path d="M 298.409116 644.224972 
L 307.690252 644.224972 
L 307.690252 636.373633 
L 298.409116 636.373633 
z
" clip-path="url(#p426aea5a5c)" style="fill: #ffd700; opacity: 0.85"/>
   </g>
   <g id="patch_35">
    <path d="M 304.59654 644.224972 
L 313.877676 644.224972 
L 313.877676 632.612091 
L 304.59654 632.612091 
z
" clip-path="url(#p426aea5a5c)" style="fill: #ffd700; opacity: 0.85"/>
   </g>
   <g id="patch_36">
    <path d="M 310.783964 644.224972 
L 320.0651 644.224972 
L 320.0651 629.986549 
L 310.783964 629.986549 
z
" clip-path="url(#p426aea5a5c)" style="fill: #ffd700; opacity: 0.85"/>
   </g>
   <g id="patch_37">
    <path d="M 316.971388 644.224972 
L 326.252523 644.224972 
L 326.252523 633.605446 
L 316.971388 633.605446 
z
" clip-path="url(#p426aea5a5c)" style="fill: #ffd700; opacity: 0.85"/>
   </g>
   <g id="patch_38">
    <path d="M 323.158812 644.224972 
L 332.439947 644.224972 
L 332.439947 639.123897 
L 323.158812 639.123897 
z
" clip-path="url(#p426aea5a5c)" style="fill: #ffd700; opacity: 0.85"/>
   </g>
   <g id="patch_39">
    <path d="M 341.721083 644.224972 
L 351.002219 644.224972 
L 351.002219 635.144828 
L 341.721083 635.144828 
z
" clip-path="url(#p426aea5a5c)" style="fill: #ffd700; opacity: 0.85"/>
   </g>
   <g id="patch_40">
    <path d="M 347.908507 644.224972 
L 357.189643 644.224972 
L 357.189643 638.869789 
L 347.908507 638.869789 
z
" clip-path="url(#p426aea5a5c)" style="fill: #ffd700; opacity: 0.85"/>
   </g>
   <g id="patch_41">
    <path d="M 354.095931 644.224972 
L 363.377066 644.224972 
L 363.377066 631.52102 
L 354.095931 631.52102 
z
" clip-path="url(#p426aea5a5c)" style="fill: #ffd700; opacity: 0.85"/>
   </g>
   <g id="patch_42">
    <path d="M 360.283355 644.224972 
L 369.56449 644.224972 
L 369.56449 636.599507 
L 360.283355 636.599507 
z
" clip-path="url(#p426aea5a5c)" style="fill: #ffd700; opacity: 0.85"/>
   </g>
   <g id="patch_43">
    <path d="M 366.470778 644.224972 
L 375.751914 644.224972 
L 375.751914 640.206375 
L 366.470778 640.206375 
z
" clip-path="url(#p426aea5a5c)" style="fill: #ffd700; opacity: 0.85"/>
   </g>
   <g id="patch_44">
    <path d="M 385.03305 644.224972 
L 394.314186 644.224972 
L 394.314186 632.315508 
L 385.03305 632.315508 
z
" clip-path="url(#p426aea5a5c)" style="fill: #ffd700; opacity: 0.85"/>
   </g>
   <g id="patch_45">
    <path d="M 391.220474 644.224972 
L 400.501609 644.224972 
L 400.501609 641.109381 
L 391.220474 641.109381 
z
" clip-path="url(#p426aea5a5c)" style="fill: #ffd700; opacity: 0.85"/>
   </g>
   <g id="patch_46">
    <path d="M 397.407898 644.224972 
L 406.689033 644.224972 
L 406.689033 641.164376 
L 397.407898 641.164376 
z
" clip-path="url(#p426aea5a5c)" style="fill: #ffd700; opacity: 0.85"/>
   </g>
   <g id="patch_47">
    <path d="M 403.595321 644.224972 
L 412.876457 644.224972 
L 412.876457 639.045087 
L 403.595321 639.045087 
z
" clip-path="url(#p426aea5a5c)" style="fill: #ffd700; opacity: 0.85"/>
   </g>
   <g id="patch_48">
    <path d="M 409.782745 644.224972 
L 419.063881 644.224972 
L 419.063881 640.048754 
L 409.782745 640.048754 
z
" clip-path="url(#p426aea5a5c)" style="fill: #ffd700; opacity: 0.85"/>
   </g>
   <g id="patch_49">
    <path d="M 428.345017 644.224972 
L 437.626153 644.224972 
L 437.626153 638.258946 
L 428.345017 638.258946 
z
" clip-path="url(#p426aea5a5c)" style="fill: #ffd700; opacity: 0.85"/>
   </g>
   <g id="patch_50">
    <path d="M 434.532441 644.224972 
L 443.813576 644.224972 
L 443.813576 641.319051 
L 434.532441 641.319051 
z
" clip-path="url(#p426aea5a5c)" style="fill: #ffd700; opacity: 0.85"/>
   </g>
   <g id="patch_51">
    <path d="M 440.719864 644.224972 
L 450.001 644.224972 
L 450.001 630.887345 
L 440.719864 630.887345 
z
" clip-path="url(#p426aea5a5c)" style="fill: #ffd700; opacity: 0.85"/>
   </g>
   <g id="patch_52">
    <path d="M 446.907288 644.224972 
L 456.188424 644.224972 
L 456.188424 640.291814 
L 446.907288 640.291814 
z
" clip-path="url(#p426aea5a5c)" style="fill: #ffd700; opacity: 0.85"/>
   </g>
   <g id="patch_53">
    <path d="M 453.094712 644.224972 
L 462.375848 644.224972 
L 462.375848 639.301405 
L 453.094712 639.301405 
z
" clip-path="url(#p426aea5a5c)" style="fill: #ffd700; opacity: 0.85"/>
   </g>
   <g id="patch_54">
    <path d="M 471.656984 644.224972 
L 480.938119 644.224972 
L 480.938119 640.241484 
L 471.656984 640.241484 
z
" clip-path="url(#p426aea5a5c)" style="fill: #ffd700; opacity: 0.85"/>
   </g>
   <g id="patch_55">
    <path d="M 477.844407 644.224972 
L 487.125543 644.224972 
L 487.125543 640.130265 
L 477.844407 640.130265 
z
" clip-path="url(#p426aea5a5c)" style="fill: #ffd700; opacity: 0.85"/>
   </g>
   <g id="patch_56">
    <path d="M 484.031831 644.224972 
L 493.312967 644.224972 
L 493.312967 640.538557 
L 484.031831 640.538557 
z
" clip-path="url(#p426aea5a5c)" style="fill: #ffd700; opacity: 0.85"/>
   </g>
   <g id="patch_57">
    <path d="M 490.219255 644.224972 
L 499.500391 644.224972 
L 499.500391 640.940712 
L 490.219255 640.940712 
z
" clip-path="url(#p426aea5a5c)" style="fill: #ffd700; opacity: 0.85"/>
   </g>
   <g id="patch_58">
    <path d="M 496.406679 644.224972 
L 505.687815 644.224972 
L 505.687815 641.687324 
L 496.406679 641.687324 
z
" clip-path="url(#p426aea5a5c)" style="fill: #ffd700; opacity: 0.85"/>
   </g>
   <g id="patch_59">
    <path d="M 514.96895 644.224972 
L 524.250086 644.224972 
L 524.250086 641.308248 
L 514.96895 641.308248 
z
" clip-path="url(#p426aea5a5c)" style="fill: #ffd700; opacity: 0.85"/>
   </g>
   <g id="patch_60">
    <path d="M 521.156374 644.224972 
L 530.43751 644.224972 
L 530.43751 635.342223 
L 521.156374 635.342223 
z
" clip-path="url(#p426aea5a5c)" style="fill: #ffd700; opacity: 0.85"/>
   </g>
   <g id="patch_61">
    <path d="M 527.343798 644.224972 
L 536.624934 644.224972 
L 536.624934 640.824583 
L 527.343798 640.824583 
z
" clip-path="url(#p426aea5a5c)" style="fill: #ffd700; opacity: 0.85"/>
   </g>
   <g id="patch_62">
    <path d="M 533.531222 644.224972 
L 542.812358 644.224972 
L 542.812358 641.378957 
L 533.531222 641.378957 
z
" clip-path="url(#p426aea5a5c)" style="fill: #ffd700; opacity: 0.85"/>
   </g>
   <g id="patch_63">
    <path d="M 539.718646 644.224972 
L 548.999782 644.224972 
L 548.999782 569.280396 
L 539.718646 569.280396 
z
" clip-path="url(#p426aea5a5c)" style="fill: #ffd700; opacity: 0.85"/>
   </g>
   <g id="patch_64">
    <path d="M 558.280917 644.224972 
L 567.562053 644.224972 
L 567.562053 631.780284 
L 558.280917 631.780284 
z
" clip-path="url(#p426aea5a5c)" style="fill: #ffd700; opacity: 0.85"/>
   </g>
   <g id="patch_65">
    <path d="M 564.468341 644.224972 
L 573.749477 644.224972 
L 573.749477 639.754872 
L 564.468341 639.754872 
z
" clip-path="url(#p426aea5a5c)" style="fill: #ffd700; opacity: 0.85"/>
   </g>
   <g id="patch_66">
    <path d="M 570.655765 644.224972 
L 579.936901 644.224972 
L 579.936901 640.279048 
L 570.655765 640.279048 
z
" clip-path="url(#p426aea5a5c)" style="fill: #ffd700; opacity: 0.85"/>
   </g>
   <g id="patch_67">
    <path d="M 576.843189 644.224972 
L 586.124325 644.224972 
L 586.124325 642.118449 
L 576.843189 642.118449 
z
" clip-path="url(#p426aea5a5c)" style="fill: #ffd700; opacity: 0.85"/>
   </g>
   <g id="patch_68">
    <path d="M 583.030613 644.224972 
L 592.311748 644.224972 
L 592.311748 640.854536 
L 583.030613 640.854536 
z
" clip-path="url(#p426aea5a5c)" style="fill: #ffd700; opacity: 0.85"/>
   </g>
   <g id="patch_69">
    <path d="M 607.780308 644.224972 
L 617.061444 644.224972 
L 617.061444 639.962824 
L 607.780308 639.962824 
z
" clip-path="url(#p426aea5a5c)" style="fill: #ffd700; opacity: 0.85"/>
   </g>
   <g id="patch_70">
    <path d="M 613.967732 644.224972 
L 623.248868 644.224972 
L 623.248868 622.261159 
L 613.967732 622.261159 
z
" clip-path="url(#p426aea5a5c)" style="fill: #ffd700; opacity: 0.85"/>
   </g>
   <g id="patch_71">
    <path d="M 620.155156 644.224972 
L 629.436291 644.224972 
L 629.436291 637.037753 
L 620.155156 637.037753 
z
" clip-path="url(#p426aea5a5c)" style="fill: #ffd700; opacity: 0.85"/>
   </g>
   <g id="patch_72">
    <path d="M 626.34258 644.224972 
L 635.623715 644.224972 
L 635.623715 636.149969 
L 626.34258 636.149969 
z
" clip-path="url(#p426aea5a5c)" style="fill: #ffd700; opacity: 0.85"/>
   </g>
   <g id="patch_73">
    <path d="M 651.092275 644.224972 
L 660.373411 644.224972 
L 660.373411 640.250568 
L 651.092275 640.250568 
z
" clip-path="url(#p426aea5a5c)" style="fill: #ffd700; opacity: 0.85"/>
   </g>
   <g id="patch_74">
    <path d="M 657.279699 644.224972 
L 666.560834 644.224972 
L 666.560834 641.087284 
L 657.279699 641.087284 
z
" clip-path="url(#p426aea5a5c)" style="fill: #ffd700; opacity: 0.85"/>
   </g>
   <g id="patch_75">
    <path d="M 663.467123 644.224972 
L 672.748258 644.224972 
L 672.748258 641.416521 
L 663.467123 641.416521 
z
" clip-path="url(#p426aea5a5c)" style="fill: #ffd700; opacity: 0.85"/>
   </g>
   <g id="patch_76">
    <path d="M 688.216818 644.224972 
L 697.497954 644.224972 
L 697.497954 640.935065 
L 688.216818 640.935065 
z
" clip-path="url(#p426aea5a5c)" style="fill: #ffd700; opacity: 0.85"/>
   </g>
   <g id="patch_77">
    <path d="M 694.404242 644.224972 
L 703.685377 644.224972 
L 703.685377 636.869329 
L 694.404242 636.869329 
z
" clip-path="url(#p426aea5a5c)" style="fill: #ffd700; opacity: 0.85"/>
   </g>
   <g id="patch_78">
    <path d="M 700.591666 644.224972 
L 709.872801 644.224972 
L 709.872801 643.204855 
L 700.591666 643.204855 
z
" clip-path="url(#p426aea5a5c)" style="fill: #ffd700; opacity: 0.85"/>
   </g>
   <g id="patch_79">
    <path d="M 706.779089 644.224972 
L 716.060225 644.224972 
L 716.060225 643.19749 
L 706.779089 643.19749 
z
" clip-path="url(#p426aea5a5c)" style="fill: #ffd700; opacity: 0.85"/>
   </g>
   <g id="patch_80">
    <path d="M 712.966513 644.224972 
L 722.247649 644.224972 
L 722.247649 643.754073 
L 712.966513 643.754073 
z
" clip-path="url(#p426aea5a5c)" style="fill: #ffd700; opacity: 0.85"/>
   </g>
   <g id="patch_81">
    <path d="M 731.528785 644.224972 
L 740.80992 644.224972 
L 740.80992 637.529765 
L 731.528785 637.529765 
z
" clip-path="url(#p426aea5a5c)" style="fill: #ffd700; opacity: 0.85"/>
   </g>
   <g id="patch_82">
    <path d="M 737.716209 644.224972 
L 746.997344 644.224972 
L 746.997344 640.36596 
L 737.716209 640.36596 
z
" clip-path="url(#p426aea5a5c)" style="fill: #ffd700; opacity: 0.85"/>
   </g>
   <g id="patch_83">
    <path d="M 743.903632 644.224972 
L 753.184768 644.224972 
L 753.184768 640.844224 
L 743.903632 640.844224 
z
" clip-path="url(#p426aea5a5c)" style="fill: #ffd700; opacity: 0.85"/>
   </g>
   <g id="patch_84">
    <path d="M 750.091056 644.224972 
L 759.372192 644.224972 
L 759.372192 633.294624 
L 750.091056 633.294624 
z
" clip-path="url(#p426aea5a5c)" style="fill: #ffd700; opacity: 0.85"/>
   </g>
   <g id="patch_85">
    <path d="M 774.840752 644.224972 
L 784.121887 644.224972 
L 784.121887 635.506473 
L 774.840752 635.506473 
z
" clip-path="url(#p426aea5a5c)" style="fill: #ffd700; opacity: 0.85"/>
   </g>
   <g id="patch_86">
    <path d="M 781.028175 644.224972 
L 790.309311 644.224972 
L 790.309311 631.231312 
L 781.028175 631.231312 
z
" clip-path="url(#p426aea5a5c)" style="fill: #ffd700; opacity: 0.85"/>
   </g>
   <g id="patch_87">
    <path d="M 787.215599 644.224972 
L 796.496735 644.224972 
L 796.496735 602.353784 
L 787.215599 602.353784 
z
" clip-path="url(#p426aea5a5c)" style="fill: #ffd700; opacity: 0.85"/>
   </g>
   <g id="patch_88">
    <path d="M 793.403023 644.224972 
L 802.684159 644.224972 
L 802.684159 642.610708 
L 793.403023 642.610708 
z
" clip-path="url(#p426aea5a5c)" style="fill: #ffd700; opacity: 0.85"/>
   </g>
   <g id="patch_89">
    <path d="M 799.590447 644.224972 
L 808.871583 644.224972 
L 808.871583 611.919066 
L 799.590447 611.919066 
z
" clip-path="url(#p426aea5a5c)" style="fill: #ffd700; opacity: 0.85"/>
   </g>
   <g id="patch_90">
    <path d="M 818.152718 644.224972 
L 827.433854 644.224972 
L 827.433854 642.205853 
L 818.152718 642.205853 
z
" clip-path="url(#p426aea5a5c)" style="fill: #ffd700; opacity: 0.85"/>
   </g>
   <g id="patch_91">
    <path d="M 824.340142 644.224972 
L 833.621278 644.224972 
L 833.621278 643.049444 
L 824.340142 643.049444 
z
" clip-path="url(#p426aea5a5c)" style="fill: #ffd700; opacity: 0.85"/>
   </g>
   <g id="patch_92">
    <path d="M 830.527566 644.224972 
L 839.808702 644.224972 
L 839.808702 643.080379 
L 830.527566 643.080379 
z
" clip-path="url(#p426aea5a5c)" style="fill: #ffd700; opacity: 0.85"/>
   </g>
   <g id="patch_93">
    <path d="M 836.71499 644.224972 
L 845.996126 644.224972 
L 845.996126 643.843441 
L 836.71499 643.843441 
z
" clip-path="url(#p426aea5a5c)" style="fill: #ffd700; opacity: 0.85"/>
   </g>
   <g id="patch_94">
    <path d="M 842.902414 644.224972 
L 852.18355 644.224972 
L 852.18355 641.416275 
L 842.902414 641.416275 
z
" clip-path="url(#p426aea5a5c)" style="fill: #ffd700; opacity: 0.85"/>
   </g>
   <g id="patch_95">
    <path d="M 861.464685 644.224972 
L 870.745821 644.224972 
L 870.745821 642.514711 
L 861.464685 642.514711 
z
" clip-path="url(#p426aea5a5c)" style="fill: #ffd700; opacity: 0.85"/>
   </g>
   <g id="patch_96">
    <path d="M 867.652109 644.224972 
L 876.933245 644.224972 
L 876.933245 643.584177 
L 867.652109 643.584177 
z
" clip-path="url(#p426aea5a5c)" style="fill: #ffd700; opacity: 0.85"/>
   </g>
   <g id="patch_97">
    <path d="M 873.839533 644.224972 
L 883.120669 644.224972 
L 883.120669 638.694 
L 873.839533 638.694 
z
" clip-path="url(#p426aea5a5c)" style="fill: #ffd700; opacity: 0.85"/>
   </g>
   <g id="patch_98">
    <path d="M 880.026957 644.224972 
L 889.308093 644.224972 
L 889.308093 643.345045 
L 880.026957 643.345045 
z
" clip-path="url(#p426aea5a5c)" style="fill: #ffd700; opacity: 0.85"/>
   </g>
   <g id="patch_99">
    <path d="M 886.214381 644.224972 
L 895.495516 644.224972 
L 895.495516 643.464856 
L 886.214381 643.464856 
z
" clip-path="url(#p426aea5a5c)" style="fill: #ffd700; opacity: 0.85"/>
   </g>
   <g id="patch_100">
    <path d="M 904.776652 644.224972 
L 914.057788 644.224972 
L 914.057788 643.778134 
L 904.776652 643.778134 
z
" clip-path="url(#p426aea5a5c)" style="fill: #ffd700; opacity: 0.85"/>
   </g>
   <g id="patch_101">
    <path d="M 910.964076 644.224972 
L 920.245212 644.224972 
L 920.245212 642.175163 
L 910.964076 642.175163 
z
" clip-path="url(#p426aea5a5c)" style="fill: #ffd700; opacity: 0.85"/>
   </g>
   <g id="patch_102">
    <path d="M 917.1515 644.224972 
L 926.432636 644.224972 
L 926.432636 643.341607 
L 917.1515 643.341607 
z
" clip-path="url(#p426aea5a5c)" style="fill: #ffd700; opacity: 0.85"/>
   </g>
   <g id="patch_103">
    <path d="M 923.338924 644.224972 
L 932.620059 644.224972 
L 932.620059 643.716264 
L 923.338924 643.716264 
z
" clip-path="url(#p426aea5a5c)" style="fill: #ffd700; opacity: 0.85"/>
   </g>
   <g id="patch_104">
    <path d="M 929.526347 644.224972 
L 938.807483 644.224972 
L 938.807483 643.724121 
L 929.526347 643.724121 
z
" clip-path="url(#p426aea5a5c)" style="fill: #ffd700; opacity: 0.85"/>
   </g>
   <g id="patch_105">
    <path d="M 948.088619 644.224972 
L 957.369755 644.224972 
L 957.369755 642.967933 
L 948.088619 642.967933 
z
" clip-path="url(#p426aea5a5c)" style="fill: #ffd700; opacity: 0.85"/>
   </g>
   <g id="patch_106">
    <path d="M 954.276043 644.224972 
L 963.557179 644.224972 
L 963.557179 643.593997 
L 954.276043 643.593997 
z
" clip-path="url(#p426aea5a5c)" style="fill: #ffd700; opacity: 0.85"/>
   </g>
   <g id="patch_107">
    <path d="M 960.463467 644.224972 
L 969.744602 644.224972 
L 969.744602 643.850806 
L 960.463467 643.850806 
z
" clip-path="url(#p426aea5a5c)" style="fill: #ffd700; opacity: 0.85"/>
   </g>
   <g id="patch_108">
    <path d="M 966.650891 644.224972 
L 975.932026 644.224972 
L 975.932026 640.04679 
L 966.650891 640.04679 
z
" clip-path="url(#p426aea5a5c)" style="fill: #ffd700; opacity: 0.85"/>
   </g>
   <g id="patch_109">
    <path d="M 972.838314 644.224972 
L 982.11945 644.224972 
L 982.11945 640.280766 
L 972.838314 640.280766 
z
" clip-path="url(#p426aea5a5c)" style="fill: #ffd700; opacity: 0.85"/>
   </g>
   <g id="patch_110">
    <path d="M 991.400586 644.224972 
L 1000.681722 644.224972 
L 1000.681722 643.533601 
L 991.400586 643.533601 
z
" clip-path="url(#p426aea5a5c)" style="fill: #ffd700; opacity: 0.85"/>
   </g>
   <g id="patch_111">
    <path d="M 997.58801 644.224972 
L 1006.869145 644.224972 
L 1006.869145 644.098286 
L 997.58801 644.098286 
z
" clip-path="url(#p426aea5a5c)" style="fill: #ffd700; opacity: 0.85"/>
   </g>
   <g id="patch_112">
    <path d="M 1003.775434 644.224972 
L 1013.056569 644.224972 
L 1013.056569 644.034207 
L 1003.775434 644.034207 
z
" clip-path="url(#p426aea5a5c)" style="fill: #ffd700; opacity: 0.85"/>
   </g>
   <g id="patch_113">
    <path d="M 1009.962857 644.224972 
L 1019.243993 644.224972 
L 1019.243993 643.974546 
L 1009.962857 643.974546 
z
" clip-path="url(#p426aea5a5c)" style="fill: #ffd700; opacity: 0.85"/>
   </g>
   <g id="patch_114">
    <path d="M 1016.150281 644.224972 
L 1025.431417 644.224972 
L 1025.431417 638.316888 
L 1016.150281 638.316888 
z
" clip-path="url(#p426aea5a5c)" style="fill: #ffd700; opacity: 0.85"/>
   </g>
   <g id="patch_115">
    <path d="M 1034.712553 644.224972 
L 1043.993688 644.224972 
L 1043.993688 643.16901 
L 1034.712553 643.16901 
z
" clip-path="url(#p426aea5a5c)" style="fill: #ffd700; opacity: 0.85"/>
   </g>
   <g id="patch_116">
    <path d="M 1040.899977 644.224972 
L 1050.181112 644.224972 
L 1050.181112 642.574372 
L 1040.899977 642.574372 
z
" clip-path="url(#p426aea5a5c)" style="fill: #ffd700; opacity: 0.85"/>
   </g>
   <g id="patch_117">
    <path d="M 1047.0874 644.224972 
L 1056.368536 644.224972 
L 1056.368536 643.040114 
L 1047.0874 643.040114 
z
" clip-path="url(#p426aea5a5c)" style="fill: #ffd700; opacity: 0.85"/>
   </g>
   <g id="patch_118">
    <path d="M 1053.274824 644.224972 
L 1062.55596 644.224972 
L 1062.55596 638.863651 
L 1053.274824 638.863651 
z
" clip-path="url(#p426aea5a5c)" style="fill: #ffd700; opacity: 0.85"/>
   </g>
   <g id="patch_119">
    <path d="M 1059.462248 644.224972 
L 1068.743384 644.224972 
L 1068.743384 626.105931 
L 1059.462248 626.105931 
z
" clip-path="url(#p426aea5a5c)" style="fill: #ffd700; opacity: 0.85"/>
   </g>
   <g id="patch_120">
    <path d="M 1078.02452 644.224972 
L 1087.305655 644.224972 
L 1087.305655 642.296694 
L 1078.02452 642.296694 
z
" clip-path="url(#p426aea5a5c)" style="fill: #ffd700; opacity: 0.85"/>
   </g>
   <g id="patch_121">
    <path d="M 1084.211943 644.224972 
L 1093.493079 644.224972 
L 1093.493079 643.625914 
L 1084.211943 643.625914 
z
" clip-path="url(#p426aea5a5c)" style="fill: #ffd700; opacity: 0.85"/>
   </g>
   <g id="patch_122">
    <path d="M 1090.399367 644.224972 
L 1099.680503 644.224972 
L 1099.680503 643.80735 
L 1090.399367 643.80735 
z
" clip-path="url(#p426aea5a5c)" style="fill: #ffd700; opacity: 0.85"/>
   </g>
   <g id="patch_123">
    <path d="M 1096.586791 644.224972 
L 1105.867927 644.224972 
L 1105.867927 644.165312 
L 1096.586791 644.165312 
z
" clip-path="url(#p426aea5a5c)" style="fill: #ffd700; opacity: 0.85"/>
   </g>
   <g id="patch_124">
    <path d="M 1102.774215 644.224972 
L 1112.055351 644.224972 
L 1112.055351 644.106143 
L 1102.774215 644.106143 
z
" clip-path="url(#p426aea5a5c)" style="fill: #ffd700; opacity: 0.85"/>
   </g>
   <g id="patch_125">
    <path d="M 1121.336486 644.224972 
L 1130.617622 644.224972 
L 1130.617622 644.048201 
L 1121.336486 644.048201 
z
" clip-path="url(#p426aea5a5c)" style="fill: #ffd700; opacity: 0.85"/>
   </g>
   <g id="patch_126">
    <path d="M 1127.52391 644.224972 
L 1136.805046 644.224972 
L 1136.805046 643.57141 
L 1127.52391 643.57141 
z
" clip-path="url(#p426aea5a5c)" style="fill: #ffd700; opacity: 0.85"/>
   </g>
   <g id="patch_127">
    <path d="M 1133.711334 644.224972 
L 1142.99247 644.224972 
L 1142.99247 641.985871 
L 1133.711334 641.985871 
z
" clip-path="url(#p426aea5a5c)" style="fill: #ffd700; opacity: 0.85"/>
   </g>
   <g id="patch_128">
    <path d="M 1146.086182 644.224972 
L 1155.367318 644.224972 
L 1155.367318 635.765491 
L 1146.086182 635.765491 
z
" clip-path="url(#p426aea5a5c)" style="fill: #ffd700; opacity: 0.85"/>
   </g>
   <g id="patch_129">
    <path d="M 1164.648453 644.224972 
L 1173.929589 644.224972 
L 1173.929589 642.903608 
L 1164.648453 642.903608 
z
" clip-path="url(#p426aea5a5c)" style="fill: #ffd700; opacity: 0.85"/>
   </g>
   <g id="patch_130">
    <path d="M 1170.835877 644.224972 
L 1180.117013 644.224972 
L 1180.117013 642.097826 
L 1170.835877 642.097826 
z
" clip-path="url(#p426aea5a5c)" style="fill: #ffd700; opacity: 0.85"/>
   </g>
   <g id="patch_131">
    <path d="M 1177.023301 644.224972 
L 1186.304437 644.224972 
L 1186.304437 643.761439 
L 1177.023301 643.761439 
z
" clip-path="url(#p426aea5a5c)" style="fill: #ffd700; opacity: 0.85"/>
   </g>
   <g id="patch_132">
    <path d="M 1189.398149 644.224972 
L 1198.679284 644.224972 
L 1198.679284 640.907813 
L 1189.398149 640.907813 
z
" clip-path="url(#p426aea5a5c)" style="fill: #ffd700; opacity: 0.85"/>
   </g>
   <g id="patch_133">
    <path d="M 1207.96042 644.224972 
L 1217.241556 644.224972 
L 1217.241556 643.699078 
L 1207.96042 643.699078 
z
" clip-path="url(#p426aea5a5c)" style="fill: #ffd700; opacity: 0.85"/>
   </g>
   <g id="patch_134">
    <path d="M 1214.147844 644.224972 
L 1223.42898 644.224972 
L 1223.42898 642.944854 
L 1214.147844 642.944854 
z
" clip-path="url(#p426aea5a5c)" style="fill: #ffd700; opacity: 0.85"/>
   </g>
   <g id="patch_135">
    <path d="M 1220.335268 644.224972 
L 1229.616404 644.224972 
L 1229.616404 643.582213 
L 1220.335268 643.582213 
z
" clip-path="url(#p426aea5a5c)" style="fill: #ffd700; opacity: 0.85"/>
   </g>
   <g id="patch_136">
    <path d="M 1226.522692 644.224972 
L 1235.803827 644.224972 
L 1235.803827 638.273677 
L 1226.522692 638.273677 
z
" clip-path="url(#p426aea5a5c)" style="fill: #ffd700; opacity: 0.85"/>
   </g>
   <g id="patch_137">
    <path d="M 1232.710115 644.224972 
L 1241.991251 644.224972 
L 1241.991251 643.759475 
L 1232.710115 643.759475 
z
" clip-path="url(#p426aea5a5c)" style="fill: #ffd700; opacity: 0.85"/>
   </g>
   <g id="patch_138">
    <path d="M 1251.272387 644.224972 
L 1260.553523 644.224972 
L 1260.553523 643.927898 
L 1251.272387 643.927898 
z
" clip-path="url(#p426aea5a5c)" style="fill: #ffd700; opacity: 0.85"/>
   </g>
  </g>
  <g id="axes_3">
   <g id="matplotlib.axis_4">
    <g id="ytick_11">
     <g id="line2d_25">
      <g>
       <use xlink:href="#me29cfaa669" x="1378.25125" y="644.224972" style="stroke: #000000; stroke-width: 0.8"/>
      </g>
     </g>
     <g id="text_24">
      <!-- 0.0 -->
      <g style="fill: #ff0000" transform="translate(1385.25125 648.024191) scale(0.1 -0.1)">
       <defs>
        <path id="DejaVuSans-2e" d="M 684 794 
L 1344 794 
L 1344 0 
L 684 0 
L 684 794 
z
" transform="scale(0.015625)"/>
       </defs>
       <use xlink:href="#DejaVuSans-30"/>
       <use xlink:href="#DejaVuSans-2e" x="63.623047"/>
       <use xlink:href="#DejaVuSans-30" x="95.410156"/>
      </g>
     </g>
    </g>
    <g id="ytick_12">
     <g id="line2d_26">
      <g>
       <use xlink:href="#me29cfaa669" x="1378.25125" y="580.09922" style="stroke: #000000; stroke-width: 0.8"/>
      </g>
     </g>
     <g id="text_25">
      <!-- 2.5 -->
      <g style="fill: #ff0000" transform="translate(1385.25125 583.898439) scale(0.1 -0.1)">
       <use xlink:href="#DejaVuSans-32"/>
       <use xlink:href="#DejaVuSans-2e" x="63.623047"/>
       <use xlink:href="#DejaVuSans-35" x="95.410156"/>
      </g>
     </g>
    </g>
    <g id="ytick_13">
     <g id="line2d_27">
      <g>
       <use xlink:href="#me29cfaa669" x="1378.25125" y="515.973468" style="stroke: #000000; stroke-width: 0.8"/>
      </g>
     </g>
     <g id="text_26">
      <!-- 5.0 -->
      <g style="fill: #ff0000" transform="translate(1385.25125 519.772687) scale(0.1 -0.1)">
       <use xlink:href="#DejaVuSans-35"/>
       <use xlink:href="#DejaVuSans-2e" x="63.623047"/>
       <use xlink:href="#DejaVuSans-30" x="95.410156"/>
      </g>
     </g>
    </g>
    <g id="ytick_14">
     <g id="line2d_28">
      <g>
       <use xlink:href="#me29cfaa669" x="1378.25125" y="451.847716" style="stroke: #000000; stroke-width: 0.8"/>
      </g>
     </g>
     <g id="text_27">
      <!-- 7.5 -->
      <g style="fill: #ff0000" transform="translate(1385.25125 455.646935) scale(0.1 -0.1)">
       <use xlink:href="#DejaVuSans-37"/>
       <use xlink:href="#DejaVuSans-2e" x="63.623047"/>
       <use xlink:href="#DejaVuSans-35" x="95.410156"/>
      </g>
     </g>
    </g>
    <g id="ytick_15">
     <g id="line2d_29">
      <g>
       <use xlink:href="#me29cfaa669" x="1378.25125" y="387.721964" style="stroke: #000000; stroke-width: 0.8"/>
      </g>
     </g>
     <g id="text_28">
      <!-- 10.0 -->
      <g style="fill: #ff0000" transform="translate(1385.25125 391.521183) scale(0.1 -0.1)">
       <use xlink:href="#DejaVuSans-31"/>
       <use xlink:href="#DejaVuSans-30" x="63.623047"/>
       <use xlink:href="#DejaVuSans-2e" x="127.246094"/>
       <use xlink:href="#DejaVuSans-30" x="159.033203"/>
      </g>
     </g>
    </g>
    <g id="ytick_16">
     <g id="line2d_30">
      <g>
       <use xlink:href="#me29cfaa669" x="1378.25125" y="323.596212" style="stroke: #000000; stroke-width: 0.8"/>
      </g>
     </g>
     <g id="text_29">
      <!-- 12.5 -->
      <g style="fill: #ff0000" transform="translate(1385.25125 327.395431) scale(0.1 -0.1)">
       <use xlink:href="#DejaVuSans-31"/>
       <use xlink:href="#DejaVuSans-32" x="63.623047"/>
       <use xlink:href="#DejaVuSans-2e" x="127.246094"/>
       <use xlink:href="#DejaVuSans-35" x="159.033203"/>
      </g>
     </g>
    </g>
    <g id="ytick_17">
     <g id="line2d_31">
      <g>
       <use xlink:href="#me29cfaa669" x="1378.25125" y="259.47046" style="stroke: #000000; stroke-width: 0.8"/>
      </g>
     </g>
     <g id="text_30">
      <!-- 15.0 -->
      <g style="fill: #ff0000" transform="translate(1385.25125 263.269679) scale(0.1 -0.1)">
       <use xlink:href="#DejaVuSans-31"/>
       <use xlink:href="#DejaVuSans-35" x="63.623047"/>
       <use xlink:href="#DejaVuSans-2e" x="127.246094"/>
       <use xlink:href="#DejaVuSans-30" x="159.033203"/>
      </g>
     </g>
    </g>
    <g id="ytick_18">
     <g id="line2d_32">
      <g>
       <use xlink:href="#me29cfaa669" x="1378.25125" y="195.344708" style="stroke: #000000; stroke-width: 0.8"/>
      </g>
     </g>
     <g id="text_31">
      <!-- 17.5 -->
      <g style="fill: #ff0000" transform="translate(1385.25125 199.143927) scale(0.1 -0.1)">
       <use xlink:href="#DejaVuSans-31"/>
       <use xlink:href="#DejaVuSans-37" x="63.623047"/>
       <use xlink:href="#DejaVuSans-2e" x="127.246094"/>
       <use xlink:href="#DejaVuSans-35" x="159.033203"/>
      </g>
     </g>
    </g>
    <g id="ytick_19">
     <g id="line2d_33">
      <g>
       <use xlink:href="#me29cfaa669" x="1378.25125" y="131.218956" style="stroke: #000000; stroke-width: 0.8"/>
      </g>
     </g>
     <g id="text_32">
      <!-- 20.0 -->
      <g style="fill: #ff0000" transform="translate(1385.25125 135.018175) scale(0.1 -0.1)">
       <use xlink:href="#DejaVuSans-32"/>
       <use xlink:href="#DejaVuSans-30" x="63.623047"/>
       <use xlink:href="#DejaVuSans-2e" x="127.246094"/>
       <use xlink:href="#DejaVuSans-30" x="159.033203"/>
      </g>
     </g>
    </g>
    <g id="text_33">
     <!-- 融資餘額/市值 (%) [長期趨勢] -->
     <g style="fill: #ff0000" transform="translate(1420.635 429.589408) rotate(-90) scale(0.12 -0.12)">
      <defs>
       <path id="DejaVuSans-Bold-2f" d="M 1644 4666 
L 2338 4666 
L 691 -594 
L 0 -594 
L 1644 4666 
z
" transform="scale(0.015625)"/>
       <path id="DejaVuSans-Bold-5e02" d="M 319 -1131 
L 319 4513 
L 3519 4513 
L 3519 -1131 
L 319 -1131 
z
M 678 -775 
L 3163 -775 
L 3163 4153 
L 678 4153 
L 678 -775 
z
" transform="scale(0.015625)"/>
       <path id="DejaVuSans-Bold-503c" d="M 319 -1131 
L 319 4513 
L 3519 4513 
L 3519 -1131 
L 319 -1131 
z
M 678 -775 
L 3163 -775 
L 3163 4153 
L 678 4153 
L 678 -775 
z
" transform="scale(0.015625)"/>
       <path id="DejaVuSans-Bold-25" d="M 4959 1925 
Q 4738 1925 4616 1733 
Q 4494 1541 4494 1184 
Q 4494 825 4614 633 
Q 4734 441 4959 441 
Q 5184 441 5303 633 
Q 5422 825 5422 1184 
Q 5422 1541 5301 1733 
Q 5181 1925 4959 1925 
z
M 4959 2450 
Q 5541 2450 5875 2112 
Q 6209 1775 6209 1184 
Q 6209 594 5875 251 
Q 5541 -91 4959 -91 
Q 4378 -91 4042 251 
Q 3706 594 3706 1184 
Q 3706 1772 4042 2111 
Q 4378 2450 4959 2450 
z
M 2094 -91 
L 1403 -91 
L 4319 4750 
L 5013 4750 
L 2094 -91 
z
M 1453 4750 
Q 2034 4750 2367 4411 
Q 2700 4072 2700 3481 
Q 2700 2891 2367 2550 
Q 2034 2209 1453 2209 
Q 872 2209 539 2550 
Q 206 2891 206 3481 
Q 206 4072 539 4411 
Q 872 4750 1453 4750 
z
M 1453 4225 
Q 1228 4225 1106 4031 
Q 984 3838 984 3481 
Q 984 3122 1106 2926 
Q 1228 2731 1453 2731 
Q 1678 2731 1798 2926 
Q 1919 3122 1919 3481 
Q 1919 3838 1797 4031 
Q 1675 4225 1453 4225 
z
" transform="scale(0.015625)"/>
       <path id="DejaVuSans-Bold-5b" d="M 550 4863 
L 2491 4863 
L 2491 4159 
L 1613 4159 
L 1613 -141 
L 2491 -141 
L 2491 -844 
L 550 -844 
L 550 4863 
z
" transform="scale(0.015625)"/>
       <path id="DejaVuSans-Bold-9577" d="M 319 -1131 
L 319 4513 
L 3519 4513 
L 3519 -1131 
L 319 -1131 
z
M 678 -775 
L 3163 -775 
L 3163 4153 
L 678 4153 
L 678 -775 
z
" transform="scale(0.015625)"/>
       <path id="DejaVuSans-Bold-8da8" d="M 319 -1131 
L 319 4513 
L 3519 4513 
L 3519 -1131 
L 319 -1131 
z
M 678 -775 
L 3163 -775 
L 3163 4153 
L 678 4153 
L 678 -775 
z
" transform="scale(0.015625)"/>
       <path id="DejaVuSans-Bold-52e2" d="M 319 -1131 
L 319 4513 
L 3519 4513 
L 3519 -1131 
L 319 -1131 
z
M 678 -775 
L 3163 -775 
L 3163 4153 
L 678 4153 
L 678 -775 
z
" transform="scale(0.015625)"/>
       <path id="DejaVuSans-Bold-5d" d="M 2375 -844 
L 434 -844 
L 434 -141 
L 1313 -141 
L 1313 4159 
L 434 4159 
L 434 4863 
L 2375 4863 
L 2375 -844 
z
" transform="scale(0.015625)"/>
      </defs>
      <use xlink:href="#DejaVuSans-Bold-878d"/>
      <use xlink:href="#DejaVuSans-Bold-8cc7" x="60.009766"/>
      <use xlink:href="#DejaVuSans-Bold-9918" x="120.019531"/>
      <use xlink:href="#DejaVuSans-Bold-984d" x="180.029297"/>
      <use xlink:href="#DejaVuSans-Bold-2f" x="240.039062"/>
      <use xlink:href="#DejaVuSans-Bold-5e02" x="276.5625"/>
      <use xlink:href="#DejaVuSans-Bold-503c" x="336.572266"/>
      <use xlink:href="#DejaVuSans-Bold-20" x="396.582031"/>
      <use xlink:href="#DejaVuSans-Bold-28" x="431.396484"/>
      <use xlink:href="#DejaVuSans-Bold-25" x="477.099609"/>
      <use xlink:href="#DejaVuSans-Bold-29" x="577.294922"/>
      <use xlink:href="#DejaVuSans-Bold-20" x="622.998047"/>
      <use xlink:href="#DejaVuSans-Bold-5b" x="657.8125"/>
      <use xlink:href="#DejaVuSans-Bold-9577" x="703.515625"/>
      <use xlink:href="#DejaVuSans-Bold-671f" x="763.525391"/>
      <use xlink:href="#DejaVuSans-Bold-8da8" x="823.535156"/>
      <use xlink:href="#DejaVuSans-Bold-52e2" x="883.544922"/>
      <use xlink:href="#DejaVuSans-Bold-5d" x="943.554688"/>
     </g>
    </g>
   </g>
   <g id="patch_139">
    <path d="M 48.90125 644.224972 
L 48.90125 96.234469 
" style="fill: none; stroke: #000000; stroke-width: 0.8; stroke-linejoin: miter; stroke-linecap: square"/>
   </g>
   <g id="patch_140">
    <path d="M 1378.25125 644.224972 
L 1378.25125 96.234469 
" style="fill: none; stroke: #000000; stroke-width: 0.8; stroke-linejoin: miter; stroke-linecap: square"/>
   </g>
   <g id="patch_141">
    <path d="M 48.90125 644.224972 
L 1318.25125 644.224972 
" style="fill: none; stroke: #000000; stroke-width: 0.8; stroke-linejoin: miter; stroke-linecap: square"/>
   </g>
   <g id="patch_142">
    <path d="M 48.90125 96.234469 
L 1318.25125 96.234469 
" style="fill: none; stroke: #000000; stroke-width: 0.8; stroke-linejoin: miter; stroke-linecap: square"/>
   </g>
   <g id="text_34">
    <!-- 昕奇雲端 (7747): 融資餘額與股價分析 -->
    <g transform="translate(601.706719 17.077969) scale(0.13 -0.13)">
     <defs>
      <path id="DejaVuSans-Bold-6615" d="M 319 -1131 
L 319 4513 
L 3519 4513 
L 3519 -1131 
L 319 -1131 
z
M 678 -775 
L 3163 -775 
L 3163 4153 
L 678 4153 
L 678 -775 
z
" transform="scale(0.015625)"/>
      <path id="DejaVuSans-Bold-5947" d="M 319 -1131 
L 319 4513 
L 3519 4513 
L 3519 -1131 
L 319 -1131 
z
M 678 -775 
L 3163 -775 
L 3163 4153 
L 678 4153 
L 678 -775 
z
" transform="scale(0.015625)"/>
      <path id="DejaVuSans-Bold-96f2" d="M 319 -1131 
L 319 4513 
L 3519 4513 
L 3519 -1131 
L 319 -1131 
z
M 678 -775 
L 3163 -775 
L 3163 4153 
L 678 4153 
L 678 -775 
z
" transform="scale(0.015625)"/>
      <path id="DejaVuSans-Bold-7aef" d="M 319 -1131 
L 319 4513 
L 3519 4513 
L 3519 -1131 
L 319 -1131 
z
M 678 -775 
L 3163 -775 
L 3163 4153 
L 678 4153 
L 678 -775 
z
" transform="scale(0.015625)"/>
      <path id="DejaVuSans-Bold-37" d="M 428 4666 
L 3944 4666 
L 3944 3988 
L 2125 0 
L 953 0 
L 2675 3781 
L 428 3781 
L 428 4666 
z
" transform="scale(0.015625)"/>
      <path id="DejaVuSans-Bold-34" d="M 2356 3675 
L 1038 1722 
L 2356 1722 
L 2356 3675 
z
M 2156 4666 
L 3494 4666 
L 3494 1722 
L 4159 1722 
L 4159 850 
L 3494 850 
L 3494 0 
L 2356 0 
L 2356 850 
L 288 850 
L 288 1881 
L 2156 4666 
z
" transform="scale(0.015625)"/>
      <path id="DejaVuSans-Bold-3a" d="M 716 3500 
L 1844 3500 
L 1844 2291 
L 716 2291 
L 716 3500 
z
M 716 1209 
L 1844 1209 
L 1844 0 
L 716 0 
L 716 1209 
z
" transform="scale(0.015625)"/>
      <path id="DejaVuSans-Bold-8207" d="M 319 -1131 
L 319 4513 
L 3519 4513 
L 3519 -1131 
L 319 -1131 
z
M 678 -775 
L 3163 -775 
L 3163 4153 
L 678 4153 
L 678 -775 
z
" transform="scale(0.015625)"/>
      <path id="DejaVuSans-Bold-80a1" d="M 319 -1131 
L 319 4513 
L 3519 4513 
L 3519 -1131 
L 319 -1131 
z
M 678 -775 
L 3163 -775 
L 3163 4153 
L 678 4153 
L 678 -775 
z
" transform="scale(0.015625)"/>
      <path id="DejaVuSans-Bold-5206" d="M 319 -1131 
L 319 4513 
L 3519 4513 
L 3519 -1131 
L 319 -1131 
z
M 678 -775 
L 3163 -775 
L 3163 4153 
L 678 4153 
L 678 -775 
z
" transform="scale(0.015625)"/>
      <path id="DejaVuSans-Bold-6790" d="M 319 -1131 
L 319 4513 
L 3519 4513 
L 3519 -1131 
L 319 -1131 
z
M 678 -775 
L 3163 -775 
L 3163 4153 
L 678 4153 
L 678 -775 
z
" transform="scale(0.015625)"/>
     </defs>
     <use xlink:href="#DejaVuSans-Bold-6615"/>
     <use xlink:href="#DejaVuSans-Bold-5947" x="60.009766"/>
     <use xlink:href="#DejaVuSans-Bold-96f2" x="120.019531"/>
     <use xlink:href="#DejaVuSans-Bold-7aef" x="180.029297"/>
     <use xlink:href="#DejaVuSans-Bold-20" x="240.039062"/>
     <use xlink:href="#DejaVuSans-Bold-28" x="274.853516"/>
     <use xlink:href="#DejaVuSans-Bold-37" x="320.556641"/>
     <use xlink:href="#DejaVuSans-Bold-37" x="390.136719"/>
     <use xlink:href="#DejaVuSans-Bold-34" x="459.716797"/>
     <use xlink:href="#DejaVuSans-Bold-37" x="529.296875"/>
     <use xlink:href="#DejaVuSans-Bold-29" x="598.876953"/>
     <use xlink:href="#DejaVuSans-Bold-3a" x="644.580078"/>
     <use xlink:href="#DejaVuSans-Bold-20" x="684.570312"/>
     <use xlink:href="#DejaVuSans-Bold-878d" x="719.384766"/>
     <use xlink:href="#DejaVuSans-Bold-8cc7" x="779.394531"/>
     <use xlink:href="#DejaVuSans-Bold-9918" x="839.404297"/>
     <use xlink:href="#DejaVuSans-Bold-984d" x="899.414062"/>
     <use xlink:href="#DejaVuSans-Bold-8207" x="959.423828"/>
     <use xlink:href="#DejaVuSans-Bold-80a1" x="1019.433594"/>
     <use xlink:href="#DejaVuSans-Bold-50f9" x="1079.443359"/>
     <use xlink:href="#DejaVuSans-Bold-5206" x="1139.453125"/>
     <use xlink:href="#DejaVuSans-Bold-6790" x="1199.462891"/>
    </g>
    <!-- (長期資料: 126 點, 2025-07-11 ~ 2026-01-12 | 日資料: 最近1年) -->
    <g transform="translate(499.891328 31.703375) scale(0.13 -0.13)">
     <defs>
      <path id="DejaVuSans-Bold-6599" d="M 319 -1131 
L 319 4513 
L 3519 4513 
L 3519 -1131 
L 319 -1131 
z
M 678 -775 
L 3163 -775 
L 3163 4153 
L 678 4153 
L 678 -775 
z
" transform="scale(0.015625)"/>
      <path id="DejaVuSans-Bold-31" d="M 750 831 
L 1813 831 
L 1813 3847 
L 722 3622 
L 722 4441 
L 1806 4666 
L 2950 4666 
L 2950 831 
L 4013 831 
L 4013 0 
L 750 0 
L 750 831 
z
" transform="scale(0.015625)"/>
      <path id="DejaVuSans-Bold-32" d="M 1844 884 
L 3897 884 
L 3897 0 
L 506 0 
L 506 884 
L 2209 2388 
Q 2438 2594 2547 2791 
Q 2656 2988 2656 3200 
Q 2656 3528 2436 3728 
Q 2216 3928 1850 3928 
Q 1569 3928 1234 3808 
Q 900 3688 519 3450 
L 519 4475 
Q 925 4609 1322 4679 
Q 1719 4750 2100 4750 
Q 2938 4750 3402 4381 
Q 3866 4013 3866 3353 
Q 3866 2972 3669 2642 
Q 3472 2313 2841 1759 
L 1844 884 
z
" transform="scale(0.015625)"/>
      <path id="DejaVuSans-Bold-36" d="M 2316 2303 
Q 2000 2303 1842 2098 
Q 1684 1894 1684 1484 
Q 1684 1075 1842 870 
Q 2000 666 2316 666 
Q 2634 666 2792 870 
Q 2950 1075 2950 1484 
Q 2950 1894 2792 2098 
Q 2634 2303 2316 2303 
z
M 3803 4544 
L 3803 3681 
Q 3506 3822 3243 3889 
Q 2981 3956 2731 3956 
Q 2194 3956 1894 3657 
Q 1594 3359 1544 2772 
Q 1750 2925 1990 3001 
Q 2231 3078 2516 3078 
Q 3231 3078 3670 2659 
Q 4109 2241 4109 1563 
Q 4109 813 3618 361 
Q 3128 -91 2303 -91 
Q 1394 -91 895 523 
Q 397 1138 397 2266 
Q 397 3422 980 4083 
Q 1563 4744 2578 4744 
Q 2900 4744 3203 4694 
Q 3506 4644 3803 4544 
z
" transform="scale(0.015625)"/>
      <path id="DejaVuSans-Bold-9ede" d="M 319 -1131 
L 319 4513 
L 3519 4513 
L 3519 -1131 
L 319 -1131 
z
M 678 -775 
L 3163 -775 
L 3163 4153 
L 678 4153 
L 678 -775 
z
" transform="scale(0.015625)"/>
      <path id="DejaVuSans-Bold-2c" d="M 653 1209 
L 1778 1209 
L 1778 256 
L 1006 -909 
L 341 -909 
L 653 256 
L 653 1209 
z
" transform="scale(0.015625)"/>
      <path id="DejaVuSans-Bold-30" d="M 2944 2338 
Q 2944 3213 2780 3570 
Q 2616 3928 2228 3928 
Q 1841 3928 1675 3570 
Q 1509 3213 1509 2338 
Q 1509 1453 1675 1090 
Q 1841 728 2228 728 
Q 2613 728 2778 1090 
Q 2944 1453 2944 2338 
z
M 4147 2328 
Q 4147 1169 3647 539 
Q 3147 -91 2228 -91 
Q 1306 -91 806 539 
Q 306 1169 306 2328 
Q 306 3491 806 4120 
Q 1306 4750 2228 4750 
Q 3147 4750 3647 4120 
Q 4147 3491 4147 2328 
z
" transform="scale(0.015625)"/>
      <path id="DejaVuSans-Bold-35" d="M 678 4666 
L 3669 4666 
L 3669 3781 
L 1638 3781 
L 1638 3059 
Q 1775 3097 1914 3117 
Q 2053 3138 2203 3138 
Q 3056 3138 3531 2711 
Q 4006 2284 4006 1522 
Q 4006 766 3489 337 
Q 2972 -91 2053 -91 
Q 1656 -91 1267 -14 
Q 878 63 494 219 
L 494 1166 
Q 875 947 1217 837 
Q 1559 728 1863 728 
Q 2300 728 2551 942 
Q 2803 1156 2803 1522 
Q 2803 1891 2551 2103 
Q 2300 2316 1863 2316 
Q 1603 2316 1309 2248 
Q 1016 2181 678 2041 
L 678 4666 
z
" transform="scale(0.015625)"/>
      <path id="DejaVuSans-Bold-2d" d="M 347 2297 
L 2309 2297 
L 2309 1388 
L 347 1388 
L 347 2297 
z
" transform="scale(0.015625)"/>
      <path id="DejaVuSans-Bold-7e" d="M 4684 2656 
L 4684 1894 
Q 4353 1644 4073 1536 
Q 3794 1428 3494 1428 
Q 3159 1428 2713 1609 
Q 2669 1628 2644 1638 
Q 2622 1647 2575 1666 
Q 2091 1856 1797 1856 
Q 1522 1856 1253 1736 
Q 984 1616 678 1356 
L 678 2119 
Q 1013 2369 1291 2476 
Q 1569 2584 1869 2584 
Q 2203 2584 2650 2403 
Q 2697 2384 2719 2375 
Q 2741 2366 2788 2347 
Q 3272 2156 3566 2156 
Q 3834 2156 4098 2273 
Q 4363 2391 4684 2656 
z
" transform="scale(0.015625)"/>
      <path id="DejaVuSans-Bold-7c" d="M 1522 4891 
L 1522 -1509 
L 813 -1509 
L 813 4891 
L 1522 4891 
z
" transform="scale(0.015625)"/>
      <path id="DejaVuSans-Bold-6700" d="M 319 -1131 
L 319 4513 
L 3519 4513 
L 3519 -1131 
L 319 -1131 
z
M 678 -775 
L 3163 -775 
L 3163 4153 
L 678 4153 
L 678 -775 
z
" transform="scale(0.015625)"/>
      <path id="DejaVuSans-Bold-8fd1" d="M 319 -1131 
L 319 4513 
L 3519 4513 
L 3519 -1131 
L 319 -1131 
z
M 678 -775 
L 3163 -775 
L 3163 4153 
L 678 4153 
L 678 -775 
z
" transform="scale(0.015625)"/>
      <path id="DejaVuSans-Bold-5e74" d="M 319 -1131 
L 319 4513 
L 3519 4513 
L 3519 -1131 
L 319 -1131 
z
M 678 -775 
L 3163 -775 
L 3163 4153 
L 678 4153 
L 678 -775 
z
" transform="scale(0.015625)"/>
     </defs>
     <use xlink:href="#DejaVuSans-Bold-28"/>
     <use xlink:href="#DejaVuSans-Bold-9577" x="45.703125"/>
     <use xlink:href="#DejaVuSans-Bold-671f" x="105.712891"/>
     <use xlink:href="#DejaVuSans-Bold-8cc7" x="165.722656"/>
     <use xlink:href="#DejaVuSans-Bold-6599" x="225.732422"/>
     <use xlink:href="#DejaVuSans-Bold-3a" x="285.742188"/>
     <use xlink:href="#DejaVuSans-Bold-20" x="325.732422"/>
     <use xlink:href="#DejaVuSans-Bold-31" x="360.546875"/>
     <use xlink:href="#DejaVuSans-Bold-32" x="430.126953"/>
     <use xlink:href="#DejaVuSans-Bold-36" x="499.707031"/>
     <use xlink:href="#DejaVuSans-Bold-20" x="569.287109"/>
     <use xlink:href="#DejaVuSans-Bold-9ede" x="604.101562"/>
     <use xlink:href="#DejaVuSans-Bold-2c" x="664.111328"/>
     <use xlink:href="#DejaVuSans-Bold-20" x="702.099609"/>
     <use xlink:href="#DejaVuSans-Bold-32" x="736.914062"/>
     <use xlink:href="#DejaVuSans-Bold-30" x="806.494141"/>
     <use xlink:href="#DejaVuSans-Bold-32" x="876.074219"/>
     <use xlink:href="#DejaVuSans-Bold-35" x="945.654297"/>
     <use xlink:href="#DejaVuSans-Bold-2d" x="1015.234375"/>
     <use xlink:href="#DejaVuSans-Bold-30" x="1056.738281"/>
     <use xlink:href="#DejaVuSans-Bold-37" x="1126.318359"/>
     <use xlink:href="#DejaVuSans-Bold-2d" x="1195.898438"/>
     <use xlink:href="#DejaVuSans-Bold-31" x="1237.402344"/>
     <use xlink:href="#DejaVuSans-Bold-31" x="1306.982422"/>
     <use xlink:href="#DejaVuSans-Bold-20" x="1376.5625"/>
     <use xlink:href="#DejaVuSans-Bold-7e" x="1411.376953"/>
     <use xlink:href="#DejaVuSans-Bold-20" x="1495.166016"/>
     <use xlink:href="#DejaVuSans-Bold-32" x="1529.980469"/>
     <use xlink:href="#DejaVuSans-Bold-30" x="1599.560547"/>
     <use xlink:href="#DejaVuSans-Bold-32" x="1669.140625"/>
     <use xlink:href="#DejaVuSans-Bold-36" x="1738.720703"/>
     <use xlink:href="#DejaVuSans-Bold-2d" x="1808.300781"/>
     <use xlink:href="#DejaVuSans-Bold-30" x="1849.804688"/>
     <use xlink:href="#DejaVuSans-Bold-31" x="1919.384766"/>
     <use xlink:href="#DejaVuSans-Bold-2d" x="1988.964844"/>
     <use xlink:href="#DejaVuSans-Bold-31" x="2030.46875"/>
     <use xlink:href="#DejaVuSans-Bold-32" x="2100.048828"/>
     <use xlink:href="#DejaVuSans-Bold-20" x="2169.628906"/>
     <use xlink:href="#DejaVuSans-Bold-7c" x="2204.443359"/>
     <use xlink:href="#DejaVuSans-Bold-20" x="2240.966797"/>
     <use xlink:href="#DejaVuSans-Bold-65e5" x="2275.78125"/>
     <use xlink:href="#DejaVuSans-Bold-8cc7" x="2335.791016"/>
     <use xlink:href="#DejaVuSans-Bold-6599" x="2395.800781"/>
     <use xlink:href="#DejaVuSans-Bold-3a" x="2455.810547"/>
     <use xlink:href="#DejaVuSans-Bold-20" x="2495.800781"/>
     <use xlink:href="#DejaVuSans-Bold-6700" x="2530.615234"/>
     <use xlink:href="#DejaVuSans-Bold-8fd1" x="2590.625"/>
     <use xlink:href="#DejaVuSans-Bold-31" x="2650.634766"/>
     <use xlink:href="#DejaVuSans-Bold-5e74" x="2720.214844"/>
     <use xlink:href="#DejaVuSans-Bold-29" x="2780.224609"/>
    </g>
    <!--  -->
    <g transform="translate(683.57625 46.622094) scale(0.13 -0.13)"/>
    <!-- 最新融資餘額: 0.0 億元 | 最新收盤價: 121.00 元 | 歷史區間: 0.0~2.8 億元 | 平均: 0.2 億元 -->
    <g transform="translate(464.167734 61.2475) scale(0.13 -0.13)">
     <defs>
      <path id="DejaVuSans-Bold-65b0" d="M 319 -1131 
L 319 4513 
L 3519 4513 
L 3519 -1131 
L 319 -1131 
z
M 678 -775 
L 3163 -775 
L 3163 4153 
L 678 4153 
L 678 -775 
z
" transform="scale(0.015625)"/>
      <path id="DejaVuSans-Bold-2e" d="M 653 1209 
L 1778 1209 
L 1778 0 
L 653 0 
L 653 1209 
z
" transform="scale(0.015625)"/>
      <path id="DejaVuSans-Bold-6b77" d="M 319 -1131 
L 319 4513 
L 3519 4513 
L 3519 -1131 
L 319 -1131 
z
M 678 -775 
L 3163 -775 
L 3163 4153 
L 678 4153 
L 678 -775 
z
" transform="scale(0.015625)"/>
      <path id="DejaVuSans-Bold-53f2" d="M 319 -1131 
L 319 4513 
L 3519 4513 
L 3519 -1131 
L 319 -1131 
z
M 678 -775 
L 3163 -775 
L 3163 4153 
L 678 4153 
L 678 -775 
z
" transform="scale(0.015625)"/>
      <path id="DejaVuSans-Bold-5340" d="M 319 -1131 
L 319 4513 
L 3519 4513 
L 3519 -1131 
L 319 -1131 
z
M 678 -775 
L 3163 -775 
L 3163 4153 
L 678 4153 
L 678 -775 
z
" transform="scale(0.015625)"/>
      <path id="DejaVuSans-Bold-9593" d="M 319 -1131 
L 319 4513 
L 3519 4513 
L 3519 -1131 
L 319 -1131 
z
M 678 -775 
L 3163 -775 
L 3163 4153 
L 678 4153 
L 678 -775 
z
" transform="scale(0.015625)"/>
      <path id="DejaVuSans-Bold-38" d="M 2228 2088 
Q 1891 2088 1709 1903 
Q 1528 1719 1528 1375 
Q 1528 1031 1709 848 
Q 1891 666 2228 666 
Q 2563 666 2741 848 
Q 2919 1031 2919 1375 
Q 2919 1722 2741 1905 
Q 2563 2088 2228 2088 
z
M 1350 2484 
Q 925 2613 709 2878 
Q 494 3144 494 3541 
Q 494 4131 934 4440 
Q 1375 4750 2228 4750 
Q 3075 4750 3515 4442 
Q 3956 4134 3956 3541 
Q 3956 3144 3739 2878 
Q 3522 2613 3097 2484 
Q 3572 2353 3814 2058 
Q 4056 1763 4056 1313 
Q 4056 619 3595 264 
Q 3134 -91 2228 -91 
Q 1319 -91 855 264 
Q 391 619 391 1313 
Q 391 1763 633 2058 
Q 875 2353 1350 2484 
z
M 1631 3419 
Q 1631 3141 1786 2991 
Q 1941 2841 2228 2841 
Q 2509 2841 2662 2991 
Q 2816 3141 2816 3419 
Q 2816 3697 2662 3845 
Q 2509 3994 2228 3994 
Q 1941 3994 1786 3844 
Q 1631 3694 1631 3419 
z
" transform="scale(0.015625)"/>
      <path id="DejaVuSans-Bold-5e73" d="M 319 -1131 
L 319 4513 
L 3519 4513 
L 3519 -1131 
L 319 -1131 
z
M 678 -775 
L 3163 -775 
L 3163 4153 
L 678 4153 
L 678 -775 
z
" transform="scale(0.015625)"/>
      <path id="DejaVuSans-Bold-5747" d="M 319 -1131 
L 319 4513 
L 3519 4513 
L 3519 -1131 
L 319 -1131 
z
M 678 -775 
L 3163 -775 
L 3163 4153 
L 678 4153 
L 678 -775 
z
" transform="scale(0.015625)"/>
     </defs>
     <use xlink:href="#DejaVuSans-Bold-6700"/>
     <use xlink:href="#DejaVuSans-Bold-65b0" x="60.009766"/>
     <use xlink:href="#DejaVuSans-Bold-878d" x="120.019531"/>
     <use xlink:href="#DejaVuSans-Bold-8cc7" x="180.029297"/>
     <use xlink:href="#DejaVuSans-Bold-9918" x="240.039062"/>
     <use xlink:href="#DejaVuSans-Bold-984d" x="300.048828"/>
     <use xlink:href="#DejaVuSans-Bold-3a" x="360.058594"/>
     <use xlink:href="#DejaVuSans-Bold-20" x="400.048828"/>
     <use xlink:href="#DejaVuSans-Bold-30" x="434.863281"/>
     <use xlink:href="#DejaVuSans-Bold-2e" x="504.443359"/>
     <use xlink:href="#DejaVuSans-Bold-30" x="542.431641"/>
     <use xlink:href="#DejaVuSans-Bold-20" x="612.011719"/>
     <use xlink:href="#DejaVuSans-Bold-5104" x="646.826172"/>
     <use xlink:href="#DejaVuSans-Bold-5143" x="706.835938"/>
     <use xlink:href="#DejaVuSans-Bold-20" x="766.845703"/>
     <use xlink:href="#DejaVuSans-Bold-7c" x="801.660156"/>
     <use xlink:href="#DejaVuSans-Bold-20" x="838.183594"/>
     <use xlink:href="#DejaVuSans-Bold-6700" x="872.998047"/>
     <use xlink:href="#DejaVuSans-Bold-65b0" x="933.007812"/>
     <use xlink:href="#DejaVuSans-Bold-6536" x="993.017578"/>
     <use xlink:href="#DejaVuSans-Bold-76e4" x="1053.027344"/>
     <use xlink:href="#DejaVuSans-Bold-50f9" x="1113.037109"/>
     <use xlink:href="#DejaVuSans-Bold-3a" x="1173.046875"/>
     <use xlink:href="#DejaVuSans-Bold-20" x="1213.037109"/>
     <use xlink:href="#DejaVuSans-Bold-31" x="1247.851562"/>
     <use xlink:href="#DejaVuSans-Bold-32" x="1317.431641"/>
     <use xlink:href="#DejaVuSans-Bold-31" x="1387.011719"/>
     <use xlink:href="#DejaVuSans-Bold-2e" x="1456.591797"/>
     <use xlink:href="#DejaVuSans-Bold-30" x="1494.580078"/>
     <use xlink:href="#DejaVuSans-Bold-30" x="1564.160156"/>
     <use xlink:href="#DejaVuSans-Bold-20" x="1633.740234"/>
     <use xlink:href="#DejaVuSans-Bold-5143" x="1668.554688"/>
     <use xlink:href="#DejaVuSans-Bold-20" x="1728.564453"/>
     <use xlink:href="#DejaVuSans-Bold-7c" x="1763.378906"/>
     <use xlink:href="#DejaVuSans-Bold-20" x="1799.902344"/>
     <use xlink:href="#DejaVuSans-Bold-6b77" x="1834.716797"/>
     <use xlink:href="#DejaVuSans-Bold-53f2" x="1894.726562"/>
     <use xlink:href="#DejaVuSans-Bold-5340" x="1954.736328"/>
     <use xlink:href="#DejaVuSans-Bold-9593" x="2014.746094"/>
     <use xlink:href="#DejaVuSans-Bold-3a" x="2074.755859"/>
     <use xlink:href="#DejaVuSans-Bold-20" x="2114.746094"/>
     <use xlink:href="#DejaVuSans-Bold-30" x="2149.560547"/>
     <use xlink:href="#DejaVuSans-Bold-2e" x="2219.140625"/>
     <use xlink:href="#DejaVuSans-Bold-30" x="2257.128906"/>
     <use xlink:href="#DejaVuSans-Bold-7e" x="2326.708984"/>
     <use xlink:href="#DejaVuSans-Bold-32" x="2410.498047"/>
     <use xlink:href="#DejaVuSans-Bold-2e" x="2480.078125"/>
     <use xlink:href="#DejaVuSans-Bold-38" x="2518.066406"/>
     <use xlink:href="#DejaVuSans-Bold-20" x="2587.646484"/>
     <use xlink:href="#DejaVuSans-Bold-5104" x="2622.460938"/>
     <use xlink:href="#DejaVuSans-Bold-5143" x="2682.470703"/>
     <use xlink:href="#DejaVuSans-Bold-20" x="2742.480469"/>
     <use xlink:href="#DejaVuSans-Bold-7c" x="2777.294922"/>
     <use xlink:href="#DejaVuSans-Bold-20" x="2813.818359"/>
     <use xlink:href="#DejaVuSans-Bold-5e73" x="2848.632812"/>
     <use xlink:href="#DejaVuSans-Bold-5747" x="2908.642578"/>
     <use xlink:href="#DejaVuSans-Bold-3a" x="2968.652344"/>
     <use xlink:href="#DejaVuSans-Bold-20" x="3008.642578"/>
     <use xlink:href="#DejaVuSans-Bold-30" x="3043.457031"/>
     <use xlink:href="#DejaVuSans-Bold-2e" x="3113.037109"/>
     <use xlink:href="#DejaVuSans-Bold-32" x="3151.025391"/>
     <use xlink:href="#DejaVuSans-Bold-20" x="3220.605469"/>
     <use xlink:href="#DejaVuSans-Bold-5104" x="3255.419922"/>
     <use xlink:href="#DejaVuSans-Bold-5143" x="3315.429688"/>
    </g>
    <!-- 市值: 33 億元 (當前) | 融資餘額/市值: 0.02% (🟢 低風險) *註:比率使用當前市值估算 -->
    <g transform="translate(498.460312 76.234469) scale(0.13 -0.13)">
     <defs>
      <path id="DejaVuSans-Bold-33" d="M 2981 2516 
Q 3453 2394 3698 2092 
Q 3944 1791 3944 1325 
Q 3944 631 3412 270 
Q 2881 -91 1863 -91 
Q 1503 -91 1142 -33 
Q 781 25 428 141 
L 428 1069 
Q 766 900 1098 814 
Q 1431 728 1753 728 
Q 2231 728 2486 893 
Q 2741 1059 2741 1369 
Q 2741 1688 2480 1852 
Q 2219 2016 1709 2016 
L 1228 2016 
L 1228 2791 
L 1734 2791 
Q 2188 2791 2409 2933 
Q 2631 3075 2631 3366 
Q 2631 3634 2415 3781 
Q 2200 3928 1806 3928 
Q 1516 3928 1219 3862 
Q 922 3797 628 3669 
L 628 4550 
Q 984 4650 1334 4700 
Q 1684 4750 2022 4750 
Q 2931 4750 3382 4451 
Q 3834 4153 3834 3553 
Q 3834 3144 3618 2883 
Q 3403 2622 2981 2516 
z
" transform="scale(0.015625)"/>
      <path id="DejaVuSans-Bold-7576" d="M 319 -1131 
L 319 4513 
L 3519 4513 
L 3519 -1131 
L 319 -1131 
z
M 678 -775 
L 3163 -775 
L 3163 4153 
L 678 4153 
L 678 -775 
z
" transform="scale(0.015625)"/>
      <path id="DejaVuSans-Bold-524d" d="M 319 -1131 
L 319 4513 
L 3519 4513 
L 3519 -1131 
L 319 -1131 
z
M 678 -775 
L 3163 -775 
L 3163 4153 
L 678 4153 
L 678 -775 
z
" transform="scale(0.015625)"/>
      <path id="DejaVuSans-Bold-1f7e2" d="M 319 -1131 
L 319 4513 
L 3519 4513 
L 3519 -1131 
L 319 -1131 
z
M 678 -775 
L 3163 -775 
L 3163 4153 
L 678 4153 
L 678 -775 
z
" transform="scale(0.015625)"/>
      <path id="DejaVuSans-Bold-4f4e" d="M 319 -1131 
L 319 4513 
L 3519 4513 
L 3519 -1131 
L 319 -1131 
z
M 678 -775 
L 3163 -775 
L 3163 4153 
L 678 4153 
L 678 -775 
z
" transform="scale(0.015625)"/>
      <path id="DejaVuSans-Bold-98a8" d="M 319 -1131 
L 319 4513 
L 3519 4513 
L 3519 -1131 
L 319 -1131 
z
M 678 -775 
L 3163 -775 
L 3163 4153 
L 678 4153 
L 678 -775 
z
" transform="scale(0.015625)"/>
      <path id="DejaVuSans-Bold-96aa" d="M 319 -1131 
L 319 4513 
L 3519 4513 
L 3519 -1131 
L 319 -1131 
z
M 678 -775 
L 3163 -775 
L 3163 4153 
L 678 4153 
L 678 -775 
z
" transform="scale(0.015625)"/>
      <path id="DejaVuSans-Bold-2a" d="M 3219 3803 
L 2188 3263 
L 3219 2719 
L 2981 2278 
L 1941 2853 
L 1941 1778 
L 1409 1778 
L 1409 2853 
L 366 2278 
L 128 2719 
L 1172 3263 
L 128 3803 
L 366 4244 
L 1409 3675 
L 1409 4750 
L 1941 4750 
L 1941 3675 
L 2981 4244 
L 3219 3803 
z
" transform="scale(0.015625)"/>
      <path id="DejaVuSans-Bold-8a3b" d="M 319 -1131 
L 319 4513 
L 3519 4513 
L 3519 -1131 
L 319 -1131 
z
M 678 -775 
L 3163 -775 
L 3163 4153 
L 678 4153 
L 678 -775 
z
" transform="scale(0.015625)"/>
      <path id="DejaVuSans-Bold-6bd4" d="M 319 -1131 
L 319 4513 
L 3519 4513 
L 3519 -1131 
L 319 -1131 
z
M 678 -775 
L 3163 -775 
L 3163 4153 
L 678 4153 
L 678 -775 
z
" transform="scale(0.015625)"/>
      <path id="DejaVuSans-Bold-7387" d="M 319 -1131 
L 319 4513 
L 3519 4513 
L 3519 -1131 
L 319 -1131 
z
M 678 -775 
L 3163 -775 
L 3163 4153 
L 678 4153 
L 678 -775 
z
" transform="scale(0.015625)"/>
      <path id="DejaVuSans-Bold-4f7f" d="M 319 -1131 
L 319 4513 
L 3519 4513 
L 3519 -1131 
L 319 -1131 
z
M 678 -775 
L 3163 -775 
L 3163 4153 
L 678 4153 
L 678 -775 
z
" transform="scale(0.015625)"/>
      <path id="DejaVuSans-Bold-7528" d="M 319 -1131 
L 319 4513 
L 3519 4513 
L 3519 -1131 
L 319 -1131 
z
M 678 -775 
L 3163 -775 
L 3163 4153 
L 678 4153 
L 678 -775 
z
" transform="scale(0.015625)"/>
      <path id="DejaVuSans-Bold-4f30" d="M 319 -1131 
L 319 4513 
L 3519 4513 
L 3519 -1131 
L 319 -1131 
z
M 678 -775 
L 3163 -775 
L 3163 4153 
L 678 4153 
L 678 -775 
z
" transform="scale(0.015625)"/>
      <path id="DejaVuSans-Bold-7b97" d="M 319 -1131 
L 319 4513 
L 3519 4513 
L 3519 -1131 
L 319 -1131 
z
M 678 -775 
L 3163 -775 
L 3163 4153 
L 678 4153 
L 678 -775 
z
" transform="scale(0.015625)"/>
     </defs>
     <use xlink:href="#DejaVuSans-Bold-5e02"/>
     <use xlink:href="#DejaVuSans-Bold-503c" x="60.009766"/>
     <use xlink:href="#DejaVuSans-Bold-3a" x="120.019531"/>
     <use xlink:href="#DejaVuSans-Bold-20" x="160.009766"/>
     <use xlink:href="#DejaVuSans-Bold-33" x="194.824219"/>
     <use xlink:href="#DejaVuSans-Bold-33" x="264.404297"/>
     <use xlink:href="#DejaVuSans-Bold-20" x="333.984375"/>
     <use xlink:href="#DejaVuSans-Bold-5104" x="368.798828"/>
     <use xlink:href="#DejaVuSans-Bold-5143" x="428.808594"/>
     <use xlink:href="#DejaVuSans-Bold-20" x="488.818359"/>
     <use xlink:href="#DejaVuSans-Bold-28" x="523.632812"/>
     <use xlink:href="#DejaVuSans-Bold-7576" x="569.335938"/>
     <use xlink:href="#DejaVuSans-Bold-524d" x="629.345703"/>
     <use xlink:href="#DejaVuSans-Bold-29" x="689.355469"/>
     <use xlink:href="#DejaVuSans-Bold-20" x="735.058594"/>
     <use xlink:href="#DejaVuSans-Bold-7c" x="769.873047"/>
     <use xlink:href="#DejaVuSans-Bold-20" x="806.396484"/>
     <use xlink:href="#DejaVuSans-Bold-878d" x="841.210938"/>
     <use xlink:href="#DejaVuSans-Bold-8cc7" x="901.220703"/>
     <use xlink:href="#DejaVuSans-Bold-9918" x="961.230469"/>
     <use xlink:href="#DejaVuSans-Bold-984d" x="1021.240234"/>
     <use xlink:href="#DejaVuSans-Bold-2f" x="1081.25"/>
     <use xlink:href="#DejaVuSans-Bold-5e02" x="1117.773438"/>
     <use xlink:href="#DejaVuSans-Bold-503c" x="1177.783203"/>
     <use xlink:href="#DejaVuSans-Bold-3a" x="1237.792969"/>
     <use xlink:href="#DejaVuSans-Bold-20" x="1277.783203"/>
     <use xlink:href="#DejaVuSans-Bold-30" x="1312.597656"/>
     <use xlink:href="#DejaVuSans-Bold-2e" x="1382.177734"/>
     <use xlink:href="#DejaVuSans-Bold-30" x="1420.166016"/>
     <use xlink:href="#DejaVuSans-Bold-32" x="1489.746094"/>
     <use xlink:href="#DejaVuSans-Bold-25" x="1559.326172"/>
     <use xlink:href="#DejaVuSans-Bold-20" x="1659.521484"/>
     <use xlink:href="#DejaVuSans-Bold-28" x="1694.335938"/>
     <use xlink:href="#DejaVuSans-Bold-1f7e2" x="1740.039062"/>
     <use xlink:href="#DejaVuSans-Bold-20" x="1800.048828"/>
     <use xlink:href="#DejaVuSans-Bold-4f4e" x="1834.863281"/>
     <use xlink:href="#DejaVuSans-Bold-98a8" x="1894.873047"/>
     <use xlink:href="#DejaVuSans-Bold-96aa" x="1954.882812"/>
     <use xlink:href="#DejaVuSans-Bold-29" x="2014.892578"/>
     <use xlink:href="#DejaVuSans-Bold-20" x="2060.595703"/>
     <use xlink:href="#DejaVuSans-Bold-2a" x="2095.410156"/>
     <use xlink:href="#DejaVuSans-Bold-8a3b" x="2147.705078"/>
     <use xlink:href="#DejaVuSans-Bold-3a" x="2207.714844"/>
     <use xlink:href="#DejaVuSans-Bold-6bd4" x="2247.705078"/>
     <use xlink:href="#DejaVuSans-Bold-7387" x="2307.714844"/>
     <use xlink:href="#DejaVuSans-Bold-4f7f" x="2367.724609"/>
     <use xlink:href="#DejaVuSans-Bold-7528" x="2427.734375"/>
     <use xlink:href="#DejaVuSans-Bold-7576" x="2487.744141"/>
     <use xlink:href="#DejaVuSans-Bold-524d" x="2547.753906"/>
     <use xlink:href="#DejaVuSans-Bold-5e02" x="2607.763672"/>
     <use xlink:href="#DejaVuSans-Bold-503c" x="2667.773438"/>
     <use xlink:href="#DejaVuSans-Bold-4f30" x="2727.783203"/>
     <use xlink:href="#DejaVuSans-Bold-7b97" x="2787.792969"/>
    </g>
   </g>
   <g id="line2d_34">
    <path d="M 111.239545 424.971482 
L 129.801817 570.907076 
L 135.98924 591.984881 
L 142.176664 597.962486 
L 148.364088 615.273295 
L 154.551512 608.10237 
L 173.113784 595.029676 
L 179.301207 614.40414 
L 185.488631 627.270941 
L 191.676055 630.645401 
L 197.863479 626.720056 
L 216.42575 604.016711 
L 222.613174 617.025751 
L 228.800598 629.696874 
L 234.988022 615.729877 
L 241.175446 607.522409 
L 259.737717 623.728307 
L 265.925141 623.761313 
L 272.112565 623.186067 
L 278.299989 630.706698 
L 284.487413 629.096481 
L 303.049684 631.659547 
L 309.237108 625.639506 
L 315.424532 621.43754 
L 321.611956 627.22929 
L 327.799379 636.061119 
L 346.361651 629.692945 
L 352.549075 635.65444 
L 358.736499 623.893337 
L 364.923922 632.02104 
L 371.111346 637.793536 
L 389.673618 625.16485 
L 395.861042 639.238723 
L 402.048465 639.326739 
L 408.235889 635.93499 
L 414.423313 637.541277 
L 432.985585 634.676836 
L 439.173008 639.574283 
L 445.360432 622.879191 
L 451.547856 637.930275 
L 457.73528 636.345206 
L 476.297551 637.849725 
L 482.484975 637.671729 
L 488.672399 638.325167 
L 494.859823 638.968782 
L 501.047247 640.163674 
L 519.609518 639.556995 
L 525.796942 630.008859 
L 531.984366 638.782928 
L 538.17179 639.670158 
L 544.359214 524.282311 
L 562.921485 624.308268 
L 569.108909 637.070943 
L 575.296333 637.909843 
L 581.483757 640.853655 
L 587.671181 638.830865 
L 612.420876 637.403752 
L 618.6083 609.073687 
L 624.795724 632.722415 
L 630.983147 631.30159 
L 655.732843 637.864263 
L 661.920267 639.20336 
L 668.10769 639.730275 
L 692.857386 638.959745 
L 699.04481 632.452867 
L 705.232233 642.592359 
L 711.419657 642.580571 
L 717.607081 643.471337 
L 736.169353 633.509842 
L 742.356776 638.048939 
L 748.5442 638.814362 
L 754.731624 626.731844 
L 779.481319 630.271727 
L 785.668743 623.429682 
L 791.856167 577.213561 
L 798.043591 641.641474 
L 804.231015 592.522013 
L 822.793286 640.993537 
L 828.98071 642.343636 
L 835.168134 642.393144 
L 841.355558 643.614363 
L 847.542982 639.729883 
L 866.105253 641.48784 
L 872.292677 643.199432 
L 878.480101 635.373104 
L 884.667525 642.81672 
L 890.854949 643.008469 
L 909.41722 643.509844 
L 915.604644 640.944421 
L 921.792068 642.811219 
L 927.979492 643.410826 
L 934.166915 643.4234 
L 952.729187 642.213184 
L 958.916611 643.215149 
L 965.104035 643.626151 
L 971.291458 637.538134 
L 977.478882 637.912593 
L 996.041154 643.118488 
L 1002.228578 644.022222 
L 1008.416001 643.919667 
L 1014.603425 643.824186 
L 1020.790849 634.769567 
L 1039.353121 642.534991 
L 1045.540544 641.583321 
L 1051.727968 642.328704 
L 1057.915392 635.644616 
L 1064.102816 615.22693 
L 1082.665087 641.13892 
L 1088.852511 643.266229 
L 1095.039935 643.556603 
L 1101.227359 644.129491 
L 1107.414783 644.034795 
L 1125.977054 643.942064 
L 1132.164478 643.178999 
L 1138.351902 640.641474 
L 1150.72675 630.686265 
L 1169.289021 642.110237 
L 1175.476445 640.820649 
L 1181.663869 643.483125 
L 1194.038716 638.91613 
L 1212.600988 643.383322 
L 1218.788412 642.176249 
L 1224.975836 643.196288 
L 1231.16326 634.700412 
L 1237.350683 643.479982 
L 1255.912955 643.74953 
" clip-path="url(#p426aea5a5c)" style="fill: none; stroke: #ff0000; stroke-width: 2.5; stroke-linecap: square"/>
   </g>
  </g>
 </g>
 <defs>
  <clipPath id="p426aea5a5c">
   <rect x="48.90125" y="96.234469" width="1269.35" height="547.990503"/>
  </clipPath>
 </defs>
</svg>
