<?xml version="1.0" encoding="utf-8" standalone="no"?>
<!DOCTYPE svg PUBLIC "-//W3C//DTD SVG 1.1//EN"
  "http://www.w3.org/Graphics/SVG/1.1/DTD/svg11.dtd">
<svg xmlns:xlink="http://www.w3.org/1999/xlink" width="1430.29625pt" height="709.728888pt" viewBox="0 0 1430.29625 709.728888" xmlns="http://www.w3.org/2000/svg" version="1.1">
 <metadata>
  <rdf:RDF xmlns:dc="http://purl.org/dc/elements/1.1/" xmlns:cc="http://creativecommons.org/ns#" xmlns:rdf="http://www.w3.org/1999/02/22-rdf-syntax-ns#">
   <cc:Work>
    <dc:type rdf:resource="http://purl.org/dc/dcmitype/StillImage"/>
    <dc:date>2026-01-11T12:08:49.950060</dc:date>
    <dc:format>image/svg+xml</dc:format>
    <dc:creator>
     <cc:Agent>
      <dc:title>Matplotlib v3.9.4, https://matplotlib.org/</dc:title>
     </cc:Agent>
    </dc:creator>
   </cc:Work>
  </rdf:RDF>
 </metadata>
 <defs>
  <style type="text/css">*{stroke-linejoin: round; stroke-linecap: butt}</style>
 </defs>
 <g id="figure_1">
  <g id="patch_1">
   <path d="M 0 709.728888 
L 1430.29625 709.728888 
L 1430.29625 0 
L 0 0 
z
" style="fill: #ffffff"/>
  </g>
  <g id="axes_1">
   <g id="patch_2">
    <path d="M 52.079375 652.693736 
L 1384.579375 652.693736 
L 1384.579375 80.817687 
L 52.079375 80.817687 
z
" style="fill: #ffffff"/>
   </g>
   <g id="matplotlib.axis_1">
    <g id="xtick_1">
     <g id="line2d_1">
      <defs>
       <path id="m59323cdbf7" d="M 0 0 
L 0 3.5 
" style="stroke: #000000; stroke-width: 0.8"/>
      </defs>
      <g>
       <use xlink:href="#m59323cdbf7" x="83.478744" y="652.693736" style="stroke: #000000; stroke-width: 0.8"/>
      </g>
     </g>
     <g id="text_1">
      <!-- 07/13 -->
      <g transform="translate(61.630249 685.444576) rotate(-45) scale(0.1 -0.1)">
       <defs>
        <path id="DejaVuSans-30" d="M 2034 4250 
Q 1547 4250 1301 3770 
Q 1056 3291 1056 2328 
Q 1056 1369 1301 889 
Q 1547 409 2034 409 
Q 2525 409 2770 889 
Q 3016 1369 3016 2328 
Q 3016 3291 2770 3770 
Q 2525 4250 2034 4250 
z
M 2034 4750 
Q 2819 4750 3233 4129 
Q 3647 3509 3647 2328 
Q 3647 1150 3233 529 
Q 2819 -91 2034 -91 
Q 1250 -91 836 529 
Q 422 1150 422 2328 
Q 422 3509 836 4129 
Q 1250 4750 2034 4750 
z
" transform="scale(0.015625)"/>
        <path id="DejaVuSans-37" d="M 525 4666 
L 3525 4666 
L 3525 4397 
L 1831 0 
L 1172 0 
L 2766 4134 
L 525 4134 
L 525 4666 
z
" transform="scale(0.015625)"/>
        <path id="DejaVuSans-2f" d="M 1625 4666 
L 2156 4666 
L 531 -594 
L 0 -594 
L 1625 4666 
z
" transform="scale(0.015625)"/>
        <path id="DejaVuSans-31" d="M 794 531 
L 1825 531 
L 1825 4091 
L 703 3866 
L 703 4441 
L 1819 4666 
L 2450 4666 
L 2450 531 
L 3481 531 
L 3481 0 
L 794 0 
L 794 531 
z
" transform="scale(0.015625)"/>
        <path id="DejaVuSans-33" d="M 2597 2516 
Q 3050 2419 3304 2112 
Q 3559 1806 3559 1356 
Q 3559 666 3084 287 
Q 2609 -91 1734 -91 
Q 1441 -91 1130 -33 
Q 819 25 488 141 
L 488 750 
Q 750 597 1062 519 
Q 1375 441 1716 441 
Q 2309 441 2620 675 
Q 2931 909 2931 1356 
Q 2931 1769 2642 2001 
Q 2353 2234 1838 2234 
L 1294 2234 
L 1294 2753 
L 1863 2753 
Q 2328 2753 2575 2939 
Q 2822 3125 2822 3475 
Q 2822 3834 2567 4026 
Q 2313 4219 1838 4219 
Q 1578 4219 1281 4162 
Q 984 4106 628 3988 
L 628 4550 
Q 988 4650 1302 4700 
Q 1616 4750 1894 4750 
Q 2613 4750 3031 4423 
Q 3450 4097 3450 3541 
Q 3450 3153 3228 2886 
Q 3006 2619 2597 2516 
z
" transform="scale(0.015625)"/>
       </defs>
       <use xlink:href="#DejaVuSans-30"/>
       <use xlink:href="#DejaVuSans-37" x="63.623047"/>
       <use xlink:href="#DejaVuSans-2f" x="127.246094"/>
       <use xlink:href="#DejaVuSans-31" x="160.9375"/>
       <use xlink:href="#DejaVuSans-33" x="224.560547"/>
      </g>
     </g>
    </g>
    <g id="xtick_2">
     <g id="line2d_2">
      <g>
       <use xlink:href="#m59323cdbf7" x="131.521494" y="652.693736" style="stroke: #000000; stroke-width: 0.8"/>
      </g>
     </g>
     <g id="text_2">
      <!-- 07/20 -->
      <g transform="translate(109.673 685.444576) rotate(-45) scale(0.1 -0.1)">
       <defs>
        <path id="DejaVuSans-32" d="M 1228 531 
L 3431 531 
L 3431 0 
L 469 0 
L 469 531 
Q 828 903 1448 1529 
Q 2069 2156 2228 2338 
Q 2531 2678 2651 2914 
Q 2772 3150 2772 3378 
Q 2772 3750 2511 3984 
Q 2250 4219 1831 4219 
Q 1534 4219 1204 4116 
Q 875 4013 500 3803 
L 500 4441 
Q 881 4594 1212 4672 
Q 1544 4750 1819 4750 
Q 2544 4750 2975 4387 
Q 3406 4025 3406 3419 
Q 3406 3131 3298 2873 
Q 3191 2616 2906 2266 
Q 2828 2175 2409 1742 
Q 1991 1309 1228 531 
z
" transform="scale(0.015625)"/>
       </defs>
       <use xlink:href="#DejaVuSans-30"/>
       <use xlink:href="#DejaVuSans-37" x="63.623047"/>
       <use xlink:href="#DejaVuSans-2f" x="127.246094"/>
       <use xlink:href="#DejaVuSans-32" x="160.9375"/>
       <use xlink:href="#DejaVuSans-30" x="224.560547"/>
      </g>
     </g>
    </g>
    <g id="xtick_3">
     <g id="line2d_3">
      <g>
       <use xlink:href="#m59323cdbf7" x="179.564245" y="652.693736" style="stroke: #000000; stroke-width: 0.8"/>
      </g>
     </g>
     <g id="text_3">
      <!-- 07/27 -->
      <g transform="translate(157.71575 685.444576) rotate(-45) scale(0.1 -0.1)">
       <use xlink:href="#DejaVuSans-30"/>
       <use xlink:href="#DejaVuSans-37" x="63.623047"/>
       <use xlink:href="#DejaVuSans-2f" x="127.246094"/>
       <use xlink:href="#DejaVuSans-32" x="160.9375"/>
       <use xlink:href="#DejaVuSans-37" x="224.560547"/>
      </g>
     </g>
    </g>
    <g id="xtick_4">
     <g id="line2d_4">
      <g>
       <use xlink:href="#m59323cdbf7" x="227.606995" y="652.693736" style="stroke: #000000; stroke-width: 0.8"/>
      </g>
     </g>
     <g id="text_4">
      <!-- 08/03 -->
      <g transform="translate(205.758501 685.444576) rotate(-45) scale(0.1 -0.1)">
       <defs>
        <path id="DejaVuSans-38" d="M 2034 2216 
Q 1584 2216 1326 1975 
Q 1069 1734 1069 1313 
Q 1069 891 1326 650 
Q 1584 409 2034 409 
Q 2484 409 2743 651 
Q 3003 894 3003 1313 
Q 3003 1734 2745 1975 
Q 2488 2216 2034 2216 
z
M 1403 2484 
Q 997 2584 770 2862 
Q 544 3141 544 3541 
Q 544 4100 942 4425 
Q 1341 4750 2034 4750 
Q 2731 4750 3128 4425 
Q 3525 4100 3525 3541 
Q 3525 3141 3298 2862 
Q 3072 2584 2669 2484 
Q 3125 2378 3379 2068 
Q 3634 1759 3634 1313 
Q 3634 634 3220 271 
Q 2806 -91 2034 -91 
Q 1263 -91 848 271 
Q 434 634 434 1313 
Q 434 1759 690 2068 
Q 947 2378 1403 2484 
z
M 1172 3481 
Q 1172 3119 1398 2916 
Q 1625 2713 2034 2713 
Q 2441 2713 2670 2916 
Q 2900 3119 2900 3481 
Q 2900 3844 2670 4047 
Q 2441 4250 2034 4250 
Q 1625 4250 1398 4047 
Q 1172 3844 1172 3481 
z
" transform="scale(0.015625)"/>
       </defs>
       <use xlink:href="#DejaVuSans-30"/>
       <use xlink:href="#DejaVuSans-38" x="63.623047"/>
       <use xlink:href="#DejaVuSans-2f" x="127.246094"/>
       <use xlink:href="#DejaVuSans-30" x="160.9375"/>
       <use xlink:href="#DejaVuSans-33" x="224.560547"/>
      </g>
     </g>
    </g>
    <g id="xtick_5">
     <g id="line2d_5">
      <g>
       <use xlink:href="#m59323cdbf7" x="275.649746" y="652.693736" style="stroke: #000000; stroke-width: 0.8"/>
      </g>
     </g>
     <g id="text_5">
      <!-- 08/10 -->
      <g transform="translate(253.801251 685.444576) rotate(-45) scale(0.1 -0.1)">
       <use xlink:href="#DejaVuSans-30"/>
       <use xlink:href="#DejaVuSans-38" x="63.623047"/>
       <use xlink:href="#DejaVuSans-2f" x="127.246094"/>
       <use xlink:href="#DejaVuSans-31" x="160.9375"/>
       <use xlink:href="#DejaVuSans-30" x="224.560547"/>
      </g>
     </g>
    </g>
    <g id="xtick_6">
     <g id="line2d_6">
      <g>
       <use xlink:href="#m59323cdbf7" x="323.692496" y="652.693736" style="stroke: #000000; stroke-width: 0.8"/>
      </g>
     </g>
     <g id="text_6">
      <!-- 08/17 -->
      <g transform="translate(301.844002 685.444576) rotate(-45) scale(0.1 -0.1)">
       <use xlink:href="#DejaVuSans-30"/>
       <use xlink:href="#DejaVuSans-38" x="63.623047"/>
       <use xlink:href="#DejaVuSans-2f" x="127.246094"/>
       <use xlink:href="#DejaVuSans-31" x="160.9375"/>
       <use xlink:href="#DejaVuSans-37" x="224.560547"/>
      </g>
     </g>
    </g>
    <g id="xtick_7">
     <g id="line2d_7">
      <g>
       <use xlink:href="#m59323cdbf7" x="371.735247" y="652.693736" style="stroke: #000000; stroke-width: 0.8"/>
      </g>
     </g>
     <g id="text_7">
      <!-- 08/24 -->
      <g transform="translate(349.886752 685.444576) rotate(-45) scale(0.1 -0.1)">
       <defs>
        <path id="DejaVuSans-34" d="M 2419 4116 
L 825 1625 
L 2419 1625 
L 2419 4116 
z
M 2253 4666 
L 3047 4666 
L 3047 1625 
L 3713 1625 
L 3713 1100 
L 3047 1100 
L 3047 0 
L 2419 0 
L 2419 1100 
L 313 1100 
L 313 1709 
L 2253 4666 
z
" transform="scale(0.015625)"/>
       </defs>
       <use xlink:href="#DejaVuSans-30"/>
       <use xlink:href="#DejaVuSans-38" x="63.623047"/>
       <use xlink:href="#DejaVuSans-2f" x="127.246094"/>
       <use xlink:href="#DejaVuSans-32" x="160.9375"/>
       <use xlink:href="#DejaVuSans-34" x="224.560547"/>
      </g>
     </g>
    </g>
    <g id="xtick_8">
     <g id="line2d_8">
      <g>
       <use xlink:href="#m59323cdbf7" x="419.777997" y="652.693736" style="stroke: #000000; stroke-width: 0.8"/>
      </g>
     </g>
     <g id="text_8">
      <!-- 08/31 -->
      <g transform="translate(397.929503 685.444576) rotate(-45) scale(0.1 -0.1)">
       <use xlink:href="#DejaVuSans-30"/>
       <use xlink:href="#DejaVuSans-38" x="63.623047"/>
       <use xlink:href="#DejaVuSans-2f" x="127.246094"/>
       <use xlink:href="#DejaVuSans-33" x="160.9375"/>
       <use xlink:href="#DejaVuSans-31" x="224.560547"/>
      </g>
     </g>
    </g>
    <g id="xtick_9">
     <g id="line2d_9">
      <g>
       <use xlink:href="#m59323cdbf7" x="467.820748" y="652.693736" style="stroke: #000000; stroke-width: 0.8"/>
      </g>
     </g>
     <g id="text_9">
      <!-- 09/07 -->
      <g transform="translate(445.972253 685.444576) rotate(-45) scale(0.1 -0.1)">
       <defs>
        <path id="DejaVuSans-39" d="M 703 97 
L 703 672 
Q 941 559 1184 500 
Q 1428 441 1663 441 
Q 2288 441 2617 861 
Q 2947 1281 2994 2138 
Q 2813 1869 2534 1725 
Q 2256 1581 1919 1581 
Q 1219 1581 811 2004 
Q 403 2428 403 3163 
Q 403 3881 828 4315 
Q 1253 4750 1959 4750 
Q 2769 4750 3195 4129 
Q 3622 3509 3622 2328 
Q 3622 1225 3098 567 
Q 2575 -91 1691 -91 
Q 1453 -91 1209 -44 
Q 966 3 703 97 
z
M 1959 2075 
Q 2384 2075 2632 2365 
Q 2881 2656 2881 3163 
Q 2881 3666 2632 3958 
Q 2384 4250 1959 4250 
Q 1534 4250 1286 3958 
Q 1038 3666 1038 3163 
Q 1038 2656 1286 2365 
Q 1534 2075 1959 2075 
z
" transform="scale(0.015625)"/>
       </defs>
       <use xlink:href="#DejaVuSans-30"/>
       <use xlink:href="#DejaVuSans-39" x="63.623047"/>
       <use xlink:href="#DejaVuSans-2f" x="127.246094"/>
       <use xlink:href="#DejaVuSans-30" x="160.9375"/>
       <use xlink:href="#DejaVuSans-37" x="224.560547"/>
      </g>
     </g>
    </g>
    <g id="xtick_10">
     <g id="line2d_10">
      <g>
       <use xlink:href="#m59323cdbf7" x="515.863498" y="652.693736" style="stroke: #000000; stroke-width: 0.8"/>
      </g>
     </g>
     <g id="text_10">
      <!-- 09/14 -->
      <g transform="translate(494.015003 685.444576) rotate(-45) scale(0.1 -0.1)">
       <use xlink:href="#DejaVuSans-30"/>
       <use xlink:href="#DejaVuSans-39" x="63.623047"/>
       <use xlink:href="#DejaVuSans-2f" x="127.246094"/>
       <use xlink:href="#DejaVuSans-31" x="160.9375"/>
       <use xlink:href="#DejaVuSans-34" x="224.560547"/>
      </g>
     </g>
    </g>
    <g id="xtick_11">
     <g id="line2d_11">
      <g>
       <use xlink:href="#m59323cdbf7" x="563.906249" y="652.693736" style="stroke: #000000; stroke-width: 0.8"/>
      </g>
     </g>
     <g id="text_11">
      <!-- 09/21 -->
      <g transform="translate(542.057754 685.444576) rotate(-45) scale(0.1 -0.1)">
       <use xlink:href="#DejaVuSans-30"/>
       <use xlink:href="#DejaVuSans-39" x="63.623047"/>
       <use xlink:href="#DejaVuSans-2f" x="127.246094"/>
       <use xlink:href="#DejaVuSans-32" x="160.9375"/>
       <use xlink:href="#DejaVuSans-31" x="224.560547"/>
      </g>
     </g>
    </g>
    <g id="xtick_12">
     <g id="line2d_12">
      <g>
       <use xlink:href="#m59323cdbf7" x="611.948999" y="652.693736" style="stroke: #000000; stroke-width: 0.8"/>
      </g>
     </g>
     <g id="text_12">
      <!-- 09/28 -->
      <g transform="translate(590.100504 685.444576) rotate(-45) scale(0.1 -0.1)">
       <use xlink:href="#DejaVuSans-30"/>
       <use xlink:href="#DejaVuSans-39" x="63.623047"/>
       <use xlink:href="#DejaVuSans-2f" x="127.246094"/>
       <use xlink:href="#DejaVuSans-32" x="160.9375"/>
       <use xlink:href="#DejaVuSans-38" x="224.560547"/>
      </g>
     </g>
    </g>
    <g id="xtick_13">
     <g id="line2d_13">
      <g>
       <use xlink:href="#m59323cdbf7" x="659.991749" y="652.693736" style="stroke: #000000; stroke-width: 0.8"/>
      </g>
     </g>
     <g id="text_13">
      <!-- 10/05 -->
      <g transform="translate(638.143255 685.444576) rotate(-45) scale(0.1 -0.1)">
       <defs>
        <path id="DejaVuSans-35" d="M 691 4666 
L 3169 4666 
L 3169 4134 
L 1269 4134 
L 1269 2991 
Q 1406 3038 1543 3061 
Q 1681 3084 1819 3084 
Q 2600 3084 3056 2656 
Q 3513 2228 3513 1497 
Q 3513 744 3044 326 
Q 2575 -91 1722 -91 
Q 1428 -91 1123 -41 
Q 819 9 494 109 
L 494 744 
Q 775 591 1075 516 
Q 1375 441 1709 441 
Q 2250 441 2565 725 
Q 2881 1009 2881 1497 
Q 2881 1984 2565 2268 
Q 2250 2553 1709 2553 
Q 1456 2553 1204 2497 
Q 953 2441 691 2322 
L 691 4666 
z
" transform="scale(0.015625)"/>
       </defs>
       <use xlink:href="#DejaVuSans-31"/>
       <use xlink:href="#DejaVuSans-30" x="63.623047"/>
       <use xlink:href="#DejaVuSans-2f" x="127.246094"/>
       <use xlink:href="#DejaVuSans-30" x="160.9375"/>
       <use xlink:href="#DejaVuSans-35" x="224.560547"/>
      </g>
     </g>
    </g>
    <g id="xtick_14">
     <g id="line2d_14">
      <g>
       <use xlink:href="#m59323cdbf7" x="708.0345" y="652.693736" style="stroke: #000000; stroke-width: 0.8"/>
      </g>
     </g>
     <g id="text_14">
      <!-- 10/12 -->
      <g transform="translate(686.186005 685.444576) rotate(-45) scale(0.1 -0.1)">
       <use xlink:href="#DejaVuSans-31"/>
       <use xlink:href="#DejaVuSans-30" x="63.623047"/>
       <use xlink:href="#DejaVuSans-2f" x="127.246094"/>
       <use xlink:href="#DejaVuSans-31" x="160.9375"/>
       <use xlink:href="#DejaVuSans-32" x="224.560547"/>
      </g>
     </g>
    </g>
    <g id="xtick_15">
     <g id="line2d_15">
      <g>
       <use xlink:href="#m59323cdbf7" x="756.07725" y="652.693736" style="stroke: #000000; stroke-width: 0.8"/>
      </g>
     </g>
     <g id="text_15">
      <!-- 10/19 -->
      <g transform="translate(734.228756 685.444576) rotate(-45) scale(0.1 -0.1)">
       <use xlink:href="#DejaVuSans-31"/>
       <use xlink:href="#DejaVuSans-30" x="63.623047"/>
       <use xlink:href="#DejaVuSans-2f" x="127.246094"/>
       <use xlink:href="#DejaVuSans-31" x="160.9375"/>
       <use xlink:href="#DejaVuSans-39" x="224.560547"/>
      </g>
     </g>
    </g>
    <g id="xtick_16">
     <g id="line2d_16">
      <g>
       <use xlink:href="#m59323cdbf7" x="804.120001" y="652.693736" style="stroke: #000000; stroke-width: 0.8"/>
      </g>
     </g>
     <g id="text_16">
      <!-- 10/26 -->
      <g transform="translate(782.271506 685.444576) rotate(-45) scale(0.1 -0.1)">
       <defs>
        <path id="DejaVuSans-36" d="M 2113 2584 
Q 1688 2584 1439 2293 
Q 1191 2003 1191 1497 
Q 1191 994 1439 701 
Q 1688 409 2113 409 
Q 2538 409 2786 701 
Q 3034 994 3034 1497 
Q 3034 2003 2786 2293 
Q 2538 2584 2113 2584 
z
M 3366 4563 
L 3366 3988 
Q 3128 4100 2886 4159 
Q 2644 4219 2406 4219 
Q 1781 4219 1451 3797 
Q 1122 3375 1075 2522 
Q 1259 2794 1537 2939 
Q 1816 3084 2150 3084 
Q 2853 3084 3261 2657 
Q 3669 2231 3669 1497 
Q 3669 778 3244 343 
Q 2819 -91 2113 -91 
Q 1303 -91 875 529 
Q 447 1150 447 2328 
Q 447 3434 972 4092 
Q 1497 4750 2381 4750 
Q 2619 4750 2861 4703 
Q 3103 4656 3366 4563 
z
" transform="scale(0.015625)"/>
       </defs>
       <use xlink:href="#DejaVuSans-31"/>
       <use xlink:href="#DejaVuSans-30" x="63.623047"/>
       <use xlink:href="#DejaVuSans-2f" x="127.246094"/>
       <use xlink:href="#DejaVuSans-32" x="160.9375"/>
       <use xlink:href="#DejaVuSans-36" x="224.560547"/>
      </g>
     </g>
    </g>
    <g id="xtick_17">
     <g id="line2d_17">
      <g>
       <use xlink:href="#m59323cdbf7" x="852.162751" y="652.693736" style="stroke: #000000; stroke-width: 0.8"/>
      </g>
     </g>
     <g id="text_17">
      <!-- 11/02 -->
      <g transform="translate(830.314257 685.444576) rotate(-45) scale(0.1 -0.1)">
       <use xlink:href="#DejaVuSans-31"/>
       <use xlink:href="#DejaVuSans-31" x="63.623047"/>
       <use xlink:href="#DejaVuSans-2f" x="127.246094"/>
       <use xlink:href="#DejaVuSans-30" x="160.9375"/>
       <use xlink:href="#DejaVuSans-32" x="224.560547"/>
      </g>
     </g>
    </g>
    <g id="xtick_18">
     <g id="line2d_18">
      <g>
       <use xlink:href="#m59323cdbf7" x="900.205502" y="652.693736" style="stroke: #000000; stroke-width: 0.8"/>
      </g>
     </g>
     <g id="text_18">
      <!-- 11/09 -->
      <g transform="translate(878.357007 685.444576) rotate(-45) scale(0.1 -0.1)">
       <use xlink:href="#DejaVuSans-31"/>
       <use xlink:href="#DejaVuSans-31" x="63.623047"/>
       <use xlink:href="#DejaVuSans-2f" x="127.246094"/>
       <use xlink:href="#DejaVuSans-30" x="160.9375"/>
       <use xlink:href="#DejaVuSans-39" x="224.560547"/>
      </g>
     </g>
    </g>
    <g id="xtick_19">
     <g id="line2d_19">
      <g>
       <use xlink:href="#m59323cdbf7" x="948.248252" y="652.693736" style="stroke: #000000; stroke-width: 0.8"/>
      </g>
     </g>
     <g id="text_19">
      <!-- 11/16 -->
      <g transform="translate(926.399757 685.444576) rotate(-45) scale(0.1 -0.1)">
       <use xlink:href="#DejaVuSans-31"/>
       <use xlink:href="#DejaVuSans-31" x="63.623047"/>
       <use xlink:href="#DejaVuSans-2f" x="127.246094"/>
       <use xlink:href="#DejaVuSans-31" x="160.9375"/>
       <use xlink:href="#DejaVuSans-36" x="224.560547"/>
      </g>
     </g>
    </g>
    <g id="xtick_20">
     <g id="line2d_20">
      <g>
       <use xlink:href="#m59323cdbf7" x="996.291003" y="652.693736" style="stroke: #000000; stroke-width: 0.8"/>
      </g>
     </g>
     <g id="text_20">
      <!-- 11/23 -->
      <g transform="translate(974.442508 685.444576) rotate(-45) scale(0.1 -0.1)">
       <use xlink:href="#DejaVuSans-31"/>
       <use xlink:href="#DejaVuSans-31" x="63.623047"/>
       <use xlink:href="#DejaVuSans-2f" x="127.246094"/>
       <use xlink:href="#DejaVuSans-32" x="160.9375"/>
       <use xlink:href="#DejaVuSans-33" x="224.560547"/>
      </g>
     </g>
    </g>
    <g id="xtick_21">
     <g id="line2d_21">
      <g>
       <use xlink:href="#m59323cdbf7" x="1044.333753" y="652.693736" style="stroke: #000000; stroke-width: 0.8"/>
      </g>
     </g>
     <g id="text_21">
      <!-- 11/30 -->
      <g transform="translate(1022.485258 685.444576) rotate(-45) scale(0.1 -0.1)">
       <use xlink:href="#DejaVuSans-31"/>
       <use xlink:href="#DejaVuSans-31" x="63.623047"/>
       <use xlink:href="#DejaVuSans-2f" x="127.246094"/>
       <use xlink:href="#DejaVuSans-33" x="160.9375"/>
       <use xlink:href="#DejaVuSans-30" x="224.560547"/>
      </g>
     </g>
    </g>
    <g id="xtick_22">
     <g id="line2d_22">
      <g>
       <use xlink:href="#m59323cdbf7" x="1092.376504" y="652.693736" style="stroke: #000000; stroke-width: 0.8"/>
      </g>
     </g>
     <g id="text_22">
      <!-- 12/07 -->
      <g transform="translate(1070.528009 685.444576) rotate(-45) scale(0.1 -0.1)">
       <use xlink:href="#DejaVuSans-31"/>
       <use xlink:href="#DejaVuSans-32" x="63.623047"/>
       <use xlink:href="#DejaVuSans-2f" x="127.246094"/>
       <use xlink:href="#DejaVuSans-30" x="160.9375"/>
       <use xlink:href="#DejaVuSans-37" x="224.560547"/>
      </g>
     </g>
    </g>
    <g id="xtick_23">
     <g id="line2d_23">
      <g>
       <use xlink:href="#m59323cdbf7" x="1140.419254" y="652.693736" style="stroke: #000000; stroke-width: 0.8"/>
      </g>
     </g>
     <g id="text_23">
      <!-- 12/14 -->
      <g transform="translate(1118.570759 685.444576) rotate(-45) scale(0.1 -0.1)">
       <use xlink:href="#DejaVuSans-31"/>
       <use xlink:href="#DejaVuSans-32" x="63.623047"/>
       <use xlink:href="#DejaVuSans-2f" x="127.246094"/>
       <use xlink:href="#DejaVuSans-31" x="160.9375"/>
       <use xlink:href="#DejaVuSans-34" x="224.560547"/>
      </g>
     </g>
    </g>
    <g id="xtick_24">
     <g id="line2d_24">
      <g>
       <use xlink:href="#m59323cdbf7" x="1188.462004" y="652.693736" style="stroke: #000000; stroke-width: 0.8"/>
      </g>
     </g>
     <g id="text_24">
      <!-- 12/21 -->
      <g transform="translate(1166.61351 685.444576) rotate(-45) scale(0.1 -0.1)">
       <use xlink:href="#DejaVuSans-31"/>
       <use xlink:href="#DejaVuSans-32" x="63.623047"/>
       <use xlink:href="#DejaVuSans-2f" x="127.246094"/>
       <use xlink:href="#DejaVuSans-32" x="160.9375"/>
       <use xlink:href="#DejaVuSans-31" x="224.560547"/>
      </g>
     </g>
    </g>
    <g id="xtick_25">
     <g id="line2d_25">
      <g>
       <use xlink:href="#m59323cdbf7" x="1236.504755" y="652.693736" style="stroke: #000000; stroke-width: 0.8"/>
      </g>
     </g>
     <g id="text_25">
      <!-- 12/28 -->
      <g transform="translate(1214.65626 685.444576) rotate(-45) scale(0.1 -0.1)">
       <use xlink:href="#DejaVuSans-31"/>
       <use xlink:href="#DejaVuSans-32" x="63.623047"/>
       <use xlink:href="#DejaVuSans-2f" x="127.246094"/>
       <use xlink:href="#DejaVuSans-32" x="160.9375"/>
       <use xlink:href="#DejaVuSans-38" x="224.560547"/>
      </g>
     </g>
    </g>
    <g id="xtick_26">
     <g id="line2d_26">
      <g>
       <use xlink:href="#m59323cdbf7" x="1284.547505" y="652.693736" style="stroke: #000000; stroke-width: 0.8"/>
      </g>
     </g>
     <g id="text_26">
      <!-- 01/04 -->
      <g transform="translate(1262.699011 685.444576) rotate(-45) scale(0.1 -0.1)">
       <use xlink:href="#DejaVuSans-30"/>
       <use xlink:href="#DejaVuSans-31" x="63.623047"/>
       <use xlink:href="#DejaVuSans-2f" x="127.246094"/>
       <use xlink:href="#DejaVuSans-30" x="160.9375"/>
       <use xlink:href="#DejaVuSans-34" x="224.560547"/>
      </g>
     </g>
    </g>
    <g id="xtick_27">
     <g id="line2d_27">
      <g>
       <use xlink:href="#m59323cdbf7" x="1332.590256" y="652.693736" style="stroke: #000000; stroke-width: 0.8"/>
      </g>
     </g>
     <g id="text_27">
      <!-- 01/11 -->
      <g transform="translate(1310.741761 685.444576) rotate(-45) scale(0.1 -0.1)">
       <use xlink:href="#DejaVuSans-30"/>
       <use xlink:href="#DejaVuSans-31" x="63.623047"/>
       <use xlink:href="#DejaVuSans-2f" x="127.246094"/>
       <use xlink:href="#DejaVuSans-31" x="160.9375"/>
       <use xlink:href="#DejaVuSans-31" x="224.560547"/>
      </g>
     </g>
    </g>
    <g id="xtick_28">
     <g id="line2d_28">
      <g>
       <use xlink:href="#m59323cdbf7" x="1380.633006" y="652.693736" style="stroke: #000000; stroke-width: 0.8"/>
      </g>
     </g>
     <g id="text_28">
      <!-- 01/18 -->
      <g transform="translate(1358.784512 685.444576) rotate(-45) scale(0.1 -0.1)">
       <use xlink:href="#DejaVuSans-30"/>
       <use xlink:href="#DejaVuSans-31" x="63.623047"/>
       <use xlink:href="#DejaVuSans-2f" x="127.246094"/>
       <use xlink:href="#DejaVuSans-31" x="160.9375"/>
       <use xlink:href="#DejaVuSans-38" x="224.560547"/>
      </g>
     </g>
    </g>
    <g id="text_29">
     <!-- 日期 -->
     <g transform="translate(711.1275 700.033263) scale(0.12 -0.12)">
      <defs>
       <path id="DejaVuSans-Bold-65e5" d="M 319 -1131 
L 319 4513 
L 3519 4513 
L 3519 -1131 
L 319 -1131 
z
M 678 -775 
L 3163 -775 
L 3163 4153 
L 678 4153 
L 678 -775 
z
" transform="scale(0.015625)"/>
       <path id="DejaVuSans-Bold-671f" d="M 319 -1131 
L 319 4513 
L 3519 4513 
L 3519 -1131 
L 319 -1131 
z
M 678 -775 
L 3163 -775 
L 3163 4153 
L 678 4153 
L 678 -775 
z
" transform="scale(0.015625)"/>
      </defs>
      <use xlink:href="#DejaVuSans-Bold-65e5"/>
      <use xlink:href="#DejaVuSans-Bold-671f" x="60.009766"/>
     </g>
    </g>
   </g>
   <g id="matplotlib.axis_2">
    <g id="ytick_1">
     <g id="line2d_29">
      <path d="M 52.079375 619.164772 
L 1384.579375 619.164772 
" clip-path="url(#p0a7469db95)" style="fill: none; stroke-dasharray: 2.96,1.28; stroke-dashoffset: 0; stroke: #b0b0b0; stroke-opacity: 0.3; stroke-width: 0.8"/>
     </g>
     <g id="line2d_30">
      <defs>
       <path id="mbd6863d34c" d="M 0 0 
L -3.5 0 
" style="stroke: #000000; stroke-width: 0.8"/>
      </defs>
      <g>
       <use xlink:href="#mbd6863d34c" x="52.079375" y="619.164772" style="stroke: #000000; stroke-width: 0.8"/>
      </g>
     </g>
     <g id="text_30">
      <!-- 23.0 -->
      <g transform="translate(22.81375 622.96399) scale(0.1 -0.1)">
       <defs>
        <path id="DejaVuSans-2e" d="M 684 794 
L 1344 794 
L 1344 0 
L 684 0 
L 684 794 
z
" transform="scale(0.015625)"/>
       </defs>
       <use xlink:href="#DejaVuSans-32"/>
       <use xlink:href="#DejaVuSans-33" x="63.623047"/>
       <use xlink:href="#DejaVuSans-2e" x="127.246094"/>
       <use xlink:href="#DejaVuSans-30" x="159.033203"/>
      </g>
     </g>
    </g>
    <g id="ytick_2">
     <g id="line2d_31">
      <path d="M 52.079375 543.818784 
L 1384.579375 543.818784 
" clip-path="url(#p0a7469db95)" style="fill: none; stroke-dasharray: 2.96,1.28; stroke-dashoffset: 0; stroke: #b0b0b0; stroke-opacity: 0.3; stroke-width: 0.8"/>
     </g>
     <g id="line2d_32">
      <g>
       <use xlink:href="#mbd6863d34c" x="52.079375" y="543.818784" style="stroke: #000000; stroke-width: 0.8"/>
      </g>
     </g>
     <g id="text_31">
      <!-- 23.5 -->
      <g transform="translate(22.81375 547.618002) scale(0.1 -0.1)">
       <use xlink:href="#DejaVuSans-32"/>
       <use xlink:href="#DejaVuSans-33" x="63.623047"/>
       <use xlink:href="#DejaVuSans-2e" x="127.246094"/>
       <use xlink:href="#DejaVuSans-35" x="159.033203"/>
      </g>
     </g>
    </g>
    <g id="ytick_3">
     <g id="line2d_33">
      <path d="M 52.079375 468.472796 
L 1384.579375 468.472796 
" clip-path="url(#p0a7469db95)" style="fill: none; stroke-dasharray: 2.96,1.28; stroke-dashoffset: 0; stroke: #b0b0b0; stroke-opacity: 0.3; stroke-width: 0.8"/>
     </g>
     <g id="line2d_34">
      <g>
       <use xlink:href="#mbd6863d34c" x="52.079375" y="468.472796" style="stroke: #000000; stroke-width: 0.8"/>
      </g>
     </g>
     <g id="text_32">
      <!-- 24.0 -->
      <g transform="translate(22.81375 472.272014) scale(0.1 -0.1)">
       <use xlink:href="#DejaVuSans-32"/>
       <use xlink:href="#DejaVuSans-34" x="63.623047"/>
       <use xlink:href="#DejaVuSans-2e" x="127.246094"/>
       <use xlink:href="#DejaVuSans-30" x="159.033203"/>
      </g>
     </g>
    </g>
    <g id="ytick_4">
     <g id="line2d_35">
      <path d="M 52.079375 393.126808 
L 1384.579375 393.126808 
" clip-path="url(#p0a7469db95)" style="fill: none; stroke-dasharray: 2.96,1.28; stroke-dashoffset: 0; stroke: #b0b0b0; stroke-opacity: 0.3; stroke-width: 0.8"/>
     </g>
     <g id="line2d_36">
      <g>
       <use xlink:href="#mbd6863d34c" x="52.079375" y="393.126808" style="stroke: #000000; stroke-width: 0.8"/>
      </g>
     </g>
     <g id="text_33">
      <!-- 24.5 -->
      <g transform="translate(22.81375 396.926026) scale(0.1 -0.1)">
       <use xlink:href="#DejaVuSans-32"/>
       <use xlink:href="#DejaVuSans-34" x="63.623047"/>
       <use xlink:href="#DejaVuSans-2e" x="127.246094"/>
       <use xlink:href="#DejaVuSans-35" x="159.033203"/>
      </g>
     </g>
    </g>
    <g id="ytick_5">
     <g id="line2d_37">
      <path d="M 52.079375 317.78082 
L 1384.579375 317.78082 
" clip-path="url(#p0a7469db95)" style="fill: none; stroke-dasharray: 2.96,1.28; stroke-dashoffset: 0; stroke: #b0b0b0; stroke-opacity: 0.3; stroke-width: 0.8"/>
     </g>
     <g id="line2d_38">
      <g>
       <use xlink:href="#mbd6863d34c" x="52.079375" y="317.78082" style="stroke: #000000; stroke-width: 0.8"/>
      </g>
     </g>
     <g id="text_34">
      <!-- 25.0 -->
      <g transform="translate(22.81375 321.580038) scale(0.1 -0.1)">
       <use xlink:href="#DejaVuSans-32"/>
       <use xlink:href="#DejaVuSans-35" x="63.623047"/>
       <use xlink:href="#DejaVuSans-2e" x="127.246094"/>
       <use xlink:href="#DejaVuSans-30" x="159.033203"/>
      </g>
     </g>
    </g>
    <g id="ytick_6">
     <g id="line2d_39">
      <path d="M 52.079375 242.434832 
L 1384.579375 242.434832 
" clip-path="url(#p0a7469db95)" style="fill: none; stroke-dasharray: 2.96,1.28; stroke-dashoffset: 0; stroke: #b0b0b0; stroke-opacity: 0.3; stroke-width: 0.8"/>
     </g>
     <g id="line2d_40">
      <g>
       <use xlink:href="#mbd6863d34c" x="52.079375" y="242.434832" style="stroke: #000000; stroke-width: 0.8"/>
      </g>
     </g>
     <g id="text_35">
      <!-- 25.5 -->
      <g transform="translate(22.81375 246.23405) scale(0.1 -0.1)">
       <use xlink:href="#DejaVuSans-32"/>
       <use xlink:href="#DejaVuSans-35" x="63.623047"/>
       <use xlink:href="#DejaVuSans-2e" x="127.246094"/>
       <use xlink:href="#DejaVuSans-35" x="159.033203"/>
      </g>
     </g>
    </g>
    <g id="ytick_7">
     <g id="line2d_41">
      <path d="M 52.079375 167.088844 
L 1384.579375 167.088844 
" clip-path="url(#p0a7469db95)" style="fill: none; stroke-dasharray: 2.96,1.28; stroke-dashoffset: 0; stroke: #b0b0b0; stroke-opacity: 0.3; stroke-width: 0.8"/>
     </g>
     <g id="line2d_42">
      <g>
       <use xlink:href="#mbd6863d34c" x="52.079375" y="167.088844" style="stroke: #000000; stroke-width: 0.8"/>
      </g>
     </g>
     <g id="text_36">
      <!-- 26.0 -->
      <g transform="translate(22.81375 170.888062) scale(0.1 -0.1)">
       <use xlink:href="#DejaVuSans-32"/>
       <use xlink:href="#DejaVuSans-36" x="63.623047"/>
       <use xlink:href="#DejaVuSans-2e" x="127.246094"/>
       <use xlink:href="#DejaVuSans-30" x="159.033203"/>
      </g>
     </g>
    </g>
    <g id="ytick_8">
     <g id="line2d_43">
      <path d="M 52.079375 91.742856 
L 1384.579375 91.742856 
" clip-path="url(#p0a7469db95)" style="fill: none; stroke-dasharray: 2.96,1.28; stroke-dashoffset: 0; stroke: #b0b0b0; stroke-opacity: 0.3; stroke-width: 0.8"/>
     </g>
     <g id="line2d_44">
      <g>
       <use xlink:href="#mbd6863d34c" x="52.079375" y="91.742856" style="stroke: #000000; stroke-width: 0.8"/>
      </g>
     </g>
     <g id="text_37">
      <!-- 26.5 -->
      <g transform="translate(22.81375 95.542075) scale(0.1 -0.1)">
       <use xlink:href="#DejaVuSans-32"/>
       <use xlink:href="#DejaVuSans-36" x="63.623047"/>
       <use xlink:href="#DejaVuSans-2e" x="127.246094"/>
       <use xlink:href="#DejaVuSans-35" x="159.033203"/>
      </g>
     </g>
    </g>
    <g id="text_38">
     <!-- 收盤價 (元) -->
     <g transform="translate(16.318125 388.732587) rotate(-90) scale(0.12 -0.12)">
      <defs>
       <path id="DejaVuSans-Bold-6536" d="M 319 -1131 
L 319 4513 
L 3519 4513 
L 3519 -1131 
L 319 -1131 
z
M 678 -775 
L 3163 -775 
L 3163 4153 
L 678 4153 
L 678 -775 
z
" transform="scale(0.015625)"/>
       <path id="DejaVuSans-Bold-76e4" d="M 319 -1131 
L 319 4513 
L 3519 4513 
L 3519 -1131 
L 319 -1131 
z
M 678 -775 
L 3163 -775 
L 3163 4153 
L 678 4153 
L 678 -775 
z
" transform="scale(0.015625)"/>
       <path id="DejaVuSans-Bold-50f9" d="M 319 -1131 
L 319 4513 
L 3519 4513 
L 3519 -1131 
L 319 -1131 
z
M 678 -775 
L 3163 -775 
L 3163 4153 
L 678 4153 
L 678 -775 
z
" transform="scale(0.015625)"/>
       <path id="DejaVuSans-Bold-20" transform="scale(0.015625)"/>
       <path id="DejaVuSans-Bold-28" d="M 2413 -844 
L 1484 -844 
Q 1006 -72 778 623 
Q 550 1319 550 2003 
Q 550 2688 779 3389 
Q 1009 4091 1484 4856 
L 2413 4856 
Q 2013 4116 1813 3408 
Q 1613 2700 1613 2009 
Q 1613 1319 1811 609 
Q 2009 -100 2413 -844 
z
" transform="scale(0.015625)"/>
       <path id="DejaVuSans-Bold-5143" d="M 319 -1131 
L 319 4513 
L 3519 4513 
L 3519 -1131 
L 319 -1131 
z
M 678 -775 
L 3163 -775 
L 3163 4153 
L 678 4153 
L 678 -775 
z
" transform="scale(0.015625)"/>
       <path id="DejaVuSans-Bold-29" d="M 513 -844 
Q 913 -100 1113 609 
Q 1313 1319 1313 2009 
Q 1313 2700 1113 3408 
Q 913 4116 513 4856 
L 1441 4856 
Q 1916 4091 2145 3389 
Q 2375 2688 2375 2003 
Q 2375 1319 2147 623 
Q 1919 -72 1441 -844 
L 513 -844 
z
" transform="scale(0.015625)"/>
      </defs>
      <use xlink:href="#DejaVuSans-Bold-6536"/>
      <use xlink:href="#DejaVuSans-Bold-76e4" x="60.009766"/>
      <use xlink:href="#DejaVuSans-Bold-50f9" x="120.019531"/>
      <use xlink:href="#DejaVuSans-Bold-20" x="180.029297"/>
      <use xlink:href="#DejaVuSans-Bold-28" x="214.84375"/>
      <use xlink:href="#DejaVuSans-Bold-5143" x="260.546875"/>
      <use xlink:href="#DejaVuSans-Bold-29" x="320.556641"/>
     </g>
    </g>
   </g>
   <g id="patch_3">
    <path d="M 52.079375 652.693736 
L 52.079375 80.817687 
" style="fill: none; stroke: #000000; stroke-width: 0.8; stroke-linejoin: miter; stroke-linecap: square"/>
   </g>
   <g id="patch_4">
    <path d="M 1384.579375 652.693736 
L 1384.579375 80.817687 
" style="fill: none; stroke: #000000; stroke-width: 0.8; stroke-linejoin: miter; stroke-linecap: square"/>
   </g>
   <g id="patch_5">
    <path d="M 52.079375 652.693736 
L 1384.579375 652.693736 
" style="fill: none; stroke: #000000; stroke-width: 0.8; stroke-linejoin: miter; stroke-linecap: square"/>
   </g>
   <g id="patch_6">
    <path d="M 52.079375 80.817687 
L 1384.579375 80.817687 
" style="fill: none; stroke: #000000; stroke-width: 0.8; stroke-linejoin: miter; stroke-linecap: square"/>
   </g>
   <g id="line2d_45">
    <path d="M 117.794994 167.088844 
L 138.384745 167.088844 
L 145.247995 197.227239 
L 152.111245 167.088844 
L 158.974495 174.623443 
L 165.837745 152.019646 
L 186.427495 121.881251 
L 193.290745 159.554245 
L 200.153995 174.623443 
L 207.017245 212.296437 
L 213.880495 204.761838 
L 234.470245 189.69264 
L 241.333496 197.227239 
L 248.196746 182.158041 
L 255.059996 197.227239 
L 261.923246 167.088844 
L 282.512996 144.485047 
L 289.376246 106.812053 
L 296.239496 136.950449 
L 303.102746 121.881251 
L 309.965996 136.950449 
L 330.555746 136.950449 
L 337.418996 189.69264 
L 344.282246 227.365634 
L 351.145497 219.831035 
L 358.008747 242.434832 
L 378.598497 257.504029 
L 385.461747 242.434832 
L 392.324997 287.642424 
L 399.188247 295.177023 
L 406.051497 317.78082 
L 426.641247 340.384616 
L 433.504497 332.850017 
L 440.367747 347.919215 
L 447.230997 325.315418 
L 454.094248 332.850017 
L 474.683998 332.850017 
L 481.547248 302.711622 
L 488.410498 332.850017 
L 495.273748 340.384616 
L 502.136998 325.315418 
L 522.726748 332.850017 
L 529.589998 302.711622 
L 536.453248 302.711622 
L 543.316498 317.78082 
L 550.179748 257.504029 
L 570.769499 295.177023 
L 577.632749 332.850017 
L 584.495999 355.453814 
L 591.359249 355.453814 
L 598.222499 347.919215 
L 625.675499 362.988412 
L 632.538749 362.988412 
L 639.401999 378.05761 
L 646.265249 378.05761 
L 673.71825 362.988412 
L 680.5815 340.384616 
L 687.44475 362.988412 
L 714.89775 385.592209 
L 721.761 385.592209 
L 728.62425 393.126808 
L 735.4875 362.988412 
L 742.35075 347.919215 
L 762.9405 355.453814 
L 769.80375 385.592209 
L 776.667001 393.126808 
L 783.530251 408.196005 
L 810.983251 430.799802 
L 817.846501 453.403598 
L 824.709751 468.472796 
L 831.573001 468.472796 
L 838.436251 468.472796 
L 859.026001 491.076592 
L 865.889251 506.14579 
L 872.752501 506.14579 
L 879.615752 476.007394 
L 886.479002 506.14579 
L 907.068752 543.818784 
L 913.932002 483.541993 
L 920.795252 498.611191 
L 927.658502 543.818784 
L 934.521752 551.353382 
L 955.111502 626.69937 
L 961.974752 611.630173 
L 968.838002 581.491778 
L 975.701252 536.284185 
L 982.564502 566.42258 
L 1003.154253 573.957179 
L 1010.017503 581.491778 
L 1016.880753 589.026376 
L 1023.744003 581.491778 
L 1030.607253 558.887981 
L 1051.197003 596.560975 
L 1058.060253 604.095574 
L 1064.923503 573.957179 
L 1071.786753 589.026376 
L 1078.650003 581.491778 
L 1099.239754 619.164772 
L 1106.103004 626.69937 
L 1112.966254 604.095574 
L 1119.829504 528.749586 
L 1126.692754 558.887981 
L 1147.282504 589.026376 
L 1154.145754 611.630173 
L 1161.009004 611.630173 
L 1167.872254 626.69937 
L 1174.735504 558.887981 
L 1195.325254 558.887981 
L 1202.188505 513.680388 
L 1209.051755 513.680388 
L 1222.778255 460.938197 
L 1243.368005 468.472796 
L 1250.231255 513.680388 
L 1257.094505 528.749586 
L 1270.821005 543.818784 
L 1291.410755 589.026376 
L 1298.274005 604.095574 
L 1305.137256 573.957179 
L 1312.000506 589.026376 
L 1318.863756 566.42258 
" clip-path="url(#p0a7469db95)" style="fill: none; stroke: #000000; stroke-width: 2; stroke-linecap: square"/>
   </g>
   <g id="legend_1">
    <g id="patch_7">
     <path d="M 59.079375 118.173937 
L 142.27 118.173937 
Q 144.27 118.173937 144.27 116.173937 
L 144.27 87.817687 
Q 144.27 85.817687 142.27 85.817687 
L 59.079375 85.817687 
Q 57.079375 85.817687 57.079375 87.817687 
L 57.079375 116.173937 
Q 57.079375 118.173937 59.079375 118.173937 
z
" style="fill: #ffffff; opacity: 0.8; stroke: #cccccc; stroke-linejoin: miter"/>
    </g>
    <g id="line2d_46">
     <path d="M 61.079375 93.916125 
L 71.079375 93.916125 
L 81.079375 93.916125 
" style="fill: none; stroke: #000000; stroke-width: 2; stroke-linecap: square"/>
    </g>
    <g id="text_39">
     <!-- 星宇航空 收盤價 -->
     <g transform="translate(89.079375 97.416125) scale(0.1 -0.1)">
      <defs>
       <path id="DejaVuSans-661f" d="M 319 -1131 
L 319 4513 
L 3519 4513 
L 3519 -1131 
L 319 -1131 
z
M 678 -775 
L 3163 -775 
L 3163 4153 
L 678 4153 
L 678 -775 
z
" transform="scale(0.015625)"/>
       <path id="DejaVuSans-5b87" d="M 319 -1131 
L 319 4513 
L 3519 4513 
L 3519 -1131 
L 319 -1131 
z
M 678 -775 
L 3163 -775 
L 3163 4153 
L 678 4153 
L 678 -775 
z
" transform="scale(0.015625)"/>
       <path id="DejaVuSans-822a" d="M 319 -1131 
L 319 4513 
L 3519 4513 
L 3519 -1131 
L 319 -1131 
z
M 678 -775 
L 3163 -775 
L 3163 4153 
L 678 4153 
L 678 -775 
z
" transform="scale(0.015625)"/>
       <path id="DejaVuSans-7a7a" d="M 319 -1131 
L 319 4513 
L 3519 4513 
L 3519 -1131 
L 319 -1131 
z
M 678 -775 
L 3163 -775 
L 3163 4153 
L 678 4153 
L 678 -775 
z
" transform="scale(0.015625)"/>
       <path id="DejaVuSans-20" transform="scale(0.015625)"/>
       <path id="DejaVuSans-6536" d="M 319 -1131 
L 319 4513 
L 3519 4513 
L 3519 -1131 
L 319 -1131 
z
M 678 -775 
L 3163 -775 
L 3163 4153 
L 678 4153 
L 678 -775 
z
" transform="scale(0.015625)"/>
       <path id="DejaVuSans-76e4" d="M 319 -1131 
L 319 4513 
L 3519 4513 
L 3519 -1131 
L 319 -1131 
z
M 678 -775 
L 3163 -775 
L 3163 4153 
L 678 4153 
L 678 -775 
z
" transform="scale(0.015625)"/>
       <path id="DejaVuSans-50f9" d="M 319 -1131 
L 319 4513 
L 3519 4513 
L 3519 -1131 
L 319 -1131 
z
M 678 -775 
L 3163 -775 
L 3163 4153 
L 678 4153 
L 678 -775 
z
" transform="scale(0.015625)"/>
      </defs>
      <use xlink:href="#DejaVuSans-661f"/>
      <use xlink:href="#DejaVuSans-5b87" x="60.009766"/>
      <use xlink:href="#DejaVuSans-822a" x="120.019531"/>
      <use xlink:href="#DejaVuSans-7a7a" x="180.029297"/>
      <use xlink:href="#DejaVuSans-20" x="240.039062"/>
      <use xlink:href="#DejaVuSans-6536" x="271.826172"/>
      <use xlink:href="#DejaVuSans-76e4" x="331.835938"/>
      <use xlink:href="#DejaVuSans-50f9" x="391.845703"/>
     </g>
    </g>
    <g id="patch_8">
     <path d="M 61.079375 112.09425 
L 81.079375 112.09425 
L 81.079375 105.09425 
L 61.079375 105.09425 
z
" style="fill: #ffd700; opacity: 0.7"/>
    </g>
    <g id="text_40">
     <!-- 星宇航空 融資餘額 -->
     <g transform="translate(89.079375 112.09425) scale(0.1 -0.1)">
      <defs>
       <path id="DejaVuSans-878d" d="M 319 -1131 
L 319 4513 
L 3519 4513 
L 3519 -1131 
L 319 -1131 
z
M 678 -775 
L 3163 -775 
L 3163 4153 
L 678 4153 
L 678 -775 
z
" transform="scale(0.015625)"/>
       <path id="DejaVuSans-8cc7" d="M 319 -1131 
L 319 4513 
L 3519 4513 
L 3519 -1131 
L 319 -1131 
z
M 678 -775 
L 3163 -775 
L 3163 4153 
L 678 4153 
L 678 -775 
z
" transform="scale(0.015625)"/>
       <path id="DejaVuSans-9918" d="M 319 -1131 
L 319 4513 
L 3519 4513 
L 3519 -1131 
L 319 -1131 
z
M 678 -775 
L 3163 -775 
L 3163 4153 
L 678 4153 
L 678 -775 
z
" transform="scale(0.015625)"/>
       <path id="DejaVuSans-984d" d="M 319 -1131 
L 319 4513 
L 3519 4513 
L 3519 -1131 
L 319 -1131 
z
M 678 -775 
L 3163 -775 
L 3163 4153 
L 678 4153 
L 678 -775 
z
" transform="scale(0.015625)"/>
      </defs>
      <use xlink:href="#DejaVuSans-661f"/>
      <use xlink:href="#DejaVuSans-5b87" x="60.009766"/>
      <use xlink:href="#DejaVuSans-822a" x="120.019531"/>
      <use xlink:href="#DejaVuSans-7a7a" x="180.029297"/>
      <use xlink:href="#DejaVuSans-20" x="240.039062"/>
      <use xlink:href="#DejaVuSans-878d" x="271.826172"/>
      <use xlink:href="#DejaVuSans-8cc7" x="331.835938"/>
      <use xlink:href="#DejaVuSans-9918" x="391.845703"/>
      <use xlink:href="#DejaVuSans-984d" x="451.855469"/>
     </g>
    </g>
   </g>
  </g>
  <g id="axes_2">
   <g id="matplotlib.axis_3">
    <g id="ytick_9">
     <g id="line2d_47">
      <defs>
       <path id="me56b86c6e0" d="M 0 0 
L 3.5 0 
" style="stroke: #000000; stroke-width: 0.8"/>
      </defs>
      <g>
       <use xlink:href="#me56b86c6e0" x="1384.579375" y="652.693736" style="stroke: #000000; stroke-width: 0.8"/>
      </g>
     </g>
     <g id="text_41">
      <!-- 0.0 -->
      <g style="fill: #b8860b" transform="translate(1391.579375 656.492955) scale(0.1 -0.1)">
       <use xlink:href="#DejaVuSans-30"/>
       <use xlink:href="#DejaVuSans-2e" x="63.623047"/>
       <use xlink:href="#DejaVuSans-30" x="95.410156"/>
      </g>
     </g>
    </g>
    <g id="ytick_10">
     <g id="line2d_48">
      <g>
       <use xlink:href="#me56b86c6e0" x="1384.579375" y="585.116787" style="stroke: #000000; stroke-width: 0.8"/>
      </g>
     </g>
     <g id="text_42">
      <!-- 0.1 -->
      <g style="fill: #b8860b" transform="translate(1391.579375 588.916006) scale(0.1 -0.1)">
       <use xlink:href="#DejaVuSans-30"/>
       <use xlink:href="#DejaVuSans-2e" x="63.623047"/>
       <use xlink:href="#DejaVuSans-31" x="95.410156"/>
      </g>
     </g>
    </g>
    <g id="ytick_11">
     <g id="line2d_49">
      <g>
       <use xlink:href="#me56b86c6e0" x="1384.579375" y="517.539838" style="stroke: #000000; stroke-width: 0.8"/>
      </g>
     </g>
     <g id="text_43">
      <!-- 0.2 -->
      <g style="fill: #b8860b" transform="translate(1391.579375 521.339056) scale(0.1 -0.1)">
       <use xlink:href="#DejaVuSans-30"/>
       <use xlink:href="#DejaVuSans-2e" x="63.623047"/>
       <use xlink:href="#DejaVuSans-32" x="95.410156"/>
      </g>
     </g>
    </g>
    <g id="ytick_12">
     <g id="line2d_50">
      <g>
       <use xlink:href="#me56b86c6e0" x="1384.579375" y="449.962888" style="stroke: #000000; stroke-width: 0.8"/>
      </g>
     </g>
     <g id="text_44">
      <!-- 0.3 -->
      <g style="fill: #b8860b" transform="translate(1391.579375 453.762107) scale(0.1 -0.1)">
       <use xlink:href="#DejaVuSans-30"/>
       <use xlink:href="#DejaVuSans-2e" x="63.623047"/>
       <use xlink:href="#DejaVuSans-33" x="95.410156"/>
      </g>
     </g>
    </g>
    <g id="ytick_13">
     <g id="line2d_51">
      <g>
       <use xlink:href="#me56b86c6e0" x="1384.579375" y="382.385939" style="stroke: #000000; stroke-width: 0.8"/>
      </g>
     </g>
     <g id="text_45">
      <!-- 0.4 -->
      <g style="fill: #b8860b" transform="translate(1391.579375 386.185158) scale(0.1 -0.1)">
       <use xlink:href="#DejaVuSans-30"/>
       <use xlink:href="#DejaVuSans-2e" x="63.623047"/>
       <use xlink:href="#DejaVuSans-34" x="95.410156"/>
      </g>
     </g>
    </g>
    <g id="ytick_14">
     <g id="line2d_52">
      <g>
       <use xlink:href="#me56b86c6e0" x="1384.579375" y="314.80899" style="stroke: #000000; stroke-width: 0.8"/>
      </g>
     </g>
     <g id="text_46">
      <!-- 0.5 -->
      <g style="fill: #b8860b" transform="translate(1391.579375 318.608209) scale(0.1 -0.1)">
       <use xlink:href="#DejaVuSans-30"/>
       <use xlink:href="#DejaVuSans-2e" x="63.623047"/>
       <use xlink:href="#DejaVuSans-35" x="95.410156"/>
      </g>
     </g>
    </g>
    <g id="ytick_15">
     <g id="line2d_53">
      <g>
       <use xlink:href="#me56b86c6e0" x="1384.579375" y="247.232041" style="stroke: #000000; stroke-width: 0.8"/>
      </g>
     </g>
     <g id="text_47">
      <!-- 0.6 -->
      <g style="fill: #b8860b" transform="translate(1391.579375 251.031259) scale(0.1 -0.1)">
       <use xlink:href="#DejaVuSans-30"/>
       <use xlink:href="#DejaVuSans-2e" x="63.623047"/>
       <use xlink:href="#DejaVuSans-36" x="95.410156"/>
      </g>
     </g>
    </g>
    <g id="ytick_16">
     <g id="line2d_54">
      <g>
       <use xlink:href="#me56b86c6e0" x="1384.579375" y="179.655091" style="stroke: #000000; stroke-width: 0.8"/>
      </g>
     </g>
     <g id="text_48">
      <!-- 0.7 -->
      <g style="fill: #b8860b" transform="translate(1391.579375 183.45431) scale(0.1 -0.1)">
       <use xlink:href="#DejaVuSans-30"/>
       <use xlink:href="#DejaVuSans-2e" x="63.623047"/>
       <use xlink:href="#DejaVuSans-37" x="95.410156"/>
      </g>
     </g>
    </g>
    <g id="ytick_17">
     <g id="line2d_55">
      <g>
       <use xlink:href="#me56b86c6e0" x="1384.579375" y="112.078142" style="stroke: #000000; stroke-width: 0.8"/>
      </g>
     </g>
     <g id="text_49">
      <!-- 0.8 -->
      <g style="fill: #b8860b" transform="translate(1391.579375 115.877361) scale(0.1 -0.1)">
       <use xlink:href="#DejaVuSans-30"/>
       <use xlink:href="#DejaVuSans-2e" x="63.623047"/>
       <use xlink:href="#DejaVuSans-38" x="95.410156"/>
      </g>
     </g>
    </g>
    <g id="text_50">
     <!-- 融資餘額 (億元) -->
     <g style="fill: #b8860b" transform="translate(1420.600625 395.934462) rotate(-90) scale(0.12 -0.12)">
      <defs>
       <path id="DejaVuSans-Bold-878d" d="M 319 -1131 
L 319 4513 
L 3519 4513 
L 3519 -1131 
L 319 -1131 
z
M 678 -775 
L 3163 -775 
L 3163 4153 
L 678 4153 
L 678 -775 
z
" transform="scale(0.015625)"/>
       <path id="DejaVuSans-Bold-8cc7" d="M 319 -1131 
L 319 4513 
L 3519 4513 
L 3519 -1131 
L 319 -1131 
z
M 678 -775 
L 3163 -775 
L 3163 4153 
L 678 4153 
L 678 -775 
z
" transform="scale(0.015625)"/>
       <path id="DejaVuSans-Bold-9918" d="M 319 -1131 
L 319 4513 
L 3519 4513 
L 3519 -1131 
L 319 -1131 
z
M 678 -775 
L 3163 -775 
L 3163 4153 
L 678 4153 
L 678 -775 
z
" transform="scale(0.015625)"/>
       <path id="DejaVuSans-Bold-984d" d="M 319 -1131 
L 319 4513 
L 3519 4513 
L 3519 -1131 
L 319 -1131 
z
M 678 -775 
L 3163 -775 
L 3163 4153 
L 678 4153 
L 678 -775 
z
" transform="scale(0.015625)"/>
       <path id="DejaVuSans-Bold-5104" d="M 319 -1131 
L 319 4513 
L 3519 4513 
L 3519 -1131 
L 319 -1131 
z
M 678 -775 
L 3163 -775 
L 3163 4153 
L 678 4153 
L 678 -775 
z
" transform="scale(0.015625)"/>
      </defs>
      <use xlink:href="#DejaVuSans-Bold-878d"/>
      <use xlink:href="#DejaVuSans-Bold-8cc7" x="60.009766"/>
      <use xlink:href="#DejaVuSans-Bold-9918" x="120.019531"/>
      <use xlink:href="#DejaVuSans-Bold-984d" x="180.029297"/>
      <use xlink:href="#DejaVuSans-Bold-20" x="240.039062"/>
      <use xlink:href="#DejaVuSans-Bold-28" x="274.853516"/>
      <use xlink:href="#DejaVuSans-Bold-5104" x="320.556641"/>
      <use xlink:href="#DejaVuSans-Bold-5143" x="380.566406"/>
      <use xlink:href="#DejaVuSans-Bold-29" x="440.576172"/>
     </g>
    </g>
   </g>
   <g id="patch_9">
    <path d="M 52.079375 652.693736 
L 52.079375 80.817687 
" style="fill: none; stroke: #000000; stroke-width: 0.8; stroke-linejoin: miter; stroke-linecap: square"/>
   </g>
   <g id="patch_10">
    <path d="M 1384.579375 652.693736 
L 1384.579375 80.817687 
" style="fill: none; stroke: #000000; stroke-width: 0.8; stroke-linejoin: miter; stroke-linecap: square"/>
   </g>
   <g id="patch_11">
    <path d="M 52.079375 652.693736 
L 1384.579375 652.693736 
" style="fill: none; stroke: #000000; stroke-width: 0.8; stroke-linejoin: miter; stroke-linecap: square"/>
   </g>
   <g id="patch_12">
    <path d="M 52.079375 80.817687 
L 1384.579375 80.817687 
" style="fill: none; stroke: #000000; stroke-width: 0.8; stroke-linejoin: miter; stroke-linecap: square"/>
   </g>
   <g id="patch_13">
    <path d="M 112.647557 652.693736 
L 122.942432 652.693736 
L 122.942432 309.551503 
L 112.647557 309.551503 
z
" clip-path="url(#p0a7469db95)" style="fill: #ffd700; opacity: 0.7"/>
   </g>
   <g id="patch_14">
    <path d="M 133.237307 652.693736 
L 143.532182 652.693736 
L 143.532182 303.050601 
L 133.237307 303.050601 
z
" clip-path="url(#p0a7469db95)" style="fill: #ffd700; opacity: 0.7"/>
   </g>
   <g id="patch_15">
    <path d="M 140.100557 652.693736 
L 150.395432 652.693736 
L 150.395432 318.990652 
L 140.100557 318.990652 
z
" clip-path="url(#p0a7469db95)" style="fill: #ffd700; opacity: 0.7"/>
   </g>
   <g id="patch_16">
    <path d="M 146.963807 652.693736 
L 157.258682 652.693736 
L 157.258682 305.334702 
L 146.963807 305.334702 
z
" clip-path="url(#p0a7469db95)" style="fill: #ffd700; opacity: 0.7"/>
   </g>
   <g id="patch_17">
    <path d="M 153.827057 652.693736 
L 164.121932 652.693736 
L 164.121932 314.244722 
L 153.827057 314.244722 
z
" clip-path="url(#p0a7469db95)" style="fill: #ffd700; opacity: 0.7"/>
   </g>
   <g id="patch_18">
    <path d="M 160.690307 652.693736 
L 170.985182 652.693736 
L 170.985182 313.875752 
L 160.690307 313.875752 
z
" clip-path="url(#p0a7469db95)" style="fill: #ffd700; opacity: 0.7"/>
   </g>
   <g id="patch_19">
    <path d="M 181.280057 652.693736 
L 191.574933 652.693736 
L 191.574933 286.753068 
L 181.280057 286.753068 
z
" clip-path="url(#p0a7469db95)" style="fill: #ffd700; opacity: 0.7"/>
   </g>
   <g id="patch_20">
    <path d="M 188.143308 652.693736 
L 198.438183 652.693736 
L 198.438183 274.564214 
L 188.143308 274.564214 
z
" clip-path="url(#p0a7469db95)" style="fill: #ffd700; opacity: 0.7"/>
   </g>
   <g id="patch_21">
    <path d="M 195.006558 652.693736 
L 205.301433 652.693736 
L 205.301433 290.220103 
L 195.006558 290.220103 
z
" clip-path="url(#p0a7469db95)" style="fill: #ffd700; opacity: 0.7"/>
   </g>
   <g id="patch_22">
    <path d="M 201.869808 652.693736 
L 212.164683 652.693736 
L 212.164683 317.50531 
L 201.869808 317.50531 
z
" clip-path="url(#p0a7469db95)" style="fill: #ffd700; opacity: 0.7"/>
   </g>
   <g id="patch_23">
    <path d="M 208.733058 652.693736 
L 219.027933 652.693736 
L 219.027933 314.069022 
L 208.733058 314.069022 
z
" clip-path="url(#p0a7469db95)" style="fill: #ffd700; opacity: 0.7"/>
   </g>
   <g id="patch_24">
    <path d="M 229.322808 652.693736 
L 239.617683 652.693736 
L 239.617683 312.579289 
L 229.322808 312.579289 
z
" clip-path="url(#p0a7469db95)" style="fill: #ffd700; opacity: 0.7"/>
   </g>
   <g id="patch_25">
    <path d="M 236.186058 652.693736 
L 246.480933 652.693736 
L 246.480933 310.796271 
L 236.186058 310.796271 
z
" clip-path="url(#p0a7469db95)" style="fill: #ffd700; opacity: 0.7"/>
   </g>
   <g id="patch_26">
    <path d="M 243.049308 652.693736 
L 253.344183 652.693736 
L 253.344183 311.571378 
L 243.049308 311.571378 
z
" clip-path="url(#p0a7469db95)" style="fill: #ffd700; opacity: 0.7"/>
   </g>
   <g id="patch_27">
    <path d="M 249.912558 652.693736 
L 260.207433 652.693736 
L 260.207433 300.16101 
L 249.912558 300.16101 
z
" clip-path="url(#p0a7469db95)" style="fill: #ffd700; opacity: 0.7"/>
   </g>
   <g id="patch_28">
    <path d="M 256.775808 652.693736 
L 267.070683 652.693736 
L 267.070683 299.360899 
L 256.775808 299.360899 
z
" clip-path="url(#p0a7469db95)" style="fill: #ffd700; opacity: 0.7"/>
   </g>
   <g id="patch_29">
    <path d="M 277.365558 652.693736 
L 287.660433 652.693736 
L 287.660433 242.011046 
L 277.365558 242.011046 
z
" clip-path="url(#p0a7469db95)" style="fill: #ffd700; opacity: 0.7"/>
   </g>
   <g id="patch_30">
    <path d="M 284.228808 652.693736 
L 294.523684 652.693736 
L 294.523684 317.117419 
L 284.228808 317.117419 
z
" clip-path="url(#p0a7469db95)" style="fill: #ffd700; opacity: 0.7"/>
   </g>
   <g id="patch_31">
    <path d="M 291.092058 652.693736 
L 301.386934 652.693736 
L 301.386934 302.308606 
L 291.092058 302.308606 
z
" clip-path="url(#p0a7469db95)" style="fill: #ffd700; opacity: 0.7"/>
   </g>
   <g id="patch_32">
    <path d="M 297.955309 652.693736 
L 308.250184 652.693736 
L 308.250184 327.452637 
L 297.955309 327.452637 
z
" clip-path="url(#p0a7469db95)" style="fill: #ffd700; opacity: 0.7"/>
   </g>
   <g id="patch_33">
    <path d="M 304.818559 652.693736 
L 315.113434 652.693736 
L 315.113434 328.335192 
L 304.818559 328.335192 
z
" clip-path="url(#p0a7469db95)" style="fill: #ffd700; opacity: 0.7"/>
   </g>
   <g id="patch_34">
    <path d="M 325.408309 652.693736 
L 335.703184 652.693736 
L 335.703184 325.148263 
L 325.408309 325.148263 
z
" clip-path="url(#p0a7469db95)" style="fill: #ffd700; opacity: 0.7"/>
   </g>
   <g id="patch_35">
    <path d="M 332.271559 652.693736 
L 342.566434 652.693736 
L 342.566434 338.782251 
L 332.271559 338.782251 
z
" clip-path="url(#p0a7469db95)" style="fill: #ffd700; opacity: 0.7"/>
   </g>
   <g id="patch_36">
    <path d="M 339.134809 652.693736 
L 349.429684 652.693736 
L 349.429684 344.067106 
L 339.134809 344.067106 
z
" clip-path="url(#p0a7469db95)" style="fill: #ffd700; opacity: 0.7"/>
   </g>
   <g id="patch_37">
    <path d="M 345.998059 652.693736 
L 356.292934 652.693736 
L 356.292934 239.983399 
L 345.998059 239.983399 
z
" clip-path="url(#p0a7469db95)" style="fill: #ffd700; opacity: 0.7"/>
   </g>
   <g id="patch_38">
    <path d="M 352.861309 652.693736 
L 363.156184 652.693736 
L 363.156184 132.972935 
L 352.861309 132.972935 
z
" clip-path="url(#p0a7469db95)" style="fill: #ffd700; opacity: 0.7"/>
   </g>
   <g id="patch_39">
    <path d="M 373.451059 652.693736 
L 383.745934 652.693736 
L 383.745934 112.525502 
L 373.451059 112.525502 
z
" clip-path="url(#p0a7469db95)" style="fill: #ffd700; opacity: 0.7"/>
   </g>
   <g id="patch_40">
    <path d="M 380.314309 652.693736 
L 390.609184 652.693736 
L 390.609184 110.743497 
L 380.314309 110.743497 
z
" clip-path="url(#p0a7469db95)" style="fill: #ffd700; opacity: 0.7"/>
   </g>
   <g id="patch_41">
    <path d="M 387.177559 652.693736 
L 397.472434 652.693736 
L 397.472434 237.857766 
L 387.177559 237.857766 
z
" clip-path="url(#p0a7469db95)" style="fill: #ffd700; opacity: 0.7"/>
   </g>
   <g id="patch_42">
    <path d="M 394.040809 652.693736 
L 404.335685 652.693736 
L 404.335685 233.582173 
L 394.040809 233.582173 
z
" clip-path="url(#p0a7469db95)" style="fill: #ffd700; opacity: 0.7"/>
   </g>
   <g id="patch_43">
    <path d="M 400.90406 652.693736 
L 411.198935 652.693736 
L 411.198935 226.958956 
L 400.90406 226.958956 
z
" clip-path="url(#p0a7469db95)" style="fill: #ffd700; opacity: 0.7"/>
   </g>
   <g id="patch_44">
    <path d="M 421.49381 652.693736 
L 431.788685 652.693736 
L 431.788685 223.635859 
L 421.49381 223.635859 
z
" clip-path="url(#p0a7469db95)" style="fill: #ffd700; opacity: 0.7"/>
   </g>
   <g id="patch_45">
    <path d="M 428.35706 652.693736 
L 438.651935 652.693736 
L 438.651935 223.277364 
L 428.35706 223.277364 
z
" clip-path="url(#p0a7469db95)" style="fill: #ffd700; opacity: 0.7"/>
   </g>
   <g id="patch_46">
    <path d="M 435.22031 652.693736 
L 445.515185 652.693736 
L 445.515185 214.276114 
L 435.22031 214.276114 
z
" clip-path="url(#p0a7469db95)" style="fill: #ffd700; opacity: 0.7"/>
   </g>
   <g id="patch_47">
    <path d="M 442.08356 652.693736 
L 452.378435 652.693736 
L 452.378435 196.618595 
L 442.08356 196.618595 
z
" clip-path="url(#p0a7469db95)" style="fill: #ffd700; opacity: 0.7"/>
   </g>
   <g id="patch_48">
    <path d="M 448.94681 652.693736 
L 459.241685 652.693736 
L 459.241685 201.234439 
L 448.94681 201.234439 
z
" clip-path="url(#p0a7469db95)" style="fill: #ffd700; opacity: 0.7"/>
   </g>
   <g id="patch_49">
    <path d="M 469.53656 652.693736 
L 479.831435 652.693736 
L 479.831435 132.581664 
L 469.53656 132.581664 
z
" clip-path="url(#p0a7469db95)" style="fill: #ffd700; opacity: 0.7"/>
   </g>
   <g id="patch_50">
    <path d="M 476.39981 652.693736 
L 486.694685 652.693736 
L 486.694685 123.654749 
L 476.39981 123.654749 
z
" clip-path="url(#p0a7469db95)" style="fill: #ffd700; opacity: 0.7"/>
   </g>
   <g id="patch_51">
    <path d="M 483.26306 652.693736 
L 493.557935 652.693736 
L 493.557935 114.072338 
L 483.26306 114.072338 
z
" clip-path="url(#p0a7469db95)" style="fill: #ffd700; opacity: 0.7"/>
   </g>
   <g id="patch_52">
    <path d="M 490.12631 652.693736 
L 500.421185 652.693736 
L 500.421185 111.291547 
L 490.12631 111.291547 
z
" clip-path="url(#p0a7469db95)" style="fill: #ffd700; opacity: 0.7"/>
   </g>
   <g id="patch_53">
    <path d="M 496.98956 652.693736 
L 507.284436 652.693736 
L 507.284436 111.304724 
L 496.98956 111.304724 
z
" clip-path="url(#p0a7469db95)" style="fill: #ffd700; opacity: 0.7"/>
   </g>
   <g id="patch_54">
    <path d="M 517.579311 652.693736 
L 527.874186 652.693736 
L 527.874186 115.250204 
L 517.579311 115.250204 
z
" clip-path="url(#p0a7469db95)" style="fill: #ffd700; opacity: 0.7"/>
   </g>
   <g id="patch_55">
    <path d="M 524.442561 652.693736 
L 534.737436 652.693736 
L 534.737436 108.04988 
L 524.442561 108.04988 
z
" clip-path="url(#p0a7469db95)" style="fill: #ffd700; opacity: 0.7"/>
   </g>
   <g id="patch_56">
    <path d="M 531.305811 652.693736 
L 541.600686 652.693736 
L 541.600686 204.562603 
L 531.305811 204.562603 
z
" clip-path="url(#p0a7469db95)" style="fill: #ffd700; opacity: 0.7"/>
   </g>
   <g id="patch_57">
    <path d="M 538.169061 652.693736 
L 548.463936 652.693736 
L 548.463936 201.786542 
L 538.169061 201.786542 
z
" clip-path="url(#p0a7469db95)" style="fill: #ffd700; opacity: 0.7"/>
   </g>
   <g id="patch_58">
    <path d="M 545.032311 652.693736 
L 555.327186 652.693736 
L 555.327186 248.81199 
L 545.032311 248.81199 
z
" clip-path="url(#p0a7469db95)" style="fill: #ffd700; opacity: 0.7"/>
   </g>
   <g id="patch_59">
    <path d="M 565.622061 652.693736 
L 575.916936 652.693736 
L 575.916936 247.518567 
L 565.622061 247.518567 
z
" clip-path="url(#p0a7469db95)" style="fill: #ffd700; opacity: 0.7"/>
   </g>
   <g id="patch_60">
    <path d="M 572.485311 652.693736 
L 582.780186 652.693736 
L 582.780186 249.863487 
L 572.485311 249.863487 
z
" clip-path="url(#p0a7469db95)" style="fill: #ffd700; opacity: 0.7"/>
   </g>
   <g id="patch_61">
    <path d="M 579.348561 652.693736 
L 589.643436 652.693736 
L 589.643436 266.506676 
L 579.348561 266.506676 
z
" clip-path="url(#p0a7469db95)" style="fill: #ffd700; opacity: 0.7"/>
   </g>
   <g id="patch_62">
    <path d="M 586.211811 652.693736 
L 596.506686 652.693736 
L 596.506686 267.008435 
L 586.211811 267.008435 
z
" clip-path="url(#p0a7469db95)" style="fill: #ffd700; opacity: 0.7"/>
   </g>
   <g id="patch_63">
    <path d="M 593.075061 652.693736 
L 603.369936 652.693736 
L 603.369936 305.110346 
L 593.075061 305.110346 
z
" clip-path="url(#p0a7469db95)" style="fill: #ffd700; opacity: 0.7"/>
   </g>
   <g id="patch_64">
    <path d="M 620.528062 652.693736 
L 630.822937 652.693736 
L 630.822937 301.83827 
L 620.528062 301.83827 
z
" clip-path="url(#p0a7469db95)" style="fill: #ffd700; opacity: 0.7"/>
   </g>
   <g id="patch_65">
    <path d="M 627.391312 652.693736 
L 637.686187 652.693736 
L 637.686187 302.839761 
L 627.391312 302.839761 
z
" clip-path="url(#p0a7469db95)" style="fill: #ffd700; opacity: 0.7"/>
   </g>
   <g id="patch_66">
    <path d="M 634.254562 652.693736 
L 644.549437 652.693736 
L 644.549437 303.424977 
L 634.254562 303.424977 
z
" clip-path="url(#p0a7469db95)" style="fill: #ffd700; opacity: 0.7"/>
   </g>
   <g id="patch_67">
    <path d="M 641.117812 652.693736 
L 651.412687 652.693736 
L 651.412687 299.435234 
L 641.117812 299.435234 
z
" clip-path="url(#p0a7469db95)" style="fill: #ffd700; opacity: 0.7"/>
   </g>
   <g id="patch_68">
    <path d="M 668.570812 652.693736 
L 678.865687 652.693736 
L 678.865687 300.16912 
L 668.570812 300.16912 
z
" clip-path="url(#p0a7469db95)" style="fill: #ffd700; opacity: 0.7"/>
   </g>
   <g id="patch_69">
    <path d="M 675.434062 652.693736 
L 685.728937 652.693736 
L 685.728937 299.203783 
L 675.434062 299.203783 
z
" clip-path="url(#p0a7469db95)" style="fill: #ffd700; opacity: 0.7"/>
   </g>
   <g id="patch_70">
    <path d="M 682.297312 652.693736 
L 692.592187 652.693736 
L 692.592187 305.176572 
L 682.297312 305.176572 
z
" clip-path="url(#p0a7469db95)" style="fill: #ffd700; opacity: 0.7"/>
   </g>
   <g id="patch_71">
    <path d="M 709.750312 652.693736 
L 720.045188 652.693736 
L 720.045188 306.12569 
L 709.750312 306.12569 
z
" clip-path="url(#p0a7469db95)" style="fill: #ffd700; opacity: 0.7"/>
   </g>
   <g id="patch_72">
    <path d="M 716.613562 652.693736 
L 726.908438 652.693736 
L 726.908438 305.959788 
L 716.613562 305.959788 
z
" clip-path="url(#p0a7469db95)" style="fill: #ffd700; opacity: 0.7"/>
   </g>
   <g id="patch_73">
    <path d="M 723.476813 652.693736 
L 733.771688 652.693736 
L 733.771688 302.526879 
L 723.476813 302.526879 
z
" clip-path="url(#p0a7469db95)" style="fill: #ffd700; opacity: 0.7"/>
   </g>
   <g id="patch_74">
    <path d="M 730.340063 652.693736 
L 740.634938 652.693736 
L 740.634938 303.841251 
L 730.340063 303.841251 
z
" clip-path="url(#p0a7469db95)" style="fill: #ffd700; opacity: 0.7"/>
   </g>
   <g id="patch_75">
    <path d="M 737.203313 652.693736 
L 747.498188 652.693736 
L 747.498188 295.557669 
L 737.203313 295.557669 
z
" clip-path="url(#p0a7469db95)" style="fill: #ffd700; opacity: 0.7"/>
   </g>
   <g id="patch_76">
    <path d="M 757.793063 652.693736 
L 768.087938 652.693736 
L 768.087938 269.182723 
L 757.793063 269.182723 
z
" clip-path="url(#p0a7469db95)" style="fill: #ffd700; opacity: 0.7"/>
   </g>
   <g id="patch_77">
    <path d="M 764.656313 652.693736 
L 774.951188 652.693736 
L 774.951188 273.443112 
L 764.656313 273.443112 
z
" clip-path="url(#p0a7469db95)" style="fill: #ffd700; opacity: 0.7"/>
   </g>
   <g id="patch_78">
    <path d="M 771.519563 652.693736 
L 781.814438 652.693736 
L 781.814438 269.248611 
L 771.519563 269.248611 
z
" clip-path="url(#p0a7469db95)" style="fill: #ffd700; opacity: 0.7"/>
   </g>
   <g id="patch_79">
    <path d="M 778.382813 652.693736 
L 788.677688 652.693736 
L 788.677688 276.749652 
L 778.382813 276.749652 
z
" clip-path="url(#p0a7469db95)" style="fill: #ffd700; opacity: 0.7"/>
   </g>
   <g id="patch_80">
    <path d="M 805.835813 652.693736 
L 816.130688 652.693736 
L 816.130688 274.963931 
L 805.835813 274.963931 
z
" clip-path="url(#p0a7469db95)" style="fill: #ffd700; opacity: 0.7"/>
   </g>
   <g id="patch_81">
    <path d="M 812.699063 652.693736 
L 822.993938 652.693736 
L 822.993938 277.137544 
L 812.699063 277.137544 
z
" clip-path="url(#p0a7469db95)" style="fill: #ffd700; opacity: 0.7"/>
   </g>
   <g id="patch_82">
    <path d="M 819.562313 652.693736 
L 829.857189 652.693736 
L 829.857189 273.992513 
L 819.562313 273.992513 
z
" clip-path="url(#p0a7469db95)" style="fill: #ffd700; opacity: 0.7"/>
   </g>
   <g id="patch_83">
    <path d="M 826.425564 652.693736 
L 836.720439 652.693736 
L 836.720439 270.911004 
L 826.425564 270.911004 
z
" clip-path="url(#p0a7469db95)" style="fill: #ffd700; opacity: 0.7"/>
   </g>
   <g id="patch_84">
    <path d="M 833.288814 652.693736 
L 843.583689 652.693736 
L 843.583689 263.774878 
L 833.288814 263.774878 
z
" clip-path="url(#p0a7469db95)" style="fill: #ffd700; opacity: 0.7"/>
   </g>
   <g id="patch_85">
    <path d="M 853.878564 652.693736 
L 864.173439 652.693736 
L 864.173439 270.87958 
L 853.878564 270.87958 
z
" clip-path="url(#p0a7469db95)" style="fill: #ffd700; opacity: 0.7"/>
   </g>
   <g id="patch_86">
    <path d="M 860.741814 652.693736 
L 871.036689 652.693736 
L 871.036689 282.431184 
L 860.741814 282.431184 
z
" clip-path="url(#p0a7469db95)" style="fill: #ffd700; opacity: 0.7"/>
   </g>
   <g id="patch_87">
    <path d="M 867.605064 652.693736 
L 877.899939 652.693736 
L 877.899939 293.986843 
L 867.605064 293.986843 
z
" clip-path="url(#p0a7469db95)" style="fill: #ffd700; opacity: 0.7"/>
   </g>
   <g id="patch_88">
    <path d="M 874.468314 652.693736 
L 884.763189 652.693736 
L 884.763189 286.596289 
L 874.468314 286.596289 
z
" clip-path="url(#p0a7469db95)" style="fill: #ffd700; opacity: 0.7"/>
   </g>
   <g id="patch_89">
    <path d="M 881.331564 652.693736 
L 891.626439 652.693736 
L 891.626439 287.888023 
L 881.331564 287.888023 
z
" clip-path="url(#p0a7469db95)" style="fill: #ffd700; opacity: 0.7"/>
   </g>
   <g id="patch_90">
    <path d="M 901.921314 652.693736 
L 912.216189 652.693736 
L 912.216189 262.825422 
L 901.921314 262.825422 
z
" clip-path="url(#p0a7469db95)" style="fill: #ffd700; opacity: 0.7"/>
   </g>
   <g id="patch_91">
    <path d="M 908.784564 652.693736 
L 919.079439 652.693736 
L 919.079439 262.649722 
L 908.784564 262.649722 
z
" clip-path="url(#p0a7469db95)" style="fill: #ffd700; opacity: 0.7"/>
   </g>
   <g id="patch_92">
    <path d="M 915.647814 652.693736 
L 925.942689 652.693736 
L 925.942689 256.722547 
L 915.647814 256.722547 
z
" clip-path="url(#p0a7469db95)" style="fill: #ffd700; opacity: 0.7"/>
   </g>
   <g id="patch_93">
    <path d="M 922.511064 652.693736 
L 932.80594 652.693736 
L 932.80594 248.05648 
L 922.511064 248.05648 
z
" clip-path="url(#p0a7469db95)" style="fill: #ffd700; opacity: 0.7"/>
   </g>
   <g id="patch_94">
    <path d="M 929.374314 652.693736 
L 939.66919 652.693736 
L 939.66919 245.748051 
L 929.374314 245.748051 
z
" clip-path="url(#p0a7469db95)" style="fill: #ffd700; opacity: 0.7"/>
   </g>
   <g id="patch_95">
    <path d="M 949.964065 652.693736 
L 960.25894 652.693736 
L 960.25894 253.494397 
L 949.964065 253.494397 
z
" clip-path="url(#p0a7469db95)" style="fill: #ffd700; opacity: 0.7"/>
   </g>
   <g id="patch_96">
    <path d="M 956.827315 652.693736 
L 967.12219 652.693736 
L 967.12219 273.873577 
L 956.827315 273.873577 
z
" clip-path="url(#p0a7469db95)" style="fill: #ffd700; opacity: 0.7"/>
   </g>
   <g id="patch_97">
    <path d="M 963.690565 652.693736 
L 973.98544 652.693736 
L 973.98544 266.344491 
L 963.690565 266.344491 
z
" clip-path="url(#p0a7469db95)" style="fill: #ffd700; opacity: 0.7"/>
   </g>
   <g id="patch_98">
    <path d="M 970.553815 652.693736 
L 980.84869 652.693736 
L 980.84869 265.019645 
L 970.553815 265.019645 
z
" clip-path="url(#p0a7469db95)" style="fill: #ffd700; opacity: 0.7"/>
   </g>
   <g id="patch_99">
    <path d="M 977.417065 652.693736 
L 987.71194 652.693736 
L 987.71194 266.734073 
L 977.417065 266.734073 
z
" clip-path="url(#p0a7469db95)" style="fill: #ffd700; opacity: 0.7"/>
   </g>
   <g id="patch_100">
    <path d="M 998.006815 652.693736 
L 1008.30169 652.693736 
L 1008.30169 265.985996 
L 998.006815 265.985996 
z
" clip-path="url(#p0a7469db95)" style="fill: #ffd700; opacity: 0.7"/>
   </g>
   <g id="patch_101">
    <path d="M 1004.870065 652.693736 
L 1015.16494 652.693736 
L 1015.16494 260.845417 
L 1004.870065 260.845417 
z
" clip-path="url(#p0a7469db95)" style="fill: #ffd700; opacity: 0.7"/>
   </g>
   <g id="patch_102">
    <path d="M 1011.733315 652.693736 
L 1022.02819 652.693736 
L 1022.02819 264.980451 
L 1011.733315 264.980451 
z
" clip-path="url(#p0a7469db95)" style="fill: #ffd700; opacity: 0.7"/>
   </g>
   <g id="patch_103">
    <path d="M 1018.596565 652.693736 
L 1028.89144 652.693736 
L 1028.89144 266.501608 
L 1018.596565 266.501608 
z
" clip-path="url(#p0a7469db95)" style="fill: #ffd700; opacity: 0.7"/>
   </g>
   <g id="patch_104">
    <path d="M 1025.459815 652.693736 
L 1035.75469 652.693736 
L 1035.75469 266.065736 
L 1025.459815 266.065736 
z
" clip-path="url(#p0a7469db95)" style="fill: #ffd700; opacity: 0.7"/>
   </g>
   <g id="patch_105">
    <path d="M 1046.049566 652.693736 
L 1056.344441 652.693736 
L 1056.344441 268.475531 
L 1046.049566 268.475531 
z
" clip-path="url(#p0a7469db95)" style="fill: #ffd700; opacity: 0.7"/>
   </g>
   <g id="patch_106">
    <path d="M 1052.912816 652.693736 
L 1063.207691 652.693736 
L 1063.207691 263.841779 
L 1052.912816 263.841779 
z
" clip-path="url(#p0a7469db95)" style="fill: #ffd700; opacity: 0.7"/>
   </g>
   <g id="patch_107">
    <path d="M 1059.776066 652.693736 
L 1070.070941 652.693736 
L 1070.070941 258.900553 
L 1059.776066 258.900553 
z
" clip-path="url(#p0a7469db95)" style="fill: #ffd700; opacity: 0.7"/>
   </g>
   <g id="patch_108">
    <path d="M 1066.639316 652.693736 
L 1076.934191 652.693736 
L 1076.934191 258.395753 
L 1066.639316 258.395753 
z
" clip-path="url(#p0a7469db95)" style="fill: #ffd700; opacity: 0.7"/>
   </g>
   <g id="patch_109">
    <path d="M 1073.502566 652.693736 
L 1083.797441 652.693736 
L 1083.797441 257.860205 
L 1073.502566 257.860205 
z
" clip-path="url(#p0a7469db95)" style="fill: #ffd700; opacity: 0.7"/>
   </g>
   <g id="patch_110">
    <path d="M 1094.092316 652.693736 
L 1104.387191 652.693736 
L 1104.387191 263.659997 
L 1094.092316 263.659997 
z
" clip-path="url(#p0a7469db95)" style="fill: #ffd700; opacity: 0.7"/>
   </g>
   <g id="patch_111">
    <path d="M 1100.955566 652.693736 
L 1111.250441 652.693736 
L 1111.250441 263.575188 
L 1100.955566 263.575188 
z
" clip-path="url(#p0a7469db95)" style="fill: #ffd700; opacity: 0.7"/>
   </g>
   <g id="patch_112">
    <path d="M 1107.818816 652.693736 
L 1118.113691 652.693736 
L 1118.113691 267.27604 
L 1107.818816 267.27604 
z
" clip-path="url(#p0a7469db95)" style="fill: #ffd700; opacity: 0.7"/>
   </g>
   <g id="patch_113">
    <path d="M 1114.682066 652.693736 
L 1124.976941 652.693736 
L 1124.976941 248.567361 
L 1114.682066 248.567361 
z
" clip-path="url(#p0a7469db95)" style="fill: #ffd700; opacity: 0.7"/>
   </g>
   <g id="patch_114">
    <path d="M 1121.545316 652.693736 
L 1131.840191 652.693736 
L 1131.840191 249.46208 
L 1121.545316 249.46208 
z
" clip-path="url(#p0a7469db95)" style="fill: #ffd700; opacity: 0.7"/>
   </g>
   <g id="patch_115">
    <path d="M 1142.135066 652.693736 
L 1152.429942 652.693736 
L 1152.429942 249.459377 
L 1142.135066 249.459377 
z
" clip-path="url(#p0a7469db95)" style="fill: #ffd700; opacity: 0.7"/>
   </g>
   <g id="patch_116">
    <path d="M 1148.998317 652.693736 
L 1159.293192 652.693736 
L 1159.293192 254.558734 
L 1148.998317 254.558734 
z
" clip-path="url(#p0a7469db95)" style="fill: #ffd700; opacity: 0.7"/>
   </g>
   <g id="patch_117">
    <path d="M 1155.861567 652.693736 
L 1166.156442 652.693736 
L 1166.156442 256.427912 
L 1155.861567 256.427912 
z
" clip-path="url(#p0a7469db95)" style="fill: #ffd700; opacity: 0.7"/>
   </g>
   <g id="patch_118">
    <path d="M 1162.724817 652.693736 
L 1173.019692 652.693736 
L 1173.019692 254.114753 
L 1162.724817 254.114753 
z
" clip-path="url(#p0a7469db95)" style="fill: #ffd700; opacity: 0.7"/>
   </g>
   <g id="patch_119">
    <path d="M 1169.588067 652.693736 
L 1179.882942 652.693736 
L 1179.882942 245.666959 
L 1169.588067 245.666959 
z
" clip-path="url(#p0a7469db95)" style="fill: #ffd700; opacity: 0.7"/>
   </g>
   <g id="patch_120">
    <path d="M 1190.177817 652.693736 
L 1200.472692 652.693736 
L 1200.472692 230.012083 
L 1190.177817 230.012083 
z
" clip-path="url(#p0a7469db95)" style="fill: #ffd700; opacity: 0.7"/>
   </g>
   <g id="patch_121">
    <path d="M 1197.041067 652.693736 
L 1207.335942 652.693736 
L 1207.335942 267.194947 
L 1197.041067 267.194947 
z
" clip-path="url(#p0a7469db95)" style="fill: #ffd700; opacity: 0.7"/>
   </g>
   <g id="patch_122">
    <path d="M 1203.904317 652.693736 
L 1214.199192 652.693736 
L 1214.199192 264.632429 
L 1203.904317 264.632429 
z
" clip-path="url(#p0a7469db95)" style="fill: #ffd700; opacity: 0.7"/>
   </g>
   <g id="patch_123">
    <path d="M 1217.630817 652.693736 
L 1227.925692 652.693736 
L 1227.925692 270.440668 
L 1217.630817 270.440668 
z
" clip-path="url(#p0a7469db95)" style="fill: #ffd700; opacity: 0.7"/>
   </g>
   <g id="patch_124">
    <path d="M 1238.220567 652.693736 
L 1248.515442 652.693736 
L 1248.515442 269.289157 
L 1238.220567 269.289157 
z
" clip-path="url(#p0a7469db95)" style="fill: #ffd700; opacity: 0.7"/>
   </g>
   <g id="patch_125">
    <path d="M 1245.083817 652.693736 
L 1255.378693 652.693736 
L 1255.378693 266.073846 
L 1245.083817 266.073846 
z
" clip-path="url(#p0a7469db95)" style="fill: #ffd700; opacity: 0.7"/>
   </g>
   <g id="patch_126">
    <path d="M 1251.947068 652.693736 
L 1262.241943 652.693736 
L 1262.241943 259.890555 
L 1251.947068 259.890555 
z
" clip-path="url(#p0a7469db95)" style="fill: #ffd700; opacity: 0.7"/>
   </g>
   <g id="patch_127">
    <path d="M 1265.673568 652.693736 
L 1275.968443 652.693736 
L 1275.968443 259.808111 
L 1265.673568 259.808111 
z
" clip-path="url(#p0a7469db95)" style="fill: #ffd700; opacity: 0.7"/>
   </g>
   <g id="patch_128">
    <path d="M 1286.263318 652.693736 
L 1296.558193 652.693736 
L 1296.558193 265.921122 
L 1286.263318 265.921122 
z
" clip-path="url(#p0a7469db95)" style="fill: #ffd700; opacity: 0.7"/>
   </g>
   <g id="patch_129">
    <path d="M 1293.126568 652.693736 
L 1303.421443 652.693736 
L 1303.421443 262.436854 
L 1293.126568 262.436854 
z
" clip-path="url(#p0a7469db95)" style="fill: #ffd700; opacity: 0.7"/>
   </g>
   <g id="patch_130">
    <path d="M 1299.989818 652.693736 
L 1310.284693 652.693736 
L 1310.284693 249.610749 
L 1299.989818 249.610749 
z
" clip-path="url(#p0a7469db95)" style="fill: #ffd700; opacity: 0.7"/>
   </g>
   <g id="patch_131">
    <path d="M 1306.853068 652.693736 
L 1317.147943 652.693736 
L 1317.147943 248.989041 
L 1306.853068 248.989041 
z
" clip-path="url(#p0a7469db95)" style="fill: #ffd700; opacity: 0.7"/>
   </g>
   <g id="patch_132">
    <path d="M 1313.716318 652.693736 
L 1324.011193 652.693736 
L 1324.011193 239.909403 
L 1313.716318 239.909403 
z
" clip-path="url(#p0a7469db95)" style="fill: #ffd700; opacity: 0.7"/>
   </g>
   <g id="text_51">
    <!-- 星宇航空 (2646): 融資餘額與股價分析 -->
    <g transform="translate(636.459844 17.077969) scale(0.13 -0.13)">
     <defs>
      <path id="DejaVuSans-Bold-661f" d="M 319 -1131 
L 319 4513 
L 3519 4513 
L 3519 -1131 
L 319 -1131 
z
M 678 -775 
L 3163 -775 
L 3163 4153 
L 678 4153 
L 678 -775 
z
" transform="scale(0.015625)"/>
      <path id="DejaVuSans-Bold-5b87" d="M 319 -1131 
L 319 4513 
L 3519 4513 
L 3519 -1131 
L 319 -1131 
z
M 678 -775 
L 3163 -775 
L 3163 4153 
L 678 4153 
L 678 -775 
z
" transform="scale(0.015625)"/>
      <path id="DejaVuSans-Bold-822a" d="M 319 -1131 
L 319 4513 
L 3519 4513 
L 3519 -1131 
L 319 -1131 
z
M 678 -775 
L 3163 -775 
L 3163 4153 
L 678 4153 
L 678 -775 
z
" transform="scale(0.015625)"/>
      <path id="DejaVuSans-Bold-7a7a" d="M 319 -1131 
L 319 4513 
L 3519 4513 
L 3519 -1131 
L 319 -1131 
z
M 678 -775 
L 3163 -775 
L 3163 4153 
L 678 4153 
L 678 -775 
z
" transform="scale(0.015625)"/>
      <path id="DejaVuSans-Bold-32" d="M 1844 884 
L 3897 884 
L 3897 0 
L 506 0 
L 506 884 
L 2209 2388 
Q 2438 2594 2547 2791 
Q 2656 2988 2656 3200 
Q 2656 3528 2436 3728 
Q 2216 3928 1850 3928 
Q 1569 3928 1234 3808 
Q 900 3688 519 3450 
L 519 4475 
Q 925 4609 1322 4679 
Q 1719 4750 2100 4750 
Q 2938 4750 3402 4381 
Q 3866 4013 3866 3353 
Q 3866 2972 3669 2642 
Q 3472 2313 2841 1759 
L 1844 884 
z
" transform="scale(0.015625)"/>
      <path id="DejaVuSans-Bold-36" d="M 2316 2303 
Q 2000 2303 1842 2098 
Q 1684 1894 1684 1484 
Q 1684 1075 1842 870 
Q 2000 666 2316 666 
Q 2634 666 2792 870 
Q 2950 1075 2950 1484 
Q 2950 1894 2792 2098 
Q 2634 2303 2316 2303 
z
M 3803 4544 
L 3803 3681 
Q 3506 3822 3243 3889 
Q 2981 3956 2731 3956 
Q 2194 3956 1894 3657 
Q 1594 3359 1544 2772 
Q 1750 2925 1990 3001 
Q 2231 3078 2516 3078 
Q 3231 3078 3670 2659 
Q 4109 2241 4109 1563 
Q 4109 813 3618 361 
Q 3128 -91 2303 -91 
Q 1394 -91 895 523 
Q 397 1138 397 2266 
Q 397 3422 980 4083 
Q 1563 4744 2578 4744 
Q 2900 4744 3203 4694 
Q 3506 4644 3803 4544 
z
" transform="scale(0.015625)"/>
      <path id="DejaVuSans-Bold-34" d="M 2356 3675 
L 1038 1722 
L 2356 1722 
L 2356 3675 
z
M 2156 4666 
L 3494 4666 
L 3494 1722 
L 4159 1722 
L 4159 850 
L 3494 850 
L 3494 0 
L 2356 0 
L 2356 850 
L 288 850 
L 288 1881 
L 2156 4666 
z
" transform="scale(0.015625)"/>
      <path id="DejaVuSans-Bold-3a" d="M 716 3500 
L 1844 3500 
L 1844 2291 
L 716 2291 
L 716 3500 
z
M 716 1209 
L 1844 1209 
L 1844 0 
L 716 0 
L 716 1209 
z
" transform="scale(0.015625)"/>
      <path id="DejaVuSans-Bold-8207" d="M 319 -1131 
L 319 4513 
L 3519 4513 
L 3519 -1131 
L 319 -1131 
z
M 678 -775 
L 3163 -775 
L 3163 4153 
L 678 4153 
L 678 -775 
z
" transform="scale(0.015625)"/>
      <path id="DejaVuSans-Bold-80a1" d="M 319 -1131 
L 319 4513 
L 3519 4513 
L 3519 -1131 
L 319 -1131 
z
M 678 -775 
L 3163 -775 
L 3163 4153 
L 678 4153 
L 678 -775 
z
" transform="scale(0.015625)"/>
      <path id="DejaVuSans-Bold-5206" d="M 319 -1131 
L 319 4513 
L 3519 4513 
L 3519 -1131 
L 319 -1131 
z
M 678 -775 
L 3163 -775 
L 3163 4153 
L 678 4153 
L 678 -775 
z
" transform="scale(0.015625)"/>
      <path id="DejaVuSans-Bold-6790" d="M 319 -1131 
L 319 4513 
L 3519 4513 
L 3519 -1131 
L 319 -1131 
z
M 678 -775 
L 3163 -775 
L 3163 4153 
L 678 4153 
L 678 -775 
z
" transform="scale(0.015625)"/>
     </defs>
     <use xlink:href="#DejaVuSans-Bold-661f"/>
     <use xlink:href="#DejaVuSans-Bold-5b87" x="60.009766"/>
     <use xlink:href="#DejaVuSans-Bold-822a" x="120.019531"/>
     <use xlink:href="#DejaVuSans-Bold-7a7a" x="180.029297"/>
     <use xlink:href="#DejaVuSans-Bold-20" x="240.039062"/>
     <use xlink:href="#DejaVuSans-Bold-28" x="274.853516"/>
     <use xlink:href="#DejaVuSans-Bold-32" x="320.556641"/>
     <use xlink:href="#DejaVuSans-Bold-36" x="390.136719"/>
     <use xlink:href="#DejaVuSans-Bold-34" x="459.716797"/>
     <use xlink:href="#DejaVuSans-Bold-36" x="529.296875"/>
     <use xlink:href="#DejaVuSans-Bold-29" x="598.876953"/>
     <use xlink:href="#DejaVuSans-Bold-3a" x="644.580078"/>
     <use xlink:href="#DejaVuSans-Bold-20" x="684.570312"/>
     <use xlink:href="#DejaVuSans-Bold-878d" x="719.384766"/>
     <use xlink:href="#DejaVuSans-Bold-8cc7" x="779.394531"/>
     <use xlink:href="#DejaVuSans-Bold-9918" x="839.404297"/>
     <use xlink:href="#DejaVuSans-Bold-984d" x="899.414062"/>
     <use xlink:href="#DejaVuSans-Bold-8207" x="959.423828"/>
     <use xlink:href="#DejaVuSans-Bold-80a1" x="1019.433594"/>
     <use xlink:href="#DejaVuSans-Bold-50f9" x="1079.443359"/>
     <use xlink:href="#DejaVuSans-Bold-5206" x="1139.453125"/>
     <use xlink:href="#DejaVuSans-Bold-6790" x="1199.462891"/>
    </g>
    <!-- (最近 120 個交易日, 2025-07-18 ~ 2026-01-09) -->
    <g transform="translate(573.033047 31.635125) scale(0.13 -0.13)">
     <defs>
      <path id="DejaVuSans-Bold-6700" d="M 319 -1131 
L 319 4513 
L 3519 4513 
L 3519 -1131 
L 319 -1131 
z
M 678 -775 
L 3163 -775 
L 3163 4153 
L 678 4153 
L 678 -775 
z
" transform="scale(0.015625)"/>
      <path id="DejaVuSans-Bold-8fd1" d="M 319 -1131 
L 319 4513 
L 3519 4513 
L 3519 -1131 
L 319 -1131 
z
M 678 -775 
L 3163 -775 
L 3163 4153 
L 678 4153 
L 678 -775 
z
" transform="scale(0.015625)"/>
      <path id="DejaVuSans-Bold-31" d="M 750 831 
L 1813 831 
L 1813 3847 
L 722 3622 
L 722 4441 
L 1806 4666 
L 2950 4666 
L 2950 831 
L 4013 831 
L 4013 0 
L 750 0 
L 750 831 
z
" transform="scale(0.015625)"/>
      <path id="DejaVuSans-Bold-30" d="M 2944 2338 
Q 2944 3213 2780 3570 
Q 2616 3928 2228 3928 
Q 1841 3928 1675 3570 
Q 1509 3213 1509 2338 
Q 1509 1453 1675 1090 
Q 1841 728 2228 728 
Q 2613 728 2778 1090 
Q 2944 1453 2944 2338 
z
M 4147 2328 
Q 4147 1169 3647 539 
Q 3147 -91 2228 -91 
Q 1306 -91 806 539 
Q 306 1169 306 2328 
Q 306 3491 806 4120 
Q 1306 4750 2228 4750 
Q 3147 4750 3647 4120 
Q 4147 3491 4147 2328 
z
" transform="scale(0.015625)"/>
      <path id="DejaVuSans-Bold-500b" d="M 319 -1131 
L 319 4513 
L 3519 4513 
L 3519 -1131 
L 319 -1131 
z
M 678 -775 
L 3163 -775 
L 3163 4153 
L 678 4153 
L 678 -775 
z
" transform="scale(0.015625)"/>
      <path id="DejaVuSans-Bold-4ea4" d="M 319 -1131 
L 319 4513 
L 3519 4513 
L 3519 -1131 
L 319 -1131 
z
M 678 -775 
L 3163 -775 
L 3163 4153 
L 678 4153 
L 678 -775 
z
" transform="scale(0.015625)"/>
      <path id="DejaVuSans-Bold-6613" d="M 319 -1131 
L 319 4513 
L 3519 4513 
L 3519 -1131 
L 319 -1131 
z
M 678 -775 
L 3163 -775 
L 3163 4153 
L 678 4153 
L 678 -775 
z
" transform="scale(0.015625)"/>
      <path id="DejaVuSans-Bold-2c" d="M 653 1209 
L 1778 1209 
L 1778 256 
L 1006 -909 
L 341 -909 
L 653 256 
L 653 1209 
z
" transform="scale(0.015625)"/>
      <path id="DejaVuSans-Bold-35" d="M 678 4666 
L 3669 4666 
L 3669 3781 
L 1638 3781 
L 1638 3059 
Q 1775 3097 1914 3117 
Q 2053 3138 2203 3138 
Q 3056 3138 3531 2711 
Q 4006 2284 4006 1522 
Q 4006 766 3489 337 
Q 2972 -91 2053 -91 
Q 1656 -91 1267 -14 
Q 878 63 494 219 
L 494 1166 
Q 875 947 1217 837 
Q 1559 728 1863 728 
Q 2300 728 2551 942 
Q 2803 1156 2803 1522 
Q 2803 1891 2551 2103 
Q 2300 2316 1863 2316 
Q 1603 2316 1309 2248 
Q 1016 2181 678 2041 
L 678 4666 
z
" transform="scale(0.015625)"/>
      <path id="DejaVuSans-Bold-2d" d="M 347 2297 
L 2309 2297 
L 2309 1388 
L 347 1388 
L 347 2297 
z
" transform="scale(0.015625)"/>
      <path id="DejaVuSans-Bold-37" d="M 428 4666 
L 3944 4666 
L 3944 3988 
L 2125 0 
L 953 0 
L 2675 3781 
L 428 3781 
L 428 4666 
z
" transform="scale(0.015625)"/>
      <path id="DejaVuSans-Bold-38" d="M 2228 2088 
Q 1891 2088 1709 1903 
Q 1528 1719 1528 1375 
Q 1528 1031 1709 848 
Q 1891 666 2228 666 
Q 2563 666 2741 848 
Q 2919 1031 2919 1375 
Q 2919 1722 2741 1905 
Q 2563 2088 2228 2088 
z
M 1350 2484 
Q 925 2613 709 2878 
Q 494 3144 494 3541 
Q 494 4131 934 4440 
Q 1375 4750 2228 4750 
Q 3075 4750 3515 4442 
Q 3956 4134 3956 3541 
Q 3956 3144 3739 2878 
Q 3522 2613 3097 2484 
Q 3572 2353 3814 2058 
Q 4056 1763 4056 1313 
Q 4056 619 3595 264 
Q 3134 -91 2228 -91 
Q 1319 -91 855 264 
Q 391 619 391 1313 
Q 391 1763 633 2058 
Q 875 2353 1350 2484 
z
M 1631 3419 
Q 1631 3141 1786 2991 
Q 1941 2841 2228 2841 
Q 2509 2841 2662 2991 
Q 2816 3141 2816 3419 
Q 2816 3697 2662 3845 
Q 2509 3994 2228 3994 
Q 1941 3994 1786 3844 
Q 1631 3694 1631 3419 
z
" transform="scale(0.015625)"/>
      <path id="DejaVuSans-Bold-7e" d="M 4684 2656 
L 4684 1894 
Q 4353 1644 4073 1536 
Q 3794 1428 3494 1428 
Q 3159 1428 2713 1609 
Q 2669 1628 2644 1638 
Q 2622 1647 2575 1666 
Q 2091 1856 1797 1856 
Q 1522 1856 1253 1736 
Q 984 1616 678 1356 
L 678 2119 
Q 1013 2369 1291 2476 
Q 1569 2584 1869 2584 
Q 2203 2584 2650 2403 
Q 2697 2384 2719 2375 
Q 2741 2366 2788 2347 
Q 3272 2156 3566 2156 
Q 3834 2156 4098 2273 
Q 4363 2391 4684 2656 
z
" transform="scale(0.015625)"/>
      <path id="DejaVuSans-Bold-39" d="M 641 103 
L 641 966 
Q 928 831 1190 764 
Q 1453 697 1709 697 
Q 2247 697 2547 995 
Q 2847 1294 2900 1881 
Q 2688 1725 2447 1647 
Q 2206 1569 1925 1569 
Q 1209 1569 770 1986 
Q 331 2403 331 3084 
Q 331 3838 820 4291 
Q 1309 4744 2131 4744 
Q 3044 4744 3544 4128 
Q 4044 3513 4044 2388 
Q 4044 1231 3459 570 
Q 2875 -91 1856 -91 
Q 1528 -91 1228 -42 
Q 928 6 641 103 
z
M 2125 2350 
Q 2441 2350 2600 2554 
Q 2759 2759 2759 3169 
Q 2759 3575 2600 3781 
Q 2441 3988 2125 3988 
Q 1809 3988 1650 3781 
Q 1491 3575 1491 3169 
Q 1491 2759 1650 2554 
Q 1809 2350 2125 2350 
z
" transform="scale(0.015625)"/>
     </defs>
     <use xlink:href="#DejaVuSans-Bold-28"/>
     <use xlink:href="#DejaVuSans-Bold-6700" x="45.703125"/>
     <use xlink:href="#DejaVuSans-Bold-8fd1" x="105.712891"/>
     <use xlink:href="#DejaVuSans-Bold-20" x="165.722656"/>
     <use xlink:href="#DejaVuSans-Bold-31" x="200.537109"/>
     <use xlink:href="#DejaVuSans-Bold-32" x="270.117188"/>
     <use xlink:href="#DejaVuSans-Bold-30" x="339.697266"/>
     <use xlink:href="#DejaVuSans-Bold-20" x="409.277344"/>
     <use xlink:href="#DejaVuSans-Bold-500b" x="444.091797"/>
     <use xlink:href="#DejaVuSans-Bold-4ea4" x="504.101562"/>
     <use xlink:href="#DejaVuSans-Bold-6613" x="564.111328"/>
     <use xlink:href="#DejaVuSans-Bold-65e5" x="624.121094"/>
     <use xlink:href="#DejaVuSans-Bold-2c" x="684.130859"/>
     <use xlink:href="#DejaVuSans-Bold-20" x="722.119141"/>
     <use xlink:href="#DejaVuSans-Bold-32" x="756.933594"/>
     <use xlink:href="#DejaVuSans-Bold-30" x="826.513672"/>
     <use xlink:href="#DejaVuSans-Bold-32" x="896.09375"/>
     <use xlink:href="#DejaVuSans-Bold-35" x="965.673828"/>
     <use xlink:href="#DejaVuSans-Bold-2d" x="1035.253906"/>
     <use xlink:href="#DejaVuSans-Bold-30" x="1076.757812"/>
     <use xlink:href="#DejaVuSans-Bold-37" x="1146.337891"/>
     <use xlink:href="#DejaVuSans-Bold-2d" x="1215.917969"/>
     <use xlink:href="#DejaVuSans-Bold-31" x="1257.421875"/>
     <use xlink:href="#DejaVuSans-Bold-38" x="1327.001953"/>
     <use xlink:href="#DejaVuSans-Bold-20" x="1396.582031"/>
     <use xlink:href="#DejaVuSans-Bold-7e" x="1431.396484"/>
     <use xlink:href="#DejaVuSans-Bold-20" x="1515.185547"/>
     <use xlink:href="#DejaVuSans-Bold-32" x="1550"/>
     <use xlink:href="#DejaVuSans-Bold-30" x="1619.580078"/>
     <use xlink:href="#DejaVuSans-Bold-32" x="1689.160156"/>
     <use xlink:href="#DejaVuSans-Bold-36" x="1758.740234"/>
     <use xlink:href="#DejaVuSans-Bold-2d" x="1828.320312"/>
     <use xlink:href="#DejaVuSans-Bold-30" x="1869.824219"/>
     <use xlink:href="#DejaVuSans-Bold-31" x="1939.404297"/>
     <use xlink:href="#DejaVuSans-Bold-2d" x="2008.984375"/>
     <use xlink:href="#DejaVuSans-Bold-30" x="2050.488281"/>
     <use xlink:href="#DejaVuSans-Bold-39" x="2120.068359"/>
     <use xlink:href="#DejaVuSans-Bold-29" x="2189.648438"/>
    </g>
    <!--  -->
    <g transform="translate(718.329375 46.192281) scale(0.13 -0.13)"/>
    <!-- 最新融資餘額: 0.6 億元 | 最新收盤價: 23.35 元 | 歷史區間: 0.5~0.8 億元 | 平均: 0.6 億元 -->
    <g transform="translate(503.443438 60.817687) scale(0.13 -0.13)">
     <defs>
      <path id="DejaVuSans-Bold-65b0" d="M 319 -1131 
L 319 4513 
L 3519 4513 
L 3519 -1131 
L 319 -1131 
z
M 678 -775 
L 3163 -775 
L 3163 4153 
L 678 4153 
L 678 -775 
z
" transform="scale(0.015625)"/>
      <path id="DejaVuSans-Bold-2e" d="M 653 1209 
L 1778 1209 
L 1778 0 
L 653 0 
L 653 1209 
z
" transform="scale(0.015625)"/>
      <path id="DejaVuSans-Bold-7c" d="M 1522 4891 
L 1522 -1509 
L 813 -1509 
L 813 4891 
L 1522 4891 
z
" transform="scale(0.015625)"/>
      <path id="DejaVuSans-Bold-33" d="M 2981 2516 
Q 3453 2394 3698 2092 
Q 3944 1791 3944 1325 
Q 3944 631 3412 270 
Q 2881 -91 1863 -91 
Q 1503 -91 1142 -33 
Q 781 25 428 141 
L 428 1069 
Q 766 900 1098 814 
Q 1431 728 1753 728 
Q 2231 728 2486 893 
Q 2741 1059 2741 1369 
Q 2741 1688 2480 1852 
Q 2219 2016 1709 2016 
L 1228 2016 
L 1228 2791 
L 1734 2791 
Q 2188 2791 2409 2933 
Q 2631 3075 2631 3366 
Q 2631 3634 2415 3781 
Q 2200 3928 1806 3928 
Q 1516 3928 1219 3862 
Q 922 3797 628 3669 
L 628 4550 
Q 984 4650 1334 4700 
Q 1684 4750 2022 4750 
Q 2931 4750 3382 4451 
Q 3834 4153 3834 3553 
Q 3834 3144 3618 2883 
Q 3403 2622 2981 2516 
z
" transform="scale(0.015625)"/>
      <path id="DejaVuSans-Bold-6b77" d="M 319 -1131 
L 319 4513 
L 3519 4513 
L 3519 -1131 
L 319 -1131 
z
M 678 -775 
L 3163 -775 
L 3163 4153 
L 678 4153 
L 678 -775 
z
" transform="scale(0.015625)"/>
      <path id="DejaVuSans-Bold-53f2" d="M 319 -1131 
L 319 4513 
L 3519 4513 
L 3519 -1131 
L 319 -1131 
z
M 678 -775 
L 3163 -775 
L 3163 4153 
L 678 4153 
L 678 -775 
z
" transform="scale(0.015625)"/>
      <path id="DejaVuSans-Bold-5340" d="M 319 -1131 
L 319 4513 
L 3519 4513 
L 3519 -1131 
L 319 -1131 
z
M 678 -775 
L 3163 -775 
L 3163 4153 
L 678 4153 
L 678 -775 
z
" transform="scale(0.015625)"/>
      <path id="DejaVuSans-Bold-9593" d="M 319 -1131 
L 319 4513 
L 3519 4513 
L 3519 -1131 
L 319 -1131 
z
M 678 -775 
L 3163 -775 
L 3163 4153 
L 678 4153 
L 678 -775 
z
" transform="scale(0.015625)"/>
      <path id="DejaVuSans-Bold-5e73" d="M 319 -1131 
L 319 4513 
L 3519 4513 
L 3519 -1131 
L 319 -1131 
z
M 678 -775 
L 3163 -775 
L 3163 4153 
L 678 4153 
L 678 -775 
z
" transform="scale(0.015625)"/>
      <path id="DejaVuSans-Bold-5747" d="M 319 -1131 
L 319 4513 
L 3519 4513 
L 3519 -1131 
L 319 -1131 
z
M 678 -775 
L 3163 -775 
L 3163 4153 
L 678 4153 
L 678 -775 
z
" transform="scale(0.015625)"/>
     </defs>
     <use xlink:href="#DejaVuSans-Bold-6700"/>
     <use xlink:href="#DejaVuSans-Bold-65b0" x="60.009766"/>
     <use xlink:href="#DejaVuSans-Bold-878d" x="120.019531"/>
     <use xlink:href="#DejaVuSans-Bold-8cc7" x="180.029297"/>
     <use xlink:href="#DejaVuSans-Bold-9918" x="240.039062"/>
     <use xlink:href="#DejaVuSans-Bold-984d" x="300.048828"/>
     <use xlink:href="#DejaVuSans-Bold-3a" x="360.058594"/>
     <use xlink:href="#DejaVuSans-Bold-20" x="400.048828"/>
     <use xlink:href="#DejaVuSans-Bold-30" x="434.863281"/>
     <use xlink:href="#DejaVuSans-Bold-2e" x="504.443359"/>
     <use xlink:href="#DejaVuSans-Bold-36" x="542.431641"/>
     <use xlink:href="#DejaVuSans-Bold-20" x="612.011719"/>
     <use xlink:href="#DejaVuSans-Bold-5104" x="646.826172"/>
     <use xlink:href="#DejaVuSans-Bold-5143" x="706.835938"/>
     <use xlink:href="#DejaVuSans-Bold-20" x="766.845703"/>
     <use xlink:href="#DejaVuSans-Bold-7c" x="801.660156"/>
     <use xlink:href="#DejaVuSans-Bold-20" x="838.183594"/>
     <use xlink:href="#DejaVuSans-Bold-6700" x="872.998047"/>
     <use xlink:href="#DejaVuSans-Bold-65b0" x="933.007812"/>
     <use xlink:href="#DejaVuSans-Bold-6536" x="993.017578"/>
     <use xlink:href="#DejaVuSans-Bold-76e4" x="1053.027344"/>
     <use xlink:href="#DejaVuSans-Bold-50f9" x="1113.037109"/>
     <use xlink:href="#DejaVuSans-Bold-3a" x="1173.046875"/>
     <use xlink:href="#DejaVuSans-Bold-20" x="1213.037109"/>
     <use xlink:href="#DejaVuSans-Bold-32" x="1247.851562"/>
     <use xlink:href="#DejaVuSans-Bold-33" x="1317.431641"/>
     <use xlink:href="#DejaVuSans-Bold-2e" x="1387.011719"/>
     <use xlink:href="#DejaVuSans-Bold-33" x="1425"/>
     <use xlink:href="#DejaVuSans-Bold-35" x="1494.580078"/>
     <use xlink:href="#DejaVuSans-Bold-20" x="1564.160156"/>
     <use xlink:href="#DejaVuSans-Bold-5143" x="1598.974609"/>
     <use xlink:href="#DejaVuSans-Bold-20" x="1658.984375"/>
     <use xlink:href="#DejaVuSans-Bold-7c" x="1693.798828"/>
     <use xlink:href="#DejaVuSans-Bold-20" x="1730.322266"/>
     <use xlink:href="#DejaVuSans-Bold-6b77" x="1765.136719"/>
     <use xlink:href="#DejaVuSans-Bold-53f2" x="1825.146484"/>
     <use xlink:href="#DejaVuSans-Bold-5340" x="1885.15625"/>
     <use xlink:href="#DejaVuSans-Bold-9593" x="1945.166016"/>
     <use xlink:href="#DejaVuSans-Bold-3a" x="2005.175781"/>
     <use xlink:href="#DejaVuSans-Bold-20" x="2045.166016"/>
     <use xlink:href="#DejaVuSans-Bold-30" x="2079.980469"/>
     <use xlink:href="#DejaVuSans-Bold-2e" x="2149.560547"/>
     <use xlink:href="#DejaVuSans-Bold-35" x="2187.548828"/>
     <use xlink:href="#DejaVuSans-Bold-7e" x="2257.128906"/>
     <use xlink:href="#DejaVuSans-Bold-30" x="2340.917969"/>
     <use xlink:href="#DejaVuSans-Bold-2e" x="2410.498047"/>
     <use xlink:href="#DejaVuSans-Bold-38" x="2448.486328"/>
     <use xlink:href="#DejaVuSans-Bold-20" x="2518.066406"/>
     <use xlink:href="#DejaVuSans-Bold-5104" x="2552.880859"/>
     <use xlink:href="#DejaVuSans-Bold-5143" x="2612.890625"/>
     <use xlink:href="#DejaVuSans-Bold-20" x="2672.900391"/>
     <use xlink:href="#DejaVuSans-Bold-7c" x="2707.714844"/>
     <use xlink:href="#DejaVuSans-Bold-20" x="2744.238281"/>
     <use xlink:href="#DejaVuSans-Bold-5e73" x="2779.052734"/>
     <use xlink:href="#DejaVuSans-Bold-5747" x="2839.0625"/>
     <use xlink:href="#DejaVuSans-Bold-3a" x="2899.072266"/>
     <use xlink:href="#DejaVuSans-Bold-20" x="2939.0625"/>
     <use xlink:href="#DejaVuSans-Bold-30" x="2973.876953"/>
     <use xlink:href="#DejaVuSans-Bold-2e" x="3043.457031"/>
     <use xlink:href="#DejaVuSans-Bold-36" x="3081.445312"/>
     <use xlink:href="#DejaVuSans-Bold-20" x="3151.025391"/>
     <use xlink:href="#DejaVuSans-Bold-5104" x="3185.839844"/>
     <use xlink:href="#DejaVuSans-Bold-5143" x="3245.849609"/>
    </g>
   </g>
  </g>
 </g>
 <defs>
  <clipPath id="p0a7469db95">
   <rect x="52.079375" y="80.817687" width="1332.5" height="571.876049"/>
  </clipPath>
 </defs>
</svg>
