<?xml version="1.0" encoding="utf-8" standalone="no"?>
<!DOCTYPE svg PUBLIC "-//W3C//DTD SVG 1.1//EN"
  "http://www.w3.org/Graphics/SVG/1.1/DTD/svg11.dtd">
<svg xmlns:xlink="http://www.w3.org/1999/xlink" width="1430.24pt" height="710.4271pt" viewBox="0 0 1430.24 710.4271" xmlns="http://www.w3.org/2000/svg" version="1.1">
 <metadata>
  <rdf:RDF xmlns:dc="http://purl.org/dc/elements/1.1/" xmlns:cc="http://creativecommons.org/ns#" xmlns:rdf="http://www.w3.org/1999/02/22-rdf-syntax-ns#">
   <cc:Work>
    <dc:type rdf:resource="http://purl.org/dc/dcmitype/StillImage"/>
    <dc:date>2026-01-14T22:40:40.679276</dc:date>
    <dc:format>image/svg+xml</dc:format>
    <dc:creator>
     <cc:Agent>
      <dc:title>Matplotlib v3.9.4, https://matplotlib.org/</dc:title>
     </cc:Agent>
    </dc:creator>
   </cc:Work>
  </rdf:RDF>
 </metadata>
 <defs>
  <style type="text/css">*{stroke-linejoin: round; stroke-linecap: butt}</style>
 </defs>
 <g id="figure_1">
  <g id="patch_1">
   <path d="M 0 710.4271 
L 1430.24 710.4271 
L 1430.24 0 
L 0 0 
z
" style="fill: #ffffff"/>
  </g>
  <g id="axes_1">
   <g id="patch_2">
    <path d="M 48.90125 644.224972 
L 1327.70125 644.224972 
L 1327.70125 96.234469 
L 48.90125 96.234469 
z
" style="fill: #ffffff"/>
   </g>
   <g id="matplotlib.axis_1">
    <g id="xtick_1">
     <g id="line2d_1">
      <defs>
       <path id="m667e2e2097" d="M 0 0 
L 0 3.5 
" style="stroke: #000000; stroke-width: 0.8"/>
      </defs>
      <g>
       <use xlink:href="#m667e2e2097" x="132.748555" y="644.224972" style="stroke: #000000; stroke-width: 0.8"/>
      </g>
     </g>
     <g id="text_1">
      <!-- 2025-08 -->
      <g transform="translate(101.733084 686.142789) rotate(-45) scale(0.1 -0.1)">
       <defs>
        <path id="DejaVuSans-32" d="M 1228 531 
L 3431 531 
L 3431 0 
L 469 0 
L 469 531 
Q 828 903 1448 1529 
Q 2069 2156 2228 2338 
Q 2531 2678 2651 2914 
Q 2772 3150 2772 3378 
Q 2772 3750 2511 3984 
Q 2250 4219 1831 4219 
Q 1534 4219 1204 4116 
Q 875 4013 500 3803 
L 500 4441 
Q 881 4594 1212 4672 
Q 1544 4750 1819 4750 
Q 2544 4750 2975 4387 
Q 3406 4025 3406 3419 
Q 3406 3131 3298 2873 
Q 3191 2616 2906 2266 
Q 2828 2175 2409 1742 
Q 1991 1309 1228 531 
z
" transform="scale(0.015625)"/>
        <path id="DejaVuSans-30" d="M 2034 4250 
Q 1547 4250 1301 3770 
Q 1056 3291 1056 2328 
Q 1056 1369 1301 889 
Q 1547 409 2034 409 
Q 2525 409 2770 889 
Q 3016 1369 3016 2328 
Q 3016 3291 2770 3770 
Q 2525 4250 2034 4250 
z
M 2034 4750 
Q 2819 4750 3233 4129 
Q 3647 3509 3647 2328 
Q 3647 1150 3233 529 
Q 2819 -91 2034 -91 
Q 1250 -91 836 529 
Q 422 1150 422 2328 
Q 422 3509 836 4129 
Q 1250 4750 2034 4750 
z
" transform="scale(0.015625)"/>
        <path id="DejaVuSans-35" d="M 691 4666 
L 3169 4666 
L 3169 4134 
L 1269 4134 
L 1269 2991 
Q 1406 3038 1543 3061 
Q 1681 3084 1819 3084 
Q 2600 3084 3056 2656 
Q 3513 2228 3513 1497 
Q 3513 744 3044 326 
Q 2575 -91 1722 -91 
Q 1428 -91 1123 -41 
Q 819 9 494 109 
L 494 744 
Q 775 591 1075 516 
Q 1375 441 1709 441 
Q 2250 441 2565 725 
Q 2881 1009 2881 1497 
Q 2881 1984 2565 2268 
Q 2250 2553 1709 2553 
Q 1456 2553 1204 2497 
Q 953 2441 691 2322 
L 691 4666 
z
" transform="scale(0.015625)"/>
        <path id="DejaVuSans-2d" d="M 313 2009 
L 1997 2009 
L 1997 1497 
L 313 1497 
L 313 2009 
z
" transform="scale(0.015625)"/>
        <path id="DejaVuSans-38" d="M 2034 2216 
Q 1584 2216 1326 1975 
Q 1069 1734 1069 1313 
Q 1069 891 1326 650 
Q 1584 409 2034 409 
Q 2484 409 2743 651 
Q 3003 894 3003 1313 
Q 3003 1734 2745 1975 
Q 2488 2216 2034 2216 
z
M 1403 2484 
Q 997 2584 770 2862 
Q 544 3141 544 3541 
Q 544 4100 942 4425 
Q 1341 4750 2034 4750 
Q 2731 4750 3128 4425 
Q 3525 4100 3525 3541 
Q 3525 3141 3298 2862 
Q 3072 2584 2669 2484 
Q 3125 2378 3379 2068 
Q 3634 1759 3634 1313 
Q 3634 634 3220 271 
Q 2806 -91 2034 -91 
Q 1263 -91 848 271 
Q 434 634 434 1313 
Q 434 1759 690 2068 
Q 947 2378 1403 2484 
z
M 1172 3481 
Q 1172 3119 1398 2916 
Q 1625 2713 2034 2713 
Q 2441 2713 2670 2916 
Q 2900 3119 2900 3481 
Q 2900 3844 2670 4047 
Q 2441 4250 2034 4250 
Q 1625 4250 1398 4047 
Q 1172 3844 1172 3481 
z
" transform="scale(0.015625)"/>
       </defs>
       <use xlink:href="#DejaVuSans-32"/>
       <use xlink:href="#DejaVuSans-30" x="63.623047"/>
       <use xlink:href="#DejaVuSans-32" x="127.246094"/>
       <use xlink:href="#DejaVuSans-35" x="190.869141"/>
       <use xlink:href="#DejaVuSans-2d" x="254.492188"/>
       <use xlink:href="#DejaVuSans-30" x="290.576172"/>
       <use xlink:href="#DejaVuSans-38" x="354.199219"/>
      </g>
     </g>
    </g>
    <g id="xtick_2">
     <g id="line2d_2">
      <g>
       <use xlink:href="#m667e2e2097" x="345.367488" y="644.224972" style="stroke: #000000; stroke-width: 0.8"/>
      </g>
     </g>
     <g id="text_2">
      <!-- 2025-09 -->
      <g transform="translate(314.352016 686.142789) rotate(-45) scale(0.1 -0.1)">
       <defs>
        <path id="DejaVuSans-39" d="M 703 97 
L 703 672 
Q 941 559 1184 500 
Q 1428 441 1663 441 
Q 2288 441 2617 861 
Q 2947 1281 2994 2138 
Q 2813 1869 2534 1725 
Q 2256 1581 1919 1581 
Q 1219 1581 811 2004 
Q 403 2428 403 3163 
Q 403 3881 828 4315 
Q 1253 4750 1959 4750 
Q 2769 4750 3195 4129 
Q 3622 3509 3622 2328 
Q 3622 1225 3098 567 
Q 2575 -91 1691 -91 
Q 1453 -91 1209 -44 
Q 966 3 703 97 
z
M 1959 2075 
Q 2384 2075 2632 2365 
Q 2881 2656 2881 3163 
Q 2881 3666 2632 3958 
Q 2384 4250 1959 4250 
Q 1534 4250 1286 3958 
Q 1038 3666 1038 3163 
Q 1038 2656 1286 2365 
Q 1534 2075 1959 2075 
z
" transform="scale(0.015625)"/>
       </defs>
       <use xlink:href="#DejaVuSans-32"/>
       <use xlink:href="#DejaVuSans-30" x="63.623047"/>
       <use xlink:href="#DejaVuSans-32" x="127.246094"/>
       <use xlink:href="#DejaVuSans-35" x="190.869141"/>
       <use xlink:href="#DejaVuSans-2d" x="254.492188"/>
       <use xlink:href="#DejaVuSans-30" x="290.576172"/>
       <use xlink:href="#DejaVuSans-39" x="354.199219"/>
      </g>
     </g>
    </g>
    <g id="xtick_3">
     <g id="line2d_3">
      <g>
       <use xlink:href="#m667e2e2097" x="551.127745" y="644.224972" style="stroke: #000000; stroke-width: 0.8"/>
      </g>
     </g>
     <g id="text_3">
      <!-- 2025-10 -->
      <g transform="translate(520.112274 686.142789) rotate(-45) scale(0.1 -0.1)">
       <defs>
        <path id="DejaVuSans-31" d="M 794 531 
L 1825 531 
L 1825 4091 
L 703 3866 
L 703 4441 
L 1819 4666 
L 2450 4666 
L 2450 531 
L 3481 531 
L 3481 0 
L 794 0 
L 794 531 
z
" transform="scale(0.015625)"/>
       </defs>
       <use xlink:href="#DejaVuSans-32"/>
       <use xlink:href="#DejaVuSans-30" x="63.623047"/>
       <use xlink:href="#DejaVuSans-32" x="127.246094"/>
       <use xlink:href="#DejaVuSans-35" x="190.869141"/>
       <use xlink:href="#DejaVuSans-2d" x="254.492188"/>
       <use xlink:href="#DejaVuSans-31" x="290.576172"/>
       <use xlink:href="#DejaVuSans-30" x="354.199219"/>
      </g>
     </g>
    </g>
    <g id="xtick_4">
     <g id="line2d_4">
      <g>
       <use xlink:href="#m667e2e2097" x="763.746678" y="644.224972" style="stroke: #000000; stroke-width: 0.8"/>
      </g>
     </g>
     <g id="text_4">
      <!-- 2025-11 -->
      <g transform="translate(732.731207 686.142789) rotate(-45) scale(0.1 -0.1)">
       <use xlink:href="#DejaVuSans-32"/>
       <use xlink:href="#DejaVuSans-30" x="63.623047"/>
       <use xlink:href="#DejaVuSans-32" x="127.246094"/>
       <use xlink:href="#DejaVuSans-35" x="190.869141"/>
       <use xlink:href="#DejaVuSans-2d" x="254.492188"/>
       <use xlink:href="#DejaVuSans-31" x="290.576172"/>
       <use xlink:href="#DejaVuSans-31" x="354.199219"/>
      </g>
     </g>
    </g>
    <g id="xtick_5">
     <g id="line2d_5">
      <g>
       <use xlink:href="#m667e2e2097" x="969.506935" y="644.224972" style="stroke: #000000; stroke-width: 0.8"/>
      </g>
     </g>
     <g id="text_5">
      <!-- 2025-12 -->
      <g transform="translate(938.491464 686.142789) rotate(-45) scale(0.1 -0.1)">
       <use xlink:href="#DejaVuSans-32"/>
       <use xlink:href="#DejaVuSans-30" x="63.623047"/>
       <use xlink:href="#DejaVuSans-32" x="127.246094"/>
       <use xlink:href="#DejaVuSans-35" x="190.869141"/>
       <use xlink:href="#DejaVuSans-2d" x="254.492188"/>
       <use xlink:href="#DejaVuSans-31" x="290.576172"/>
       <use xlink:href="#DejaVuSans-32" x="354.199219"/>
      </g>
     </g>
    </g>
    <g id="xtick_6">
     <g id="line2d_6">
      <g>
       <use xlink:href="#m667e2e2097" x="1182.125868" y="644.224972" style="stroke: #000000; stroke-width: 0.8"/>
      </g>
     </g>
     <g id="text_6">
      <!-- 2026-01 -->
      <g transform="translate(1151.110397 686.142789) rotate(-45) scale(0.1 -0.1)">
       <defs>
        <path id="DejaVuSans-36" d="M 2113 2584 
Q 1688 2584 1439 2293 
Q 1191 2003 1191 1497 
Q 1191 994 1439 701 
Q 1688 409 2113 409 
Q 2538 409 2786 701 
Q 3034 994 3034 1497 
Q 3034 2003 2786 2293 
Q 2538 2584 2113 2584 
z
M 3366 4563 
L 3366 3988 
Q 3128 4100 2886 4159 
Q 2644 4219 2406 4219 
Q 1781 4219 1451 3797 
Q 1122 3375 1075 2522 
Q 1259 2794 1537 2939 
Q 1816 3084 2150 3084 
Q 2853 3084 3261 2657 
Q 3669 2231 3669 1497 
Q 3669 778 3244 343 
Q 2819 -91 2113 -91 
Q 1303 -91 875 529 
Q 447 1150 447 2328 
Q 447 3434 972 4092 
Q 1497 4750 2381 4750 
Q 2619 4750 2861 4703 
Q 3103 4656 3366 4563 
z
" transform="scale(0.015625)"/>
       </defs>
       <use xlink:href="#DejaVuSans-32"/>
       <use xlink:href="#DejaVuSans-30" x="63.623047"/>
       <use xlink:href="#DejaVuSans-32" x="127.246094"/>
       <use xlink:href="#DejaVuSans-36" x="190.869141"/>
       <use xlink:href="#DejaVuSans-2d" x="254.492188"/>
       <use xlink:href="#DejaVuSans-30" x="290.576172"/>
       <use xlink:href="#DejaVuSans-31" x="354.199219"/>
      </g>
     </g>
    </g>
    <g id="text_7">
     <!-- 日期 -->
     <g transform="translate(681.099375 700.731475) scale(0.12 -0.12)">
      <defs>
       <path id="DejaVuSans-Bold-65e5" d="M 319 -1131 
L 319 4513 
L 3519 4513 
L 3519 -1131 
L 319 -1131 
z
M 678 -775 
L 3163 -775 
L 3163 4153 
L 678 4153 
L 678 -775 
z
" transform="scale(0.015625)"/>
       <path id="DejaVuSans-Bold-671f" d="M 319 -1131 
L 319 4513 
L 3519 4513 
L 3519 -1131 
L 319 -1131 
z
M 678 -775 
L 3163 -775 
L 3163 4153 
L 678 4153 
L 678 -775 
z
" transform="scale(0.015625)"/>
      </defs>
      <use xlink:href="#DejaVuSans-Bold-65e5"/>
      <use xlink:href="#DejaVuSans-Bold-671f" x="60.009766"/>
     </g>
    </g>
   </g>
   <g id="matplotlib.axis_2">
    <g id="ytick_1">
     <g id="line2d_7">
      <path d="M 48.90125 593.156534 
L 1327.70125 593.156534 
" clip-path="url(#pfff412fb55)" style="fill: none; stroke-dasharray: 2.96,1.28; stroke-dashoffset: 0; stroke: #b0b0b0; stroke-opacity: 0.3; stroke-width: 0.8"/>
     </g>
     <g id="line2d_8">
      <defs>
       <path id="m9e7ba2a888" d="M 0 0 
L -3.5 0 
" style="stroke: #000000; stroke-width: 0.8"/>
      </defs>
      <g>
       <use xlink:href="#m9e7ba2a888" x="48.90125" y="593.156534" style="stroke: #000000; stroke-width: 0.8"/>
      </g>
     </g>
     <g id="text_8">
      <!-- 60 -->
      <g transform="translate(29.17625 596.955752) scale(0.1 -0.1)">
       <use xlink:href="#DejaVuSans-36"/>
       <use xlink:href="#DejaVuSans-30" x="63.623047"/>
      </g>
     </g>
    </g>
    <g id="ytick_2">
     <g id="line2d_9">
      <path d="M 48.90125 479.418364 
L 1327.70125 479.418364 
" clip-path="url(#pfff412fb55)" style="fill: none; stroke-dasharray: 2.96,1.28; stroke-dashoffset: 0; stroke: #b0b0b0; stroke-opacity: 0.3; stroke-width: 0.8"/>
     </g>
     <g id="line2d_10">
      <g>
       <use xlink:href="#m9e7ba2a888" x="48.90125" y="479.418364" style="stroke: #000000; stroke-width: 0.8"/>
      </g>
     </g>
     <g id="text_9">
      <!-- 80 -->
      <g transform="translate(29.17625 483.217582) scale(0.1 -0.1)">
       <use xlink:href="#DejaVuSans-38"/>
       <use xlink:href="#DejaVuSans-30" x="63.623047"/>
      </g>
     </g>
    </g>
    <g id="ytick_3">
     <g id="line2d_11">
      <path d="M 48.90125 365.680194 
L 1327.70125 365.680194 
" clip-path="url(#pfff412fb55)" style="fill: none; stroke-dasharray: 2.96,1.28; stroke-dashoffset: 0; stroke: #b0b0b0; stroke-opacity: 0.3; stroke-width: 0.8"/>
     </g>
     <g id="line2d_12">
      <g>
       <use xlink:href="#m9e7ba2a888" x="48.90125" y="365.680194" style="stroke: #000000; stroke-width: 0.8"/>
      </g>
     </g>
     <g id="text_10">
      <!-- 100 -->
      <g transform="translate(22.81375 369.479412) scale(0.1 -0.1)">
       <use xlink:href="#DejaVuSans-31"/>
       <use xlink:href="#DejaVuSans-30" x="63.623047"/>
       <use xlink:href="#DejaVuSans-30" x="127.246094"/>
      </g>
     </g>
    </g>
    <g id="ytick_4">
     <g id="line2d_13">
      <path d="M 48.90125 251.942024 
L 1327.70125 251.942024 
" clip-path="url(#pfff412fb55)" style="fill: none; stroke-dasharray: 2.96,1.28; stroke-dashoffset: 0; stroke: #b0b0b0; stroke-opacity: 0.3; stroke-width: 0.8"/>
     </g>
     <g id="line2d_14">
      <g>
       <use xlink:href="#m9e7ba2a888" x="48.90125" y="251.942024" style="stroke: #000000; stroke-width: 0.8"/>
      </g>
     </g>
     <g id="text_11">
      <!-- 120 -->
      <g transform="translate(22.81375 255.741242) scale(0.1 -0.1)">
       <use xlink:href="#DejaVuSans-31"/>
       <use xlink:href="#DejaVuSans-32" x="63.623047"/>
       <use xlink:href="#DejaVuSans-30" x="127.246094"/>
      </g>
     </g>
    </g>
    <g id="ytick_5">
     <g id="line2d_15">
      <path d="M 48.90125 138.203853 
L 1327.70125 138.203853 
" clip-path="url(#pfff412fb55)" style="fill: none; stroke-dasharray: 2.96,1.28; stroke-dashoffset: 0; stroke: #b0b0b0; stroke-opacity: 0.3; stroke-width: 0.8"/>
     </g>
     <g id="line2d_16">
      <g>
       <use xlink:href="#m9e7ba2a888" x="48.90125" y="138.203853" style="stroke: #000000; stroke-width: 0.8"/>
      </g>
     </g>
     <g id="text_12">
      <!-- 140 -->
      <g transform="translate(22.81375 142.003072) scale(0.1 -0.1)">
       <defs>
        <path id="DejaVuSans-34" d="M 2419 4116 
L 825 1625 
L 2419 1625 
L 2419 4116 
z
M 2253 4666 
L 3047 4666 
L 3047 1625 
L 3713 1625 
L 3713 1100 
L 3047 1100 
L 3047 0 
L 2419 0 
L 2419 1100 
L 313 1100 
L 313 1709 
L 2253 4666 
z
" transform="scale(0.015625)"/>
       </defs>
       <use xlink:href="#DejaVuSans-31"/>
       <use xlink:href="#DejaVuSans-34" x="63.623047"/>
       <use xlink:href="#DejaVuSans-30" x="127.246094"/>
      </g>
     </g>
    </g>
    <g id="text_13">
     <!-- 收盤價 (元) -->
     <g transform="translate(16.318125 392.206595) rotate(-90) scale(0.12 -0.12)">
      <defs>
       <path id="DejaVuSans-Bold-6536" d="M 319 -1131 
L 319 4513 
L 3519 4513 
L 3519 -1131 
L 319 -1131 
z
M 678 -775 
L 3163 -775 
L 3163 4153 
L 678 4153 
L 678 -775 
z
" transform="scale(0.015625)"/>
       <path id="DejaVuSans-Bold-76e4" d="M 319 -1131 
L 319 4513 
L 3519 4513 
L 3519 -1131 
L 319 -1131 
z
M 678 -775 
L 3163 -775 
L 3163 4153 
L 678 4153 
L 678 -775 
z
" transform="scale(0.015625)"/>
       <path id="DejaVuSans-Bold-50f9" d="M 319 -1131 
L 319 4513 
L 3519 4513 
L 3519 -1131 
L 319 -1131 
z
M 678 -775 
L 3163 -775 
L 3163 4153 
L 678 4153 
L 678 -775 
z
" transform="scale(0.015625)"/>
       <path id="DejaVuSans-Bold-20" transform="scale(0.015625)"/>
       <path id="DejaVuSans-Bold-28" d="M 2413 -844 
L 1484 -844 
Q 1006 -72 778 623 
Q 550 1319 550 2003 
Q 550 2688 779 3389 
Q 1009 4091 1484 4856 
L 2413 4856 
Q 2013 4116 1813 3408 
Q 1613 2700 1613 2009 
Q 1613 1319 1811 609 
Q 2009 -100 2413 -844 
z
" transform="scale(0.015625)"/>
       <path id="DejaVuSans-Bold-5143" d="M 319 -1131 
L 319 4513 
L 3519 4513 
L 3519 -1131 
L 319 -1131 
z
M 678 -775 
L 3163 -775 
L 3163 4153 
L 678 4153 
L 678 -775 
z
" transform="scale(0.015625)"/>
       <path id="DejaVuSans-Bold-29" d="M 513 -844 
Q 913 -100 1113 609 
Q 1313 1319 1313 2009 
Q 1313 2700 1113 3408 
Q 913 4116 513 4856 
L 1441 4856 
Q 1916 4091 2145 3389 
Q 2375 2688 2375 2003 
Q 2375 1319 2147 623 
Q 1919 -72 1441 -844 
L 513 -844 
z
" transform="scale(0.015625)"/>
      </defs>
      <use xlink:href="#DejaVuSans-Bold-6536"/>
      <use xlink:href="#DejaVuSans-Bold-76e4" x="60.009766"/>
      <use xlink:href="#DejaVuSans-Bold-50f9" x="120.019531"/>
      <use xlink:href="#DejaVuSans-Bold-20" x="180.029297"/>
      <use xlink:href="#DejaVuSans-Bold-28" x="214.84375"/>
      <use xlink:href="#DejaVuSans-Bold-5143" x="260.546875"/>
      <use xlink:href="#DejaVuSans-Bold-29" x="320.556641"/>
     </g>
    </g>
   </g>
   <g id="patch_3">
    <path d="M 48.90125 644.224972 
L 48.90125 96.234469 
" style="fill: none; stroke: #000000; stroke-width: 0.8; stroke-linejoin: miter; stroke-linecap: square"/>
   </g>
   <g id="patch_4">
    <path d="M 1327.70125 644.224972 
L 1327.70125 96.234469 
" style="fill: none; stroke: #000000; stroke-width: 0.8; stroke-linejoin: miter; stroke-linecap: square"/>
   </g>
   <g id="patch_5">
    <path d="M 48.90125 644.224972 
L 1327.70125 644.224972 
" style="fill: none; stroke: #000000; stroke-width: 0.8; stroke-linejoin: miter; stroke-linecap: square"/>
   </g>
   <g id="patch_6">
    <path d="M 48.90125 96.234469 
L 1327.70125 96.234469 
" style="fill: none; stroke: #000000; stroke-width: 0.8; stroke-linejoin: miter; stroke-linecap: square"/>
   </g>
   <g id="legend_1">
    <g id="patch_7">
     <path d="M 55.90125 148.268844 
L 150.26375 148.268844 
Q 152.26375 148.268844 152.26375 146.268844 
L 152.26375 103.234469 
Q 152.26375 101.234469 150.26375 101.234469 
L 55.90125 101.234469 
Q 53.90125 101.234469 53.90125 103.234469 
L 53.90125 146.268844 
Q 53.90125 148.268844 55.90125 148.268844 
z
" style="fill: #ffffff; opacity: 0.8; stroke: #cccccc; stroke-linejoin: miter"/>
    </g>
    <g id="line2d_17">
     <path d="M 57.90125 109.332906 
L 67.90125 109.332906 
L 77.90125 109.332906 
" style="fill: none; stroke: #000000; stroke-width: 2.5; stroke-linecap: square"/>
    </g>
    <g id="text_14">
     <!-- 碩網 收盤價 (長期) -->
     <g transform="translate(85.90125 112.832906) scale(0.1 -0.1)">
      <defs>
       <path id="DejaVuSans-78a9" d="M 319 -1131 
L 319 4513 
L 3519 4513 
L 3519 -1131 
L 319 -1131 
z
M 678 -775 
L 3163 -775 
L 3163 4153 
L 678 4153 
L 678 -775 
z
" transform="scale(0.015625)"/>
       <path id="DejaVuSans-7db2" d="M 319 -1131 
L 319 4513 
L 3519 4513 
L 3519 -1131 
L 319 -1131 
z
M 678 -775 
L 3163 -775 
L 3163 4153 
L 678 4153 
L 678 -775 
z
" transform="scale(0.015625)"/>
       <path id="DejaVuSans-20" transform="scale(0.015625)"/>
       <path id="DejaVuSans-6536" d="M 319 -1131 
L 319 4513 
L 3519 4513 
L 3519 -1131 
L 319 -1131 
z
M 678 -775 
L 3163 -775 
L 3163 4153 
L 678 4153 
L 678 -775 
z
" transform="scale(0.015625)"/>
       <path id="DejaVuSans-76e4" d="M 319 -1131 
L 319 4513 
L 3519 4513 
L 3519 -1131 
L 319 -1131 
z
M 678 -775 
L 3163 -775 
L 3163 4153 
L 678 4153 
L 678 -775 
z
" transform="scale(0.015625)"/>
       <path id="DejaVuSans-50f9" d="M 319 -1131 
L 319 4513 
L 3519 4513 
L 3519 -1131 
L 319 -1131 
z
M 678 -775 
L 3163 -775 
L 3163 4153 
L 678 4153 
L 678 -775 
z
" transform="scale(0.015625)"/>
       <path id="DejaVuSans-28" d="M 1984 4856 
Q 1566 4138 1362 3434 
Q 1159 2731 1159 2009 
Q 1159 1288 1364 580 
Q 1569 -128 1984 -844 
L 1484 -844 
Q 1016 -109 783 600 
Q 550 1309 550 2009 
Q 550 2706 781 3412 
Q 1013 4119 1484 4856 
L 1984 4856 
z
" transform="scale(0.015625)"/>
       <path id="DejaVuSans-9577" d="M 319 -1131 
L 319 4513 
L 3519 4513 
L 3519 -1131 
L 319 -1131 
z
M 678 -775 
L 3163 -775 
L 3163 4153 
L 678 4153 
L 678 -775 
z
" transform="scale(0.015625)"/>
       <path id="DejaVuSans-671f" d="M 319 -1131 
L 319 4513 
L 3519 4513 
L 3519 -1131 
L 319 -1131 
z
M 678 -775 
L 3163 -775 
L 3163 4153 
L 678 4153 
L 678 -775 
z
" transform="scale(0.015625)"/>
       <path id="DejaVuSans-29" d="M 513 4856 
L 1013 4856 
Q 1481 4119 1714 3412 
Q 1947 2706 1947 2009 
Q 1947 1309 1714 600 
Q 1481 -109 1013 -844 
L 513 -844 
Q 928 -128 1133 580 
Q 1338 1288 1338 2009 
Q 1338 2731 1133 3434 
Q 928 4138 513 4856 
z
" transform="scale(0.015625)"/>
      </defs>
      <use xlink:href="#DejaVuSans-78a9"/>
      <use xlink:href="#DejaVuSans-7db2" x="60.009766"/>
      <use xlink:href="#DejaVuSans-20" x="120.019531"/>
      <use xlink:href="#DejaVuSans-6536" x="151.806641"/>
      <use xlink:href="#DejaVuSans-76e4" x="211.816406"/>
      <use xlink:href="#DejaVuSans-50f9" x="271.826172"/>
      <use xlink:href="#DejaVuSans-20" x="331.835938"/>
      <use xlink:href="#DejaVuSans-28" x="363.623047"/>
      <use xlink:href="#DejaVuSans-9577" x="402.636719"/>
      <use xlink:href="#DejaVuSans-671f" x="462.646484"/>
      <use xlink:href="#DejaVuSans-29" x="522.65625"/>
     </g>
    </g>
    <g id="patch_8">
     <path d="M 57.90125 127.511031 
L 77.90125 127.511031 
L 77.90125 120.511031 
L 57.90125 120.511031 
z
" style="fill: #ffd700; opacity: 0.85"/>
    </g>
    <g id="text_15">
     <!-- 碩網 融資餘額 (日) -->
     <g transform="translate(85.90125 127.511031) scale(0.1 -0.1)">
      <defs>
       <path id="DejaVuSans-878d" d="M 319 -1131 
L 319 4513 
L 3519 4513 
L 3519 -1131 
L 319 -1131 
z
M 678 -775 
L 3163 -775 
L 3163 4153 
L 678 4153 
L 678 -775 
z
" transform="scale(0.015625)"/>
       <path id="DejaVuSans-8cc7" d="M 319 -1131 
L 319 4513 
L 3519 4513 
L 3519 -1131 
L 319 -1131 
z
M 678 -775 
L 3163 -775 
L 3163 4153 
L 678 4153 
L 678 -775 
z
" transform="scale(0.015625)"/>
       <path id="DejaVuSans-9918" d="M 319 -1131 
L 319 4513 
L 3519 4513 
L 3519 -1131 
L 319 -1131 
z
M 678 -775 
L 3163 -775 
L 3163 4153 
L 678 4153 
L 678 -775 
z
" transform="scale(0.015625)"/>
       <path id="DejaVuSans-984d" d="M 319 -1131 
L 319 4513 
L 3519 4513 
L 3519 -1131 
L 319 -1131 
z
M 678 -775 
L 3163 -775 
L 3163 4153 
L 678 4153 
L 678 -775 
z
" transform="scale(0.015625)"/>
       <path id="DejaVuSans-65e5" d="M 319 -1131 
L 319 4513 
L 3519 4513 
L 3519 -1131 
L 319 -1131 
z
M 678 -775 
L 3163 -775 
L 3163 4153 
L 678 4153 
L 678 -775 
z
" transform="scale(0.015625)"/>
      </defs>
      <use xlink:href="#DejaVuSans-78a9"/>
      <use xlink:href="#DejaVuSans-7db2" x="60.009766"/>
      <use xlink:href="#DejaVuSans-20" x="120.019531"/>
      <use xlink:href="#DejaVuSans-878d" x="151.806641"/>
      <use xlink:href="#DejaVuSans-8cc7" x="211.816406"/>
      <use xlink:href="#DejaVuSans-9918" x="271.826172"/>
      <use xlink:href="#DejaVuSans-984d" x="331.835938"/>
      <use xlink:href="#DejaVuSans-20" x="391.845703"/>
      <use xlink:href="#DejaVuSans-28" x="423.632812"/>
      <use xlink:href="#DejaVuSans-65e5" x="462.646484"/>
      <use xlink:href="#DejaVuSans-29" x="522.65625"/>
     </g>
    </g>
    <g id="line2d_18">
     <path d="M 57.90125 138.689156 
L 67.90125 138.689156 
L 77.90125 138.689156 
" style="fill: none; stroke: #ff0000; stroke-width: 2.5; stroke-linecap: square"/>
    </g>
    <g id="text_16">
     <!-- 融資餘額/市值 (長期) -->
     <g transform="translate(85.90125 142.189156) scale(0.1 -0.1)">
      <defs>
       <path id="DejaVuSans-2f" d="M 1625 4666 
L 2156 4666 
L 531 -594 
L 0 -594 
L 1625 4666 
z
" transform="scale(0.015625)"/>
       <path id="DejaVuSans-5e02" d="M 319 -1131 
L 319 4513 
L 3519 4513 
L 3519 -1131 
L 319 -1131 
z
M 678 -775 
L 3163 -775 
L 3163 4153 
L 678 4153 
L 678 -775 
z
" transform="scale(0.015625)"/>
       <path id="DejaVuSans-503c" d="M 319 -1131 
L 319 4513 
L 3519 4513 
L 3519 -1131 
L 319 -1131 
z
M 678 -775 
L 3163 -775 
L 3163 4153 
L 678 4153 
L 678 -775 
z
" transform="scale(0.015625)"/>
      </defs>
      <use xlink:href="#DejaVuSans-878d"/>
      <use xlink:href="#DejaVuSans-8cc7" x="60.009766"/>
      <use xlink:href="#DejaVuSans-9918" x="120.019531"/>
      <use xlink:href="#DejaVuSans-984d" x="180.029297"/>
      <use xlink:href="#DejaVuSans-2f" x="240.039062"/>
      <use xlink:href="#DejaVuSans-5e02" x="273.730469"/>
      <use xlink:href="#DejaVuSans-503c" x="333.740234"/>
      <use xlink:href="#DejaVuSans-20" x="393.75"/>
      <use xlink:href="#DejaVuSans-28" x="425.537109"/>
      <use xlink:href="#DejaVuSans-9577" x="464.550781"/>
      <use xlink:href="#DejaVuSans-671f" x="524.560547"/>
      <use xlink:href="#DejaVuSans-29" x="584.570312"/>
     </g>
    </g>
   </g>
   <g id="line2d_19">
    <path d="M 112.172529 305.967654 
L 119.031204 291.750383 
L 125.88988 323.02838 
L 132.748555 337.245651 
L 153.324581 323.02838 
L 160.183256 286.063475 
L 167.041931 178.012213 
L 173.900606 121.143128 
L 180.759282 126.830036 
L 201.335307 149.577671 
L 208.193983 220.664027 
L 215.052658 160.951488 
L 221.911333 166.638396 
L 228.770008 186.542576 
L 249.346034 229.19439 
L 256.204709 254.785478 
L 263.063385 246.255115 
L 269.92206 274.689658 
L 276.780735 263.315841 
L 297.356761 246.255115 
L 304.215436 246.255115 
L 311.074111 257.628932 
L 317.932787 263.315841 
L 324.791462 274.689658 
L 345.367488 291.750383 
L 352.226163 369.66103 
L 359.084838 365.680194 
L 365.943513 354.306377 
L 372.802189 362.836739 
L 393.378214 365.680194 
L 400.23689 365.680194 
L 407.095565 372.504484 
L 413.95424 297.437292 
L 420.812915 348.619468 
L 441.388941 370.798411 
L 448.247616 373.641865 
L 455.106292 372.504484 
L 461.964967 382.740919 
L 468.823642 379.897465 
L 489.399668 379.897465 
L 496.258343 380.466156 
L 503.117018 388.427828 
L 509.975694 407.763317 
L 516.834369 407.194626 
L 544.26907 423.117969 
L 551.127745 420.843206 
L 557.98642 425.961424 
L 564.845096 443.022149 
L 592.279797 456.67073 
L 599.138472 454.964657 
L 605.997147 448.140367 
L 633.431848 457.808111 
L 640.290523 478.849673 
L 647.149199 495.341707 
L 654.007874 493.635635 
L 660.866549 491.929562 
L 681.442575 485.105272 
L 688.30125 487.948726 
L 695.159925 477.1436 
L 702.0186 468.044547 
L 729.453301 479.418364 
L 736.311977 489.086108 
L 743.170652 493.635635 
L 750.029327 505.009452 
L 756.888002 514.677196 
L 777.464028 505.578143 
L 784.322703 506.715524 
L 791.181379 522.070177 
L 798.040054 519.226723 
L 804.898729 523.207559 
L 825.474755 502.734689 
L 832.33343 521.501487 
L 839.192105 526.051013 
L 846.050781 518.089341 
L 852.909456 512.971124 
L 873.485482 498.185162 
L 880.344157 525.482323 
L 887.202832 551.073411 
L 894.061507 561.878537 
L 900.920183 560.741155 
L 921.496208 553.348174 
L 928.354884 530.60054 
L 935.213559 541.405666 
L 942.072234 536.287449 
L 948.930909 528.894468 
L 969.506935 540.268285 
L 976.36561 533.443994 
L 983.224286 535.150067 
L 990.082961 524.913632 
L 996.941636 536.287449 
L 1017.517662 533.443994 
L 1024.376337 536.287449 
L 1031.235012 559.035083 
L 1038.093688 565.859373 
L 1044.952363 585.194862 
L 1065.528389 593.156534 
L 1072.387064 581.782717 
L 1079.245739 589.175698 
L 1086.104414 589.744389 
L 1092.96309 590.313079 
L 1113.539115 590.88177 
L 1120.397791 578.939262 
L 1127.256466 581.214026 
L 1140.973816 585.194862 
L 1161.549842 590.313079 
L 1168.408517 595.999988 
L 1175.267193 607.373805 
L 1188.984543 607.373805 
L 1209.560569 607.373805 
L 1216.419244 605.099042 
L 1223.277919 619.316313 
L 1230.136595 617.041549 
L 1236.99527 607.373805 
L 1257.571296 610.217259 
L 1264.429971 604.530351 
" clip-path="url(#pfff412fb55)" style="fill: none; stroke: #000000; stroke-width: 2.5; stroke-linecap: square"/>
   </g>
  </g>
  <g id="axes_2">
   <g id="matplotlib.axis_3">
    <g id="ytick_6">
     <g id="line2d_20">
      <defs>
       <path id="m1d40857e11" d="M 0 0 
L 3.5 0 
" style="stroke: #000000; stroke-width: 0.8"/>
      </defs>
      <g>
       <use xlink:href="#m1d40857e11" x="1327.70125" y="644.224972" style="stroke: #000000; stroke-width: 0.8"/>
      </g>
     </g>
     <g id="text_17">
      <!-- 0 -->
      <g style="fill: #228b22" transform="translate(1334.70125 648.024191) scale(0.1 -0.1)">
       <use xlink:href="#DejaVuSans-30"/>
      </g>
     </g>
    </g>
    <g id="ytick_7">
     <g id="line2d_21">
      <g>
       <use xlink:href="#m1d40857e11" x="1327.70125" y="563.208029" style="stroke: #000000; stroke-width: 0.8"/>
      </g>
     </g>
     <g id="text_18">
      <!-- 2 -->
      <g style="fill: #228b22" transform="translate(1334.70125 567.007247) scale(0.1 -0.1)">
       <use xlink:href="#DejaVuSans-32"/>
      </g>
     </g>
    </g>
    <g id="ytick_8">
     <g id="line2d_22">
      <g>
       <use xlink:href="#m1d40857e11" x="1327.70125" y="482.191085" style="stroke: #000000; stroke-width: 0.8"/>
      </g>
     </g>
     <g id="text_19">
      <!-- 4 -->
      <g style="fill: #228b22" transform="translate(1334.70125 485.990304) scale(0.1 -0.1)">
       <use xlink:href="#DejaVuSans-34"/>
      </g>
     </g>
    </g>
    <g id="ytick_9">
     <g id="line2d_23">
      <g>
       <use xlink:href="#m1d40857e11" x="1327.70125" y="401.174142" style="stroke: #000000; stroke-width: 0.8"/>
      </g>
     </g>
     <g id="text_20">
      <!-- 6 -->
      <g style="fill: #228b22" transform="translate(1334.70125 404.973361) scale(0.1 -0.1)">
       <use xlink:href="#DejaVuSans-36"/>
      </g>
     </g>
    </g>
    <g id="ytick_10">
     <g id="line2d_24">
      <g>
       <use xlink:href="#m1d40857e11" x="1327.70125" y="320.157199" style="stroke: #000000; stroke-width: 0.8"/>
      </g>
     </g>
     <g id="text_21">
      <!-- 8 -->
      <g style="fill: #228b22" transform="translate(1334.70125 323.956417) scale(0.1 -0.1)">
       <use xlink:href="#DejaVuSans-38"/>
      </g>
     </g>
    </g>
    <g id="ytick_11">
     <g id="line2d_25">
      <g>
       <use xlink:href="#m1d40857e11" x="1327.70125" y="239.140255" style="stroke: #000000; stroke-width: 0.8"/>
      </g>
     </g>
     <g id="text_22">
      <!-- 10 -->
      <g style="fill: #228b22" transform="translate(1334.70125 242.939474) scale(0.1 -0.1)">
       <use xlink:href="#DejaVuSans-31"/>
       <use xlink:href="#DejaVuSans-30" x="63.623047"/>
      </g>
     </g>
    </g>
    <g id="ytick_12">
     <g id="line2d_26">
      <g>
       <use xlink:href="#m1d40857e11" x="1327.70125" y="158.123312" style="stroke: #000000; stroke-width: 0.8"/>
      </g>
     </g>
     <g id="text_23">
      <!-- 12 -->
      <g style="fill: #228b22" transform="translate(1334.70125 161.922531) scale(0.1 -0.1)">
       <use xlink:href="#DejaVuSans-31"/>
       <use xlink:href="#DejaVuSans-32" x="63.623047"/>
      </g>
     </g>
    </g>
    <g id="text_24">
     <!-- 融資餘額 (億元) -->
     <g style="fill: #228b22" transform="translate(1360.544375 399.40847) rotate(-90) scale(0.12 -0.12)">
      <defs>
       <path id="DejaVuSans-Bold-878d" d="M 319 -1131 
L 319 4513 
L 3519 4513 
L 3519 -1131 
L 319 -1131 
z
M 678 -775 
L 3163 -775 
L 3163 4153 
L 678 4153 
L 678 -775 
z
" transform="scale(0.015625)"/>
       <path id="DejaVuSans-Bold-8cc7" d="M 319 -1131 
L 319 4513 
L 3519 4513 
L 3519 -1131 
L 319 -1131 
z
M 678 -775 
L 3163 -775 
L 3163 4153 
L 678 4153 
L 678 -775 
z
" transform="scale(0.015625)"/>
       <path id="DejaVuSans-Bold-9918" d="M 319 -1131 
L 319 4513 
L 3519 4513 
L 3519 -1131 
L 319 -1131 
z
M 678 -775 
L 3163 -775 
L 3163 4153 
L 678 4153 
L 678 -775 
z
" transform="scale(0.015625)"/>
       <path id="DejaVuSans-Bold-984d" d="M 319 -1131 
L 319 4513 
L 3519 4513 
L 3519 -1131 
L 319 -1131 
z
M 678 -775 
L 3163 -775 
L 3163 4153 
L 678 4153 
L 678 -775 
z
" transform="scale(0.015625)"/>
       <path id="DejaVuSans-Bold-5104" d="M 319 -1131 
L 319 4513 
L 3519 4513 
L 3519 -1131 
L 319 -1131 
z
M 678 -775 
L 3163 -775 
L 3163 4153 
L 678 4153 
L 678 -775 
z
" transform="scale(0.015625)"/>
      </defs>
      <use xlink:href="#DejaVuSans-Bold-878d"/>
      <use xlink:href="#DejaVuSans-Bold-8cc7" x="60.009766"/>
      <use xlink:href="#DejaVuSans-Bold-9918" x="120.019531"/>
      <use xlink:href="#DejaVuSans-Bold-984d" x="180.029297"/>
      <use xlink:href="#DejaVuSans-Bold-20" x="240.039062"/>
      <use xlink:href="#DejaVuSans-Bold-28" x="274.853516"/>
      <use xlink:href="#DejaVuSans-Bold-5104" x="320.556641"/>
      <use xlink:href="#DejaVuSans-Bold-5143" x="380.566406"/>
      <use xlink:href="#DejaVuSans-Bold-29" x="440.576172"/>
     </g>
    </g>
   </g>
   <g id="patch_9">
    <path d="M 48.90125 644.224972 
L 48.90125 96.234469 
" style="fill: none; stroke: #000000; stroke-width: 0.8; stroke-linejoin: miter; stroke-linecap: square"/>
   </g>
   <g id="patch_10">
    <path d="M 1327.70125 644.224972 
L 1327.70125 96.234469 
" style="fill: none; stroke: #000000; stroke-width: 0.8; stroke-linejoin: miter; stroke-linecap: square"/>
   </g>
   <g id="patch_11">
    <path d="M 48.90125 644.224972 
L 1327.70125 644.224972 
" style="fill: none; stroke: #000000; stroke-width: 0.8; stroke-linejoin: miter; stroke-linecap: square"/>
   </g>
   <g id="patch_12">
    <path d="M 48.90125 96.234469 
L 1327.70125 96.234469 
" style="fill: none; stroke: #000000; stroke-width: 0.8; stroke-linejoin: miter; stroke-linecap: square"/>
   </g>
   <g id="patch_13">
    <path d="M 107.028523 644.224972 
L 117.316536 644.224972 
L 117.316536 536.125077 
L 107.028523 536.125077 
z
" clip-path="url(#pfff412fb55)" style="fill: #ffd700; opacity: 0.85"/>
   </g>
   <g id="patch_14">
    <path d="M 113.887198 644.224972 
L 124.175211 644.224972 
L 124.175211 594.513786 
L 113.887198 594.513786 
z
" clip-path="url(#pfff412fb55)" style="fill: #ffd700; opacity: 0.85"/>
   </g>
   <g id="patch_15">
    <path d="M 120.745873 644.224972 
L 131.033886 644.224972 
L 131.033886 598.196208 
L 120.745873 598.196208 
z
" clip-path="url(#pfff412fb55)" style="fill: #ffd700; opacity: 0.85"/>
   </g>
   <g id="patch_16">
    <path d="M 127.604548 644.224972 
L 137.892561 644.224972 
L 137.892561 605.391526 
L 127.604548 605.391526 
z
" clip-path="url(#pfff412fb55)" style="fill: #ffd700; opacity: 0.85"/>
   </g>
   <g id="patch_17">
    <path d="M 148.180574 644.224972 
L 158.468587 644.224972 
L 158.468587 609.518326 
L 148.180574 609.518326 
z
" clip-path="url(#pfff412fb55)" style="fill: #ffd700; opacity: 0.85"/>
   </g>
   <g id="patch_18">
    <path d="M 155.039249 644.224972 
L 165.327262 644.224972 
L 165.327262 597.444979 
L 155.039249 597.444979 
z
" clip-path="url(#pfff412fb55)" style="fill: #ffd700; opacity: 0.85"/>
   </g>
   <g id="patch_19">
    <path d="M 161.897925 644.224972 
L 172.185938 644.224972 
L 172.185938 623.374857 
L 161.897925 623.374857 
z
" clip-path="url(#pfff412fb55)" style="fill: #ffd700; opacity: 0.85"/>
   </g>
   <g id="patch_20">
    <path d="M 168.7566 644.224972 
L 179.044613 644.224972 
L 179.044613 507.227346 
L 168.7566 507.227346 
z
" clip-path="url(#pfff412fb55)" style="fill: #ffd700; opacity: 0.85"/>
   </g>
   <g id="patch_21">
    <path d="M 175.615275 644.224972 
L 185.903288 644.224972 
L 185.903288 562.658734 
L 175.615275 562.658734 
z
" clip-path="url(#pfff412fb55)" style="fill: #ffd700; opacity: 0.85"/>
   </g>
   <g id="patch_22">
    <path d="M 196.191301 644.224972 
L 206.479314 644.224972 
L 206.479314 553.831938 
L 196.191301 553.831938 
z
" clip-path="url(#pfff412fb55)" style="fill: #ffd700; opacity: 0.85"/>
   </g>
   <g id="patch_23">
    <path d="M 203.049976 644.224972 
L 213.337989 644.224972 
L 213.337989 593.488516 
L 203.049976 593.488516 
z
" clip-path="url(#pfff412fb55)" style="fill: #ffd700; opacity: 0.85"/>
   </g>
   <g id="patch_24">
    <path d="M 209.908651 644.224972 
L 220.196664 644.224972 
L 220.196664 568.47413 
L 209.908651 568.47413 
z
" clip-path="url(#pfff412fb55)" style="fill: #ffd700; opacity: 0.85"/>
   </g>
   <g id="patch_25">
    <path d="M 216.767327 644.224972 
L 227.05534 644.224972 
L 227.05534 587.132332 
L 216.767327 587.132332 
z
" clip-path="url(#pfff412fb55)" style="fill: #ffd700; opacity: 0.85"/>
   </g>
   <g id="patch_26">
    <path d="M 223.626002 644.224972 
L 233.914015 644.224972 
L 233.914015 604.220223 
L 223.626002 604.220223 
z
" clip-path="url(#pfff412fb55)" style="fill: #ffd700; opacity: 0.85"/>
   </g>
   <g id="patch_27">
    <path d="M 244.202028 644.224972 
L 254.490041 644.224972 
L 254.490041 573.39996 
L 244.202028 573.39996 
z
" clip-path="url(#pfff412fb55)" style="fill: #ffd700; opacity: 0.85"/>
   </g>
   <g id="patch_28">
    <path d="M 251.060703 644.224972 
L 261.348716 644.224972 
L 261.348716 594.026266 
L 251.060703 594.026266 
z
" clip-path="url(#pfff412fb55)" style="fill: #ffd700; opacity: 0.85"/>
   </g>
   <g id="patch_29">
    <path d="M 257.919378 644.224972 
L 268.207391 644.224972 
L 268.207391 608.835961 
L 257.919378 608.835961 
z
" clip-path="url(#pfff412fb55)" style="fill: #ffd700; opacity: 0.85"/>
   </g>
   <g id="patch_30">
    <path d="M 264.778053 644.224972 
L 275.066066 644.224972 
L 275.066066 616.406994 
L 264.778053 616.406994 
z
" clip-path="url(#pfff412fb55)" style="fill: #ffd700; opacity: 0.85"/>
   </g>
   <g id="patch_31">
    <path d="M 271.636729 644.224972 
L 281.924742 644.224972 
L 281.924742 581.702577 
L 271.636729 581.702577 
z
" clip-path="url(#pfff412fb55)" style="fill: #ffd700; opacity: 0.85"/>
   </g>
   <g id="patch_32">
    <path d="M 292.212754 644.224972 
L 302.500767 644.224972 
L 302.500767 605.797015 
L 292.212754 605.797015 
z
" clip-path="url(#pfff412fb55)" style="fill: #ffd700; opacity: 0.85"/>
   </g>
   <g id="patch_33">
    <path d="M 299.07143 644.224972 
L 309.359443 644.224972 
L 309.359443 626.628497 
L 299.07143 626.628497 
z
" clip-path="url(#pfff412fb55)" style="fill: #ffd700; opacity: 0.85"/>
   </g>
   <g id="patch_34">
    <path d="M 305.930105 644.224972 
L 316.218118 644.224972 
L 316.218118 628.702936 
L 305.930105 628.702936 
z
" clip-path="url(#pfff412fb55)" style="fill: #ffd700; opacity: 0.85"/>
   </g>
   <g id="patch_35">
    <path d="M 312.78878 644.224972 
L 323.076793 644.224972 
L 323.076793 634.808373 
L 312.78878 634.808373 
z
" clip-path="url(#pfff412fb55)" style="fill: #ffd700; opacity: 0.85"/>
   </g>
   <g id="patch_36">
    <path d="M 319.647455 644.224972 
L 329.935468 644.224972 
L 329.935468 626.415828 
L 319.647455 626.415828 
z
" clip-path="url(#pfff412fb55)" style="fill: #ffd700; opacity: 0.85"/>
   </g>
   <g id="patch_37">
    <path d="M 340.223481 644.224972 
L 350.511494 644.224972 
L 350.511494 624.58768 
L 340.223481 624.58768 
z
" clip-path="url(#pfff412fb55)" style="fill: #ffd700; opacity: 0.85"/>
   </g>
   <g id="patch_38">
    <path d="M 347.082156 644.224972 
L 357.370169 644.224972 
L 357.370169 635.536391 
L 347.082156 635.536391 
z
" clip-path="url(#pfff412fb55)" style="fill: #ffd700; opacity: 0.85"/>
   </g>
   <g id="patch_39">
    <path d="M 353.940832 644.224972 
L 364.228845 644.224972 
L 364.228845 631.100227 
L 353.940832 631.100227 
z
" clip-path="url(#pfff412fb55)" style="fill: #ffd700; opacity: 0.85"/>
   </g>
   <g id="patch_40">
    <path d="M 360.799507 644.224972 
L 371.08752 644.224972 
L 371.08752 628.48257 
L 360.799507 628.48257 
z
" clip-path="url(#pfff412fb55)" style="fill: #ffd700; opacity: 0.85"/>
   </g>
   <g id="patch_41">
    <path d="M 367.658182 644.224972 
L 377.946195 644.224972 
L 377.946195 635.879214 
L 367.658182 635.879214 
z
" clip-path="url(#pfff412fb55)" style="fill: #ffd700; opacity: 0.85"/>
   </g>
   <g id="patch_42">
    <path d="M 388.234208 644.224972 
L 398.522221 644.224972 
L 398.522221 638.067684 
L 388.234208 638.067684 
z
" clip-path="url(#pfff412fb55)" style="fill: #ffd700; opacity: 0.85"/>
   </g>
   <g id="patch_43">
    <path d="M 395.092883 644.224972 
L 405.380896 644.224972 
L 405.380896 634.300396 
L 395.092883 634.300396 
z
" clip-path="url(#pfff412fb55)" style="fill: #ffd700; opacity: 0.85"/>
   </g>
   <g id="patch_44">
    <path d="M 401.951558 644.224972 
L 412.239571 644.224972 
L 412.239571 633.859178 
L 401.951558 633.859178 
z
" clip-path="url(#pfff412fb55)" style="fill: #ffd700; opacity: 0.85"/>
   </g>
   <g id="patch_45">
    <path d="M 408.810234 644.224972 
L 419.098247 644.224972 
L 419.098247 622.26614 
L 408.810234 622.26614 
z
" clip-path="url(#pfff412fb55)" style="fill: #ffd700; opacity: 0.85"/>
   </g>
   <g id="patch_46">
    <path d="M 415.668909 644.224972 
L 425.956922 644.224972 
L 425.956922 637.382281 
L 415.668909 637.382281 
z
" clip-path="url(#pfff412fb55)" style="fill: #ffd700; opacity: 0.85"/>
   </g>
   <g id="patch_47">
    <path d="M 436.244935 644.224972 
L 446.532948 644.224972 
L 446.532948 637.761805 
L 436.244935 637.761805 
z
" clip-path="url(#pfff412fb55)" style="fill: #ffd700; opacity: 0.85"/>
   </g>
   <g id="patch_48">
    <path d="M 443.10361 644.224972 
L 453.391623 644.224972 
L 453.391623 641.828491 
L 443.10361 641.828491 
z
" clip-path="url(#pfff412fb55)" style="fill: #ffd700; opacity: 0.85"/>
   </g>
   <g id="patch_49">
    <path d="M 449.962285 644.224972 
L 460.250298 644.224972 
L 460.250298 638.421728 
L 449.962285 638.421728 
z
" clip-path="url(#pfff412fb55)" style="fill: #ffd700; opacity: 0.85"/>
   </g>
   <g id="patch_50">
    <path d="M 456.82096 644.224972 
L 467.108973 644.224972 
L 467.108973 641.081515 
L 456.82096 641.081515 
z
" clip-path="url(#pfff412fb55)" style="fill: #ffd700; opacity: 0.85"/>
   </g>
   <g id="patch_51">
    <path d="M 463.679636 644.224972 
L 473.967648 644.224972 
L 473.967648 641.697243 
L 463.679636 641.697243 
z
" clip-path="url(#pfff412fb55)" style="fill: #ffd700; opacity: 0.85"/>
   </g>
   <g id="patch_52">
    <path d="M 484.255661 644.224972 
L 494.543674 644.224972 
L 494.543674 640.670354 
L 484.255661 640.670354 
z
" clip-path="url(#pfff412fb55)" style="fill: #ffd700; opacity: 0.85"/>
   </g>
   <g id="patch_53">
    <path d="M 491.114337 644.224972 
L 501.402349 644.224972 
L 501.402349 637.59649 
L 491.114337 637.59649 
z
" clip-path="url(#pfff412fb55)" style="fill: #ffd700; opacity: 0.85"/>
   </g>
   <g id="patch_54">
    <path d="M 497.973012 644.224972 
L 508.261025 644.224972 
L 508.261025 627.386411 
L 497.973012 627.386411 
z
" clip-path="url(#pfff412fb55)" style="fill: #ffd700; opacity: 0.85"/>
   </g>
   <g id="patch_55">
    <path d="M 504.831687 644.224972 
L 515.1197 644.224972 
L 515.1197 638.860921 
L 504.831687 638.860921 
z
" clip-path="url(#pfff412fb55)" style="fill: #ffd700; opacity: 0.85"/>
   </g>
   <g id="patch_56">
    <path d="M 511.690362 644.224972 
L 521.978375 644.224972 
L 521.978375 638.216756 
L 511.690362 638.216756 
z
" clip-path="url(#pfff412fb55)" style="fill: #ffd700; opacity: 0.85"/>
   </g>
   <g id="patch_57">
    <path d="M 539.125063 644.224972 
L 549.413076 644.224972 
L 549.413076 641.894277 
L 539.125063 641.894277 
z
" clip-path="url(#pfff412fb55)" style="fill: #ffd700; opacity: 0.85"/>
   </g>
   <g id="patch_58">
    <path d="M 545.983739 644.224972 
L 556.271751 644.224972 
L 556.271751 636.323876 
L 545.983739 636.323876 
z
" clip-path="url(#pfff412fb55)" style="fill: #ffd700; opacity: 0.85"/>
   </g>
   <g id="patch_59">
    <path d="M 552.842414 644.224972 
L 563.130427 644.224972 
L 563.130427 623.039446 
L 552.842414 623.039446 
z
" clip-path="url(#pfff412fb55)" style="fill: #ffd700; opacity: 0.85"/>
   </g>
   <g id="patch_60">
    <path d="M 559.701089 644.224972 
L 569.989102 644.224972 
L 569.989102 638.240088 
L 559.701089 638.240088 
z
" clip-path="url(#pfff412fb55)" style="fill: #ffd700; opacity: 0.85"/>
   </g>
   <g id="patch_61">
    <path d="M 587.13579 644.224972 
L 597.423803 644.224972 
L 597.423803 640.992396 
L 587.13579 640.992396 
z
" clip-path="url(#pfff412fb55)" style="fill: #ffd700; opacity: 0.85"/>
   </g>
   <g id="patch_62">
    <path d="M 593.994465 644.224972 
L 604.282478 644.224972 
L 604.282478 640.092986 
L 593.994465 640.092986 
z
" clip-path="url(#pfff412fb55)" style="fill: #ffd700; opacity: 0.85"/>
   </g>
   <g id="patch_63">
    <path d="M 600.853141 644.224972 
L 611.141153 644.224972 
L 611.141153 636.46679 
L 600.853141 636.46679 
z
" clip-path="url(#pfff412fb55)" style="fill: #ffd700; opacity: 0.85"/>
   </g>
   <g id="patch_64">
    <path d="M 628.287842 644.224972 
L 638.575854 644.224972 
L 638.575854 625.316995 
L 628.287842 625.316995 
z
" clip-path="url(#pfff412fb55)" style="fill: #ffd700; opacity: 0.85"/>
   </g>
   <g id="patch_65">
    <path d="M 635.146517 644.224972 
L 645.43453 644.224972 
L 645.43453 637.086569 
L 635.146517 637.086569 
z
" clip-path="url(#pfff412fb55)" style="fill: #ffd700; opacity: 0.85"/>
   </g>
   <g id="patch_66">
    <path d="M 642.005192 644.224972 
L 652.293205 644.224972 
L 652.293205 642.067167 
L 642.005192 642.067167 
z
" clip-path="url(#pfff412fb55)" style="fill: #ffd700; opacity: 0.85"/>
   </g>
   <g id="patch_67">
    <path d="M 648.863867 644.224972 
L 659.15188 644.224972 
L 659.15188 640.551866 
L 648.863867 640.551866 
z
" clip-path="url(#pfff412fb55)" style="fill: #ffd700; opacity: 0.85"/>
   </g>
   <g id="patch_68">
    <path d="M 655.722543 644.224972 
L 666.010555 644.224972 
L 666.010555 641.609178 
L 655.722543 641.609178 
z
" clip-path="url(#pfff412fb55)" style="fill: #ffd700; opacity: 0.85"/>
   </g>
   <g id="patch_69">
    <path d="M 676.298568 644.224972 
L 686.586581 644.224972 
L 686.586581 641.34482 
L 676.298568 641.34482 
z
" clip-path="url(#pfff412fb55)" style="fill: #ffd700; opacity: 0.85"/>
   </g>
   <g id="patch_70">
    <path d="M 683.157244 644.224972 
L 693.445256 644.224972 
L 693.445256 640.345476 
L 683.157244 640.345476 
z
" clip-path="url(#pfff412fb55)" style="fill: #ffd700; opacity: 0.85"/>
   </g>
   <g id="patch_71">
    <path d="M 690.015919 644.224972 
L 700.303932 644.224972 
L 700.303932 638.004329 
L 690.015919 638.004329 
z
" clip-path="url(#pfff412fb55)" style="fill: #ffd700; opacity: 0.85"/>
   </g>
   <g id="patch_72">
    <path d="M 696.874594 644.224972 
L 707.162607 644.224972 
L 707.162607 642.331606 
L 696.874594 642.331606 
z
" clip-path="url(#pfff412fb55)" style="fill: #ffd700; opacity: 0.85"/>
   </g>
   <g id="patch_73">
    <path d="M 724.309295 644.224972 
L 734.597308 644.224972 
L 734.597308 641.146328 
L 724.309295 641.146328 
z
" clip-path="url(#pfff412fb55)" style="fill: #ffd700; opacity: 0.85"/>
   </g>
   <g id="patch_74">
    <path d="M 731.16797 644.224972 
L 741.455983 644.224972 
L 741.455983 641.084877 
L 731.16797 641.084877 
z
" clip-path="url(#pfff412fb55)" style="fill: #ffd700; opacity: 0.85"/>
   </g>
   <g id="patch_75">
    <path d="M 738.026646 644.224972 
L 748.314658 644.224972 
L 748.314658 641.211142 
L 738.026646 641.211142 
z
" clip-path="url(#pfff412fb55)" style="fill: #ffd700; opacity: 0.85"/>
   </g>
   <g id="patch_76">
    <path d="M 744.885321 644.224972 
L 755.173334 644.224972 
L 755.173334 641.074831 
L 744.885321 641.074831 
z
" clip-path="url(#pfff412fb55)" style="fill: #ffd700; opacity: 0.85"/>
   </g>
   <g id="patch_77">
    <path d="M 751.743996 644.224972 
L 762.032009 644.224972 
L 762.032009 642.311676 
L 751.743996 642.311676 
z
" clip-path="url(#pfff412fb55)" style="fill: #ffd700; opacity: 0.85"/>
   </g>
   <g id="patch_78">
    <path d="M 772.320022 644.224972 
L 782.608035 644.224972 
L 782.608035 643.155953 
L 772.320022 643.155953 
z
" clip-path="url(#pfff412fb55)" style="fill: #ffd700; opacity: 0.85"/>
   </g>
   <g id="patch_79">
    <path d="M 779.178697 644.224972 
L 789.46671 644.224972 
L 789.46671 640.356251 
L 779.178697 640.356251 
z
" clip-path="url(#pfff412fb55)" style="fill: #ffd700; opacity: 0.85"/>
   </g>
   <g id="patch_80">
    <path d="M 786.037372 644.224972 
L 796.325385 644.224972 
L 796.325385 641.376214 
L 786.037372 641.376214 
z
" clip-path="url(#pfff412fb55)" style="fill: #ffd700; opacity: 0.85"/>
   </g>
   <g id="patch_81">
    <path d="M 792.896048 644.224972 
L 803.18406 644.224972 
L 803.18406 643.189981 
L 792.896048 643.189981 
z
" clip-path="url(#pfff412fb55)" style="fill: #ffd700; opacity: 0.85"/>
   </g>
   <g id="patch_82">
    <path d="M 799.754723 644.224972 
L 810.042736 644.224972 
L 810.042736 637.166654 
L 799.754723 637.166654 
z
" clip-path="url(#pfff412fb55)" style="fill: #ffd700; opacity: 0.85"/>
   </g>
   <g id="patch_83">
    <path d="M 820.330749 644.224972 
L 830.618761 644.224972 
L 830.618761 640.596952 
L 820.330749 640.596952 
z
" clip-path="url(#pfff412fb55)" style="fill: #ffd700; opacity: 0.85"/>
   </g>
   <g id="patch_84">
    <path d="M 827.189424 644.224972 
L 837.477437 644.224972 
L 837.477437 640.637056 
L 827.189424 640.637056 
z
" clip-path="url(#pfff412fb55)" style="fill: #ffd700; opacity: 0.85"/>
   </g>
   <g id="patch_85">
    <path d="M 834.048099 644.224972 
L 844.336112 644.224972 
L 844.336112 641.520059 
L 834.048099 641.520059 
z
" clip-path="url(#pfff412fb55)" style="fill: #ffd700; opacity: 0.85"/>
   </g>
   <g id="patch_86">
    <path d="M 840.906774 644.224972 
L 851.194787 644.224972 
L 851.194787 640.637056 
L 840.906774 640.637056 
z
" clip-path="url(#pfff412fb55)" style="fill: #ffd700; opacity: 0.85"/>
   </g>
   <g id="patch_87">
    <path d="M 847.76545 644.224972 
L 858.053462 644.224972 
L 858.053462 642.574049 
L 847.76545 642.574049 
z
" clip-path="url(#pfff412fb55)" style="fill: #ffd700; opacity: 0.85"/>
   </g>
   <g id="patch_88">
    <path d="M 868.341475 644.224972 
L 878.629488 644.224972 
L 878.629488 636.892453 
L 868.341475 636.892453 
z
" clip-path="url(#pfff412fb55)" style="fill: #ffd700; opacity: 0.85"/>
   </g>
   <g id="patch_89">
    <path d="M 875.200151 644.224972 
L 885.488163 644.224972 
L 885.488163 638.632859 
L 875.200151 638.632859 
z
" clip-path="url(#pfff412fb55)" style="fill: #ffd700; opacity: 0.85"/>
   </g>
   <g id="patch_90">
    <path d="M 882.058826 644.224972 
L 892.346839 644.224972 
L 892.346839 642.668718 
L 882.058826 642.668718 
z
" clip-path="url(#pfff412fb55)" style="fill: #ffd700; opacity: 0.85"/>
   </g>
   <g id="patch_91">
    <path d="M 888.917501 644.224972 
L 899.205514 644.224972 
L 899.205514 642.473791 
L 888.917501 642.473791 
z
" clip-path="url(#pfff412fb55)" style="fill: #ffd700; opacity: 0.85"/>
   </g>
   <g id="patch_92">
    <path d="M 895.776176 644.224972 
L 906.064189 644.224972 
L 906.064189 643.053953 
L 895.776176 643.053953 
z
" clip-path="url(#pfff412fb55)" style="fill: #ffd700; opacity: 0.85"/>
   </g>
   <g id="patch_93">
    <path d="M 916.352202 644.224972 
L 926.640215 644.224972 
L 926.640215 642.270843 
L 916.352202 642.270843 
z
" clip-path="url(#pfff412fb55)" style="fill: #ffd700; opacity: 0.85"/>
   </g>
   <g id="patch_94">
    <path d="M 923.210877 644.224972 
L 933.49889 644.224972 
L 933.49889 642.096657 
L 923.210877 642.096657 
z
" clip-path="url(#pfff412fb55)" style="fill: #ffd700; opacity: 0.85"/>
   </g>
   <g id="patch_95">
    <path d="M 930.069552 644.224972 
L 940.357565 644.224972 
L 940.357565 642.517499 
L 930.069552 642.517499 
z
" clip-path="url(#pfff412fb55)" style="fill: #ffd700; opacity: 0.85"/>
   </g>
   <g id="patch_96">
    <path d="M 936.928228 644.224972 
L 947.216241 644.224972 
L 947.216241 643.204159 
L 936.928228 643.204159 
z
" clip-path="url(#pfff412fb55)" style="fill: #ffd700; opacity: 0.85"/>
   </g>
   <g id="patch_97">
    <path d="M 943.786903 644.224972 
L 954.074916 644.224972 
L 954.074916 642.60755 
L 943.786903 642.60755 
z
" clip-path="url(#pfff412fb55)" style="fill: #ffd700; opacity: 0.85"/>
   </g>
   <g id="patch_98">
    <path d="M 964.362929 644.224972 
L 974.650942 644.224972 
L 974.650942 643.382801 
L 964.362929 643.382801 
z
" clip-path="url(#pfff412fb55)" style="fill: #ffd700; opacity: 0.85"/>
   </g>
   <g id="patch_99">
    <path d="M 971.221604 644.224972 
L 981.509617 644.224972 
L 981.509617 643.539569 
L 971.221604 643.539569 
z
" clip-path="url(#pfff412fb55)" style="fill: #ffd700; opacity: 0.85"/>
   </g>
   <g id="patch_100">
    <path d="M 978.080279 644.224972 
L 988.368292 644.224972 
L 988.368292 643.371864 
L 978.080279 643.371864 
z
" clip-path="url(#pfff412fb55)" style="fill: #ffd700; opacity: 0.85"/>
   </g>
   <g id="patch_101">
    <path d="M 984.938954 644.224972 
L 995.226967 644.224972 
L 995.226967 643.554152 
L 984.938954 643.554152 
z
" clip-path="url(#pfff412fb55)" style="fill: #ffd700; opacity: 0.85"/>
   </g>
   <g id="patch_102">
    <path d="M 991.79763 644.224972 
L 1002.085643 644.224972 
L 1002.085643 641.304311 
L 991.79763 641.304311 
z
" clip-path="url(#pfff412fb55)" style="fill: #ffd700; opacity: 0.85"/>
   </g>
   <g id="patch_103">
    <path d="M 1012.373655 644.224972 
L 1022.661668 644.224972 
L 1022.661668 641.740385 
L 1012.373655 641.740385 
z
" clip-path="url(#pfff412fb55)" style="fill: #ffd700; opacity: 0.85"/>
   </g>
   <g id="patch_104">
    <path d="M 1019.232331 644.224972 
L 1029.520344 644.224972 
L 1029.520344 643.629498 
L 1019.232331 643.629498 
z
" clip-path="url(#pfff412fb55)" style="fill: #ffd700; opacity: 0.85"/>
   </g>
   <g id="patch_105">
    <path d="M 1026.091006 644.224972 
L 1036.379019 644.224972 
L 1036.379019 627.461756 
L 1026.091006 627.461756 
z
" clip-path="url(#pfff412fb55)" style="fill: #ffd700; opacity: 0.85"/>
   </g>
   <g id="patch_106">
    <path d="M 1032.949681 644.224972 
L 1043.237694 644.224972 
L 1043.237694 640.917536 
L 1032.949681 640.917536 
z
" clip-path="url(#pfff412fb55)" style="fill: #ffd700; opacity: 0.85"/>
   </g>
   <g id="patch_107">
    <path d="M 1039.808356 644.224972 
L 1050.096369 644.224972 
L 1050.096369 643.031106 
L 1039.808356 643.031106 
z
" clip-path="url(#pfff412fb55)" style="fill: #ffd700; opacity: 0.85"/>
   </g>
   <g id="patch_108">
    <path d="M 1060.384382 644.224972 
L 1070.672395 644.224972 
L 1070.672395 643.252769 
L 1060.384382 643.252769 
z
" clip-path="url(#pfff412fb55)" style="fill: #ffd700; opacity: 0.85"/>
   </g>
   <g id="patch_109">
    <path d="M 1067.243057 644.224972 
L 1077.53107 644.224972 
L 1077.53107 643.97382 
L 1067.243057 643.97382 
z
" clip-path="url(#pfff412fb55)" style="fill: #ffd700; opacity: 0.85"/>
   </g>
   <g id="patch_110">
    <path d="M 1074.101733 644.224972 
L 1084.389746 644.224972 
L 1084.389746 643.929908 
L 1074.101733 643.929908 
z
" clip-path="url(#pfff412fb55)" style="fill: #ffd700; opacity: 0.85"/>
   </g>
   <g id="patch_111">
    <path d="M 1080.960408 644.224972 
L 1091.248421 644.224972 
L 1091.248421 643.758558 
L 1080.960408 643.758558 
z
" clip-path="url(#pfff412fb55)" style="fill: #ffd700; opacity: 0.85"/>
   </g>
   <g id="patch_112">
    <path d="M 1087.819083 644.224972 
L 1098.107096 644.224972 
L 1098.107096 643.612281 
L 1087.819083 643.612281 
z
" clip-path="url(#pfff412fb55)" style="fill: #ffd700; opacity: 0.85"/>
   </g>
   <g id="patch_113">
    <path d="M 1108.395109 644.224972 
L 1118.683122 644.224972 
L 1118.683122 643.539893 
L 1108.395109 643.539893 
z
" clip-path="url(#pfff412fb55)" style="fill: #ffd700; opacity: 0.85"/>
   </g>
   <g id="patch_114">
    <path d="M 1115.253784 644.224972 
L 1125.541797 644.224972 
L 1125.541797 643.870523 
L 1115.253784 643.870523 
z
" clip-path="url(#pfff412fb55)" style="fill: #ffd700; opacity: 0.85"/>
   </g>
   <g id="patch_115">
    <path d="M 1122.112459 644.224972 
L 1132.400472 644.224972 
L 1132.400472 643.948259 
L 1122.112459 643.948259 
z
" clip-path="url(#pfff412fb55)" style="fill: #ffd700; opacity: 0.85"/>
   </g>
   <g id="patch_116">
    <path d="M 1135.82981 644.224972 
L 1146.117823 644.224972 
L 1146.117823 643.52855 
L 1135.82981 643.52855 
z
" clip-path="url(#pfff412fb55)" style="fill: #ffd700; opacity: 0.85"/>
   </g>
   <g id="patch_117">
    <path d="M 1156.405836 644.224972 
L 1166.693849 644.224972 
L 1166.693849 642.484931 
L 1156.405836 642.484931 
z
" clip-path="url(#pfff412fb55)" style="fill: #ffd700; opacity: 0.85"/>
   </g>
   <g id="patch_118">
    <path d="M 1163.264511 644.224972 
L 1173.552524 644.224972 
L 1173.552524 641.670103 
L 1163.264511 641.670103 
z
" clip-path="url(#pfff412fb55)" style="fill: #ffd700; opacity: 0.85"/>
   </g>
   <g id="patch_119">
    <path d="M 1170.123186 644.224972 
L 1180.411199 644.224972 
L 1180.411199 641.499765 
L 1170.123186 641.499765 
z
" clip-path="url(#pfff412fb55)" style="fill: #ffd700; opacity: 0.85"/>
   </g>
   <g id="patch_120">
    <path d="M 1183.840537 644.224972 
L 1194.12855 644.224972 
L 1194.12855 642.82743 
L 1183.840537 642.82743 
z
" clip-path="url(#pfff412fb55)" style="fill: #ffd700; opacity: 0.85"/>
   </g>
   <g id="patch_121">
    <path d="M 1204.416562 644.224972 
L 1214.704575 644.224972 
L 1214.704575 643.269985 
L 1204.416562 643.269985 
z
" clip-path="url(#pfff412fb55)" style="fill: #ffd700; opacity: 0.85"/>
   </g>
   <g id="patch_122">
    <path d="M 1211.275238 644.224972 
L 1221.563251 644.224972 
L 1221.563251 639.932816 
L 1211.275238 639.932816 
z
" clip-path="url(#pfff412fb55)" style="fill: #ffd700; opacity: 0.85"/>
   </g>
   <g id="patch_123">
    <path d="M 1218.133913 644.224972 
L 1228.421926 644.224972 
L 1228.421926 642.923354 
L 1218.133913 642.923354 
z
" clip-path="url(#pfff412fb55)" style="fill: #ffd700; opacity: 0.85"/>
   </g>
   <g id="patch_124">
    <path d="M 1224.992588 644.224972 
L 1235.280601 644.224972 
L 1235.280601 643.275616 
L 1224.992588 643.275616 
z
" clip-path="url(#pfff412fb55)" style="fill: #ffd700; opacity: 0.85"/>
   </g>
   <g id="patch_125">
    <path d="M 1231.851263 644.224972 
L 1242.139276 644.224972 
L 1242.139276 643.293277 
L 1231.851263 643.293277 
z
" clip-path="url(#pfff412fb55)" style="fill: #ffd700; opacity: 0.85"/>
   </g>
   <g id="patch_126">
    <path d="M 1252.427289 644.224972 
L 1262.715302 644.224972 
L 1262.715302 643.809355 
L 1252.427289 643.809355 
z
" clip-path="url(#pfff412fb55)" style="fill: #ffd700; opacity: 0.85"/>
   </g>
   <g id="patch_127">
    <path d="M 1259.285964 644.224972 
L 1269.573977 644.224972 
L 1269.573977 643.520125 
L 1259.285964 643.520125 
z
" clip-path="url(#pfff412fb55)" style="fill: #ffd700; opacity: 0.85"/>
   </g>
  </g>
  <g id="axes_3">
   <g id="matplotlib.axis_4">
    <g id="ytick_13">
     <g id="line2d_27">
      <g>
       <use xlink:href="#m1d40857e11" x="1387.70125" y="644.224972" style="stroke: #000000; stroke-width: 0.8"/>
      </g>
     </g>
     <g id="text_25">
      <!-- 0 -->
      <g style="fill: #ff0000" transform="translate(1394.70125 648.024191) scale(0.1 -0.1)">
       <use xlink:href="#DejaVuSans-30"/>
      </g>
     </g>
    </g>
    <g id="ytick_14">
     <g id="line2d_28">
      <g>
       <use xlink:href="#m1d40857e11" x="1387.70125" y="580.57286" style="stroke: #000000; stroke-width: 0.8"/>
      </g>
     </g>
     <g id="text_26">
      <!-- 5 -->
      <g style="fill: #ff0000" transform="translate(1394.70125 584.372079) scale(0.1 -0.1)">
       <use xlink:href="#DejaVuSans-35"/>
      </g>
     </g>
    </g>
    <g id="ytick_15">
     <g id="line2d_29">
      <g>
       <use xlink:href="#m1d40857e11" x="1387.70125" y="516.920749" style="stroke: #000000; stroke-width: 0.8"/>
      </g>
     </g>
     <g id="text_27">
      <!-- 10 -->
      <g style="fill: #ff0000" transform="translate(1394.70125 520.719967) scale(0.1 -0.1)">
       <use xlink:href="#DejaVuSans-31"/>
       <use xlink:href="#DejaVuSans-30" x="63.623047"/>
      </g>
     </g>
    </g>
    <g id="ytick_16">
     <g id="line2d_30">
      <g>
       <use xlink:href="#m1d40857e11" x="1387.70125" y="453.268637" style="stroke: #000000; stroke-width: 0.8"/>
      </g>
     </g>
     <g id="text_28">
      <!-- 15 -->
      <g style="fill: #ff0000" transform="translate(1394.70125 457.067856) scale(0.1 -0.1)">
       <use xlink:href="#DejaVuSans-31"/>
       <use xlink:href="#DejaVuSans-35" x="63.623047"/>
      </g>
     </g>
    </g>
    <g id="ytick_17">
     <g id="line2d_31">
      <g>
       <use xlink:href="#m1d40857e11" x="1387.70125" y="389.616525" style="stroke: #000000; stroke-width: 0.8"/>
      </g>
     </g>
     <g id="text_29">
      <!-- 20 -->
      <g style="fill: #ff0000" transform="translate(1394.70125 393.415744) scale(0.1 -0.1)">
       <use xlink:href="#DejaVuSans-32"/>
       <use xlink:href="#DejaVuSans-30" x="63.623047"/>
      </g>
     </g>
    </g>
    <g id="ytick_18">
     <g id="line2d_32">
      <g>
       <use xlink:href="#m1d40857e11" x="1387.70125" y="325.964413" style="stroke: #000000; stroke-width: 0.8"/>
      </g>
     </g>
     <g id="text_30">
      <!-- 25 -->
      <g style="fill: #ff0000" transform="translate(1394.70125 329.763632) scale(0.1 -0.1)">
       <use xlink:href="#DejaVuSans-32"/>
       <use xlink:href="#DejaVuSans-35" x="63.623047"/>
      </g>
     </g>
    </g>
    <g id="ytick_19">
     <g id="line2d_33">
      <g>
       <use xlink:href="#m1d40857e11" x="1387.70125" y="262.312302" style="stroke: #000000; stroke-width: 0.8"/>
      </g>
     </g>
     <g id="text_31">
      <!-- 30 -->
      <g style="fill: #ff0000" transform="translate(1394.70125 266.11152) scale(0.1 -0.1)">
       <defs>
        <path id="DejaVuSans-33" d="M 2597 2516 
Q 3050 2419 3304 2112 
Q 3559 1806 3559 1356 
Q 3559 666 3084 287 
Q 2609 -91 1734 -91 
Q 1441 -91 1130 -33 
Q 819 25 488 141 
L 488 750 
Q 750 597 1062 519 
Q 1375 441 1716 441 
Q 2309 441 2620 675 
Q 2931 909 2931 1356 
Q 2931 1769 2642 2001 
Q 2353 2234 1838 2234 
L 1294 2234 
L 1294 2753 
L 1863 2753 
Q 2328 2753 2575 2939 
Q 2822 3125 2822 3475 
Q 2822 3834 2567 4026 
Q 2313 4219 1838 4219 
Q 1578 4219 1281 4162 
Q 984 4106 628 3988 
L 628 4550 
Q 988 4650 1302 4700 
Q 1616 4750 1894 4750 
Q 2613 4750 3031 4423 
Q 3450 4097 3450 3541 
Q 3450 3153 3228 2886 
Q 3006 2619 2597 2516 
z
" transform="scale(0.015625)"/>
       </defs>
       <use xlink:href="#DejaVuSans-33"/>
       <use xlink:href="#DejaVuSans-30" x="63.623047"/>
      </g>
     </g>
    </g>
    <g id="ytick_20">
     <g id="line2d_34">
      <g>
       <use xlink:href="#m1d40857e11" x="1387.70125" y="198.66019" style="stroke: #000000; stroke-width: 0.8"/>
      </g>
     </g>
     <g id="text_32">
      <!-- 35 -->
      <g style="fill: #ff0000" transform="translate(1394.70125 202.459409) scale(0.1 -0.1)">
       <use xlink:href="#DejaVuSans-33"/>
       <use xlink:href="#DejaVuSans-35" x="63.623047"/>
      </g>
     </g>
    </g>
    <g id="ytick_21">
     <g id="line2d_35">
      <g>
       <use xlink:href="#m1d40857e11" x="1387.70125" y="135.008078" style="stroke: #000000; stroke-width: 0.8"/>
      </g>
     </g>
     <g id="text_33">
      <!-- 40 -->
      <g style="fill: #ff0000" transform="translate(1394.70125 138.807297) scale(0.1 -0.1)">
       <use xlink:href="#DejaVuSans-34"/>
       <use xlink:href="#DejaVuSans-30" x="63.623047"/>
      </g>
     </g>
    </g>
    <g id="text_34">
     <!-- 融資餘額/市值 (%) [長期趨勢] -->
     <g style="fill: #ff0000" transform="translate(1420.544375 429.589408) rotate(-90) scale(0.12 -0.12)">
      <defs>
       <path id="DejaVuSans-Bold-2f" d="M 1644 4666 
L 2338 4666 
L 691 -594 
L 0 -594 
L 1644 4666 
z
" transform="scale(0.015625)"/>
       <path id="DejaVuSans-Bold-5e02" d="M 319 -1131 
L 319 4513 
L 3519 4513 
L 3519 -1131 
L 319 -1131 
z
M 678 -775 
L 3163 -775 
L 3163 4153 
L 678 4153 
L 678 -775 
z
" transform="scale(0.015625)"/>
       <path id="DejaVuSans-Bold-503c" d="M 319 -1131 
L 319 4513 
L 3519 4513 
L 3519 -1131 
L 319 -1131 
z
M 678 -775 
L 3163 -775 
L 3163 4153 
L 678 4153 
L 678 -775 
z
" transform="scale(0.015625)"/>
       <path id="DejaVuSans-Bold-25" d="M 4959 1925 
Q 4738 1925 4616 1733 
Q 4494 1541 4494 1184 
Q 4494 825 4614 633 
Q 4734 441 4959 441 
Q 5184 441 5303 633 
Q 5422 825 5422 1184 
Q 5422 1541 5301 1733 
Q 5181 1925 4959 1925 
z
M 4959 2450 
Q 5541 2450 5875 2112 
Q 6209 1775 6209 1184 
Q 6209 594 5875 251 
Q 5541 -91 4959 -91 
Q 4378 -91 4042 251 
Q 3706 594 3706 1184 
Q 3706 1772 4042 2111 
Q 4378 2450 4959 2450 
z
M 2094 -91 
L 1403 -91 
L 4319 4750 
L 5013 4750 
L 2094 -91 
z
M 1453 4750 
Q 2034 4750 2367 4411 
Q 2700 4072 2700 3481 
Q 2700 2891 2367 2550 
Q 2034 2209 1453 2209 
Q 872 2209 539 2550 
Q 206 2891 206 3481 
Q 206 4072 539 4411 
Q 872 4750 1453 4750 
z
M 1453 4225 
Q 1228 4225 1106 4031 
Q 984 3838 984 3481 
Q 984 3122 1106 2926 
Q 1228 2731 1453 2731 
Q 1678 2731 1798 2926 
Q 1919 3122 1919 3481 
Q 1919 3838 1797 4031 
Q 1675 4225 1453 4225 
z
" transform="scale(0.015625)"/>
       <path id="DejaVuSans-Bold-5b" d="M 550 4863 
L 2491 4863 
L 2491 4159 
L 1613 4159 
L 1613 -141 
L 2491 -141 
L 2491 -844 
L 550 -844 
L 550 4863 
z
" transform="scale(0.015625)"/>
       <path id="DejaVuSans-Bold-9577" d="M 319 -1131 
L 319 4513 
L 3519 4513 
L 3519 -1131 
L 319 -1131 
z
M 678 -775 
L 3163 -775 
L 3163 4153 
L 678 4153 
L 678 -775 
z
" transform="scale(0.015625)"/>
       <path id="DejaVuSans-Bold-8da8" d="M 319 -1131 
L 319 4513 
L 3519 4513 
L 3519 -1131 
L 319 -1131 
z
M 678 -775 
L 3163 -775 
L 3163 4153 
L 678 4153 
L 678 -775 
z
" transform="scale(0.015625)"/>
       <path id="DejaVuSans-Bold-52e2" d="M 319 -1131 
L 319 4513 
L 3519 4513 
L 3519 -1131 
L 319 -1131 
z
M 678 -775 
L 3163 -775 
L 3163 4153 
L 678 4153 
L 678 -775 
z
" transform="scale(0.015625)"/>
       <path id="DejaVuSans-Bold-5d" d="M 2375 -844 
L 434 -844 
L 434 -141 
L 1313 -141 
L 1313 4159 
L 434 4159 
L 434 4863 
L 2375 4863 
L 2375 -844 
z
" transform="scale(0.015625)"/>
      </defs>
      <use xlink:href="#DejaVuSans-Bold-878d"/>
      <use xlink:href="#DejaVuSans-Bold-8cc7" x="60.009766"/>
      <use xlink:href="#DejaVuSans-Bold-9918" x="120.019531"/>
      <use xlink:href="#DejaVuSans-Bold-984d" x="180.029297"/>
      <use xlink:href="#DejaVuSans-Bold-2f" x="240.039062"/>
      <use xlink:href="#DejaVuSans-Bold-5e02" x="276.5625"/>
      <use xlink:href="#DejaVuSans-Bold-503c" x="336.572266"/>
      <use xlink:href="#DejaVuSans-Bold-20" x="396.582031"/>
      <use xlink:href="#DejaVuSans-Bold-28" x="431.396484"/>
      <use xlink:href="#DejaVuSans-Bold-25" x="477.099609"/>
      <use xlink:href="#DejaVuSans-Bold-29" x="577.294922"/>
      <use xlink:href="#DejaVuSans-Bold-20" x="622.998047"/>
      <use xlink:href="#DejaVuSans-Bold-5b" x="657.8125"/>
      <use xlink:href="#DejaVuSans-Bold-9577" x="703.515625"/>
      <use xlink:href="#DejaVuSans-Bold-671f" x="763.525391"/>
      <use xlink:href="#DejaVuSans-Bold-8da8" x="823.535156"/>
      <use xlink:href="#DejaVuSans-Bold-52e2" x="883.544922"/>
      <use xlink:href="#DejaVuSans-Bold-5d" x="943.554688"/>
     </g>
    </g>
   </g>
   <g id="patch_128">
    <path d="M 48.90125 644.224972 
L 48.90125 96.234469 
" style="fill: none; stroke: #000000; stroke-width: 0.8; stroke-linejoin: miter; stroke-linecap: square"/>
   </g>
   <g id="patch_129">
    <path d="M 1387.70125 644.224972 
L 1387.70125 96.234469 
" style="fill: none; stroke: #000000; stroke-width: 0.8; stroke-linejoin: miter; stroke-linecap: square"/>
   </g>
   <g id="patch_130">
    <path d="M 48.90125 644.224972 
L 1327.70125 644.224972 
" style="fill: none; stroke: #000000; stroke-width: 0.8; stroke-linejoin: miter; stroke-linecap: square"/>
   </g>
   <g id="patch_131">
    <path d="M 48.90125 96.234469 
L 1327.70125 96.234469 
" style="fill: none; stroke: #000000; stroke-width: 0.8; stroke-linejoin: miter; stroke-linecap: square"/>
   </g>
   <g id="text_35">
    <!-- 碩網 (7547): 融資餘額與股價分析 -->
    <g transform="translate(614.23375 17.077969) scale(0.13 -0.13)">
     <defs>
      <path id="DejaVuSans-Bold-78a9" d="M 319 -1131 
L 319 4513 
L 3519 4513 
L 3519 -1131 
L 319 -1131 
z
M 678 -775 
L 3163 -775 
L 3163 4153 
L 678 4153 
L 678 -775 
z
" transform="scale(0.015625)"/>
      <path id="DejaVuSans-Bold-7db2" d="M 319 -1131 
L 319 4513 
L 3519 4513 
L 3519 -1131 
L 319 -1131 
z
M 678 -775 
L 3163 -775 
L 3163 4153 
L 678 4153 
L 678 -775 
z
" transform="scale(0.015625)"/>
      <path id="DejaVuSans-Bold-37" d="M 428 4666 
L 3944 4666 
L 3944 3988 
L 2125 0 
L 953 0 
L 2675 3781 
L 428 3781 
L 428 4666 
z
" transform="scale(0.015625)"/>
      <path id="DejaVuSans-Bold-35" d="M 678 4666 
L 3669 4666 
L 3669 3781 
L 1638 3781 
L 1638 3059 
Q 1775 3097 1914 3117 
Q 2053 3138 2203 3138 
Q 3056 3138 3531 2711 
Q 4006 2284 4006 1522 
Q 4006 766 3489 337 
Q 2972 -91 2053 -91 
Q 1656 -91 1267 -14 
Q 878 63 494 219 
L 494 1166 
Q 875 947 1217 837 
Q 1559 728 1863 728 
Q 2300 728 2551 942 
Q 2803 1156 2803 1522 
Q 2803 1891 2551 2103 
Q 2300 2316 1863 2316 
Q 1603 2316 1309 2248 
Q 1016 2181 678 2041 
L 678 4666 
z
" transform="scale(0.015625)"/>
      <path id="DejaVuSans-Bold-34" d="M 2356 3675 
L 1038 1722 
L 2356 1722 
L 2356 3675 
z
M 2156 4666 
L 3494 4666 
L 3494 1722 
L 4159 1722 
L 4159 850 
L 3494 850 
L 3494 0 
L 2356 0 
L 2356 850 
L 288 850 
L 288 1881 
L 2156 4666 
z
" transform="scale(0.015625)"/>
      <path id="DejaVuSans-Bold-3a" d="M 716 3500 
L 1844 3500 
L 1844 2291 
L 716 2291 
L 716 3500 
z
M 716 1209 
L 1844 1209 
L 1844 0 
L 716 0 
L 716 1209 
z
" transform="scale(0.015625)"/>
      <path id="DejaVuSans-Bold-8207" d="M 319 -1131 
L 319 4513 
L 3519 4513 
L 3519 -1131 
L 319 -1131 
z
M 678 -775 
L 3163 -775 
L 3163 4153 
L 678 4153 
L 678 -775 
z
" transform="scale(0.015625)"/>
      <path id="DejaVuSans-Bold-80a1" d="M 319 -1131 
L 319 4513 
L 3519 4513 
L 3519 -1131 
L 319 -1131 
z
M 678 -775 
L 3163 -775 
L 3163 4153 
L 678 4153 
L 678 -775 
z
" transform="scale(0.015625)"/>
      <path id="DejaVuSans-Bold-5206" d="M 319 -1131 
L 319 4513 
L 3519 4513 
L 3519 -1131 
L 319 -1131 
z
M 678 -775 
L 3163 -775 
L 3163 4153 
L 678 4153 
L 678 -775 
z
" transform="scale(0.015625)"/>
      <path id="DejaVuSans-Bold-6790" d="M 319 -1131 
L 319 4513 
L 3519 4513 
L 3519 -1131 
L 319 -1131 
z
M 678 -775 
L 3163 -775 
L 3163 4153 
L 678 4153 
L 678 -775 
z
" transform="scale(0.015625)"/>
     </defs>
     <use xlink:href="#DejaVuSans-Bold-78a9"/>
     <use xlink:href="#DejaVuSans-Bold-7db2" x="60.009766"/>
     <use xlink:href="#DejaVuSans-Bold-20" x="120.019531"/>
     <use xlink:href="#DejaVuSans-Bold-28" x="154.833984"/>
     <use xlink:href="#DejaVuSans-Bold-37" x="200.537109"/>
     <use xlink:href="#DejaVuSans-Bold-35" x="270.117188"/>
     <use xlink:href="#DejaVuSans-Bold-34" x="339.697266"/>
     <use xlink:href="#DejaVuSans-Bold-37" x="409.277344"/>
     <use xlink:href="#DejaVuSans-Bold-29" x="478.857422"/>
     <use xlink:href="#DejaVuSans-Bold-3a" x="524.560547"/>
     <use xlink:href="#DejaVuSans-Bold-20" x="564.550781"/>
     <use xlink:href="#DejaVuSans-Bold-878d" x="599.365234"/>
     <use xlink:href="#DejaVuSans-Bold-8cc7" x="659.375"/>
     <use xlink:href="#DejaVuSans-Bold-9918" x="719.384766"/>
     <use xlink:href="#DejaVuSans-Bold-984d" x="779.394531"/>
     <use xlink:href="#DejaVuSans-Bold-8207" x="839.404297"/>
     <use xlink:href="#DejaVuSans-Bold-80a1" x="899.414062"/>
     <use xlink:href="#DejaVuSans-Bold-50f9" x="959.423828"/>
     <use xlink:href="#DejaVuSans-Bold-5206" x="1019.433594"/>
     <use xlink:href="#DejaVuSans-Bold-6790" x="1079.443359"/>
    </g>
    <!-- (長期資料: 115 點, 2025-07-29 ~ 2026-01-13 | 日資料: 最近1年) -->
    <g transform="translate(504.616328 31.703375) scale(0.13 -0.13)">
     <defs>
      <path id="DejaVuSans-Bold-6599" d="M 319 -1131 
L 319 4513 
L 3519 4513 
L 3519 -1131 
L 319 -1131 
z
M 678 -775 
L 3163 -775 
L 3163 4153 
L 678 4153 
L 678 -775 
z
" transform="scale(0.015625)"/>
      <path id="DejaVuSans-Bold-31" d="M 750 831 
L 1813 831 
L 1813 3847 
L 722 3622 
L 722 4441 
L 1806 4666 
L 2950 4666 
L 2950 831 
L 4013 831 
L 4013 0 
L 750 0 
L 750 831 
z
" transform="scale(0.015625)"/>
      <path id="DejaVuSans-Bold-9ede" d="M 319 -1131 
L 319 4513 
L 3519 4513 
L 3519 -1131 
L 319 -1131 
z
M 678 -775 
L 3163 -775 
L 3163 4153 
L 678 4153 
L 678 -775 
z
" transform="scale(0.015625)"/>
      <path id="DejaVuSans-Bold-2c" d="M 653 1209 
L 1778 1209 
L 1778 256 
L 1006 -909 
L 341 -909 
L 653 256 
L 653 1209 
z
" transform="scale(0.015625)"/>
      <path id="DejaVuSans-Bold-32" d="M 1844 884 
L 3897 884 
L 3897 0 
L 506 0 
L 506 884 
L 2209 2388 
Q 2438 2594 2547 2791 
Q 2656 2988 2656 3200 
Q 2656 3528 2436 3728 
Q 2216 3928 1850 3928 
Q 1569 3928 1234 3808 
Q 900 3688 519 3450 
L 519 4475 
Q 925 4609 1322 4679 
Q 1719 4750 2100 4750 
Q 2938 4750 3402 4381 
Q 3866 4013 3866 3353 
Q 3866 2972 3669 2642 
Q 3472 2313 2841 1759 
L 1844 884 
z
" transform="scale(0.015625)"/>
      <path id="DejaVuSans-Bold-30" d="M 2944 2338 
Q 2944 3213 2780 3570 
Q 2616 3928 2228 3928 
Q 1841 3928 1675 3570 
Q 1509 3213 1509 2338 
Q 1509 1453 1675 1090 
Q 1841 728 2228 728 
Q 2613 728 2778 1090 
Q 2944 1453 2944 2338 
z
M 4147 2328 
Q 4147 1169 3647 539 
Q 3147 -91 2228 -91 
Q 1306 -91 806 539 
Q 306 1169 306 2328 
Q 306 3491 806 4120 
Q 1306 4750 2228 4750 
Q 3147 4750 3647 4120 
Q 4147 3491 4147 2328 
z
" transform="scale(0.015625)"/>
      <path id="DejaVuSans-Bold-2d" d="M 347 2297 
L 2309 2297 
L 2309 1388 
L 347 1388 
L 347 2297 
z
" transform="scale(0.015625)"/>
      <path id="DejaVuSans-Bold-39" d="M 641 103 
L 641 966 
Q 928 831 1190 764 
Q 1453 697 1709 697 
Q 2247 697 2547 995 
Q 2847 1294 2900 1881 
Q 2688 1725 2447 1647 
Q 2206 1569 1925 1569 
Q 1209 1569 770 1986 
Q 331 2403 331 3084 
Q 331 3838 820 4291 
Q 1309 4744 2131 4744 
Q 3044 4744 3544 4128 
Q 4044 3513 4044 2388 
Q 4044 1231 3459 570 
Q 2875 -91 1856 -91 
Q 1528 -91 1228 -42 
Q 928 6 641 103 
z
M 2125 2350 
Q 2441 2350 2600 2554 
Q 2759 2759 2759 3169 
Q 2759 3575 2600 3781 
Q 2441 3988 2125 3988 
Q 1809 3988 1650 3781 
Q 1491 3575 1491 3169 
Q 1491 2759 1650 2554 
Q 1809 2350 2125 2350 
z
" transform="scale(0.015625)"/>
      <path id="DejaVuSans-Bold-7e" d="M 4684 2656 
L 4684 1894 
Q 4353 1644 4073 1536 
Q 3794 1428 3494 1428 
Q 3159 1428 2713 1609 
Q 2669 1628 2644 1638 
Q 2622 1647 2575 1666 
Q 2091 1856 1797 1856 
Q 1522 1856 1253 1736 
Q 984 1616 678 1356 
L 678 2119 
Q 1013 2369 1291 2476 
Q 1569 2584 1869 2584 
Q 2203 2584 2650 2403 
Q 2697 2384 2719 2375 
Q 2741 2366 2788 2347 
Q 3272 2156 3566 2156 
Q 3834 2156 4098 2273 
Q 4363 2391 4684 2656 
z
" transform="scale(0.015625)"/>
      <path id="DejaVuSans-Bold-36" d="M 2316 2303 
Q 2000 2303 1842 2098 
Q 1684 1894 1684 1484 
Q 1684 1075 1842 870 
Q 2000 666 2316 666 
Q 2634 666 2792 870 
Q 2950 1075 2950 1484 
Q 2950 1894 2792 2098 
Q 2634 2303 2316 2303 
z
M 3803 4544 
L 3803 3681 
Q 3506 3822 3243 3889 
Q 2981 3956 2731 3956 
Q 2194 3956 1894 3657 
Q 1594 3359 1544 2772 
Q 1750 2925 1990 3001 
Q 2231 3078 2516 3078 
Q 3231 3078 3670 2659 
Q 4109 2241 4109 1563 
Q 4109 813 3618 361 
Q 3128 -91 2303 -91 
Q 1394 -91 895 523 
Q 397 1138 397 2266 
Q 397 3422 980 4083 
Q 1563 4744 2578 4744 
Q 2900 4744 3203 4694 
Q 3506 4644 3803 4544 
z
" transform="scale(0.015625)"/>
      <path id="DejaVuSans-Bold-33" d="M 2981 2516 
Q 3453 2394 3698 2092 
Q 3944 1791 3944 1325 
Q 3944 631 3412 270 
Q 2881 -91 1863 -91 
Q 1503 -91 1142 -33 
Q 781 25 428 141 
L 428 1069 
Q 766 900 1098 814 
Q 1431 728 1753 728 
Q 2231 728 2486 893 
Q 2741 1059 2741 1369 
Q 2741 1688 2480 1852 
Q 2219 2016 1709 2016 
L 1228 2016 
L 1228 2791 
L 1734 2791 
Q 2188 2791 2409 2933 
Q 2631 3075 2631 3366 
Q 2631 3634 2415 3781 
Q 2200 3928 1806 3928 
Q 1516 3928 1219 3862 
Q 922 3797 628 3669 
L 628 4550 
Q 984 4650 1334 4700 
Q 1684 4750 2022 4750 
Q 2931 4750 3382 4451 
Q 3834 4153 3834 3553 
Q 3834 3144 3618 2883 
Q 3403 2622 2981 2516 
z
" transform="scale(0.015625)"/>
      <path id="DejaVuSans-Bold-7c" d="M 1522 4891 
L 1522 -1509 
L 813 -1509 
L 813 4891 
L 1522 4891 
z
" transform="scale(0.015625)"/>
      <path id="DejaVuSans-Bold-6700" d="M 319 -1131 
L 319 4513 
L 3519 4513 
L 3519 -1131 
L 319 -1131 
z
M 678 -775 
L 3163 -775 
L 3163 4153 
L 678 4153 
L 678 -775 
z
" transform="scale(0.015625)"/>
      <path id="DejaVuSans-Bold-8fd1" d="M 319 -1131 
L 319 4513 
L 3519 4513 
L 3519 -1131 
L 319 -1131 
z
M 678 -775 
L 3163 -775 
L 3163 4153 
L 678 4153 
L 678 -775 
z
" transform="scale(0.015625)"/>
      <path id="DejaVuSans-Bold-5e74" d="M 319 -1131 
L 319 4513 
L 3519 4513 
L 3519 -1131 
L 319 -1131 
z
M 678 -775 
L 3163 -775 
L 3163 4153 
L 678 4153 
L 678 -775 
z
" transform="scale(0.015625)"/>
     </defs>
     <use xlink:href="#DejaVuSans-Bold-28"/>
     <use xlink:href="#DejaVuSans-Bold-9577" x="45.703125"/>
     <use xlink:href="#DejaVuSans-Bold-671f" x="105.712891"/>
     <use xlink:href="#DejaVuSans-Bold-8cc7" x="165.722656"/>
     <use xlink:href="#DejaVuSans-Bold-6599" x="225.732422"/>
     <use xlink:href="#DejaVuSans-Bold-3a" x="285.742188"/>
     <use xlink:href="#DejaVuSans-Bold-20" x="325.732422"/>
     <use xlink:href="#DejaVuSans-Bold-31" x="360.546875"/>
     <use xlink:href="#DejaVuSans-Bold-31" x="430.126953"/>
     <use xlink:href="#DejaVuSans-Bold-35" x="499.707031"/>
     <use xlink:href="#DejaVuSans-Bold-20" x="569.287109"/>
     <use xlink:href="#DejaVuSans-Bold-9ede" x="604.101562"/>
     <use xlink:href="#DejaVuSans-Bold-2c" x="664.111328"/>
     <use xlink:href="#DejaVuSans-Bold-20" x="702.099609"/>
     <use xlink:href="#DejaVuSans-Bold-32" x="736.914062"/>
     <use xlink:href="#DejaVuSans-Bold-30" x="806.494141"/>
     <use xlink:href="#DejaVuSans-Bold-32" x="876.074219"/>
     <use xlink:href="#DejaVuSans-Bold-35" x="945.654297"/>
     <use xlink:href="#DejaVuSans-Bold-2d" x="1015.234375"/>
     <use xlink:href="#DejaVuSans-Bold-30" x="1056.738281"/>
     <use xlink:href="#DejaVuSans-Bold-37" x="1126.318359"/>
     <use xlink:href="#DejaVuSans-Bold-2d" x="1195.898438"/>
     <use xlink:href="#DejaVuSans-Bold-32" x="1237.402344"/>
     <use xlink:href="#DejaVuSans-Bold-39" x="1306.982422"/>
     <use xlink:href="#DejaVuSans-Bold-20" x="1376.5625"/>
     <use xlink:href="#DejaVuSans-Bold-7e" x="1411.376953"/>
     <use xlink:href="#DejaVuSans-Bold-20" x="1495.166016"/>
     <use xlink:href="#DejaVuSans-Bold-32" x="1529.980469"/>
     <use xlink:href="#DejaVuSans-Bold-30" x="1599.560547"/>
     <use xlink:href="#DejaVuSans-Bold-32" x="1669.140625"/>
     <use xlink:href="#DejaVuSans-Bold-36" x="1738.720703"/>
     <use xlink:href="#DejaVuSans-Bold-2d" x="1808.300781"/>
     <use xlink:href="#DejaVuSans-Bold-30" x="1849.804688"/>
     <use xlink:href="#DejaVuSans-Bold-31" x="1919.384766"/>
     <use xlink:href="#DejaVuSans-Bold-2d" x="1988.964844"/>
     <use xlink:href="#DejaVuSans-Bold-31" x="2030.46875"/>
     <use xlink:href="#DejaVuSans-Bold-33" x="2100.048828"/>
     <use xlink:href="#DejaVuSans-Bold-20" x="2169.628906"/>
     <use xlink:href="#DejaVuSans-Bold-7c" x="2204.443359"/>
     <use xlink:href="#DejaVuSans-Bold-20" x="2240.966797"/>
     <use xlink:href="#DejaVuSans-Bold-65e5" x="2275.78125"/>
     <use xlink:href="#DejaVuSans-Bold-8cc7" x="2335.791016"/>
     <use xlink:href="#DejaVuSans-Bold-6599" x="2395.800781"/>
     <use xlink:href="#DejaVuSans-Bold-3a" x="2455.810547"/>
     <use xlink:href="#DejaVuSans-Bold-20" x="2495.800781"/>
     <use xlink:href="#DejaVuSans-Bold-6700" x="2530.615234"/>
     <use xlink:href="#DejaVuSans-Bold-8fd1" x="2590.625"/>
     <use xlink:href="#DejaVuSans-Bold-31" x="2650.634766"/>
     <use xlink:href="#DejaVuSans-Bold-5e74" x="2720.214844"/>
     <use xlink:href="#DejaVuSans-Bold-29" x="2780.224609"/>
    </g>
    <!--  -->
    <g transform="translate(688.30125 46.622094) scale(0.13 -0.13)"/>
    <!-- 最新融資餘額: 0.0 億元 | 最新收盤價: 58.00 元 | 歷史區間: 0.0~3.4 億元 | 平均: 0.3 億元 -->
    <g transform="translate(473.415313 61.2475) scale(0.13 -0.13)">
     <defs>
      <path id="DejaVuSans-Bold-65b0" d="M 319 -1131 
L 319 4513 
L 3519 4513 
L 3519 -1131 
L 319 -1131 
z
M 678 -775 
L 3163 -775 
L 3163 4153 
L 678 4153 
L 678 -775 
z
" transform="scale(0.015625)"/>
      <path id="DejaVuSans-Bold-2e" d="M 653 1209 
L 1778 1209 
L 1778 0 
L 653 0 
L 653 1209 
z
" transform="scale(0.015625)"/>
      <path id="DejaVuSans-Bold-38" d="M 2228 2088 
Q 1891 2088 1709 1903 
Q 1528 1719 1528 1375 
Q 1528 1031 1709 848 
Q 1891 666 2228 666 
Q 2563 666 2741 848 
Q 2919 1031 2919 1375 
Q 2919 1722 2741 1905 
Q 2563 2088 2228 2088 
z
M 1350 2484 
Q 925 2613 709 2878 
Q 494 3144 494 3541 
Q 494 4131 934 4440 
Q 1375 4750 2228 4750 
Q 3075 4750 3515 4442 
Q 3956 4134 3956 3541 
Q 3956 3144 3739 2878 
Q 3522 2613 3097 2484 
Q 3572 2353 3814 2058 
Q 4056 1763 4056 1313 
Q 4056 619 3595 264 
Q 3134 -91 2228 -91 
Q 1319 -91 855 264 
Q 391 619 391 1313 
Q 391 1763 633 2058 
Q 875 2353 1350 2484 
z
M 1631 3419 
Q 1631 3141 1786 2991 
Q 1941 2841 2228 2841 
Q 2509 2841 2662 2991 
Q 2816 3141 2816 3419 
Q 2816 3697 2662 3845 
Q 2509 3994 2228 3994 
Q 1941 3994 1786 3844 
Q 1631 3694 1631 3419 
z
" transform="scale(0.015625)"/>
      <path id="DejaVuSans-Bold-6b77" d="M 319 -1131 
L 319 4513 
L 3519 4513 
L 3519 -1131 
L 319 -1131 
z
M 678 -775 
L 3163 -775 
L 3163 4153 
L 678 4153 
L 678 -775 
z
" transform="scale(0.015625)"/>
      <path id="DejaVuSans-Bold-53f2" d="M 319 -1131 
L 319 4513 
L 3519 4513 
L 3519 -1131 
L 319 -1131 
z
M 678 -775 
L 3163 -775 
L 3163 4153 
L 678 4153 
L 678 -775 
z
" transform="scale(0.015625)"/>
      <path id="DejaVuSans-Bold-5340" d="M 319 -1131 
L 319 4513 
L 3519 4513 
L 3519 -1131 
L 319 -1131 
z
M 678 -775 
L 3163 -775 
L 3163 4153 
L 678 4153 
L 678 -775 
z
" transform="scale(0.015625)"/>
      <path id="DejaVuSans-Bold-9593" d="M 319 -1131 
L 319 4513 
L 3519 4513 
L 3519 -1131 
L 319 -1131 
z
M 678 -775 
L 3163 -775 
L 3163 4153 
L 678 4153 
L 678 -775 
z
" transform="scale(0.015625)"/>
      <path id="DejaVuSans-Bold-5e73" d="M 319 -1131 
L 319 4513 
L 3519 4513 
L 3519 -1131 
L 319 -1131 
z
M 678 -775 
L 3163 -775 
L 3163 4153 
L 678 4153 
L 678 -775 
z
" transform="scale(0.015625)"/>
      <path id="DejaVuSans-Bold-5747" d="M 319 -1131 
L 319 4513 
L 3519 4513 
L 3519 -1131 
L 319 -1131 
z
M 678 -775 
L 3163 -775 
L 3163 4153 
L 678 4153 
L 678 -775 
z
" transform="scale(0.015625)"/>
     </defs>
     <use xlink:href="#DejaVuSans-Bold-6700"/>
     <use xlink:href="#DejaVuSans-Bold-65b0" x="60.009766"/>
     <use xlink:href="#DejaVuSans-Bold-878d" x="120.019531"/>
     <use xlink:href="#DejaVuSans-Bold-8cc7" x="180.029297"/>
     <use xlink:href="#DejaVuSans-Bold-9918" x="240.039062"/>
     <use xlink:href="#DejaVuSans-Bold-984d" x="300.048828"/>
     <use xlink:href="#DejaVuSans-Bold-3a" x="360.058594"/>
     <use xlink:href="#DejaVuSans-Bold-20" x="400.048828"/>
     <use xlink:href="#DejaVuSans-Bold-30" x="434.863281"/>
     <use xlink:href="#DejaVuSans-Bold-2e" x="504.443359"/>
     <use xlink:href="#DejaVuSans-Bold-30" x="542.431641"/>
     <use xlink:href="#DejaVuSans-Bold-20" x="612.011719"/>
     <use xlink:href="#DejaVuSans-Bold-5104" x="646.826172"/>
     <use xlink:href="#DejaVuSans-Bold-5143" x="706.835938"/>
     <use xlink:href="#DejaVuSans-Bold-20" x="766.845703"/>
     <use xlink:href="#DejaVuSans-Bold-7c" x="801.660156"/>
     <use xlink:href="#DejaVuSans-Bold-20" x="838.183594"/>
     <use xlink:href="#DejaVuSans-Bold-6700" x="872.998047"/>
     <use xlink:href="#DejaVuSans-Bold-65b0" x="933.007812"/>
     <use xlink:href="#DejaVuSans-Bold-6536" x="993.017578"/>
     <use xlink:href="#DejaVuSans-Bold-76e4" x="1053.027344"/>
     <use xlink:href="#DejaVuSans-Bold-50f9" x="1113.037109"/>
     <use xlink:href="#DejaVuSans-Bold-3a" x="1173.046875"/>
     <use xlink:href="#DejaVuSans-Bold-20" x="1213.037109"/>
     <use xlink:href="#DejaVuSans-Bold-35" x="1247.851562"/>
     <use xlink:href="#DejaVuSans-Bold-38" x="1317.431641"/>
     <use xlink:href="#DejaVuSans-Bold-2e" x="1387.011719"/>
     <use xlink:href="#DejaVuSans-Bold-30" x="1425"/>
     <use xlink:href="#DejaVuSans-Bold-30" x="1494.580078"/>
     <use xlink:href="#DejaVuSans-Bold-20" x="1564.160156"/>
     <use xlink:href="#DejaVuSans-Bold-5143" x="1598.974609"/>
     <use xlink:href="#DejaVuSans-Bold-20" x="1658.984375"/>
     <use xlink:href="#DejaVuSans-Bold-7c" x="1693.798828"/>
     <use xlink:href="#DejaVuSans-Bold-20" x="1730.322266"/>
     <use xlink:href="#DejaVuSans-Bold-6b77" x="1765.136719"/>
     <use xlink:href="#DejaVuSans-Bold-53f2" x="1825.146484"/>
     <use xlink:href="#DejaVuSans-Bold-5340" x="1885.15625"/>
     <use xlink:href="#DejaVuSans-Bold-9593" x="1945.166016"/>
     <use xlink:href="#DejaVuSans-Bold-3a" x="2005.175781"/>
     <use xlink:href="#DejaVuSans-Bold-20" x="2045.166016"/>
     <use xlink:href="#DejaVuSans-Bold-30" x="2079.980469"/>
     <use xlink:href="#DejaVuSans-Bold-2e" x="2149.560547"/>
     <use xlink:href="#DejaVuSans-Bold-30" x="2187.548828"/>
     <use xlink:href="#DejaVuSans-Bold-7e" x="2257.128906"/>
     <use xlink:href="#DejaVuSans-Bold-33" x="2340.917969"/>
     <use xlink:href="#DejaVuSans-Bold-2e" x="2410.498047"/>
     <use xlink:href="#DejaVuSans-Bold-34" x="2448.486328"/>
     <use xlink:href="#DejaVuSans-Bold-20" x="2518.066406"/>
     <use xlink:href="#DejaVuSans-Bold-5104" x="2552.880859"/>
     <use xlink:href="#DejaVuSans-Bold-5143" x="2612.890625"/>
     <use xlink:href="#DejaVuSans-Bold-20" x="2672.900391"/>
     <use xlink:href="#DejaVuSans-Bold-7c" x="2707.714844"/>
     <use xlink:href="#DejaVuSans-Bold-20" x="2744.238281"/>
     <use xlink:href="#DejaVuSans-Bold-5e73" x="2779.052734"/>
     <use xlink:href="#DejaVuSans-Bold-5747" x="2839.0625"/>
     <use xlink:href="#DejaVuSans-Bold-3a" x="2899.072266"/>
     <use xlink:href="#DejaVuSans-Bold-20" x="2939.0625"/>
     <use xlink:href="#DejaVuSans-Bold-30" x="2973.876953"/>
     <use xlink:href="#DejaVuSans-Bold-2e" x="3043.457031"/>
     <use xlink:href="#DejaVuSans-Bold-33" x="3081.445312"/>
     <use xlink:href="#DejaVuSans-Bold-20" x="3151.025391"/>
     <use xlink:href="#DejaVuSans-Bold-5104" x="3185.839844"/>
     <use xlink:href="#DejaVuSans-Bold-5143" x="3245.849609"/>
    </g>
    <!-- 市值: 20 億元 (當前) | 融資餘額/市值: 0.09% (低風險) *註:比率使用當前市值估算 -->
    <g transform="translate(509.349141 76.234469) scale(0.13 -0.13)">
     <defs>
      <path id="DejaVuSans-Bold-7576" d="M 319 -1131 
L 319 4513 
L 3519 4513 
L 3519 -1131 
L 319 -1131 
z
M 678 -775 
L 3163 -775 
L 3163 4153 
L 678 4153 
L 678 -775 
z
" transform="scale(0.015625)"/>
      <path id="DejaVuSans-Bold-524d" d="M 319 -1131 
L 319 4513 
L 3519 4513 
L 3519 -1131 
L 319 -1131 
z
M 678 -775 
L 3163 -775 
L 3163 4153 
L 678 4153 
L 678 -775 
z
" transform="scale(0.015625)"/>
      <path id="DejaVuSans-Bold-4f4e" d="M 319 -1131 
L 319 4513 
L 3519 4513 
L 3519 -1131 
L 319 -1131 
z
M 678 -775 
L 3163 -775 
L 3163 4153 
L 678 4153 
L 678 -775 
z
" transform="scale(0.015625)"/>
      <path id="DejaVuSans-Bold-98a8" d="M 319 -1131 
L 319 4513 
L 3519 4513 
L 3519 -1131 
L 319 -1131 
z
M 678 -775 
L 3163 -775 
L 3163 4153 
L 678 4153 
L 678 -775 
z
" transform="scale(0.015625)"/>
      <path id="DejaVuSans-Bold-96aa" d="M 319 -1131 
L 319 4513 
L 3519 4513 
L 3519 -1131 
L 319 -1131 
z
M 678 -775 
L 3163 -775 
L 3163 4153 
L 678 4153 
L 678 -775 
z
" transform="scale(0.015625)"/>
      <path id="DejaVuSans-Bold-2a" d="M 3219 3803 
L 2188 3263 
L 3219 2719 
L 2981 2278 
L 1941 2853 
L 1941 1778 
L 1409 1778 
L 1409 2853 
L 366 2278 
L 128 2719 
L 1172 3263 
L 128 3803 
L 366 4244 
L 1409 3675 
L 1409 4750 
L 1941 4750 
L 1941 3675 
L 2981 4244 
L 3219 3803 
z
" transform="scale(0.015625)"/>
      <path id="DejaVuSans-Bold-8a3b" d="M 319 -1131 
L 319 4513 
L 3519 4513 
L 3519 -1131 
L 319 -1131 
z
M 678 -775 
L 3163 -775 
L 3163 4153 
L 678 4153 
L 678 -775 
z
" transform="scale(0.015625)"/>
      <path id="DejaVuSans-Bold-6bd4" d="M 319 -1131 
L 319 4513 
L 3519 4513 
L 3519 -1131 
L 319 -1131 
z
M 678 -775 
L 3163 -775 
L 3163 4153 
L 678 4153 
L 678 -775 
z
" transform="scale(0.015625)"/>
      <path id="DejaVuSans-Bold-7387" d="M 319 -1131 
L 319 4513 
L 3519 4513 
L 3519 -1131 
L 319 -1131 
z
M 678 -775 
L 3163 -775 
L 3163 4153 
L 678 4153 
L 678 -775 
z
" transform="scale(0.015625)"/>
      <path id="DejaVuSans-Bold-4f7f" d="M 319 -1131 
L 319 4513 
L 3519 4513 
L 3519 -1131 
L 319 -1131 
z
M 678 -775 
L 3163 -775 
L 3163 4153 
L 678 4153 
L 678 -775 
z
" transform="scale(0.015625)"/>
      <path id="DejaVuSans-Bold-7528" d="M 319 -1131 
L 319 4513 
L 3519 4513 
L 3519 -1131 
L 319 -1131 
z
M 678 -775 
L 3163 -775 
L 3163 4153 
L 678 4153 
L 678 -775 
z
" transform="scale(0.015625)"/>
      <path id="DejaVuSans-Bold-4f30" d="M 319 -1131 
L 319 4513 
L 3519 4513 
L 3519 -1131 
L 319 -1131 
z
M 678 -775 
L 3163 -775 
L 3163 4153 
L 678 4153 
L 678 -775 
z
" transform="scale(0.015625)"/>
      <path id="DejaVuSans-Bold-7b97" d="M 319 -1131 
L 319 4513 
L 3519 4513 
L 3519 -1131 
L 319 -1131 
z
M 678 -775 
L 3163 -775 
L 3163 4153 
L 678 4153 
L 678 -775 
z
" transform="scale(0.015625)"/>
     </defs>
     <use xlink:href="#DejaVuSans-Bold-5e02"/>
     <use xlink:href="#DejaVuSans-Bold-503c" x="60.009766"/>
     <use xlink:href="#DejaVuSans-Bold-3a" x="120.019531"/>
     <use xlink:href="#DejaVuSans-Bold-20" x="160.009766"/>
     <use xlink:href="#DejaVuSans-Bold-32" x="194.824219"/>
     <use xlink:href="#DejaVuSans-Bold-30" x="264.404297"/>
     <use xlink:href="#DejaVuSans-Bold-20" x="333.984375"/>
     <use xlink:href="#DejaVuSans-Bold-5104" x="368.798828"/>
     <use xlink:href="#DejaVuSans-Bold-5143" x="428.808594"/>
     <use xlink:href="#DejaVuSans-Bold-20" x="488.818359"/>
     <use xlink:href="#DejaVuSans-Bold-28" x="523.632812"/>
     <use xlink:href="#DejaVuSans-Bold-7576" x="569.335938"/>
     <use xlink:href="#DejaVuSans-Bold-524d" x="629.345703"/>
     <use xlink:href="#DejaVuSans-Bold-29" x="689.355469"/>
     <use xlink:href="#DejaVuSans-Bold-20" x="735.058594"/>
     <use xlink:href="#DejaVuSans-Bold-7c" x="769.873047"/>
     <use xlink:href="#DejaVuSans-Bold-20" x="806.396484"/>
     <use xlink:href="#DejaVuSans-Bold-878d" x="841.210938"/>
     <use xlink:href="#DejaVuSans-Bold-8cc7" x="901.220703"/>
     <use xlink:href="#DejaVuSans-Bold-9918" x="961.230469"/>
     <use xlink:href="#DejaVuSans-Bold-984d" x="1021.240234"/>
     <use xlink:href="#DejaVuSans-Bold-2f" x="1081.25"/>
     <use xlink:href="#DejaVuSans-Bold-5e02" x="1117.773438"/>
     <use xlink:href="#DejaVuSans-Bold-503c" x="1177.783203"/>
     <use xlink:href="#DejaVuSans-Bold-3a" x="1237.792969"/>
     <use xlink:href="#DejaVuSans-Bold-20" x="1277.783203"/>
     <use xlink:href="#DejaVuSans-Bold-30" x="1312.597656"/>
     <use xlink:href="#DejaVuSans-Bold-2e" x="1382.177734"/>
     <use xlink:href="#DejaVuSans-Bold-30" x="1420.166016"/>
     <use xlink:href="#DejaVuSans-Bold-39" x="1489.746094"/>
     <use xlink:href="#DejaVuSans-Bold-25" x="1559.326172"/>
     <use xlink:href="#DejaVuSans-Bold-20" x="1659.521484"/>
     <use xlink:href="#DejaVuSans-Bold-28" x="1694.335938"/>
     <use xlink:href="#DejaVuSans-Bold-4f4e" x="1740.039062"/>
     <use xlink:href="#DejaVuSans-Bold-98a8" x="1800.048828"/>
     <use xlink:href="#DejaVuSans-Bold-96aa" x="1860.058594"/>
     <use xlink:href="#DejaVuSans-Bold-29" x="1920.068359"/>
     <use xlink:href="#DejaVuSans-Bold-20" x="1965.771484"/>
     <use xlink:href="#DejaVuSans-Bold-2a" x="2000.585938"/>
     <use xlink:href="#DejaVuSans-Bold-8a3b" x="2052.880859"/>
     <use xlink:href="#DejaVuSans-Bold-3a" x="2112.890625"/>
     <use xlink:href="#DejaVuSans-Bold-6bd4" x="2152.880859"/>
     <use xlink:href="#DejaVuSans-Bold-7387" x="2212.890625"/>
     <use xlink:href="#DejaVuSans-Bold-4f7f" x="2272.900391"/>
     <use xlink:href="#DejaVuSans-Bold-7528" x="2332.910156"/>
     <use xlink:href="#DejaVuSans-Bold-7576" x="2392.919922"/>
     <use xlink:href="#DejaVuSans-Bold-524d" x="2452.929688"/>
     <use xlink:href="#DejaVuSans-Bold-5e02" x="2512.939453"/>
     <use xlink:href="#DejaVuSans-Bold-503c" x="2572.949219"/>
     <use xlink:href="#DejaVuSans-Bold-4f30" x="2632.958984"/>
     <use xlink:href="#DejaVuSans-Bold-7b97" x="2692.96875"/>
    </g>
   </g>
   <g id="line2d_36">
    <path d="M 112.172529 471.074682 
L 119.031204 564.599489 
L 125.88988 570.497854 
L 132.748555 582.023038 
L 153.324581 588.63319 
L 160.183256 569.294563 
L 167.041931 610.828052 
L 173.900606 424.787399 
L 180.759282 513.575282 
L 201.335307 499.436857 
L 208.193983 562.957252 
L 215.052658 522.890162 
L 221.911333 552.776158 
L 228.770008 580.146891 
L 249.346034 530.780169 
L 256.204709 563.818599 
L 263.063385 587.540204 
L 269.92206 599.667196 
L 276.780735 544.078983 
L 297.356761 582.672536 
L 304.215436 616.039609 
L 311.074111 619.362366 
L 317.932787 629.141822 
L 324.791462 615.698963 
L 345.367488 612.770707 
L 352.226163 630.307934 
L 359.084838 623.202256 
L 365.943513 619.009392 
L 372.802189 630.857055 
L 393.378214 634.362463 
L 400.23689 628.328165 
L 407.095565 627.621439 
L 413.95424 609.052152 
L 420.812915 633.26461 
L 441.388941 633.872517 
L 448.247616 640.38638 
L 455.106292 634.929558 
L 461.964967 639.189902 
L 468.823642 640.176153 
L 489.399668 638.53132 
L 496.258343 633.607722 
L 503.117018 617.253606 
L 509.975694 635.63304 
L 516.834369 634.60124 
L 544.26907 640.491753 
L 551.127745 631.569297 
L 557.98642 610.290805 
L 564.845096 634.638614 
L 592.279797 639.047155 
L 599.138472 637.606515 
L 605.997147 631.798211 
L 633.431848 613.938895 
L 640.290523 632.790951 
L 647.149199 640.768682 
L 654.007874 638.341531 
L 660.866549 640.035093 
L 681.442575 639.611654 
L 688.30125 638.010943 
L 695.159925 634.260983 
L 702.0186 641.192251 
L 729.453301 639.293718 
L 736.311977 639.195287 
L 743.170652 639.397534 
L 750.029327 639.179196 
L 756.888002 641.160327 
L 777.464028 642.512659 
L 784.322703 638.028202 
L 791.181379 639.66194 
L 798.040054 642.567162 
L 804.898729 632.919228 
L 825.474755 638.413748 
L 832.33343 638.477984 
L 839.192105 639.892346 
L 846.050781 638.477984 
L 852.909456 641.580587 
L 873.485482 632.480022 
L 880.344157 635.267738 
L 887.202832 641.732223 
L 894.061507 641.419997 
L 900.920183 642.349279 
L 921.496208 641.094923 
L 928.354884 640.815918 
L 935.213559 641.490008 
L 942.072234 642.589872 
L 948.930909 641.634247 
L 969.506935 642.876014 
L 976.36561 643.127119 
L 983.224286 642.858496 
L 990.082961 643.150478 
L 996.941636 639.546769 
L 1017.517662 640.245255 
L 1024.376337 643.271164 
L 1031.235012 617.374292 
L 1038.093688 638.927248 
L 1044.952363 642.312684 
L 1065.528389 642.667734 
L 1072.387064 643.822686 
L 1079.245739 643.75235 
L 1086.104414 643.477887 
L 1092.96309 643.243588 
L 1113.539115 643.127638 
L 1120.397791 643.657229 
L 1127.256466 643.781743 
L 1140.973816 643.10947 
L 1161.549842 641.43784 
L 1168.408517 640.13268 
L 1175.267193 639.859839 
L 1188.984543 641.986442 
L 1209.560569 642.69531 
L 1216.419244 637.34996 
L 1223.277919 642.14009 
L 1230.136595 642.704329 
L 1236.99527 642.732619 
L 1257.571296 643.559253 
L 1264.429971 643.095974 
" clip-path="url(#pfff412fb55)" style="fill: none; stroke: #ff0000; stroke-width: 2.5; stroke-linecap: square"/>
   </g>
  </g>
 </g>
 <defs>
  <clipPath id="pfff412fb55">
   <rect x="48.90125" y="96.234469" width="1278.8" height="547.990503"/>
  </clipPath>
 </defs>
</svg>
