<?xml version="1.0" encoding="utf-8" standalone="no"?>
<!DOCTYPE svg PUBLIC "-//W3C//DTD SVG 1.1//EN"
  "http://www.w3.org/Graphics/SVG/1.1/DTD/svg11.dtd">
<svg xmlns:xlink="http://www.w3.org/1999/xlink" width="1430.24pt" height="710.4271pt" viewBox="0 0 1430.24 710.4271" xmlns="http://www.w3.org/2000/svg" version="1.1">
 <metadata>
  <rdf:RDF xmlns:dc="http://purl.org/dc/elements/1.1/" xmlns:cc="http://creativecommons.org/ns#" xmlns:rdf="http://www.w3.org/1999/02/22-rdf-syntax-ns#">
   <cc:Work>
    <dc:type rdf:resource="http://purl.org/dc/dcmitype/StillImage"/>
    <dc:date>2026-01-13T11:57:36.121594</dc:date>
    <dc:format>image/svg+xml</dc:format>
    <dc:creator>
     <cc:Agent>
      <dc:title>Matplotlib v3.9.4, https://matplotlib.org/</dc:title>
     </cc:Agent>
    </dc:creator>
   </cc:Work>
  </rdf:RDF>
 </metadata>
 <defs>
  <style type="text/css">*{stroke-linejoin: round; stroke-linecap: butt}</style>
 </defs>
 <g id="figure_1">
  <g id="patch_1">
   <path d="M 0 710.4271 
L 1430.24 710.4271 
L 1430.24 0 
L 0 0 
z
" style="fill: #ffffff"/>
  </g>
  <g id="axes_1">
   <g id="patch_2">
    <path d="M 48.90125 644.224972 
L 1327.70125 644.224972 
L 1327.70125 96.234469 
L 48.90125 96.234469 
z
" style="fill: #ffffff"/>
   </g>
   <g id="matplotlib.axis_1">
    <g id="xtick_1">
     <g id="line2d_1">
      <defs>
       <path id="m9fcd2ffabc" d="M 0 0 
L 0 3.5 
" style="stroke: #000000; stroke-width: 0.8"/>
      </defs>
      <g>
       <use xlink:href="#m9fcd2ffabc" x="132.901196" y="644.224972" style="stroke: #000000; stroke-width: 0.8"/>
      </g>
     </g>
     <g id="text_1">
      <!-- 2025-08 -->
      <g transform="translate(101.885725 686.142789) rotate(-45) scale(0.1 -0.1)">
       <defs>
        <path id="DejaVuSans-32" d="M 1228 531 
L 3431 531 
L 3431 0 
L 469 0 
L 469 531 
Q 828 903 1448 1529 
Q 2069 2156 2228 2338 
Q 2531 2678 2651 2914 
Q 2772 3150 2772 3378 
Q 2772 3750 2511 3984 
Q 2250 4219 1831 4219 
Q 1534 4219 1204 4116 
Q 875 4013 500 3803 
L 500 4441 
Q 881 4594 1212 4672 
Q 1544 4750 1819 4750 
Q 2544 4750 2975 4387 
Q 3406 4025 3406 3419 
Q 3406 3131 3298 2873 
Q 3191 2616 2906 2266 
Q 2828 2175 2409 1742 
Q 1991 1309 1228 531 
z
" transform="scale(0.015625)"/>
        <path id="DejaVuSans-30" d="M 2034 4250 
Q 1547 4250 1301 3770 
Q 1056 3291 1056 2328 
Q 1056 1369 1301 889 
Q 1547 409 2034 409 
Q 2525 409 2770 889 
Q 3016 1369 3016 2328 
Q 3016 3291 2770 3770 
Q 2525 4250 2034 4250 
z
M 2034 4750 
Q 2819 4750 3233 4129 
Q 3647 3509 3647 2328 
Q 3647 1150 3233 529 
Q 2819 -91 2034 -91 
Q 1250 -91 836 529 
Q 422 1150 422 2328 
Q 422 3509 836 4129 
Q 1250 4750 2034 4750 
z
" transform="scale(0.015625)"/>
        <path id="DejaVuSans-35" d="M 691 4666 
L 3169 4666 
L 3169 4134 
L 1269 4134 
L 1269 2991 
Q 1406 3038 1543 3061 
Q 1681 3084 1819 3084 
Q 2600 3084 3056 2656 
Q 3513 2228 3513 1497 
Q 3513 744 3044 326 
Q 2575 -91 1722 -91 
Q 1428 -91 1123 -41 
Q 819 9 494 109 
L 494 744 
Q 775 591 1075 516 
Q 1375 441 1709 441 
Q 2250 441 2565 725 
Q 2881 1009 2881 1497 
Q 2881 1984 2565 2268 
Q 2250 2553 1709 2553 
Q 1456 2553 1204 2497 
Q 953 2441 691 2322 
L 691 4666 
z
" transform="scale(0.015625)"/>
        <path id="DejaVuSans-2d" d="M 313 2009 
L 1997 2009 
L 1997 1497 
L 313 1497 
L 313 2009 
z
" transform="scale(0.015625)"/>
        <path id="DejaVuSans-38" d="M 2034 2216 
Q 1584 2216 1326 1975 
Q 1069 1734 1069 1313 
Q 1069 891 1326 650 
Q 1584 409 2034 409 
Q 2484 409 2743 651 
Q 3003 894 3003 1313 
Q 3003 1734 2745 1975 
Q 2488 2216 2034 2216 
z
M 1403 2484 
Q 997 2584 770 2862 
Q 544 3141 544 3541 
Q 544 4100 942 4425 
Q 1341 4750 2034 4750 
Q 2731 4750 3128 4425 
Q 3525 4100 3525 3541 
Q 3525 3141 3298 2862 
Q 3072 2584 2669 2484 
Q 3125 2378 3379 2068 
Q 3634 1759 3634 1313 
Q 3634 634 3220 271 
Q 2806 -91 2034 -91 
Q 1263 -91 848 271 
Q 434 634 434 1313 
Q 434 1759 690 2068 
Q 947 2378 1403 2484 
z
M 1172 3481 
Q 1172 3119 1398 2916 
Q 1625 2713 2034 2713 
Q 2441 2713 2670 2916 
Q 2900 3119 2900 3481 
Q 2900 3844 2670 4047 
Q 2441 4250 2034 4250 
Q 1625 4250 1398 4047 
Q 1172 3844 1172 3481 
z
" transform="scale(0.015625)"/>
       </defs>
       <use xlink:href="#DejaVuSans-32"/>
       <use xlink:href="#DejaVuSans-30" x="63.623047"/>
       <use xlink:href="#DejaVuSans-32" x="127.246094"/>
       <use xlink:href="#DejaVuSans-35" x="190.869141"/>
       <use xlink:href="#DejaVuSans-2d" x="254.492188"/>
       <use xlink:href="#DejaVuSans-30" x="290.576172"/>
       <use xlink:href="#DejaVuSans-38" x="354.199219"/>
      </g>
     </g>
    </g>
    <g id="xtick_2">
     <g id="line2d_2">
      <g>
       <use xlink:href="#m9fcd2ffabc" x="346.781962" y="644.224972" style="stroke: #000000; stroke-width: 0.8"/>
      </g>
     </g>
     <g id="text_2">
      <!-- 2025-09 -->
      <g transform="translate(315.766491 686.142789) rotate(-45) scale(0.1 -0.1)">
       <defs>
        <path id="DejaVuSans-39" d="M 703 97 
L 703 672 
Q 941 559 1184 500 
Q 1428 441 1663 441 
Q 2288 441 2617 861 
Q 2947 1281 2994 2138 
Q 2813 1869 2534 1725 
Q 2256 1581 1919 1581 
Q 1219 1581 811 2004 
Q 403 2428 403 3163 
Q 403 3881 828 4315 
Q 1253 4750 1959 4750 
Q 2769 4750 3195 4129 
Q 3622 3509 3622 2328 
Q 3622 1225 3098 567 
Q 2575 -91 1691 -91 
Q 1453 -91 1209 -44 
Q 966 3 703 97 
z
M 1959 2075 
Q 2384 2075 2632 2365 
Q 2881 2656 2881 3163 
Q 2881 3666 2632 3958 
Q 2384 4250 1959 4250 
Q 1534 4250 1286 3958 
Q 1038 3666 1038 3163 
Q 1038 2656 1286 2365 
Q 1534 2075 1959 2075 
z
" transform="scale(0.015625)"/>
       </defs>
       <use xlink:href="#DejaVuSans-32"/>
       <use xlink:href="#DejaVuSans-30" x="63.623047"/>
       <use xlink:href="#DejaVuSans-32" x="127.246094"/>
       <use xlink:href="#DejaVuSans-35" x="190.869141"/>
       <use xlink:href="#DejaVuSans-2d" x="254.492188"/>
       <use xlink:href="#DejaVuSans-30" x="290.576172"/>
       <use xlink:href="#DejaVuSans-39" x="354.199219"/>
      </g>
     </g>
    </g>
    <g id="xtick_3">
     <g id="line2d_3">
      <g>
       <use xlink:href="#m9fcd2ffabc" x="553.763349" y="644.224972" style="stroke: #000000; stroke-width: 0.8"/>
      </g>
     </g>
     <g id="text_3">
      <!-- 2025-10 -->
      <g transform="translate(522.747878 686.142789) rotate(-45) scale(0.1 -0.1)">
       <defs>
        <path id="DejaVuSans-31" d="M 794 531 
L 1825 531 
L 1825 4091 
L 703 3866 
L 703 4441 
L 1819 4666 
L 2450 4666 
L 2450 531 
L 3481 531 
L 3481 0 
L 794 0 
L 794 531 
z
" transform="scale(0.015625)"/>
       </defs>
       <use xlink:href="#DejaVuSans-32"/>
       <use xlink:href="#DejaVuSans-30" x="63.623047"/>
       <use xlink:href="#DejaVuSans-32" x="127.246094"/>
       <use xlink:href="#DejaVuSans-35" x="190.869141"/>
       <use xlink:href="#DejaVuSans-2d" x="254.492188"/>
       <use xlink:href="#DejaVuSans-31" x="290.576172"/>
       <use xlink:href="#DejaVuSans-30" x="354.199219"/>
      </g>
     </g>
    </g>
    <g id="xtick_4">
     <g id="line2d_4">
      <g>
       <use xlink:href="#m9fcd2ffabc" x="767.644115" y="644.224972" style="stroke: #000000; stroke-width: 0.8"/>
      </g>
     </g>
     <g id="text_4">
      <!-- 2025-11 -->
      <g transform="translate(736.628644 686.142789) rotate(-45) scale(0.1 -0.1)">
       <use xlink:href="#DejaVuSans-32"/>
       <use xlink:href="#DejaVuSans-30" x="63.623047"/>
       <use xlink:href="#DejaVuSans-32" x="127.246094"/>
       <use xlink:href="#DejaVuSans-35" x="190.869141"/>
       <use xlink:href="#DejaVuSans-2d" x="254.492188"/>
       <use xlink:href="#DejaVuSans-31" x="290.576172"/>
       <use xlink:href="#DejaVuSans-31" x="354.199219"/>
      </g>
     </g>
    </g>
    <g id="xtick_5">
     <g id="line2d_5">
      <g>
       <use xlink:href="#m9fcd2ffabc" x="974.625501" y="644.224972" style="stroke: #000000; stroke-width: 0.8"/>
      </g>
     </g>
     <g id="text_5">
      <!-- 2025-12 -->
      <g transform="translate(943.61003 686.142789) rotate(-45) scale(0.1 -0.1)">
       <use xlink:href="#DejaVuSans-32"/>
       <use xlink:href="#DejaVuSans-30" x="63.623047"/>
       <use xlink:href="#DejaVuSans-32" x="127.246094"/>
       <use xlink:href="#DejaVuSans-35" x="190.869141"/>
       <use xlink:href="#DejaVuSans-2d" x="254.492188"/>
       <use xlink:href="#DejaVuSans-31" x="290.576172"/>
       <use xlink:href="#DejaVuSans-32" x="354.199219"/>
      </g>
     </g>
    </g>
    <g id="xtick_6">
     <g id="line2d_6">
      <g>
       <use xlink:href="#m9fcd2ffabc" x="1188.506268" y="644.224972" style="stroke: #000000; stroke-width: 0.8"/>
      </g>
     </g>
     <g id="text_6">
      <!-- 2026-01 -->
      <g transform="translate(1157.490796 686.142789) rotate(-45) scale(0.1 -0.1)">
       <defs>
        <path id="DejaVuSans-36" d="M 2113 2584 
Q 1688 2584 1439 2293 
Q 1191 2003 1191 1497 
Q 1191 994 1439 701 
Q 1688 409 2113 409 
Q 2538 409 2786 701 
Q 3034 994 3034 1497 
Q 3034 2003 2786 2293 
Q 2538 2584 2113 2584 
z
M 3366 4563 
L 3366 3988 
Q 3128 4100 2886 4159 
Q 2644 4219 2406 4219 
Q 1781 4219 1451 3797 
Q 1122 3375 1075 2522 
Q 1259 2794 1537 2939 
Q 1816 3084 2150 3084 
Q 2853 3084 3261 2657 
Q 3669 2231 3669 1497 
Q 3669 778 3244 343 
Q 2819 -91 2113 -91 
Q 1303 -91 875 529 
Q 447 1150 447 2328 
Q 447 3434 972 4092 
Q 1497 4750 2381 4750 
Q 2619 4750 2861 4703 
Q 3103 4656 3366 4563 
z
" transform="scale(0.015625)"/>
       </defs>
       <use xlink:href="#DejaVuSans-32"/>
       <use xlink:href="#DejaVuSans-30" x="63.623047"/>
       <use xlink:href="#DejaVuSans-32" x="127.246094"/>
       <use xlink:href="#DejaVuSans-36" x="190.869141"/>
       <use xlink:href="#DejaVuSans-2d" x="254.492188"/>
       <use xlink:href="#DejaVuSans-30" x="290.576172"/>
       <use xlink:href="#DejaVuSans-31" x="354.199219"/>
      </g>
     </g>
    </g>
    <g id="text_7">
     <!-- 日期 -->
     <g transform="translate(681.099375 700.731475) scale(0.12 -0.12)">
      <defs>
       <path id="DejaVuSans-Bold-65e5" d="M 319 -1131 
L 319 4513 
L 3519 4513 
L 3519 -1131 
L 319 -1131 
z
M 678 -775 
L 3163 -775 
L 3163 4153 
L 678 4153 
L 678 -775 
z
" transform="scale(0.015625)"/>
       <path id="DejaVuSans-Bold-671f" d="M 319 -1131 
L 319 4513 
L 3519 4513 
L 3519 -1131 
L 319 -1131 
z
M 678 -775 
L 3163 -775 
L 3163 4153 
L 678 4153 
L 678 -775 
z
" transform="scale(0.015625)"/>
      </defs>
      <use xlink:href="#DejaVuSans-Bold-65e5"/>
      <use xlink:href="#DejaVuSans-Bold-671f" x="60.009766"/>
     </g>
    </g>
   </g>
   <g id="matplotlib.axis_2">
    <g id="ytick_1">
     <g id="line2d_7">
      <path d="M 48.90125 593.156534 
L 1327.70125 593.156534 
" clip-path="url(#p10bfc41839)" style="fill: none; stroke-dasharray: 2.96,1.28; stroke-dashoffset: 0; stroke: #b0b0b0; stroke-opacity: 0.3; stroke-width: 0.8"/>
     </g>
     <g id="line2d_8">
      <defs>
       <path id="m619328dd36" d="M 0 0 
L -3.5 0 
" style="stroke: #000000; stroke-width: 0.8"/>
      </defs>
      <g>
       <use xlink:href="#m619328dd36" x="48.90125" y="593.156534" style="stroke: #000000; stroke-width: 0.8"/>
      </g>
     </g>
     <g id="text_8">
      <!-- 60 -->
      <g transform="translate(29.17625 596.955752) scale(0.1 -0.1)">
       <use xlink:href="#DejaVuSans-36"/>
       <use xlink:href="#DejaVuSans-30" x="63.623047"/>
      </g>
     </g>
    </g>
    <g id="ytick_2">
     <g id="line2d_9">
      <path d="M 48.90125 479.418364 
L 1327.70125 479.418364 
" clip-path="url(#p10bfc41839)" style="fill: none; stroke-dasharray: 2.96,1.28; stroke-dashoffset: 0; stroke: #b0b0b0; stroke-opacity: 0.3; stroke-width: 0.8"/>
     </g>
     <g id="line2d_10">
      <g>
       <use xlink:href="#m619328dd36" x="48.90125" y="479.418364" style="stroke: #000000; stroke-width: 0.8"/>
      </g>
     </g>
     <g id="text_9">
      <!-- 80 -->
      <g transform="translate(29.17625 483.217582) scale(0.1 -0.1)">
       <use xlink:href="#DejaVuSans-38"/>
       <use xlink:href="#DejaVuSans-30" x="63.623047"/>
      </g>
     </g>
    </g>
    <g id="ytick_3">
     <g id="line2d_11">
      <path d="M 48.90125 365.680194 
L 1327.70125 365.680194 
" clip-path="url(#p10bfc41839)" style="fill: none; stroke-dasharray: 2.96,1.28; stroke-dashoffset: 0; stroke: #b0b0b0; stroke-opacity: 0.3; stroke-width: 0.8"/>
     </g>
     <g id="line2d_12">
      <g>
       <use xlink:href="#m619328dd36" x="48.90125" y="365.680194" style="stroke: #000000; stroke-width: 0.8"/>
      </g>
     </g>
     <g id="text_10">
      <!-- 100 -->
      <g transform="translate(22.81375 369.479412) scale(0.1 -0.1)">
       <use xlink:href="#DejaVuSans-31"/>
       <use xlink:href="#DejaVuSans-30" x="63.623047"/>
       <use xlink:href="#DejaVuSans-30" x="127.246094"/>
      </g>
     </g>
    </g>
    <g id="ytick_4">
     <g id="line2d_13">
      <path d="M 48.90125 251.942024 
L 1327.70125 251.942024 
" clip-path="url(#p10bfc41839)" style="fill: none; stroke-dasharray: 2.96,1.28; stroke-dashoffset: 0; stroke: #b0b0b0; stroke-opacity: 0.3; stroke-width: 0.8"/>
     </g>
     <g id="line2d_14">
      <g>
       <use xlink:href="#m619328dd36" x="48.90125" y="251.942024" style="stroke: #000000; stroke-width: 0.8"/>
      </g>
     </g>
     <g id="text_11">
      <!-- 120 -->
      <g transform="translate(22.81375 255.741242) scale(0.1 -0.1)">
       <use xlink:href="#DejaVuSans-31"/>
       <use xlink:href="#DejaVuSans-32" x="63.623047"/>
       <use xlink:href="#DejaVuSans-30" x="127.246094"/>
      </g>
     </g>
    </g>
    <g id="ytick_5">
     <g id="line2d_15">
      <path d="M 48.90125 138.203853 
L 1327.70125 138.203853 
" clip-path="url(#p10bfc41839)" style="fill: none; stroke-dasharray: 2.96,1.28; stroke-dashoffset: 0; stroke: #b0b0b0; stroke-opacity: 0.3; stroke-width: 0.8"/>
     </g>
     <g id="line2d_16">
      <g>
       <use xlink:href="#m619328dd36" x="48.90125" y="138.203853" style="stroke: #000000; stroke-width: 0.8"/>
      </g>
     </g>
     <g id="text_12">
      <!-- 140 -->
      <g transform="translate(22.81375 142.003072) scale(0.1 -0.1)">
       <defs>
        <path id="DejaVuSans-34" d="M 2419 4116 
L 825 1625 
L 2419 1625 
L 2419 4116 
z
M 2253 4666 
L 3047 4666 
L 3047 1625 
L 3713 1625 
L 3713 1100 
L 3047 1100 
L 3047 0 
L 2419 0 
L 2419 1100 
L 313 1100 
L 313 1709 
L 2253 4666 
z
" transform="scale(0.015625)"/>
       </defs>
       <use xlink:href="#DejaVuSans-31"/>
       <use xlink:href="#DejaVuSans-34" x="63.623047"/>
       <use xlink:href="#DejaVuSans-30" x="127.246094"/>
      </g>
     </g>
    </g>
    <g id="text_13">
     <!-- 收盤價 (元) -->
     <g transform="translate(16.318125 392.206595) rotate(-90) scale(0.12 -0.12)">
      <defs>
       <path id="DejaVuSans-Bold-6536" d="M 319 -1131 
L 319 4513 
L 3519 4513 
L 3519 -1131 
L 319 -1131 
z
M 678 -775 
L 3163 -775 
L 3163 4153 
L 678 4153 
L 678 -775 
z
" transform="scale(0.015625)"/>
       <path id="DejaVuSans-Bold-76e4" d="M 319 -1131 
L 319 4513 
L 3519 4513 
L 3519 -1131 
L 319 -1131 
z
M 678 -775 
L 3163 -775 
L 3163 4153 
L 678 4153 
L 678 -775 
z
" transform="scale(0.015625)"/>
       <path id="DejaVuSans-Bold-50f9" d="M 319 -1131 
L 319 4513 
L 3519 4513 
L 3519 -1131 
L 319 -1131 
z
M 678 -775 
L 3163 -775 
L 3163 4153 
L 678 4153 
L 678 -775 
z
" transform="scale(0.015625)"/>
       <path id="DejaVuSans-Bold-20" transform="scale(0.015625)"/>
       <path id="DejaVuSans-Bold-28" d="M 2413 -844 
L 1484 -844 
Q 1006 -72 778 623 
Q 550 1319 550 2003 
Q 550 2688 779 3389 
Q 1009 4091 1484 4856 
L 2413 4856 
Q 2013 4116 1813 3408 
Q 1613 2700 1613 2009 
Q 1613 1319 1811 609 
Q 2009 -100 2413 -844 
z
" transform="scale(0.015625)"/>
       <path id="DejaVuSans-Bold-5143" d="M 319 -1131 
L 319 4513 
L 3519 4513 
L 3519 -1131 
L 319 -1131 
z
M 678 -775 
L 3163 -775 
L 3163 4153 
L 678 4153 
L 678 -775 
z
" transform="scale(0.015625)"/>
       <path id="DejaVuSans-Bold-29" d="M 513 -844 
Q 913 -100 1113 609 
Q 1313 1319 1313 2009 
Q 1313 2700 1113 3408 
Q 913 4116 513 4856 
L 1441 4856 
Q 1916 4091 2145 3389 
Q 2375 2688 2375 2003 
Q 2375 1319 2147 623 
Q 1919 -72 1441 -844 
L 513 -844 
z
" transform="scale(0.015625)"/>
      </defs>
      <use xlink:href="#DejaVuSans-Bold-6536"/>
      <use xlink:href="#DejaVuSans-Bold-76e4" x="60.009766"/>
      <use xlink:href="#DejaVuSans-Bold-50f9" x="120.019531"/>
      <use xlink:href="#DejaVuSans-Bold-20" x="180.029297"/>
      <use xlink:href="#DejaVuSans-Bold-28" x="214.84375"/>
      <use xlink:href="#DejaVuSans-Bold-5143" x="260.546875"/>
      <use xlink:href="#DejaVuSans-Bold-29" x="320.556641"/>
     </g>
    </g>
   </g>
   <g id="patch_3">
    <path d="M 48.90125 644.224972 
L 48.90125 96.234469 
" style="fill: none; stroke: #000000; stroke-width: 0.8; stroke-linejoin: miter; stroke-linecap: square"/>
   </g>
   <g id="patch_4">
    <path d="M 1327.70125 644.224972 
L 1327.70125 96.234469 
" style="fill: none; stroke: #000000; stroke-width: 0.8; stroke-linejoin: miter; stroke-linecap: square"/>
   </g>
   <g id="patch_5">
    <path d="M 48.90125 644.224972 
L 1327.70125 644.224972 
" style="fill: none; stroke: #000000; stroke-width: 0.8; stroke-linejoin: miter; stroke-linecap: square"/>
   </g>
   <g id="patch_6">
    <path d="M 48.90125 96.234469 
L 1327.70125 96.234469 
" style="fill: none; stroke: #000000; stroke-width: 0.8; stroke-linejoin: miter; stroke-linecap: square"/>
   </g>
   <g id="legend_1">
    <g id="patch_7">
     <path d="M 55.90125 148.268844 
L 150.26375 148.268844 
Q 152.26375 148.268844 152.26375 146.268844 
L 152.26375 103.234469 
Q 152.26375 101.234469 150.26375 101.234469 
L 55.90125 101.234469 
Q 53.90125 101.234469 53.90125 103.234469 
L 53.90125 146.268844 
Q 53.90125 148.268844 55.90125 148.268844 
z
" style="fill: #ffffff; opacity: 0.8; stroke: #cccccc; stroke-linejoin: miter"/>
    </g>
    <g id="line2d_17">
     <path d="M 57.90125 109.332906 
L 67.90125 109.332906 
L 77.90125 109.332906 
" style="fill: none; stroke: #000000; stroke-width: 2.5; stroke-linecap: square"/>
    </g>
    <g id="text_14">
     <!-- 碩網 收盤價 (長期) -->
     <g transform="translate(85.90125 112.832906) scale(0.1 -0.1)">
      <defs>
       <path id="DejaVuSans-78a9" d="M 319 -1131 
L 319 4513 
L 3519 4513 
L 3519 -1131 
L 319 -1131 
z
M 678 -775 
L 3163 -775 
L 3163 4153 
L 678 4153 
L 678 -775 
z
" transform="scale(0.015625)"/>
       <path id="DejaVuSans-7db2" d="M 319 -1131 
L 319 4513 
L 3519 4513 
L 3519 -1131 
L 319 -1131 
z
M 678 -775 
L 3163 -775 
L 3163 4153 
L 678 4153 
L 678 -775 
z
" transform="scale(0.015625)"/>
       <path id="DejaVuSans-20" transform="scale(0.015625)"/>
       <path id="DejaVuSans-6536" d="M 319 -1131 
L 319 4513 
L 3519 4513 
L 3519 -1131 
L 319 -1131 
z
M 678 -775 
L 3163 -775 
L 3163 4153 
L 678 4153 
L 678 -775 
z
" transform="scale(0.015625)"/>
       <path id="DejaVuSans-76e4" d="M 319 -1131 
L 319 4513 
L 3519 4513 
L 3519 -1131 
L 319 -1131 
z
M 678 -775 
L 3163 -775 
L 3163 4153 
L 678 4153 
L 678 -775 
z
" transform="scale(0.015625)"/>
       <path id="DejaVuSans-50f9" d="M 319 -1131 
L 319 4513 
L 3519 4513 
L 3519 -1131 
L 319 -1131 
z
M 678 -775 
L 3163 -775 
L 3163 4153 
L 678 4153 
L 678 -775 
z
" transform="scale(0.015625)"/>
       <path id="DejaVuSans-28" d="M 1984 4856 
Q 1566 4138 1362 3434 
Q 1159 2731 1159 2009 
Q 1159 1288 1364 580 
Q 1569 -128 1984 -844 
L 1484 -844 
Q 1016 -109 783 600 
Q 550 1309 550 2009 
Q 550 2706 781 3412 
Q 1013 4119 1484 4856 
L 1984 4856 
z
" transform="scale(0.015625)"/>
       <path id="DejaVuSans-9577" d="M 319 -1131 
L 319 4513 
L 3519 4513 
L 3519 -1131 
L 319 -1131 
z
M 678 -775 
L 3163 -775 
L 3163 4153 
L 678 4153 
L 678 -775 
z
" transform="scale(0.015625)"/>
       <path id="DejaVuSans-671f" d="M 319 -1131 
L 319 4513 
L 3519 4513 
L 3519 -1131 
L 319 -1131 
z
M 678 -775 
L 3163 -775 
L 3163 4153 
L 678 4153 
L 678 -775 
z
" transform="scale(0.015625)"/>
       <path id="DejaVuSans-29" d="M 513 4856 
L 1013 4856 
Q 1481 4119 1714 3412 
Q 1947 2706 1947 2009 
Q 1947 1309 1714 600 
Q 1481 -109 1013 -844 
L 513 -844 
Q 928 -128 1133 580 
Q 1338 1288 1338 2009 
Q 1338 2731 1133 3434 
Q 928 4138 513 4856 
z
" transform="scale(0.015625)"/>
      </defs>
      <use xlink:href="#DejaVuSans-78a9"/>
      <use xlink:href="#DejaVuSans-7db2" x="60.009766"/>
      <use xlink:href="#DejaVuSans-20" x="120.019531"/>
      <use xlink:href="#DejaVuSans-6536" x="151.806641"/>
      <use xlink:href="#DejaVuSans-76e4" x="211.816406"/>
      <use xlink:href="#DejaVuSans-50f9" x="271.826172"/>
      <use xlink:href="#DejaVuSans-20" x="331.835938"/>
      <use xlink:href="#DejaVuSans-28" x="363.623047"/>
      <use xlink:href="#DejaVuSans-9577" x="402.636719"/>
      <use xlink:href="#DejaVuSans-671f" x="462.646484"/>
      <use xlink:href="#DejaVuSans-29" x="522.65625"/>
     </g>
    </g>
    <g id="patch_8">
     <path d="M 57.90125 127.511031 
L 77.90125 127.511031 
L 77.90125 120.511031 
L 57.90125 120.511031 
z
" style="fill: #ffd700; opacity: 0.85"/>
    </g>
    <g id="text_15">
     <!-- 碩網 融資餘額 (日) -->
     <g transform="translate(85.90125 127.511031) scale(0.1 -0.1)">
      <defs>
       <path id="DejaVuSans-878d" d="M 319 -1131 
L 319 4513 
L 3519 4513 
L 3519 -1131 
L 319 -1131 
z
M 678 -775 
L 3163 -775 
L 3163 4153 
L 678 4153 
L 678 -775 
z
" transform="scale(0.015625)"/>
       <path id="DejaVuSans-8cc7" d="M 319 -1131 
L 319 4513 
L 3519 4513 
L 3519 -1131 
L 319 -1131 
z
M 678 -775 
L 3163 -775 
L 3163 4153 
L 678 4153 
L 678 -775 
z
" transform="scale(0.015625)"/>
       <path id="DejaVuSans-9918" d="M 319 -1131 
L 319 4513 
L 3519 4513 
L 3519 -1131 
L 319 -1131 
z
M 678 -775 
L 3163 -775 
L 3163 4153 
L 678 4153 
L 678 -775 
z
" transform="scale(0.015625)"/>
       <path id="DejaVuSans-984d" d="M 319 -1131 
L 319 4513 
L 3519 4513 
L 3519 -1131 
L 319 -1131 
z
M 678 -775 
L 3163 -775 
L 3163 4153 
L 678 4153 
L 678 -775 
z
" transform="scale(0.015625)"/>
       <path id="DejaVuSans-65e5" d="M 319 -1131 
L 319 4513 
L 3519 4513 
L 3519 -1131 
L 319 -1131 
z
M 678 -775 
L 3163 -775 
L 3163 4153 
L 678 4153 
L 678 -775 
z
" transform="scale(0.015625)"/>
      </defs>
      <use xlink:href="#DejaVuSans-78a9"/>
      <use xlink:href="#DejaVuSans-7db2" x="60.009766"/>
      <use xlink:href="#DejaVuSans-20" x="120.019531"/>
      <use xlink:href="#DejaVuSans-878d" x="151.806641"/>
      <use xlink:href="#DejaVuSans-8cc7" x="211.816406"/>
      <use xlink:href="#DejaVuSans-9918" x="271.826172"/>
      <use xlink:href="#DejaVuSans-984d" x="331.835938"/>
      <use xlink:href="#DejaVuSans-20" x="391.845703"/>
      <use xlink:href="#DejaVuSans-28" x="423.632812"/>
      <use xlink:href="#DejaVuSans-65e5" x="462.646484"/>
      <use xlink:href="#DejaVuSans-29" x="522.65625"/>
     </g>
    </g>
    <g id="line2d_18">
     <path d="M 57.90125 138.689156 
L 67.90125 138.689156 
L 77.90125 138.689156 
" style="fill: none; stroke: #ff0000; stroke-width: 2.5; stroke-linecap: square"/>
    </g>
    <g id="text_16">
     <!-- 融資餘額/市值 (長期) -->
     <g transform="translate(85.90125 142.189156) scale(0.1 -0.1)">
      <defs>
       <path id="DejaVuSans-2f" d="M 1625 4666 
L 2156 4666 
L 531 -594 
L 0 -594 
L 1625 4666 
z
" transform="scale(0.015625)"/>
       <path id="DejaVuSans-5e02" d="M 319 -1131 
L 319 4513 
L 3519 4513 
L 3519 -1131 
L 319 -1131 
z
M 678 -775 
L 3163 -775 
L 3163 4153 
L 678 4153 
L 678 -775 
z
" transform="scale(0.015625)"/>
       <path id="DejaVuSans-503c" d="M 319 -1131 
L 319 4513 
L 3519 4513 
L 3519 -1131 
L 319 -1131 
z
M 678 -775 
L 3163 -775 
L 3163 4153 
L 678 4153 
L 678 -775 
z
" transform="scale(0.015625)"/>
      </defs>
      <use xlink:href="#DejaVuSans-878d"/>
      <use xlink:href="#DejaVuSans-8cc7" x="60.009766"/>
      <use xlink:href="#DejaVuSans-9918" x="120.019531"/>
      <use xlink:href="#DejaVuSans-984d" x="180.029297"/>
      <use xlink:href="#DejaVuSans-2f" x="240.039062"/>
      <use xlink:href="#DejaVuSans-5e02" x="273.730469"/>
      <use xlink:href="#DejaVuSans-503c" x="333.740234"/>
      <use xlink:href="#DejaVuSans-20" x="393.75"/>
      <use xlink:href="#DejaVuSans-28" x="425.537109"/>
      <use xlink:href="#DejaVuSans-9577" x="464.550781"/>
      <use xlink:href="#DejaVuSans-671f" x="524.560547"/>
      <use xlink:href="#DejaVuSans-29" x="584.570312"/>
     </g>
    </g>
   </g>
   <g id="line2d_19">
    <path d="M 112.203057 305.967654 
L 119.102437 291.750383 
L 126.001816 323.02838 
L 132.901196 337.245651 
L 153.599335 323.02838 
L 160.498714 286.063475 
L 167.398094 178.012213 
L 174.297473 121.143128 
L 181.196853 126.830036 
L 201.894992 149.577671 
L 208.794371 220.664027 
L 215.693751 160.951488 
L 222.59313 166.638396 
L 229.49251 186.542576 
L 250.190648 229.19439 
L 257.090028 254.785478 
L 263.989408 246.255115 
L 270.888787 274.689658 
L 277.788167 263.315841 
L 298.486305 246.255115 
L 305.385685 246.255115 
L 312.285064 257.628932 
L 319.184444 263.315841 
L 326.083824 274.689658 
L 346.781962 291.750383 
L 353.681342 369.66103 
L 360.580721 365.680194 
L 367.480101 354.306377 
L 374.37948 362.836739 
L 395.077619 365.680194 
L 401.976999 365.680194 
L 408.876378 372.504484 
L 415.775758 297.437292 
L 422.675137 348.619468 
L 443.373276 370.798411 
L 450.272655 373.641865 
L 457.172035 372.504484 
L 464.071415 382.740919 
L 470.970794 379.897465 
L 491.668933 379.897465 
L 498.568312 380.466156 
L 505.467692 388.427828 
L 512.367071 407.763317 
L 519.266451 407.194626 
L 546.863969 423.117969 
L 553.763349 420.843206 
L 560.662728 425.961424 
L 567.562108 443.022149 
L 595.159626 456.67073 
L 602.059006 454.964657 
L 608.958385 448.140367 
L 636.555903 457.808111 
L 643.455283 478.849673 
L 650.354662 495.341707 
L 657.254042 493.635635 
L 664.153422 491.929562 
L 684.85156 485.105272 
L 691.75094 487.948726 
L 698.650319 477.1436 
L 705.549699 468.044547 
L 733.147217 479.418364 
L 740.046597 489.086108 
L 746.945976 493.635635 
L 753.845356 505.009452 
L 760.744735 514.677196 
L 781.442874 505.578143 
L 788.342254 506.715524 
L 795.241633 522.070177 
L 802.141013 519.226723 
L 809.040392 523.207559 
L 829.738531 502.734689 
L 836.63791 521.501487 
L 843.53729 526.051013 
L 850.436669 518.089341 
L 857.336049 512.971124 
L 878.034188 498.185162 
L 884.933567 525.482323 
L 891.832947 551.073411 
L 898.732326 561.878537 
L 905.631706 560.741155 
L 926.329845 553.348174 
L 933.229224 530.60054 
L 940.128604 541.405666 
L 947.027983 536.287449 
L 953.927363 528.894468 
L 974.625501 540.268285 
L 981.524881 533.443994 
L 988.424261 535.150067 
L 995.32364 524.913632 
L 1002.22302 536.287449 
L 1022.921158 533.443994 
L 1029.820538 536.287449 
L 1036.719917 559.035083 
L 1043.619297 565.859373 
L 1050.518676 585.194862 
L 1071.216815 593.156534 
L 1078.116195 581.782717 
L 1085.015574 589.175698 
L 1091.914954 589.744389 
L 1098.814333 590.313079 
L 1119.512472 590.88177 
L 1126.411852 578.939262 
L 1133.311231 581.214026 
L 1147.10999 585.194862 
L 1167.808129 590.313079 
L 1174.707508 595.999988 
L 1181.606888 607.373805 
L 1195.405647 607.373805 
L 1216.103786 607.373805 
L 1223.003165 605.099042 
L 1229.902545 619.316313 
L 1236.801924 617.041549 
L 1243.701304 607.373805 
L 1264.399443 610.217259 
" clip-path="url(#p10bfc41839)" style="fill: none; stroke: #000000; stroke-width: 2.5; stroke-linecap: square"/>
   </g>
  </g>
  <g id="axes_2">
   <g id="matplotlib.axis_3">
    <g id="ytick_6">
     <g id="line2d_20">
      <defs>
       <path id="m53dc6fdca3" d="M 0 0 
L 3.5 0 
" style="stroke: #000000; stroke-width: 0.8"/>
      </defs>
      <g>
       <use xlink:href="#m53dc6fdca3" x="1327.70125" y="644.224972" style="stroke: #000000; stroke-width: 0.8"/>
      </g>
     </g>
     <g id="text_17">
      <!-- 0 -->
      <g style="fill: #228b22" transform="translate(1334.70125 648.024191) scale(0.1 -0.1)">
       <use xlink:href="#DejaVuSans-30"/>
      </g>
     </g>
    </g>
    <g id="ytick_7">
     <g id="line2d_21">
      <g>
       <use xlink:href="#m53dc6fdca3" x="1327.70125" y="563.208029" style="stroke: #000000; stroke-width: 0.8"/>
      </g>
     </g>
     <g id="text_18">
      <!-- 2 -->
      <g style="fill: #228b22" transform="translate(1334.70125 567.007247) scale(0.1 -0.1)">
       <use xlink:href="#DejaVuSans-32"/>
      </g>
     </g>
    </g>
    <g id="ytick_8">
     <g id="line2d_22">
      <g>
       <use xlink:href="#m53dc6fdca3" x="1327.70125" y="482.191085" style="stroke: #000000; stroke-width: 0.8"/>
      </g>
     </g>
     <g id="text_19">
      <!-- 4 -->
      <g style="fill: #228b22" transform="translate(1334.70125 485.990304) scale(0.1 -0.1)">
       <use xlink:href="#DejaVuSans-34"/>
      </g>
     </g>
    </g>
    <g id="ytick_9">
     <g id="line2d_23">
      <g>
       <use xlink:href="#m53dc6fdca3" x="1327.70125" y="401.174142" style="stroke: #000000; stroke-width: 0.8"/>
      </g>
     </g>
     <g id="text_20">
      <!-- 6 -->
      <g style="fill: #228b22" transform="translate(1334.70125 404.973361) scale(0.1 -0.1)">
       <use xlink:href="#DejaVuSans-36"/>
      </g>
     </g>
    </g>
    <g id="ytick_10">
     <g id="line2d_24">
      <g>
       <use xlink:href="#m53dc6fdca3" x="1327.70125" y="320.157199" style="stroke: #000000; stroke-width: 0.8"/>
      </g>
     </g>
     <g id="text_21">
      <!-- 8 -->
      <g style="fill: #228b22" transform="translate(1334.70125 323.956417) scale(0.1 -0.1)">
       <use xlink:href="#DejaVuSans-38"/>
      </g>
     </g>
    </g>
    <g id="ytick_11">
     <g id="line2d_25">
      <g>
       <use xlink:href="#m53dc6fdca3" x="1327.70125" y="239.140255" style="stroke: #000000; stroke-width: 0.8"/>
      </g>
     </g>
     <g id="text_22">
      <!-- 10 -->
      <g style="fill: #228b22" transform="translate(1334.70125 242.939474) scale(0.1 -0.1)">
       <use xlink:href="#DejaVuSans-31"/>
       <use xlink:href="#DejaVuSans-30" x="63.623047"/>
      </g>
     </g>
    </g>
    <g id="ytick_12">
     <g id="line2d_26">
      <g>
       <use xlink:href="#m53dc6fdca3" x="1327.70125" y="158.123312" style="stroke: #000000; stroke-width: 0.8"/>
      </g>
     </g>
     <g id="text_23">
      <!-- 12 -->
      <g style="fill: #228b22" transform="translate(1334.70125 161.922531) scale(0.1 -0.1)">
       <use xlink:href="#DejaVuSans-31"/>
       <use xlink:href="#DejaVuSans-32" x="63.623047"/>
      </g>
     </g>
    </g>
    <g id="text_24">
     <!-- 融資餘額 (億元) -->
     <g style="fill: #228b22" transform="translate(1360.544375 399.40847) rotate(-90) scale(0.12 -0.12)">
      <defs>
       <path id="DejaVuSans-Bold-878d" d="M 319 -1131 
L 319 4513 
L 3519 4513 
L 3519 -1131 
L 319 -1131 
z
M 678 -775 
L 3163 -775 
L 3163 4153 
L 678 4153 
L 678 -775 
z
" transform="scale(0.015625)"/>
       <path id="DejaVuSans-Bold-8cc7" d="M 319 -1131 
L 319 4513 
L 3519 4513 
L 3519 -1131 
L 319 -1131 
z
M 678 -775 
L 3163 -775 
L 3163 4153 
L 678 4153 
L 678 -775 
z
" transform="scale(0.015625)"/>
       <path id="DejaVuSans-Bold-9918" d="M 319 -1131 
L 319 4513 
L 3519 4513 
L 3519 -1131 
L 319 -1131 
z
M 678 -775 
L 3163 -775 
L 3163 4153 
L 678 4153 
L 678 -775 
z
" transform="scale(0.015625)"/>
       <path id="DejaVuSans-Bold-984d" d="M 319 -1131 
L 319 4513 
L 3519 4513 
L 3519 -1131 
L 319 -1131 
z
M 678 -775 
L 3163 -775 
L 3163 4153 
L 678 4153 
L 678 -775 
z
" transform="scale(0.015625)"/>
       <path id="DejaVuSans-Bold-5104" d="M 319 -1131 
L 319 4513 
L 3519 4513 
L 3519 -1131 
L 319 -1131 
z
M 678 -775 
L 3163 -775 
L 3163 4153 
L 678 4153 
L 678 -775 
z
" transform="scale(0.015625)"/>
      </defs>
      <use xlink:href="#DejaVuSans-Bold-878d"/>
      <use xlink:href="#DejaVuSans-Bold-8cc7" x="60.009766"/>
      <use xlink:href="#DejaVuSans-Bold-9918" x="120.019531"/>
      <use xlink:href="#DejaVuSans-Bold-984d" x="180.029297"/>
      <use xlink:href="#DejaVuSans-Bold-20" x="240.039062"/>
      <use xlink:href="#DejaVuSans-Bold-28" x="274.853516"/>
      <use xlink:href="#DejaVuSans-Bold-5104" x="320.556641"/>
      <use xlink:href="#DejaVuSans-Bold-5143" x="380.566406"/>
      <use xlink:href="#DejaVuSans-Bold-29" x="440.576172"/>
     </g>
    </g>
   </g>
   <g id="patch_9">
    <path d="M 48.90125 644.224972 
L 48.90125 96.234469 
" style="fill: none; stroke: #000000; stroke-width: 0.8; stroke-linejoin: miter; stroke-linecap: square"/>
   </g>
   <g id="patch_10">
    <path d="M 1327.70125 644.224972 
L 1327.70125 96.234469 
" style="fill: none; stroke: #000000; stroke-width: 0.8; stroke-linejoin: miter; stroke-linecap: square"/>
   </g>
   <g id="patch_11">
    <path d="M 48.90125 644.224972 
L 1327.70125 644.224972 
" style="fill: none; stroke: #000000; stroke-width: 0.8; stroke-linejoin: miter; stroke-linecap: square"/>
   </g>
   <g id="patch_12">
    <path d="M 48.90125 96.234469 
L 1327.70125 96.234469 
" style="fill: none; stroke: #000000; stroke-width: 0.8; stroke-linejoin: miter; stroke-linecap: square"/>
   </g>
   <g id="patch_13">
    <path d="M 107.028523 644.224972 
L 117.377592 644.224972 
L 117.377592 536.125077 
L 107.028523 536.125077 
z
" clip-path="url(#p10bfc41839)" style="fill: #ffd700; opacity: 0.85"/>
   </g>
   <g id="patch_14">
    <path d="M 113.927902 644.224972 
L 124.276972 644.224972 
L 124.276972 594.513786 
L 113.927902 594.513786 
z
" clip-path="url(#p10bfc41839)" style="fill: #ffd700; opacity: 0.85"/>
   </g>
   <g id="patch_15">
    <path d="M 120.827282 644.224972 
L 131.176351 644.224972 
L 131.176351 598.196208 
L 120.827282 598.196208 
z
" clip-path="url(#p10bfc41839)" style="fill: #ffd700; opacity: 0.85"/>
   </g>
   <g id="patch_16">
    <path d="M 127.726661 644.224972 
L 138.075731 644.224972 
L 138.075731 605.391526 
L 127.726661 605.391526 
z
" clip-path="url(#p10bfc41839)" style="fill: #ffd700; opacity: 0.85"/>
   </g>
   <g id="patch_17">
    <path d="M 148.4248 644.224972 
L 158.773869 644.224972 
L 158.773869 609.518326 
L 148.4248 609.518326 
z
" clip-path="url(#p10bfc41839)" style="fill: #ffd700; opacity: 0.85"/>
   </g>
   <g id="patch_18">
    <path d="M 155.32418 644.224972 
L 165.673249 644.224972 
L 165.673249 597.444979 
L 155.32418 597.444979 
z
" clip-path="url(#p10bfc41839)" style="fill: #ffd700; opacity: 0.85"/>
   </g>
   <g id="patch_19">
    <path d="M 162.223559 644.224972 
L 172.572628 644.224972 
L 172.572628 623.374857 
L 162.223559 623.374857 
z
" clip-path="url(#p10bfc41839)" style="fill: #ffd700; opacity: 0.85"/>
   </g>
   <g id="patch_20">
    <path d="M 169.122939 644.224972 
L 179.472008 644.224972 
L 179.472008 507.227346 
L 169.122939 507.227346 
z
" clip-path="url(#p10bfc41839)" style="fill: #ffd700; opacity: 0.85"/>
   </g>
   <g id="patch_21">
    <path d="M 176.022318 644.224972 
L 186.371388 644.224972 
L 186.371388 562.658734 
L 176.022318 562.658734 
z
" clip-path="url(#p10bfc41839)" style="fill: #ffd700; opacity: 0.85"/>
   </g>
   <g id="patch_22">
    <path d="M 196.720457 644.224972 
L 207.069526 644.224972 
L 207.069526 553.831938 
L 196.720457 553.831938 
z
" clip-path="url(#p10bfc41839)" style="fill: #ffd700; opacity: 0.85"/>
   </g>
   <g id="patch_23">
    <path d="M 203.619836 644.224972 
L 213.968906 644.224972 
L 213.968906 593.488516 
L 203.619836 593.488516 
z
" clip-path="url(#p10bfc41839)" style="fill: #ffd700; opacity: 0.85"/>
   </g>
   <g id="patch_24">
    <path d="M 210.519216 644.224972 
L 220.868285 644.224972 
L 220.868285 568.47413 
L 210.519216 568.47413 
z
" clip-path="url(#p10bfc41839)" style="fill: #ffd700; opacity: 0.85"/>
   </g>
   <g id="patch_25">
    <path d="M 217.418596 644.224972 
L 227.767665 644.224972 
L 227.767665 587.132332 
L 217.418596 587.132332 
z
" clip-path="url(#p10bfc41839)" style="fill: #ffd700; opacity: 0.85"/>
   </g>
   <g id="patch_26">
    <path d="M 224.317975 644.224972 
L 234.667044 644.224972 
L 234.667044 604.220223 
L 224.317975 604.220223 
z
" clip-path="url(#p10bfc41839)" style="fill: #ffd700; opacity: 0.85"/>
   </g>
   <g id="patch_27">
    <path d="M 245.016114 644.224972 
L 255.365183 644.224972 
L 255.365183 573.39996 
L 245.016114 573.39996 
z
" clip-path="url(#p10bfc41839)" style="fill: #ffd700; opacity: 0.85"/>
   </g>
   <g id="patch_28">
    <path d="M 251.915493 644.224972 
L 262.264563 644.224972 
L 262.264563 594.026266 
L 251.915493 594.026266 
z
" clip-path="url(#p10bfc41839)" style="fill: #ffd700; opacity: 0.85"/>
   </g>
   <g id="patch_29">
    <path d="M 258.814873 644.224972 
L 269.163942 644.224972 
L 269.163942 608.835961 
L 258.814873 608.835961 
z
" clip-path="url(#p10bfc41839)" style="fill: #ffd700; opacity: 0.85"/>
   </g>
   <g id="patch_30">
    <path d="M 265.714252 644.224972 
L 276.063322 644.224972 
L 276.063322 616.406994 
L 265.714252 616.406994 
z
" clip-path="url(#p10bfc41839)" style="fill: #ffd700; opacity: 0.85"/>
   </g>
   <g id="patch_31">
    <path d="M 272.613632 644.224972 
L 282.962701 644.224972 
L 282.962701 581.702577 
L 272.613632 581.702577 
z
" clip-path="url(#p10bfc41839)" style="fill: #ffd700; opacity: 0.85"/>
   </g>
   <g id="patch_32">
    <path d="M 293.311771 644.224972 
L 303.66084 644.224972 
L 303.66084 605.797015 
L 293.311771 605.797015 
z
" clip-path="url(#p10bfc41839)" style="fill: #ffd700; opacity: 0.85"/>
   </g>
   <g id="patch_33">
    <path d="M 300.21115 644.224972 
L 310.56022 644.224972 
L 310.56022 626.628497 
L 300.21115 626.628497 
z
" clip-path="url(#p10bfc41839)" style="fill: #ffd700; opacity: 0.85"/>
   </g>
   <g id="patch_34">
    <path d="M 307.11053 644.224972 
L 317.459599 644.224972 
L 317.459599 628.702936 
L 307.11053 628.702936 
z
" clip-path="url(#p10bfc41839)" style="fill: #ffd700; opacity: 0.85"/>
   </g>
   <g id="patch_35">
    <path d="M 314.009909 644.224972 
L 324.358979 644.224972 
L 324.358979 634.808373 
L 314.009909 634.808373 
z
" clip-path="url(#p10bfc41839)" style="fill: #ffd700; opacity: 0.85"/>
   </g>
   <g id="patch_36">
    <path d="M 320.909289 644.224972 
L 331.258358 644.224972 
L 331.258358 626.415828 
L 320.909289 626.415828 
z
" clip-path="url(#p10bfc41839)" style="fill: #ffd700; opacity: 0.85"/>
   </g>
   <g id="patch_37">
    <path d="M 341.607428 644.224972 
L 351.956497 644.224972 
L 351.956497 624.58768 
L 341.607428 624.58768 
z
" clip-path="url(#p10bfc41839)" style="fill: #ffd700; opacity: 0.85"/>
   </g>
   <g id="patch_38">
    <path d="M 348.506807 644.224972 
L 358.855876 644.224972 
L 358.855876 635.536391 
L 348.506807 635.536391 
z
" clip-path="url(#p10bfc41839)" style="fill: #ffd700; opacity: 0.85"/>
   </g>
   <g id="patch_39">
    <path d="M 355.406187 644.224972 
L 365.755256 644.224972 
L 365.755256 631.100227 
L 355.406187 631.100227 
z
" clip-path="url(#p10bfc41839)" style="fill: #ffd700; opacity: 0.85"/>
   </g>
   <g id="patch_40">
    <path d="M 362.305566 644.224972 
L 372.654635 644.224972 
L 372.654635 628.48257 
L 362.305566 628.48257 
z
" clip-path="url(#p10bfc41839)" style="fill: #ffd700; opacity: 0.85"/>
   </g>
   <g id="patch_41">
    <path d="M 369.204946 644.224972 
L 379.554015 644.224972 
L 379.554015 635.879214 
L 369.204946 635.879214 
z
" clip-path="url(#p10bfc41839)" style="fill: #ffd700; opacity: 0.85"/>
   </g>
   <g id="patch_42">
    <path d="M 389.903084 644.224972 
L 400.252154 644.224972 
L 400.252154 638.067684 
L 389.903084 638.067684 
z
" clip-path="url(#p10bfc41839)" style="fill: #ffd700; opacity: 0.85"/>
   </g>
   <g id="patch_43">
    <path d="M 396.802464 644.224972 
L 407.151533 644.224972 
L 407.151533 634.300396 
L 396.802464 634.300396 
z
" clip-path="url(#p10bfc41839)" style="fill: #ffd700; opacity: 0.85"/>
   </g>
   <g id="patch_44">
    <path d="M 403.701843 644.224972 
L 414.050913 644.224972 
L 414.050913 633.859178 
L 403.701843 633.859178 
z
" clip-path="url(#p10bfc41839)" style="fill: #ffd700; opacity: 0.85"/>
   </g>
   <g id="patch_45">
    <path d="M 410.601223 644.224972 
L 420.950292 644.224972 
L 420.950292 622.26614 
L 410.601223 622.26614 
z
" clip-path="url(#p10bfc41839)" style="fill: #ffd700; opacity: 0.85"/>
   </g>
   <g id="patch_46">
    <path d="M 417.500603 644.224972 
L 427.849672 644.224972 
L 427.849672 637.382281 
L 417.500603 637.382281 
z
" clip-path="url(#p10bfc41839)" style="fill: #ffd700; opacity: 0.85"/>
   </g>
   <g id="patch_47">
    <path d="M 438.198741 644.224972 
L 448.547811 644.224972 
L 448.547811 637.761805 
L 438.198741 637.761805 
z
" clip-path="url(#p10bfc41839)" style="fill: #ffd700; opacity: 0.85"/>
   </g>
   <g id="patch_48">
    <path d="M 445.098121 644.224972 
L 455.44719 644.224972 
L 455.44719 641.828491 
L 445.098121 641.828491 
z
" clip-path="url(#p10bfc41839)" style="fill: #ffd700; opacity: 0.85"/>
   </g>
   <g id="patch_49">
    <path d="M 451.9975 644.224972 
L 462.34657 644.224972 
L 462.34657 638.421728 
L 451.9975 638.421728 
z
" clip-path="url(#p10bfc41839)" style="fill: #ffd700; opacity: 0.85"/>
   </g>
   <g id="patch_50">
    <path d="M 458.89688 644.224972 
L 469.245949 644.224972 
L 469.245949 641.081515 
L 458.89688 641.081515 
z
" clip-path="url(#p10bfc41839)" style="fill: #ffd700; opacity: 0.85"/>
   </g>
   <g id="patch_51">
    <path d="M 465.796259 644.224972 
L 476.145329 644.224972 
L 476.145329 641.697243 
L 465.796259 641.697243 
z
" clip-path="url(#p10bfc41839)" style="fill: #ffd700; opacity: 0.85"/>
   </g>
   <g id="patch_52">
    <path d="M 486.494398 644.224972 
L 496.843467 644.224972 
L 496.843467 640.670354 
L 486.494398 640.670354 
z
" clip-path="url(#p10bfc41839)" style="fill: #ffd700; opacity: 0.85"/>
   </g>
   <g id="patch_53">
    <path d="M 493.393778 644.224972 
L 503.742847 644.224972 
L 503.742847 637.59649 
L 493.393778 637.59649 
z
" clip-path="url(#p10bfc41839)" style="fill: #ffd700; opacity: 0.85"/>
   </g>
   <g id="patch_54">
    <path d="M 500.293157 644.224972 
L 510.642227 644.224972 
L 510.642227 627.386411 
L 500.293157 627.386411 
z
" clip-path="url(#p10bfc41839)" style="fill: #ffd700; opacity: 0.85"/>
   </g>
   <g id="patch_55">
    <path d="M 507.192537 644.224972 
L 517.541606 644.224972 
L 517.541606 638.860921 
L 507.192537 638.860921 
z
" clip-path="url(#p10bfc41839)" style="fill: #ffd700; opacity: 0.85"/>
   </g>
   <g id="patch_56">
    <path d="M 514.091916 644.224972 
L 524.440986 644.224972 
L 524.440986 638.216756 
L 514.091916 638.216756 
z
" clip-path="url(#p10bfc41839)" style="fill: #ffd700; opacity: 0.85"/>
   </g>
   <g id="patch_57">
    <path d="M 541.689435 644.224972 
L 552.038504 644.224972 
L 552.038504 641.894277 
L 541.689435 641.894277 
z
" clip-path="url(#p10bfc41839)" style="fill: #ffd700; opacity: 0.85"/>
   </g>
   <g id="patch_58">
    <path d="M 548.588814 644.224972 
L 558.937883 644.224972 
L 558.937883 636.323876 
L 548.588814 636.323876 
z
" clip-path="url(#p10bfc41839)" style="fill: #ffd700; opacity: 0.85"/>
   </g>
   <g id="patch_59">
    <path d="M 555.488194 644.224972 
L 565.837263 644.224972 
L 565.837263 623.039446 
L 555.488194 623.039446 
z
" clip-path="url(#p10bfc41839)" style="fill: #ffd700; opacity: 0.85"/>
   </g>
   <g id="patch_60">
    <path d="M 562.387573 644.224972 
L 572.736643 644.224972 
L 572.736643 638.240088 
L 562.387573 638.240088 
z
" clip-path="url(#p10bfc41839)" style="fill: #ffd700; opacity: 0.85"/>
   </g>
   <g id="patch_61">
    <path d="M 589.985091 644.224972 
L 600.334161 644.224972 
L 600.334161 640.992396 
L 589.985091 640.992396 
z
" clip-path="url(#p10bfc41839)" style="fill: #ffd700; opacity: 0.85"/>
   </g>
   <g id="patch_62">
    <path d="M 596.884471 644.224972 
L 607.23354 644.224972 
L 607.23354 640.092986 
L 596.884471 640.092986 
z
" clip-path="url(#p10bfc41839)" style="fill: #ffd700; opacity: 0.85"/>
   </g>
   <g id="patch_63">
    <path d="M 603.78385 644.224972 
L 614.13292 644.224972 
L 614.13292 636.46679 
L 603.78385 636.46679 
z
" clip-path="url(#p10bfc41839)" style="fill: #ffd700; opacity: 0.85"/>
   </g>
   <g id="patch_64">
    <path d="M 631.381369 644.224972 
L 641.730438 644.224972 
L 641.730438 625.316995 
L 631.381369 625.316995 
z
" clip-path="url(#p10bfc41839)" style="fill: #ffd700; opacity: 0.85"/>
   </g>
   <g id="patch_65">
    <path d="M 638.280748 644.224972 
L 648.629818 644.224972 
L 648.629818 637.086569 
L 638.280748 637.086569 
z
" clip-path="url(#p10bfc41839)" style="fill: #ffd700; opacity: 0.85"/>
   </g>
   <g id="patch_66">
    <path d="M 645.180128 644.224972 
L 655.529197 644.224972 
L 655.529197 642.067167 
L 645.180128 642.067167 
z
" clip-path="url(#p10bfc41839)" style="fill: #ffd700; opacity: 0.85"/>
   </g>
   <g id="patch_67">
    <path d="M 652.079507 644.224972 
L 662.428577 644.224972 
L 662.428577 640.551866 
L 652.079507 640.551866 
z
" clip-path="url(#p10bfc41839)" style="fill: #ffd700; opacity: 0.85"/>
   </g>
   <g id="patch_68">
    <path d="M 658.978887 644.224972 
L 669.327956 644.224972 
L 669.327956 641.609178 
L 658.978887 641.609178 
z
" clip-path="url(#p10bfc41839)" style="fill: #ffd700; opacity: 0.85"/>
   </g>
   <g id="patch_69">
    <path d="M 679.677026 644.224972 
L 690.026095 644.224972 
L 690.026095 641.34482 
L 679.677026 641.34482 
z
" clip-path="url(#p10bfc41839)" style="fill: #ffd700; opacity: 0.85"/>
   </g>
   <g id="patch_70">
    <path d="M 686.576405 644.224972 
L 696.925474 644.224972 
L 696.925474 640.345476 
L 686.576405 640.345476 
z
" clip-path="url(#p10bfc41839)" style="fill: #ffd700; opacity: 0.85"/>
   </g>
   <g id="patch_71">
    <path d="M 693.475785 644.224972 
L 703.824854 644.224972 
L 703.824854 638.004329 
L 693.475785 638.004329 
z
" clip-path="url(#p10bfc41839)" style="fill: #ffd700; opacity: 0.85"/>
   </g>
   <g id="patch_72">
    <path d="M 700.375164 644.224972 
L 710.724234 644.224972 
L 710.724234 642.331606 
L 700.375164 642.331606 
z
" clip-path="url(#p10bfc41839)" style="fill: #ffd700; opacity: 0.85"/>
   </g>
   <g id="patch_73">
    <path d="M 727.972682 644.224972 
L 738.321752 644.224972 
L 738.321752 641.146328 
L 727.972682 641.146328 
z
" clip-path="url(#p10bfc41839)" style="fill: #ffd700; opacity: 0.85"/>
   </g>
   <g id="patch_74">
    <path d="M 734.872062 644.224972 
L 745.221131 644.224972 
L 745.221131 641.084877 
L 734.872062 641.084877 
z
" clip-path="url(#p10bfc41839)" style="fill: #ffd700; opacity: 0.85"/>
   </g>
   <g id="patch_75">
    <path d="M 741.771442 644.224972 
L 752.120511 644.224972 
L 752.120511 641.211142 
L 741.771442 641.211142 
z
" clip-path="url(#p10bfc41839)" style="fill: #ffd700; opacity: 0.85"/>
   </g>
   <g id="patch_76">
    <path d="M 748.670821 644.224972 
L 759.01989 644.224972 
L 759.01989 641.074831 
L 748.670821 641.074831 
z
" clip-path="url(#p10bfc41839)" style="fill: #ffd700; opacity: 0.85"/>
   </g>
   <g id="patch_77">
    <path d="M 755.570201 644.224972 
L 765.91927 644.224972 
L 765.91927 642.311676 
L 755.570201 642.311676 
z
" clip-path="url(#p10bfc41839)" style="fill: #ffd700; opacity: 0.85"/>
   </g>
   <g id="patch_78">
    <path d="M 776.268339 644.224972 
L 786.617409 644.224972 
L 786.617409 643.155953 
L 776.268339 643.155953 
z
" clip-path="url(#p10bfc41839)" style="fill: #ffd700; opacity: 0.85"/>
   </g>
   <g id="patch_79">
    <path d="M 783.167719 644.224972 
L 793.516788 644.224972 
L 793.516788 640.356251 
L 783.167719 640.356251 
z
" clip-path="url(#p10bfc41839)" style="fill: #ffd700; opacity: 0.85"/>
   </g>
   <g id="patch_80">
    <path d="M 790.067098 644.224972 
L 800.416168 644.224972 
L 800.416168 641.376214 
L 790.067098 641.376214 
z
" clip-path="url(#p10bfc41839)" style="fill: #ffd700; opacity: 0.85"/>
   </g>
   <g id="patch_81">
    <path d="M 796.966478 644.224972 
L 807.315547 644.224972 
L 807.315547 643.189981 
L 796.966478 643.189981 
z
" clip-path="url(#p10bfc41839)" style="fill: #ffd700; opacity: 0.85"/>
   </g>
   <g id="patch_82">
    <path d="M 803.865857 644.224972 
L 814.214927 644.224972 
L 814.214927 637.166654 
L 803.865857 637.166654 
z
" clip-path="url(#p10bfc41839)" style="fill: #ffd700; opacity: 0.85"/>
   </g>
   <g id="patch_83">
    <path d="M 824.563996 644.224972 
L 834.913065 644.224972 
L 834.913065 640.596952 
L 824.563996 640.596952 
z
" clip-path="url(#p10bfc41839)" style="fill: #ffd700; opacity: 0.85"/>
   </g>
   <g id="patch_84">
    <path d="M 831.463376 644.224972 
L 841.812445 644.224972 
L 841.812445 640.637056 
L 831.463376 640.637056 
z
" clip-path="url(#p10bfc41839)" style="fill: #ffd700; opacity: 0.85"/>
   </g>
   <g id="patch_85">
    <path d="M 838.362755 644.224972 
L 848.711825 644.224972 
L 848.711825 641.520059 
L 838.362755 641.520059 
z
" clip-path="url(#p10bfc41839)" style="fill: #ffd700; opacity: 0.85"/>
   </g>
   <g id="patch_86">
    <path d="M 845.262135 644.224972 
L 855.611204 644.224972 
L 855.611204 640.637056 
L 845.262135 640.637056 
z
" clip-path="url(#p10bfc41839)" style="fill: #ffd700; opacity: 0.85"/>
   </g>
   <g id="patch_87">
    <path d="M 852.161514 644.224972 
L 862.510584 644.224972 
L 862.510584 642.574049 
L 852.161514 642.574049 
z
" clip-path="url(#p10bfc41839)" style="fill: #ffd700; opacity: 0.85"/>
   </g>
   <g id="patch_88">
    <path d="M 872.859653 644.224972 
L 883.208722 644.224972 
L 883.208722 636.892453 
L 872.859653 636.892453 
z
" clip-path="url(#p10bfc41839)" style="fill: #ffd700; opacity: 0.85"/>
   </g>
   <g id="patch_89">
    <path d="M 879.759033 644.224972 
L 890.108102 644.224972 
L 890.108102 638.632859 
L 879.759033 638.632859 
z
" clip-path="url(#p10bfc41839)" style="fill: #ffd700; opacity: 0.85"/>
   </g>
   <g id="patch_90">
    <path d="M 886.658412 644.224972 
L 897.007481 644.224972 
L 897.007481 642.668718 
L 886.658412 642.668718 
z
" clip-path="url(#p10bfc41839)" style="fill: #ffd700; opacity: 0.85"/>
   </g>
   <g id="patch_91">
    <path d="M 893.557792 644.224972 
L 903.906861 644.224972 
L 903.906861 642.473791 
L 893.557792 642.473791 
z
" clip-path="url(#p10bfc41839)" style="fill: #ffd700; opacity: 0.85"/>
   </g>
   <g id="patch_92">
    <path d="M 900.457171 644.224972 
L 910.806241 644.224972 
L 910.806241 643.053953 
L 900.457171 643.053953 
z
" clip-path="url(#p10bfc41839)" style="fill: #ffd700; opacity: 0.85"/>
   </g>
   <g id="patch_93">
    <path d="M 921.15531 644.224972 
L 931.504379 644.224972 
L 931.504379 642.270843 
L 921.15531 642.270843 
z
" clip-path="url(#p10bfc41839)" style="fill: #ffd700; opacity: 0.85"/>
   </g>
   <g id="patch_94">
    <path d="M 928.054689 644.224972 
L 938.403759 644.224972 
L 938.403759 642.096657 
L 928.054689 642.096657 
z
" clip-path="url(#p10bfc41839)" style="fill: #ffd700; opacity: 0.85"/>
   </g>
   <g id="patch_95">
    <path d="M 934.954069 644.224972 
L 945.303138 644.224972 
L 945.303138 642.517499 
L 934.954069 642.517499 
z
" clip-path="url(#p10bfc41839)" style="fill: #ffd700; opacity: 0.85"/>
   </g>
   <g id="patch_96">
    <path d="M 941.853449 644.224972 
L 952.202518 644.224972 
L 952.202518 643.204159 
L 941.853449 643.204159 
z
" clip-path="url(#p10bfc41839)" style="fill: #ffd700; opacity: 0.85"/>
   </g>
   <g id="patch_97">
    <path d="M 948.752828 644.224972 
L 959.101897 644.224972 
L 959.101897 642.60755 
L 948.752828 642.60755 
z
" clip-path="url(#p10bfc41839)" style="fill: #ffd700; opacity: 0.85"/>
   </g>
   <g id="patch_98">
    <path d="M 969.450967 644.224972 
L 979.800036 644.224972 
L 979.800036 643.382801 
L 969.450967 643.382801 
z
" clip-path="url(#p10bfc41839)" style="fill: #ffd700; opacity: 0.85"/>
   </g>
   <g id="patch_99">
    <path d="M 976.350346 644.224972 
L 986.699416 644.224972 
L 986.699416 643.539569 
L 976.350346 643.539569 
z
" clip-path="url(#p10bfc41839)" style="fill: #ffd700; opacity: 0.85"/>
   </g>
   <g id="patch_100">
    <path d="M 983.249726 644.224972 
L 993.598795 644.224972 
L 993.598795 643.371864 
L 983.249726 643.371864 
z
" clip-path="url(#p10bfc41839)" style="fill: #ffd700; opacity: 0.85"/>
   </g>
   <g id="patch_101">
    <path d="M 990.149105 644.224972 
L 1000.498175 644.224972 
L 1000.498175 643.554152 
L 990.149105 643.554152 
z
" clip-path="url(#p10bfc41839)" style="fill: #ffd700; opacity: 0.85"/>
   </g>
   <g id="patch_102">
    <path d="M 997.048485 644.224972 
L 1007.397554 644.224972 
L 1007.397554 641.304311 
L 997.048485 641.304311 
z
" clip-path="url(#p10bfc41839)" style="fill: #ffd700; opacity: 0.85"/>
   </g>
   <g id="patch_103">
    <path d="M 1017.746624 644.224972 
L 1028.095693 644.224972 
L 1028.095693 641.740385 
L 1017.746624 641.740385 
z
" clip-path="url(#p10bfc41839)" style="fill: #ffd700; opacity: 0.85"/>
   </g>
   <g id="patch_104">
    <path d="M 1024.646003 644.224972 
L 1034.995072 644.224972 
L 1034.995072 643.629498 
L 1024.646003 643.629498 
z
" clip-path="url(#p10bfc41839)" style="fill: #ffd700; opacity: 0.85"/>
   </g>
   <g id="patch_105">
    <path d="M 1031.545383 644.224972 
L 1041.894452 644.224972 
L 1041.894452 627.461756 
L 1031.545383 627.461756 
z
" clip-path="url(#p10bfc41839)" style="fill: #ffd700; opacity: 0.85"/>
   </g>
   <g id="patch_106">
    <path d="M 1038.444762 644.224972 
L 1048.793832 644.224972 
L 1048.793832 640.917536 
L 1038.444762 640.917536 
z
" clip-path="url(#p10bfc41839)" style="fill: #ffd700; opacity: 0.85"/>
   </g>
   <g id="patch_107">
    <path d="M 1045.344142 644.224972 
L 1055.693211 644.224972 
L 1055.693211 643.031106 
L 1045.344142 643.031106 
z
" clip-path="url(#p10bfc41839)" style="fill: #ffd700; opacity: 0.85"/>
   </g>
   <g id="patch_108">
    <path d="M 1066.04228 644.224972 
L 1076.39135 644.224972 
L 1076.39135 643.252769 
L 1066.04228 643.252769 
z
" clip-path="url(#p10bfc41839)" style="fill: #ffd700; opacity: 0.85"/>
   </g>
   <g id="patch_109">
    <path d="M 1072.94166 644.224972 
L 1083.290729 644.224972 
L 1083.290729 643.97382 
L 1072.94166 643.97382 
z
" clip-path="url(#p10bfc41839)" style="fill: #ffd700; opacity: 0.85"/>
   </g>
   <g id="patch_110">
    <path d="M 1079.84104 644.224972 
L 1090.190109 644.224972 
L 1090.190109 643.929908 
L 1079.84104 643.929908 
z
" clip-path="url(#p10bfc41839)" style="fill: #ffd700; opacity: 0.85"/>
   </g>
   <g id="patch_111">
    <path d="M 1086.740419 644.224972 
L 1097.089488 644.224972 
L 1097.089488 643.758558 
L 1086.740419 643.758558 
z
" clip-path="url(#p10bfc41839)" style="fill: #ffd700; opacity: 0.85"/>
   </g>
   <g id="patch_112">
    <path d="M 1093.639799 644.224972 
L 1103.988868 644.224972 
L 1103.988868 643.612281 
L 1093.639799 643.612281 
z
" clip-path="url(#p10bfc41839)" style="fill: #ffd700; opacity: 0.85"/>
   </g>
   <g id="patch_113">
    <path d="M 1114.337937 644.224972 
L 1124.687007 644.224972 
L 1124.687007 643.539893 
L 1114.337937 643.539893 
z
" clip-path="url(#p10bfc41839)" style="fill: #ffd700; opacity: 0.85"/>
   </g>
   <g id="patch_114">
    <path d="M 1121.237317 644.224972 
L 1131.586386 644.224972 
L 1131.586386 643.870523 
L 1121.237317 643.870523 
z
" clip-path="url(#p10bfc41839)" style="fill: #ffd700; opacity: 0.85"/>
   </g>
   <g id="patch_115">
    <path d="M 1128.136696 644.224972 
L 1138.485766 644.224972 
L 1138.485766 643.948259 
L 1128.136696 643.948259 
z
" clip-path="url(#p10bfc41839)" style="fill: #ffd700; opacity: 0.85"/>
   </g>
   <g id="patch_116">
    <path d="M 1141.935456 644.224972 
L 1152.284525 644.224972 
L 1152.284525 643.52855 
L 1141.935456 643.52855 
z
" clip-path="url(#p10bfc41839)" style="fill: #ffd700; opacity: 0.85"/>
   </g>
   <g id="patch_117">
    <path d="M 1162.633594 644.224972 
L 1172.982664 644.224972 
L 1172.982664 642.484931 
L 1162.633594 642.484931 
z
" clip-path="url(#p10bfc41839)" style="fill: #ffd700; opacity: 0.85"/>
   </g>
   <g id="patch_118">
    <path d="M 1169.532974 644.224972 
L 1179.882043 644.224972 
L 1179.882043 641.670103 
L 1169.532974 641.670103 
z
" clip-path="url(#p10bfc41839)" style="fill: #ffd700; opacity: 0.85"/>
   </g>
   <g id="patch_119">
    <path d="M 1176.432353 644.224972 
L 1186.781423 644.224972 
L 1186.781423 641.499765 
L 1176.432353 641.499765 
z
" clip-path="url(#p10bfc41839)" style="fill: #ffd700; opacity: 0.85"/>
   </g>
   <g id="patch_120">
    <path d="M 1190.231112 644.224972 
L 1200.580182 644.224972 
L 1200.580182 642.82743 
L 1190.231112 642.82743 
z
" clip-path="url(#p10bfc41839)" style="fill: #ffd700; opacity: 0.85"/>
   </g>
   <g id="patch_121">
    <path d="M 1210.929251 644.224972 
L 1221.27832 644.224972 
L 1221.27832 643.269985 
L 1210.929251 643.269985 
z
" clip-path="url(#p10bfc41839)" style="fill: #ffd700; opacity: 0.85"/>
   </g>
   <g id="patch_122">
    <path d="M 1217.828631 644.224972 
L 1228.1777 644.224972 
L 1228.1777 639.932816 
L 1217.828631 639.932816 
z
" clip-path="url(#p10bfc41839)" style="fill: #ffd700; opacity: 0.85"/>
   </g>
   <g id="patch_123">
    <path d="M 1224.72801 644.224972 
L 1235.07708 644.224972 
L 1235.07708 642.923354 
L 1224.72801 642.923354 
z
" clip-path="url(#p10bfc41839)" style="fill: #ffd700; opacity: 0.85"/>
   </g>
   <g id="patch_124">
    <path d="M 1231.62739 644.224972 
L 1241.976459 644.224972 
L 1241.976459 643.275616 
L 1231.62739 643.275616 
z
" clip-path="url(#p10bfc41839)" style="fill: #ffd700; opacity: 0.85"/>
   </g>
   <g id="patch_125">
    <path d="M 1238.526769 644.224972 
L 1248.875839 644.224972 
L 1248.875839 643.293277 
L 1238.526769 643.293277 
z
" clip-path="url(#p10bfc41839)" style="fill: #ffd700; opacity: 0.85"/>
   </g>
   <g id="patch_126">
    <path d="M 1259.224908 644.224972 
L 1269.573977 644.224972 
L 1269.573977 643.809355 
L 1259.224908 643.809355 
z
" clip-path="url(#p10bfc41839)" style="fill: #ffd700; opacity: 0.85"/>
   </g>
  </g>
  <g id="axes_3">
   <g id="matplotlib.axis_4">
    <g id="ytick_13">
     <g id="line2d_27">
      <g>
       <use xlink:href="#m53dc6fdca3" x="1387.70125" y="644.224972" style="stroke: #000000; stroke-width: 0.8"/>
      </g>
     </g>
     <g id="text_25">
      <!-- 0 -->
      <g style="fill: #ff0000" transform="translate(1394.70125 648.024191) scale(0.1 -0.1)">
       <use xlink:href="#DejaVuSans-30"/>
      </g>
     </g>
    </g>
    <g id="ytick_14">
     <g id="line2d_28">
      <g>
       <use xlink:href="#m53dc6fdca3" x="1387.70125" y="582.519408" style="stroke: #000000; stroke-width: 0.8"/>
      </g>
     </g>
     <g id="text_26">
      <!-- 5 -->
      <g style="fill: #ff0000" transform="translate(1394.70125 586.318627) scale(0.1 -0.1)">
       <use xlink:href="#DejaVuSans-35"/>
      </g>
     </g>
    </g>
    <g id="ytick_15">
     <g id="line2d_29">
      <g>
       <use xlink:href="#m53dc6fdca3" x="1387.70125" y="520.813844" style="stroke: #000000; stroke-width: 0.8"/>
      </g>
     </g>
     <g id="text_27">
      <!-- 10 -->
      <g style="fill: #ff0000" transform="translate(1394.70125 524.613063) scale(0.1 -0.1)">
       <use xlink:href="#DejaVuSans-31"/>
       <use xlink:href="#DejaVuSans-30" x="63.623047"/>
      </g>
     </g>
    </g>
    <g id="ytick_16">
     <g id="line2d_30">
      <g>
       <use xlink:href="#m53dc6fdca3" x="1387.70125" y="459.10828" style="stroke: #000000; stroke-width: 0.8"/>
      </g>
     </g>
     <g id="text_28">
      <!-- 15 -->
      <g style="fill: #ff0000" transform="translate(1394.70125 462.907499) scale(0.1 -0.1)">
       <use xlink:href="#DejaVuSans-31"/>
       <use xlink:href="#DejaVuSans-35" x="63.623047"/>
      </g>
     </g>
    </g>
    <g id="ytick_17">
     <g id="line2d_31">
      <g>
       <use xlink:href="#m53dc6fdca3" x="1387.70125" y="397.402716" style="stroke: #000000; stroke-width: 0.8"/>
      </g>
     </g>
     <g id="text_29">
      <!-- 20 -->
      <g style="fill: #ff0000" transform="translate(1394.70125 401.201935) scale(0.1 -0.1)">
       <use xlink:href="#DejaVuSans-32"/>
       <use xlink:href="#DejaVuSans-30" x="63.623047"/>
      </g>
     </g>
    </g>
    <g id="ytick_18">
     <g id="line2d_32">
      <g>
       <use xlink:href="#m53dc6fdca3" x="1387.70125" y="335.697152" style="stroke: #000000; stroke-width: 0.8"/>
      </g>
     </g>
     <g id="text_30">
      <!-- 25 -->
      <g style="fill: #ff0000" transform="translate(1394.70125 339.496371) scale(0.1 -0.1)">
       <use xlink:href="#DejaVuSans-32"/>
       <use xlink:href="#DejaVuSans-35" x="63.623047"/>
      </g>
     </g>
    </g>
    <g id="ytick_19">
     <g id="line2d_33">
      <g>
       <use xlink:href="#m53dc6fdca3" x="1387.70125" y="273.991588" style="stroke: #000000; stroke-width: 0.8"/>
      </g>
     </g>
     <g id="text_31">
      <!-- 30 -->
      <g style="fill: #ff0000" transform="translate(1394.70125 277.790807) scale(0.1 -0.1)">
       <defs>
        <path id="DejaVuSans-33" d="M 2597 2516 
Q 3050 2419 3304 2112 
Q 3559 1806 3559 1356 
Q 3559 666 3084 287 
Q 2609 -91 1734 -91 
Q 1441 -91 1130 -33 
Q 819 25 488 141 
L 488 750 
Q 750 597 1062 519 
Q 1375 441 1716 441 
Q 2309 441 2620 675 
Q 2931 909 2931 1356 
Q 2931 1769 2642 2001 
Q 2353 2234 1838 2234 
L 1294 2234 
L 1294 2753 
L 1863 2753 
Q 2328 2753 2575 2939 
Q 2822 3125 2822 3475 
Q 2822 3834 2567 4026 
Q 2313 4219 1838 4219 
Q 1578 4219 1281 4162 
Q 984 4106 628 3988 
L 628 4550 
Q 988 4650 1302 4700 
Q 1616 4750 1894 4750 
Q 2613 4750 3031 4423 
Q 3450 4097 3450 3541 
Q 3450 3153 3228 2886 
Q 3006 2619 2597 2516 
z
" transform="scale(0.015625)"/>
       </defs>
       <use xlink:href="#DejaVuSans-33"/>
       <use xlink:href="#DejaVuSans-30" x="63.623047"/>
      </g>
     </g>
    </g>
    <g id="ytick_20">
     <g id="line2d_34">
      <g>
       <use xlink:href="#m53dc6fdca3" x="1387.70125" y="212.286024" style="stroke: #000000; stroke-width: 0.8"/>
      </g>
     </g>
     <g id="text_32">
      <!-- 35 -->
      <g style="fill: #ff0000" transform="translate(1394.70125 216.085243) scale(0.1 -0.1)">
       <use xlink:href="#DejaVuSans-33"/>
       <use xlink:href="#DejaVuSans-35" x="63.623047"/>
      </g>
     </g>
    </g>
    <g id="ytick_21">
     <g id="line2d_35">
      <g>
       <use xlink:href="#m53dc6fdca3" x="1387.70125" y="150.58046" style="stroke: #000000; stroke-width: 0.8"/>
      </g>
     </g>
     <g id="text_33">
      <!-- 40 -->
      <g style="fill: #ff0000" transform="translate(1394.70125 154.379679) scale(0.1 -0.1)">
       <use xlink:href="#DejaVuSans-34"/>
       <use xlink:href="#DejaVuSans-30" x="63.623047"/>
      </g>
     </g>
    </g>
    <g id="text_34">
     <!-- 融資餘額/市值 (%) [長期趨勢] -->
     <g style="fill: #ff0000" transform="translate(1420.544375 429.589408) rotate(-90) scale(0.12 -0.12)">
      <defs>
       <path id="DejaVuSans-Bold-2f" d="M 1644 4666 
L 2338 4666 
L 691 -594 
L 0 -594 
L 1644 4666 
z
" transform="scale(0.015625)"/>
       <path id="DejaVuSans-Bold-5e02" d="M 319 -1131 
L 319 4513 
L 3519 4513 
L 3519 -1131 
L 319 -1131 
z
M 678 -775 
L 3163 -775 
L 3163 4153 
L 678 4153 
L 678 -775 
z
" transform="scale(0.015625)"/>
       <path id="DejaVuSans-Bold-503c" d="M 319 -1131 
L 319 4513 
L 3519 4513 
L 3519 -1131 
L 319 -1131 
z
M 678 -775 
L 3163 -775 
L 3163 4153 
L 678 4153 
L 678 -775 
z
" transform="scale(0.015625)"/>
       <path id="DejaVuSans-Bold-25" d="M 4959 1925 
Q 4738 1925 4616 1733 
Q 4494 1541 4494 1184 
Q 4494 825 4614 633 
Q 4734 441 4959 441 
Q 5184 441 5303 633 
Q 5422 825 5422 1184 
Q 5422 1541 5301 1733 
Q 5181 1925 4959 1925 
z
M 4959 2450 
Q 5541 2450 5875 2112 
Q 6209 1775 6209 1184 
Q 6209 594 5875 251 
Q 5541 -91 4959 -91 
Q 4378 -91 4042 251 
Q 3706 594 3706 1184 
Q 3706 1772 4042 2111 
Q 4378 2450 4959 2450 
z
M 2094 -91 
L 1403 -91 
L 4319 4750 
L 5013 4750 
L 2094 -91 
z
M 1453 4750 
Q 2034 4750 2367 4411 
Q 2700 4072 2700 3481 
Q 2700 2891 2367 2550 
Q 2034 2209 1453 2209 
Q 872 2209 539 2550 
Q 206 2891 206 3481 
Q 206 4072 539 4411 
Q 872 4750 1453 4750 
z
M 1453 4225 
Q 1228 4225 1106 4031 
Q 984 3838 984 3481 
Q 984 3122 1106 2926 
Q 1228 2731 1453 2731 
Q 1678 2731 1798 2926 
Q 1919 3122 1919 3481 
Q 1919 3838 1797 4031 
Q 1675 4225 1453 4225 
z
" transform="scale(0.015625)"/>
       <path id="DejaVuSans-Bold-5b" d="M 550 4863 
L 2491 4863 
L 2491 4159 
L 1613 4159 
L 1613 -141 
L 2491 -141 
L 2491 -844 
L 550 -844 
L 550 4863 
z
" transform="scale(0.015625)"/>
       <path id="DejaVuSans-Bold-9577" d="M 319 -1131 
L 319 4513 
L 3519 4513 
L 3519 -1131 
L 319 -1131 
z
M 678 -775 
L 3163 -775 
L 3163 4153 
L 678 4153 
L 678 -775 
z
" transform="scale(0.015625)"/>
       <path id="DejaVuSans-Bold-8da8" d="M 319 -1131 
L 319 4513 
L 3519 4513 
L 3519 -1131 
L 319 -1131 
z
M 678 -775 
L 3163 -775 
L 3163 4153 
L 678 4153 
L 678 -775 
z
" transform="scale(0.015625)"/>
       <path id="DejaVuSans-Bold-52e2" d="M 319 -1131 
L 319 4513 
L 3519 4513 
L 3519 -1131 
L 319 -1131 
z
M 678 -775 
L 3163 -775 
L 3163 4153 
L 678 4153 
L 678 -775 
z
" transform="scale(0.015625)"/>
       <path id="DejaVuSans-Bold-5d" d="M 2375 -844 
L 434 -844 
L 434 -141 
L 1313 -141 
L 1313 4159 
L 434 4159 
L 434 4863 
L 2375 4863 
L 2375 -844 
z
" transform="scale(0.015625)"/>
      </defs>
      <use xlink:href="#DejaVuSans-Bold-878d"/>
      <use xlink:href="#DejaVuSans-Bold-8cc7" x="60.009766"/>
      <use xlink:href="#DejaVuSans-Bold-9918" x="120.019531"/>
      <use xlink:href="#DejaVuSans-Bold-984d" x="180.029297"/>
      <use xlink:href="#DejaVuSans-Bold-2f" x="240.039062"/>
      <use xlink:href="#DejaVuSans-Bold-5e02" x="276.5625"/>
      <use xlink:href="#DejaVuSans-Bold-503c" x="336.572266"/>
      <use xlink:href="#DejaVuSans-Bold-20" x="396.582031"/>
      <use xlink:href="#DejaVuSans-Bold-28" x="431.396484"/>
      <use xlink:href="#DejaVuSans-Bold-25" x="477.099609"/>
      <use xlink:href="#DejaVuSans-Bold-29" x="577.294922"/>
      <use xlink:href="#DejaVuSans-Bold-20" x="622.998047"/>
      <use xlink:href="#DejaVuSans-Bold-5b" x="657.8125"/>
      <use xlink:href="#DejaVuSans-Bold-9577" x="703.515625"/>
      <use xlink:href="#DejaVuSans-Bold-671f" x="763.525391"/>
      <use xlink:href="#DejaVuSans-Bold-8da8" x="823.535156"/>
      <use xlink:href="#DejaVuSans-Bold-52e2" x="883.544922"/>
      <use xlink:href="#DejaVuSans-Bold-5d" x="943.554688"/>
     </g>
    </g>
   </g>
   <g id="patch_127">
    <path d="M 48.90125 644.224972 
L 48.90125 96.234469 
" style="fill: none; stroke: #000000; stroke-width: 0.8; stroke-linejoin: miter; stroke-linecap: square"/>
   </g>
   <g id="patch_128">
    <path d="M 1387.70125 644.224972 
L 1387.70125 96.234469 
" style="fill: none; stroke: #000000; stroke-width: 0.8; stroke-linejoin: miter; stroke-linecap: square"/>
   </g>
   <g id="patch_129">
    <path d="M 48.90125 644.224972 
L 1327.70125 644.224972 
" style="fill: none; stroke: #000000; stroke-width: 0.8; stroke-linejoin: miter; stroke-linecap: square"/>
   </g>
   <g id="patch_130">
    <path d="M 48.90125 96.234469 
L 1327.70125 96.234469 
" style="fill: none; stroke: #000000; stroke-width: 0.8; stroke-linejoin: miter; stroke-linecap: square"/>
   </g>
   <g id="text_35">
    <!-- 碩網 (7547): 融資餘額與股價分析 -->
    <g transform="translate(614.23375 17.077969) scale(0.13 -0.13)">
     <defs>
      <path id="DejaVuSans-Bold-78a9" d="M 319 -1131 
L 319 4513 
L 3519 4513 
L 3519 -1131 
L 319 -1131 
z
M 678 -775 
L 3163 -775 
L 3163 4153 
L 678 4153 
L 678 -775 
z
" transform="scale(0.015625)"/>
      <path id="DejaVuSans-Bold-7db2" d="M 319 -1131 
L 319 4513 
L 3519 4513 
L 3519 -1131 
L 319 -1131 
z
M 678 -775 
L 3163 -775 
L 3163 4153 
L 678 4153 
L 678 -775 
z
" transform="scale(0.015625)"/>
      <path id="DejaVuSans-Bold-37" d="M 428 4666 
L 3944 4666 
L 3944 3988 
L 2125 0 
L 953 0 
L 2675 3781 
L 428 3781 
L 428 4666 
z
" transform="scale(0.015625)"/>
      <path id="DejaVuSans-Bold-35" d="M 678 4666 
L 3669 4666 
L 3669 3781 
L 1638 3781 
L 1638 3059 
Q 1775 3097 1914 3117 
Q 2053 3138 2203 3138 
Q 3056 3138 3531 2711 
Q 4006 2284 4006 1522 
Q 4006 766 3489 337 
Q 2972 -91 2053 -91 
Q 1656 -91 1267 -14 
Q 878 63 494 219 
L 494 1166 
Q 875 947 1217 837 
Q 1559 728 1863 728 
Q 2300 728 2551 942 
Q 2803 1156 2803 1522 
Q 2803 1891 2551 2103 
Q 2300 2316 1863 2316 
Q 1603 2316 1309 2248 
Q 1016 2181 678 2041 
L 678 4666 
z
" transform="scale(0.015625)"/>
      <path id="DejaVuSans-Bold-34" d="M 2356 3675 
L 1038 1722 
L 2356 1722 
L 2356 3675 
z
M 2156 4666 
L 3494 4666 
L 3494 1722 
L 4159 1722 
L 4159 850 
L 3494 850 
L 3494 0 
L 2356 0 
L 2356 850 
L 288 850 
L 288 1881 
L 2156 4666 
z
" transform="scale(0.015625)"/>
      <path id="DejaVuSans-Bold-3a" d="M 716 3500 
L 1844 3500 
L 1844 2291 
L 716 2291 
L 716 3500 
z
M 716 1209 
L 1844 1209 
L 1844 0 
L 716 0 
L 716 1209 
z
" transform="scale(0.015625)"/>
      <path id="DejaVuSans-Bold-8207" d="M 319 -1131 
L 319 4513 
L 3519 4513 
L 3519 -1131 
L 319 -1131 
z
M 678 -775 
L 3163 -775 
L 3163 4153 
L 678 4153 
L 678 -775 
z
" transform="scale(0.015625)"/>
      <path id="DejaVuSans-Bold-80a1" d="M 319 -1131 
L 319 4513 
L 3519 4513 
L 3519 -1131 
L 319 -1131 
z
M 678 -775 
L 3163 -775 
L 3163 4153 
L 678 4153 
L 678 -775 
z
" transform="scale(0.015625)"/>
      <path id="DejaVuSans-Bold-5206" d="M 319 -1131 
L 319 4513 
L 3519 4513 
L 3519 -1131 
L 319 -1131 
z
M 678 -775 
L 3163 -775 
L 3163 4153 
L 678 4153 
L 678 -775 
z
" transform="scale(0.015625)"/>
      <path id="DejaVuSans-Bold-6790" d="M 319 -1131 
L 319 4513 
L 3519 4513 
L 3519 -1131 
L 319 -1131 
z
M 678 -775 
L 3163 -775 
L 3163 4153 
L 678 4153 
L 678 -775 
z
" transform="scale(0.015625)"/>
     </defs>
     <use xlink:href="#DejaVuSans-Bold-78a9"/>
     <use xlink:href="#DejaVuSans-Bold-7db2" x="60.009766"/>
     <use xlink:href="#DejaVuSans-Bold-20" x="120.019531"/>
     <use xlink:href="#DejaVuSans-Bold-28" x="154.833984"/>
     <use xlink:href="#DejaVuSans-Bold-37" x="200.537109"/>
     <use xlink:href="#DejaVuSans-Bold-35" x="270.117188"/>
     <use xlink:href="#DejaVuSans-Bold-34" x="339.697266"/>
     <use xlink:href="#DejaVuSans-Bold-37" x="409.277344"/>
     <use xlink:href="#DejaVuSans-Bold-29" x="478.857422"/>
     <use xlink:href="#DejaVuSans-Bold-3a" x="524.560547"/>
     <use xlink:href="#DejaVuSans-Bold-20" x="564.550781"/>
     <use xlink:href="#DejaVuSans-Bold-878d" x="599.365234"/>
     <use xlink:href="#DejaVuSans-Bold-8cc7" x="659.375"/>
     <use xlink:href="#DejaVuSans-Bold-9918" x="719.384766"/>
     <use xlink:href="#DejaVuSans-Bold-984d" x="779.394531"/>
     <use xlink:href="#DejaVuSans-Bold-8207" x="839.404297"/>
     <use xlink:href="#DejaVuSans-Bold-80a1" x="899.414062"/>
     <use xlink:href="#DejaVuSans-Bold-50f9" x="959.423828"/>
     <use xlink:href="#DejaVuSans-Bold-5206" x="1019.433594"/>
     <use xlink:href="#DejaVuSans-Bold-6790" x="1079.443359"/>
    </g>
    <!-- (長期資料: 114 點, 2025-07-29 ~ 2026-01-12 | 日資料: 最近1年) -->
    <g transform="translate(504.616328 31.703375) scale(0.13 -0.13)">
     <defs>
      <path id="DejaVuSans-Bold-6599" d="M 319 -1131 
L 319 4513 
L 3519 4513 
L 3519 -1131 
L 319 -1131 
z
M 678 -775 
L 3163 -775 
L 3163 4153 
L 678 4153 
L 678 -775 
z
" transform="scale(0.015625)"/>
      <path id="DejaVuSans-Bold-31" d="M 750 831 
L 1813 831 
L 1813 3847 
L 722 3622 
L 722 4441 
L 1806 4666 
L 2950 4666 
L 2950 831 
L 4013 831 
L 4013 0 
L 750 0 
L 750 831 
z
" transform="scale(0.015625)"/>
      <path id="DejaVuSans-Bold-9ede" d="M 319 -1131 
L 319 4513 
L 3519 4513 
L 3519 -1131 
L 319 -1131 
z
M 678 -775 
L 3163 -775 
L 3163 4153 
L 678 4153 
L 678 -775 
z
" transform="scale(0.015625)"/>
      <path id="DejaVuSans-Bold-2c" d="M 653 1209 
L 1778 1209 
L 1778 256 
L 1006 -909 
L 341 -909 
L 653 256 
L 653 1209 
z
" transform="scale(0.015625)"/>
      <path id="DejaVuSans-Bold-32" d="M 1844 884 
L 3897 884 
L 3897 0 
L 506 0 
L 506 884 
L 2209 2388 
Q 2438 2594 2547 2791 
Q 2656 2988 2656 3200 
Q 2656 3528 2436 3728 
Q 2216 3928 1850 3928 
Q 1569 3928 1234 3808 
Q 900 3688 519 3450 
L 519 4475 
Q 925 4609 1322 4679 
Q 1719 4750 2100 4750 
Q 2938 4750 3402 4381 
Q 3866 4013 3866 3353 
Q 3866 2972 3669 2642 
Q 3472 2313 2841 1759 
L 1844 884 
z
" transform="scale(0.015625)"/>
      <path id="DejaVuSans-Bold-30" d="M 2944 2338 
Q 2944 3213 2780 3570 
Q 2616 3928 2228 3928 
Q 1841 3928 1675 3570 
Q 1509 3213 1509 2338 
Q 1509 1453 1675 1090 
Q 1841 728 2228 728 
Q 2613 728 2778 1090 
Q 2944 1453 2944 2338 
z
M 4147 2328 
Q 4147 1169 3647 539 
Q 3147 -91 2228 -91 
Q 1306 -91 806 539 
Q 306 1169 306 2328 
Q 306 3491 806 4120 
Q 1306 4750 2228 4750 
Q 3147 4750 3647 4120 
Q 4147 3491 4147 2328 
z
" transform="scale(0.015625)"/>
      <path id="DejaVuSans-Bold-2d" d="M 347 2297 
L 2309 2297 
L 2309 1388 
L 347 1388 
L 347 2297 
z
" transform="scale(0.015625)"/>
      <path id="DejaVuSans-Bold-39" d="M 641 103 
L 641 966 
Q 928 831 1190 764 
Q 1453 697 1709 697 
Q 2247 697 2547 995 
Q 2847 1294 2900 1881 
Q 2688 1725 2447 1647 
Q 2206 1569 1925 1569 
Q 1209 1569 770 1986 
Q 331 2403 331 3084 
Q 331 3838 820 4291 
Q 1309 4744 2131 4744 
Q 3044 4744 3544 4128 
Q 4044 3513 4044 2388 
Q 4044 1231 3459 570 
Q 2875 -91 1856 -91 
Q 1528 -91 1228 -42 
Q 928 6 641 103 
z
M 2125 2350 
Q 2441 2350 2600 2554 
Q 2759 2759 2759 3169 
Q 2759 3575 2600 3781 
Q 2441 3988 2125 3988 
Q 1809 3988 1650 3781 
Q 1491 3575 1491 3169 
Q 1491 2759 1650 2554 
Q 1809 2350 2125 2350 
z
" transform="scale(0.015625)"/>
      <path id="DejaVuSans-Bold-7e" d="M 4684 2656 
L 4684 1894 
Q 4353 1644 4073 1536 
Q 3794 1428 3494 1428 
Q 3159 1428 2713 1609 
Q 2669 1628 2644 1638 
Q 2622 1647 2575 1666 
Q 2091 1856 1797 1856 
Q 1522 1856 1253 1736 
Q 984 1616 678 1356 
L 678 2119 
Q 1013 2369 1291 2476 
Q 1569 2584 1869 2584 
Q 2203 2584 2650 2403 
Q 2697 2384 2719 2375 
Q 2741 2366 2788 2347 
Q 3272 2156 3566 2156 
Q 3834 2156 4098 2273 
Q 4363 2391 4684 2656 
z
" transform="scale(0.015625)"/>
      <path id="DejaVuSans-Bold-36" d="M 2316 2303 
Q 2000 2303 1842 2098 
Q 1684 1894 1684 1484 
Q 1684 1075 1842 870 
Q 2000 666 2316 666 
Q 2634 666 2792 870 
Q 2950 1075 2950 1484 
Q 2950 1894 2792 2098 
Q 2634 2303 2316 2303 
z
M 3803 4544 
L 3803 3681 
Q 3506 3822 3243 3889 
Q 2981 3956 2731 3956 
Q 2194 3956 1894 3657 
Q 1594 3359 1544 2772 
Q 1750 2925 1990 3001 
Q 2231 3078 2516 3078 
Q 3231 3078 3670 2659 
Q 4109 2241 4109 1563 
Q 4109 813 3618 361 
Q 3128 -91 2303 -91 
Q 1394 -91 895 523 
Q 397 1138 397 2266 
Q 397 3422 980 4083 
Q 1563 4744 2578 4744 
Q 2900 4744 3203 4694 
Q 3506 4644 3803 4544 
z
" transform="scale(0.015625)"/>
      <path id="DejaVuSans-Bold-7c" d="M 1522 4891 
L 1522 -1509 
L 813 -1509 
L 813 4891 
L 1522 4891 
z
" transform="scale(0.015625)"/>
      <path id="DejaVuSans-Bold-6700" d="M 319 -1131 
L 319 4513 
L 3519 4513 
L 3519 -1131 
L 319 -1131 
z
M 678 -775 
L 3163 -775 
L 3163 4153 
L 678 4153 
L 678 -775 
z
" transform="scale(0.015625)"/>
      <path id="DejaVuSans-Bold-8fd1" d="M 319 -1131 
L 319 4513 
L 3519 4513 
L 3519 -1131 
L 319 -1131 
z
M 678 -775 
L 3163 -775 
L 3163 4153 
L 678 4153 
L 678 -775 
z
" transform="scale(0.015625)"/>
      <path id="DejaVuSans-Bold-5e74" d="M 319 -1131 
L 319 4513 
L 3519 4513 
L 3519 -1131 
L 319 -1131 
z
M 678 -775 
L 3163 -775 
L 3163 4153 
L 678 4153 
L 678 -775 
z
" transform="scale(0.015625)"/>
     </defs>
     <use xlink:href="#DejaVuSans-Bold-28"/>
     <use xlink:href="#DejaVuSans-Bold-9577" x="45.703125"/>
     <use xlink:href="#DejaVuSans-Bold-671f" x="105.712891"/>
     <use xlink:href="#DejaVuSans-Bold-8cc7" x="165.722656"/>
     <use xlink:href="#DejaVuSans-Bold-6599" x="225.732422"/>
     <use xlink:href="#DejaVuSans-Bold-3a" x="285.742188"/>
     <use xlink:href="#DejaVuSans-Bold-20" x="325.732422"/>
     <use xlink:href="#DejaVuSans-Bold-31" x="360.546875"/>
     <use xlink:href="#DejaVuSans-Bold-31" x="430.126953"/>
     <use xlink:href="#DejaVuSans-Bold-34" x="499.707031"/>
     <use xlink:href="#DejaVuSans-Bold-20" x="569.287109"/>
     <use xlink:href="#DejaVuSans-Bold-9ede" x="604.101562"/>
     <use xlink:href="#DejaVuSans-Bold-2c" x="664.111328"/>
     <use xlink:href="#DejaVuSans-Bold-20" x="702.099609"/>
     <use xlink:href="#DejaVuSans-Bold-32" x="736.914062"/>
     <use xlink:href="#DejaVuSans-Bold-30" x="806.494141"/>
     <use xlink:href="#DejaVuSans-Bold-32" x="876.074219"/>
     <use xlink:href="#DejaVuSans-Bold-35" x="945.654297"/>
     <use xlink:href="#DejaVuSans-Bold-2d" x="1015.234375"/>
     <use xlink:href="#DejaVuSans-Bold-30" x="1056.738281"/>
     <use xlink:href="#DejaVuSans-Bold-37" x="1126.318359"/>
     <use xlink:href="#DejaVuSans-Bold-2d" x="1195.898438"/>
     <use xlink:href="#DejaVuSans-Bold-32" x="1237.402344"/>
     <use xlink:href="#DejaVuSans-Bold-39" x="1306.982422"/>
     <use xlink:href="#DejaVuSans-Bold-20" x="1376.5625"/>
     <use xlink:href="#DejaVuSans-Bold-7e" x="1411.376953"/>
     <use xlink:href="#DejaVuSans-Bold-20" x="1495.166016"/>
     <use xlink:href="#DejaVuSans-Bold-32" x="1529.980469"/>
     <use xlink:href="#DejaVuSans-Bold-30" x="1599.560547"/>
     <use xlink:href="#DejaVuSans-Bold-32" x="1669.140625"/>
     <use xlink:href="#DejaVuSans-Bold-36" x="1738.720703"/>
     <use xlink:href="#DejaVuSans-Bold-2d" x="1808.300781"/>
     <use xlink:href="#DejaVuSans-Bold-30" x="1849.804688"/>
     <use xlink:href="#DejaVuSans-Bold-31" x="1919.384766"/>
     <use xlink:href="#DejaVuSans-Bold-2d" x="1988.964844"/>
     <use xlink:href="#DejaVuSans-Bold-31" x="2030.46875"/>
     <use xlink:href="#DejaVuSans-Bold-32" x="2100.048828"/>
     <use xlink:href="#DejaVuSans-Bold-20" x="2169.628906"/>
     <use xlink:href="#DejaVuSans-Bold-7c" x="2204.443359"/>
     <use xlink:href="#DejaVuSans-Bold-20" x="2240.966797"/>
     <use xlink:href="#DejaVuSans-Bold-65e5" x="2275.78125"/>
     <use xlink:href="#DejaVuSans-Bold-8cc7" x="2335.791016"/>
     <use xlink:href="#DejaVuSans-Bold-6599" x="2395.800781"/>
     <use xlink:href="#DejaVuSans-Bold-3a" x="2455.810547"/>
     <use xlink:href="#DejaVuSans-Bold-20" x="2495.800781"/>
     <use xlink:href="#DejaVuSans-Bold-6700" x="2530.615234"/>
     <use xlink:href="#DejaVuSans-Bold-8fd1" x="2590.625"/>
     <use xlink:href="#DejaVuSans-Bold-31" x="2650.634766"/>
     <use xlink:href="#DejaVuSans-Bold-5e74" x="2720.214844"/>
     <use xlink:href="#DejaVuSans-Bold-29" x="2780.224609"/>
    </g>
    <!--  -->
    <g transform="translate(688.30125 46.622094) scale(0.13 -0.13)"/>
    <!-- 最新融資餘額: 0.0 億元 | 最新收盤價: 57.00 元 | 歷史區間: 0.0~3.4 億元 | 平均: 0.4 億元 -->
    <g transform="translate(473.415313 61.2475) scale(0.13 -0.13)">
     <defs>
      <path id="DejaVuSans-Bold-65b0" d="M 319 -1131 
L 319 4513 
L 3519 4513 
L 3519 -1131 
L 319 -1131 
z
M 678 -775 
L 3163 -775 
L 3163 4153 
L 678 4153 
L 678 -775 
z
" transform="scale(0.015625)"/>
      <path id="DejaVuSans-Bold-2e" d="M 653 1209 
L 1778 1209 
L 1778 0 
L 653 0 
L 653 1209 
z
" transform="scale(0.015625)"/>
      <path id="DejaVuSans-Bold-6b77" d="M 319 -1131 
L 319 4513 
L 3519 4513 
L 3519 -1131 
L 319 -1131 
z
M 678 -775 
L 3163 -775 
L 3163 4153 
L 678 4153 
L 678 -775 
z
" transform="scale(0.015625)"/>
      <path id="DejaVuSans-Bold-53f2" d="M 319 -1131 
L 319 4513 
L 3519 4513 
L 3519 -1131 
L 319 -1131 
z
M 678 -775 
L 3163 -775 
L 3163 4153 
L 678 4153 
L 678 -775 
z
" transform="scale(0.015625)"/>
      <path id="DejaVuSans-Bold-5340" d="M 319 -1131 
L 319 4513 
L 3519 4513 
L 3519 -1131 
L 319 -1131 
z
M 678 -775 
L 3163 -775 
L 3163 4153 
L 678 4153 
L 678 -775 
z
" transform="scale(0.015625)"/>
      <path id="DejaVuSans-Bold-9593" d="M 319 -1131 
L 319 4513 
L 3519 4513 
L 3519 -1131 
L 319 -1131 
z
M 678 -775 
L 3163 -775 
L 3163 4153 
L 678 4153 
L 678 -775 
z
" transform="scale(0.015625)"/>
      <path id="DejaVuSans-Bold-33" d="M 2981 2516 
Q 3453 2394 3698 2092 
Q 3944 1791 3944 1325 
Q 3944 631 3412 270 
Q 2881 -91 1863 -91 
Q 1503 -91 1142 -33 
Q 781 25 428 141 
L 428 1069 
Q 766 900 1098 814 
Q 1431 728 1753 728 
Q 2231 728 2486 893 
Q 2741 1059 2741 1369 
Q 2741 1688 2480 1852 
Q 2219 2016 1709 2016 
L 1228 2016 
L 1228 2791 
L 1734 2791 
Q 2188 2791 2409 2933 
Q 2631 3075 2631 3366 
Q 2631 3634 2415 3781 
Q 2200 3928 1806 3928 
Q 1516 3928 1219 3862 
Q 922 3797 628 3669 
L 628 4550 
Q 984 4650 1334 4700 
Q 1684 4750 2022 4750 
Q 2931 4750 3382 4451 
Q 3834 4153 3834 3553 
Q 3834 3144 3618 2883 
Q 3403 2622 2981 2516 
z
" transform="scale(0.015625)"/>
      <path id="DejaVuSans-Bold-5e73" d="M 319 -1131 
L 319 4513 
L 3519 4513 
L 3519 -1131 
L 319 -1131 
z
M 678 -775 
L 3163 -775 
L 3163 4153 
L 678 4153 
L 678 -775 
z
" transform="scale(0.015625)"/>
      <path id="DejaVuSans-Bold-5747" d="M 319 -1131 
L 319 4513 
L 3519 4513 
L 3519 -1131 
L 319 -1131 
z
M 678 -775 
L 3163 -775 
L 3163 4153 
L 678 4153 
L 678 -775 
z
" transform="scale(0.015625)"/>
     </defs>
     <use xlink:href="#DejaVuSans-Bold-6700"/>
     <use xlink:href="#DejaVuSans-Bold-65b0" x="60.009766"/>
     <use xlink:href="#DejaVuSans-Bold-878d" x="120.019531"/>
     <use xlink:href="#DejaVuSans-Bold-8cc7" x="180.029297"/>
     <use xlink:href="#DejaVuSans-Bold-9918" x="240.039062"/>
     <use xlink:href="#DejaVuSans-Bold-984d" x="300.048828"/>
     <use xlink:href="#DejaVuSans-Bold-3a" x="360.058594"/>
     <use xlink:href="#DejaVuSans-Bold-20" x="400.048828"/>
     <use xlink:href="#DejaVuSans-Bold-30" x="434.863281"/>
     <use xlink:href="#DejaVuSans-Bold-2e" x="504.443359"/>
     <use xlink:href="#DejaVuSans-Bold-30" x="542.431641"/>
     <use xlink:href="#DejaVuSans-Bold-20" x="612.011719"/>
     <use xlink:href="#DejaVuSans-Bold-5104" x="646.826172"/>
     <use xlink:href="#DejaVuSans-Bold-5143" x="706.835938"/>
     <use xlink:href="#DejaVuSans-Bold-20" x="766.845703"/>
     <use xlink:href="#DejaVuSans-Bold-7c" x="801.660156"/>
     <use xlink:href="#DejaVuSans-Bold-20" x="838.183594"/>
     <use xlink:href="#DejaVuSans-Bold-6700" x="872.998047"/>
     <use xlink:href="#DejaVuSans-Bold-65b0" x="933.007812"/>
     <use xlink:href="#DejaVuSans-Bold-6536" x="993.017578"/>
     <use xlink:href="#DejaVuSans-Bold-76e4" x="1053.027344"/>
     <use xlink:href="#DejaVuSans-Bold-50f9" x="1113.037109"/>
     <use xlink:href="#DejaVuSans-Bold-3a" x="1173.046875"/>
     <use xlink:href="#DejaVuSans-Bold-20" x="1213.037109"/>
     <use xlink:href="#DejaVuSans-Bold-35" x="1247.851562"/>
     <use xlink:href="#DejaVuSans-Bold-37" x="1317.431641"/>
     <use xlink:href="#DejaVuSans-Bold-2e" x="1387.011719"/>
     <use xlink:href="#DejaVuSans-Bold-30" x="1425"/>
     <use xlink:href="#DejaVuSans-Bold-30" x="1494.580078"/>
     <use xlink:href="#DejaVuSans-Bold-20" x="1564.160156"/>
     <use xlink:href="#DejaVuSans-Bold-5143" x="1598.974609"/>
     <use xlink:href="#DejaVuSans-Bold-20" x="1658.984375"/>
     <use xlink:href="#DejaVuSans-Bold-7c" x="1693.798828"/>
     <use xlink:href="#DejaVuSans-Bold-20" x="1730.322266"/>
     <use xlink:href="#DejaVuSans-Bold-6b77" x="1765.136719"/>
     <use xlink:href="#DejaVuSans-Bold-53f2" x="1825.146484"/>
     <use xlink:href="#DejaVuSans-Bold-5340" x="1885.15625"/>
     <use xlink:href="#DejaVuSans-Bold-9593" x="1945.166016"/>
     <use xlink:href="#DejaVuSans-Bold-3a" x="2005.175781"/>
     <use xlink:href="#DejaVuSans-Bold-20" x="2045.166016"/>
     <use xlink:href="#DejaVuSans-Bold-30" x="2079.980469"/>
     <use xlink:href="#DejaVuSans-Bold-2e" x="2149.560547"/>
     <use xlink:href="#DejaVuSans-Bold-30" x="2187.548828"/>
     <use xlink:href="#DejaVuSans-Bold-7e" x="2257.128906"/>
     <use xlink:href="#DejaVuSans-Bold-33" x="2340.917969"/>
     <use xlink:href="#DejaVuSans-Bold-2e" x="2410.498047"/>
     <use xlink:href="#DejaVuSans-Bold-34" x="2448.486328"/>
     <use xlink:href="#DejaVuSans-Bold-20" x="2518.066406"/>
     <use xlink:href="#DejaVuSans-Bold-5104" x="2552.880859"/>
     <use xlink:href="#DejaVuSans-Bold-5143" x="2612.890625"/>
     <use xlink:href="#DejaVuSans-Bold-20" x="2672.900391"/>
     <use xlink:href="#DejaVuSans-Bold-7c" x="2707.714844"/>
     <use xlink:href="#DejaVuSans-Bold-20" x="2744.238281"/>
     <use xlink:href="#DejaVuSans-Bold-5e73" x="2779.052734"/>
     <use xlink:href="#DejaVuSans-Bold-5747" x="2839.0625"/>
     <use xlink:href="#DejaVuSans-Bold-3a" x="2899.072266"/>
     <use xlink:href="#DejaVuSans-Bold-20" x="2939.0625"/>
     <use xlink:href="#DejaVuSans-Bold-30" x="2973.876953"/>
     <use xlink:href="#DejaVuSans-Bold-2e" x="3043.457031"/>
     <use xlink:href="#DejaVuSans-Bold-34" x="3081.445312"/>
     <use xlink:href="#DejaVuSans-Bold-20" x="3151.025391"/>
     <use xlink:href="#DejaVuSans-Bold-5104" x="3185.839844"/>
     <use xlink:href="#DejaVuSans-Bold-5143" x="3245.849609"/>
    </g>
    <!-- 市值: 19 億元 (當前) | 融資餘額/市值: 0.05% (🟢 低風險) *註:比率使用當前市值估算 -->
    <g transform="translate(503.185313 76.234469) scale(0.13 -0.13)">
     <defs>
      <path id="DejaVuSans-Bold-7576" d="M 319 -1131 
L 319 4513 
L 3519 4513 
L 3519 -1131 
L 319 -1131 
z
M 678 -775 
L 3163 -775 
L 3163 4153 
L 678 4153 
L 678 -775 
z
" transform="scale(0.015625)"/>
      <path id="DejaVuSans-Bold-524d" d="M 319 -1131 
L 319 4513 
L 3519 4513 
L 3519 -1131 
L 319 -1131 
z
M 678 -775 
L 3163 -775 
L 3163 4153 
L 678 4153 
L 678 -775 
z
" transform="scale(0.015625)"/>
      <path id="DejaVuSans-Bold-1f7e2" d="M 319 -1131 
L 319 4513 
L 3519 4513 
L 3519 -1131 
L 319 -1131 
z
M 678 -775 
L 3163 -775 
L 3163 4153 
L 678 4153 
L 678 -775 
z
" transform="scale(0.015625)"/>
      <path id="DejaVuSans-Bold-4f4e" d="M 319 -1131 
L 319 4513 
L 3519 4513 
L 3519 -1131 
L 319 -1131 
z
M 678 -775 
L 3163 -775 
L 3163 4153 
L 678 4153 
L 678 -775 
z
" transform="scale(0.015625)"/>
      <path id="DejaVuSans-Bold-98a8" d="M 319 -1131 
L 319 4513 
L 3519 4513 
L 3519 -1131 
L 319 -1131 
z
M 678 -775 
L 3163 -775 
L 3163 4153 
L 678 4153 
L 678 -775 
z
" transform="scale(0.015625)"/>
      <path id="DejaVuSans-Bold-96aa" d="M 319 -1131 
L 319 4513 
L 3519 4513 
L 3519 -1131 
L 319 -1131 
z
M 678 -775 
L 3163 -775 
L 3163 4153 
L 678 4153 
L 678 -775 
z
" transform="scale(0.015625)"/>
      <path id="DejaVuSans-Bold-2a" d="M 3219 3803 
L 2188 3263 
L 3219 2719 
L 2981 2278 
L 1941 2853 
L 1941 1778 
L 1409 1778 
L 1409 2853 
L 366 2278 
L 128 2719 
L 1172 3263 
L 128 3803 
L 366 4244 
L 1409 3675 
L 1409 4750 
L 1941 4750 
L 1941 3675 
L 2981 4244 
L 3219 3803 
z
" transform="scale(0.015625)"/>
      <path id="DejaVuSans-Bold-8a3b" d="M 319 -1131 
L 319 4513 
L 3519 4513 
L 3519 -1131 
L 319 -1131 
z
M 678 -775 
L 3163 -775 
L 3163 4153 
L 678 4153 
L 678 -775 
z
" transform="scale(0.015625)"/>
      <path id="DejaVuSans-Bold-6bd4" d="M 319 -1131 
L 319 4513 
L 3519 4513 
L 3519 -1131 
L 319 -1131 
z
M 678 -775 
L 3163 -775 
L 3163 4153 
L 678 4153 
L 678 -775 
z
" transform="scale(0.015625)"/>
      <path id="DejaVuSans-Bold-7387" d="M 319 -1131 
L 319 4513 
L 3519 4513 
L 3519 -1131 
L 319 -1131 
z
M 678 -775 
L 3163 -775 
L 3163 4153 
L 678 4153 
L 678 -775 
z
" transform="scale(0.015625)"/>
      <path id="DejaVuSans-Bold-4f7f" d="M 319 -1131 
L 319 4513 
L 3519 4513 
L 3519 -1131 
L 319 -1131 
z
M 678 -775 
L 3163 -775 
L 3163 4153 
L 678 4153 
L 678 -775 
z
" transform="scale(0.015625)"/>
      <path id="DejaVuSans-Bold-7528" d="M 319 -1131 
L 319 4513 
L 3519 4513 
L 3519 -1131 
L 319 -1131 
z
M 678 -775 
L 3163 -775 
L 3163 4153 
L 678 4153 
L 678 -775 
z
" transform="scale(0.015625)"/>
      <path id="DejaVuSans-Bold-4f30" d="M 319 -1131 
L 319 4513 
L 3519 4513 
L 3519 -1131 
L 319 -1131 
z
M 678 -775 
L 3163 -775 
L 3163 4153 
L 678 4153 
L 678 -775 
z
" transform="scale(0.015625)"/>
      <path id="DejaVuSans-Bold-7b97" d="M 319 -1131 
L 319 4513 
L 3519 4513 
L 3519 -1131 
L 319 -1131 
z
M 678 -775 
L 3163 -775 
L 3163 4153 
L 678 4153 
L 678 -775 
z
" transform="scale(0.015625)"/>
     </defs>
     <use xlink:href="#DejaVuSans-Bold-5e02"/>
     <use xlink:href="#DejaVuSans-Bold-503c" x="60.009766"/>
     <use xlink:href="#DejaVuSans-Bold-3a" x="120.019531"/>
     <use xlink:href="#DejaVuSans-Bold-20" x="160.009766"/>
     <use xlink:href="#DejaVuSans-Bold-31" x="194.824219"/>
     <use xlink:href="#DejaVuSans-Bold-39" x="264.404297"/>
     <use xlink:href="#DejaVuSans-Bold-20" x="333.984375"/>
     <use xlink:href="#DejaVuSans-Bold-5104" x="368.798828"/>
     <use xlink:href="#DejaVuSans-Bold-5143" x="428.808594"/>
     <use xlink:href="#DejaVuSans-Bold-20" x="488.818359"/>
     <use xlink:href="#DejaVuSans-Bold-28" x="523.632812"/>
     <use xlink:href="#DejaVuSans-Bold-7576" x="569.335938"/>
     <use xlink:href="#DejaVuSans-Bold-524d" x="629.345703"/>
     <use xlink:href="#DejaVuSans-Bold-29" x="689.355469"/>
     <use xlink:href="#DejaVuSans-Bold-20" x="735.058594"/>
     <use xlink:href="#DejaVuSans-Bold-7c" x="769.873047"/>
     <use xlink:href="#DejaVuSans-Bold-20" x="806.396484"/>
     <use xlink:href="#DejaVuSans-Bold-878d" x="841.210938"/>
     <use xlink:href="#DejaVuSans-Bold-8cc7" x="901.220703"/>
     <use xlink:href="#DejaVuSans-Bold-9918" x="961.230469"/>
     <use xlink:href="#DejaVuSans-Bold-984d" x="1021.240234"/>
     <use xlink:href="#DejaVuSans-Bold-2f" x="1081.25"/>
     <use xlink:href="#DejaVuSans-Bold-5e02" x="1117.773438"/>
     <use xlink:href="#DejaVuSans-Bold-503c" x="1177.783203"/>
     <use xlink:href="#DejaVuSans-Bold-3a" x="1237.792969"/>
     <use xlink:href="#DejaVuSans-Bold-20" x="1277.783203"/>
     <use xlink:href="#DejaVuSans-Bold-30" x="1312.597656"/>
     <use xlink:href="#DejaVuSans-Bold-2e" x="1382.177734"/>
     <use xlink:href="#DejaVuSans-Bold-30" x="1420.166016"/>
     <use xlink:href="#DejaVuSans-Bold-35" x="1489.746094"/>
     <use xlink:href="#DejaVuSans-Bold-25" x="1559.326172"/>
     <use xlink:href="#DejaVuSans-Bold-20" x="1659.521484"/>
     <use xlink:href="#DejaVuSans-Bold-28" x="1694.335938"/>
     <use xlink:href="#DejaVuSans-Bold-1f7e2" x="1740.039062"/>
     <use xlink:href="#DejaVuSans-Bold-20" x="1800.048828"/>
     <use xlink:href="#DejaVuSans-Bold-4f4e" x="1834.863281"/>
     <use xlink:href="#DejaVuSans-Bold-98a8" x="1894.873047"/>
     <use xlink:href="#DejaVuSans-Bold-96aa" x="1954.882812"/>
     <use xlink:href="#DejaVuSans-Bold-29" x="2014.892578"/>
     <use xlink:href="#DejaVuSans-Bold-20" x="2060.595703"/>
     <use xlink:href="#DejaVuSans-Bold-2a" x="2095.410156"/>
     <use xlink:href="#DejaVuSans-Bold-8a3b" x="2147.705078"/>
     <use xlink:href="#DejaVuSans-Bold-3a" x="2207.714844"/>
     <use xlink:href="#DejaVuSans-Bold-6bd4" x="2247.705078"/>
     <use xlink:href="#DejaVuSans-Bold-7387" x="2307.714844"/>
     <use xlink:href="#DejaVuSans-Bold-4f7f" x="2367.724609"/>
     <use xlink:href="#DejaVuSans-Bold-7528" x="2427.734375"/>
     <use xlink:href="#DejaVuSans-Bold-7576" x="2487.744141"/>
     <use xlink:href="#DejaVuSans-Bold-524d" x="2547.753906"/>
     <use xlink:href="#DejaVuSans-Bold-5e02" x="2607.763672"/>
     <use xlink:href="#DejaVuSans-Bold-503c" x="2667.773438"/>
     <use xlink:href="#DejaVuSans-Bold-4f30" x="2727.783203"/>
     <use xlink:href="#DejaVuSans-Bold-7b97" x="2787.792969"/>
    </g>
   </g>
   <g id="line2d_36">
    <path d="M 112.203057 471.074682 
L 119.102437 564.599489 
L 126.001816 570.497854 
L 132.901196 582.023038 
L 153.599335 588.63319 
L 160.498714 569.294563 
L 167.398094 610.828052 
L 174.297473 424.787399 
L 181.196853 513.575282 
L 201.894992 499.436857 
L 208.794371 562.957252 
L 215.693751 522.890162 
L 222.59313 552.776158 
L 229.49251 580.146891 
L 250.190648 530.780169 
L 257.090028 563.818599 
L 263.989408 587.540204 
L 270.888787 599.667196 
L 277.788167 544.078983 
L 298.486305 582.672536 
L 305.385685 616.039609 
L 312.285064 619.362366 
L 319.184444 629.141822 
L 326.083824 615.698963 
L 346.781962 612.770707 
L 353.681342 630.307934 
L 360.580721 623.202256 
L 367.480101 619.009392 
L 374.37948 630.857055 
L 395.077619 634.362463 
L 401.976999 628.328165 
L 408.876378 627.621439 
L 415.775758 609.052152 
L 422.675137 633.26461 
L 443.373276 633.872517 
L 450.272655 640.38638 
L 457.172035 634.929558 
L 464.071415 639.189902 
L 470.970794 640.176153 
L 491.668933 638.53132 
L 498.568312 633.607722 
L 505.467692 617.253606 
L 512.367071 635.63304 
L 519.266451 634.60124 
L 546.863969 640.491753 
L 553.763349 631.569297 
L 560.662728 610.290805 
L 567.562108 634.638614 
L 595.159626 639.047155 
L 602.059006 637.606515 
L 608.958385 631.798211 
L 636.555903 613.938895 
L 643.455283 632.790951 
L 650.354662 640.768682 
L 657.254042 638.341531 
L 664.153422 640.035093 
L 684.85156 639.611654 
L 691.75094 638.010943 
L 698.650319 634.260983 
L 705.549699 641.192251 
L 733.147217 639.293718 
L 740.046597 639.195287 
L 746.945976 639.397534 
L 753.845356 639.179196 
L 760.744735 641.160327 
L 781.442874 642.512659 
L 788.342254 638.028202 
L 795.241633 639.66194 
L 802.141013 642.567162 
L 809.040392 632.919228 
L 829.738531 638.413748 
L 836.63791 638.477984 
L 843.53729 639.892346 
L 850.436669 638.477984 
L 857.336049 641.580587 
L 878.034188 632.480022 
L 884.933567 635.267738 
L 891.832947 641.732223 
L 898.732326 641.419997 
L 905.631706 642.349279 
L 926.329845 641.094923 
L 933.229224 640.815918 
L 940.128604 641.490008 
L 947.027983 642.589872 
L 953.927363 641.634247 
L 974.625501 642.876014 
L 981.524881 643.127119 
L 988.424261 642.858496 
L 995.32364 643.150478 
L 1002.22302 639.546769 
L 1022.921158 640.245255 
L 1029.820538 643.271164 
L 1036.719917 617.374292 
L 1043.619297 638.927248 
L 1050.518676 642.312684 
L 1071.216815 642.667734 
L 1078.116195 643.822686 
L 1085.015574 643.75235 
L 1091.914954 643.477887 
L 1098.814333 643.243588 
L 1119.512472 643.127638 
L 1126.411852 643.657229 
L 1133.311231 643.781743 
L 1147.10999 643.10947 
L 1167.808129 641.43784 
L 1174.707508 640.13268 
L 1181.606888 639.859839 
L 1195.405647 641.986442 
L 1216.103786 642.69531 
L 1223.003165 637.34996 
L 1229.902545 642.14009 
L 1236.801924 642.704329 
L 1243.701304 642.732619 
L 1264.399443 643.559253 
" clip-path="url(#p10bfc41839)" style="fill: none; stroke: #ff0000; stroke-width: 2.5; stroke-linecap: square"/>
   </g>
  </g>
 </g>
 <defs>
  <clipPath id="p10bfc41839">
   <rect x="48.90125" y="96.234469" width="1278.8" height="547.990503"/>
  </clipPath>
 </defs>
</svg>
