<?xml version="1.0" encoding="utf-8" standalone="no"?>
<!DOCTYPE svg PUBLIC "-//W3C//DTD SVG 1.1//EN"
  "http://www.w3.org/Graphics/SVG/1.1/DTD/svg11.dtd">
<svg xmlns:xlink="http://www.w3.org/1999/xlink" width="1430.240625pt" height="709.728888pt" viewBox="0 0 1430.240625 709.728888" xmlns="http://www.w3.org/2000/svg" version="1.1">
 <metadata>
  <rdf:RDF xmlns:dc="http://purl.org/dc/elements/1.1/" xmlns:cc="http://creativecommons.org/ns#" xmlns:rdf="http://www.w3.org/1999/02/22-rdf-syntax-ns#">
   <cc:Work>
    <dc:type rdf:resource="http://purl.org/dc/dcmitype/StillImage"/>
    <dc:date>2026-01-11T12:09:02.895293</dc:date>
    <dc:format>image/svg+xml</dc:format>
    <dc:creator>
     <cc:Agent>
      <dc:title>Matplotlib v3.9.4, https://matplotlib.org/</dc:title>
     </cc:Agent>
    </dc:creator>
   </cc:Work>
  </rdf:RDF>
 </metadata>
 <defs>
  <style type="text/css">*{stroke-linejoin: round; stroke-linecap: butt}</style>
 </defs>
 <g id="figure_1">
  <g id="patch_1">
   <path d="M 0 709.728888 
L 1430.240625 709.728888 
L 1430.240625 0 
L 0 0 
z
" style="fill: #ffffff"/>
  </g>
  <g id="axes_1">
   <g id="patch_2">
    <path d="M 42.53875 652.693736 
L 1371.79875 652.693736 
L 1371.79875 80.817687 
L 42.53875 80.817687 
z
" style="fill: #ffffff"/>
   </g>
   <g id="matplotlib.axis_1">
    <g id="xtick_1">
     <g id="line2d_1">
      <defs>
       <path id="m31ed293f8d" d="M 0 0 
L 0 3.5 
" style="stroke: #000000; stroke-width: 0.8"/>
      </defs>
      <g>
       <use xlink:href="#m31ed293f8d" x="73.861771" y="652.693736" style="stroke: #000000; stroke-width: 0.8"/>
      </g>
     </g>
     <g id="text_1">
      <!-- 07/13 -->
      <g transform="translate(52.013276 685.444576) rotate(-45) scale(0.1 -0.1)">
       <defs>
        <path id="DejaVuSans-30" d="M 2034 4250 
Q 1547 4250 1301 3770 
Q 1056 3291 1056 2328 
Q 1056 1369 1301 889 
Q 1547 409 2034 409 
Q 2525 409 2770 889 
Q 3016 1369 3016 2328 
Q 3016 3291 2770 3770 
Q 2525 4250 2034 4250 
z
M 2034 4750 
Q 2819 4750 3233 4129 
Q 3647 3509 3647 2328 
Q 3647 1150 3233 529 
Q 2819 -91 2034 -91 
Q 1250 -91 836 529 
Q 422 1150 422 2328 
Q 422 3509 836 4129 
Q 1250 4750 2034 4750 
z
" transform="scale(0.015625)"/>
        <path id="DejaVuSans-37" d="M 525 4666 
L 3525 4666 
L 3525 4397 
L 1831 0 
L 1172 0 
L 2766 4134 
L 525 4134 
L 525 4666 
z
" transform="scale(0.015625)"/>
        <path id="DejaVuSans-2f" d="M 1625 4666 
L 2156 4666 
L 531 -594 
L 0 -594 
L 1625 4666 
z
" transform="scale(0.015625)"/>
        <path id="DejaVuSans-31" d="M 794 531 
L 1825 531 
L 1825 4091 
L 703 3866 
L 703 4441 
L 1819 4666 
L 2450 4666 
L 2450 531 
L 3481 531 
L 3481 0 
L 794 0 
L 794 531 
z
" transform="scale(0.015625)"/>
        <path id="DejaVuSans-33" d="M 2597 2516 
Q 3050 2419 3304 2112 
Q 3559 1806 3559 1356 
Q 3559 666 3084 287 
Q 2609 -91 1734 -91 
Q 1441 -91 1130 -33 
Q 819 25 488 141 
L 488 750 
Q 750 597 1062 519 
Q 1375 441 1716 441 
Q 2309 441 2620 675 
Q 2931 909 2931 1356 
Q 2931 1769 2642 2001 
Q 2353 2234 1838 2234 
L 1294 2234 
L 1294 2753 
L 1863 2753 
Q 2328 2753 2575 2939 
Q 2822 3125 2822 3475 
Q 2822 3834 2567 4026 
Q 2313 4219 1838 4219 
Q 1578 4219 1281 4162 
Q 984 4106 628 3988 
L 628 4550 
Q 988 4650 1302 4700 
Q 1616 4750 1894 4750 
Q 2613 4750 3031 4423 
Q 3450 4097 3450 3541 
Q 3450 3153 3228 2886 
Q 3006 2619 2597 2516 
z
" transform="scale(0.015625)"/>
       </defs>
       <use xlink:href="#DejaVuSans-30"/>
       <use xlink:href="#DejaVuSans-37" x="63.623047"/>
       <use xlink:href="#DejaVuSans-2f" x="127.246094"/>
       <use xlink:href="#DejaVuSans-31" x="160.9375"/>
       <use xlink:href="#DejaVuSans-33" x="224.560547"/>
      </g>
     </g>
    </g>
    <g id="xtick_2">
     <g id="line2d_2">
      <g>
       <use xlink:href="#m31ed293f8d" x="121.787704" y="652.693736" style="stroke: #000000; stroke-width: 0.8"/>
      </g>
     </g>
     <g id="text_2">
      <!-- 07/20 -->
      <g transform="translate(99.93921 685.444576) rotate(-45) scale(0.1 -0.1)">
       <defs>
        <path id="DejaVuSans-32" d="M 1228 531 
L 3431 531 
L 3431 0 
L 469 0 
L 469 531 
Q 828 903 1448 1529 
Q 2069 2156 2228 2338 
Q 2531 2678 2651 2914 
Q 2772 3150 2772 3378 
Q 2772 3750 2511 3984 
Q 2250 4219 1831 4219 
Q 1534 4219 1204 4116 
Q 875 4013 500 3803 
L 500 4441 
Q 881 4594 1212 4672 
Q 1544 4750 1819 4750 
Q 2544 4750 2975 4387 
Q 3406 4025 3406 3419 
Q 3406 3131 3298 2873 
Q 3191 2616 2906 2266 
Q 2828 2175 2409 1742 
Q 1991 1309 1228 531 
z
" transform="scale(0.015625)"/>
       </defs>
       <use xlink:href="#DejaVuSans-30"/>
       <use xlink:href="#DejaVuSans-37" x="63.623047"/>
       <use xlink:href="#DejaVuSans-2f" x="127.246094"/>
       <use xlink:href="#DejaVuSans-32" x="160.9375"/>
       <use xlink:href="#DejaVuSans-30" x="224.560547"/>
      </g>
     </g>
    </g>
    <g id="xtick_3">
     <g id="line2d_3">
      <g>
       <use xlink:href="#m31ed293f8d" x="169.713638" y="652.693736" style="stroke: #000000; stroke-width: 0.8"/>
      </g>
     </g>
     <g id="text_3">
      <!-- 07/27 -->
      <g transform="translate(147.865143 685.444576) rotate(-45) scale(0.1 -0.1)">
       <use xlink:href="#DejaVuSans-30"/>
       <use xlink:href="#DejaVuSans-37" x="63.623047"/>
       <use xlink:href="#DejaVuSans-2f" x="127.246094"/>
       <use xlink:href="#DejaVuSans-32" x="160.9375"/>
       <use xlink:href="#DejaVuSans-37" x="224.560547"/>
      </g>
     </g>
    </g>
    <g id="xtick_4">
     <g id="line2d_4">
      <g>
       <use xlink:href="#m31ed293f8d" x="217.639572" y="652.693736" style="stroke: #000000; stroke-width: 0.8"/>
      </g>
     </g>
     <g id="text_4">
      <!-- 08/03 -->
      <g transform="translate(195.791077 685.444576) rotate(-45) scale(0.1 -0.1)">
       <defs>
        <path id="DejaVuSans-38" d="M 2034 2216 
Q 1584 2216 1326 1975 
Q 1069 1734 1069 1313 
Q 1069 891 1326 650 
Q 1584 409 2034 409 
Q 2484 409 2743 651 
Q 3003 894 3003 1313 
Q 3003 1734 2745 1975 
Q 2488 2216 2034 2216 
z
M 1403 2484 
Q 997 2584 770 2862 
Q 544 3141 544 3541 
Q 544 4100 942 4425 
Q 1341 4750 2034 4750 
Q 2731 4750 3128 4425 
Q 3525 4100 3525 3541 
Q 3525 3141 3298 2862 
Q 3072 2584 2669 2484 
Q 3125 2378 3379 2068 
Q 3634 1759 3634 1313 
Q 3634 634 3220 271 
Q 2806 -91 2034 -91 
Q 1263 -91 848 271 
Q 434 634 434 1313 
Q 434 1759 690 2068 
Q 947 2378 1403 2484 
z
M 1172 3481 
Q 1172 3119 1398 2916 
Q 1625 2713 2034 2713 
Q 2441 2713 2670 2916 
Q 2900 3119 2900 3481 
Q 2900 3844 2670 4047 
Q 2441 4250 2034 4250 
Q 1625 4250 1398 4047 
Q 1172 3844 1172 3481 
z
" transform="scale(0.015625)"/>
       </defs>
       <use xlink:href="#DejaVuSans-30"/>
       <use xlink:href="#DejaVuSans-38" x="63.623047"/>
       <use xlink:href="#DejaVuSans-2f" x="127.246094"/>
       <use xlink:href="#DejaVuSans-30" x="160.9375"/>
       <use xlink:href="#DejaVuSans-33" x="224.560547"/>
      </g>
     </g>
    </g>
    <g id="xtick_5">
     <g id="line2d_5">
      <g>
       <use xlink:href="#m31ed293f8d" x="265.565505" y="652.693736" style="stroke: #000000; stroke-width: 0.8"/>
      </g>
     </g>
     <g id="text_5">
      <!-- 08/10 -->
      <g transform="translate(243.71701 685.444576) rotate(-45) scale(0.1 -0.1)">
       <use xlink:href="#DejaVuSans-30"/>
       <use xlink:href="#DejaVuSans-38" x="63.623047"/>
       <use xlink:href="#DejaVuSans-2f" x="127.246094"/>
       <use xlink:href="#DejaVuSans-31" x="160.9375"/>
       <use xlink:href="#DejaVuSans-30" x="224.560547"/>
      </g>
     </g>
    </g>
    <g id="xtick_6">
     <g id="line2d_6">
      <g>
       <use xlink:href="#m31ed293f8d" x="313.491439" y="652.693736" style="stroke: #000000; stroke-width: 0.8"/>
      </g>
     </g>
     <g id="text_6">
      <!-- 08/17 -->
      <g transform="translate(291.642944 685.444576) rotate(-45) scale(0.1 -0.1)">
       <use xlink:href="#DejaVuSans-30"/>
       <use xlink:href="#DejaVuSans-38" x="63.623047"/>
       <use xlink:href="#DejaVuSans-2f" x="127.246094"/>
       <use xlink:href="#DejaVuSans-31" x="160.9375"/>
       <use xlink:href="#DejaVuSans-37" x="224.560547"/>
      </g>
     </g>
    </g>
    <g id="xtick_7">
     <g id="line2d_7">
      <g>
       <use xlink:href="#m31ed293f8d" x="361.417372" y="652.693736" style="stroke: #000000; stroke-width: 0.8"/>
      </g>
     </g>
     <g id="text_7">
      <!-- 08/24 -->
      <g transform="translate(339.568878 685.444576) rotate(-45) scale(0.1 -0.1)">
       <defs>
        <path id="DejaVuSans-34" d="M 2419 4116 
L 825 1625 
L 2419 1625 
L 2419 4116 
z
M 2253 4666 
L 3047 4666 
L 3047 1625 
L 3713 1625 
L 3713 1100 
L 3047 1100 
L 3047 0 
L 2419 0 
L 2419 1100 
L 313 1100 
L 313 1709 
L 2253 4666 
z
" transform="scale(0.015625)"/>
       </defs>
       <use xlink:href="#DejaVuSans-30"/>
       <use xlink:href="#DejaVuSans-38" x="63.623047"/>
       <use xlink:href="#DejaVuSans-2f" x="127.246094"/>
       <use xlink:href="#DejaVuSans-32" x="160.9375"/>
       <use xlink:href="#DejaVuSans-34" x="224.560547"/>
      </g>
     </g>
    </g>
    <g id="xtick_8">
     <g id="line2d_8">
      <g>
       <use xlink:href="#m31ed293f8d" x="409.343306" y="652.693736" style="stroke: #000000; stroke-width: 0.8"/>
      </g>
     </g>
     <g id="text_8">
      <!-- 08/31 -->
      <g transform="translate(387.494811 685.444576) rotate(-45) scale(0.1 -0.1)">
       <use xlink:href="#DejaVuSans-30"/>
       <use xlink:href="#DejaVuSans-38" x="63.623047"/>
       <use xlink:href="#DejaVuSans-2f" x="127.246094"/>
       <use xlink:href="#DejaVuSans-33" x="160.9375"/>
       <use xlink:href="#DejaVuSans-31" x="224.560547"/>
      </g>
     </g>
    </g>
    <g id="xtick_9">
     <g id="line2d_9">
      <g>
       <use xlink:href="#m31ed293f8d" x="457.269239" y="652.693736" style="stroke: #000000; stroke-width: 0.8"/>
      </g>
     </g>
     <g id="text_9">
      <!-- 09/07 -->
      <g transform="translate(435.420745 685.444576) rotate(-45) scale(0.1 -0.1)">
       <defs>
        <path id="DejaVuSans-39" d="M 703 97 
L 703 672 
Q 941 559 1184 500 
Q 1428 441 1663 441 
Q 2288 441 2617 861 
Q 2947 1281 2994 2138 
Q 2813 1869 2534 1725 
Q 2256 1581 1919 1581 
Q 1219 1581 811 2004 
Q 403 2428 403 3163 
Q 403 3881 828 4315 
Q 1253 4750 1959 4750 
Q 2769 4750 3195 4129 
Q 3622 3509 3622 2328 
Q 3622 1225 3098 567 
Q 2575 -91 1691 -91 
Q 1453 -91 1209 -44 
Q 966 3 703 97 
z
M 1959 2075 
Q 2384 2075 2632 2365 
Q 2881 2656 2881 3163 
Q 2881 3666 2632 3958 
Q 2384 4250 1959 4250 
Q 1534 4250 1286 3958 
Q 1038 3666 1038 3163 
Q 1038 2656 1286 2365 
Q 1534 2075 1959 2075 
z
" transform="scale(0.015625)"/>
       </defs>
       <use xlink:href="#DejaVuSans-30"/>
       <use xlink:href="#DejaVuSans-39" x="63.623047"/>
       <use xlink:href="#DejaVuSans-2f" x="127.246094"/>
       <use xlink:href="#DejaVuSans-30" x="160.9375"/>
       <use xlink:href="#DejaVuSans-37" x="224.560547"/>
      </g>
     </g>
    </g>
    <g id="xtick_10">
     <g id="line2d_10">
      <g>
       <use xlink:href="#m31ed293f8d" x="505.195173" y="652.693736" style="stroke: #000000; stroke-width: 0.8"/>
      </g>
     </g>
     <g id="text_10">
      <!-- 09/14 -->
      <g transform="translate(483.346678 685.444576) rotate(-45) scale(0.1 -0.1)">
       <use xlink:href="#DejaVuSans-30"/>
       <use xlink:href="#DejaVuSans-39" x="63.623047"/>
       <use xlink:href="#DejaVuSans-2f" x="127.246094"/>
       <use xlink:href="#DejaVuSans-31" x="160.9375"/>
       <use xlink:href="#DejaVuSans-34" x="224.560547"/>
      </g>
     </g>
    </g>
    <g id="xtick_11">
     <g id="line2d_11">
      <g>
       <use xlink:href="#m31ed293f8d" x="553.121106" y="652.693736" style="stroke: #000000; stroke-width: 0.8"/>
      </g>
     </g>
     <g id="text_11">
      <!-- 09/21 -->
      <g transform="translate(531.272612 685.444576) rotate(-45) scale(0.1 -0.1)">
       <use xlink:href="#DejaVuSans-30"/>
       <use xlink:href="#DejaVuSans-39" x="63.623047"/>
       <use xlink:href="#DejaVuSans-2f" x="127.246094"/>
       <use xlink:href="#DejaVuSans-32" x="160.9375"/>
       <use xlink:href="#DejaVuSans-31" x="224.560547"/>
      </g>
     </g>
    </g>
    <g id="xtick_12">
     <g id="line2d_12">
      <g>
       <use xlink:href="#m31ed293f8d" x="601.04704" y="652.693736" style="stroke: #000000; stroke-width: 0.8"/>
      </g>
     </g>
     <g id="text_12">
      <!-- 09/28 -->
      <g transform="translate(579.198545 685.444576) rotate(-45) scale(0.1 -0.1)">
       <use xlink:href="#DejaVuSans-30"/>
       <use xlink:href="#DejaVuSans-39" x="63.623047"/>
       <use xlink:href="#DejaVuSans-2f" x="127.246094"/>
       <use xlink:href="#DejaVuSans-32" x="160.9375"/>
       <use xlink:href="#DejaVuSans-38" x="224.560547"/>
      </g>
     </g>
    </g>
    <g id="xtick_13">
     <g id="line2d_13">
      <g>
       <use xlink:href="#m31ed293f8d" x="648.972974" y="652.693736" style="stroke: #000000; stroke-width: 0.8"/>
      </g>
     </g>
     <g id="text_13">
      <!-- 10/05 -->
      <g transform="translate(627.124479 685.444576) rotate(-45) scale(0.1 -0.1)">
       <defs>
        <path id="DejaVuSans-35" d="M 691 4666 
L 3169 4666 
L 3169 4134 
L 1269 4134 
L 1269 2991 
Q 1406 3038 1543 3061 
Q 1681 3084 1819 3084 
Q 2600 3084 3056 2656 
Q 3513 2228 3513 1497 
Q 3513 744 3044 326 
Q 2575 -91 1722 -91 
Q 1428 -91 1123 -41 
Q 819 9 494 109 
L 494 744 
Q 775 591 1075 516 
Q 1375 441 1709 441 
Q 2250 441 2565 725 
Q 2881 1009 2881 1497 
Q 2881 1984 2565 2268 
Q 2250 2553 1709 2553 
Q 1456 2553 1204 2497 
Q 953 2441 691 2322 
L 691 4666 
z
" transform="scale(0.015625)"/>
       </defs>
       <use xlink:href="#DejaVuSans-31"/>
       <use xlink:href="#DejaVuSans-30" x="63.623047"/>
       <use xlink:href="#DejaVuSans-2f" x="127.246094"/>
       <use xlink:href="#DejaVuSans-30" x="160.9375"/>
       <use xlink:href="#DejaVuSans-35" x="224.560547"/>
      </g>
     </g>
    </g>
    <g id="xtick_14">
     <g id="line2d_14">
      <g>
       <use xlink:href="#m31ed293f8d" x="696.898907" y="652.693736" style="stroke: #000000; stroke-width: 0.8"/>
      </g>
     </g>
     <g id="text_14">
      <!-- 10/12 -->
      <g transform="translate(675.050412 685.444576) rotate(-45) scale(0.1 -0.1)">
       <use xlink:href="#DejaVuSans-31"/>
       <use xlink:href="#DejaVuSans-30" x="63.623047"/>
       <use xlink:href="#DejaVuSans-2f" x="127.246094"/>
       <use xlink:href="#DejaVuSans-31" x="160.9375"/>
       <use xlink:href="#DejaVuSans-32" x="224.560547"/>
      </g>
     </g>
    </g>
    <g id="xtick_15">
     <g id="line2d_15">
      <g>
       <use xlink:href="#m31ed293f8d" x="744.824841" y="652.693736" style="stroke: #000000; stroke-width: 0.8"/>
      </g>
     </g>
     <g id="text_15">
      <!-- 10/19 -->
      <g transform="translate(722.976346 685.444576) rotate(-45) scale(0.1 -0.1)">
       <use xlink:href="#DejaVuSans-31"/>
       <use xlink:href="#DejaVuSans-30" x="63.623047"/>
       <use xlink:href="#DejaVuSans-2f" x="127.246094"/>
       <use xlink:href="#DejaVuSans-31" x="160.9375"/>
       <use xlink:href="#DejaVuSans-39" x="224.560547"/>
      </g>
     </g>
    </g>
    <g id="xtick_16">
     <g id="line2d_16">
      <g>
       <use xlink:href="#m31ed293f8d" x="792.750774" y="652.693736" style="stroke: #000000; stroke-width: 0.8"/>
      </g>
     </g>
     <g id="text_16">
      <!-- 10/26 -->
      <g transform="translate(770.90228 685.444576) rotate(-45) scale(0.1 -0.1)">
       <defs>
        <path id="DejaVuSans-36" d="M 2113 2584 
Q 1688 2584 1439 2293 
Q 1191 2003 1191 1497 
Q 1191 994 1439 701 
Q 1688 409 2113 409 
Q 2538 409 2786 701 
Q 3034 994 3034 1497 
Q 3034 2003 2786 2293 
Q 2538 2584 2113 2584 
z
M 3366 4563 
L 3366 3988 
Q 3128 4100 2886 4159 
Q 2644 4219 2406 4219 
Q 1781 4219 1451 3797 
Q 1122 3375 1075 2522 
Q 1259 2794 1537 2939 
Q 1816 3084 2150 3084 
Q 2853 3084 3261 2657 
Q 3669 2231 3669 1497 
Q 3669 778 3244 343 
Q 2819 -91 2113 -91 
Q 1303 -91 875 529 
Q 447 1150 447 2328 
Q 447 3434 972 4092 
Q 1497 4750 2381 4750 
Q 2619 4750 2861 4703 
Q 3103 4656 3366 4563 
z
" transform="scale(0.015625)"/>
       </defs>
       <use xlink:href="#DejaVuSans-31"/>
       <use xlink:href="#DejaVuSans-30" x="63.623047"/>
       <use xlink:href="#DejaVuSans-2f" x="127.246094"/>
       <use xlink:href="#DejaVuSans-32" x="160.9375"/>
       <use xlink:href="#DejaVuSans-36" x="224.560547"/>
      </g>
     </g>
    </g>
    <g id="xtick_17">
     <g id="line2d_17">
      <g>
       <use xlink:href="#m31ed293f8d" x="840.676708" y="652.693736" style="stroke: #000000; stroke-width: 0.8"/>
      </g>
     </g>
     <g id="text_17">
      <!-- 11/02 -->
      <g transform="translate(818.828213 685.444576) rotate(-45) scale(0.1 -0.1)">
       <use xlink:href="#DejaVuSans-31"/>
       <use xlink:href="#DejaVuSans-31" x="63.623047"/>
       <use xlink:href="#DejaVuSans-2f" x="127.246094"/>
       <use xlink:href="#DejaVuSans-30" x="160.9375"/>
       <use xlink:href="#DejaVuSans-32" x="224.560547"/>
      </g>
     </g>
    </g>
    <g id="xtick_18">
     <g id="line2d_18">
      <g>
       <use xlink:href="#m31ed293f8d" x="888.602641" y="652.693736" style="stroke: #000000; stroke-width: 0.8"/>
      </g>
     </g>
     <g id="text_18">
      <!-- 11/09 -->
      <g transform="translate(866.754147 685.444576) rotate(-45) scale(0.1 -0.1)">
       <use xlink:href="#DejaVuSans-31"/>
       <use xlink:href="#DejaVuSans-31" x="63.623047"/>
       <use xlink:href="#DejaVuSans-2f" x="127.246094"/>
       <use xlink:href="#DejaVuSans-30" x="160.9375"/>
       <use xlink:href="#DejaVuSans-39" x="224.560547"/>
      </g>
     </g>
    </g>
    <g id="xtick_19">
     <g id="line2d_19">
      <g>
       <use xlink:href="#m31ed293f8d" x="936.528575" y="652.693736" style="stroke: #000000; stroke-width: 0.8"/>
      </g>
     </g>
     <g id="text_19">
      <!-- 11/16 -->
      <g transform="translate(914.68008 685.444576) rotate(-45) scale(0.1 -0.1)">
       <use xlink:href="#DejaVuSans-31"/>
       <use xlink:href="#DejaVuSans-31" x="63.623047"/>
       <use xlink:href="#DejaVuSans-2f" x="127.246094"/>
       <use xlink:href="#DejaVuSans-31" x="160.9375"/>
       <use xlink:href="#DejaVuSans-36" x="224.560547"/>
      </g>
     </g>
    </g>
    <g id="xtick_20">
     <g id="line2d_20">
      <g>
       <use xlink:href="#m31ed293f8d" x="984.454508" y="652.693736" style="stroke: #000000; stroke-width: 0.8"/>
      </g>
     </g>
     <g id="text_20">
      <!-- 11/23 -->
      <g transform="translate(962.606014 685.444576) rotate(-45) scale(0.1 -0.1)">
       <use xlink:href="#DejaVuSans-31"/>
       <use xlink:href="#DejaVuSans-31" x="63.623047"/>
       <use xlink:href="#DejaVuSans-2f" x="127.246094"/>
       <use xlink:href="#DejaVuSans-32" x="160.9375"/>
       <use xlink:href="#DejaVuSans-33" x="224.560547"/>
      </g>
     </g>
    </g>
    <g id="xtick_21">
     <g id="line2d_21">
      <g>
       <use xlink:href="#m31ed293f8d" x="1032.380442" y="652.693736" style="stroke: #000000; stroke-width: 0.8"/>
      </g>
     </g>
     <g id="text_21">
      <!-- 11/30 -->
      <g transform="translate(1010.531947 685.444576) rotate(-45) scale(0.1 -0.1)">
       <use xlink:href="#DejaVuSans-31"/>
       <use xlink:href="#DejaVuSans-31" x="63.623047"/>
       <use xlink:href="#DejaVuSans-2f" x="127.246094"/>
       <use xlink:href="#DejaVuSans-33" x="160.9375"/>
       <use xlink:href="#DejaVuSans-30" x="224.560547"/>
      </g>
     </g>
    </g>
    <g id="xtick_22">
     <g id="line2d_22">
      <g>
       <use xlink:href="#m31ed293f8d" x="1080.306376" y="652.693736" style="stroke: #000000; stroke-width: 0.8"/>
      </g>
     </g>
     <g id="text_22">
      <!-- 12/07 -->
      <g transform="translate(1058.457881 685.444576) rotate(-45) scale(0.1 -0.1)">
       <use xlink:href="#DejaVuSans-31"/>
       <use xlink:href="#DejaVuSans-32" x="63.623047"/>
       <use xlink:href="#DejaVuSans-2f" x="127.246094"/>
       <use xlink:href="#DejaVuSans-30" x="160.9375"/>
       <use xlink:href="#DejaVuSans-37" x="224.560547"/>
      </g>
     </g>
    </g>
    <g id="xtick_23">
     <g id="line2d_23">
      <g>
       <use xlink:href="#m31ed293f8d" x="1128.232309" y="652.693736" style="stroke: #000000; stroke-width: 0.8"/>
      </g>
     </g>
     <g id="text_23">
      <!-- 12/14 -->
      <g transform="translate(1106.383814 685.444576) rotate(-45) scale(0.1 -0.1)">
       <use xlink:href="#DejaVuSans-31"/>
       <use xlink:href="#DejaVuSans-32" x="63.623047"/>
       <use xlink:href="#DejaVuSans-2f" x="127.246094"/>
       <use xlink:href="#DejaVuSans-31" x="160.9375"/>
       <use xlink:href="#DejaVuSans-34" x="224.560547"/>
      </g>
     </g>
    </g>
    <g id="xtick_24">
     <g id="line2d_24">
      <g>
       <use xlink:href="#m31ed293f8d" x="1176.158243" y="652.693736" style="stroke: #000000; stroke-width: 0.8"/>
      </g>
     </g>
     <g id="text_24">
      <!-- 12/21 -->
      <g transform="translate(1154.309748 685.444576) rotate(-45) scale(0.1 -0.1)">
       <use xlink:href="#DejaVuSans-31"/>
       <use xlink:href="#DejaVuSans-32" x="63.623047"/>
       <use xlink:href="#DejaVuSans-2f" x="127.246094"/>
       <use xlink:href="#DejaVuSans-32" x="160.9375"/>
       <use xlink:href="#DejaVuSans-31" x="224.560547"/>
      </g>
     </g>
    </g>
    <g id="xtick_25">
     <g id="line2d_25">
      <g>
       <use xlink:href="#m31ed293f8d" x="1224.084176" y="652.693736" style="stroke: #000000; stroke-width: 0.8"/>
      </g>
     </g>
     <g id="text_25">
      <!-- 12/28 -->
      <g transform="translate(1202.235682 685.444576) rotate(-45) scale(0.1 -0.1)">
       <use xlink:href="#DejaVuSans-31"/>
       <use xlink:href="#DejaVuSans-32" x="63.623047"/>
       <use xlink:href="#DejaVuSans-2f" x="127.246094"/>
       <use xlink:href="#DejaVuSans-32" x="160.9375"/>
       <use xlink:href="#DejaVuSans-38" x="224.560547"/>
      </g>
     </g>
    </g>
    <g id="xtick_26">
     <g id="line2d_26">
      <g>
       <use xlink:href="#m31ed293f8d" x="1272.01011" y="652.693736" style="stroke: #000000; stroke-width: 0.8"/>
      </g>
     </g>
     <g id="text_26">
      <!-- 01/04 -->
      <g transform="translate(1250.161615 685.444576) rotate(-45) scale(0.1 -0.1)">
       <use xlink:href="#DejaVuSans-30"/>
       <use xlink:href="#DejaVuSans-31" x="63.623047"/>
       <use xlink:href="#DejaVuSans-2f" x="127.246094"/>
       <use xlink:href="#DejaVuSans-30" x="160.9375"/>
       <use xlink:href="#DejaVuSans-34" x="224.560547"/>
      </g>
     </g>
    </g>
    <g id="xtick_27">
     <g id="line2d_27">
      <g>
       <use xlink:href="#m31ed293f8d" x="1319.936043" y="652.693736" style="stroke: #000000; stroke-width: 0.8"/>
      </g>
     </g>
     <g id="text_27">
      <!-- 01/11 -->
      <g transform="translate(1298.087549 685.444576) rotate(-45) scale(0.1 -0.1)">
       <use xlink:href="#DejaVuSans-30"/>
       <use xlink:href="#DejaVuSans-31" x="63.623047"/>
       <use xlink:href="#DejaVuSans-2f" x="127.246094"/>
       <use xlink:href="#DejaVuSans-31" x="160.9375"/>
       <use xlink:href="#DejaVuSans-31" x="224.560547"/>
      </g>
     </g>
    </g>
    <g id="xtick_28">
     <g id="line2d_28">
      <g>
       <use xlink:href="#m31ed293f8d" x="1367.861977" y="652.693736" style="stroke: #000000; stroke-width: 0.8"/>
      </g>
     </g>
     <g id="text_28">
      <!-- 01/18 -->
      <g transform="translate(1346.013482 685.444576) rotate(-45) scale(0.1 -0.1)">
       <use xlink:href="#DejaVuSans-30"/>
       <use xlink:href="#DejaVuSans-31" x="63.623047"/>
       <use xlink:href="#DejaVuSans-2f" x="127.246094"/>
       <use xlink:href="#DejaVuSans-31" x="160.9375"/>
       <use xlink:href="#DejaVuSans-38" x="224.560547"/>
      </g>
     </g>
    </g>
    <g id="text_29">
     <!-- 日期 -->
     <g transform="translate(699.966875 700.033263) scale(0.12 -0.12)">
      <defs>
       <path id="DejaVuSans-Bold-65e5" d="M 319 -1131 
L 319 4513 
L 3519 4513 
L 3519 -1131 
L 319 -1131 
z
M 678 -775 
L 3163 -775 
L 3163 4153 
L 678 4153 
L 678 -775 
z
" transform="scale(0.015625)"/>
       <path id="DejaVuSans-Bold-671f" d="M 319 -1131 
L 319 4513 
L 3519 4513 
L 3519 -1131 
L 319 -1131 
z
M 678 -775 
L 3163 -775 
L 3163 4153 
L 678 4153 
L 678 -775 
z
" transform="scale(0.015625)"/>
      </defs>
      <use xlink:href="#DejaVuSans-Bold-65e5"/>
      <use xlink:href="#DejaVuSans-Bold-671f" x="60.009766"/>
     </g>
    </g>
   </g>
   <g id="matplotlib.axis_2">
    <g id="ytick_1">
     <g id="line2d_29">
      <path d="M 42.53875 638.514991 
L 1371.79875 638.514991 
" clip-path="url(#pe0684c3a64)" style="fill: none; stroke-dasharray: 2.96,1.28; stroke-dashoffset: 0; stroke: #b0b0b0; stroke-opacity: 0.3; stroke-width: 0.8"/>
     </g>
     <g id="line2d_30">
      <defs>
       <path id="m58e6b64273" d="M 0 0 
L -3.5 0 
" style="stroke: #000000; stroke-width: 0.8"/>
      </defs>
      <g>
       <use xlink:href="#m58e6b64273" x="42.53875" y="638.514991" style="stroke: #000000; stroke-width: 0.8"/>
      </g>
     </g>
     <g id="text_30">
      <!-- 17 -->
      <g transform="translate(22.81375 642.31421) scale(0.1 -0.1)">
       <use xlink:href="#DejaVuSans-31"/>
       <use xlink:href="#DejaVuSans-37" x="63.623047"/>
      </g>
     </g>
    </g>
    <g id="ytick_2">
     <g id="line2d_31">
      <path d="M 42.53875 559.744186 
L 1371.79875 559.744186 
" clip-path="url(#pe0684c3a64)" style="fill: none; stroke-dasharray: 2.96,1.28; stroke-dashoffset: 0; stroke: #b0b0b0; stroke-opacity: 0.3; stroke-width: 0.8"/>
     </g>
     <g id="line2d_32">
      <g>
       <use xlink:href="#m58e6b64273" x="42.53875" y="559.744186" style="stroke: #000000; stroke-width: 0.8"/>
      </g>
     </g>
     <g id="text_31">
      <!-- 18 -->
      <g transform="translate(22.81375 563.543404) scale(0.1 -0.1)">
       <use xlink:href="#DejaVuSans-31"/>
       <use xlink:href="#DejaVuSans-38" x="63.623047"/>
      </g>
     </g>
    </g>
    <g id="ytick_3">
     <g id="line2d_33">
      <path d="M 42.53875 480.97338 
L 1371.79875 480.97338 
" clip-path="url(#pe0684c3a64)" style="fill: none; stroke-dasharray: 2.96,1.28; stroke-dashoffset: 0; stroke: #b0b0b0; stroke-opacity: 0.3; stroke-width: 0.8"/>
     </g>
     <g id="line2d_34">
      <g>
       <use xlink:href="#m58e6b64273" x="42.53875" y="480.97338" style="stroke: #000000; stroke-width: 0.8"/>
      </g>
     </g>
     <g id="text_32">
      <!-- 19 -->
      <g transform="translate(22.81375 484.772599) scale(0.1 -0.1)">
       <use xlink:href="#DejaVuSans-31"/>
       <use xlink:href="#DejaVuSans-39" x="63.623047"/>
      </g>
     </g>
    </g>
    <g id="ytick_4">
     <g id="line2d_35">
      <path d="M 42.53875 402.202574 
L 1371.79875 402.202574 
" clip-path="url(#pe0684c3a64)" style="fill: none; stroke-dasharray: 2.96,1.28; stroke-dashoffset: 0; stroke: #b0b0b0; stroke-opacity: 0.3; stroke-width: 0.8"/>
     </g>
     <g id="line2d_36">
      <g>
       <use xlink:href="#m58e6b64273" x="42.53875" y="402.202574" style="stroke: #000000; stroke-width: 0.8"/>
      </g>
     </g>
     <g id="text_33">
      <!-- 20 -->
      <g transform="translate(22.81375 406.001793) scale(0.1 -0.1)">
       <use xlink:href="#DejaVuSans-32"/>
       <use xlink:href="#DejaVuSans-30" x="63.623047"/>
      </g>
     </g>
    </g>
    <g id="ytick_5">
     <g id="line2d_37">
      <path d="M 42.53875 323.431769 
L 1371.79875 323.431769 
" clip-path="url(#pe0684c3a64)" style="fill: none; stroke-dasharray: 2.96,1.28; stroke-dashoffset: 0; stroke: #b0b0b0; stroke-opacity: 0.3; stroke-width: 0.8"/>
     </g>
     <g id="line2d_38">
      <g>
       <use xlink:href="#m58e6b64273" x="42.53875" y="323.431769" style="stroke: #000000; stroke-width: 0.8"/>
      </g>
     </g>
     <g id="text_34">
      <!-- 21 -->
      <g transform="translate(22.81375 327.230988) scale(0.1 -0.1)">
       <use xlink:href="#DejaVuSans-32"/>
       <use xlink:href="#DejaVuSans-31" x="63.623047"/>
      </g>
     </g>
    </g>
    <g id="ytick_6">
     <g id="line2d_39">
      <path d="M 42.53875 244.660963 
L 1371.79875 244.660963 
" clip-path="url(#pe0684c3a64)" style="fill: none; stroke-dasharray: 2.96,1.28; stroke-dashoffset: 0; stroke: #b0b0b0; stroke-opacity: 0.3; stroke-width: 0.8"/>
     </g>
     <g id="line2d_40">
      <g>
       <use xlink:href="#m58e6b64273" x="42.53875" y="244.660963" style="stroke: #000000; stroke-width: 0.8"/>
      </g>
     </g>
     <g id="text_35">
      <!-- 22 -->
      <g transform="translate(22.81375 248.460182) scale(0.1 -0.1)">
       <use xlink:href="#DejaVuSans-32"/>
       <use xlink:href="#DejaVuSans-32" x="63.623047"/>
      </g>
     </g>
    </g>
    <g id="ytick_7">
     <g id="line2d_41">
      <path d="M 42.53875 165.890158 
L 1371.79875 165.890158 
" clip-path="url(#pe0684c3a64)" style="fill: none; stroke-dasharray: 2.96,1.28; stroke-dashoffset: 0; stroke: #b0b0b0; stroke-opacity: 0.3; stroke-width: 0.8"/>
     </g>
     <g id="line2d_42">
      <g>
       <use xlink:href="#m58e6b64273" x="42.53875" y="165.890158" style="stroke: #000000; stroke-width: 0.8"/>
      </g>
     </g>
     <g id="text_36">
      <!-- 23 -->
      <g transform="translate(22.81375 169.689376) scale(0.1 -0.1)">
       <use xlink:href="#DejaVuSans-32"/>
       <use xlink:href="#DejaVuSans-33" x="63.623047"/>
      </g>
     </g>
    </g>
    <g id="ytick_8">
     <g id="line2d_43">
      <path d="M 42.53875 87.119352 
L 1371.79875 87.119352 
" clip-path="url(#pe0684c3a64)" style="fill: none; stroke-dasharray: 2.96,1.28; stroke-dashoffset: 0; stroke: #b0b0b0; stroke-opacity: 0.3; stroke-width: 0.8"/>
     </g>
     <g id="line2d_44">
      <g>
       <use xlink:href="#m58e6b64273" x="42.53875" y="87.119352" style="stroke: #000000; stroke-width: 0.8"/>
      </g>
     </g>
     <g id="text_37">
      <!-- 24 -->
      <g transform="translate(22.81375 90.918571) scale(0.1 -0.1)">
       <use xlink:href="#DejaVuSans-32"/>
       <use xlink:href="#DejaVuSans-34" x="63.623047"/>
      </g>
     </g>
    </g>
    <g id="text_38">
     <!-- 收盤價 (元) -->
     <g transform="translate(16.318125 388.732587) rotate(-90) scale(0.12 -0.12)">
      <defs>
       <path id="DejaVuSans-Bold-6536" d="M 319 -1131 
L 319 4513 
L 3519 4513 
L 3519 -1131 
L 319 -1131 
z
M 678 -775 
L 3163 -775 
L 3163 4153 
L 678 4153 
L 678 -775 
z
" transform="scale(0.015625)"/>
       <path id="DejaVuSans-Bold-76e4" d="M 319 -1131 
L 319 4513 
L 3519 4513 
L 3519 -1131 
L 319 -1131 
z
M 678 -775 
L 3163 -775 
L 3163 4153 
L 678 4153 
L 678 -775 
z
" transform="scale(0.015625)"/>
       <path id="DejaVuSans-Bold-50f9" d="M 319 -1131 
L 319 4513 
L 3519 4513 
L 3519 -1131 
L 319 -1131 
z
M 678 -775 
L 3163 -775 
L 3163 4153 
L 678 4153 
L 678 -775 
z
" transform="scale(0.015625)"/>
       <path id="DejaVuSans-Bold-20" transform="scale(0.015625)"/>
       <path id="DejaVuSans-Bold-28" d="M 2413 -844 
L 1484 -844 
Q 1006 -72 778 623 
Q 550 1319 550 2003 
Q 550 2688 779 3389 
Q 1009 4091 1484 4856 
L 2413 4856 
Q 2013 4116 1813 3408 
Q 1613 2700 1613 2009 
Q 1613 1319 1811 609 
Q 2009 -100 2413 -844 
z
" transform="scale(0.015625)"/>
       <path id="DejaVuSans-Bold-5143" d="M 319 -1131 
L 319 4513 
L 3519 4513 
L 3519 -1131 
L 319 -1131 
z
M 678 -775 
L 3163 -775 
L 3163 4153 
L 678 4153 
L 678 -775 
z
" transform="scale(0.015625)"/>
       <path id="DejaVuSans-Bold-29" d="M 513 -844 
Q 913 -100 1113 609 
Q 1313 1319 1313 2009 
Q 1313 2700 1113 3408 
Q 913 4116 513 4856 
L 1441 4856 
Q 1916 4091 2145 3389 
Q 2375 2688 2375 2003 
Q 2375 1319 2147 623 
Q 1919 -72 1441 -844 
L 513 -844 
z
" transform="scale(0.015625)"/>
      </defs>
      <use xlink:href="#DejaVuSans-Bold-6536"/>
      <use xlink:href="#DejaVuSans-Bold-76e4" x="60.009766"/>
      <use xlink:href="#DejaVuSans-Bold-50f9" x="120.019531"/>
      <use xlink:href="#DejaVuSans-Bold-20" x="180.029297"/>
      <use xlink:href="#DejaVuSans-Bold-28" x="214.84375"/>
      <use xlink:href="#DejaVuSans-Bold-5143" x="260.546875"/>
      <use xlink:href="#DejaVuSans-Bold-29" x="320.556641"/>
     </g>
    </g>
   </g>
   <g id="patch_3">
    <path d="M 42.53875 652.693736 
L 42.53875 80.817687 
" style="fill: none; stroke: #000000; stroke-width: 0.8; stroke-linejoin: miter; stroke-linecap: square"/>
   </g>
   <g id="patch_4">
    <path d="M 1371.79875 652.693736 
L 1371.79875 80.817687 
" style="fill: none; stroke: #000000; stroke-width: 0.8; stroke-linejoin: miter; stroke-linecap: square"/>
   </g>
   <g id="patch_5">
    <path d="M 42.53875 652.693736 
L 1371.79875 652.693736 
" style="fill: none; stroke: #000000; stroke-width: 0.8; stroke-linejoin: miter; stroke-linecap: square"/>
   </g>
   <g id="patch_6">
    <path d="M 42.53875 80.817687 
L 1371.79875 80.817687 
" style="fill: none; stroke: #000000; stroke-width: 0.8; stroke-linejoin: miter; stroke-linecap: square"/>
   </g>
   <g id="line2d_45">
    <path d="M 108.094581 272.230745 
L 128.634266 193.45994 
L 135.480828 197.39848 
L 142.32739 189.521399 
L 149.173952 185.582859 
L 156.020514 228.906802 
L 176.5602 213.152641 
L 183.406762 244.660963 
L 190.253324 260.415124 
L 197.099886 189.521399 
L 203.946448 221.029721 
L 224.486133 189.521399 
L 231.332695 240.722423 
L 238.179257 189.521399 
L 245.025819 205.27556 
L 251.872381 236.783883 
L 272.412067 276.169285 
L 279.258629 272.230745 
L 286.105191 295.861987 
L 292.951753 260.415124 
L 299.798315 268.292205 
L 320.338001 256.476584 
L 327.184563 260.415124 
L 334.031124 323.431769 
L 340.877686 287.984906 
L 347.724248 287.984906 
L 368.263934 299.800527 
L 375.110496 335.24739 
L 381.957058 173.767238 
L 388.80362 248.599503 
L 395.650182 217.091181 
L 416.189868 244.660963 
L 423.03643 276.169285 
L 429.882992 221.029721 
L 436.729554 106.812053 
L 443.576115 126.504755 
L 464.115801 169.828698 
L 470.962363 197.39848 
L 477.808925 232.845342 
L 484.655487 284.046366 
L 491.502049 291.923447 
L 512.041735 291.923447 
L 518.888297 295.861987 
L 525.734859 272.230745 
L 532.581421 272.230745 
L 539.427983 252.538044 
L 559.967668 217.091181 
L 566.81423 236.783883 
L 573.660792 236.783883 
L 580.507354 236.783883 
L 587.353916 264.353665 
L 614.740164 185.582859 
L 621.586726 244.660963 
L 628.433288 260.415124 
L 635.27985 264.353665 
L 662.666097 264.353665 
L 669.512659 284.046366 
L 676.359221 276.169285 
L 703.745469 315.554688 
L 710.592031 284.046366 
L 717.438593 362.817172 
L 724.285155 343.12447 
L 731.131717 339.18593 
L 751.671403 362.817172 
L 758.517965 228.906802 
L 765.364526 307.677608 
L 772.211088 299.800527 
L 799.597336 287.984906 
L 806.443898 311.616148 
L 813.29046 307.677608 
L 820.137022 374.632792 
L 826.983584 307.677608 
L 847.52327 358.878631 
L 854.369832 410.079655 
L 861.216394 417.956736 
L 868.062956 378.571333 
L 874.909517 378.571333 
L 895.449203 394.325494 
L 902.295765 429.772356 
L 909.142327 429.772356 
L 915.988889 441.587977 
L 922.835451 480.97338 
L 943.375137 532.174404 
L 950.221699 559.744186 
L 957.068261 575.498347 
L 963.914823 575.498347 
L 970.761385 618.82229 
L 991.30107 626.69937 
L 998.147632 610.945209 
L 1004.994194 595.191048 
L 1011.840756 571.559806 
L 1018.687318 540.051484 
L 1039.227004 555.805645 
L 1046.073566 484.91192 
L 1052.920128 496.727541 
L 1059.76669 512.481702 
L 1066.613252 449.465058 
L 1087.152937 465.219219 
L 1093.999499 504.604622 
L 1100.846061 480.97338 
L 1107.692623 504.604622 
L 1114.539185 465.219219 
L 1135.078871 386.448413 
L 1141.925433 429.772356 
L 1148.771995 441.587977 
L 1155.618557 457.342138 
L 1162.465119 425.833816 
L 1183.004805 453.403598 
L 1189.851367 311.616148 
L 1196.697928 410.079655 
L 1210.391052 421.895276 
L 1230.930738 457.342138 
L 1237.7773 449.465058 
L 1244.623862 425.833816 
L 1258.316986 366.755712 
L 1278.856672 284.046366 
L 1285.703234 244.660963 
L 1292.549796 276.169285 
L 1299.396358 311.616148 
L 1306.242919 351.001551 
" clip-path="url(#pe0684c3a64)" style="fill: none; stroke: #000000; stroke-width: 2; stroke-linecap: square"/>
   </g>
   <g id="legend_1">
    <g id="patch_7">
     <path d="M 49.53875 118.173937 
L 130.335625 118.173937 
Q 132.335625 118.173937 132.335625 116.173937 
L 132.335625 87.817687 
Q 132.335625 85.817687 130.335625 85.817687 
L 49.53875 85.817687 
Q 47.53875 85.817687 47.53875 87.817687 
L 47.53875 116.173937 
Q 47.53875 118.173937 49.53875 118.173937 
z
" style="fill: #ffffff; opacity: 0.8; stroke: #cccccc; stroke-linejoin: miter"/>
    </g>
    <g id="line2d_46">
     <path d="M 51.53875 93.916125 
L 61.53875 93.916125 
L 71.53875 93.916125 
" style="fill: none; stroke: #000000; stroke-width: 2; stroke-linecap: square"/>
    </g>
    <g id="text_39">
     <!-- 鈺寶-創 收盤價 -->
     <g transform="translate(79.53875 97.416125) scale(0.1 -0.1)">
      <defs>
       <path id="DejaVuSans-923a" d="M 319 -1131 
L 319 4513 
L 3519 4513 
L 3519 -1131 
L 319 -1131 
z
M 678 -775 
L 3163 -775 
L 3163 4153 
L 678 4153 
L 678 -775 
z
" transform="scale(0.015625)"/>
       <path id="DejaVuSans-5bf6" d="M 319 -1131 
L 319 4513 
L 3519 4513 
L 3519 -1131 
L 319 -1131 
z
M 678 -775 
L 3163 -775 
L 3163 4153 
L 678 4153 
L 678 -775 
z
" transform="scale(0.015625)"/>
       <path id="DejaVuSans-2d" d="M 313 2009 
L 1997 2009 
L 1997 1497 
L 313 1497 
L 313 2009 
z
" transform="scale(0.015625)"/>
       <path id="DejaVuSans-5275" d="M 319 -1131 
L 319 4513 
L 3519 4513 
L 3519 -1131 
L 319 -1131 
z
M 678 -775 
L 3163 -775 
L 3163 4153 
L 678 4153 
L 678 -775 
z
" transform="scale(0.015625)"/>
       <path id="DejaVuSans-20" transform="scale(0.015625)"/>
       <path id="DejaVuSans-6536" d="M 319 -1131 
L 319 4513 
L 3519 4513 
L 3519 -1131 
L 319 -1131 
z
M 678 -775 
L 3163 -775 
L 3163 4153 
L 678 4153 
L 678 -775 
z
" transform="scale(0.015625)"/>
       <path id="DejaVuSans-76e4" d="M 319 -1131 
L 319 4513 
L 3519 4513 
L 3519 -1131 
L 319 -1131 
z
M 678 -775 
L 3163 -775 
L 3163 4153 
L 678 4153 
L 678 -775 
z
" transform="scale(0.015625)"/>
       <path id="DejaVuSans-50f9" d="M 319 -1131 
L 319 4513 
L 3519 4513 
L 3519 -1131 
L 319 -1131 
z
M 678 -775 
L 3163 -775 
L 3163 4153 
L 678 4153 
L 678 -775 
z
" transform="scale(0.015625)"/>
      </defs>
      <use xlink:href="#DejaVuSans-923a"/>
      <use xlink:href="#DejaVuSans-5bf6" x="60.009766"/>
      <use xlink:href="#DejaVuSans-2d" x="120.019531"/>
      <use xlink:href="#DejaVuSans-5275" x="156.103516"/>
      <use xlink:href="#DejaVuSans-20" x="216.113281"/>
      <use xlink:href="#DejaVuSans-6536" x="247.900391"/>
      <use xlink:href="#DejaVuSans-76e4" x="307.910156"/>
      <use xlink:href="#DejaVuSans-50f9" x="367.919922"/>
     </g>
    </g>
    <g id="patch_8">
     <path d="M 51.53875 112.09425 
L 71.53875 112.09425 
L 71.53875 105.09425 
L 51.53875 105.09425 
z
" style="fill: #ffd700; opacity: 0.7"/>
    </g>
    <g id="text_40">
     <!-- 鈺寶-創 融資餘額 -->
     <g transform="translate(79.53875 112.09425) scale(0.1 -0.1)">
      <defs>
       <path id="DejaVuSans-878d" d="M 319 -1131 
L 319 4513 
L 3519 4513 
L 3519 -1131 
L 319 -1131 
z
M 678 -775 
L 3163 -775 
L 3163 4153 
L 678 4153 
L 678 -775 
z
" transform="scale(0.015625)"/>
       <path id="DejaVuSans-8cc7" d="M 319 -1131 
L 319 4513 
L 3519 4513 
L 3519 -1131 
L 319 -1131 
z
M 678 -775 
L 3163 -775 
L 3163 4153 
L 678 4153 
L 678 -775 
z
" transform="scale(0.015625)"/>
       <path id="DejaVuSans-9918" d="M 319 -1131 
L 319 4513 
L 3519 4513 
L 3519 -1131 
L 319 -1131 
z
M 678 -775 
L 3163 -775 
L 3163 4153 
L 678 4153 
L 678 -775 
z
" transform="scale(0.015625)"/>
       <path id="DejaVuSans-984d" d="M 319 -1131 
L 319 4513 
L 3519 4513 
L 3519 -1131 
L 319 -1131 
z
M 678 -775 
L 3163 -775 
L 3163 4153 
L 678 4153 
L 678 -775 
z
" transform="scale(0.015625)"/>
      </defs>
      <use xlink:href="#DejaVuSans-923a"/>
      <use xlink:href="#DejaVuSans-5bf6" x="60.009766"/>
      <use xlink:href="#DejaVuSans-2d" x="120.019531"/>
      <use xlink:href="#DejaVuSans-5275" x="156.103516"/>
      <use xlink:href="#DejaVuSans-20" x="216.113281"/>
      <use xlink:href="#DejaVuSans-878d" x="247.900391"/>
      <use xlink:href="#DejaVuSans-8cc7" x="307.910156"/>
      <use xlink:href="#DejaVuSans-9918" x="367.919922"/>
      <use xlink:href="#DejaVuSans-984d" x="427.929688"/>
     </g>
    </g>
   </g>
  </g>
  <g id="axes_2">
   <g id="matplotlib.axis_3">
    <g id="ytick_9">
     <g id="line2d_47">
      <defs>
       <path id="m9b37190028" d="M 0 0 
L 3.5 0 
" style="stroke: #000000; stroke-width: 0.8"/>
      </defs>
      <g>
       <use xlink:href="#m9b37190028" x="1371.79875" y="652.693736" style="stroke: #000000; stroke-width: 0.8"/>
      </g>
     </g>
     <g id="text_41">
      <!-- 0.000 -->
      <g style="fill: #b8860b" transform="translate(1378.79875 656.492955) scale(0.1 -0.1)">
       <defs>
        <path id="DejaVuSans-2e" d="M 684 794 
L 1344 794 
L 1344 0 
L 684 0 
L 684 794 
z
" transform="scale(0.015625)"/>
       </defs>
       <use xlink:href="#DejaVuSans-30"/>
       <use xlink:href="#DejaVuSans-2e" x="63.623047"/>
       <use xlink:href="#DejaVuSans-30" x="95.410156"/>
       <use xlink:href="#DejaVuSans-30" x="159.033203"/>
       <use xlink:href="#DejaVuSans-30" x="222.65625"/>
      </g>
     </g>
    </g>
    <g id="ytick_10">
     <g id="line2d_48">
      <g>
       <use xlink:href="#m9b37190028" x="1371.79875" y="543.577285" style="stroke: #000000; stroke-width: 0.8"/>
      </g>
     </g>
     <g id="text_42">
      <!-- 0.005 -->
      <g style="fill: #b8860b" transform="translate(1378.79875 547.376504) scale(0.1 -0.1)">
       <use xlink:href="#DejaVuSans-30"/>
       <use xlink:href="#DejaVuSans-2e" x="63.623047"/>
       <use xlink:href="#DejaVuSans-30" x="95.410156"/>
       <use xlink:href="#DejaVuSans-30" x="159.033203"/>
       <use xlink:href="#DejaVuSans-35" x="222.65625"/>
      </g>
     </g>
    </g>
    <g id="ytick_11">
     <g id="line2d_49">
      <g>
       <use xlink:href="#m9b37190028" x="1371.79875" y="434.460833" style="stroke: #000000; stroke-width: 0.8"/>
      </g>
     </g>
     <g id="text_43">
      <!-- 0.010 -->
      <g style="fill: #b8860b" transform="translate(1378.79875 438.260052) scale(0.1 -0.1)">
       <use xlink:href="#DejaVuSans-30"/>
       <use xlink:href="#DejaVuSans-2e" x="63.623047"/>
       <use xlink:href="#DejaVuSans-30" x="95.410156"/>
       <use xlink:href="#DejaVuSans-31" x="159.033203"/>
       <use xlink:href="#DejaVuSans-30" x="222.65625"/>
      </g>
     </g>
    </g>
    <g id="ytick_12">
     <g id="line2d_50">
      <g>
       <use xlink:href="#m9b37190028" x="1371.79875" y="325.344382" style="stroke: #000000; stroke-width: 0.8"/>
      </g>
     </g>
     <g id="text_44">
      <!-- 0.015 -->
      <g style="fill: #b8860b" transform="translate(1378.79875 329.143601) scale(0.1 -0.1)">
       <use xlink:href="#DejaVuSans-30"/>
       <use xlink:href="#DejaVuSans-2e" x="63.623047"/>
       <use xlink:href="#DejaVuSans-30" x="95.410156"/>
       <use xlink:href="#DejaVuSans-31" x="159.033203"/>
       <use xlink:href="#DejaVuSans-35" x="222.65625"/>
      </g>
     </g>
    </g>
    <g id="ytick_13">
     <g id="line2d_51">
      <g>
       <use xlink:href="#m9b37190028" x="1371.79875" y="216.22793" style="stroke: #000000; stroke-width: 0.8"/>
      </g>
     </g>
     <g id="text_45">
      <!-- 0.020 -->
      <g style="fill: #b8860b" transform="translate(1378.79875 220.027149) scale(0.1 -0.1)">
       <use xlink:href="#DejaVuSans-30"/>
       <use xlink:href="#DejaVuSans-2e" x="63.623047"/>
       <use xlink:href="#DejaVuSans-30" x="95.410156"/>
       <use xlink:href="#DejaVuSans-32" x="159.033203"/>
       <use xlink:href="#DejaVuSans-30" x="222.65625"/>
      </g>
     </g>
    </g>
    <g id="ytick_14">
     <g id="line2d_52">
      <g>
       <use xlink:href="#m9b37190028" x="1371.79875" y="107.111479" style="stroke: #000000; stroke-width: 0.8"/>
      </g>
     </g>
     <g id="text_46">
      <!-- 0.025 -->
      <g style="fill: #b8860b" transform="translate(1378.79875 110.910698) scale(0.1 -0.1)">
       <use xlink:href="#DejaVuSans-30"/>
       <use xlink:href="#DejaVuSans-2e" x="63.623047"/>
       <use xlink:href="#DejaVuSans-30" x="95.410156"/>
       <use xlink:href="#DejaVuSans-32" x="159.033203"/>
       <use xlink:href="#DejaVuSans-35" x="222.65625"/>
      </g>
     </g>
    </g>
    <g id="text_47">
     <!-- 融資餘額 (億元) -->
     <g style="fill: #b8860b" transform="translate(1420.545 395.934462) rotate(-90) scale(0.12 -0.12)">
      <defs>
       <path id="DejaVuSans-Bold-878d" d="M 319 -1131 
L 319 4513 
L 3519 4513 
L 3519 -1131 
L 319 -1131 
z
M 678 -775 
L 3163 -775 
L 3163 4153 
L 678 4153 
L 678 -775 
z
" transform="scale(0.015625)"/>
       <path id="DejaVuSans-Bold-8cc7" d="M 319 -1131 
L 319 4513 
L 3519 4513 
L 3519 -1131 
L 319 -1131 
z
M 678 -775 
L 3163 -775 
L 3163 4153 
L 678 4153 
L 678 -775 
z
" transform="scale(0.015625)"/>
       <path id="DejaVuSans-Bold-9918" d="M 319 -1131 
L 319 4513 
L 3519 4513 
L 3519 -1131 
L 319 -1131 
z
M 678 -775 
L 3163 -775 
L 3163 4153 
L 678 4153 
L 678 -775 
z
" transform="scale(0.015625)"/>
       <path id="DejaVuSans-Bold-984d" d="M 319 -1131 
L 319 4513 
L 3519 4513 
L 3519 -1131 
L 319 -1131 
z
M 678 -775 
L 3163 -775 
L 3163 4153 
L 678 4153 
L 678 -775 
z
" transform="scale(0.015625)"/>
       <path id="DejaVuSans-Bold-5104" d="M 319 -1131 
L 319 4513 
L 3519 4513 
L 3519 -1131 
L 319 -1131 
z
M 678 -775 
L 3163 -775 
L 3163 4153 
L 678 4153 
L 678 -775 
z
" transform="scale(0.015625)"/>
      </defs>
      <use xlink:href="#DejaVuSans-Bold-878d"/>
      <use xlink:href="#DejaVuSans-Bold-8cc7" x="60.009766"/>
      <use xlink:href="#DejaVuSans-Bold-9918" x="120.019531"/>
      <use xlink:href="#DejaVuSans-Bold-984d" x="180.029297"/>
      <use xlink:href="#DejaVuSans-Bold-20" x="240.039062"/>
      <use xlink:href="#DejaVuSans-Bold-28" x="274.853516"/>
      <use xlink:href="#DejaVuSans-Bold-5104" x="320.556641"/>
      <use xlink:href="#DejaVuSans-Bold-5143" x="380.566406"/>
      <use xlink:href="#DejaVuSans-Bold-29" x="440.576172"/>
     </g>
    </g>
   </g>
   <g id="patch_9">
    <path d="M 42.53875 652.693736 
L 42.53875 80.817687 
" style="fill: none; stroke: #000000; stroke-width: 0.8; stroke-linejoin: miter; stroke-linecap: square"/>
   </g>
   <g id="patch_10">
    <path d="M 1371.79875 652.693736 
L 1371.79875 80.817687 
" style="fill: none; stroke: #000000; stroke-width: 0.8; stroke-linejoin: miter; stroke-linecap: square"/>
   </g>
   <g id="patch_11">
    <path d="M 42.53875 652.693736 
L 1371.79875 652.693736 
" style="fill: none; stroke: #000000; stroke-width: 0.8; stroke-linejoin: miter; stroke-linecap: square"/>
   </g>
   <g id="patch_12">
    <path d="M 42.53875 80.817687 
L 1371.79875 80.817687 
" style="fill: none; stroke: #000000; stroke-width: 0.8; stroke-linejoin: miter; stroke-linecap: square"/>
   </g>
   <g id="patch_13">
    <path d="M 102.959659 652.693736 
L 113.229502 652.693736 
L 113.229502 539.29992 
L 102.959659 539.29992 
z
" clip-path="url(#pe0684c3a64)" style="fill: #ffd700; opacity: 0.7"/>
   </g>
   <g id="patch_14">
    <path d="M 123.499345 652.693736 
L 133.769188 652.693736 
L 133.769188 504.404479 
L 123.499345 504.404479 
z
" clip-path="url(#pe0684c3a64)" style="fill: #ffd700; opacity: 0.7"/>
   </g>
   <g id="patch_15">
    <path d="M 130.345907 652.693736 
L 140.61575 652.693736 
L 140.61575 514.595955 
L 130.345907 514.595955 
z
" clip-path="url(#pe0684c3a64)" style="fill: #ffd700; opacity: 0.7"/>
   </g>
   <g id="patch_16">
    <path d="M 137.192469 652.693736 
L 147.462312 652.693736 
L 147.462312 513.984903 
L 137.192469 513.984903 
z
" clip-path="url(#pe0684c3a64)" style="fill: #ffd700; opacity: 0.7"/>
   </g>
   <g id="patch_17">
    <path d="M 144.039031 652.693736 
L 154.308874 652.693736 
L 154.308874 508.714579 
L 144.039031 508.714579 
z
" clip-path="url(#pe0684c3a64)" style="fill: #ffd700; opacity: 0.7"/>
   </g>
   <g id="patch_18">
    <path d="M 150.885593 652.693736 
L 161.155436 652.693736 
L 161.155436 497.661082 
L 150.885593 497.661082 
z
" clip-path="url(#pe0684c3a64)" style="fill: #ffd700; opacity: 0.7"/>
   </g>
   <g id="patch_19">
    <path d="M 171.425278 652.693736 
L 181.695121 652.693736 
L 181.695121 496.264391 
L 171.425278 496.264391 
z
" clip-path="url(#pe0684c3a64)" style="fill: #ffd700; opacity: 0.7"/>
   </g>
   <g id="patch_20">
    <path d="M 178.27184 652.693736 
L 188.541683 652.693736 
L 188.541683 494.256649 
L 178.27184 494.256649 
z
" clip-path="url(#pe0684c3a64)" style="fill: #ffd700; opacity: 0.7"/>
   </g>
   <g id="patch_21">
    <path d="M 185.118402 652.693736 
L 195.388245 652.693736 
L 195.388245 495.696986 
L 185.118402 495.696986 
z
" clip-path="url(#pe0684c3a64)" style="fill: #ffd700; opacity: 0.7"/>
   </g>
   <g id="patch_22">
    <path d="M 191.964964 652.693736 
L 202.234807 652.693736 
L 202.234807 494.169356 
L 191.964964 494.169356 
z
" clip-path="url(#pe0684c3a64)" style="fill: #ffd700; opacity: 0.7"/>
   </g>
   <g id="patch_23">
    <path d="M 198.811526 652.693736 
L 209.081369 652.693736 
L 209.081369 506.695924 
L 198.811526 506.695924 
z
" clip-path="url(#pe0684c3a64)" style="fill: #ffd700; opacity: 0.7"/>
   </g>
   <g id="patch_24">
    <path d="M 219.351212 652.693736 
L 229.621055 652.693736 
L 229.621055 509.031016 
L 219.351212 509.031016 
z
" clip-path="url(#pe0684c3a64)" style="fill: #ffd700; opacity: 0.7"/>
   </g>
   <g id="patch_25">
    <path d="M 226.197774 652.693736 
L 236.467617 652.693736 
L 236.467617 508.332671 
L 226.197774 508.332671 
z
" clip-path="url(#pe0684c3a64)" style="fill: #ffd700; opacity: 0.7"/>
   </g>
   <g id="patch_26">
    <path d="M 233.044336 652.693736 
L 243.314179 652.693736 
L 243.314179 504.077129 
L 233.044336 504.077129 
z
" clip-path="url(#pe0684c3a64)" style="fill: #ffd700; opacity: 0.7"/>
   </g>
   <g id="patch_27">
    <path d="M 239.890898 652.693736 
L 250.160741 652.693736 
L 250.160741 490.655806 
L 239.890898 490.655806 
z
" clip-path="url(#pe0684c3a64)" style="fill: #ffd700; opacity: 0.7"/>
   </g>
   <g id="patch_28">
    <path d="M 246.73746 652.693736 
L 257.007303 652.693736 
L 257.007303 493.53648 
L 246.73746 493.53648 
z
" clip-path="url(#pe0684c3a64)" style="fill: #ffd700; opacity: 0.7"/>
   </g>
   <g id="patch_29">
    <path d="M 267.277146 652.693736 
L 277.546988 652.693736 
L 277.546988 497.137323 
L 267.277146 497.137323 
z
" clip-path="url(#pe0684c3a64)" style="fill: #ffd700; opacity: 0.7"/>
   </g>
   <g id="patch_30">
    <path d="M 274.123708 652.693736 
L 284.39355 652.693736 
L 284.39355 492.052496 
L 274.123708 492.052496 
z
" clip-path="url(#pe0684c3a64)" style="fill: #ffd700; opacity: 0.7"/>
   </g>
   <g id="patch_31">
    <path d="M 280.970269 652.693736 
L 291.240112 652.693736 
L 291.240112 494.278472 
L 280.970269 494.278472 
z
" clip-path="url(#pe0684c3a64)" style="fill: #ffd700; opacity: 0.7"/>
   </g>
   <g id="patch_32">
    <path d="M 287.816831 652.693736 
L 298.086674 652.693736 
L 298.086674 490.939509 
L 287.816831 490.939509 
z
" clip-path="url(#pe0684c3a64)" style="fill: #ffd700; opacity: 0.7"/>
   </g>
   <g id="patch_33">
    <path d="M 294.663393 652.693736 
L 304.933236 652.693736 
L 304.933236 491.6815 
L 294.663393 491.6815 
z
" clip-path="url(#pe0684c3a64)" style="fill: #ffd700; opacity: 0.7"/>
   </g>
   <g id="patch_34">
    <path d="M 315.203079 652.693736 
L 325.472922 652.693736 
L 325.472922 490.568513 
L 315.203079 490.568513 
z
" clip-path="url(#pe0684c3a64)" style="fill: #ffd700; opacity: 0.7"/>
   </g>
   <g id="patch_35">
    <path d="M 322.049641 652.693736 
L 332.319484 652.693736 
L 332.319484 490.939509 
L 322.049641 490.939509 
z
" clip-path="url(#pe0684c3a64)" style="fill: #ffd700; opacity: 0.7"/>
   </g>
   <g id="patch_36">
    <path d="M 328.896203 652.693736 
L 339.166046 652.693736 
L 339.166046 487.709662 
L 328.896203 487.709662 
z
" clip-path="url(#pe0684c3a64)" style="fill: #ffd700; opacity: 0.7"/>
   </g>
   <g id="patch_37">
    <path d="M 335.742765 652.693736 
L 346.012608 652.693736 
L 346.012608 484.174289 
L 335.742765 484.174289 
z
" clip-path="url(#pe0684c3a64)" style="fill: #ffd700; opacity: 0.7"/>
   </g>
   <g id="patch_38">
    <path d="M 342.589327 652.693736 
L 352.85917 652.693736 
L 352.85917 484.174289 
L 342.589327 484.174289 
z
" clip-path="url(#pe0684c3a64)" style="fill: #ffd700; opacity: 0.7"/>
   </g>
   <g id="patch_39">
    <path d="M 363.129013 652.693736 
L 373.398856 652.693736 
L 373.398856 485.352746 
L 363.129013 485.352746 
z
" clip-path="url(#pe0684c3a64)" style="fill: #ffd700; opacity: 0.7"/>
   </g>
   <g id="patch_40">
    <path d="M 369.975575 652.693736 
L 380.245418 652.693736 
L 380.245418 488.888119 
L 369.975575 488.888119 
z
" clip-path="url(#pe0684c3a64)" style="fill: #ffd700; opacity: 0.7"/>
   </g>
   <g id="patch_41">
    <path d="M 376.822137 652.693736 
L 387.091979 652.693736 
L 387.091979 387.824462 
L 376.822137 387.824462 
z
" clip-path="url(#pe0684c3a64)" style="fill: #ffd700; opacity: 0.7"/>
   </g>
   <g id="patch_42">
    <path d="M 383.668698 652.693736 
L 393.938541 652.693736 
L 393.938541 298.218032 
L 383.668698 298.218032 
z
" clip-path="url(#pe0684c3a64)" style="fill: #ffd700; opacity: 0.7"/>
   </g>
   <g id="patch_43">
    <path d="M 390.51526 652.693736 
L 400.785103 652.693736 
L 400.785103 267.370811 
L 390.51526 267.370811 
z
" clip-path="url(#pe0684c3a64)" style="fill: #ffd700; opacity: 0.7"/>
   </g>
   <g id="patch_44">
    <path d="M 411.054946 652.693736 
L 421.324789 652.693736 
L 421.324789 254.200455 
L 411.054946 254.200455 
z
" clip-path="url(#pe0684c3a64)" style="fill: #ffd700; opacity: 0.7"/>
   </g>
   <g id="patch_45">
    <path d="M 417.901508 652.693736 
L 428.171351 652.693736 
L 428.171351 247.304296 
L 417.901508 247.304296 
z
" clip-path="url(#pe0684c3a64)" style="fill: #ffd700; opacity: 0.7"/>
   </g>
   <g id="patch_46">
    <path d="M 424.74807 652.693736 
L 435.017913 652.693736 
L 435.017913 312.032175 
L 424.74807 312.032175 
z
" clip-path="url(#pe0684c3a64)" style="fill: #ffd700; opacity: 0.7"/>
   </g>
   <g id="patch_47">
    <path d="M 431.594632 652.693736 
L 441.864475 652.693736 
L 441.864475 289.881535 
L 431.594632 289.881535 
z
" clip-path="url(#pe0684c3a64)" style="fill: #ffd700; opacity: 0.7"/>
   </g>
   <g id="patch_48">
    <path d="M 438.441194 652.693736 
L 448.711037 652.693736 
L 448.711037 216.773513 
L 438.441194 216.773513 
z
" clip-path="url(#pe0684c3a64)" style="fill: #ffd700; opacity: 0.7"/>
   </g>
   <g id="patch_49">
    <path d="M 458.98088 652.693736 
L 469.250723 652.693736 
L 469.250723 352.187029 
L 458.98088 352.187029 
z
" clip-path="url(#pe0684c3a64)" style="fill: #ffd700; opacity: 0.7"/>
   </g>
   <g id="patch_50">
    <path d="M 465.827442 652.693736 
L 476.097285 652.693736 
L 476.097285 341.973729 
L 465.827442 341.973729 
z
" clip-path="url(#pe0684c3a64)" style="fill: #ffd700; opacity: 0.7"/>
   </g>
   <g id="patch_51">
    <path d="M 472.674004 652.693736 
L 482.943847 652.693736 
L 482.943847 328.825197 
L 472.674004 328.825197 
z
" clip-path="url(#pe0684c3a64)" style="fill: #ffd700; opacity: 0.7"/>
   </g>
   <g id="patch_52">
    <path d="M 479.520566 652.693736 
L 489.790409 652.693736 
L 489.790409 352.405262 
L 479.520566 352.405262 
z
" clip-path="url(#pe0684c3a64)" style="fill: #ffd700; opacity: 0.7"/>
   </g>
   <g id="patch_53">
    <path d="M 486.367128 652.693736 
L 496.63697 652.693736 
L 496.63697 358.472136 
L 486.367128 358.472136 
z
" clip-path="url(#pe0684c3a64)" style="fill: #ffd700; opacity: 0.7"/>
   </g>
   <g id="patch_54">
    <path d="M 506.906813 652.693736 
L 517.176656 652.693736 
L 517.176656 349.131768 
L 506.906813 349.131768 
z
" clip-path="url(#pe0684c3a64)" style="fill: #ffd700; opacity: 0.7"/>
   </g>
   <g id="patch_55">
    <path d="M 513.753375 652.693736 
L 524.023218 652.693736 
L 524.023218 349.841025 
L 513.753375 349.841025 
z
" clip-path="url(#pe0684c3a64)" style="fill: #ffd700; opacity: 0.7"/>
   </g>
   <g id="patch_56">
    <path d="M 520.599937 652.693736 
L 530.86978 652.693736 
L 530.86978 345.585484 
L 520.599937 345.585484 
z
" clip-path="url(#pe0684c3a64)" style="fill: #ffd700; opacity: 0.7"/>
   </g>
   <g id="patch_57">
    <path d="M 527.446499 652.693736 
L 537.716342 652.693736 
L 537.716342 331.411256 
L 527.446499 331.411256 
z
" clip-path="url(#pe0684c3a64)" style="fill: #ffd700; opacity: 0.7"/>
   </g>
   <g id="patch_58">
    <path d="M 534.293061 652.693736 
L 544.562904 652.693736 
L 544.562904 332.480598 
L 534.293061 332.480598 
z
" clip-path="url(#pe0684c3a64)" style="fill: #ffd700; opacity: 0.7"/>
   </g>
   <g id="patch_59">
    <path d="M 554.832747 652.693736 
L 565.10259 652.693736 
L 565.10259 325.900876 
L 554.832747 325.900876 
z
" clip-path="url(#pe0684c3a64)" style="fill: #ffd700; opacity: 0.7"/>
   </g>
   <g id="patch_60">
    <path d="M 561.679309 652.693736 
L 571.949152 652.693736 
L 571.949152 329.556277 
L 561.679309 329.556277 
z
" clip-path="url(#pe0684c3a64)" style="fill: #ffd700; opacity: 0.7"/>
   </g>
   <g id="patch_61">
    <path d="M 568.525871 652.693736 
L 578.795714 652.693736 
L 578.795714 329.556277 
L 568.525871 329.556277 
z
" clip-path="url(#pe0684c3a64)" style="fill: #ffd700; opacity: 0.7"/>
   </g>
   <g id="patch_62">
    <path d="M 575.372433 652.693736 
L 585.642276 652.693736 
L 585.642276 339.202171 
L 575.372433 339.202171 
z
" clip-path="url(#pe0684c3a64)" style="fill: #ffd700; opacity: 0.7"/>
   </g>
   <g id="patch_63">
    <path d="M 582.218995 652.693736 
L 592.488838 652.693736 
L 592.488838 344.16697 
L 582.218995 344.16697 
z
" clip-path="url(#pe0684c3a64)" style="fill: #ffd700; opacity: 0.7"/>
   </g>
   <g id="patch_64">
    <path d="M 609.605242 652.693736 
L 619.875085 652.693736 
L 619.875085 334.94663 
L 609.605242 334.94663 
z
" clip-path="url(#pe0684c3a64)" style="fill: #ffd700; opacity: 0.7"/>
   </g>
   <g id="patch_65">
    <path d="M 616.451804 652.693736 
L 626.721647 652.693736 
L 626.721647 345.421809 
L 616.451804 345.421809 
z
" clip-path="url(#pe0684c3a64)" style="fill: #ffd700; opacity: 0.7"/>
   </g>
   <g id="patch_66">
    <path d="M 623.298366 652.693736 
L 633.568209 652.693736 
L 633.568209 348.21519 
L 623.298366 348.21519 
z
" clip-path="url(#pe0684c3a64)" style="fill: #ffd700; opacity: 0.7"/>
   </g>
   <g id="patch_67">
    <path d="M 630.144928 652.693736 
L 640.414771 652.693736 
L 640.414771 348.913535 
L 630.144928 348.913535 
z
" clip-path="url(#pe0684c3a64)" style="fill: #ffd700; opacity: 0.7"/>
   </g>
   <g id="patch_68">
    <path d="M 657.531176 652.693736 
L 667.801019 652.693736 
L 667.801019 344.16697 
L 657.531176 344.16697 
z
" clip-path="url(#pe0684c3a64)" style="fill: #ffd700; opacity: 0.7"/>
   </g>
   <g id="patch_69">
    <path d="M 664.377738 652.693736 
L 674.647581 652.693736 
L 674.647581 347.713254 
L 664.377738 347.713254 
z
" clip-path="url(#pe0684c3a64)" style="fill: #ffd700; opacity: 0.7"/>
   </g>
   <g id="patch_70">
    <path d="M 671.2243 652.693736 
L 681.494143 652.693736 
L 681.494143 351.008571 
L 671.2243 351.008571 
z
" clip-path="url(#pe0684c3a64)" style="fill: #ffd700; opacity: 0.7"/>
   </g>
   <g id="patch_71">
    <path d="M 698.610548 652.693736 
L 708.88039 652.693736 
L 708.88039 357.992024 
L 698.610548 357.992024 
z
" clip-path="url(#pe0684c3a64)" style="fill: #ffd700; opacity: 0.7"/>
   </g>
   <g id="patch_72">
    <path d="M 705.45711 652.693736 
L 715.726952 652.693736 
L 715.726952 352.405262 
L 705.45711 352.405262 
z
" clip-path="url(#pe0684c3a64)" style="fill: #ffd700; opacity: 0.7"/>
   </g>
   <g id="patch_73">
    <path d="M 712.303671 652.693736 
L 722.573514 652.693736 
L 722.573514 352.950844 
L 712.303671 352.950844 
z
" clip-path="url(#pe0684c3a64)" style="fill: #ffd700; opacity: 0.7"/>
   </g>
   <g id="patch_74">
    <path d="M 719.150233 652.693736 
L 729.420076 652.693736 
L 729.420076 349.295443 
L 719.150233 349.295443 
z
" clip-path="url(#pe0684c3a64)" style="fill: #ffd700; opacity: 0.7"/>
   </g>
   <g id="patch_75">
    <path d="M 725.996795 652.693736 
L 736.266638 652.693736 
L 736.266638 348.564363 
L 725.996795 348.564363 
z
" clip-path="url(#pe0684c3a64)" style="fill: #ffd700; opacity: 0.7"/>
   </g>
   <g id="patch_76">
    <path d="M 746.536481 652.693736 
L 756.806324 652.693736 
L 756.806324 352.950844 
L 746.536481 352.950844 
z
" clip-path="url(#pe0684c3a64)" style="fill: #ffd700; opacity: 0.7"/>
   </g>
   <g id="patch_77">
    <path d="M 753.383043 652.693736 
L 763.652886 652.693736 
L 763.652886 313.559805 
L 753.383043 313.559805 
z
" clip-path="url(#pe0684c3a64)" style="fill: #ffd700; opacity: 0.7"/>
   </g>
   <g id="patch_78">
    <path d="M 760.229605 652.693736 
L 770.499448 652.693736 
L 770.499448 236.305357 
L 760.229605 236.305357 
z
" clip-path="url(#pe0684c3a64)" style="fill: #ffd700; opacity: 0.7"/>
   </g>
   <g id="patch_79">
    <path d="M 767.076167 652.693736 
L 777.34601 652.693736 
L 777.34601 234.341261 
L 767.076167 234.341261 
z
" clip-path="url(#pe0684c3a64)" style="fill: #ffd700; opacity: 0.7"/>
   </g>
   <g id="patch_80">
    <path d="M 794.462415 652.693736 
L 804.732258 652.693736 
L 804.732258 231.395117 
L 794.462415 231.395117 
z
" clip-path="url(#pe0684c3a64)" style="fill: #ffd700; opacity: 0.7"/>
   </g>
   <g id="patch_81">
    <path d="M 801.308977 652.693736 
L 811.57882 652.693736 
L 811.57882 232.67178 
L 801.308977 232.67178 
z
" clip-path="url(#pe0684c3a64)" style="fill: #ffd700; opacity: 0.7"/>
   </g>
   <g id="patch_82">
    <path d="M 808.155539 652.693736 
L 818.425381 652.693736 
L 818.425381 194.666519 
L 808.155539 194.666519 
z
" clip-path="url(#pe0684c3a64)" style="fill: #ffd700; opacity: 0.7"/>
   </g>
   <g id="patch_83">
    <path d="M 815.002101 652.693736 
L 825.271943 652.693736 
L 825.271943 181.943541 
L 815.002101 181.943541 
z
" clip-path="url(#pe0684c3a64)" style="fill: #ffd700; opacity: 0.7"/>
   </g>
   <g id="patch_84">
    <path d="M 821.848662 652.693736 
L 832.118505 652.693736 
L 832.118505 148.401144 
L 821.848662 148.401144 
z
" clip-path="url(#pe0684c3a64)" style="fill: #ffd700; opacity: 0.7"/>
   </g>
   <g id="patch_85">
    <path d="M 842.388348 652.693736 
L 852.658191 652.693736 
L 852.658191 159.378259 
L 842.388348 159.378259 
z
" clip-path="url(#pe0684c3a64)" style="fill: #ffd700; opacity: 0.7"/>
   </g>
   <g id="patch_86">
    <path d="M 849.23491 652.693736 
L 859.504753 652.693736 
L 859.504753 153.267738 
L 849.23491 153.267738 
z
" clip-path="url(#pe0684c3a64)" style="fill: #ffd700; opacity: 0.7"/>
   </g>
   <g id="patch_87">
    <path d="M 856.081472 652.693736 
L 866.351315 652.693736 
L 866.351315 155.777416 
L 856.081472 155.777416 
z
" clip-path="url(#pe0684c3a64)" style="fill: #ffd700; opacity: 0.7"/>
   </g>
   <g id="patch_88">
    <path d="M 862.928034 652.693736 
L 873.197877 652.693736 
L 873.197877 143.229024 
L 862.928034 143.229024 
z
" clip-path="url(#pe0684c3a64)" style="fill: #ffd700; opacity: 0.7"/>
   </g>
   <g id="patch_89">
    <path d="M 869.774596 652.693736 
L 880.044439 652.693736 
L 880.044439 178.670048 
L 869.774596 178.670048 
z
" clip-path="url(#pe0684c3a64)" style="fill: #ffd700; opacity: 0.7"/>
   </g>
   <g id="patch_90">
    <path d="M 890.314282 652.693736 
L 900.584125 652.693736 
L 900.584125 183.340232 
L 890.314282 183.340232 
z
" clip-path="url(#pe0684c3a64)" style="fill: #ffd700; opacity: 0.7"/>
   </g>
   <g id="patch_91">
    <path d="M 897.160844 652.693736 
L 907.430687 652.693736 
L 907.430687 198.136423 
L 897.160844 198.136423 
z
" clip-path="url(#pe0684c3a64)" style="fill: #ffd700; opacity: 0.7"/>
   </g>
   <g id="patch_92">
    <path d="M 904.007406 652.693736 
L 914.277249 652.693736 
L 914.277249 198.136423 
L 904.007406 198.136423 
z
" clip-path="url(#pe0684c3a64)" style="fill: #ffd700; opacity: 0.7"/>
   </g>
   <g id="patch_93">
    <path d="M 910.853968 652.693736 
L 921.123811 652.693736 
L 921.123811 154.795368 
L 910.853968 154.795368 
z
" clip-path="url(#pe0684c3a64)" style="fill: #ffd700; opacity: 0.7"/>
   </g>
   <g id="patch_94">
    <path d="M 917.70053 652.693736 
L 927.970372 652.693736 
L 927.970372 167.561993 
L 917.70053 167.561993 
z
" clip-path="url(#pe0684c3a64)" style="fill: #ffd700; opacity: 0.7"/>
   </g>
   <g id="patch_95">
    <path d="M 938.240215 652.693736 
L 948.510058 652.693736 
L 948.510058 184.158605 
L 938.240215 184.158605 
z
" clip-path="url(#pe0684c3a64)" style="fill: #ffd700; opacity: 0.7"/>
   </g>
   <g id="patch_96">
    <path d="M 945.086777 652.693736 
L 955.35662 652.693736 
L 955.35662 138.100551 
L 945.086777 138.100551 
z
" clip-path="url(#pe0684c3a64)" style="fill: #ffd700; opacity: 0.7"/>
   </g>
   <g id="patch_97">
    <path d="M 951.933339 652.693736 
L 962.203182 652.693736 
L 962.203182 167.125527 
L 951.933339 167.125527 
z
" clip-path="url(#pe0684c3a64)" style="fill: #ffd700; opacity: 0.7"/>
   </g>
   <g id="patch_98">
    <path d="M 958.779901 652.693736 
L 969.049744 652.693736 
L 969.049744 182.66371 
L 958.779901 182.66371 
z
" clip-path="url(#pe0684c3a64)" style="fill: #ffd700; opacity: 0.7"/>
   </g>
   <g id="patch_99">
    <path d="M 965.626463 652.693736 
L 975.896306 652.693736 
L 975.896306 197.18711 
L 965.626463 197.18711 
z
" clip-path="url(#pe0684c3a64)" style="fill: #ffd700; opacity: 0.7"/>
   </g>
   <g id="patch_100">
    <path d="M 986.166149 652.693736 
L 996.435992 652.693736 
L 996.435992 184.85695 
L 986.166149 184.85695 
z
" clip-path="url(#pe0684c3a64)" style="fill: #ffd700; opacity: 0.7"/>
   </g>
   <g id="patch_101">
    <path d="M 993.012711 652.693736 
L 1003.282554 652.693736 
L 1003.282554 179.401128 
L 993.012711 179.401128 
z
" clip-path="url(#pe0684c3a64)" style="fill: #ffd700; opacity: 0.7"/>
   </g>
   <g id="patch_102">
    <path d="M 999.859273 652.693736 
L 1010.129116 652.693736 
L 1010.129116 173.945305 
L 999.859273 173.945305 
z
" clip-path="url(#pe0684c3a64)" style="fill: #ffd700; opacity: 0.7"/>
   </g>
   <g id="patch_103">
    <path d="M 1006.705835 652.693736 
L 1016.975678 652.693736 
L 1016.975678 189.134315 
L 1006.705835 189.134315 
z
" clip-path="url(#pe0684c3a64)" style="fill: #ffd700; opacity: 0.7"/>
   </g>
   <g id="patch_104">
    <path d="M 1013.552397 652.693736 
L 1023.82224 652.693736 
L 1023.82224 194.677431 
L 1013.552397 194.677431 
z
" clip-path="url(#pe0684c3a64)" style="fill: #ffd700; opacity: 0.7"/>
   </g>
   <g id="patch_105">
    <path d="M 1034.092082 652.693736 
L 1044.361925 652.693736 
L 1044.361925 199.696788 
L 1034.092082 199.696788 
z
" clip-path="url(#pe0684c3a64)" style="fill: #ffd700; opacity: 0.7"/>
   </g>
   <g id="patch_106">
    <path d="M 1040.938644 652.693736 
L 1051.208487 652.693736 
L 1051.208487 172.974169 
L 1040.938644 172.974169 
z
" clip-path="url(#pe0684c3a64)" style="fill: #ffd700; opacity: 0.7"/>
   </g>
   <g id="patch_107">
    <path d="M 1047.785206 652.693736 
L 1058.055049 652.693736 
L 1058.055049 184.976979 
L 1047.785206 184.976979 
z
" clip-path="url(#pe0684c3a64)" style="fill: #ffd700; opacity: 0.7"/>
   </g>
   <g id="patch_108">
    <path d="M 1054.631768 652.693736 
L 1064.901611 652.693736 
L 1064.901611 189.952689 
L 1054.631768 189.952689 
z
" clip-path="url(#pe0684c3a64)" style="fill: #ffd700; opacity: 0.7"/>
   </g>
   <g id="patch_109">
    <path d="M 1061.47833 652.693736 
L 1071.748173 652.693736 
L 1071.748173 182.751003 
L 1061.47833 182.751003 
z
" clip-path="url(#pe0684c3a64)" style="fill: #ffd700; opacity: 0.7"/>
   </g>
   <g id="patch_110">
    <path d="M 1082.018016 652.693736 
L 1092.287859 652.693736 
L 1092.287859 183.405702 
L 1082.018016 183.405702 
z
" clip-path="url(#pe0684c3a64)" style="fill: #ffd700; opacity: 0.7"/>
   </g>
   <g id="patch_111">
    <path d="M 1088.864578 652.693736 
L 1099.134421 652.693736 
L 1099.134421 195.626744 
L 1088.864578 195.626744 
z
" clip-path="url(#pe0684c3a64)" style="fill: #ffd700; opacity: 0.7"/>
   </g>
   <g id="patch_112">
    <path d="M 1095.71114 652.693736 
L 1105.980983 652.693736 
L 1105.980983 184.147694 
L 1095.71114 184.147694 
z
" clip-path="url(#pe0684c3a64)" style="fill: #ffd700; opacity: 0.7"/>
   </g>
   <g id="patch_113">
    <path d="M 1102.557702 652.693736 
L 1112.827545 652.693736 
L 1112.827545 187.464834 
L 1102.557702 187.464834 
z
" clip-path="url(#pe0684c3a64)" style="fill: #ffd700; opacity: 0.7"/>
   </g>
   <g id="patch_114">
    <path d="M 1109.404264 652.693736 
L 1119.674107 652.693736 
L 1119.674107 175.025558 
L 1109.404264 175.025558 
z
" clip-path="url(#pe0684c3a64)" style="fill: #ffd700; opacity: 0.7"/>
   </g>
   <g id="patch_115">
    <path d="M 1129.94395 652.693736 
L 1140.213792 652.693736 
L 1140.213792 128.105484 
L 1129.94395 128.105484 
z
" clip-path="url(#pe0684c3a64)" style="fill: #ffd700; opacity: 0.7"/>
   </g>
   <g id="patch_116">
    <path d="M 1136.790512 652.693736 
L 1147.060354 652.693736 
L 1147.060354 146.677104 
L 1136.790512 146.677104 
z
" clip-path="url(#pe0684c3a64)" style="fill: #ffd700; opacity: 0.7"/>
   </g>
   <g id="patch_117">
    <path d="M 1143.637073 652.693736 
L 1153.906916 652.693736 
L 1153.906916 150.539827 
L 1143.637073 150.539827 
z
" clip-path="url(#pe0684c3a64)" style="fill: #ffd700; opacity: 0.7"/>
   </g>
   <g id="patch_118">
    <path d="M 1150.483635 652.693736 
L 1160.753478 652.693736 
L 1160.753478 155.690123 
L 1150.483635 155.690123 
z
" clip-path="url(#pe0684c3a64)" style="fill: #ffd700; opacity: 0.7"/>
   </g>
   <g id="patch_119">
    <path d="M 1157.330197 652.693736 
L 1167.60004 652.693736 
L 1167.60004 166.885471 
L 1157.330197 166.885471 
z
" clip-path="url(#pe0684c3a64)" style="fill: #ffd700; opacity: 0.7"/>
   </g>
   <g id="patch_120">
    <path d="M 1177.869883 652.693736 
L 1188.139726 652.693736 
L 1188.139726 175.516582 
L 1177.869883 175.516582 
z
" clip-path="url(#pe0684c3a64)" style="fill: #ffd700; opacity: 0.7"/>
   </g>
   <g id="patch_121">
    <path d="M 1184.716445 652.693736 
L 1194.986288 652.693736 
L 1194.986288 108.04988 
L 1184.716445 108.04988 
z
" clip-path="url(#pe0684c3a64)" style="fill: #ffd700; opacity: 0.7"/>
   </g>
   <g id="patch_122">
    <path d="M 1191.563007 652.693736 
L 1201.83285 652.693736 
L 1201.83285 161.953407 
L 1191.563007 161.953407 
z
" clip-path="url(#pe0684c3a64)" style="fill: #ffd700; opacity: 0.7"/>
   </g>
   <g id="patch_123">
    <path d="M 1205.256131 652.693736 
L 1215.525974 652.693736 
L 1215.525974 148.412056 
L 1205.256131 148.412056 
z
" clip-path="url(#pe0684c3a64)" style="fill: #ffd700; opacity: 0.7"/>
   </g>
   <g id="patch_124">
    <path d="M 1225.795817 652.693736 
L 1236.06566 652.693736 
L 1236.06566 155.690123 
L 1225.795817 155.690123 
z
" clip-path="url(#pe0684c3a64)" style="fill: #ffd700; opacity: 0.7"/>
   </g>
   <g id="patch_125">
    <path d="M 1232.642379 652.693736 
L 1242.912222 652.693736 
L 1242.912222 157.348693 
L 1232.642379 157.348693 
z
" clip-path="url(#pe0684c3a64)" style="fill: #ffd700; opacity: 0.7"/>
   </g>
   <g id="patch_126">
    <path d="M 1239.488941 652.693736 
L 1249.758783 652.693736 
L 1249.758783 149.688718 
L 1239.488941 149.688718 
z
" clip-path="url(#pe0684c3a64)" style="fill: #ffd700; opacity: 0.7"/>
   </g>
   <g id="patch_127">
    <path d="M 1253.182064 652.693736 
L 1263.451907 652.693736 
L 1263.451907 126.075918 
L 1253.182064 126.075918 
z
" clip-path="url(#pe0684c3a64)" style="fill: #ffd700; opacity: 0.7"/>
   </g>
   <g id="patch_128">
    <path d="M 1273.72175 652.693736 
L 1283.991593 652.693736 
L 1283.991593 117.804891 
L 1273.72175 117.804891 
z
" clip-path="url(#pe0684c3a64)" style="fill: #ffd700; opacity: 0.7"/>
   </g>
   <g id="patch_129">
    <path d="M 1280.568312 652.693736 
L 1290.838155 652.693736 
L 1290.838155 283.007199 
L 1280.568312 283.007199 
z
" clip-path="url(#pe0684c3a64)" style="fill: #ffd700; opacity: 0.7"/>
   </g>
   <g id="patch_130">
    <path d="M 1287.414874 652.693736 
L 1297.684717 652.693736 
L 1297.684717 336.867079 
L 1287.414874 336.867079 
z
" clip-path="url(#pe0684c3a64)" style="fill: #ffd700; opacity: 0.7"/>
   </g>
   <g id="patch_131">
    <path d="M 1294.261436 652.693736 
L 1304.531279 652.693736 
L 1304.531279 343.446801 
L 1294.261436 343.446801 
z
" clip-path="url(#pe0684c3a64)" style="fill: #ffd700; opacity: 0.7"/>
   </g>
   <g id="patch_132">
    <path d="M 1301.107998 652.693736 
L 1311.377841 652.693736 
L 1311.377841 305.692509 
L 1301.107998 305.692509 
z
" clip-path="url(#pe0684c3a64)" style="fill: #ffd700; opacity: 0.7"/>
   </g>
   <g id="text_48">
    <!-- 鈺寶-創 (3150): 融資餘額與股價分析 -->
    <g transform="translate(626.502734 17.077969) scale(0.13 -0.13)">
     <defs>
      <path id="DejaVuSans-Bold-923a" d="M 319 -1131 
L 319 4513 
L 3519 4513 
L 3519 -1131 
L 319 -1131 
z
M 678 -775 
L 3163 -775 
L 3163 4153 
L 678 4153 
L 678 -775 
z
" transform="scale(0.015625)"/>
      <path id="DejaVuSans-Bold-5bf6" d="M 319 -1131 
L 319 4513 
L 3519 4513 
L 3519 -1131 
L 319 -1131 
z
M 678 -775 
L 3163 -775 
L 3163 4153 
L 678 4153 
L 678 -775 
z
" transform="scale(0.015625)"/>
      <path id="DejaVuSans-Bold-2d" d="M 347 2297 
L 2309 2297 
L 2309 1388 
L 347 1388 
L 347 2297 
z
" transform="scale(0.015625)"/>
      <path id="DejaVuSans-Bold-5275" d="M 319 -1131 
L 319 4513 
L 3519 4513 
L 3519 -1131 
L 319 -1131 
z
M 678 -775 
L 3163 -775 
L 3163 4153 
L 678 4153 
L 678 -775 
z
" transform="scale(0.015625)"/>
      <path id="DejaVuSans-Bold-33" d="M 2981 2516 
Q 3453 2394 3698 2092 
Q 3944 1791 3944 1325 
Q 3944 631 3412 270 
Q 2881 -91 1863 -91 
Q 1503 -91 1142 -33 
Q 781 25 428 141 
L 428 1069 
Q 766 900 1098 814 
Q 1431 728 1753 728 
Q 2231 728 2486 893 
Q 2741 1059 2741 1369 
Q 2741 1688 2480 1852 
Q 2219 2016 1709 2016 
L 1228 2016 
L 1228 2791 
L 1734 2791 
Q 2188 2791 2409 2933 
Q 2631 3075 2631 3366 
Q 2631 3634 2415 3781 
Q 2200 3928 1806 3928 
Q 1516 3928 1219 3862 
Q 922 3797 628 3669 
L 628 4550 
Q 984 4650 1334 4700 
Q 1684 4750 2022 4750 
Q 2931 4750 3382 4451 
Q 3834 4153 3834 3553 
Q 3834 3144 3618 2883 
Q 3403 2622 2981 2516 
z
" transform="scale(0.015625)"/>
      <path id="DejaVuSans-Bold-31" d="M 750 831 
L 1813 831 
L 1813 3847 
L 722 3622 
L 722 4441 
L 1806 4666 
L 2950 4666 
L 2950 831 
L 4013 831 
L 4013 0 
L 750 0 
L 750 831 
z
" transform="scale(0.015625)"/>
      <path id="DejaVuSans-Bold-35" d="M 678 4666 
L 3669 4666 
L 3669 3781 
L 1638 3781 
L 1638 3059 
Q 1775 3097 1914 3117 
Q 2053 3138 2203 3138 
Q 3056 3138 3531 2711 
Q 4006 2284 4006 1522 
Q 4006 766 3489 337 
Q 2972 -91 2053 -91 
Q 1656 -91 1267 -14 
Q 878 63 494 219 
L 494 1166 
Q 875 947 1217 837 
Q 1559 728 1863 728 
Q 2300 728 2551 942 
Q 2803 1156 2803 1522 
Q 2803 1891 2551 2103 
Q 2300 2316 1863 2316 
Q 1603 2316 1309 2248 
Q 1016 2181 678 2041 
L 678 4666 
z
" transform="scale(0.015625)"/>
      <path id="DejaVuSans-Bold-30" d="M 2944 2338 
Q 2944 3213 2780 3570 
Q 2616 3928 2228 3928 
Q 1841 3928 1675 3570 
Q 1509 3213 1509 2338 
Q 1509 1453 1675 1090 
Q 1841 728 2228 728 
Q 2613 728 2778 1090 
Q 2944 1453 2944 2338 
z
M 4147 2328 
Q 4147 1169 3647 539 
Q 3147 -91 2228 -91 
Q 1306 -91 806 539 
Q 306 1169 306 2328 
Q 306 3491 806 4120 
Q 1306 4750 2228 4750 
Q 3147 4750 3647 4120 
Q 4147 3491 4147 2328 
z
" transform="scale(0.015625)"/>
      <path id="DejaVuSans-Bold-3a" d="M 716 3500 
L 1844 3500 
L 1844 2291 
L 716 2291 
L 716 3500 
z
M 716 1209 
L 1844 1209 
L 1844 0 
L 716 0 
L 716 1209 
z
" transform="scale(0.015625)"/>
      <path id="DejaVuSans-Bold-8207" d="M 319 -1131 
L 319 4513 
L 3519 4513 
L 3519 -1131 
L 319 -1131 
z
M 678 -775 
L 3163 -775 
L 3163 4153 
L 678 4153 
L 678 -775 
z
" transform="scale(0.015625)"/>
      <path id="DejaVuSans-Bold-80a1" d="M 319 -1131 
L 319 4513 
L 3519 4513 
L 3519 -1131 
L 319 -1131 
z
M 678 -775 
L 3163 -775 
L 3163 4153 
L 678 4153 
L 678 -775 
z
" transform="scale(0.015625)"/>
      <path id="DejaVuSans-Bold-5206" d="M 319 -1131 
L 319 4513 
L 3519 4513 
L 3519 -1131 
L 319 -1131 
z
M 678 -775 
L 3163 -775 
L 3163 4153 
L 678 4153 
L 678 -775 
z
" transform="scale(0.015625)"/>
      <path id="DejaVuSans-Bold-6790" d="M 319 -1131 
L 319 4513 
L 3519 4513 
L 3519 -1131 
L 319 -1131 
z
M 678 -775 
L 3163 -775 
L 3163 4153 
L 678 4153 
L 678 -775 
z
" transform="scale(0.015625)"/>
     </defs>
     <use xlink:href="#DejaVuSans-Bold-923a"/>
     <use xlink:href="#DejaVuSans-Bold-5bf6" x="60.009766"/>
     <use xlink:href="#DejaVuSans-Bold-2d" x="120.019531"/>
     <use xlink:href="#DejaVuSans-Bold-5275" x="161.523438"/>
     <use xlink:href="#DejaVuSans-Bold-20" x="221.533203"/>
     <use xlink:href="#DejaVuSans-Bold-28" x="256.347656"/>
     <use xlink:href="#DejaVuSans-Bold-33" x="302.050781"/>
     <use xlink:href="#DejaVuSans-Bold-31" x="371.630859"/>
     <use xlink:href="#DejaVuSans-Bold-35" x="441.210938"/>
     <use xlink:href="#DejaVuSans-Bold-30" x="510.791016"/>
     <use xlink:href="#DejaVuSans-Bold-29" x="580.371094"/>
     <use xlink:href="#DejaVuSans-Bold-3a" x="626.074219"/>
     <use xlink:href="#DejaVuSans-Bold-20" x="666.064453"/>
     <use xlink:href="#DejaVuSans-Bold-878d" x="700.878906"/>
     <use xlink:href="#DejaVuSans-Bold-8cc7" x="760.888672"/>
     <use xlink:href="#DejaVuSans-Bold-9918" x="820.898438"/>
     <use xlink:href="#DejaVuSans-Bold-984d" x="880.908203"/>
     <use xlink:href="#DejaVuSans-Bold-8207" x="940.917969"/>
     <use xlink:href="#DejaVuSans-Bold-80a1" x="1000.927734"/>
     <use xlink:href="#DejaVuSans-Bold-50f9" x="1060.9375"/>
     <use xlink:href="#DejaVuSans-Bold-5206" x="1120.947266"/>
     <use xlink:href="#DejaVuSans-Bold-6790" x="1180.957031"/>
    </g>
    <!-- (最近 120 個交易日, 2025-07-18 ~ 2026-01-09) -->
    <g transform="translate(561.872422 31.635125) scale(0.13 -0.13)">
     <defs>
      <path id="DejaVuSans-Bold-6700" d="M 319 -1131 
L 319 4513 
L 3519 4513 
L 3519 -1131 
L 319 -1131 
z
M 678 -775 
L 3163 -775 
L 3163 4153 
L 678 4153 
L 678 -775 
z
" transform="scale(0.015625)"/>
      <path id="DejaVuSans-Bold-8fd1" d="M 319 -1131 
L 319 4513 
L 3519 4513 
L 3519 -1131 
L 319 -1131 
z
M 678 -775 
L 3163 -775 
L 3163 4153 
L 678 4153 
L 678 -775 
z
" transform="scale(0.015625)"/>
      <path id="DejaVuSans-Bold-32" d="M 1844 884 
L 3897 884 
L 3897 0 
L 506 0 
L 506 884 
L 2209 2388 
Q 2438 2594 2547 2791 
Q 2656 2988 2656 3200 
Q 2656 3528 2436 3728 
Q 2216 3928 1850 3928 
Q 1569 3928 1234 3808 
Q 900 3688 519 3450 
L 519 4475 
Q 925 4609 1322 4679 
Q 1719 4750 2100 4750 
Q 2938 4750 3402 4381 
Q 3866 4013 3866 3353 
Q 3866 2972 3669 2642 
Q 3472 2313 2841 1759 
L 1844 884 
z
" transform="scale(0.015625)"/>
      <path id="DejaVuSans-Bold-500b" d="M 319 -1131 
L 319 4513 
L 3519 4513 
L 3519 -1131 
L 319 -1131 
z
M 678 -775 
L 3163 -775 
L 3163 4153 
L 678 4153 
L 678 -775 
z
" transform="scale(0.015625)"/>
      <path id="DejaVuSans-Bold-4ea4" d="M 319 -1131 
L 319 4513 
L 3519 4513 
L 3519 -1131 
L 319 -1131 
z
M 678 -775 
L 3163 -775 
L 3163 4153 
L 678 4153 
L 678 -775 
z
" transform="scale(0.015625)"/>
      <path id="DejaVuSans-Bold-6613" d="M 319 -1131 
L 319 4513 
L 3519 4513 
L 3519 -1131 
L 319 -1131 
z
M 678 -775 
L 3163 -775 
L 3163 4153 
L 678 4153 
L 678 -775 
z
" transform="scale(0.015625)"/>
      <path id="DejaVuSans-Bold-2c" d="M 653 1209 
L 1778 1209 
L 1778 256 
L 1006 -909 
L 341 -909 
L 653 256 
L 653 1209 
z
" transform="scale(0.015625)"/>
      <path id="DejaVuSans-Bold-37" d="M 428 4666 
L 3944 4666 
L 3944 3988 
L 2125 0 
L 953 0 
L 2675 3781 
L 428 3781 
L 428 4666 
z
" transform="scale(0.015625)"/>
      <path id="DejaVuSans-Bold-38" d="M 2228 2088 
Q 1891 2088 1709 1903 
Q 1528 1719 1528 1375 
Q 1528 1031 1709 848 
Q 1891 666 2228 666 
Q 2563 666 2741 848 
Q 2919 1031 2919 1375 
Q 2919 1722 2741 1905 
Q 2563 2088 2228 2088 
z
M 1350 2484 
Q 925 2613 709 2878 
Q 494 3144 494 3541 
Q 494 4131 934 4440 
Q 1375 4750 2228 4750 
Q 3075 4750 3515 4442 
Q 3956 4134 3956 3541 
Q 3956 3144 3739 2878 
Q 3522 2613 3097 2484 
Q 3572 2353 3814 2058 
Q 4056 1763 4056 1313 
Q 4056 619 3595 264 
Q 3134 -91 2228 -91 
Q 1319 -91 855 264 
Q 391 619 391 1313 
Q 391 1763 633 2058 
Q 875 2353 1350 2484 
z
M 1631 3419 
Q 1631 3141 1786 2991 
Q 1941 2841 2228 2841 
Q 2509 2841 2662 2991 
Q 2816 3141 2816 3419 
Q 2816 3697 2662 3845 
Q 2509 3994 2228 3994 
Q 1941 3994 1786 3844 
Q 1631 3694 1631 3419 
z
" transform="scale(0.015625)"/>
      <path id="DejaVuSans-Bold-7e" d="M 4684 2656 
L 4684 1894 
Q 4353 1644 4073 1536 
Q 3794 1428 3494 1428 
Q 3159 1428 2713 1609 
Q 2669 1628 2644 1638 
Q 2622 1647 2575 1666 
Q 2091 1856 1797 1856 
Q 1522 1856 1253 1736 
Q 984 1616 678 1356 
L 678 2119 
Q 1013 2369 1291 2476 
Q 1569 2584 1869 2584 
Q 2203 2584 2650 2403 
Q 2697 2384 2719 2375 
Q 2741 2366 2788 2347 
Q 3272 2156 3566 2156 
Q 3834 2156 4098 2273 
Q 4363 2391 4684 2656 
z
" transform="scale(0.015625)"/>
      <path id="DejaVuSans-Bold-36" d="M 2316 2303 
Q 2000 2303 1842 2098 
Q 1684 1894 1684 1484 
Q 1684 1075 1842 870 
Q 2000 666 2316 666 
Q 2634 666 2792 870 
Q 2950 1075 2950 1484 
Q 2950 1894 2792 2098 
Q 2634 2303 2316 2303 
z
M 3803 4544 
L 3803 3681 
Q 3506 3822 3243 3889 
Q 2981 3956 2731 3956 
Q 2194 3956 1894 3657 
Q 1594 3359 1544 2772 
Q 1750 2925 1990 3001 
Q 2231 3078 2516 3078 
Q 3231 3078 3670 2659 
Q 4109 2241 4109 1563 
Q 4109 813 3618 361 
Q 3128 -91 2303 -91 
Q 1394 -91 895 523 
Q 397 1138 397 2266 
Q 397 3422 980 4083 
Q 1563 4744 2578 4744 
Q 2900 4744 3203 4694 
Q 3506 4644 3803 4544 
z
" transform="scale(0.015625)"/>
      <path id="DejaVuSans-Bold-39" d="M 641 103 
L 641 966 
Q 928 831 1190 764 
Q 1453 697 1709 697 
Q 2247 697 2547 995 
Q 2847 1294 2900 1881 
Q 2688 1725 2447 1647 
Q 2206 1569 1925 1569 
Q 1209 1569 770 1986 
Q 331 2403 331 3084 
Q 331 3838 820 4291 
Q 1309 4744 2131 4744 
Q 3044 4744 3544 4128 
Q 4044 3513 4044 2388 
Q 4044 1231 3459 570 
Q 2875 -91 1856 -91 
Q 1528 -91 1228 -42 
Q 928 6 641 103 
z
M 2125 2350 
Q 2441 2350 2600 2554 
Q 2759 2759 2759 3169 
Q 2759 3575 2600 3781 
Q 2441 3988 2125 3988 
Q 1809 3988 1650 3781 
Q 1491 3575 1491 3169 
Q 1491 2759 1650 2554 
Q 1809 2350 2125 2350 
z
" transform="scale(0.015625)"/>
     </defs>
     <use xlink:href="#DejaVuSans-Bold-28"/>
     <use xlink:href="#DejaVuSans-Bold-6700" x="45.703125"/>
     <use xlink:href="#DejaVuSans-Bold-8fd1" x="105.712891"/>
     <use xlink:href="#DejaVuSans-Bold-20" x="165.722656"/>
     <use xlink:href="#DejaVuSans-Bold-31" x="200.537109"/>
     <use xlink:href="#DejaVuSans-Bold-32" x="270.117188"/>
     <use xlink:href="#DejaVuSans-Bold-30" x="339.697266"/>
     <use xlink:href="#DejaVuSans-Bold-20" x="409.277344"/>
     <use xlink:href="#DejaVuSans-Bold-500b" x="444.091797"/>
     <use xlink:href="#DejaVuSans-Bold-4ea4" x="504.101562"/>
     <use xlink:href="#DejaVuSans-Bold-6613" x="564.111328"/>
     <use xlink:href="#DejaVuSans-Bold-65e5" x="624.121094"/>
     <use xlink:href="#DejaVuSans-Bold-2c" x="684.130859"/>
     <use xlink:href="#DejaVuSans-Bold-20" x="722.119141"/>
     <use xlink:href="#DejaVuSans-Bold-32" x="756.933594"/>
     <use xlink:href="#DejaVuSans-Bold-30" x="826.513672"/>
     <use xlink:href="#DejaVuSans-Bold-32" x="896.09375"/>
     <use xlink:href="#DejaVuSans-Bold-35" x="965.673828"/>
     <use xlink:href="#DejaVuSans-Bold-2d" x="1035.253906"/>
     <use xlink:href="#DejaVuSans-Bold-30" x="1076.757812"/>
     <use xlink:href="#DejaVuSans-Bold-37" x="1146.337891"/>
     <use xlink:href="#DejaVuSans-Bold-2d" x="1215.917969"/>
     <use xlink:href="#DejaVuSans-Bold-31" x="1257.421875"/>
     <use xlink:href="#DejaVuSans-Bold-38" x="1327.001953"/>
     <use xlink:href="#DejaVuSans-Bold-20" x="1396.582031"/>
     <use xlink:href="#DejaVuSans-Bold-7e" x="1431.396484"/>
     <use xlink:href="#DejaVuSans-Bold-20" x="1515.185547"/>
     <use xlink:href="#DejaVuSans-Bold-32" x="1550"/>
     <use xlink:href="#DejaVuSans-Bold-30" x="1619.580078"/>
     <use xlink:href="#DejaVuSans-Bold-32" x="1689.160156"/>
     <use xlink:href="#DejaVuSans-Bold-36" x="1758.740234"/>
     <use xlink:href="#DejaVuSans-Bold-2d" x="1828.320312"/>
     <use xlink:href="#DejaVuSans-Bold-30" x="1869.824219"/>
     <use xlink:href="#DejaVuSans-Bold-31" x="1939.404297"/>
     <use xlink:href="#DejaVuSans-Bold-2d" x="2008.984375"/>
     <use xlink:href="#DejaVuSans-Bold-30" x="2050.488281"/>
     <use xlink:href="#DejaVuSans-Bold-39" x="2120.068359"/>
     <use xlink:href="#DejaVuSans-Bold-29" x="2189.648438"/>
    </g>
    <!--  -->
    <g transform="translate(707.16875 46.192281) scale(0.13 -0.13)"/>
    <!-- 最新融資餘額: 0.0 億元 | 最新收盤價: 20.65 元 | 歷史區間: 0.0~0.0 億元 | 平均: 0.0 億元 -->
    <g transform="translate(492.282813 60.817687) scale(0.13 -0.13)">
     <defs>
      <path id="DejaVuSans-Bold-65b0" d="M 319 -1131 
L 319 4513 
L 3519 4513 
L 3519 -1131 
L 319 -1131 
z
M 678 -775 
L 3163 -775 
L 3163 4153 
L 678 4153 
L 678 -775 
z
" transform="scale(0.015625)"/>
      <path id="DejaVuSans-Bold-2e" d="M 653 1209 
L 1778 1209 
L 1778 0 
L 653 0 
L 653 1209 
z
" transform="scale(0.015625)"/>
      <path id="DejaVuSans-Bold-7c" d="M 1522 4891 
L 1522 -1509 
L 813 -1509 
L 813 4891 
L 1522 4891 
z
" transform="scale(0.015625)"/>
      <path id="DejaVuSans-Bold-6b77" d="M 319 -1131 
L 319 4513 
L 3519 4513 
L 3519 -1131 
L 319 -1131 
z
M 678 -775 
L 3163 -775 
L 3163 4153 
L 678 4153 
L 678 -775 
z
" transform="scale(0.015625)"/>
      <path id="DejaVuSans-Bold-53f2" d="M 319 -1131 
L 319 4513 
L 3519 4513 
L 3519 -1131 
L 319 -1131 
z
M 678 -775 
L 3163 -775 
L 3163 4153 
L 678 4153 
L 678 -775 
z
" transform="scale(0.015625)"/>
      <path id="DejaVuSans-Bold-5340" d="M 319 -1131 
L 319 4513 
L 3519 4513 
L 3519 -1131 
L 319 -1131 
z
M 678 -775 
L 3163 -775 
L 3163 4153 
L 678 4153 
L 678 -775 
z
" transform="scale(0.015625)"/>
      <path id="DejaVuSans-Bold-9593" d="M 319 -1131 
L 319 4513 
L 3519 4513 
L 3519 -1131 
L 319 -1131 
z
M 678 -775 
L 3163 -775 
L 3163 4153 
L 678 4153 
L 678 -775 
z
" transform="scale(0.015625)"/>
      <path id="DejaVuSans-Bold-5e73" d="M 319 -1131 
L 319 4513 
L 3519 4513 
L 3519 -1131 
L 319 -1131 
z
M 678 -775 
L 3163 -775 
L 3163 4153 
L 678 4153 
L 678 -775 
z
" transform="scale(0.015625)"/>
      <path id="DejaVuSans-Bold-5747" d="M 319 -1131 
L 319 4513 
L 3519 4513 
L 3519 -1131 
L 319 -1131 
z
M 678 -775 
L 3163 -775 
L 3163 4153 
L 678 4153 
L 678 -775 
z
" transform="scale(0.015625)"/>
     </defs>
     <use xlink:href="#DejaVuSans-Bold-6700"/>
     <use xlink:href="#DejaVuSans-Bold-65b0" x="60.009766"/>
     <use xlink:href="#DejaVuSans-Bold-878d" x="120.019531"/>
     <use xlink:href="#DejaVuSans-Bold-8cc7" x="180.029297"/>
     <use xlink:href="#DejaVuSans-Bold-9918" x="240.039062"/>
     <use xlink:href="#DejaVuSans-Bold-984d" x="300.048828"/>
     <use xlink:href="#DejaVuSans-Bold-3a" x="360.058594"/>
     <use xlink:href="#DejaVuSans-Bold-20" x="400.048828"/>
     <use xlink:href="#DejaVuSans-Bold-30" x="434.863281"/>
     <use xlink:href="#DejaVuSans-Bold-2e" x="504.443359"/>
     <use xlink:href="#DejaVuSans-Bold-30" x="542.431641"/>
     <use xlink:href="#DejaVuSans-Bold-20" x="612.011719"/>
     <use xlink:href="#DejaVuSans-Bold-5104" x="646.826172"/>
     <use xlink:href="#DejaVuSans-Bold-5143" x="706.835938"/>
     <use xlink:href="#DejaVuSans-Bold-20" x="766.845703"/>
     <use xlink:href="#DejaVuSans-Bold-7c" x="801.660156"/>
     <use xlink:href="#DejaVuSans-Bold-20" x="838.183594"/>
     <use xlink:href="#DejaVuSans-Bold-6700" x="872.998047"/>
     <use xlink:href="#DejaVuSans-Bold-65b0" x="933.007812"/>
     <use xlink:href="#DejaVuSans-Bold-6536" x="993.017578"/>
     <use xlink:href="#DejaVuSans-Bold-76e4" x="1053.027344"/>
     <use xlink:href="#DejaVuSans-Bold-50f9" x="1113.037109"/>
     <use xlink:href="#DejaVuSans-Bold-3a" x="1173.046875"/>
     <use xlink:href="#DejaVuSans-Bold-20" x="1213.037109"/>
     <use xlink:href="#DejaVuSans-Bold-32" x="1247.851562"/>
     <use xlink:href="#DejaVuSans-Bold-30" x="1317.431641"/>
     <use xlink:href="#DejaVuSans-Bold-2e" x="1387.011719"/>
     <use xlink:href="#DejaVuSans-Bold-36" x="1425"/>
     <use xlink:href="#DejaVuSans-Bold-35" x="1494.580078"/>
     <use xlink:href="#DejaVuSans-Bold-20" x="1564.160156"/>
     <use xlink:href="#DejaVuSans-Bold-5143" x="1598.974609"/>
     <use xlink:href="#DejaVuSans-Bold-20" x="1658.984375"/>
     <use xlink:href="#DejaVuSans-Bold-7c" x="1693.798828"/>
     <use xlink:href="#DejaVuSans-Bold-20" x="1730.322266"/>
     <use xlink:href="#DejaVuSans-Bold-6b77" x="1765.136719"/>
     <use xlink:href="#DejaVuSans-Bold-53f2" x="1825.146484"/>
     <use xlink:href="#DejaVuSans-Bold-5340" x="1885.15625"/>
     <use xlink:href="#DejaVuSans-Bold-9593" x="1945.166016"/>
     <use xlink:href="#DejaVuSans-Bold-3a" x="2005.175781"/>
     <use xlink:href="#DejaVuSans-Bold-20" x="2045.166016"/>
     <use xlink:href="#DejaVuSans-Bold-30" x="2079.980469"/>
     <use xlink:href="#DejaVuSans-Bold-2e" x="2149.560547"/>
     <use xlink:href="#DejaVuSans-Bold-30" x="2187.548828"/>
     <use xlink:href="#DejaVuSans-Bold-7e" x="2257.128906"/>
     <use xlink:href="#DejaVuSans-Bold-30" x="2340.917969"/>
     <use xlink:href="#DejaVuSans-Bold-2e" x="2410.498047"/>
     <use xlink:href="#DejaVuSans-Bold-30" x="2448.486328"/>
     <use xlink:href="#DejaVuSans-Bold-20" x="2518.066406"/>
     <use xlink:href="#DejaVuSans-Bold-5104" x="2552.880859"/>
     <use xlink:href="#DejaVuSans-Bold-5143" x="2612.890625"/>
     <use xlink:href="#DejaVuSans-Bold-20" x="2672.900391"/>
     <use xlink:href="#DejaVuSans-Bold-7c" x="2707.714844"/>
     <use xlink:href="#DejaVuSans-Bold-20" x="2744.238281"/>
     <use xlink:href="#DejaVuSans-Bold-5e73" x="2779.052734"/>
     <use xlink:href="#DejaVuSans-Bold-5747" x="2839.0625"/>
     <use xlink:href="#DejaVuSans-Bold-3a" x="2899.072266"/>
     <use xlink:href="#DejaVuSans-Bold-20" x="2939.0625"/>
     <use xlink:href="#DejaVuSans-Bold-30" x="2973.876953"/>
     <use xlink:href="#DejaVuSans-Bold-2e" x="3043.457031"/>
     <use xlink:href="#DejaVuSans-Bold-30" x="3081.445312"/>
     <use xlink:href="#DejaVuSans-Bold-20" x="3151.025391"/>
     <use xlink:href="#DejaVuSans-Bold-5104" x="3185.839844"/>
     <use xlink:href="#DejaVuSans-Bold-5143" x="3245.849609"/>
    </g>
   </g>
  </g>
 </g>
 <defs>
  <clipPath id="pe0684c3a64">
   <rect x="42.53875" y="80.817687" width="1329.26" height="571.876049"/>
  </clipPath>
 </defs>
</svg>
